# Blender v2.79 (sub 0) OBJ File: 'world_countrycodes_outlines2.blend'
# www.blender.org
mtllib AE_outline.mtl
o AE.001_CUCurve.1622
v 1.252378 0.000788 0.509849
v 1.253370 -0.000146 0.514397
v 1.252814 -0.002119 0.512521
v 1.256577 -0.000677 0.512027
v 1.256967 -0.001972 0.509132
v 1.257172 0.001973 0.510669
v 1.260359 0.000790 0.508255
v 1.266164 -0.001983 0.509193
v 1.262888 -0.000839 0.512347
v 1.266537 0.001896 0.510840
v 1.269562 -0.000821 0.509558
v 1.267284 -0.000733 0.506262
v 1.267059 0.000987 0.506266
v 1.276698 0.001485 0.499123
v 1.276755 -0.000818 0.499838
v 1.277847 -0.001906 0.496374
v 1.276269 -0.000875 0.495443
v 1.278372 0.001611 0.496077
v 1.280721 0.001380 0.505561
v 1.278626 -0.002110 0.504660
v 1.276731 0.000817 0.507808
v 1.276705 0.001588 0.504313
v 1.272765 0.000798 0.503807
v 1.275855 -0.000328 0.511190
v 1.274221 0.002065 0.511049
v 1.273879 -0.001762 0.506684
v 1.276249 -0.001671 0.507464
v 1.267603 0.000710 0.517074
v 1.268322 -0.001901 0.518455
v 1.269780 0.001987 0.520137
v 1.270410 -0.000652 0.521595
v 1.255825 -0.000602 0.515607
v 1.252886 -0.001719 0.517784
v 1.255061 0.000771 0.519643
v 1.252818 0.001933 0.516267
v 1.248566 -0.000691 0.507200
v 1.252795 0.002026 0.512908
vn 0.0312 -0.9969 -0.0725
vn 0.3289 -0.3477 0.8780
vn 0.8912 0.0072 -0.4535
vn 0.0345 0.9817 0.1874
vn -0.0038 0.9989 0.0468
vn -0.0139 0.4588 -0.8884
vn -0.1255 -0.8309 -0.5421
vn -0.0912 0.4024 -0.9109
vn 0.2575 0.7691 0.5850
vn -0.0032 -0.9993 0.0366
vn 0.0598 -0.3350 0.9403
vn 0.6479 -0.3410 0.6811
vn -0.4411 0.6353 -0.6339
vn -0.5894 -0.4506 -0.6704
vn 0.0748 0.9709 0.2274
vn -0.2079 -0.8441 0.4941
vn -0.3490 -0.1944 -0.9167
vn 0.4345 -0.7639 -0.4772
vn 0.8382 0.4006 0.3700
vn 0.4331 0.6157 -0.6582
vn 0.3406 -0.9394 0.0380
vn -0.2539 0.9147 -0.3144
vn 0.4311 -0.8294 0.3553
vn -0.7260 0.1962 -0.6590
vn -0.5931 -0.7816 -0.1932
vn 0.1074 0.9938 0.0291
vn 0.7471 0.4632 0.4767
vn -0.3443 0.4878 -0.8021
vn -0.0400 -0.9956 -0.0840
vn 0.2613 0.8537 0.4504
vn 0.4576 -0.2873 0.8414
vn 0.8790 -0.1820 0.4406
vn 0.3536 -0.3891 -0.8506
vn -0.5591 -0.6558 0.5072
vn -0.4541 0.8585 0.2381
vn -0.3434 0.3119 0.8859
vn -0.5929 -0.1066 -0.7982
usemtl SVGMat.3781
s 1
f 3//1 4//2 2//3
f 4//2 6//4 37//5
f 1//6 5//7 3//1
f 5//7 4//2 3//1
f 6//4 7//8 1//6
f 4//2 10//9 6//4
f 7//8 8//10 5//7
f 5//7 9//11 4//2
f 8//10 11//12 9//11
f 10//9 13//13 7//8
f 13//13 12//14 7//8
f 11//12 14//15 10//9
f 8//10 15//16 11//12
f 17//17 16//18 8//10
f 14//15 19//19 18//20
f 16//18 20//21 15//16
f 19//19 20//21 16//18
f 20//21 22//22 15//16
f 19//19 27//23 20//21
f 20//21 23//24 22//22
f 27//23 26//25 20//21
f 22//22 25//26 21//27
f 23//24 25//26 22//22
f 26//25 28//28 25//26
f 27//23 29//29 26//25
f 30//30 31//31 24//32
f 28//28 30//30 25//26
f 29//29 32//33 28//28
f 33//34 32//33 29//29
f 35//35 33//34 34//36
f 32//33 37//5 35//35
f 33//34 3//1 32//33
f 35//35 36//37 33//34
f 3//1 2//3 32//33
f 37//5 1//6 36//37
f 2//3 4//2 37//5
f 37//5 6//4 1//6
f 1//6 7//8 5//7
f 5//7 8//10 9//11
f 4//2 9//11 10//9
f 6//4 10//9 7//8
f 9//11 11//12 10//9
f 7//8 12//14 8//10
f 12//14 13//13 17//17
f 10//9 18//20 13//13
f 10//9 14//15 18//20
f 12//14 17//17 8//10
f 11//12 15//16 14//15
f 8//10 16//18 15//16
f 13//13 18//20 17//17
f 17//17 18//20 16//18
f 18//20 19//19 16//18
f 15//16 22//22 14//15
f 14//15 22//22 19//19
f 19//19 21//27 27//23
f 19//19 22//22 21//27
f 20//21 26//25 23//24
f 21//27 24//32 27//23
f 21//27 25//26 24//32
f 23//24 26//25 25//26
f 26//25 29//29 28//28
f 27//23 24//32 29//29
f 25//26 30//30 24//32
f 24//32 31//31 29//29
f 30//30 34//36 31//31
f 28//28 35//35 30//30
f 28//28 32//33 35//35
f 31//31 33//34 29//29
f 30//30 35//35 34//36
f 31//31 34//36 33//34
f 35//35 37//5 36//37
f 32//33 2//3 37//5
f 33//34 36//37 3//1
f 36//37 1//6 3//1
