# Blender v2.79 (sub 0) OBJ File: 'world_countrycodes_export2.blend'
# www.blender.org
mtllib AL.mtl
o AL.002_CUCurve.1819
v 1.074840 0.000000 0.408589
v 1.075197 0.000000 0.407205
v 1.076400 0.000000 0.405759
v 1.077273 0.000000 0.404221
v 1.077565 0.000000 0.403342
v 1.075274 0.000000 0.401372
v 1.074380 0.000000 0.400066
v 1.074197 0.000000 0.398539
v 1.074381 0.000000 0.395818
v 1.074925 0.000000 0.393858
v 1.071756 0.000000 0.391831
v 1.069863 0.000000 0.391073
v 1.068876 0.000000 0.391754
v 1.067778 0.000000 0.393432
v 1.067178 0.000000 0.395141
v 1.068559 0.000000 0.395937
v 1.069405 0.000000 0.396809
v 1.069463 0.000000 0.397740
v 1.068311 0.000000 0.399209
v 1.067525 0.000000 0.401540
v 1.067449 0.000000 0.404254
v 1.067758 0.000000 0.405834
v 1.068240 0.000000 0.406787
v 1.069478 0.000000 0.408088
v 1.071400 0.000000 0.411287
v 1.072364 0.000000 0.411971
v 1.073380 0.000000 0.409548
v 1.073939 0.000000 0.408946
v 1.074840 0.050000 0.408589
v 1.069478 0.050000 0.408088
v 1.074381 0.050000 0.395818
v 1.074925 0.050000 0.393858
v 1.077565 0.050000 0.403342
v 1.075274 0.050000 0.401372
v 1.074380 0.050000 0.400066
v 1.067525 0.050000 0.401540
v 1.075197 0.050000 0.407205
v 1.076400 0.050000 0.405759
v 1.077273 0.050000 0.404221
v 1.071756 0.050000 0.391831
v 1.071400 0.050000 0.411287
v 1.069405 0.050000 0.396809
v 1.069463 0.050000 0.397740
v 1.068240 0.050000 0.406787
v 1.074197 0.050000 0.398539
v 1.067758 0.050000 0.405834
v 1.072364 0.050000 0.411971
v 1.073939 0.050000 0.408946
v 1.067449 0.050000 0.404254
v 1.069863 0.050000 0.391073
v 1.067778 0.050000 0.393432
v 1.067178 0.050000 0.395141
v 1.068311 0.050000 0.399209
v 1.068876 0.050000 0.391754
v 1.073380 0.050000 0.409548
v 1.068559 0.050000 0.395937
vn 0.0000 -1.0000 0.0000
vn 0.0000 1.0000 0.0000
vn -0.9814 0.0000 0.1918
vn 0.9977 0.0000 0.0676
vn -0.7248 0.0000 0.6890
vn -0.5676 0.0000 -0.8233
vn -0.8920 0.0000 0.4521
vn -0.5789 0.0000 0.8154
vn 0.9223 0.0000 0.3866
vn 0.9636 0.0000 0.2673
vn 0.3684 0.0000 0.9297
vn 0.6521 0.0000 -0.7581
vn 0.7328 0.0000 0.6804
vn 0.8249 0.0000 -0.5652
vn -0.8368 0.0000 -0.5476
vn -0.9996 0.0000 -0.0280
vn 0.3719 0.0000 -0.9283
vn -0.4996 0.0000 0.8663
vn 0.7690 0.0000 0.6392
vn 0.9489 0.0000 0.3155
vn -0.7869 0.0000 -0.6171
vn 0.9929 0.0000 -0.1190
vn 0.5388 0.0000 -0.8424
vn -0.9437 0.0000 -0.3308
vn 0.8697 0.0000 0.4936
vn -0.8571 0.0000 0.5152
vn -0.9475 0.0000 -0.3197
vn -0.7174 0.0000 0.6966
vn -0.9981 0.0000 0.0623
vn 0.9683 0.0000 0.2499
usemtl SVGMat.3781
s off
f 13//1 12//1 11//1
f 14//1 13//1 11//1
f 14//1 11//1 10//1
f 14//1 10//1 9//1
f 15//1 14//1 9//1
f 16//1 15//1 9//1
f 17//1 16//1 9//1
f 18//1 17//1 9//1
f 18//1 9//1 8//1
f 19//1 18//1 8//1
f 19//1 8//1 7//1
f 20//1 19//1 7//1
f 20//1 7//1 6//1
f 20//1 6//1 5//1
f 21//1 20//1 5//1
f 21//1 5//1 4//1
f 22//1 21//1 4//1
f 22//1 4//1 3//1
f 23//1 22//1 3//1
f 23//1 3//1 2//1
f 24//1 23//1 2//1
f 24//1 2//1 1//1
f 24//1 1//1 28//1
f 24//1 28//1 27//1
f 25//1 24//1 27//1
f 25//1 27//1 26//1
f 54//2 40//2 50//2
f 51//2 40//2 54//2
f 51//2 32//2 40//2
f 51//2 31//2 32//2
f 52//2 31//2 51//2
f 56//2 31//2 52//2
f 42//2 31//2 56//2
f 43//2 31//2 42//2
f 43//2 45//2 31//2
f 53//2 45//2 43//2
f 53//2 35//2 45//2
f 36//2 35//2 53//2
f 36//2 34//2 35//2
f 36//2 33//2 34//2
f 49//2 33//2 36//2
f 49//2 39//2 33//2
f 46//2 39//2 49//2
f 46//2 38//2 39//2
f 44//2 38//2 46//2
f 44//2 37//2 38//2
f 30//2 37//2 44//2
f 30//2 29//2 37//2
f 30//2 48//2 29//2
f 30//2 55//2 48//2
f 41//2 55//2 30//2
f 41//2 47//2 55//2
f 21//3 22//3 46//3 49//3
f 8//4 9//4 31//4 45//4
f 23//5 24//5 30//5 44//5
f 12//6 13//6 54//6 50//6
f 22//7 23//7 44//7 46//7
f 25//8 26//8 47//8 41//8
f 26//9 27//9 55//9 47//9
f 9//10 10//10 32//10 31//10
f 28//11 1//11 29//11 48//11
f 5//12 6//12 34//12 33//12
f 27//13 28//13 48//13 55//13
f 6//14 7//14 35//14 34//14
f 13//15 14//15 51//15 54//15
f 20//16 21//16 49//16 36//16
f 11//17 12//17 50//17 40//17
f 15//18 16//18 56//18 52//18
f 2//19 3//19 38//19 37//19
f 4//20 5//20 33//20 39//20
f 18//21 19//21 53//21 43//21
f 7//22 8//22 45//22 35//22
f 10//23 11//23 40//23 32//23
f 14//24 15//24 52//24 51//24
f 3//25 4//25 39//25 38//25
f 24//26 25//26 41//26 30//26
f 19//27 20//27 36//27 53//27
f 16//28 17//28 42//28 56//28
f 17//29 18//29 43//29 42//29
f 1//30 2//30 37//30 29//30
