# Blender v2.79 (sub 0) OBJ File: 'world_countrycodes_outlines2.blend'
# www.blender.org
mtllib AL_outline.mtl
o AL.001_CUCurve.1645
v 1.070015 0.000675 0.412714
v 1.071763 -0.000874 0.409061
v 1.072858 -0.001785 0.413999
v 1.066819 0.001957 0.406076
v 1.066128 -0.000842 0.407089
v 1.067264 -0.002032 0.403551
v 1.069556 0.000647 0.405008
v 1.065344 0.000482 0.402043
v 1.069633 -0.000758 0.400881
v 1.067222 -0.000766 0.397417
v 1.069135 0.002056 0.397465
v 1.071726 0.000769 0.397384
v 1.070635 -0.001875 0.397138
v 1.069580 0.000857 0.393808
v 1.066190 -0.002046 0.395650
v 1.065176 0.001366 0.394916
v 1.069803 -0.001911 0.389962
v 1.067445 -0.000952 0.390179
v 1.070168 -0.000743 0.393219
v 1.069549 0.001952 0.390157
v 1.070930 0.000019 0.389038
v 1.072668 -0.000928 0.394670
v 1.073786 0.001935 0.394148
v 1.075876 -0.001851 0.393492
v 1.077044 0.001149 0.393174
v 1.075973 0.000773 0.399168
v 1.072361 -0.000782 0.400683
v 1.075070 -0.001976 0.399993
v 1.073585 0.001922 0.400695
v 1.075181 -0.000562 0.404038
v 1.076558 0.001889 0.403682
v 1.080007 0.000719 0.403090
v 1.078736 -0.001887 0.402999
v 1.073909 -0.001935 0.407886
v 1.076116 -0.000857 0.409833
v 1.075295 0.001996 0.408765
v 1.073139 0.000732 0.407131
v 1.072216 0.002183 0.411367
vn -0.5289 0.3057 0.7917
vn -0.8581 -0.3715 0.3545
vn 0.2054 -0.4563 0.8658
vn 0.1665 0.9236 0.3452
vn -0.4674 0.8704 0.1548
vn -0.1501 -0.9884 -0.0220
vn -0.9756 0.1560 -0.1541
vn 0.9201 -0.2655 0.2880
vn 0.8972 0.3475 -0.2725
vn -0.8404 -0.4020 0.3634
vn 0.0480 0.9973 0.0561
vn 0.9381 0.3422 0.0535
vn 0.5574 -0.8176 -0.1441
vn 0.4360 0.7757 0.4562
vn -0.8444 0.5305 0.0744
vn -0.5545 -0.8079 0.1997
vn -0.1939 0.8324 -0.5191
vn -0.6698 -0.2759 -0.6894
vn -0.0139 -0.8518 -0.5237
vn 0.1180 -0.6755 0.7278
vn 0.2001 0.0363 -0.9791
vn -0.1578 0.9741 0.1619
vn -0.7149 -0.5712 0.4033
vn 0.5469 -0.8010 -0.2434
vn 0.8299 0.4998 -0.2479
vn 0.8597 0.3934 -0.3259
vn 0.1570 -0.9862 -0.0527
vn -0.8967 -0.3298 0.2951
vn -0.4690 0.8639 0.1832
vn -0.8798 -0.4696 -0.0729
vn -0.0963 0.9944 -0.0443
vn 0.5608 -0.8140 -0.1512
vn 0.9397 0.3111 -0.1422
vn 0.7626 -0.3215 0.5613
vn -0.3036 -0.9265 -0.2221
vn -0.7769 0.3806 -0.5014
vn 0.1502 -0.7209 -0.6765
vn 0.3066 0.9098 0.2796
usemtl SVGMat.3781
s 1
f 1//1 5//2 3//3
f 38//4 4//5 1//1
f 5//2 6//6 3//3
f 4//5 5//2 1//1
f 4//5 8//7 5//2
f 8//7 6//6 5//2
f 6//6 9//8 7//9
f 8//7 10//10 6//6
f 4//5 11//11 8//7
f 9//8 12//12 11//11
f 6//6 13//13 9//8
f 10//10 13//13 6//6
f 13//13 14//14 12//12
f 16//15 15//16 10//10
f 14//14 16//15 11//11
f 10//10 15//16 13//13
f 14//14 20//17 16//15
f 18//18 17//19 15//16
f 17//19 19//20 15//16
f 20//17 21//21 18//18
f 19//20 23//22 14//14
f 17//19 22//23 19//20
f 21//21 24//24 17//19
f 23//22 26//25 25//26
f 26//25 28//27 24//24
f 28//27 27//28 22//23
f 27//28 29//29 23//22
f 30//30 31//31 29//29
f 28//27 30//30 27//28
f 26//25 33//32 28//27
f 31//31 32//33 26//25
f 32//33 35//34 33//32
f 33//32 34//35 30//30
f 35//34 34//35 33//32
f 30//30 37//36 31//31
f 34//35 37//36 30//30
f 34//35 2//37 37//36
f 35//34 3//3 34//35
f 38//4 3//3 35//34
f 38//4 1//1 3//3
f 2//37 7//9 38//4
f 3//3 6//6 2//37
f 2//37 6//6 7//9
f 38//4 7//9 4//5
f 7//9 11//11 4//5
f 7//9 9//8 11//11
f 8//7 11//11 10//10
f 9//8 13//13 12//12
f 12//12 14//14 11//11
f 13//13 15//16 14//14
f 11//11 16//15 10//10
f 15//16 16//15 18//18
f 15//16 19//20 14//14
f 16//15 20//17 18//18
f 18//18 21//21 17//19
f 20//17 25//26 21//21
f 14//14 23//22 20//17
f 19//20 22//23 23//22
f 20//17 23//22 25//26
f 17//19 24//24 22//23
f 21//21 25//26 24//24
f 25//26 26//25 24//24
f 22//23 27//28 23//22
f 24//24 28//27 22//23
f 23//22 29//29 26//25
f 27//28 30//30 29//29
f 29//29 31//31 26//25
f 26//25 32//33 33//32
f 28//27 33//32 30//30
f 31//31 36//38 32//33
f 32//33 36//38 35//34
f 31//31 37//36 36//38
f 37//36 38//4 36//38
f 37//36 2//37 38//4
f 36//38 38//4 35//34
f 34//35 3//3 2//37
