# Blender v2.79 (sub 0) OBJ File: 'world_countrycodes_export2.blend'
# www.blender.org
mtllib AM.mtl
o AM.002_CUCurve.1720
v 1.221004 0.000000 0.412707
v 1.220399 0.000000 0.412006
v 1.218680 0.000000 0.410666
v 1.217934 0.000000 0.409908
v 1.217643 0.000000 0.409346
v 1.217542 0.000000 0.408562
v 1.217261 0.000000 0.407771
v 1.216039 0.000000 0.405988
v 1.215569 0.000000 0.405038
v 1.215616 0.000000 0.404103
v 1.215361 0.000000 0.403234
v 1.214005 0.000000 0.401113
v 1.211529 0.000000 0.400657
v 1.209153 0.000000 0.400606
v 1.207602 0.000000 0.400834
v 1.203371 0.000000 0.401809
v 1.203924 0.000000 0.403003
v 1.204127 0.000000 0.404781
v 1.204657 0.000000 0.406501
v 1.205323 0.000000 0.407321
v 1.206343 0.000000 0.407780
v 1.208271 0.000000 0.407894
v 1.208910 0.000000 0.408078
v 1.209594 0.000000 0.409112
v 1.209998 0.000000 0.410216
v 1.210731 0.000000 0.410222
v 1.211606 0.000000 0.410716
v 1.212033 0.000000 0.411432
v 1.214064 0.000000 0.412323
v 1.215062 0.000000 0.412865
v 1.216077 0.000000 0.412769
v 1.216932 0.000000 0.413161
v 1.218538 0.000000 0.414990
v 1.218803 0.000000 0.415848
v 1.218717 0.000000 0.416766
v 1.219972 0.000000 0.416682
v 1.221352 0.000000 0.416380
v 1.222385 0.000000 0.416005
v 1.221825 0.000000 0.415116
v 1.221277 0.000000 0.413810
v 1.217261 0.050000 0.407771
v 1.208271 0.050000 0.407894
v 1.220399 0.050000 0.412006
v 1.212033 0.050000 0.411432
v 1.214064 0.050000 0.412323
v 1.215062 0.050000 0.412865
v 1.221004 0.050000 0.412707
v 1.218680 0.050000 0.410666
v 1.217934 0.050000 0.409908
v 1.209998 0.050000 0.410216
v 1.217643 0.050000 0.409346
v 1.217542 0.050000 0.408562
v 1.206343 0.050000 0.407780
v 1.215569 0.050000 0.405038
v 1.215616 0.050000 0.404103
v 1.214005 0.050000 0.401113
v 1.207602 0.050000 0.400834
v 1.215361 0.050000 0.403234
v 1.221277 0.050000 0.413810
v 1.216932 0.050000 0.413161
v 1.205323 0.050000 0.407321
v 1.222385 0.050000 0.416005
v 1.221825 0.050000 0.415116
v 1.218717 0.050000 0.416766
v 1.221352 0.050000 0.416380
v 1.218803 0.050000 0.415848
v 1.209153 0.050000 0.400606
v 1.216077 0.050000 0.412769
v 1.211606 0.050000 0.410716
v 1.211529 0.050000 0.400657
v 1.218538 0.050000 0.414990
v 1.208910 0.050000 0.408078
v 1.209594 0.050000 0.409112
v 1.210731 0.050000 0.410222
v 1.204657 0.050000 0.406501
v 1.216039 0.050000 0.405988
v 1.204127 0.050000 0.404781
v 1.203371 0.050000 0.401809
v 1.203924 0.050000 0.403003
v 1.219972 0.050000 0.416682
vn 0.0000 -1.0000 0.0000
vn 0.0000 1.0000 0.0000
vn -0.4106 0.0000 0.9118
vn -0.7762 0.0000 0.6305
vn -0.1451 0.0000 -0.9894
vn 0.9918 0.0000 -0.1277
vn -0.9956 0.0000 -0.0937
vn -0.0587 0.0000 0.9983
vn -0.8337 0.0000 0.5521
vn -0.7515 0.0000 0.6597
vn -0.8591 0.0000 0.5118
vn 0.1814 0.0000 -0.9834
vn -0.9553 0.0000 0.2955
vn -0.0081 0.0000 1.0000
vn 0.0212 0.0000 -0.9998
vn 0.3413 0.0000 0.9400
vn 0.9987 0.0000 0.0512
vn 0.8884 0.0000 -0.4591
vn -0.4165 0.0000 0.9091
vn -0.4016 0.0000 0.9158
vn -0.9557 0.0000 0.2944
vn -0.4911 0.0000 0.8711
vn -0.2774 0.0000 0.9607
vn 0.8250 0.0000 -0.5652
vn 0.8424 0.0000 -0.5389
vn -0.9076 0.0000 0.4199
vn 0.9421 0.0000 -0.3353
vn 0.7568 0.0000 -0.6536
vn 0.0936 0.0000 0.9956
vn 0.9220 0.0000 -0.3871
vn -0.9392 0.0000 0.3433
vn 0.9708 0.0000 -0.2400
vn 0.8960 0.0000 -0.4441
vn -0.2248 0.0000 -0.9744
vn 0.8462 0.0000 -0.5328
vn -0.9935 0.0000 0.1139
vn 0.6146 0.0000 -0.7888
vn -0.4772 0.0000 0.8788
vn 0.2141 0.0000 0.9768
vn 0.0666 0.0000 0.9978
vn 0.7127 0.0000 -0.7015
vn 0.9595 0.0000 -0.2816
usemtl SVGMat.3781
s off
f 15//1 14//1 13//1
f 15//1 13//1 12//1
f 16//1 15//1 12//1
f 16//1 12//1 11//1
f 17//1 16//1 11//1
f 17//1 11//1 10//1
f 18//1 17//1 10//1
f 18//1 10//1 9//1
f 19//1 18//1 9//1
f 19//1 9//1 8//1
f 19//1 8//1 7//1
f 20//1 19//1 7//1
f 21//1 20//1 7//1
f 22//1 21//1 7//1
f 23//1 22//1 7//1
f 23//1 7//1 6//1
f 24//1 23//1 6//1
f 24//1 6//1 5//1
f 24//1 5//1 4//1
f 25//1 24//1 4//1
f 25//1 4//1 26//1
f 26//1 4//1 3//1
f 27//1 26//1 3//1
f 28//1 27//1 3//1
f 28//1 3//1 2//1
f 29//1 28//1 2//1
f 29//1 2//1 1//1
f 30//1 29//1 31//1
f 31//1 29//1 1//1
f 31//1 1//1 40//1
f 32//1 31//1 40//1
f 33//1 32//1 40//1
f 33//1 40//1 39//1
f 34//1 33//1 39//1
f 34//1 39//1 38//1
f 34//1 38//1 37//1
f 35//1 34//1 37//1
f 35//1 37//1 36//1
f 57//2 70//2 67//2
f 57//2 56//2 70//2
f 78//2 56//2 57//2
f 78//2 58//2 56//2
f 79//2 58//2 78//2
f 79//2 55//2 58//2
f 77//2 55//2 79//2
f 77//2 54//2 55//2
f 75//2 54//2 77//2
f 75//2 76//2 54//2
f 75//2 41//2 76//2
f 61//2 41//2 75//2
f 53//2 41//2 61//2
f 42//2 41//2 53//2
f 72//2 41//2 42//2
f 72//2 52//2 41//2
f 73//2 52//2 72//2
f 73//2 51//2 52//2
f 73//2 49//2 51//2
f 50//2 49//2 73//2
f 50//2 74//2 49//2
f 74//2 48//2 49//2
f 69//2 48//2 74//2
f 44//2 48//2 69//2
f 44//2 43//2 48//2
f 45//2 43//2 44//2
f 45//2 47//2 43//2
f 46//2 68//2 45//2
f 68//2 47//2 45//2
f 68//2 59//2 47//2
f 60//2 59//2 68//2
f 71//2 59//2 60//2
f 71//2 63//2 59//2
f 66//2 63//2 71//2
f 66//2 62//2 63//2
f 66//2 65//2 62//2
f 64//2 65//2 66//2
f 64//2 80//2 65//2
f 20//3 21//3 53//3 61//3
f 19//4 20//4 61//4 75//4
f 14//5 15//5 57//5 67//5
f 5//6 6//6 52//6 51//6
f 34//7 35//7 64//7 66//7
f 21//8 22//8 42//8 53//8
f 23//9 24//9 73//9 72//9
f 32//10 33//10 71//10 60//10
f 27//11 28//11 44//11 69//11
f 12//12 13//12 70//12 56//12
f 33//13 34//13 66//13 71//13
f 25//14 26//14 74//14 50//14
f 13//15 14//15 67//15 70//15
f 37//16 38//16 62//16 65//16
f 9//17 10//17 55//17 54//17
f 4//18 5//18 51//18 49//18
f 31//19 32//19 60//19 68//19
f 28//20 29//20 45//20 44//20
f 18//21 19//21 75//21 77//21
f 26//22 27//22 69//22 74//22
f 22//23 23//23 72//23 42//23
f 7//24 8//24 76//24 41//24
f 11//25 12//25 56//25 58//25
f 16//26 17//26 79//26 78//26
f 6//27 7//27 41//27 52//27
f 1//28 2//28 43//28 47//28
f 30//29 31//29 68//29 46//29
f 39//30 40//30 59//30 63//30
f 24//31 25//31 50//31 73//31
f 40//32 1//32 47//32 59//32
f 8//33 9//33 54//33 76//33
f 15//34 16//34 78//34 57//34
f 38//35 39//35 63//35 62//35
f 17//36 18//36 77//36 79//36
f 2//37 3//37 48//37 43//37
f 29//38 30//38 46//38 45//38
f 36//39 37//39 65//39 80//39
f 35//40 36//40 80//40 64//40
f 3//41 4//41 49//41 48//41
f 10//42 11//42 58//42 55//42
