# Blender v2.79 (sub 0) OBJ File: 'world_countrycodes_export2.blend'
# www.blender.org
mtllib AO.mtl
o AO.002_CUCurve.1711
v 1.030966 0.000000 0.749572
v 1.031619 0.000000 0.750639
v 1.032351 0.000000 0.750740
v 1.033734 0.000000 0.750154
v 1.035606 0.000000 0.749900
v 1.037508 0.000000 0.750373
v 1.039226 0.000000 0.751402
v 1.041568 0.000000 0.752187
v 1.043369 0.000000 0.752233
v 1.043629 0.000000 0.752233
v 1.044366 0.000000 0.752233
v 1.045511 0.000000 0.752233
v 1.046996 0.000000 0.752233
v 1.048753 0.000000 0.752233
v 1.050714 0.000000 0.752233
v 1.052811 0.000000 0.752233
v 1.054976 0.000000 0.752233
v 1.057141 0.000000 0.752233
v 1.059238 0.000000 0.752233
v 1.061198 0.000000 0.752233
v 1.062955 0.000000 0.752233
v 1.064928 0.000000 0.754232
v 1.072505 0.000000 0.753829
v 1.076614 0.000000 0.754010
v 1.077758 0.000000 0.754310
v 1.080749 0.000000 0.754537
v 1.083693 0.000000 0.754289
v 1.086388 0.000000 0.753658
v 1.087758 0.000000 0.753271
v 1.081300 0.000000 0.744445
v 1.081893 0.000000 0.725568
v 1.090360 0.000000 0.725850
v 1.091799 0.000000 0.724411
v 1.093013 0.000000 0.713123
v 1.092505 0.000000 0.712954
v 1.091764 0.000000 0.713006
v 1.090031 0.000000 0.713529
v 1.087705 0.000000 0.713735
v 1.086241 0.000000 0.713630
v 1.085250 0.000000 0.713941
v 1.083823 0.000000 0.715216
v 1.083004 0.000000 0.714835
v 1.082948 0.000000 0.712996
v 1.083475 0.000000 0.710185
v 1.082807 0.000000 0.708535
v 1.081443 0.000000 0.706822
v 1.080402 0.000000 0.705887
v 1.080199 0.000000 0.704501
v 1.081554 0.000000 0.698537
v 1.080589 0.000000 0.696436
v 1.080304 0.000000 0.693041
v 1.079842 0.000000 0.692439
v 1.077187 0.000000 0.692748
v 1.075217 0.000000 0.692635
v 1.074109 0.000000 0.692083
v 1.073725 0.000000 0.691505
v 1.071479 0.000000 0.691147
v 1.069103 0.000000 0.691545
v 1.068303 0.000000 0.692674
v 1.067351 0.000000 0.696481
v 1.063635 0.000000 0.696688
v 1.059491 0.000000 0.697790
v 1.057762 0.000000 0.697406
v 1.056489 0.000000 0.695895
v 1.054929 0.000000 0.692652
v 1.053245 0.000000 0.691003
v 1.053420 0.000000 0.689234
v 1.053233 0.000000 0.687055
v 1.052354 0.000000 0.684935
v 1.033982 0.000000 0.684924
v 1.031892 0.000000 0.685908
v 1.030776 0.000000 0.686713
v 1.032990 0.000000 0.692740
v 1.035853 0.000000 0.698772
v 1.035948 0.000000 0.699827
v 1.034852 0.000000 0.703274
v 1.035083 0.000000 0.706492
v 1.037698 0.000000 0.713513
v 1.038435 0.000000 0.716912
v 1.037851 0.000000 0.719839
v 1.036353 0.000000 0.722244
v 1.033746 0.000000 0.725337
v 1.031640 0.000000 0.729324
v 1.030439 0.000000 0.733449
v 1.030112 0.000000 0.736683
v 1.029472 0.000000 0.738701
v 1.027442 0.000000 0.742726
v 1.027154 0.000000 0.747656
v 1.026633 0.000000 0.751148
v 1.026633 0.000000 0.751358
v 1.026633 0.000000 0.751358
v 1.028370 0.000000 0.750881
v 1.028856 0.000000 0.750105
v 1.029887 0.000000 0.749467
v 1.030966 0.050000 0.749572
v 1.081300 0.050000 0.744445
v 1.048753 0.050000 0.752233
v 1.062955 0.050000 0.752233
v 1.063635 0.050000 0.696688
v 1.059491 0.050000 0.697790
v 1.091799 0.050000 0.724411
v 1.037851 0.050000 0.719839
v 1.080199 0.050000 0.704501
v 1.034852 0.050000 0.703274
v 1.080304 0.050000 0.693041
v 1.067351 0.050000 0.696481
v 1.081893 0.050000 0.725568
v 1.029887 0.050000 0.749467
v 1.076614 0.050000 0.754010
v 1.077758 0.050000 0.754310
v 1.041568 0.050000 0.752187
v 1.027154 0.050000 0.747656
v 1.026633 0.050000 0.751148
v 1.031619 0.050000 0.750639
v 1.033734 0.050000 0.750154
v 1.083475 0.050000 0.710185
v 1.037698 0.050000 0.713513
v 1.080589 0.050000 0.696436
v 1.064928 0.050000 0.754232
v 1.090360 0.050000 0.725850
v 1.052354 0.050000 0.684935
v 1.031892 0.050000 0.685908
v 1.046996 0.050000 0.752233
v 1.035948 0.050000 0.699827
v 1.077187 0.050000 0.692748
v 1.030439 0.050000 0.733449
v 1.083004 0.050000 0.714835
v 1.038435 0.050000 0.716912
v 1.043629 0.050000 0.752233
v 1.044366 0.050000 0.752233
v 1.053233 0.050000 0.687055
v 1.083823 0.050000 0.715216
v 1.090031 0.050000 0.713529
v 1.087705 0.050000 0.713735
v 1.028856 0.050000 0.750105
v 1.081554 0.050000 0.698537
v 1.057762 0.050000 0.697406
v 1.075217 0.050000 0.692635
v 1.085250 0.050000 0.713941
v 1.045511 0.050000 0.752233
v 1.029472 0.050000 0.738701
v 1.027442 0.050000 0.742726
v 1.073725 0.050000 0.691505
v 1.071479 0.050000 0.691147
v 1.093013 0.050000 0.713123
v 1.091764 0.050000 0.713006
v 1.043369 0.050000 0.752233
v 1.052811 0.050000 0.752233
v 1.054929 0.050000 0.692652
v 1.053245 0.050000 0.691003
v 1.035606 0.050000 0.749900
v 1.037508 0.050000 0.750373
v 1.032351 0.050000 0.750740
v 1.072505 0.050000 0.753829
v 1.086388 0.050000 0.753658
v 1.039226 0.050000 0.751402
v 1.035853 0.050000 0.698772
v 1.053420 0.050000 0.689234
v 1.032990 0.050000 0.692740
v 1.080402 0.050000 0.705887
v 1.031640 0.050000 0.729324
v 1.036353 0.050000 0.722244
v 1.082948 0.050000 0.712996
v 1.030112 0.050000 0.736683
v 1.086241 0.050000 0.713630
v 1.068303 0.050000 0.692674
v 1.083693 0.050000 0.754289
v 1.054976 0.050000 0.752233
v 1.057141 0.050000 0.752233
v 1.026633 0.050000 0.751358
v 1.030776 0.050000 0.686713
v 1.050714 0.050000 0.752233
v 1.033746 0.050000 0.725337
v 1.081443 0.050000 0.706822
v 1.035083 0.050000 0.706492
v 1.092505 0.050000 0.712954
v 1.082807 0.050000 0.708535
v 1.079842 0.050000 0.692439
v 1.028370 0.050000 0.750881
v 1.069103 0.050000 0.691545
v 1.087758 0.050000 0.753271
v 1.033982 0.050000 0.684924
v 1.080749 0.050000 0.754537
v 1.074109 0.050000 0.692083
v 1.059238 0.050000 0.752233
v 1.026633 0.050000 0.751358
v 1.056489 0.050000 0.695895
v 1.061198 0.050000 0.752233
vn 0.0000 -1.0000 0.0000
vn 0.0000 0.0000 1.0000
vn 0.0000 1.0000 0.0000
vn 0.0000 0.0000 -1.0000
vn 0.1347 0.0000 0.9909
vn 0.2170 0.0000 -0.9762
vn -0.1653 0.0000 -0.9862
vn -0.0964 0.0000 0.9953
vn -0.9532 0.0000 -0.3024
vn -0.9807 0.0000 -0.1955
vn 0.0573 0.0000 -0.9984
vn -0.9974 0.0000 0.0717
vn -0.2538 0.0000 0.9673
vn -0.0440 0.0000 0.9990
vn -0.9983 0.0000 -0.0582
vn -0.9890 0.0000 -0.1477
vn -0.8160 0.0000 -0.5781
vn 0.9829 0.0000 0.1843
vn -0.0758 0.0000 0.9971
vn -0.8489 0.0000 -0.5286
vn -0.9949 0.0000 -0.1007
vn -0.8928 0.0000 -0.4504
vn 0.0717 0.0000 -0.9974
vn 0.1575 0.0000 -0.9875
vn 0.9951 0.0000 0.0989
vn 0.9965 0.0000 -0.0838
vn 0.8476 0.0000 0.5306
vn -0.8842 0.0000 -0.4671
vn -0.9701 0.0000 -0.2426
vn 0.7646 0.0000 -0.6445
vn -0.7119 0.0000 0.7022
vn -0.1365 0.0000 0.9906
vn 0.4211 0.0000 -0.9070
vn 0.9943 0.0000 0.1069
vn -0.0333 0.0000 0.9994
vn -0.9034 0.0000 0.4288
vn 0.2282 0.0000 0.9736
vn -0.0691 0.0000 -0.9976
vn -0.0254 0.0000 0.9997
vn 0.9963 0.0000 -0.0859
vn -1.0000 0.0000 0.0000
vn 0.6683 0.0000 -0.7439
vn -0.0556 0.0000 -0.9985
vn 0.9087 0.0000 -0.4174
vn -0.5850 0.0000 -0.8110
vn 0.4462 0.0000 -0.8949
vn -0.9530 0.0000 -0.3030
vn 0.6993 0.0000 -0.7148
vn -0.2892 0.0000 -0.9573
vn -0.2416 0.0000 0.9704
vn -0.7646 0.0000 -0.6445
vn 0.2718 0.0000 0.9623
vn 0.9013 0.0000 -0.4332
vn 0.5263 0.0000 0.8503
vn -0.9773 0.0000 0.2117
vn 0.7822 0.0000 -0.6230
vn 0.9752 0.0000 0.2215
vn 0.8327 0.0000 -0.5537
vn -0.5138 0.0000 0.8579
vn -0.9371 0.0000 0.3491
vn -0.8530 0.0000 0.5220
vn 0.3900 0.0000 0.9208
vn 0.9239 0.0000 -0.3827
vn 0.8071 0.0000 -0.5905
vn 0.2646 0.0000 0.9644
vn -0.4262 0.0000 -0.9046
vn -0.9960 0.0000 0.0895
vn -0.6663 0.0000 -0.7457
vn 0.9995 0.0000 0.0314
vn -0.0882 0.0000 -0.9961
vn 0.7070 0.0000 0.7072
vn 0.3157 0.0000 -0.9488
vn -0.3178 0.0000 0.9482
vn -0.9387 0.0000 0.3448
vn -0.2570 0.0000 -0.9664
vn 0.0531 0.0000 0.9986
vn 0.9270 0.0000 -0.3752
vn -0.1157 0.0000 -0.9933
vn -0.2991 0.0000 -0.9542
vn 0.0006 0.0000 -1.0000
vn 0.9995 0.0000 -0.0302
vn 0.9895 0.0000 -0.1447
vn -0.9602 0.0000 -0.2795
vn 0.7937 0.0000 -0.6084
vn 0.0840 0.0000 0.9965
usemtl SVGMat.3781
s off
f 71//1 70//1 69//1
f 71//1 69//1 68//1
f 72//1 71//1 68//1
f 73//1 72//1 68//1
f 73//1 68//1 67//1
f 73//1 67//1 66//1
f 58//1 57//1 56//1
f 73//1 66//1 65//1
f 58//1 56//1 55//1
f 59//1 58//1 55//1
f 59//1 55//1 54//1
f 53//1 52//1 51//1
f 59//1 54//1 53//1
f 59//1 53//1 51//1
f 73//1 65//1 64//1
f 60//1 59//1 51//1
f 60//1 51//1 50//1
f 73//1 64//1 63//1
f 61//1 60//1 50//1
f 74//1 73//1 63//1
f 62//1 61//1 50//1
f 74//1 63//1 62//1
f 62//1 50//1 49//1
f 74//1 62//1 49//1
f 75//1 74//1 49//1
f 76//1 75//1 49//1
f 76//1 49//1 48//1
f 77//1 76//1 48//1
f 77//1 48//1 47//1
f 77//1 47//1 46//1
f 77//1 46//1 45//1
f 77//1 45//1 44//1
f 78//1 77//1 44//1
f 78//1 44//1 43//1
f 36//1 35//1 34//1
f 37//1 36//1 34//1
f 37//1 34//1 33//1
f 38//1 37//1 33//1
f 40//1 39//1 38//1
f 40//1 38//1 33//1
f 78//1 43//1 42//1
f 79//1 78//1 42//1
f 41//1 40//1 33//1
f 79//1 42//1 41//1
f 79//1 41//1 33//1
f 80//1 79//1 33//1
f 81//1 80//1 33//1
f 82//1 81//1 33//1
f 82//1 33//1 31//1
f 31//1 33//1 32//1
f 82//1 31//1 30//1
f 83//1 82//1 30//1
f 84//1 83//1 30//1
f 85//1 84//1 30//1
f 86//1 85//1 30//1
f 87//1 86//1 30//1
f 88//1 87//1 30//1
f 94//1 88//1 30//1
f 1//1 94//1 30//1
f 88//1 94//1 93//1
f 89//1 88//1 93//1
f 5//1 1//1 30//1
f 1//1 5//1 4//1
f 6//1 5//1 30//1
f 2//1 1//1 4//1
f 2//1 4//1 3//1
f 89//1 93//1 92//1
f 7//1 6//1 30//1
f 89//1 92//1 90//1
f 8//1 7//1 30//1
f 21//1 8//1 30//1
f 9//1 8//1 21//1
f 10//2 9//2 21//2
f 11//2 10//2 21//2
f 12//2 11//2 21//2
f 13//2 12//2 21//2
f 14//2 13//2 21//2
f 15//2 14//2 21//2
f 16//2 15//2 21//2
f 17//2 16//2 21//2
f 18//2 17//2 21//2
f 19//2 18//2 21//2
f 20//2 19//2 21//2
f 22//1 21//1 30//1
f 22//1 30//1 23//1
f 23//1 30//1 29//1
f 23//1 29//1 28//1
f 24//1 23//1 28//1
f 24//1 28//1 27//1
f 25//1 24//1 27//1
f 25//1 27//1 26//1
f 122//3 121//3 182//3
f 122//3 131//3 121//3
f 171//3 131//3 122//3
f 159//3 131//3 171//3
f 159//3 158//3 131//3
f 159//3 150//3 158//3
f 180//3 143//3 144//3
f 159//3 149//3 150//3
f 180//3 184//3 143//3
f 166//3 184//3 180//3
f 166//3 138//3 184//3
f 125//3 105//3 178//3
f 166//3 125//3 138//3
f 166//3 105//3 125//3
f 159//3 187//3 149//3
f 106//3 105//3 166//3
f 106//3 118//3 105//3
f 159//3 137//3 187//3
f 99//3 118//3 106//3
f 157//3 137//3 159//3
f 100//3 118//3 99//3
f 157//3 100//3 137//3
f 100//3 136//3 118//3
f 157//3 136//3 100//3
f 124//3 136//3 157//3
f 104//3 136//3 124//3
f 104//3 103//3 136//3
f 175//3 103//3 104//3
f 175//3 160//3 103//3
f 175//3 174//3 160//3
f 175//3 177//3 174//3
f 175//3 116//3 177//3
f 117//3 116//3 175//3
f 117//3 163//3 116//3
f 146//3 145//3 176//3
f 133//3 145//3 146//3
f 133//3 101//3 145//3
f 134//3 101//3 133//3
f 139//3 134//3 165//3
f 139//3 101//3 134//3
f 117//3 127//3 163//3
f 128//3 127//3 117//3
f 132//3 101//3 139//3
f 128//3 132//3 127//3
f 128//3 101//3 132//3
f 102//3 101//3 128//3
f 162//3 101//3 102//3
f 173//3 101//3 162//3
f 173//3 107//3 101//3
f 107//3 120//3 101//3
f 173//3 96//3 107//3
f 161//3 96//3 173//3
f 126//3 96//3 161//3
f 164//3 96//3 126//3
f 141//3 96//3 164//3
f 142//3 96//3 141//3
f 112//3 96//3 142//3
f 108//3 96//3 112//3
f 95//3 96//3 108//3
f 112//3 135//3 108//3
f 113//3 135//3 112//3
f 151//3 96//3 95//3
f 95//3 115//3 151//3
f 152//3 96//3 151//3
f 114//3 115//3 95//3
f 114//3 153//3 115//3
f 113//3 179//3 135//3
f 156//3 96//3 152//3
f 113//3 170//3 179//3
f 111//3 96//3 156//3
f 98//3 96//3 111//3
f 147//3 98//3 111//3
f 129//2 98//2 147//2
f 130//2 98//2 129//2
f 140//2 98//2 130//2
f 123//2 98//2 140//2
f 97//2 98//2 123//2
f 172//2 98//2 97//2
f 148//2 98//2 172//2
f 168//4 98//4 148//4
f 169//2 98//2 168//2
f 185//2 98//2 169//2
f 188//2 98//2 185//2
f 119//3 96//3 98//3
f 119//3 154//3 96//3
f 154//3 181//3 96//3
f 154//3 155//3 181//3
f 109//3 155//3 154//3
f 109//3 167//3 155//3
f 110//3 167//3 109//3
f 110//3 183//3 167//3
f 15//2 16//2 148//2 172//2
f 4//5 5//5 151//5 115//5
f 62//6 63//6 137//6 100//6
f 57//7 58//7 180//7 144//7
f 94//8 1//8 95//8 108//8
f 85//9 86//9 141//9 164//9
f 79//10 80//10 102//10 128//10
f 53//11 54//11 138//11 125//11
f 76//12 77//12 175//12 104//12
f 24//13 25//13 110//13 109//13
f 23//14 24//14 109//14 154//14
f 14//2 15//2 172//2 97//2
f 87//15 88//15 112//15 142//15
f 88//16 89//16 113//16 112//16
f 58//17 59//17 166//17 180//17
f 43//18 44//18 116//18 163//18
f 25//19 26//19 183//19 110//19
f 11//2 12//2 140//2 130//2
f 80//20 81//20 162//20 102//20
f 84//21 85//21 164//21 126//21
f 86//22 87//22 142//22 141//22
f 38//23 39//23 165//23 134//23
f 56//24 57//24 144//24 143//24
f 66//25 67//25 158//25 150//25
f 50//26 51//26 105//26 118//26
f 92//27 93//27 135//27 179//27
f 82//28 83//28 161//28 173//28
f 59//29 60//29 106//29 166//29
f 63//30 64//30 187//30 137//30
f 21//31 22//31 119//31 98//31
f 2//32 3//32 153//32 114//32
f 41//33 42//33 127//33 132//33
f 33//34 34//34 145//34 101//34
f 31//35 32//35 120//35 107//35
f 73//36 74//36 157//36 159//36
f 27//37 28//37 155//37 167//37
f 35//38 36//38 146//38 176//38
f 18//2 19//2 185//2 169//2
f 16//2 17//2 168//2 148//2
f 17//2 18//2 169//2 168//2
f 8//39 9//39 147//39 111//39
f 90//2 91//2 186//2 170//2
f 67//40 68//40 131//40 158//40
f 89//41 90//41 170//41 113//41
f 46//42 47//42 160//42 174//42
f 60//43 61//43 99//43 106//43
f 20//2 21//2 98//2 188//2
f 49//44 50//44 118//44 136//44
f 71//45 72//45 171//45 122//45
f 54//46 55//46 184//46 138//46
f 75//47 76//47 104//47 124//47
f 65//48 66//48 150//48 149//48
f 36//49 37//49 133//49 146//49
f 5//50 6//50 152//50 151//50
f 81//51 82//51 173//51 162//51
f 28//52 29//52 181//52 155//52
f 64//53 65//53 149//53 187//53
f 12//2 13//2 123//2 140//2
f 93//54 94//54 108//54 135//54
f 78//55 79//55 128//55 117//55
f 45//56 46//56 174//56 177//56
f 48//57 49//57 136//57 103//57
f 10//2 11//2 130//2 129//2
f 55//58 56//58 143//58 184//58
f 6//59 7//59 156//59 152//59
f 77//60 78//60 117//60 175//60
f 1//61 2//61 114//61 95//61
f 3//62 4//62 115//62 153//62
f 9//2 10//2 129//2 147//2
f 68//63 69//63 121//63 131//63
f 29//64 30//64 96//64 181//64
f 90//65 92//65 179//65 170//65
f 70//66 71//66 122//66 182//66
f 74//67 75//67 124//67 157//67
f 40//68 41//68 132//68 139//68
f 30//69 31//69 107//69 96//69
f 37//70 38//70 134//70 133//70
f 32//71 33//71 101//71 120//71
f 13//2 14//2 97//2 123//2
f 34//72 35//72 176//72 145//72
f 7//73 8//73 111//73 156//73
f 72//74 73//74 159//74 171//74
f 61//75 62//75 100//75 99//75
f 22//76 23//76 154//76 119//76
f 44//77 45//77 177//77 116//77
f 19//2 20//2 188//2 185//2
f 52//78 53//78 125//78 178//78
f 39//79 40//79 139//79 165//79
f 69//80 70//80 182//80 121//80
f 42//81 43//81 163//81 127//81
f 47//82 48//82 103//82 160//82
f 83//83 84//83 126//83 161//83
f 51//84 52//84 178//84 105//84
f 26//85 27//85 167//85 183//85
