# Blender v2.79 (sub 0) OBJ File: 'world_countrycodes_outlines2.blend'
# www.blender.org
mtllib AO_outline.mtl
o AO.001_CUCurve.1704
v 1.028627 0.001169 0.748678
v 1.028140 -0.000830 0.748392
v 1.025723 -0.002026 0.752102
v 1.024504 0.000007 0.753955
v 1.025682 0.001913 0.752305
v 1.029424 -0.000784 0.743224
v 1.025282 -0.000077 0.742372
v 1.028006 -0.000733 0.737103
v 1.028540 0.002013 0.740023
v 1.031930 -0.000006 0.738213
v 1.030450 -0.001900 0.729075
v 1.029760 0.000790 0.728002
v 1.033553 -0.000824 0.729221
v 1.032576 0.001929 0.728655
v 1.036732 0.000804 0.717956
v 1.038827 0.001949 0.720054
v 1.040395 -0.000986 0.719290
v 1.037936 -0.001946 0.718153
v 1.040317 0.000870 0.715555
v 1.036618 0.000802 0.704565
v 1.035524 -0.001955 0.704791
v 1.032675 -0.000778 0.704746
v 1.033770 0.001929 0.704045
v 1.036840 0.001981 0.699865
v 1.035087 -0.001966 0.699619
v 1.034014 0.000724 0.699592
v 1.037935 -0.000835 0.699089
v 1.029487 0.001920 0.686491
v 1.032933 0.000802 0.687110
v 1.031841 -0.001946 0.686188
v 1.028380 -0.000794 0.686116
v 1.033285 0.001443 0.683550
v 1.033063 -0.000597 0.682937
v 1.052450 0.001973 0.685904
v 1.054197 0.000907 0.683560
v 1.051359 -0.000817 0.686989
v 1.053580 -0.001906 0.684392
v 1.055411 -0.000075 0.690125
v 1.054317 0.001983 0.690699
v 1.051516 0.000763 0.691719
v 1.052160 -0.001484 0.691579
v 1.054245 -0.001965 0.690777
v 1.058780 0.000829 0.695810
v 1.057964 0.001932 0.698642
v 1.057169 -0.000856 0.699718
v 1.058281 -0.001942 0.697004
v 1.068688 -0.000665 0.698068
v 1.066061 0.000754 0.694569
v 1.067904 0.001947 0.697280
v 1.066814 -0.001953 0.695596
v 1.067448 -0.000668 0.689932
v 1.068221 0.001956 0.691035
v 1.070254 0.000668 0.693291
v 1.069085 -0.002022 0.692147
v 1.074887 0.001450 0.690651
v 1.073215 -0.001944 0.692207
v 1.075376 -0.000832 0.690251
v 1.073294 0.001937 0.692163
v 1.072890 0.001080 0.693738
v 1.074889 -0.000966 0.694594
v 1.078322 0.000054 0.694405
v 1.079452 0.001955 0.693274
v 1.081330 0.000903 0.690869
v 1.079373 -0.001972 0.693190
v 1.081836 -0.000879 0.691341
v 1.082809 0.001393 0.698081
v 1.080632 0.001977 0.698783
v 1.081685 -0.001850 0.696689
v 1.079570 -0.000972 0.698518
v 1.083543 -0.000655 0.698305
v 1.080985 0.001938 0.704824
v 1.078169 0.000838 0.706064
v 1.079363 -0.001891 0.706198
v 1.082130 -0.000875 0.704763
v 1.083769 -0.002135 0.710324
v 1.085440 -0.000042 0.709195
v 1.081430 0.000765 0.709894
v 1.084441 0.001921 0.710106
v 1.084482 -0.001002 0.712838
v 1.082133 -0.002016 0.715035
v 1.080935 0.000806 0.714762
v 1.083511 0.002005 0.714303
v 1.084207 0.001348 0.716536
v 1.083485 -0.000704 0.717481
v 1.085093 0.000709 0.711773
v 1.084097 -0.001866 0.714411
v 1.090615 -0.001965 0.714426
v 1.089645 0.000765 0.715598
v 1.092795 -0.001085 0.711173
v 1.092773 0.001435 0.711577
v 1.091409 0.002137 0.725006
v 1.089828 -0.000882 0.723777
v 1.093047 -0.001784 0.725478
v 1.091077 0.000811 0.727839
v 1.083459 0.001683 0.727007
v 1.079810 0.000001 0.723324
v 1.082501 -0.001991 0.726412
v 1.083172 -0.000890 0.743813
v 1.081572 0.002206 0.744361
v 1.079644 -0.001508 0.745094
v 1.091118 0.000629 0.754487
v 1.087504 -0.002102 0.753713
v 1.086156 0.001953 0.753380
v 1.083697 -0.000873 0.752415
v 1.082287 -0.000802 0.756512
v 1.079643 0.001078 0.756280
v 1.077637 0.000760 0.752207
v 1.063969 0.001807 0.754663
v 1.063150 -0.000939 0.755100
v 1.064925 -0.001946 0.753139
v 1.064880 0.001591 0.752132
v 1.063706 -0.000811 0.750268
v 1.040401 0.001932 0.751166
v 1.041591 -0.001360 0.750520
v 1.040382 -0.000001 0.754280
v 1.035539 0.000800 0.751724
v 1.036285 -0.000057 0.747770
v 1.036391 -0.001990 0.749246
v 1.035605 -0.001409 0.751178
v 1.036890 0.001897 0.749087
v 1.031638 0.001937 0.749745
v 1.032460 -0.000915 0.748736
v 1.031837 0.000780 0.752846
v 1.031865 -0.001892 0.751784
v 1.030341 0.001391 0.751175
v 1.030138 -0.000881 0.751795
v 1.031383 0.000820 0.747452
v 1.030880 -0.001867 0.748266
vn 0.2581 0.9026 -0.3444
vn -0.3254 0.8689 0.3730
vn 0.1019 0.9784 -0.1800
vn -0.0740 -0.5433 0.8362
vn -0.3298 -0.8849 0.3288
vn 0.1290 -0.8101 -0.5718
vn 0.0444 0.7356 0.6759
vn -0.6028 0.0029 0.7979
vn -0.9578 -0.0538 -0.2824
vn 0.4073 -0.8363 -0.3669
vn 0.5011 0.8523 0.1495
vn -0.0550 0.9982 -0.0238
vn 0.9436 0.0502 0.3272
vn 0.8208 -0.4480 0.3544
vn -0.9647 -0.1386 -0.2238
vn -0.4387 -0.8787 -0.1879
vn -0.8431 0.3594 -0.3999
vn -0.1960 -0.9802 -0.0272
vn 0.2887 0.9525 0.0963
vn -0.9239 0.3808 -0.0374
vn 0.4346 0.8709 0.2292
vn 0.8843 -0.3959 0.2472
vn 0.9165 0.3490 -0.1953
vn -0.4936 0.8696 0.0152
vn 0.2857 -0.9581 0.0197
vn -0.9397 -0.3374 0.0552
vn 0.8969 0.4416 0.0219
vn 0.4918 0.8700 -0.0338
vn -0.2708 -0.9626 -0.0070
vn -0.9042 0.4248 0.0431
vn 0.9333 -0.3430 -0.1056
vn -0.5941 0.7849 -0.1757
vn 0.5507 0.5278 0.6466
vn -0.9041 -0.3239 -0.2786
vn -0.0164 -0.9966 -0.0806
vn -0.2627 -0.3489 -0.8996
vn -0.0494 0.9987 -0.0034
vn 0.6000 0.3391 -0.7245
vn -0.2007 0.6968 -0.6886
vn -0.5940 -0.5966 0.5396
vn 0.2290 0.9702 -0.0797
vn 0.9422 -0.0474 -0.3316
vn 0.2684 -0.9595 -0.0852
vn 0.4100 -0.7772 -0.4772
vn -0.8704 0.3875 0.3036
vn -0.6618 -0.7069 0.2495
vn 0.0567 -0.9930 -0.1035
vn 0.4373 0.5076 -0.7424
vn -0.1632 0.8355 0.5246
vn -0.3706 -0.3257 0.8697
vn -0.6546 0.4899 -0.5757
vn -0.1282 -0.9901 -0.0567
vn 0.5930 -0.3149 0.7411
vn 0.3258 0.8260 0.4600
vn -0.5493 -0.2603 -0.7940
vn -0.3028 0.8396 -0.4509
vn 0.4859 0.4110 0.7713
vn 0.0682 -0.9969 -0.0390
vn 0.0543 0.6752 -0.7356
vn 0.0671 -0.4494 -0.8908
vn -0.1343 -0.9769 0.1661
vn -0.2713 0.4116 0.8700
vn -0.0193 0.9990 0.0406
vn -0.0410 0.9913 0.1247
vn -0.0341 -0.9992 -0.0189
vn 0.5259 0.4692 -0.7094
vn -0.5611 0.0943 0.8223
vn 0.7170 0.6963 -0.0326
vn -0.3701 0.9290 -0.0052
vn 0.9518 -0.3051 0.0300
vn 0.6680 -0.4599 -0.5850
vn 0.2407 0.9703 -0.0242
vn -0.8946 -0.4462 0.0250
vn -0.9037 0.3456 0.2528
vn 0.2285 -0.9735 0.0005
vn -0.5219 -0.8303 0.1955
vn 0.8273 -0.5182 -0.2169
vn 0.5065 0.8622 0.0031
vn -0.8544 0.3826 0.3516
vn 0.1561 -0.9854 -0.0685
vn 0.9721 -0.0457 -0.2300
vn 0.2677 -0.9326 0.2418
vn 0.8372 -0.4406 -0.3238
vn -0.1237 0.9907 0.0570
vn -0.5180 -0.8106 0.2730
vn -0.8988 0.3432 0.2725
vn 0.1334 -0.2649 0.9550
vn -0.4140 0.2441 -0.8769
vn 0.5630 0.6363 -0.5274
vn -0.0811 -0.9955 0.0499
vn -0.4683 0.7232 0.5076
vn 0.0800 0.5575 0.8263
vn 0.5600 -0.4697 -0.6824
vn 0.7348 -0.5810 0.3500
vn 0.3880 0.9214 0.0198
vn -0.5188 -0.6259 -0.5823
vn 0.4046 0.2287 0.8854
vn -0.0096 -0.9999 0.0121
vn 0.1093 0.9584 0.2636
vn -0.7006 0.0423 -0.7123
vn 0.8127 -0.5250 -0.2527
vn -0.1854 0.9826 0.0089
vn -0.8394 -0.5018 0.2087
vn 0.9358 0.1448 0.3213
vn 0.3463 -0.9166 0.1999
vn 0.0286 0.9919 0.1236
vn -0.5506 -0.5505 -0.6275
vn -0.0057 0.5914 0.8064
vn -0.0606 -0.4734 0.8787
vn 0.0862 -0.4019 0.9116
vn -0.0603 0.8137 0.5781
vn -0.0115 0.4042 -0.9146
vn 0.2058 0.7338 -0.6475
vn 0.1643 -0.9649 -0.2049
vn 0.3712 -0.2516 -0.8938
vn -0.1469 -0.0773 0.9861
vn 0.1239 0.9671 -0.2220
vn 0.1669 -0.7885 -0.5919
vn 0.0880 -0.9338 -0.3468
vn -0.0699 0.5484 0.8333
vn 0.1524 0.8867 -0.4365
vn 0.1180 -0.0076 -0.9930
vn 0.0527 -0.7479 0.6617
vn -0.0962 -0.8487 0.5200
vn -0.0993 0.3754 0.9215
vn 0.2718 -0.5248 -0.8067
vn 0.3317 0.3786 -0.8640
vn -0.2152 -0.3786 0.9002
usemtl SVGMat.3781
s 1
f 1//1 5//2 121//3
f 126//4 3//5 128//6
f 125//7 4//8 126//4
f 4//8 7//9 3//5
f 2//10 6//11 1//1
f 3//5 6//11 2//10
f 1//1 9//12 5//2
f 6//11 9//12 1//1
f 6//11 10//13 9//12
f 3//5 10//13 6//11
f 3//5 13//14 10//13
f 8//15 11//16 3//5
f 12//17 18//18 11//16
f 14//19 15//20 12//17
f 13//14 16//21 14//19
f 11//16 17//22 13//14
f 17//22 19//23 16//21
f 19//23 23//24 16//21
f 18//18 21//25 17//22
f 15//20 22//26 18//18
f 21//25 20//27 19//23
f 20//27 24//28 23//24
f 22//26 25//29 21//25
f 23//24 26//30 22//26
f 24//28 26//30 23//24
f 21//25 27//31 20//27
f 25//29 27//31 21//25
f 24//28 28//32 26//30
f 27//31 29//33 24//28
f 28//32 31//34 26//30
f 29//33 28//32 24//28
f 25//29 30//35 27//31
f 28//32 33//36 31//34
f 29//33 34//37 28//32
f 34//37 35//38 32//39
f 30//35 36//40 29//33
f 34//37 39//41 35//38
f 38//42 42//43 37//44
f 36//40 40//45 34//37
f 37//44 41//46 36//40
f 38//42 46//47 42//43
f 39//41 43//48 38//42
f 40//45 44//49 39//41
f 41//46 45//50 40//45
f 42//43 45//50 41//46
f 45//50 44//49 40//45
f 44//49 48//51 43//48
f 48//51 50//52 46//47
f 46//47 47//53 45//50
f 47//53 49//54 44//49
f 48//51 51//55 50//52
f 49//54 52//56 48//51
f 47//53 53//57 49//54
f 50//52 54//58 47//53
f 55//59 57//60 51//55
f 56//61 59//62 53//57
f 57//60 56//61 54//58
f 59//62 62//63 58//64
f 57//60 64//65 56//61
f 55//59 63//66 57//60
f 62//63 63//66 55//59
f 61//67 62//63 59//62
f 62//63 66//68 63//66
f 61//67 67//69 62//63
f 66//68 70//70 65//71
f 67//69 71//72 66//68
f 69//73 72//74 67//69
f 68//75 73//76 69//73
f 70//70 73//76 68//75
f 71//72 74//77 70//70
f 72//74 78//78 71//72
f 73//76 77//79 72//74
f 74//77 75//80 73//76
f 71//72 76//81 74//77
f 76//81 75//80 74//77
f 76//81 86//82 75//80
f 78//78 79//83 76//81
f 77//79 82//84 78//78
f 80//85 81//86 77//79
f 80//85 84//87 81//86
f 82//84 85//88 79//83
f 80//85 86//82 84//87
f 82//84 90//89 85//88
f 79//83 87//90 86//82
f 87//90 88//91 83//92
f 85//88 89//93 79//83
f 90//89 89//93 85//88
f 88//91 90//89 82//84
f 93//94 89//93 90//89
f 88//91 91//95 90//89
f 87//90 92//96 88//91
f 93//94 87//90 89//93
f 91//95 94//97 93//94
f 94//97 97//98 93//94
f 91//95 95//99 94//97
f 92//96 96//100 91//95
f 97//98 92//96 93//94
f 95//99 98//101 97//98
f 99//102 95//99 96//100
f 97//98 100//103 96//100
f 99//102 101//104 98//101
f 98//101 102//105 100//103
f 100//103 103//106 99//102
f 101//104 102//105 98//101
f 103//106 101//104 99//102
f 102//105 104//107 100//103
f 103//106 106//108 101//104
f 106//108 109//109 105//110
f 103//106 108//111 106//108
f 108//111 109//109 106//108
f 107//112 108//111 103//106
f 104//107 111//113 107//112
f 109//109 110//114 102//105
f 110//114 112//115 111//113
f 111//113 115//116 108//111
f 112//115 113//117 111//113
f 110//114 114//118 112//115
f 115//116 114//118 110//114
f 115//116 118//119 114//118
f 113//117 116//120 115//116
f 114//118 120//121 113//117
f 117//122 121//3 120//121
f 119//123 124//124 118//119
f 123//125 124//124 119//123
f 121//3 123//125 116//120
f 121//3 125//7 123//125
f 122//126 127//127 121//3
f 124//124 128//6 122//126
f 126//4 128//6 124//124
f 128//6 127//127 122//126
f 128//6 2//10 127//127
f 2//10 1//1 127//127
f 121//3 5//2 125//7
f 128//6 3//5 2//10
f 126//4 4//8 3//5
f 125//7 5//2 4//8
f 5//2 7//9 4//8
f 5//2 9//12 7//9
f 7//9 9//12 8//15
f 7//9 8//15 3//5
f 9//12 12//17 8//15
f 10//13 14//19 9//12
f 3//5 11//16 13//14
f 8//15 12//17 11//16
f 10//13 13//14 14//19
f 9//12 14//19 12//17
f 12//17 15//20 18//18
f 14//19 16//21 15//20
f 13//14 17//22 16//21
f 11//16 18//18 17//22
f 16//21 23//24 15//20
f 19//23 20//27 23//24
f 17//22 21//25 19//23
f 15//20 23//24 22//26
f 18//18 22//26 21//25
f 22//26 26//30 25//29
f 20//27 27//31 24//28
f 26//30 31//34 25//29
f 27//31 30//35 29//33
f 25//29 31//34 30//35
f 28//32 32//39 33//36
f 31//34 33//36 30//35
f 28//32 34//37 32//39
f 32//39 35//38 33//36
f 33//36 37//44 30//35
f 33//36 35//38 37//44
f 29//33 36//40 34//37
f 30//35 37//44 36//40
f 35//38 38//42 37//44
f 35//38 39//41 38//42
f 34//37 40//45 39//41
f 36//40 41//46 40//45
f 37//44 42//43 41//46
f 38//42 43//48 46//47
f 39//41 44//49 43//48
f 42//43 46//47 45//50
f 45//50 47//53 44//49
f 43//48 48//51 46//47
f 44//49 49//54 48//51
f 46//47 50//52 47//53
f 48//51 52//56 51//55
f 49//54 53//57 52//56
f 47//53 54//58 53//57
f 50//52 51//55 54//58
f 52//56 55//59 51//55
f 53//57 58//64 52//56
f 54//58 56//61 53//57
f 51//55 57//60 54//58
f 53//57 59//62 58//64
f 52//56 58//64 55//59
f 56//61 60//128 59//62
f 60//128 61//67 59//62
f 58//64 62//63 55//59
f 56//61 64//65 60//128
f 57//60 63//66 65//71
f 60//128 64//65 61//67
f 57//60 65//71 64//65
f 65//71 68//75 64//65
f 63//66 66//68 65//71
f 62//63 67//69 66//68
f 64//65 69//73 61//67
f 65//71 70//70 68//75
f 64//65 68//75 69//73
f 61//67 69//73 67//69
f 66//68 71//72 70//70
f 67//69 72//74 71//72
f 69//73 73//76 72//74
f 70//70 74//77 73//76
f 73//76 75//80 77//79
f 72//74 77//79 78//78
f 71//72 78//78 76//81
f 76//81 79//83 86//82
f 75//80 80//85 77//79
f 75//80 86//82 80//85
f 77//79 81//86 82//84
f 78//78 82//84 79//83
f 81//86 83//92 82//84
f 81//86 84//87 83//92
f 84//87 86//82 83//92
f 86//82 87//90 83//92
f 83//92 88//91 82//84
f 79//83 89//93 87//90
f 90//89 91//95 93//94
f 88//91 92//96 91//95
f 93//94 92//96 87//90
f 94//97 95//99 97//98
f 91//95 96//100 95//99
f 97//98 96//100 92//96
f 99//102 98//101 95//99
f 100//103 99//102 96//100
f 97//98 98//101 100//103
f 100//103 104//107 103//106
f 101//104 105//110 102//105
f 101//104 106//108 105//110
f 104//107 107//112 103//106
f 105//110 109//109 102//105
f 102//105 110//114 104//107
f 107//112 111//113 108//111
f 104//107 110//114 111//113
f 108//111 115//116 109//109
f 109//109 115//116 110//114
f 111//113 113//117 115//116
f 112//115 114//118 113//117
f 115//116 116//120 119//123
f 114//118 117//122 120//121
f 114//118 118//119 117//122
f 115//116 119//123 118//119
f 113//117 120//121 116//120
f 118//119 122//126 117//122
f 120//121 121//3 116//120
f 117//122 122//126 121//3
f 116//120 123//125 119//123
f 118//119 124//124 122//126
f 123//125 126//4 124//124
f 123//125 125//7 126//4
f 127//127 1//1 121//3
