# Blender v2.79 (sub 0) OBJ File: 'world_countrycodes_export2.blend'
# www.blender.org
mtllib AZ.mtl
o AZ.002_CUCurve.1719
v 1.238383 0.000000 0.404113
v 1.234841 0.000000 0.399463
v 1.233506 0.000000 0.397886
v 1.233181 0.000000 0.398549
v 1.232361 0.000000 0.399268
v 1.230234 0.000000 0.400047
v 1.229636 0.000000 0.400900
v 1.229115 0.000000 0.401064
v 1.227861 0.000000 0.400583
v 1.226957 0.000000 0.400559
v 1.224736 0.000000 0.398424
v 1.223650 0.000000 0.397711
v 1.222294 0.000000 0.397362
v 1.221254 0.000000 0.396846
v 1.220771 0.000000 0.397370
v 1.220084 0.000000 0.398372
v 1.220098 0.000000 0.398936
v 1.221672 0.000000 0.400189
v 1.222119 0.000000 0.400875
v 1.222051 0.000000 0.401332
v 1.221165 0.000000 0.401756
v 1.219628 0.000000 0.401889
v 1.218086 0.000000 0.401422
v 1.217083 0.000000 0.400642
v 1.215639 0.000000 0.399820
v 1.214147 0.000000 0.399537
v 1.213666 0.000000 0.400030
v 1.213790 0.000000 0.400803
v 1.215048 0.000000 0.402728
v 1.215611 0.000000 0.403875
v 1.215610 0.000000 0.405287
v 1.217403 0.000000 0.407990
v 1.217672 0.000000 0.409492
v 1.218423 0.000000 0.410478
v 1.220971 0.000000 0.412559
v 1.221472 0.000000 0.414508
v 1.222240 0.000000 0.415982
v 1.225975 0.000000 0.413778
v 1.229024 0.000000 0.411738
v 1.229933 0.000000 0.411526
v 1.230551 0.000000 0.411978
v 1.230810 0.000000 0.413063
v 1.230668 0.000000 0.415103
v 1.230056 0.000000 0.417252
v 1.230840 0.000000 0.418181
v 1.232750 0.000000 0.419193
v 1.234151 0.000000 0.419662
v 1.234600 0.000000 0.417260
v 1.236566 0.000000 0.414546
v 1.238500 0.000000 0.410680
v 1.239145 0.000000 0.407533
v 1.239022 0.000000 0.405611
v 1.213344 0.000000 0.412136
v 1.211895 0.000000 0.411572
v 1.212366 0.000000 0.413279
v 1.213088 0.000000 0.414205
v 1.214647 0.000000 0.415124
v 1.214730 0.000000 0.415958
v 1.215180 0.000000 0.416366
v 1.218523 0.000000 0.416852
v 1.218512 0.000000 0.415574
v 1.218019 0.000000 0.414667
v 1.216823 0.000000 0.413291
v 1.215968 0.000000 0.412880
v 1.214708 0.000000 0.412845
v 1.222051 0.050000 0.401332
v 1.221165 0.050000 0.401756
v 1.220971 0.050000 0.412559
v 1.229024 0.050000 0.411738
v 1.229115 0.050000 0.401064
v 1.222119 0.050000 0.400875
v 1.219628 0.050000 0.401889
v 1.238383 0.050000 0.404113
v 1.214730 0.050000 0.415958
v 1.218523 0.050000 0.416852
v 1.217403 0.050000 0.407990
v 1.217672 0.050000 0.409492
v 1.218423 0.050000 0.410478
v 1.215610 0.050000 0.405287
v 1.215611 0.050000 0.403875
v 1.236566 0.050000 0.414546
v 1.238500 0.050000 0.410680
v 1.232750 0.050000 0.419193
v 1.234151 0.050000 0.419662
v 1.221472 0.050000 0.414508
v 1.225975 0.050000 0.413778
v 1.230056 0.050000 0.417252
v 1.230840 0.050000 0.418181
v 1.229933 0.050000 0.411526
v 1.213088 0.050000 0.414205
v 1.214647 0.050000 0.415124
v 1.223650 0.050000 0.397711
v 1.220771 0.050000 0.397370
v 1.220098 0.050000 0.398936
v 1.221672 0.050000 0.400189
v 1.215639 0.050000 0.399820
v 1.213666 0.050000 0.400030
v 1.230810 0.050000 0.413063
v 1.234841 0.050000 0.399463
v 1.229636 0.050000 0.400900
v 1.214147 0.050000 0.399537
v 1.222294 0.050000 0.397362
v 1.217083 0.050000 0.400642
v 1.213790 0.050000 0.400803
v 1.230234 0.050000 0.400047
v 1.227861 0.050000 0.400583
v 1.220084 0.050000 0.398372
v 1.218086 0.050000 0.401422
v 1.212366 0.050000 0.413279
v 1.216823 0.050000 0.413291
v 1.215968 0.050000 0.412880
v 1.233181 0.050000 0.398549
v 1.218512 0.050000 0.415574
v 1.218019 0.050000 0.414667
v 1.239145 0.050000 0.407533
v 1.239022 0.050000 0.405611
v 1.232361 0.050000 0.399268
v 1.222240 0.050000 0.415982
v 1.215180 0.050000 0.416366
v 1.230668 0.050000 0.415103
v 1.226957 0.050000 0.400559
v 1.224736 0.050000 0.398424
v 1.234600 0.050000 0.417260
v 1.221254 0.050000 0.396846
v 1.214708 0.050000 0.412845
v 1.215048 0.050000 0.402728
v 1.233506 0.050000 0.397886
v 1.230551 0.050000 0.411978
v 1.213344 0.050000 0.412136
v 1.211895 0.050000 0.411572
vn 0.0000 -1.0000 0.0000
vn 0.0000 1.0000 0.0000
vn 0.0000 1.0000 -0.0001
vn 0.9830 0.0000 0.1837
vn -0.9844 0.0000 0.1762
vn 0.7632 0.0000 -0.6461
vn 0.8098 0.0000 0.5867
vn -0.9997 0.0000 0.0258
vn -0.6326 0.0000 0.7745
vn -0.8372 0.0000 0.5469
vn -0.7889 0.0000 0.6145
vn 0.6137 0.0000 -0.7895
vn -0.8976 0.0000 0.4408
vn -0.9889 0.0000 -0.1484
vn 0.4447 0.0000 -0.8957
vn 0.2901 0.0000 -0.9570
vn 0.8944 0.0000 0.4473
vn 0.5488 0.0000 -0.8360
vn -0.3176 0.0000 0.9482
vn -0.9951 0.0000 0.0991
vn -0.8867 0.0000 0.4623
vn -0.8377 0.0000 0.5462
vn 0.4334 0.0000 -0.9012
vn -0.7644 0.0000 0.6447
vn -0.9618 0.0000 -0.2737
vn 1.0000 0.0000 -0.0086
vn -0.9685 0.0000 0.2488
vn 0.8787 0.0000 -0.4774
vn -0.5080 0.0000 0.8614
vn 0.3627 0.0000 -0.9319
vn -0.7356 0.0000 -0.6775
vn 0.9980 0.0000 -0.0638
vn -0.9639 0.0000 0.2661
vn -0.8248 0.0000 -0.5655
vn -0.6589 0.0000 -0.7522
vn 0.7955 0.0000 -0.6060
vn -0.6228 0.0000 0.7824
vn 0.0268 0.0000 -0.9996
vn 0.5081 0.0000 0.8613
vn 0.2279 0.0000 0.9737
vn 0.7547 0.0000 -0.6561
vn -0.4680 0.0000 0.8837
vn -0.6719 0.0000 0.7406
vn -0.3440 0.0000 -0.9390
vn 0.9197 0.0000 -0.3925
vn 0.9796 0.0000 0.2010
vn -0.3001 0.0000 -0.9539
vn -0.8982 0.0000 -0.4395
vn -0.9976 0.0000 -0.0695
vn 0.1861 0.0000 -0.9825
vn 0.5561 0.0000 0.8311
vn 0.2491 0.0000 -0.9685
vn -0.4312 0.0000 -0.9022
vn 0.4613 0.0000 -0.8872
vn -0.9726 0.0000 0.2326
vn -1.0000 0.0000 -0.0006
vn -0.8185 0.0000 -0.5745
vn -0.1438 0.0000 0.9896
vn -0.7951 0.0000 0.6064
vn -0.9874 0.0000 0.1580
vn 0.3577 0.0000 -0.9338
vn -0.0866 0.0000 -0.9962
vn -0.8334 0.0000 0.5526
vn -0.5914 0.0000 0.8064
vn 0.4948 0.0000 -0.8690
vn 0.6930 0.0000 -0.7209
vn 0.0272 0.0000 -0.9996
vn -0.7164 0.0000 -0.6977
usemtl SVGMat.3781
s off
f 15//1 14//1 13//1
f 15//1 13//1 12//1
f 16//1 15//1 12//1
f 16//1 12//1 11//1
f 4//1 3//1 2//1
f 17//1 16//1 11//1
f 5//1 4//1 2//1
f 17//1 11//1 10//1
f 18//1 17//1 10//1
f 6//1 5//1 2//1
f 27//1 26//1 25//1
f 27//1 25//1 24//1
f 28//1 27//1 24//1
f 7//1 6//1 2//1
f 19//1 18//1 10//1
f 7//1 2//1 1//1
f 19//1 10//1 9//1
f 19//1 9//1 8//1
f 28//1 24//1 23//1
f 8//1 7//1 1//1
f 20//1 19//1 8//1
f 20//1 8//1 1//1
f 21//1 20//1 1//1
f 29//1 28//1 23//1
f 29//1 23//1 22//1
f 22//1 21//1 1//1
f 29//1 22//1 1//1
f 30//1 29//1 1//1
f 31//1 30//1 1//1
f 31//1 1//1 52//1
f 31//1 52//1 51//1
f 32//1 31//1 51//1
f 32//1 51//1 50//1
f 33//1 32//1 50//1
f 34//1 33//1 50//1
f 34//1 50//1 40//1
f 35//1 34//1 40//1
f 35//1 40//1 39//1
f 41//1 40//1 50//1
f 55//1 54//1 53//1
f 35//1 39//1 38//1
f 42//1 41//1 50//1
f 42//1 50//1 49//1
f 55//1 53//1 65//1
f 55//1 65//1 64//1
f 55//1 64//1 63//1
f 36//1 35//1 38//1
f 43//1 42//1 49//1
f 56//1 55//1 63//1
f 56//1 63//1 62//1
f 57//1 56//1 62//1
f 57//1 62//1 61//1
f 36//1 38//1 37//1
f 43//1 49//1 48//1
f 58//1 57//1 61//1
f 58//1 61//1 60//1
f 59//1 58//1 60//1
f 44//1 43//1 48//1
f 45//1 44//1 48//1
f 45//1 48//1 47//1
f 46//1 45//1 47//1
f 93//2 102//2 124//2
f 93//2 92//2 102//2
f 107//2 92//2 93//2
f 107//2 122//2 92//2
f 112//2 99//2 127//2
f 94//2 122//2 107//2
f 117//2 99//2 112//2
f 94//2 121//2 122//2
f 95//2 121//2 94//2
f 105//2 99//2 117//2
f 97//2 96//2 101//2
f 97//2 103//2 96//2
f 104//2 103//2 97//2
f 100//2 99//2 105//2
f 71//2 121//2 95//2
f 100//2 73//2 99//2
f 71//2 106//2 121//2
f 71//2 70//2 106//2
f 104//2 108//2 103//2
f 70//2 73//2 100//2
f 66//2 70//2 71//2
f 66//2 73//2 70//2
f 67//2 73//2 66//2
f 126//2 108//2 104//2
f 126//2 72//2 108//2
f 72//2 73//2 67//2
f 126//2 73//2 72//2
f 80//2 73//2 126//2
f 79//2 73//2 80//2
f 79//2 116//2 73//2
f 79//2 115//2 116//2
f 76//2 115//2 79//2
f 76//2 82//2 115//2
f 77//2 82//2 76//2
f 78//2 82//2 77//2
f 78//2 89//2 82//2
f 68//2 89//2 78//2
f 68//2 69//2 89//2
f 128//2 82//2 89//2
f 109//2 129//2 130//2
f 68//2 86//2 69//2
f 98//2 82//2 128//2
f 98//2 81//2 82//2
f 109//2 125//2 129//2
f 109//2 111//2 125//2
f 109//2 110//2 111//2
f 85//2 86//2 68//2
f 120//2 81//2 98//2
f 90//2 110//2 109//2
f 90//2 114//2 110//2
f 91//2 114//2 90//2
f 91//2 113//2 114//2
f 85//2 118//2 86//2
f 120//2 123//2 81//2
f 74//2 113//2 91//2
f 74//2 75//2 113//2
f 119//2 75//2 74//2
f 87//2 123//2 120//2
f 88//2 123//2 87//2
f 88//2 84//2 123//2
f 83//3 84//3 88//3
f 47//4 48//4 123//4 84//4
f 32//5 33//5 77//5 76//5
f 2//6 3//6 127//6 99//6
f 48//7 49//7 81//7 123//7
f 16//8 17//8 94//8 107//8
f 34//9 35//9 68//9 78//9
f 28//10 29//10 126//10 104//10
f 55//11 56//11 90//11 109//11
f 23//12 24//12 103//12 108//12
f 29//13 30//13 80//13 126//13
f 19//14 20//14 66//14 71//14
f 13//15 14//15 124//15 102//15
f 22//16 23//16 108//16 72//16
f 49//17 50//17 82//17 81//17
f 11//18 12//18 92//18 122//18
f 46//19 47//19 84//19 83//19
f 57//20 58//20 74//20 91//20
f 36//21 37//21 118//21 85//21
f 18//22 19//22 71//22 95//22
f 63//23 64//23 111//23 110//23
f 44//24 45//24 88//24 87//24
f 43//25 44//25 87//25 120//25
f 60//26 61//26 113//26 75//26
f 35//27 36//27 85//27 68//27
f 61//28 62//28 114//28 113//28
f 56//29 57//29 91//29 90//29
f 53//30 54//30 130//30 129//30
f 14//31 15//31 93//31 124//31
f 51//32 52//32 116//32 115//32
f 54//33 55//33 109//33 130//33
f 15//34 16//34 107//34 93//34
f 4//35 5//35 117//35 112//35
f 1//36 2//36 99//36 73//36
f 17//37 18//37 95//37 94//37
f 9//38 10//38 121//38 106//38
f 37//39 38//39 86//39 118//39
f 39//40 40//40 89//40 69//40
f 62//41 63//41 110//41 114//41
f 45//42 46//42 83//42 88//42
f 58//43 59//43 119//43 74//43
f 5//44 6//44 105//44 117//44
f 52//45 1//45 73//45 116//45
f 50//46 51//46 115//46 82//46
f 7//47 8//47 70//47 100//47
f 3//48 4//48 112//48 127//48
f 42//49 43//49 120//49 98//49
f 25//50 26//50 101//50 96//50
f 38//51 39//51 69//51 86//51
f 12//52 13//52 102//52 92//52
f 20//53 21//53 67//53 66//53
f 65//54 53//54 129//54 125//54
f 41//55 42//55 98//55 128//55
f 30//56 31//56 79//56 80//56
f 6//57 7//57 100//57 105//57
f 59//58 60//58 75//58 119//58
f 33//59 34//59 78//59 77//59
f 27//60 28//60 104//60 97//60
f 8//61 9//61 106//61 70//61
f 21//62 22//62 72//62 67//62
f 31//63 32//63 76//63 79//63
f 40//64 41//64 128//64 89//64
f 24//65 25//65 96//65 103//65
f 10//66 11//66 122//66 121//66
f 64//67 65//67 125//67 111//67
f 26//68 27//68 97//68 101//68
