# Blender v2.79 (sub 0) OBJ File: 'world_countrycodes_outlines2.blend'
# www.blender.org
mtllib AZ_outline.mtl
o AZ.001_CUCurve.007
v 1.232373 0.000700 0.416994
v 1.236529 0.000000 0.422808
v 1.228265 0.000006 0.418956
v 1.229320 0.001902 0.418303
v 1.228969 -0.001498 0.418713
v 1.230792 -0.002018 0.417538
v 1.231631 -0.001957 0.411368
v 1.229063 0.000789 0.413462
v 1.229538 -0.001442 0.412989
v 1.229636 0.001963 0.410544
v 1.232315 0.000703 0.410569
v 1.228794 -0.000558 0.409602
v 1.222136 0.001911 0.417286
v 1.222628 -0.001730 0.414393
v 1.221905 -0.001561 0.418132
v 1.219127 0.000839 0.413689
v 1.222865 0.001489 0.413262
v 1.222523 -0.000694 0.411316
v 1.216058 0.000837 0.410502
v 1.216489 0.001985 0.407198
v 1.219593 0.000844 0.408612
v 1.217687 -0.001316 0.405682
v 1.217775 -0.001789 0.411068
v 1.217565 0.000810 0.403894
v 1.214723 -0.001927 0.405031
v 1.213596 0.000786 0.404956
v 1.214547 0.001944 0.400245
v 1.211363 -0.000683 0.399634
v 1.212149 0.001539 0.399413
v 1.215320 -0.000074 0.401441
v 1.214509 -0.001971 0.400270
v 1.214607 -0.000767 0.397468
v 1.215651 0.001434 0.398218
v 1.220119 0.000888 0.400202
v 1.218966 -0.001873 0.402931
v 1.219096 0.001935 0.402902
v 1.219228 -0.000029 0.404174
v 1.223011 0.001916 0.401842
v 1.223174 -0.001904 0.401662
v 1.224149 0.000054 0.402033
v 1.220174 -0.001279 0.400718
v 1.222569 0.001117 0.398715
v 1.221785 -0.001388 0.398438
v 1.222186 -0.000022 0.399066
v 1.218970 -0.001908 0.398859
v 1.217740 -0.000010 0.398806
v 1.219159 0.001939 0.398989
v 1.221072 -0.001922 0.395937
v 1.220783 0.000927 0.394482
v 1.222717 0.001917 0.396341
v 1.225075 -0.000743 0.396162
v 1.228616 0.001382 0.399498
v 1.228625 -0.000815 0.398953
v 1.229595 0.002011 0.401717
v 1.226558 0.000628 0.402545
v 1.227902 -0.001948 0.401675
v 1.230600 -0.000757 0.402471
v 1.231574 -0.000827 0.397458
v 1.233021 0.002012 0.397922
v 1.233928 0.000838 0.400805
v 1.233754 -0.001932 0.399351
v 1.232988 -0.000369 0.393875
v 1.240904 0.000921 0.404422
v 1.237221 -0.000712 0.406168
v 1.240208 -0.001908 0.405750
v 1.238781 0.001991 0.407383
v 1.240925 0.000551 0.409993
v 1.236378 0.000957 0.411158
v 1.233085 -0.001351 0.417722
v 1.239480 -0.001433 0.412333
v 1.236259 0.000791 0.418464
v 1.233884 0.002006 0.419217
v 1.234735 -0.001983 0.419078
v 1.215027 -0.000038 0.414919
v 1.215905 -0.001965 0.413729
v 1.220368 -0.000767 0.414721
v 1.219542 0.001955 0.416059
v 1.216609 0.001241 0.415310
v 1.216554 -0.000893 0.414920
v 1.219328 -0.001996 0.417445
v 1.220228 0.000706 0.418948
v 1.213503 0.000696 0.417658
v 1.214357 -0.001965 0.416837
v 1.212975 0.001897 0.415488
v 1.214703 -0.001248 0.413520
v 1.211161 -0.000690 0.415223
v 1.212570 0.001970 0.412488
v 1.210885 -0.002065 0.410926
v 1.208957 0.000691 0.408460
v 1.214685 0.001277 0.414352
v 1.217037 -0.000752 0.411294
v 1.216892 0.001833 0.412245
vn 0.8704 0.3963 0.2922
vn 0.5766 -0.0102 0.8170
vn 0.2817 -0.9348 0.2161
vn 0.0570 0.9850 0.1629
vn -0.4357 0.8640 0.2524
vn 0.1409 0.7253 -0.6738
vn -0.5918 -0.7123 0.3774
vn 0.0936 -0.9933 -0.0669
vn -0.8733 0.0490 0.4847
vn 0.0748 -0.7469 0.6607
vn -0.5846 0.6249 0.5174
vn 0.0555 0.8454 -0.5312
vn 0.5178 -0.7803 -0.3507
vn 0.7765 0.3076 -0.5499
vn -0.1625 -0.2851 -0.9446
vn -0.1590 0.7206 0.6749
vn -0.1872 -0.4776 0.8584
vn 0.0706 -0.9768 -0.2022
vn -0.6765 0.5947 0.4343
vn -0.4561 -0.8337 0.3111
vn 0.0212 0.8777 -0.4786
vn -0.7557 0.3632 0.5449
vn 0.8446 -0.2781 -0.4575
vn 0.6652 0.5266 -0.5293
vn 0.6192 -0.7138 -0.3273
vn -0.4317 -0.8708 0.2350
vn -0.0630 0.9971 0.0421
vn -0.8549 0.3652 0.3684
vn 0.8413 0.2932 -0.4541
vn -0.0448 0.9989 -0.0142
vn -0.9053 -0.3416 -0.2525
vn -0.6540 0.6821 -0.3270
vn 0.7991 -0.2985 0.5218
vn -0.0839 -0.3616 -0.9286
vn 0.1398 0.6614 -0.7369
vn -0.3419 0.9104 0.2328
vn -0.1995 -0.9784 0.0542
vn -0.1096 -0.8636 0.4920
vn -0.0761 -0.9878 -0.1357
vn -0.0947 0.8819 0.4617
vn -0.1040 -0.0079 0.9945
vn 0.5944 -0.7803 0.1942
vn 0.4886 0.8220 0.2924
vn 0.9421 -0.0119 0.3352
vn 0.1173 0.9777 0.1742
vn 0.0645 -0.9900 0.1254
vn -0.8572 0.1773 0.4835
vn -0.5170 0.8335 0.1949
vn -0.9944 0.0241 0.1022
vn 0.1957 0.9058 -0.3757
vn -0.2038 -0.8188 -0.5366
vn -0.5555 -0.8301 0.0478
vn -0.2761 0.2938 -0.9151
vn 0.4863 -0.3202 -0.8130
vn 0.0997 0.7554 -0.6476
vn 0.0706 -0.5872 -0.8064
vn 0.0698 0.8448 0.5304
vn -0.3559 0.2541 0.8993
vn -0.1068 -0.8839 0.4552
vn 0.2579 -0.2974 0.9192
vn -0.5810 -0.4859 -0.6529
vn -0.0405 0.9266 -0.3738
vn -0.4428 0.3910 0.8069
vn 0.0193 -0.9986 0.0491
vn -0.1312 -0.0768 -0.9884
vn 0.8668 0.3733 -0.3305
vn -0.8642 -0.4610 0.2016
vn -0.0943 0.9953 0.0212
vn 0.5309 -0.8382 -0.1247
vn 0.9227 0.3134 0.2244
vn 0.7086 -0.6277 0.3222
vn -0.7975 0.5128 -0.3177
vn -0.1358 -0.7379 -0.6610
vn 0.3504 0.8113 -0.4680
vn 0.8685 -0.3039 -0.3915
vn 0.5117 -0.3612 -0.7795
vn -0.5260 0.5475 0.6508
vn 0.5068 0.8618 -0.0233
vn -0.5995 -0.1905 0.7774
vn -0.0258 0.9996 -0.0032
vn -0.1086 -0.9727 0.2053
vn -0.1317 -0.9546 0.2671
vn 0.3618 -0.8444 0.3950
vn 0.5687 0.2503 0.7835
vn -0.1674 -0.8648 0.4733
vn -0.4278 0.3042 0.8511
vn -0.3566 0.8868 0.2939
vn -0.8390 -0.2147 0.5000
vn -0.1404 0.9878 -0.0669
vn -0.1321 -0.9537 0.2702
vn -0.6837 0.1858 -0.7056
vn -0.3824 -0.8803 -0.2806
usemtl SVGMat.3781
s 1
f 71//1 2//2 73//3
f 72//4 2//2 71//1
f 72//4 4//5 2//2
f 1//6 4//5 72//4
f 5//7 6//8 73//3
f 3//9 9//10 5//7
f 4//5 8//11 3//9
f 1//6 10//12 4//5
f 7//13 11//14 1//6
f 9//10 7//13 6//8
f 7//13 12//15 11//14
f 10//12 13//16 8//11
f 13//16 15//17 8//11
f 7//13 14//18 12//15
f 9//10 15//17 7//13
f 13//16 16//19 15//17
f 16//19 23//20 15//17
f 23//20 14//18 15//17
f 17//21 19//22 16//19
f 18//23 21//24 17//21
f 14//18 22//25 18//23
f 19//22 25//26 23//20
f 20//27 26//28 19//22
f 22//25 24//29 21//24
f 24//29 27//30 20//27
f 26//28 28//31 25//26
f 27//30 29//32 26//28
f 22//25 30//33 24//29
f 29//32 32//34 28//31
f 27//30 33//35 29//32
f 33//35 34//36 32//34
f 41//37 35//38 31//39
f 36//40 34//36 33//35
f 30//33 36//40 27//30
f 35//38 37//41 30//33
f 41//37 39//42 35//38
f 37//41 38//43 36//40
f 39//42 40//44 37//41
f 40//44 42//45 38//43
f 39//42 42//45 40//44
f 43//46 44//47 42//45
f 42//45 47//48 38//43
f 34//36 46//49 41//37
f 42//45 50//50 47//48
f 46//49 48//51 45//52
f 49//53 51//54 48//51
f 50//50 51//54 49//53
f 52//55 53//56 51//54
f 42//45 54//57 50//50
f 44//47 55//58 42//45
f 43//46 55//58 44//47
f 48//51 56//59 43//46
f 51//54 56//59 48//51
f 56//59 57//60 55//58
f 52//55 58//61 53//56
f 54//57 59//62 52//55
f 57//60 60//63 54//57
f 56//59 61//64 57//60
f 53//56 61//64 56//59
f 59//62 62//65 58//61
f 59//62 63//66 62//65
f 61//64 64//67 60//63
f 64//67 66//68 60//63
f 62//65 65//69 61//64
f 63//66 65//69 62//65
f 67//70 70//71 65//69
f 66//68 67//70 63//66
f 64//67 68//72 66//68
f 65//69 69//73 64//67
f 66//68 71//1 67//70
f 69//73 1//6 68//72
f 68//72 72//4 66//68
f 70//71 73//3 65//69
f 71//1 73//3 70//71
f 92//74 76//75 91//76
f 90//77 77//78 92//74
f 74//79 78//80 90//77
f 75//81 79//82 74//79
f 91//76 80//83 75//81
f 77//78 81//84 76//75
f 81//84 83//85 80//83
f 77//78 82//86 81//84
f 78//80 84//87 77//78
f 82//86 86//88 83//85
f 84//87 86//88 82//86
f 78//80 87//89 84//87
f 85//90 87//89 78//80
f 83//85 85//90 79//82
f 84//87 89//91 86//88
f 87//89 89//91 84//87
f 85//90 90//77 87//89
f 89//91 91//76 88//92
f 87//89 92//74 89//91
f 90//77 92//74 87//89
f 91//76 75//81 88//92
f 2//2 3//9 5//7
f 2//2 4//5 3//9
f 2//2 5//7 73//3
f 73//3 6//8 69//73
f 69//73 6//8 1//6
f 6//8 7//13 1//6
f 3//9 8//11 9//10
f 5//7 9//10 6//8
f 4//5 10//12 8//11
f 1//6 11//14 10//12
f 11//14 12//15 10//12
f 8//11 15//17 9//10
f 12//15 17//21 10//12
f 12//15 14//18 17//21
f 7//13 15//17 14//18
f 10//12 17//21 13//16
f 13//16 17//21 16//19
f 14//18 18//23 17//21
f 16//19 19//22 23//20
f 17//21 20//27 19//22
f 17//21 21//24 20//27
f 18//23 22//25 21//24
f 14//18 23//20 22//25
f 21//24 24//29 20//27
f 23//20 25//26 22//25
f 19//22 26//28 25//26
f 20//27 27//30 26//28
f 25//26 31//39 22//25
f 26//28 29//32 28//31
f 24//29 30//33 27//30
f 22//25 31//39 30//33
f 25//26 28//31 31//39
f 28//31 32//34 31//39
f 29//32 33//35 32//34
f 32//34 34//36 41//37
f 31//39 35//38 30//33
f 32//34 41//37 31//39
f 27//30 36//40 33//35
f 30//33 37//41 36//40
f 36//40 38//43 34//36
f 35//38 39//42 37//41
f 37//41 40//44 38//43
f 39//42 43//46 42//45
f 41//37 45//52 39//42
f 38//43 47//48 34//36
f 39//42 45//52 43//46
f 41//37 46//49 45//52
f 34//36 47//48 46//49
f 47//48 49//53 46//49
f 47//48 50//50 49//53
f 45//52 48//51 43//46
f 46//49 49//53 48//51
f 50//50 52//55 51//54
f 50//50 54//57 52//55
f 42//45 55//58 54//57
f 43//46 56//59 55//58
f 51//54 53//56 56//59
f 55//58 57//60 54//57
f 52//55 59//62 58//61
f 54//57 60//63 59//62
f 57//60 61//64 60//63
f 53//56 58//61 61//64
f 58//61 62//65 61//64
f 60//63 66//68 59//62
f 61//64 65//69 64//67
f 59//62 66//68 63//66
f 63//66 67//70 65//69
f 64//67 69//73 68//72
f 67//70 71//1 70//71
f 66//68 72//4 71//1
f 65//69 73//3 69//73
f 68//72 1//6 72//4
f 92//74 77//78 76//75
f 90//77 78//80 77//78
f 74//79 79//82 78//80
f 75//81 80//83 79//82
f 91//76 76//75 80//83
f 76//75 81//84 80//83
f 81//84 82//86 83//85
f 77//78 84//87 82//86
f 80//83 83//85 79//82
f 79//82 85//90 78//80
f 83//85 88//92 85//90
f 83//85 86//88 88//92
f 86//88 89//91 88//92
f 85//90 74//79 90//77
f 89//91 92//74 91//76
f 88//92 75//81 85//90
f 85//90 75//81 74//79
