# Blender v2.79 (sub 0) OBJ File: 'world_countrycodes_outlines2.blend'
# www.blender.org
mtllib BE_outline.mtl
o BE.001_CUCurve.1637
v 0.978047 -0.000097 0.326655
v 0.977872 0.001949 0.327998
v 0.978570 -0.000773 0.330970
v 0.977599 -0.001928 0.328112
v 0.980885 -0.000794 0.327675
v 0.980999 0.001406 0.328227
v 0.981972 0.001452 0.330865
v 0.982347 -0.000728 0.331382
v 0.987541 0.001993 0.327128
v 0.987154 -0.001946 0.327718
v 0.986735 0.000006 0.324898
v 0.987948 0.001468 0.325426
v 0.987154 0.000829 0.328973
v 0.987759 -0.001473 0.325421
v 0.990820 -0.000025 0.326637
v 0.992449 0.000731 0.332629
v 0.993012 -0.001388 0.332420
v 0.995323 -0.001964 0.331619
v 0.996483 0.000005 0.331133
v 0.995322 0.001955 0.331705
v 0.997737 0.001443 0.335859
v 0.998288 -0.000779 0.335909
v 0.995335 0.001964 0.336222
v 0.994132 -0.000935 0.335467
v 0.995854 -0.002008 0.336065
v 0.994462 0.001377 0.340034
v 0.991891 0.000797 0.337800
v 0.995035 -0.000705 0.340251
v 0.993446 -0.002022 0.342717
v 0.991612 0.001193 0.340217
v 0.991048 -0.000984 0.340216
v 0.995294 0.000702 0.344143
v 0.990637 -0.000652 0.343994
v 0.992003 0.002004 0.343162
v 0.988620 0.000958 0.342187
v 0.989839 -0.000785 0.338312
v 0.989042 0.001931 0.339134
v 0.989167 -0.001973 0.340929
v 0.986530 -0.001451 0.339619
v 0.986591 -0.000002 0.341155
v 0.985827 0.000946 0.338801
v 0.988432 0.001919 0.336859
v 0.989365 -0.000689 0.336103
v 0.987535 0.000625 0.339519
v 0.987311 0.000774 0.335205
v 0.987206 -0.001902 0.336321
v 0.984615 0.001990 0.338225
v 0.984705 -0.002011 0.338276
v 0.985337 -0.000752 0.341100
v 0.983834 0.000998 0.341161
v 0.982049 -0.001372 0.338097
v 0.981640 0.000801 0.338282
v 0.985190 0.001205 0.336691
v 0.984764 -0.000783 0.335237
v 0.976630 0.001964 0.332408
v 0.976956 -0.002016 0.333148
v 0.976712 0.001476 0.334678
v 0.978059 0.001476 0.331637
v 0.978248 -0.000224 0.330952
v 0.977737 0.000014 0.335095
v 0.977132 -0.001409 0.331460
v 0.976789 -0.001468 0.334715
v 0.976976 -0.000008 0.331048
v 0.975886 0.000007 0.335380
v 0.973464 -0.000718 0.332271
v 0.973924 0.001957 0.330752
v 0.977377 0.001327 0.330495
v 0.975459 -0.001989 0.330142
v 0.968290 0.000152 0.329716
vn 0.3350 0.7657 0.5490
vn 0.0011 0.8836 -0.4681
vn -0.3093 0.9326 0.1859
vn 0.0413 -0.0016 -0.9991
vn -0.0775 -0.1093 -0.9910
vn -0.0338 -0.9262 -0.3755
vn 0.1430 -0.4147 0.8986
vn -0.0761 -0.4476 0.8910
vn 0.0833 0.6917 0.7173
vn -0.0135 0.9999 -0.0021
vn -0.0580 -0.9719 0.2281
vn -0.1308 -0.1583 -0.9787
vn -0.1287 0.0196 -0.9915
vn 0.1595 0.6210 -0.7674
vn 0.0017 0.3970 0.9178
vn 0.5824 -0.0240 -0.8125
vn 0.2959 0.9112 -0.2865
vn -0.6813 0.4512 0.5763
vn 0.1288 -0.6654 -0.7353
vn 0.3427 -0.8985 -0.2742
vn 0.7966 0.0117 -0.6043
vn 0.9272 -0.3484 0.1376
vn -0.8313 -0.5506 -0.0754
vn -0.4795 -0.7486 0.4579
vn 0.7591 0.6393 0.1223
vn 0.0905 -0.9945 0.0518
vn 0.9251 -0.2221 0.3079
vn -0.1669 0.9860 -0.0005
vn 0.6832 0.6861 0.2499
vn -0.7848 0.3824 -0.4876
vn 0.4315 -0.0232 -0.9018
vn -0.0678 0.8651 0.4969
vn 0.2678 -0.8873 0.3754
vn 0.7108 0.2072 0.6722
vn -0.3656 -0.2799 0.8877
vn 0.7951 -0.3829 -0.4704
vn -0.1300 0.8778 -0.4610
vn -0.6000 0.4202 0.6807
vn -0.0760 -0.9087 0.4104
vn -0.2257 -0.9401 0.2555
vn 0.1861 0.9678 -0.1695
vn -0.8131 0.2711 -0.5152
vn -0.0792 -0.8074 -0.5847
vn 0.4248 0.8383 -0.3416
vn 0.7531 -0.2772 -0.5966
vn 0.9877 0.0931 0.1255
vn -0.0722 0.2682 -0.9606
vn -0.3212 0.4008 0.8580
vn -0.0316 0.9972 0.0681
vn 0.1136 0.6457 -0.7551
vn -0.0067 -0.9994 0.0338
vn -0.4623 -0.6470 0.6063
vn 0.1189 -0.4128 0.9030
vn -0.6041 0.4342 0.6681
vn 0.7326 -0.3270 -0.5969
vn 0.0850 0.9929 -0.0829
vn -0.0251 -0.9996 -0.0144
vn -0.3214 0.7464 0.5827
vn 0.1077 0.6628 -0.7410
vn 0.2940 -0.1557 -0.9430
vn -0.3518 -0.7069 0.6135
vn -0.4176 0.0237 0.9083
vn 0.5926 -0.6649 -0.4546
vn 0.7545 0.6535 0.0605
vn -0.4441 0.0443 0.8949
vn -0.6445 -0.3820 0.6623
vn -0.0687 -0.9976 -0.0004
vn -0.9978 0.0136 -0.0641
vn -0.6341 -0.1172 0.7642
usemtl SVGMat.3781
s 1
f 67//1 2//2 66//3
f 1//4 5//5 4//6
f 2//2 5//5 1//4
f 4//6 8//7 3//8
f 3//8 7//9 67//1
f 7//9 9//10 2//2
f 5//5 10//11 4//6
f 6//12 11//13 5//5
f 9//10 12//14 6//12
f 8//7 13//15 7//9
f 10//11 13//15 8//7
f 12//14 15//16 11//13
f 13//15 20//17 9//10
f 10//11 16//18 13//15
f 14//19 18//20 10//11
f 15//16 18//20 14//19
f 12//14 19//21 15//16
f 19//21 22//22 18//20
f 18//20 24//23 17//24
f 21//25 22//22 19//21
f 22//22 25//26 18//20
f 21//25 28//27 22//22
f 23//28 26//29 21//25
f 24//23 27//30 23//28
f 25//26 31//31 24//23
f 27//30 34//32 23//28
f 28//27 29//33 25//26
f 26//29 32//34 28//27
f 34//32 32//34 26//29
f 32//34 33//35 29//33
f 31//31 36//36 30//37
f 29//33 36//36 31//31
f 35//38 39//39 38//40
f 37//41 41//42 35//38
f 39//39 46//43 38//40
f 36//36 42//44 37//41
f 46//43 43//45 36//36
f 42//44 44//46 41//42
f 43//45 45//47 42//44
f 42//44 50//48 44//46
f 45//47 47//49 42//44
f 46//43 53//50 45//47
f 39//39 48//51 46//43
f 53//50 47//49 45//47
f 50//48 51//52 49//53
f 47//49 52//54 50//48
f 48//51 54//55 53//50
f 53//50 55//56 47//49
f 51//52 56//57 48//51
f 55//56 57//58 52//54
f 54//55 58//59 53//50
f 56//57 59//60 54//55
f 52//54 62//61 51//52
f 57//58 60//62 52//54
f 56//57 61//63 59//60
f 59//60 55//56 58//59
f 61//63 63//64 59//60
f 57//58 64//65 60//62
f 64//65 65//66 62//61
f 57//58 65//66 64//65
f 55//56 66//3 57//58
f 65//66 68//67 56//57
f 63//64 67//1 55//56
f 61//63 67//1 63//64
f 68//67 3//8 67//1
f 66//3 2//2 69//68
f 68//67 4//6 3//8
f 2//2 6//12 5//5
f 67//1 7//9 2//2
f 3//8 8//7 7//9
f 2//2 9//10 6//12
f 4//6 10//11 8//7
f 5//5 11//13 14//19
f 6//12 12//14 11//13
f 7//9 13//15 9//10
f 5//5 14//19 10//11
f 11//13 15//16 14//19
f 9//10 20//17 12//14
f 13//15 16//18 20//17
f 10//11 17//24 16//18
f 10//11 18//20 17//24
f 15//16 19//21 18//20
f 12//14 20//17 19//21
f 20//17 21//25 19//21
f 16//18 23//28 20//17
f 17//24 24//23 16//18
f 20//17 23//28 21//25
f 16//18 24//23 23//28
f 18//20 25//26 24//23
f 21//25 26//29 28//27
f 22//22 28//27 25//26
f 24//23 31//31 27//30
f 23//28 34//32 26//29
f 25//26 29//33 31//31
f 27//30 30//37 34//32
f 27//30 31//31 30//37
f 28//27 32//34 29//33
f 32//34 34//32 33//35
f 34//32 35//38 33//35
f 33//35 35//38 38//40
f 30//37 37//41 34//32
f 30//37 36//36 37//41
f 33//35 38//40 29//33
f 34//32 37//41 35//38
f 29//33 38//40 36//36
f 35//38 40//69 39//39
f 35//38 41//42 40//69
f 38//40 46//43 36//36
f 40//69 41//42 39//39
f 37//41 42//44 41//42
f 36//36 43//45 42//44
f 41//42 44//46 39//39
f 43//45 46//43 45//47
f 44//46 49//53 39//39
f 44//46 50//48 49//53
f 42//44 47//49 50//48
f 46//43 48//51 53//50
f 39//39 49//53 48//51
f 49//53 51//52 48//51
f 50//48 52//54 51//52
f 47//49 55//56 52//54
f 48//51 56//57 54//55
f 53//50 58//59 55//56
f 54//55 59//60 58//59
f 52//54 60//62 62//61
f 51//52 62//61 56//57
f 59//60 63//64 55//56
f 60//62 64//65 62//61
f 57//58 66//3 65//66
f 62//61 65//66 56//57
f 56//57 68//67 61//63
f 55//56 67//1 66//3
f 61//63 68//67 67//1
f 66//3 69//68 65//66
f 65//66 69//68 68//67
f 69//68 1//4 4//6
f 69//68 2//2 1//4
f 69//68 4//6 68//67
