# Blender v2.79 (sub 0) OBJ File: 'world_countrycodes_export2.blend'
# www.blender.org
mtllib BF.mtl
o BF.002_CUCurve.1854
v 0.973753 0.000000 0.581785
v 0.972424 0.000000 0.581470
v 0.972276 0.000000 0.581067
v 0.972195 0.000000 0.578390
v 0.971873 0.000000 0.578244
v 0.969802 0.000000 0.578861
v 0.968822 0.000000 0.578425
v 0.967524 0.000000 0.576799
v 0.966669 0.000000 0.576629
v 0.966138 0.000000 0.575980
v 0.966009 0.000000 0.574222
v 0.965312 0.000000 0.573042
v 0.962942 0.000000 0.571155
v 0.961829 0.000000 0.568630
v 0.961302 0.000000 0.568057
v 0.961175 0.000000 0.567126
v 0.961521 0.000000 0.565244
v 0.959711 0.000000 0.565198
v 0.957935 0.000000 0.564576
v 0.957252 0.000000 0.564321
v 0.956106 0.000000 0.564846
v 0.953572 0.000000 0.566657
v 0.952008 0.000000 0.567367
v 0.949536 0.000000 0.567908
v 0.948992 0.000000 0.568227
v 0.948836 0.000000 0.569049
v 0.948217 0.000000 0.569637
v 0.947263 0.000000 0.569780
v 0.945928 0.000000 0.569465
v 0.945002 0.000000 0.569542
v 0.944302 0.000000 0.570192
v 0.943523 0.000000 0.571807
v 0.942114 0.000000 0.572428
v 0.941612 0.000000 0.572887
v 0.941260 0.000000 0.574430
v 0.940677 0.000000 0.574734
v 0.939764 0.000000 0.574541
v 0.937667 0.000000 0.573399
v 0.937039 0.000000 0.573658
v 0.936297 0.000000 0.575660
v 0.936066 0.000000 0.577696
v 0.934890 0.000000 0.579536
v 0.934060 0.000000 0.581596
v 0.933321 0.000000 0.582483
v 0.931950 0.000000 0.583009
v 0.929659 0.000000 0.583211
v 0.929428 0.000000 0.583822
v 0.930175 0.000000 0.586511
v 0.928413 0.000000 0.591260
v 0.930047 0.000000 0.591937
v 0.930981 0.000000 0.592761
v 0.931844 0.000000 0.593909
v 0.933833 0.000000 0.595581
v 0.935526 0.000000 0.595996
v 0.937196 0.000000 0.594847
v 0.938955 0.000000 0.594192
v 0.940578 0.000000 0.594038
v 0.942707 0.000000 0.594468
v 0.943632 0.000000 0.595132
v 0.944256 0.000000 0.595169
v 0.944697 0.000000 0.594755
v 0.944900 0.000000 0.593794
v 0.943836 0.000000 0.590185
v 0.943707 0.000000 0.588915
v 0.943916 0.000000 0.588443
v 0.945432 0.000000 0.588119
v 0.949981 0.000000 0.587982
v 0.957291 0.000000 0.588492
v 0.958327 0.000000 0.589039
v 0.959152 0.000000 0.587713
v 0.960142 0.000000 0.587336
v 0.962881 0.000000 0.587887
v 0.965640 0.000000 0.588029
v 0.967462 0.000000 0.586480
v 0.968357 0.000000 0.585867
v 0.970567 0.000000 0.585737
v 0.972488 0.000000 0.585382
v 0.973493 0.000000 0.584709
v 0.974851 0.000000 0.583656
v 0.974871 0.000000 0.582600
v 0.933833 0.050000 0.595581
v 0.935526 0.050000 0.595996
v 0.930175 0.050000 0.586511
v 0.959152 0.050000 0.587713
v 0.942707 0.050000 0.594468
v 0.943632 0.050000 0.595132
v 0.931844 0.050000 0.593909
v 0.937196 0.050000 0.594847
v 0.945432 0.050000 0.588119
v 0.973753 0.050000 0.581785
v 0.933321 0.050000 0.582483
v 0.944900 0.050000 0.593794
v 0.943836 0.050000 0.590185
v 0.972276 0.050000 0.581067
v 0.934890 0.050000 0.579536
v 0.928413 0.050000 0.591260
v 0.939764 0.050000 0.574541
v 0.937039 0.050000 0.573658
v 0.973493 0.050000 0.584709
v 0.972195 0.050000 0.578390
v 0.969802 0.050000 0.578861
v 0.940578 0.050000 0.594038
v 0.966669 0.050000 0.576629
v 0.936297 0.050000 0.575660
v 0.943707 0.050000 0.588915
v 0.968357 0.050000 0.585867
v 0.970567 0.050000 0.585737
v 0.930047 0.050000 0.591937
v 0.936066 0.050000 0.577696
v 0.944697 0.050000 0.594755
v 0.949981 0.050000 0.587982
v 0.957291 0.050000 0.588492
v 0.947263 0.050000 0.569780
v 0.945928 0.050000 0.569465
v 0.972488 0.050000 0.585382
v 0.953572 0.050000 0.566657
v 0.952008 0.050000 0.567367
v 0.934060 0.050000 0.581596
v 0.960142 0.050000 0.587336
v 0.974871 0.050000 0.582600
v 0.938955 0.050000 0.594192
v 0.961302 0.050000 0.568057
v 0.961175 0.050000 0.567126
v 0.945002 0.050000 0.569542
v 0.944256 0.050000 0.595169
v 0.930981 0.050000 0.592761
v 0.949536 0.050000 0.567908
v 0.929428 0.050000 0.583822
v 0.959711 0.050000 0.565198
v 0.956106 0.050000 0.564846
v 0.968822 0.050000 0.578425
v 0.937667 0.050000 0.573399
v 0.961829 0.050000 0.568630
v 0.948836 0.050000 0.569049
v 0.943523 0.050000 0.571807
v 0.942114 0.050000 0.572428
v 0.940677 0.050000 0.574734
v 0.965312 0.050000 0.573042
v 0.957935 0.050000 0.564576
v 0.948217 0.050000 0.569637
v 0.966138 0.050000 0.575980
v 0.966009 0.050000 0.574222
v 0.941260 0.050000 0.574430
v 0.943916 0.050000 0.588443
v 0.931950 0.050000 0.583009
v 0.974851 0.050000 0.583656
v 0.957252 0.050000 0.564321
v 0.958327 0.050000 0.589039
v 0.948992 0.050000 0.568227
v 0.962881 0.050000 0.587887
v 0.965640 0.050000 0.588029
v 0.929659 0.050000 0.583211
v 0.962942 0.050000 0.571155
v 0.944302 0.050000 0.570192
v 0.971873 0.050000 0.578244
v 0.972424 0.050000 0.581470
v 0.967524 0.050000 0.576799
v 0.961521 0.050000 0.565244
v 0.941612 0.050000 0.572887
v 0.967462 0.050000 0.586480
vn 0.0000 -1.0000 0.0000
vn 0.0000 1.0000 -0.0000
vn 0.0000 1.0000 -0.0001
vn 0.9995 0.0000 -0.0302
vn 0.0586 0.0000 0.9983
vn 0.7355 0.0000 -0.6775
vn 0.4061 0.0000 -0.9138
vn -0.9353 0.0000 -0.3540
vn -0.4034 0.0000 -0.9150
vn -0.9377 0.0000 -0.3475
vn -0.8427 0.0000 -0.5384
vn 0.0256 0.0000 -0.9997
vn 0.9973 0.0000 -0.0729
vn 0.5563 0.0000 0.8310
vn -0.0696 0.0000 0.9976
vn -0.9634 0.0000 0.2679
vn 0.5889 0.0000 -0.8082
vn 0.2066 0.0000 -0.9784
vn 0.2297 0.0000 -0.9733
vn -0.9749 0.0000 -0.2228
vn -0.9826 0.0000 -0.1859
vn -0.6435 0.0000 0.7655
vn 0.9151 0.0000 -0.4033
vn 0.5667 0.0000 0.8239
vn 0.0301 0.0000 0.9995
vn -0.4135 0.0000 -0.9105
vn -0.4160 0.0000 -0.9094
vn -0.7681 0.0000 -0.6403
vn 0.4783 0.0000 -0.8782
vn -0.4674 0.0000 0.8840
vn -0.7994 0.0000 0.6007
vn 0.3489 0.0000 0.9371
vn 0.3559 0.0000 0.9345
vn -0.5815 0.0000 -0.8136
vn -0.6803 0.0000 -0.7329
vn 0.8609 0.0000 -0.5087
vn 0.2088 0.0000 0.9780
vn 0.7817 0.0000 -0.6236
vn 0.7738 0.0000 -0.6335
vn -0.3831 0.0000 0.9237
vn -0.2382 0.0000 0.9712
vn -0.6887 0.0000 -0.7251
vn 0.9909 0.0000 -0.1345
vn 0.1943 0.0000 -0.9809
vn 0.9998 0.0000 0.0187
vn -0.9007 0.0000 -0.4344
vn -0.0830 0.0000 -0.9966
vn -0.5829 0.0000 0.8125
vn -0.3589 0.0000 -0.9334
vn -0.0590 0.0000 0.9983
vn -0.6613 0.0000 0.7501
vn 0.6127 0.0000 0.7903
vn 0.3306 0.0000 -0.9438
vn -0.1973 0.0000 0.9803
vn 0.6478 0.0000 0.7618
vn 0.9592 0.0000 -0.2828
vn -0.0875 0.0000 -0.9962
vn -0.2852 0.0000 -0.9585
vn 0.3495 0.0000 -0.9370
vn -0.2135 0.0000 -0.9769
vn -0.1484 0.0000 -0.9889
vn -0.6752 0.0000 -0.7376
vn 0.6229 0.0000 -0.7823
vn 0.8492 0.0000 0.5282
vn -0.9375 0.0000 -0.3480
vn 0.9148 0.0000 0.4039
vn 0.9389 0.0000 -0.3441
vn 0.2307 0.0000 -0.9730
vn -0.4622 0.0000 -0.8868
vn 0.9785 0.0000 0.2062
vn 0.9835 0.0000 0.1808
vn 0.4115 0.0000 -0.9114
vn 0.0946 0.0000 0.9955
vn -0.1980 0.0000 0.9802
vn 0.5650 0.0000 0.8251
vn 0.1821 0.0000 0.9833
vn -0.5064 0.0000 -0.8623
vn -0.9936 0.0000 -0.1128
vn 0.9949 0.0000 -0.1007
vn 0.6836 0.0000 0.7299
vn -0.9275 0.0000 -0.3739
vn -0.0514 0.0000 0.9987
vn -0.3809 0.0000 -0.9246
usemtl SVGMat.3781
s off
f 21//1 20//1 19//1
f 21//1 19//1 18//1
f 18//1 17//1 16//1
f 21//1 18//1 16//1
f 22//1 21//1 16//1
f 23//1 22//1 16//1
f 23//1 16//1 15//1
f 24//1 23//1 15//1
f 25//1 24//1 15//1
f 25//1 15//1 14//1
f 26//1 25//1 14//1
f 27//1 26//1 14//1
f 27//1 14//1 13//1
f 30//1 29//1 28//1
f 28//1 27//1 13//1
f 31//1 30//1 28//1
f 31//1 28//1 13//1
f 32//1 31//1 13//1
f 32//1 13//1 12//1
f 33//1 32//1 12//1
f 34//1 33//1 12//1
f 35//1 34//1 12//1
f 35//1 12//1 11//1
f 39//1 38//1 37//1
f 40//1 39//1 37//1
f 35//1 11//1 10//1
f 36//1 35//1 10//1
f 40//1 37//1 36//1
f 40//1 36//1 10//1
f 40//1 10//1 9//1
f 40//1 9//1 8//1
f 41//1 40//1 8//1
f 41//1 8//1 7//1
f 42//1 41//1 7//1
f 6//1 5//1 4//1
f 42//1 7//1 6//1
f 6//1 4//1 3//1
f 42//1 6//1 3//1
f 43//1 42//1 3//1
f 43//1 3//1 2//1
f 43//1 2//1 1//1
f 44//1 43//1 1//1
f 44//1 1//1 80//1
f 45//1 44//1 80//1
f 45//1 80//1 79//1
f 46//1 45//1 79//1
f 47//1 46//1 79//1
f 47//1 79//1 78//1
f 48//1 47//1 78//1
f 48//1 78//1 77//1
f 48//1 77//1 76//1
f 48//1 76//1 75//1
f 48//1 75//1 74//1
f 71//1 48//1 74//1
f 71//1 74//1 73//1
f 48//1 71//1 70//1
f 72//1 71//1 73//1
f 48//1 70//1 67//1
f 48//1 67//1 66//1
f 49//1 48//1 66//1
f 68//1 67//1 70//1
f 49//1 66//1 65//1
f 49//1 65//1 64//1
f 68//1 70//1 69//1
f 49//1 64//1 63//1
f 50//1 49//1 63//1
f 50//1 63//1 62//1
f 51//1 50//1 62//1
f 52//1 51//1 62//1
f 52//1 62//1 57//1
f 52//1 57//1 56//1
f 58//1 57//1 62//1
f 58//1 62//1 61//1
f 52//1 56//1 55//1
f 53//1 52//1 55//1
f 59//1 58//1 61//1
f 59//1 61//1 60//1
f 53//1 55//1 54//1
f 130//2 139//2 147//2
f 130//2 129//2 139//2
f 129//2 123//2 158//2
f 130//2 123//2 129//2
f 116//2 123//2 130//2
f 117//2 123//2 116//2
f 117//2 122//2 123//2
f 127//2 122//2 117//2
f 149//2 122//2 127//2
f 149//2 133//2 122//2
f 134//2 133//2 149//2
f 140//2 133//2 134//2
f 140//2 153//2 133//2
f 124//2 113//2 114//2
f 113//2 153//2 140//2
f 154//2 113//2 124//2
f 154//2 153//2 113//2
f 135//2 153//2 154//2
f 135//2 138//2 153//2
f 136//2 138//2 135//2
f 159//2 138//2 136//2
f 143//2 138//2 159//2
f 143//2 142//2 138//2
f 98//2 97//2 132//2
f 104//2 97//2 98//2
f 143//2 141//2 142//2
f 137//2 141//2 143//2
f 104//2 137//2 97//2
f 104//2 141//2 137//2
f 104//2 103//2 141//2
f 104//2 157//2 103//2
f 109//2 157//2 104//2
f 109//2 131//2 157//2
f 95//2 131//2 109//2
f 101//2 100//2 155//2
f 95//2 101//2 131//2
f 101//2 94//2 100//2
f 95//2 94//2 101//2
f 118//2 94//2 95//2
f 118//2 156//2 94//2
f 118//2 90//2 156//2
f 91//2 90//2 118//2
f 91//2 120//2 90//2
f 145//2 120//2 91//2
f 145//2 146//2 120//2
f 152//2 146//2 145//2
f 128//2 146//2 152//2
f 128//2 99//2 146//2
f 83//2 99//2 128//2
f 83//2 115//2 99//2
f 83//2 107//2 115//2
f 83//2 106//2 107//2
f 83//2 160//2 106//2
f 119//2 160//2 83//2
f 119//2 151//2 160//2
f 83//2 84//2 119//2
f 150//2 151//2 119//2
f 83//2 111//2 84//2
f 83//2 89//2 111//2
f 96//2 89//2 83//2
f 112//2 84//2 111//2
f 96//3 144//3 89//3
f 96//2 105//2 144//2
f 112//2 148//2 84//2
f 96//2 93//2 105//2
f 108//2 93//2 96//2
f 108//2 92//2 93//2
f 126//2 92//2 108//2
f 87//2 92//2 126//2
f 87//2 102//2 92//2
f 87//2 121//2 102//2
f 85//2 92//2 102//2
f 85//2 110//2 92//2
f 87//2 88//2 121//2
f 81//2 88//2 87//2
f 86//2 110//2 85//2
f 86//2 125//2 110//2
f 81//2 82//2 88//2
f 3//4 4//4 100//4 94//4
f 75//5 76//5 107//5 106//5
f 14//6 15//6 122//6 133//6
f 6//7 7//7 131//7 101//7
f 46//8 47//8 128//8 152//8
f 32//9 33//9 136//9 135//9
f 39//10 40//10 104//10 98//10
f 41//11 42//11 95//11 109//11
f 17//12 18//12 129//12 158//12
f 10//13 11//13 142//13 141//13
f 77//14 78//14 99//14 115//14
f 67//15 68//15 112//15 111//15
f 47//16 48//16 83//16 128//16
f 80//17 1//17 90//17 120//17
f 36//18 37//18 97//18 137//18
f 28//19 29//19 114//19 113//19
f 34//20 35//20 143//20 159//20
f 25//21 26//21 134//21 149//21
f 52//22 53//22 81//22 87//22
f 13//23 14//23 133//23 153//23
f 54//24 55//24 88//24 82//24
f 66//25 67//25 111//25 89//25
f 22//26 23//26 117//26 116//26
f 20//27 21//27 130//27 147//27
f 43//28 44//28 91//28 118//28
f 37//29 38//29 132//29 97//29
f 68//30 69//30 148//30 112//30
f 51//31 52//31 87//31 126//31
f 55//32 56//32 121//32 88//32
f 70//33 71//33 119//33 84//33
f 21//34 22//34 116//34 130//34
f 30//35 31//35 154//35 124//35
f 11//36 12//36 138//36 142//36
f 65//37 66//37 89//37 144//37
f 7//38 8//38 157//38 131//38
f 9//39 10//39 141//39 103//39
f 49//40 50//40 108//40 96//40
f 53//41 54//41 82//41 81//41
f 26//42 27//42 140//42 134//42
f 15//43 16//43 123//43 122//43
f 8//44 9//44 103//44 157//44
f 79//45 80//45 120//45 146//45
f 31//46 32//46 135//46 154//46
f 29//47 30//47 124//47 114//47
f 58//48 59//48 86//48 85//48
f 44//49 45//49 145//49 91//49
f 59//50 60//50 125//50 86//50
f 50//51 51//51 126//51 108//51
f 78//52 79//52 146//52 99//52
f 18//53 19//53 139//53 129//53
f 71//54 72//54 150//54 119//54
f 73//55 74//55 160//55 151//55
f 62//56 63//56 93//56 92//56
f 45//57 46//57 152//57 145//57
f 5//58 6//58 101//58 155//58
f 19//59 20//59 147//59 139//59
f 23//60 24//60 127//60 117//60
f 27//61 28//61 113//61 140//61
f 33//62 34//62 159//62 136//62
f 12//63 13//63 153//63 138//63
f 69//64 70//64 84//64 148//64
f 48//65 49//65 96//65 83//65
f 64//66 65//66 144//66 105//66
f 2//67 3//67 94//67 156//67
f 1//68 2//68 156//68 90//68
f 35//69 36//69 137//69 143//69
f 61//70 62//70 92//70 110//70
f 16//71 17//71 158//71 123//71
f 4//72 5//72 155//72 100//72
f 56//73 57//73 102//73 121//73
f 57//74 58//74 85//74 102//74
f 74//75 75//75 106//75 160//75
f 76//76 77//76 115//76 107//76
f 24//77 25//77 149//77 127//77
f 40//78 41//78 109//78 104//78
f 63//79 64//79 105//79 93//79
f 60//80 61//80 110//80 125//80
f 42//81 43//81 118//81 95//81
f 72//82 73//82 151//82 150//82
f 38//83 39//83 98//83 132//83
