# Blender v2.79 (sub 0) OBJ File: 'world_countrycodes_outlines2.blend'
# www.blender.org
mtllib BF_outline.mtl
o BF.001_CUCurve.1680
v 0.976894 0.000703 0.584270
v 0.973206 0.001314 0.583496
v 0.972780 -0.000841 0.583271
v 0.976155 -0.001927 0.582717
v 0.973689 -0.000750 0.587061
v 0.974746 0.001995 0.585192
v 0.967924 -0.002005 0.587106
v 0.967839 0.001134 0.588518
v 0.965508 0.001970 0.587197
v 0.967540 0.000701 0.584014
v 0.966003 -0.000685 0.590078
v 0.965053 -0.001155 0.586021
v 0.959719 0.001810 0.588932
v 0.958433 0.001810 0.587141
v 0.960431 -0.000881 0.589332
v 0.959547 -0.000652 0.585340
v 0.958046 -0.000041 0.586518
v 0.958248 -0.001920 0.587738
v 0.957217 0.000766 0.590665
v 0.958640 -0.001230 0.590826
v 0.945105 0.001405 0.589411
v 0.942837 0.001920 0.587492
v 0.943493 -0.000970 0.586274
v 0.945496 -0.000882 0.589863
v 0.941695 -0.000065 0.587757
v 0.942740 -0.001915 0.588492
v 0.946902 0.000694 0.593828
v 0.943514 0.000896 0.593118
v 0.944263 -0.001973 0.594328
v 0.946521 -0.000946 0.595887
v 0.944630 0.001935 0.596167
v 0.943642 -0.000778 0.597205
v 0.940180 -0.000785 0.595729
v 0.940005 0.001363 0.595213
v 0.939427 -0.000052 0.591759
v 0.939639 -0.001952 0.593084
v 0.939786 0.001949 0.593090
v 0.934801 0.001372 0.594607
v 0.934960 -0.000840 0.593991
v 0.934340 0.000072 0.598365
v 0.934680 0.001943 0.597022
v 0.934956 -0.001926 0.597129
v 0.930963 -0.000804 0.590075
v 0.928993 0.000837 0.593546
v 0.929630 0.001994 0.590457
v 0.928263 -0.001988 0.591670
v 0.925959 0.000689 0.592708
v 0.928102 0.000760 0.586360
v 0.932142 -0.000760 0.586503
v 0.930857 0.001926 0.584081
v 0.927619 0.000718 0.582094
v 0.931376 -0.000042 0.584572
v 0.929813 -0.001912 0.584477
v 0.928389 -0.001859 0.582899
v 0.932372 0.000633 0.580718
v 0.933172 0.001983 0.581855
v 0.934298 -0.001461 0.583702
v 0.933419 -0.001961 0.581716
v 0.934624 0.000691 0.584268
v 0.937749 -0.000615 0.578628
v 0.938350 0.000973 0.575822
v 0.934270 -0.000937 0.576901
v 0.937432 0.001980 0.574359
v 0.935376 0.000750 0.572353
v 0.936299 -0.001538 0.572134
v 0.937363 -0.001970 0.574271
v 0.937790 0.000543 0.571310
v 0.939844 -0.000945 0.572683
v 0.940645 0.001861 0.573629
v 0.940911 0.001916 0.575716
v 0.941227 -0.000712 0.576818
v 0.943548 0.000599 0.574278
v 0.942197 -0.001997 0.573636
v 0.941671 0.001444 0.571086
v 0.942048 -0.000845 0.570193
v 0.945830 0.000843 0.571568
v 0.946222 -0.001267 0.571457
v 0.943763 0.000026 0.567645
v 0.944666 0.001855 0.568458
v 0.945191 -0.001917 0.568466
v 0.947174 -0.000087 0.567232
v 0.947843 -0.001371 0.567583
v 0.949763 0.001945 0.569301
v 0.948675 0.000843 0.571611
v 0.948812 -0.002023 0.568877
v 0.950625 -0.000839 0.569943
v 0.947907 0.001087 0.567210
v 0.957120 0.000097 0.562341
v 0.956723 0.001949 0.563527
v 0.957300 0.000752 0.566429
v 0.956987 -0.002012 0.565008
v 0.957159 -0.001390 0.562986
v 0.961023 0.001904 0.564572
v 0.959930 -0.001832 0.566688
v 0.962191 -0.001989 0.564669
v 0.959046 0.000734 0.567345
v 0.963918 0.000699 0.563186
v 0.963518 0.000740 0.568283
v 0.962905 -0.001373 0.568408
v 0.961908 0.002009 0.570941
v 0.961237 -0.000746 0.572098
v 0.967847 0.001423 0.574997
v 0.966024 0.001994 0.575388
v 0.963893 0.000063 0.574598
v 0.965893 -0.002027 0.575812
v 0.968208 -0.000755 0.574851
v 0.965427 0.001445 0.577489
v 0.964980 -0.000853 0.577856
v 0.967382 -0.000946 0.579646
v 0.970116 0.000048 0.576729
v 0.969310 0.002008 0.578113
v 0.969482 -0.002024 0.578252
v 0.969057 0.000821 0.580821
v 0.973532 0.000728 0.576477
v 0.970800 -0.000893 0.580113
v 0.972727 -0.001864 0.577241
v 0.974087 0.000054 0.580042
v 0.972026 0.001875 0.579717
v 0.971092 0.001452 0.582347
v 0.970673 -0.000700 0.582837
v 0.973242 -0.001931 0.580824
v 0.976290 0.000730 0.580949
vn 0.9152 0.2566 0.3106
vn 0.4366 -0.3375 0.8339
vn 0.5959 -0.7968 -0.0997
vn 0.3348 0.8622 0.3800
vn 0.3095 0.4860 0.8173
vn -0.4834 0.8751 0.0208
vn -0.0898 0.9755 -0.2009
vn 0.1170 -0.9640 0.2388
vn -0.1862 -0.4638 -0.8661
vn -0.4436 -0.8804 -0.1676
vn 0.2450 -0.2679 0.9318
vn 0.1111 0.8402 0.5308
vn 0.2137 -0.5137 0.8309
vn -0.0284 -0.9699 -0.2416
vn -0.2223 -0.2130 -0.9514
vn -0.0635 0.8473 -0.5272
vn 0.3348 -0.4713 0.8159
vn 0.0778 0.4950 0.8654
vn 0.4476 -0.7135 0.5390
vn 0.2210 0.9200 0.3236
vn -0.4530 0.7902 -0.4127
vn -0.3221 -0.0494 -0.9454
vn -0.2843 -0.3556 -0.8903
vn -0.5243 -0.8512 -0.0244
vn 0.0570 -0.9984 0.0057
vn 0.9333 0.3589 -0.0133
vn -0.7459 0.5453 -0.3825
vn -0.9679 -0.0154 -0.2506
vn 0.2254 0.7956 0.5623
vn -0.0563 -0.3278 0.9430
vn 0.7562 -0.4066 0.5126
vn 0.0850 -0.4948 0.8648
vn -0.0770 -0.0140 -0.9969
vn 0.0036 -0.9172 -0.3984
vn -0.0199 0.8930 -0.4496
vn 0.1078 0.8180 -0.5650
vn 0.0605 0.7371 0.6731
vn -0.1781 0.0210 0.9838
vn -0.0548 0.8667 0.4958
vn -0.0392 -0.8663 0.4979
vn 0.8616 -0.4574 -0.2200
vn 0.0952 -0.5967 -0.7967
vn -0.3894 -0.8995 0.1979
vn 0.1386 0.9861 -0.0915
vn -0.8607 0.1935 0.4709
vn -0.5277 0.4291 0.7330
vn -0.0871 -0.9847 0.1509
vn -0.9111 0.3932 -0.1237
vn 0.0705 0.9826 0.1719
vn 0.9654 -0.2558 0.0500
vn -0.5814 -0.7624 -0.2841
vn -0.7849 0.3113 -0.5356
vn -0.1119 -0.9803 -0.1628
vn 0.0184 0.9965 -0.0812
vn 0.5517 0.3396 0.7618
vn 0.8079 -0.1099 0.5790
vn 0.4375 -0.6805 0.5878
vn 0.8774 -0.3358 0.3426
vn -0.6548 0.2148 -0.7246
vn -0.7522 -0.5907 -0.2919
vn 0.3127 0.5202 0.7947
vn -0.1048 0.9921 -0.0687
vn 0.0210 -0.9990 0.0396
vn -0.6895 0.4026 -0.6020
vn 0.0708 0.2892 -0.9546
vn -0.1192 -0.5723 -0.8113
vn -0.3622 -0.6905 -0.6260
vn 0.0312 0.9639 -0.2644
vn 0.2299 0.8076 0.5431
vn 0.2004 -0.9584 0.2032
vn 0.2488 -0.3200 0.9141
vn 0.6872 0.3346 0.6448
vn -0.6666 0.5671 -0.4837
vn -0.7023 -0.4708 -0.5339
vn 0.3269 -0.6879 0.6479
vn 0.3079 0.6876 0.6576
vn -0.5000 -0.0225 -0.8657
vn -0.1982 0.8770 -0.4377
vn -0.1840 -0.8744 -0.4490
vn -0.0782 -0.0996 -0.9919
vn -0.1861 -0.6352 -0.7495
vn 0.2246 0.9178 0.3272
vn 0.0661 -0.9925 0.1025
vn 0.3361 0.3435 0.8769
vn 0.4690 -0.3758 0.7992
vn -0.0353 -0.9793 0.1992
vn -0.0960 0.0600 -0.9936
vn -0.0819 -0.6865 -0.7224
vn 0.0553 0.4768 0.8772
vn 0.0768 0.9735 -0.2153
vn -0.0602 0.8954 -0.4411
vn 0.3905 -0.8600 -0.3283
vn -0.3035 -0.8872 0.3475
vn -0.7061 0.4473 0.5489
vn 0.7491 0.2143 -0.6268
vn 0.5962 -0.7761 -0.2053
vn 0.8469 0.4646 -0.2586
vn -0.3366 0.9116 0.2361
vn -0.7921 -0.2696 0.5476
vn 0.5716 0.6588 -0.4890
vn -0.1816 -0.9824 0.0444
vn -0.7985 0.1533 0.5822
vn -0.1797 0.9837 0.0004
vn 0.6779 -0.4418 -0.5875
vn -0.6158 0.6601 0.4302
vn 0.3449 0.0114 -0.9386
vn 0.0510 0.9965 -0.0658
vn 0.0700 -0.9971 0.0286
vn -0.4440 -0.4907 0.7497
vn -0.1824 0.3071 0.9340
vn -0.3881 -0.7645 0.5148
vn 0.3730 -0.7839 -0.4963
vn 0.6220 0.3187 -0.7152
vn 0.1238 -0.9865 -0.1065
vn -0.6547 0.6558 0.3759
vn 0.0717 0.9973 0.0135
vn -0.7318 -0.3425 0.5891
vn 0.7408 0.3042 -0.5989
vn -0.3823 0.2715 -0.8832
vn -0.2327 0.5433 -0.8066
vn -0.7575 -0.3631 0.5425
vn 0.7274 -0.1000 -0.6788
usemtl SVGMat.3781
s 1
f 1//1 5//2 4//3
f 6//4 8//5 5//2
f 2//6 9//7 6//4
f 7//8 12//9 3//10
f 8//5 11//11 7//8
f 9//7 13//12 8//5
f 13//12 15//13 11//11
f 15//13 18//14 7//8
f 18//14 16//15 12//9
f 16//15 14//16 9//7
f 13//12 20//17 15//13
f 13//12 19//18 20//17
f 19//18 24//19 20//17
f 13//12 21//20 19//18
f 14//16 22//21 13//12
f 17//22 22//21 14//16
f 18//14 23//23 17//22
f 20//17 26//24 18//14
f 21//20 24//19 19//18
f 24//19 29//25 26//24
f 21//20 27//26 24//19
f 22//21 27//26 21//20
f 26//24 28//27 25//28
f 31//29 32//30 30//31
f 31//29 33//32 32//30
f 29//25 35//33 28//27
f 33//32 36//34 29//25
f 35//33 37//35 28//27
f 35//33 38//36 37//35
f 34//37 40//38 33//32
f 37//35 41//39 34//37
f 38//36 41//39 37//35
f 33//32 42//40 36//34
f 42//40 43//41 39//42
f 40//38 46//43 42//40
f 38//36 45//44 41//39
f 43//41 45//44 38//36
f 45//44 47//45 44//46
f 47//45 53//47 46//43
f 45//44 48//48 47//45
f 43//41 50//49 45//44
f 46//43 49//50 43//41
f 48//48 54//51 53//47
f 50//49 51//52 48//48
f 51//52 58//53 54//51
f 50//49 56//54 51//52
f 53//47 59//55 52//56
f 54//51 57//57 53//47
f 57//57 60//58 59//55
f 55//59 62//60 58//53
f 60//58 61//61 59//55
f 61//61 63//62 56//54
f 58//53 60//58 57//57
f 62//60 66//63 58//53
f 55//59 64//64 62//60
f 63//62 64//64 55//59
f 63//62 67//65 64//64
f 67//65 68//66 65//67
f 63//62 69//68 67//65
f 61//61 70//69 63//62
f 68//66 73//70 66//63
f 71//71 72//72 70//69
f 72//72 69//68 70//69
f 74//73 75//74 68//66
f 77//75 76//76 72//72
f 74//73 78//77 75//74
f 69//68 79//78 74//73
f 76//76 79//78 69//68
f 75//74 80//79 73//70
f 78//77 80//79 75//74
f 79//78 81//80 78//77
f 81//80 82//81 80//79
f 76//76 83//82 79//78
f 82//81 85//83 80//79
f 77//75 84//84 76//76
f 77//75 86//85 84//84
f 85//83 86//85 77//75
f 82//81 91//86 85//83
f 88//87 92//88 82//81
f 90//89 93//90 89//91
f 92//88 95//92 91//86
f 94//93 96//94 90//89
f 88//87 95//92 92//88
f 93//90 97//95 88//87
f 97//95 99//96 95//92
f 93//90 98//97 97//95
f 96//94 100//98 93//90
f 99//96 94//93 95//92
f 94//93 101//99 96//94
f 101//99 100//98 96//94
f 100//98 102//100 98//97
f 99//96 105//101 94//93
f 104//102 103//103 100//98
f 98//97 106//104 99//96
f 102//100 106//104 98//97
f 104//102 107//105 103//103
f 102//100 110//106 106//104
f 103//103 111//107 102//100
f 107//105 111//107 103//103
f 106//104 112//108 105//101
f 110//106 112//108 106//104
f 109//109 113//110 107//105
f 112//108 109//109 105//101
f 112//108 115//111 109//109
f 110//106 116//112 112//108
f 111//107 114//113 110//106
f 114//113 121//114 116//112
f 115//111 119//115 118//116
f 116//112 120//117 115//111
f 121//114 3//10 120//117
f 3//10 2//6 119//115
f 122//118 4//3 121//114
f 2//6 6//4 118//116
f 6//4 1//1 122//118
f 1//1 6//4 5//2
f 4//3 7//8 3//10
f 4//3 5//2 7//8
f 5//2 8//5 7//8
f 3//10 10//119 2//6
f 6//4 9//7 8//5
f 3//10 12//9 10//119
f 2//6 10//119 9//7
f 10//119 12//9 9//7
f 8//5 13//12 11//11
f 9//7 14//16 13//12
f 11//11 15//13 7//8
f 12//9 16//15 9//7
f 7//8 18//14 12//9
f 16//15 17//22 14//16
f 16//15 18//14 17//22
f 15//13 20//17 18//14
f 13//12 22//21 21//20
f 17//22 23//23 22//21
f 18//14 26//24 23//23
f 20//17 24//19 26//24
f 23//23 25//28 22//21
f 23//23 26//24 25//28
f 24//19 27//26 30//31
f 25//28 28//27 22//21
f 24//19 30//31 29//25
f 22//21 31//29 27//26
f 22//21 28//27 31//29
f 26//24 29//25 28//27
f 27//26 31//29 30//31
f 30//31 32//30 29//25
f 31//29 34//37 33//32
f 32//30 33//32 29//25
f 29//25 36//34 35//33
f 28//27 37//35 31//29
f 31//29 37//35 34//37
f 36//34 39//42 35//33
f 35//33 39//42 38//36
f 33//32 40//38 42//40
f 34//37 41//39 40//38
f 36//34 42//40 39//42
f 41//39 44//46 40//38
f 39//42 43//41 38//36
f 40//38 44//46 46//43
f 41//39 45//44 44//46
f 42//40 46//43 43//41
f 44//46 47//45 46//43
f 47//45 48//48 53//47
f 43//41 49//50 50//49
f 45//44 50//49 48//48
f 46//43 53//47 49//50
f 48//48 51//52 54//51
f 49//50 52//56 50//49
f 49//50 53//47 52//56
f 51//52 55//59 58//53
f 51//52 56//54 55//59
f 52//56 59//55 50//49
f 53//47 57//57 59//55
f 54//51 58//53 57//57
f 50//49 59//55 56//54
f 59//55 61//61 56//54
f 56//54 63//62 55//59
f 58//53 66//63 60//58
f 62//60 64//64 65//67
f 62//60 65//67 66//63
f 60//58 66//63 61//61
f 64//64 67//65 65//67
f 67//65 69//68 68//66
f 63//62 70//69 69//68
f 65//67 68//66 66//63
f 66//63 71//71 61//61
f 61//61 71//71 70//69
f 66//63 73//70 71//71
f 71//71 73//70 72//72
f 69//68 74//73 68//66
f 68//66 75//74 73//70
f 72//72 76//76 69//68
f 73//70 77//75 72//72
f 74//73 79//78 78//77
f 73//70 80//79 77//75
f 78//77 81//80 80//79
f 79//78 87//120 81//80
f 79//78 83//82 87//120
f 76//76 84//84 83//82
f 80//79 85//83 77//75
f 84//84 86//85 83//82
f 81//80 87//120 82//81
f 83//82 89//91 87//120
f 85//83 91//86 86//85
f 86//85 90//89 83//82
f 87//120 88//87 82//81
f 87//120 89//91 88//87
f 83//82 90//89 89//91
f 86//85 91//86 90//89
f 82//81 92//88 91//86
f 89//91 93//90 88//87
f 91//86 94//93 90//89
f 91//86 95//92 94//93
f 90//89 96//94 93//90
f 88//87 97//95 95//92
f 97//95 98//97 99//96
f 93//90 100//98 98//97
f 100//98 103//103 102//100
f 101//99 104//102 100//98
f 94//93 105//101 101//99
f 101//99 105//101 104//102
f 99//96 106//104 105//101
f 105//101 108//121 104//102
f 104//102 108//121 107//105
f 108//121 109//109 107//105
f 108//121 105//101 109//109
f 102//100 111//107 110//106
f 107//105 113//110 111//107
f 109//109 115//111 113//110
f 113//110 118//116 111//107
f 110//106 114//113 116//112
f 111//107 118//116 114//113
f 113//110 115//111 118//116
f 112//108 116//112 115//111
f 114//113 117//122 121//114
f 114//113 118//116 117//122
f 115//111 120//117 119//115
f 116//112 121//114 120//117
f 120//117 3//10 119//115
f 118//116 122//118 117//122
f 117//122 122//118 121//114
f 119//115 2//6 118//116
f 118//116 6//4 122//118
f 121//114 4//3 3//10
f 122//118 1//1 4//3
