# Blender v2.79 (sub 0) OBJ File: 'world_countrycodes_export2.blend'
# www.blender.org
mtllib BG.mtl
o BG.002_CUCurve.1808
v 1.110898 0.000000 0.380332
v 1.108165 0.000000 0.380568
v 1.106504 0.000000 0.381037
v 1.105211 0.000000 0.381579
v 1.104564 0.000000 0.382191
v 1.103699 0.000000 0.382762
v 1.102455 0.000000 0.383204
v 1.101426 0.000000 0.383301
v 1.097621 0.000000 0.383073
v 1.094432 0.000000 0.383150
v 1.089622 0.000000 0.382430
v 1.088732 0.000000 0.382435
v 1.087189 0.000000 0.380961
v 1.086363 0.000000 0.380431
v 1.085849 0.000000 0.380319
v 1.085353 0.000000 0.380829
v 1.084946 0.000000 0.381263
v 1.084579 0.000000 0.381972
v 1.084465 0.000000 0.382761
v 1.084526 0.000000 0.383310
v 1.084748 0.000000 0.383948
v 1.085148 0.000000 0.384505
v 1.086155 0.000000 0.385530
v 1.087310 0.000000 0.387304
v 1.087487 0.000000 0.388128
v 1.087347 0.000000 0.388331
v 1.086687 0.000000 0.388489
v 1.086003 0.000000 0.388907
v 1.085472 0.000000 0.389594
v 1.085278 0.000000 0.390316
v 1.085069 0.000000 0.392832
v 1.085217 0.000000 0.393423
v 1.086851 0.000000 0.395054
v 1.088182 0.000000 0.396598
v 1.088531 0.000000 0.397544
v 1.089407 0.000000 0.398322
v 1.089526 0.000000 0.398686
v 1.093323 0.000000 0.398413
v 1.096965 0.000000 0.398671
v 1.100122 0.000000 0.399390
v 1.103010 0.000000 0.399691
v 1.104012 0.000000 0.399637
v 1.105048 0.000000 0.399271
v 1.105412 0.000000 0.398757
v 1.105292 0.000000 0.398034
v 1.105701 0.000000 0.397625
v 1.106480 0.000000 0.397320
v 1.108163 0.000000 0.397058
v 1.107949 0.000000 0.396203
v 1.107980 0.000000 0.395623
v 1.109332 0.000000 0.395261
v 1.110990 0.000000 0.395142
v 1.112649 0.000000 0.395261
v 1.114090 0.000000 0.395603
v 1.114815 0.000000 0.395664
v 1.115596 0.000000 0.395438
v 1.116103 0.000000 0.395095
v 1.115785 0.000000 0.394162
v 1.115495 0.000000 0.393802
v 1.115012 0.000000 0.393576
v 1.114254 0.000000 0.392478
v 1.113758 0.000000 0.390852
v 1.113735 0.000000 0.389977
v 1.113924 0.000000 0.389597
v 1.114544 0.000000 0.389280
v 1.115238 0.000000 0.388507
v 1.116727 0.000000 0.386351
v 1.117631 0.000000 0.385297
v 1.118446 0.000000 0.384708
v 1.119184 0.000000 0.384430
v 1.119647 0.000000 0.383942
v 1.119861 0.000000 0.383396
v 1.118047 0.000000 0.382758
v 1.116446 0.000000 0.381811
v 1.116091 0.000000 0.381440
v 1.114577 0.000000 0.380868
v 1.086851 0.050000 0.395054
v 1.088182 0.050000 0.396598
v 1.085069 0.050000 0.392832
v 1.114254 0.050000 0.392478
v 1.116103 0.050000 0.395095
v 1.085472 0.050000 0.389594
v 1.085278 0.050000 0.390316
v 1.084748 0.050000 0.383948
v 1.119184 0.050000 0.384430
v 1.114577 0.050000 0.380868
v 1.110898 0.050000 0.380332
v 1.093323 0.050000 0.398413
v 1.105412 0.050000 0.398757
v 1.088531 0.050000 0.397544
v 1.108163 0.050000 0.397058
v 1.094432 0.050000 0.383150
v 1.089622 0.050000 0.382430
v 1.108165 0.050000 0.380568
v 1.106504 0.050000 0.381037
v 1.105292 0.050000 0.398034
v 1.088732 0.050000 0.382435
v 1.084465 0.050000 0.382761
v 1.119647 0.050000 0.383942
v 1.084946 0.050000 0.381263
v 1.084579 0.050000 0.381972
v 1.107980 0.050000 0.395623
v 1.116727 0.050000 0.386351
v 1.117631 0.050000 0.385297
v 1.085148 0.050000 0.384505
v 1.085217 0.050000 0.393423
v 1.115495 0.050000 0.393802
v 1.087189 0.050000 0.380961
v 1.085353 0.050000 0.380829
v 1.096965 0.050000 0.398671
v 1.100122 0.050000 0.399390
v 1.115785 0.050000 0.394162
v 1.114544 0.050000 0.389280
v 1.115238 0.050000 0.388507
v 1.113758 0.050000 0.390852
v 1.113735 0.050000 0.389977
v 1.105701 0.050000 0.397625
v 1.110990 0.050000 0.395142
v 1.109332 0.050000 0.395261
v 1.105048 0.050000 0.399271
v 1.119861 0.050000 0.383396
v 1.112649 0.050000 0.395261
v 1.086003 0.050000 0.388907
v 1.084526 0.050000 0.383310
v 1.107949 0.050000 0.396203
v 1.106480 0.050000 0.397320
v 1.086155 0.050000 0.385530
v 1.087310 0.050000 0.387304
v 1.102455 0.050000 0.383204
v 1.116091 0.050000 0.381440
v 1.089407 0.050000 0.398322
v 1.105211 0.050000 0.381579
v 1.104564 0.050000 0.382191
v 1.114090 0.050000 0.395603
v 1.115596 0.050000 0.395438
v 1.087347 0.050000 0.388331
v 1.118047 0.050000 0.382758
v 1.104012 0.050000 0.399637
v 1.101426 0.050000 0.383301
v 1.118446 0.050000 0.384708
v 1.116446 0.050000 0.381811
v 1.086687 0.050000 0.388489
v 1.113924 0.050000 0.389597
v 1.103699 0.050000 0.382762
v 1.087487 0.050000 0.388128
v 1.114815 0.050000 0.395664
v 1.085849 0.050000 0.380319
v 1.103010 0.050000 0.399691
v 1.086363 0.050000 0.380431
v 1.115012 0.050000 0.393576
v 1.089526 0.050000 0.398686
v 1.097621 0.050000 0.383073
vn 0.0000 -1.0000 0.0000
vn 0.0000 1.0000 -0.0000
vn 0.0000 1.0000 0.0001
vn 0.0000 1.0000 -0.0001
vn -0.5503 0.0000 -0.8349
vn 0.7591 0.0000 0.6510
vn -0.3863 0.0000 -0.9224
vn 0.2122 0.0000 -0.9772
vn 0.9701 0.0000 -0.2428
vn -0.9897 0.0000 -0.1429
vn 0.1537 0.0000 0.9881
vn -0.2336 0.0000 -0.9723
vn -0.8121 0.0000 0.5836
vn -0.5208 0.0000 -0.8537
vn 0.7227 0.0000 -0.6912
vn -0.8381 0.0000 0.5455
vn -0.9704 0.0000 0.2417
vn 0.4552 0.0000 0.8904
vn -0.0705 0.0000 0.9975
vn -0.2308 0.0000 0.9730
vn -0.8237 0.0000 -0.5670
vn 0.7788 0.0000 -0.6272
vn -0.2222 0.0000 0.9750
vn 0.8945 0.0000 0.4470
vn -0.3348 0.0000 -0.9423
vn 0.9465 0.0000 -0.3226
vn 0.5408 0.0000 -0.8412
vn 0.8228 0.0000 -0.5683
vn 0.9986 0.0000 0.0529
vn 0.3649 0.0000 0.9311
vn 0.0717 0.0000 0.9974
vn 0.7446 0.0000 0.6675
vn -0.7915 0.0000 -0.6111
vn -0.7573 0.0000 0.6531
vn 0.8164 0.0000 0.5774
vn -0.9383 0.0000 0.3458
vn -0.6875 0.0000 -0.7262
vn 0.9565 0.0000 -0.2918
vn 0.8227 0.0000 0.5685
vn 0.3525 0.0000 0.9358
vn -0.9657 0.0000 -0.2597
vn -0.0240 0.0000 -0.9997
vn 0.5090 0.0000 -0.8608
vn 0.3322 0.0000 -0.9432
vn -0.9938 0.0000 0.1110
vn -0.7064 0.0000 0.7078
vn 0.2584 0.0000 0.9660
vn 0.1441 0.0000 -0.9896
vn -0.0717 0.0000 0.9974
vn -0.7287 0.0000 -0.6849
vn -0.9777 0.0000 0.2101
vn -0.7133 0.0000 0.7008
vn 0.5614 0.0000 0.8276
vn 0.9308 0.0000 0.3656
vn 0.1479 0.0000 -0.9890
vn 0.7068 0.0000 0.7074
vn 0.3334 0.0000 0.9428
vn -0.2720 0.0000 -0.9623
vn -0.1034 0.0000 0.9946
vn -0.6643 0.0000 0.7474
vn 0.9997 0.0000 -0.0263
vn 0.9866 0.0000 -0.1629
vn 0.3531 0.0000 -0.9356
vn -0.0839 0.0000 0.9965
vn -0.0057 0.0000 -1.0000
vn 0.0598 0.0000 -0.9982
vn -0.0859 0.0000 -0.9963
vn 0.6908 0.0000 -0.7231
vn 0.4244 0.0000 -0.9055
vn 0.7259 0.0000 0.6878
vn -0.7175 0.0000 -0.6965
vn -0.9445 0.0000 0.3285
vn -0.9504 0.0000 0.3111
vn -0.0944 0.0000 -0.9955
vn 0.0533 0.0000 0.9986
vn 0.5859 0.0000 0.8104
vn 0.2771 0.0000 0.9608
vn -0.8879 0.0000 -0.4600
vn -0.9966 0.0000 -0.0826
usemtl SVGMat.3781
s off
f 15//1 14//1 13//1
f 2//1 1//1 76//1
f 16//1 15//1 13//1
f 3//1 2//1 76//1
f 17//1 16//1 13//1
f 3//1 76//1 75//1
f 4//1 3//1 75//1
f 18//1 17//1 13//1
f 18//1 13//1 12//1
f 4//1 75//1 74//1
f 5//1 4//1 74//1
f 5//1 74//1 73//1
f 6//1 5//1 73//1
f 19//1 18//1 12//1
f 19//1 12//1 11//1
f 19//1 11//1 10//1
f 7//1 6//1 73//1
f 20//1 19//1 10//1
f 7//1 73//1 72//1
f 10//1 9//1 8//1
f 20//1 10//1 8//1
f 8//1 7//1 72//1
f 20//1 8//1 72//1
f 21//1 20//1 72//1
f 21//1 72//1 71//1
f 21//1 71//1 70//1
f 22//1 21//1 70//1
f 22//1 70//1 69//1
f 23//1 22//1 69//1
f 23//1 69//1 68//1
f 23//1 68//1 67//1
f 24//1 23//1 67//1
f 24//1 67//1 66//1
f 25//1 24//1 66//1
f 26//1 25//1 66//1
f 27//1 26//1 66//1
f 28//1 27//1 66//1
f 28//1 66//1 65//1
f 29//1 28//1 65//1
f 29//1 65//1 64//1
f 29//1 64//1 63//1
f 30//1 29//1 63//1
f 30//1 63//1 62//1
f 30//1 62//1 61//1
f 31//1 30//1 61//1
f 31//1 61//1 60//1
f 32//1 31//1 60//1
f 32//1 60//1 59//1
f 33//1 32//1 59//1
f 33//1 59//1 58//1
f 33//1 58//1 57//1
f 33//1 57//1 52//1
f 33//1 52//1 51//1
f 53//1 52//1 57//1
f 53//1 57//1 56//1
f 33//1 51//1 50//1
f 54//1 53//1 56//1
f 34//1 33//1 50//1
f 54//1 56//1 55//1
f 34//1 50//1 49//1
f 34//1 49//1 48//1
f 35//1 34//1 48//1
f 35//1 48//1 47//1
f 35//1 47//1 46//1
f 35//1 46//1 45//1
f 36//1 35//1 45//1
f 36//1 45//1 38//1
f 38//1 45//1 44//1
f 37//1 36//1 38//1
f 39//1 38//1 44//1
f 39//1 44//1 43//1
f 40//1 39//1 43//1
f 40//1 43//1 42//1
f 41//1 40//1 42//1
f 147//2 108//2 149//2
f 94//2 86//2 87//2
f 109//2 108//2 147//2
f 95//2 86//2 94//2
f 100//2 108//2 109//2
f 95//2 130//2 86//2
f 132//2 130//2 95//2
f 101//2 108//2 100//2
f 101//2 97//2 108//2
f 132//2 141//2 130//2
f 133//2 141//2 132//2
f 133//2 137//2 141//2
f 144//2 137//2 133//2
f 98//2 97//2 101//2
f 98//3 93//3 97//3
f 98//2 92//2 93//2
f 129//2 137//2 144//2
f 124//2 92//2 98//2
f 129//2 121//2 137//2
f 92//2 139//2 152//2
f 124//2 139//2 92//2
f 139//2 121//2 129//2
f 124//4 121//4 139//4
f 84//2 121//2 124//2
f 84//2 99//2 121//2
f 84//2 85//2 99//2
f 105//2 85//2 84//2
f 105//2 140//2 85//2
f 127//2 140//2 105//2
f 127//2 104//2 140//2
f 127//2 103//2 104//2
f 128//2 103//2 127//2
f 128//2 114//2 103//2
f 145//2 114//2 128//2
f 136//2 114//2 145//2
f 142//4 114//4 136//4
f 123//2 114//2 142//2
f 123//2 113//2 114//2
f 82//2 113//2 123//2
f 82//2 143//2 113//2
f 82//2 116//2 143//2
f 83//2 116//2 82//2
f 83//2 115//2 116//2
f 83//2 80//2 115//2
f 79//2 80//2 83//2
f 79//2 150//2 80//2
f 106//2 150//2 79//2
f 106//2 107//2 150//2
f 77//2 107//2 106//2
f 77//2 112//2 107//2
f 77//2 81//2 112//2
f 77//2 118//2 81//2
f 77//2 119//2 118//2
f 122//2 81//2 118//2
f 122//2 135//2 81//2
f 77//2 102//2 119//2
f 134//2 135//2 122//2
f 78//2 102//2 77//2
f 134//2 146//2 135//2
f 78//2 125//2 102//2
f 78//2 91//2 125//2
f 90//2 91//2 78//2
f 90//2 126//2 91//2
f 90//2 117//2 126//2
f 90//2 96//2 117//2
f 131//2 96//2 90//2
f 131//2 88//2 96//2
f 88//2 89//2 96//2
f 151//2 88//2 131//2
f 110//2 89//2 88//2
f 110//2 120//2 89//2
f 111//2 120//2 110//2
f 111//2 138//2 120//2
f 148//2 138//2 111//2
f 5//5 6//5 144//5 133//5
f 67//6 68//6 104//6 103//6
f 3//7 4//7 132//7 95//7
f 14//8 15//8 147//8 149//8
f 48//9 49//9 125//9 91//9
f 18//10 19//10 98//10 101//10
f 47//11 48//11 91//11 126//11
f 26//12 27//12 142//12 136//12
f 21//13 22//13 105//13 84//13
f 27//14 28//14 123//14 142//14
f 74//15 75//15 130//15 141//15
f 23//16 24//16 128//16 127//16
f 31//17 32//17 106//17 79//17
f 64//18 65//18 113//18 143//18
f 38//19 39//19 110//19 88//19
f 53//20 54//20 134//20 122//20
f 25//21 26//21 136//21 145//21
f 58//22 59//22 107//22 112//22
f 39//23 40//23 111//23 110//23
f 63//24 64//24 143//24 116//24
f 6//25 7//25 129//25 144//25
f 57//26 58//26 112//26 81//26
f 13//27 14//27 149//27 108//27
f 60//28 61//28 80//28 150//28
f 49//29 50//29 102//29 125//29
f 46//30 47//30 126//30 117//30
f 37//31 38//31 88//31 151//31
f 65//32 66//32 114//32 113//32
f 28//33 29//33 82//33 123//33
f 33//34 34//34 78//34 77//34
f 43//35 44//35 89//35 120//35
f 34//36 35//36 90//36 78//36
f 4//37 5//37 133//37 132//37
f 61//38 62//38 115//38 80//38
f 51//31 52//31 118//31 119//31
f 66//39 67//39 103//39 114//39
f 69//40 70//40 85//40 140//40
f 29//41 30//41 83//41 82//41
f 9//42 10//42 92//42 152//42
f 73//43 74//43 141//43 137//43
f 72//44 73//44 137//44 121//44
f 19//45 20//45 124//45 98//45
f 32//46 33//46 77//46 106//46
f 50//47 51//47 119//47 102//47
f 76//48 1//48 87//48 86//48
f 52//49 53//49 122//49 118//49
f 16//50 17//50 100//50 109//50
f 24//51 25//51 145//51 128//51
f 22//52 23//52 127//52 105//52
f 56//53 57//53 81//53 135//53
f 71//54 72//54 121//54 99//54
f 10//55 11//55 93//55 92//55
f 45//56 46//56 117//56 96//56
f 42//57 43//57 120//57 138//57
f 2//58 3//58 95//58 94//58
f 40//59 41//59 148//59 111//59
f 35//60 36//60 131//60 90//60
f 62//61 63//61 116//61 115//61
f 44//62 45//62 96//62 89//62
f 75//63 76//63 86//63 130//63
f 54//64 55//64 146//64 134//64
f 11//65 12//65 97//65 93//65
f 8//66 9//66 152//66 139//66
f 1//67 2//67 94//67 87//67
f 12//68 13//68 108//68 97//68
f 59//69 60//69 150//69 107//69
f 70//70 71//70 99//70 85//70
f 15//71 16//71 109//71 147//71
f 20//72 21//72 84//72 124//72
f 36//73 37//73 151//73 131//73
f 7//74 8//74 139//74 129//74
f 41//75 42//75 138//75 148//75
f 68//76 69//76 140//76 104//76
f 55//77 56//77 135//77 146//77
f 17//78 18//78 101//78 100//78
f 30//79 31//79 79//79 83//79
