# Blender v2.79 (sub 0) OBJ File: 'world_countrycodes_export2.blend'
# www.blender.org
mtllib BI.mtl
o BI.002_CUCurve.1728
v 1.122328 0.000000 0.672109
v 1.122770 0.000000 0.673823
v 1.123129 0.000000 0.675556
v 1.123296 0.000000 0.676554
v 1.124380 0.000000 0.675862
v 1.125990 0.000000 0.674998
v 1.126577 0.000000 0.674443
v 1.127257 0.000000 0.673611
v 1.128679 0.000000 0.671473
v 1.130383 0.000000 0.668459
v 1.128919 0.000000 0.667586
v 1.128943 0.000000 0.666328
v 1.128818 0.000000 0.665207
v 1.128687 0.000000 0.664601
v 1.126917 0.000000 0.664647
v 1.126038 0.000000 0.664593
v 1.126013 0.000000 0.665084
v 1.125853 0.000000 0.665584
v 1.125467 0.000000 0.666061
v 1.124962 0.000000 0.666317
v 1.124498 0.000000 0.666417
v 1.123919 0.000000 0.666431
v 1.122451 0.000000 0.666240
v 1.121714 0.000000 0.666173
v 1.121341 0.000000 0.666171
v 1.121320 0.000000 0.666171
v 1.121363 0.000000 0.666171
v 1.121884 0.000000 0.670650
v 1.127257 0.050000 0.673611
v 1.128679 0.050000 0.671473
v 1.126013 0.050000 0.665084
v 1.125853 0.050000 0.665584
v 1.128818 0.050000 0.665207
v 1.128687 0.050000 0.664601
v 1.123919 0.050000 0.666431
v 1.122451 0.050000 0.666240
v 1.122770 0.050000 0.673823
v 1.125990 0.050000 0.674998
v 1.123129 0.050000 0.675556
v 1.130383 0.050000 0.668459
v 1.121884 0.050000 0.670650
v 1.128943 0.050000 0.666328
v 1.125467 0.050000 0.666061
v 1.126917 0.050000 0.664647
v 1.122328 0.050000 0.672109
v 1.124962 0.050000 0.666317
v 1.126038 0.050000 0.664593
v 1.123296 0.050000 0.676554
v 1.124498 0.050000 0.666417
v 1.121714 0.050000 0.666173
v 1.121341 0.050000 0.666171
v 1.126577 0.050000 0.674443
v 1.121320 0.050000 0.666171
v 1.124380 0.050000 0.675862
v 1.128919 0.050000 0.667586
v 1.121363 0.050000 0.666171
vn 0.0000 -1.0000 0.0000
vn 0.0000 1.0000 0.0000
vn 0.0000 1.0000 -0.0001
vn -0.9863 0.0000 0.1651
vn -0.9793 0.0000 0.2023
vn -0.0240 0.0000 -0.9997
vn 0.5120 0.0000 -0.8590
vn -0.2099 0.0000 -0.9777
vn -0.4523 0.0000 -0.8919
vn 0.0904 0.0000 -0.9959
vn 0.0052 0.0000 -1.0000
vn -0.9568 0.0000 0.2909
vn -0.9988 0.0000 -0.0497
vn 0.9938 0.0000 -0.1113
vn 0.7747 0.0000 0.6323
vn -0.0256 0.0000 -0.9997
vn 0.6867 0.0000 0.7269
vn -0.9682 0.0000 0.2500
vn 0.9998 0.0000 0.0197
vn -0.7777 0.0000 -0.6286
vn 0.8705 0.0000 0.4921
vn 0.8325 0.0000 0.5540
vn 0.0000 0.0000 -1.0000
vn -0.9521 0.0000 -0.3059
vn 0.5378 0.0000 0.8430
vn 0.9774 0.0000 -0.2114
vn -0.9993 0.0000 0.0381
vn 0.0000 0.0000 1.0000
vn 0.1288 0.0000 -0.9917
vn 0.4729 0.0000 0.8811
vn 0.0608 0.0000 -0.9982
usemtl SVGMat.3781
s off
f 15//1 14//1 13//1
f 16//1 15//1 13//1
f 17//1 16//1 13//1
f 18//1 17//1 13//1
f 18//1 13//1 12//1
f 19//1 18//1 12//1
f 20//1 19//1 12//1
f 28//1 24//1 23//1
f 21//1 20//1 12//1
f 28//1 23//1 22//1
f 22//1 21//1 12//1
f 28//1 22//1 12//1
f 28//1 12//1 11//1
f 28//1 11//1 10//1
f 28//1 10//1 9//1
f 1//1 28//1 9//1
f 1//1 9//1 8//1
f 2//1 1//1 8//1
f 2//1 8//1 7//1
f 2//1 7//1 6//1
f 3//1 2//1 6//1
f 3//1 6//1 5//1
f 4//1 3//1 5//1
f 44//2 33//2 34//2
f 47//2 33//2 44//2
f 31//2 33//2 47//2
f 32//2 33//2 31//2
f 32//2 42//2 33//2
f 43//2 42//2 32//2
f 46//2 42//2 43//2
f 41//2 36//2 50//2
f 49//3 42//3 46//3
f 41//2 35//2 36//2
f 35//2 42//2 49//2
f 41//2 42//2 35//2
f 41//2 55//2 42//2
f 41//2 40//2 55//2
f 41//2 30//2 40//2
f 45//2 30//2 41//2
f 45//2 29//2 30//2
f 37//2 29//2 45//2
f 37//2 52//2 29//2
f 37//2 38//2 52//2
f 39//2 38//2 37//2
f 39//2 54//2 38//2
f 48//2 54//2 39//2
f 3//4 4//4 48//4 39//4
f 2//5 3//5 39//5 37//5
f 21//6 22//6 35//6 49//6
f 10//7 11//7 55//7 40//7
f 20//8 21//8 49//8 46//8
f 19//9 20//9 46//9 43//9
f 23//10 24//10 50//10 36//10
f 24//11 25//11 51//11 50//11
f 28//12 1//12 45//12 41//12
f 16//13 17//13 31//13 47//13
f 12//14 13//14 33//14 42//14
f 7//15 8//15 29//15 52//15
f 14//16 15//16 44//16 34//16
f 6//17 7//17 52//17 38//17
f 1//18 2//18 37//18 45//18
f 11//19 12//19 42//19 55//19
f 18//20 19//20 43//20 32//20
f 9//21 10//21 40//21 30//21
f 8//22 9//22 30//22 29//22
f 25//23 26//23 53//23 51//23
f 17//24 18//24 32//24 31//24
f 4//25 5//25 54//25 48//25
f 13//26 14//26 34//26 33//26
f 24//27 28//27 41//27 50//27
f 25//28 27//28 56//28 51//28
f 22//29 23//29 36//29 35//29
f 5//30 6//30 38//30 54//30
f 15//31 16//31 47//31 44//31
