# Blender v2.79 (sub 0) OBJ File: 'world_countrycodes_outlines2.blend'
# www.blender.org
mtllib BJ_outline.mtl
o BJ.001_CUCurve.1691
v 0.978102 -0.000810 0.609173
v 0.977629 0.001390 0.609278
v 0.973965 0.001140 0.608021
v 0.982529 0.000007 0.619879
v 0.977119 0.002017 0.613476
v 0.977274 0.001453 0.611299
v 0.977119 -0.000736 0.610685
v 0.976969 -0.001108 0.614991
v 0.975193 0.000734 0.616195
v 0.972246 0.001215 0.613316
v 0.972326 -0.000685 0.612768
v 0.969306 -0.001912 0.615770
v 0.968673 0.001478 0.616736
v 0.967016 -0.000057 0.598531
v 0.969181 0.002013 0.594107
v 0.970408 -0.001396 0.597359
v 0.968206 -0.001982 0.594737
v 0.967599 -0.001450 0.598312
v 0.970930 0.000780 0.597309
v 0.966937 0.001234 0.595750
v 0.970319 -0.000794 0.593102
v 0.963945 0.002005 0.589371
v 0.964270 -0.001903 0.592301
v 0.963222 0.000711 0.592713
v 0.965871 0.001288 0.589976
v 0.966481 -0.000740 0.589982
v 0.964132 -0.001988 0.587612
v 0.962480 0.000697 0.586278
v 0.966205 0.001320 0.585361
v 0.968854 -0.000703 0.587914
v 0.968169 0.002001 0.586718
v 0.967279 -0.000700 0.584124
v 0.975546 0.001937 0.584266
v 0.972705 0.000812 0.583139
v 0.973666 0.000807 0.587026
v 0.973796 -0.001974 0.585675
v 0.973127 -0.001383 0.583331
v 0.976781 -0.000583 0.584417
v 0.976354 0.000819 0.581902
v 0.976338 -0.001881 0.580637
v 0.974732 -0.001927 0.579419
v 0.973180 -0.000011 0.579162
v 0.974372 0.001881 0.579461
v 0.976879 -0.000771 0.577754
v 0.977129 0.001883 0.578907
v 0.979751 0.000752 0.580657
v 0.977193 0.001896 0.582751
v 0.976923 -0.000931 0.584017
v 0.982455 0.000008 0.581413
v 0.980408 0.002126 0.583308
v 0.978954 -0.000829 0.584724
v 0.979874 -0.001734 0.581726
v 0.982930 -0.001410 0.592915
v 0.983194 0.000936 0.593368
v 0.979221 0.000005 0.592624
v 0.980252 -0.001961 0.593436
v 0.980268 0.001959 0.593450
v 0.978054 0.000053 0.601242
v 0.974143 -0.000638 0.599867
v 0.976654 -0.001947 0.598346
v 0.977522 -0.001372 0.601048
v 0.976984 0.001907 0.600926
v 0.974689 0.001462 0.600174
v 0.976889 -0.001992 0.612882
v 0.973934 -0.000884 0.608736
vn 0.8481 0.5158 -0.1206
vn 0.5819 0.0056 0.8132
vn 0.9299 -0.3409 -0.1379
vn 0.1119 0.9752 0.1911
vn -0.8307 -0.3947 0.3926
vn -0.9265 0.3589 0.1130
vn -0.8130 0.5303 0.2405
vn 0.0757 -0.9962 -0.0414
vn 0.3179 0.2700 0.9088
vn -0.0542 -0.5866 0.8080
vn 0.0991 0.9306 -0.3522
vn -0.9109 -0.3961 -0.1151
vn 0.2850 -0.7297 -0.6216
vn -0.4358 -0.7513 0.4956
vn -0.5600 0.4651 0.6856
vn -0.9856 -0.1672 0.0241
vn -0.7877 -0.6161 0.0020
vn 0.4101 0.8823 -0.2311
vn 0.7087 -0.7022 -0.0680
vn 0.9441 0.3068 -0.1209
vn -0.1342 -0.9909 0.0064
vn 0.8034 -0.3173 -0.5039
vn -0.7686 0.5592 0.3106
vn -0.4690 -0.8457 0.2546
vn -0.3396 0.9403 0.0222
vn -0.8478 0.2513 0.4669
vn 0.6184 0.7802 -0.0940
vn 0.7063 -0.7077 -0.0162
vn -0.4221 -0.8806 -0.2155
vn -0.7898 0.1502 -0.5947
vn -0.3877 0.6104 -0.6906
vn 0.3529 -0.2749 0.8943
vn 0.1267 0.9692 0.2110
vn -0.3815 -0.3445 -0.8577
vn 0.2270 -0.8661 0.4452
vn -0.5549 0.6002 -0.5760
vn -0.5419 -0.7667 -0.3440
vn 0.4660 0.8572 0.2189
vn 0.3876 0.2967 0.8727
vn 0.8934 -0.2125 0.3958
vn -0.0603 0.9777 0.2011
vn 0.1331 -0.9890 -0.0640
vn -0.2953 -0.8522 -0.4320
vn -0.7979 -0.0242 -0.6023
vn 0.2001 0.8205 -0.5354
vn -0.3314 0.8423 -0.4251
vn 0.1987 -0.3071 -0.9307
vn 0.5263 0.4614 -0.7142
vn -0.4089 0.8260 0.3880
vn 0.0893 0.9951 -0.0411
vn -0.5820 -0.3601 0.7291
vn -0.8638 -0.3253 0.3847
vn 0.7960 -0.0253 -0.6048
vn 0.7530 -0.6385 0.1590
vn 0.2951 -0.9038 -0.3097
vn -0.9716 0.0384 -0.2335
vn -0.2070 0.9751 -0.0792
vn -0.2386 -0.9684 -0.0727
vn 0.9486 0.0997 0.3004
vn 0.7071 -0.6942 0.1342
vn -0.9038 -0.3265 -0.2768
vn 0.3017 0.9464 0.1147
vn 0.8614 0.4508 0.2341
vn -0.6894 0.6858 -0.2332
vn -0.2716 -0.9497 -0.1559
usemtl SVGMat.3781
s 1
f 2//1 4//2 1//3
f 5//4 4//2 2//1
f 65//5 7//6 3//7
f 64//8 7//6 65//5
f 5//4 9//9 8//10
f 7//6 10//11 6//12
f 64//8 11//13 7//6
f 9//9 12//14 8//10
f 10//11 13//15 5//4
f 8//10 12//14 64//8
f 14//16 18//17 12//14
f 10//11 15//18 13//15
f 12//14 16//19 11//13
f 11//13 19//20 10//11
f 16//19 19//20 11//13
f 14//16 17//21 18//17
f 16//19 21//22 19//20
f 17//21 21//22 16//19
f 20//23 23//24 17//21
f 22//25 24//26 20//23
f 21//22 25//27 15//18
f 23//24 26//28 21//22
f 24//26 27//29 23//24
f 22//25 28//30 24//26
f 22//25 29//31 28//30
f 27//29 30//32 26//28
f 25//27 31//33 22//25
f 30//32 31//33 25//27
f 32//34 36//35 27//29
f 29//31 34//36 32//34
f 34//36 37//37 32//34
f 33//38 34//36 29//31
f 30//32 35//39 31//33
f 36//35 35//39 30//32
f 36//35 38//40 35//39
f 38//40 39//41 33//38
f 36//35 40//42 38//40
f 37//37 41//43 36//35
f 42//44 41//43 37//37
f 39//41 45//45 43//46
f 42//44 44//47 41//43
f 43//46 44//47 42//44
f 44//47 40//42 41//43
f 45//45 46//48 44//47
f 39//41 47//49 45//45
f 47//49 50//50 46//48
f 48//51 50//50 47//49
f 40//42 51//52 48//51
f 49//53 53//54 52//55
f 55//56 57//57 50//50
f 52//55 56//58 51//52
f 53//54 56//58 52//55
f 58//59 61//60 53//54
f 56//58 59//61 55//56
f 57//57 62//62 54//63
f 59//61 63//64 57//57
f 63//64 62//62 57//57
f 61//60 60//65 56//58
f 63//64 5//4 62//62
f 61//60 64//8 60//65
f 58//59 1//3 61//60
f 64//8 65//5 59//61
f 62//62 1//3 58//59
f 5//4 2//1 62//62
f 65//5 3//7 63//64
f 1//3 4//2 64//8
f 4//2 5//4 8//10
f 3//7 6//12 5//4
f 3//7 7//6 6//12
f 4//2 8//10 64//8
f 6//12 10//11 5//4
f 7//6 11//13 10//11
f 5//4 13//15 9//9
f 64//8 12//14 11//13
f 9//9 13//15 12//14
f 13//15 14//16 12//14
f 13//15 20//23 14//16
f 13//15 15//18 20//23
f 12//14 17//21 16//19
f 12//14 18//17 17//21
f 10//11 19//20 15//18
f 14//16 20//23 17//21
f 19//20 21//22 15//18
f 15//18 22//25 20//23
f 17//21 23//24 21//22
f 20//23 24//26 23//24
f 15//18 25//27 22//25
f 21//22 26//28 25//27
f 23//24 27//29 26//28
f 24//26 28//30 27//29
f 28//30 29//31 27//29
f 29//31 32//34 27//29
f 26//28 30//32 25//27
f 22//25 31//33 29//31
f 31//33 33//38 29//31
f 27//29 36//35 30//32
f 31//33 35//39 33//38
f 32//34 37//37 36//35
f 35//39 38//40 33//38
f 33//38 43//46 34//36
f 33//38 39//41 43//46
f 38//40 40//42 39//41
f 36//35 41//43 40//42
f 34//36 42//44 37//37
f 34//36 43//46 42//44
f 43//46 45//45 44//47
f 44//47 46//48 52//55
f 44//47 52//55 40//42
f 45//45 47//49 46//48
f 40//42 48//51 39//41
f 39//41 48//51 47//49
f 46//48 49//53 52//55
f 46//48 50//50 49//53
f 48//51 51//52 50//50
f 40//42 52//55 51//52
f 50//50 54//63 49//53
f 49//53 54//63 53//54
f 51//52 55//56 50//50
f 51//52 56//58 55//56
f 50//50 57//57 54//63
f 54//63 58//59 53//54
f 55//56 59//61 57//57
f 56//58 60//65 59//61
f 53//54 61//60 56//58
f 54//63 62//62 58//59
f 60//65 64//8 59//61
f 59//61 65//5 63//64
f 61//60 1//3 64//8
f 62//62 2//1 1//3
f 63//64 3//7 5//4
