# Blender v2.79 (sub 0) OBJ File: 'world_countrycodes_export2.blend'
# www.blender.org
mtllib BN.mtl
o BN.002_CUCurve.1794
v 1.603831 0.000000 0.629281
v 1.605005 0.000000 0.628637
v 1.606106 0.000000 0.627989
v 1.606947 0.000000 0.628030
v 1.607169 0.000000 0.627247
v 1.606669 0.000000 0.624765
v 1.604407 0.000000 0.625290
v 1.603897 0.000000 0.625739
v 1.603739 0.000000 0.626429
v 1.603144 0.000000 0.626570
v 1.599962 0.000000 0.625298
v 1.601076 0.000000 0.627422
v 1.602603 0.000000 0.629308
v 1.607169 0.050000 0.627247
v 1.601076 0.050000 0.627422
v 1.603897 0.050000 0.625739
v 1.603739 0.050000 0.626429
v 1.603144 0.050000 0.626570
v 1.599962 0.050000 0.625298
v 1.606106 0.050000 0.627989
v 1.605005 0.050000 0.628637
v 1.606947 0.050000 0.628030
v 1.602603 0.050000 0.629308
v 1.604407 0.050000 0.625290
v 1.606669 0.050000 0.624765
v 1.603831 0.050000 0.629281
vn 0.0000 -1.0000 0.0000
vn 0.0000 1.0000 0.0000
vn 0.0000 1.0000 0.0002
vn 0.3713 0.0000 -0.9285
vn 0.4808 0.0000 0.8768
vn 0.9619 0.0000 0.2733
vn -0.0481 0.0000 0.9988
vn 0.5072 0.0000 0.8618
vn -0.2259 0.0000 -0.9742
vn 0.9803 0.0000 -0.1975
vn -0.8857 0.0000 0.4643
vn -0.9747 0.0000 -0.2235
vn 0.0221 0.0000 0.9998
vn -0.2318 0.0000 -0.9728
vn -0.6609 0.0000 -0.7504
vn -0.7772 0.0000 0.6293
usemtl SVGMat.3781
s off
f 7//1 6//1 5//1
f 8//1 7//1 5//1
f 12//1 11//1 10//1
f 9//1 8//1 5//1
f 10//1 9//1 5//1
f 12//1 10//1 5//1
f 12//1 5//1 4//1
f 12//1 4//1 3//1
f 12//1 3//1 2//1
f 13//1 12//1 2//1
f 13//1 2//1 1//1
f 24//2 14//2 25//2
f 16//2 14//2 24//2
f 15//2 18//2 19//2
f 17//2 14//2 16//2
f 18//2 14//2 17//2
f 15//2 14//2 18//2
f 15//2 22//2 14//2
f 15//3 20//3 22//3
f 15//2 21//2 20//2
f 23//2 21//2 15//2
f 23//2 26//2 21//2
f 10//4 11//4 19//4 18//4
f 1//5 2//5 21//5 26//5
f 4//6 5//6 14//6 22//6
f 3//7 4//7 22//7 20//7
f 2//8 3//8 20//8 21//8
f 6//9 7//9 24//9 25//9
f 5//10 6//10 25//10 14//10
f 11//11 12//11 15//11 19//11
f 8//12 9//12 17//12 16//12
f 13//13 1//13 26//13 23//13
f 9//14 10//14 18//14 17//14
f 7//15 8//15 16//15 24//15
f 12//16 13//16 23//16 15//16
