# Blender v2.79 (sub 0) OBJ File: 'world_countrycodes_outlines2.blend'
# www.blender.org
mtllib BO_outline.mtl
o BO.001_CUCurve.062
v 0.630939 -0.000812 0.763291
v 0.629733 0.001955 0.763562
v 0.627085 0.001280 0.764228
v 0.626748 -0.000837 0.763937
v 0.627662 -0.001948 0.766975
v 0.628595 0.000837 0.767449
v 0.625039 0.001410 0.767675
v 0.620514 -0.000638 0.765452
v 0.620274 0.001964 0.764121
v 0.621389 0.001464 0.762064
v 0.622415 -0.000916 0.761908
v 0.620656 -0.001982 0.763439
v 0.615781 -0.000664 0.762056
v 0.608507 0.001411 0.766603
v 0.608593 -0.000940 0.767061
v 0.607629 0.001837 0.764287
v 0.606772 -0.000006 0.763374
v 0.608164 -0.001943 0.764229
v 0.602082 -0.001478 0.769037
v 0.604125 0.002021 0.769778
v 0.605049 -0.001367 0.770475
v 0.601600 0.000882 0.769267
v 0.602636 0.001855 0.780589
v 0.602426 -0.001866 0.780562
v 0.600370 -0.000184 0.777594
v 0.603041 0.000015 0.781517
v 0.595180 -0.000831 0.781245
v 0.594765 0.002020 0.779694
v 0.593397 0.000743 0.777466
v 0.593586 -0.001895 0.778599
v 0.593043 -0.000746 0.785257
v 0.591353 0.001881 0.785053
v 0.591610 -0.000855 0.781449
v 0.590337 -0.001624 0.785395
v 0.588039 0.000775 0.782901
v 0.588327 -0.001388 0.782461
v 0.591391 0.001793 0.782323
v 0.589325 0.000818 0.779184
v 0.588378 -0.001933 0.780047
v 0.581119 -0.000732 0.781311
v 0.580755 0.001976 0.779689
v 0.580712 0.000840 0.776930
v 0.580595 -0.001907 0.778018
v 0.574024 0.001376 0.786481
v 0.573526 -0.000739 0.787042
v 0.572594 0.000754 0.783258
v 0.572360 -0.001418 0.783849
v 0.570808 -0.001982 0.785927
v 0.569649 0.000020 0.786528
v 0.570649 0.001924 0.785848
v 0.568996 0.000790 0.781038
v 0.571886 0.001359 0.779050
v 0.572127 -0.000834 0.778500
v 0.569495 -0.001912 0.779508
v 0.566653 0.000531 0.775497
v 0.567808 -0.001966 0.774532
v 0.568343 0.001983 0.775072
v 0.570429 0.000089 0.772750
v 0.565612 -0.001996 0.769468
v 0.567434 0.000700 0.770386
v 0.563481 -0.000983 0.770443
v 0.563632 0.001166 0.769102
v 0.565644 0.001987 0.768471
v 0.568617 0.000940 0.766342
v 0.568453 -0.001922 0.764251
v 0.565053 0.000645 0.764481
v 0.565663 -0.001430 0.764373
v 0.568207 0.001969 0.763589
v 0.569638 0.000066 0.763738
v 0.566079 -0.000789 0.760243
v 0.564822 0.001966 0.760462
v 0.563510 -0.001944 0.761317
v 0.562330 0.000937 0.761496
v 0.561800 -0.000001 0.757330
v 0.565745 -0.001217 0.755600
v 0.565134 0.001844 0.756140
v 0.558478 0.000276 0.751522
v 0.559806 -0.001907 0.751211
v 0.562824 -0.000951 0.751920
v 0.561013 0.002090 0.750971
v 0.564776 0.002096 0.745466
v 0.565940 0.000790 0.748449
v 0.562600 -0.000855 0.746309
v 0.566434 -0.001580 0.745479
v 0.564593 -0.000930 0.742992
v 0.560141 -0.000431 0.744292
v 0.561679 0.002107 0.743479
v 0.561436 -0.001917 0.743305
v 0.561320 -0.000108 0.738508
v 0.565947 0.000712 0.739219
v 0.562963 -0.001767 0.735622
v 0.565499 -0.001511 0.737467
v 0.563537 0.002001 0.738137
v 0.567096 0.000595 0.734537
v 0.562345 -0.000674 0.725472
v 0.566387 -0.000771 0.726883
v 0.565225 0.001908 0.725938
v 0.565519 -0.001936 0.723429
v 0.563880 0.001251 0.723741
v 0.567275 0.001911 0.723812
v 0.568228 -0.000815 0.722734
v 0.559415 0.001438 0.712686
v 0.560686 -0.001924 0.713744
v 0.565395 -0.000867 0.717171
v 0.566102 0.000762 0.713319
v 0.566279 -0.001408 0.713879
v 0.564422 0.001890 0.716137
v 0.568182 0.000911 0.716625
v 0.568460 -0.001947 0.715104
v 0.577258 0.000714 0.707085
v 0.578408 -0.000020 0.710927
v 0.577182 -0.001465 0.707804
v 0.578129 0.001934 0.709754
v 0.577956 -0.001964 0.709787
v 0.587329 -0.000795 0.706219
v 0.586737 0.001904 0.707288
v 0.583935 0.000927 0.709430
v 0.584971 -0.001954 0.708407
v 0.587380 -0.000761 0.712769
v 0.587367 0.001323 0.716883
v 0.585833 0.001986 0.718404
v 0.584059 -0.000901 0.717080
v 0.585853 -0.001941 0.718286
v 0.589733 0.001634 0.724233
v 0.590570 -0.001961 0.723828
v 0.592683 0.000756 0.721769
v 0.590263 -0.000873 0.720576
v 0.595260 -0.000951 0.725745
v 0.598783 -0.000987 0.722508
v 0.598132 0.001961 0.723696
v 0.597964 0.000894 0.726379
v 0.599697 -0.002058 0.725462
v 0.601359 0.000957 0.724520
v 0.598939 -0.000772 0.728108
v 0.599980 0.001939 0.727418
v 0.603348 -0.000672 0.728960
v 0.606188 -0.002016 0.727911
v 0.605699 0.000790 0.725518
v 0.607293 0.000120 0.727641
v 0.605520 0.001972 0.728492
v 0.604861 0.000942 0.731308
v 0.605098 -0.001442 0.730856
v 0.611151 -0.001435 0.728033
v 0.611679 0.001909 0.729007
v 0.612457 0.001747 0.732073
v 0.615719 -0.000781 0.731869
v 0.615243 0.001437 0.732101
v 0.611766 -0.000776 0.732578
v 0.613122 -0.002047 0.734757
v 0.612011 0.000560 0.735475
v 0.617371 -0.000721 0.737652
v 0.614264 0.001933 0.737746
v 0.612847 -0.001060 0.737485
v 0.615143 -0.002024 0.739010
v 0.616618 0.001091 0.739091
v 0.612048 0.000709 0.738793
v 0.617756 0.000816 0.743640
v 0.614632 -0.000985 0.746302
v 0.615198 0.001915 0.744979
v 0.617013 -0.001935 0.744627
v 0.617613 0.000805 0.747685
v 0.624021 -0.001285 0.747811
v 0.627326 -0.000461 0.744571
v 0.626562 0.001899 0.745556
v 0.624278 0.000935 0.747719
v 0.625314 -0.001897 0.745045
v 0.628139 -0.001577 0.749990
v 0.628678 0.002016 0.753079
v 0.624853 0.000815 0.751162
v 0.630782 -0.001921 0.754040
v 0.631994 0.000569 0.754035
v 0.627976 -0.000764 0.755069
vn 0.4670 0.8644 0.1861
vn 0.5082 0.3395 0.7915
vn 0.9024 -0.3380 0.2670
vn -0.3145 0.8826 -0.3493
vn -0.1546 0.5310 0.8332
vn -0.1808 -0.3334 0.9253
vn 0.2012 -0.7873 0.5828
vn -0.0423 0.9536 0.2980
vn -0.3714 -0.7143 -0.5931
vn 0.1134 0.6399 -0.7600
vn 0.2406 -0.4118 -0.8789
vn -0.0109 -0.9953 -0.0959
vn -0.1055 -0.2646 -0.9586
vn -0.1931 0.8630 -0.4667
vn 0.2902 0.7576 0.5846
vn 0.4151 -0.5275 0.7412
vn -0.1503 -0.9119 -0.3820
vn 0.5995 -0.6793 0.4233
vn -0.4743 -0.0089 -0.8803
vn -0.8278 0.4430 -0.3440
vn -0.6377 -0.7198 -0.2741
vn -0.5910 -0.1271 -0.7966
vn 0.3811 0.8362 0.3943
vn 0.1944 0.9687 0.1540
vn 0.6017 0.0070 0.7986
vn 0.1110 0.9938 0.0010
vn 0.4006 -0.4967 0.7700
vn 0.3515 -0.8605 0.3688
vn 0.5981 -0.2915 0.7465
vn -0.3367 -0.8197 -0.4634
vn -0.4167 -0.6001 -0.6828
vn -0.4350 0.3029 -0.8479
vn -0.1561 0.9602 -0.2315
vn -0.0039 0.7434 0.6688
vn -0.2660 -0.6114 0.7452
vn -0.4113 0.4424 0.7969
vn -0.4425 -0.7317 0.5184
vn 0.2110 -0.8670 -0.4514
vn 0.4166 0.3520 -0.8382
vn 0.1729 -0.4555 0.8732
vn 0.0262 0.9952 0.0945
vn -0.1535 0.3334 -0.9302
vn -0.1467 -0.8218 -0.5506
vn 0.1615 0.6641 -0.7300
vn 0.2855 0.6086 0.7403
vn 0.2470 -0.3721 0.8947
vn -0.3453 0.8313 0.4354
vn -0.3157 -0.8459 0.4297
vn -0.7254 0.0084 0.6883
vn -0.3556 -0.9275 0.1152
vn -0.9662 0.1497 0.2100
vn -0.0397 -0.8607 -0.5075
vn 0.8478 -0.4887 -0.2058
vn 0.7250 0.6718 -0.1519
vn -0.0565 0.9983 -0.0130
vn -0.8682 0.1968 0.4555
vn -0.1467 -0.9827 0.1130
vn 0.8451 0.0252 -0.5340
vn -0.0981 -0.9899 -0.1024
vn -0.9087 -0.4172 0.0012
vn -0.9067 0.4166 -0.0658
vn 0.8795 0.3428 -0.3301
vn -0.0486 0.9986 -0.0184
vn 0.5612 -0.8267 -0.0387
vn 0.8701 0.3870 0.3050
vn -0.5754 -0.7984 0.1774
vn -0.8556 0.4932 0.1568
vn 0.4204 0.8811 -0.2165
vn 0.9807 -0.0028 -0.1957
vn -0.8474 0.4038 0.3446
vn 0.1455 0.9837 -0.1054
vn 0.8111 -0.4357 -0.3901
vn -0.4646 -0.8668 0.1812
vn -0.9689 -0.0483 0.2426
vn 0.5029 0.8454 -0.1797
vn 0.7418 -0.5930 -0.3133
vn -0.1580 0.9874 0.0049
vn -0.5128 -0.8571 -0.0479
vn -0.9840 0.1777 -0.0059
vn -0.8094 -0.5871 -0.0108
vn 0.8195 -0.5441 -0.1799
vn 0.3346 0.9097 -0.2460
vn 0.8543 0.3376 0.3951
vn -0.9272 -0.0653 0.3688
vn 0.8754 -0.4164 -0.2456
vn -0.3463 0.9195 0.1859
vn -0.3814 -0.9231 0.0489
vn -0.9179 0.1225 -0.3773
vn 0.8863 0.3861 0.2557
vn -0.2002 0.9731 -0.1137
vn -0.6133 -0.7757 -0.1487
vn 0.5541 -0.8220 0.1317
vn 0.9629 0.2582 0.0786
vn -0.9244 -0.2838 -0.2546
vn 0.9604 -0.2482 0.1267
vn -0.0995 -0.9950 -0.0070
vn 0.6122 0.7789 0.1359
vn 0.1890 0.9785 0.0827
vn 0.9315 -0.3591 -0.0580
vn -0.7711 0.6311 -0.0847
vn -0.5456 -0.7560 -0.3617
vn 0.1411 0.9900 0.0058
vn -0.7343 0.3840 -0.5598
vn 0.5754 -0.7700 0.2759
vn -0.0868 -0.6676 -0.7395
vn 0.1906 -0.8913 0.4114
vn 0.3381 0.3456 0.8753
vn -0.2831 0.3812 -0.8800
vn -0.2237 0.4314 -0.8740
vn -0.2368 -0.6986 -0.6752
vn 0.3958 -0.0433 0.9173
vn 0.0815 0.9715 0.2224
vn 0.1457 -0.9378 0.3150
vn -0.0171 -0.9994 -0.0304
vn 0.6344 -0.3067 -0.7095
vn -0.3679 0.6285 0.6853
vn 0.4720 0.7689 -0.4313
vn 0.9179 -0.3906 -0.0694
vn -0.4453 0.8576 0.2571
vn -0.3063 -0.9017 0.3052
vn -0.9277 -0.2513 0.2762
vn 0.6150 0.7703 -0.1685
vn 0.4832 -0.6728 -0.5601
vn -0.4521 0.6269 0.6345
vn -0.3395 -0.8230 0.4553
vn 0.2031 0.6952 -0.6895
vn -0.1901 -0.3643 0.9116
vn 0.3930 -0.3795 -0.8375
vn 0.1387 0.9001 -0.4129
vn -0.5210 0.4213 0.7423
vn 0.0697 -0.9962 -0.0515
vn 0.4151 0.4415 -0.7955
vn -0.5899 -0.3758 0.7147
vn -0.2156 0.8492 0.4820
vn -0.5167 -0.3810 0.7667
vn -0.0175 0.9998 -0.0008
vn 0.5116 0.2759 -0.8137
vn 0.1133 -0.9344 -0.3377
vn -0.5089 0.4548 0.7309
vn -0.3812 -0.6833 0.6227
vn 0.4830 0.2828 -0.8286
vn 0.3195 -0.5753 -0.7529
vn 0.2759 0.7601 -0.5882
vn -0.2448 0.9366 0.2505
vn -0.8029 -0.3729 0.4650
vn 0.7951 -0.4124 -0.4447
vn -0.3352 -0.9411 0.0453
vn -0.9379 0.2344 0.2557
vn 0.8481 0.5290 -0.0279
vn 0.6407 0.6963 -0.3234
vn 0.9555 -0.2870 0.0682
vn -0.8654 -0.4817 0.1379
vn 0.1980 -0.9786 0.0550
vn -0.9490 0.2759 -0.1522
vn -0.1369 0.9881 -0.0696
vn 0.1057 -0.9890 -0.1029
vn 0.5011 0.4674 -0.7283
vn -0.6683 -0.3969 0.6291
vn -0.2156 0.3597 0.9078
vn -0.4105 0.8617 0.2983
vn -0.3533 -0.7724 0.5278
vn 0.1367 -0.8678 -0.4777
vn 0.4295 0.8199 -0.3784
vn -0.3951 0.7781 0.4882
vn 0.6287 -0.7081 -0.3212
vn 0.7024 -0.1368 -0.6985
vn 0.0179 0.9924 -0.1214
vn -0.8193 0.3859 0.4240
vn 0.9040 0.3016 -0.3028
vn -0.8406 -0.5191 0.1548
vn 0.4626 -0.8721 -0.1591
vn 0.8278 -0.5531 -0.0943
usemtl SVGMat.3781
s 1
f 2//1 6//2 1//3
f 3//4 7//5 2//1
f 7//5 8//6 5//7
f 3//4 9//8 7//5
f 4//9 10//10 3//4
f 5//7 11//11 4//9
f 12//12 13//13 11//11
f 13//13 16//14 10//10
f 14//15 15//16 8//6
f 12//12 18//17 13//13
f 15//16 18//17 12//12
f 14//15 21//18 15//16
f 15//16 21//18 18//17
f 17//19 22//20 16//14
f 19//21 22//20 17//19
f 19//21 25//22 22//20
f 21//18 25//22 19//21
f 22//20 23//23 20//24
f 23//23 26//25 21//18
f 25//22 28//26 23//23
f 26//25 27//27 24//28
f 23//23 27//27 26//25
f 28//26 31//29 27//27
f 30//30 33//31 29//32
f 37//33 32//34 28//26
f 31//29 34//35 30//30
f 32//34 34//35 31//29
f 32//34 35//36 34//35
f 36//37 39//38 34//35
f 33//31 38//39 37//33
f 35//36 40//40 36//37
f 37//33 41//41 35//36
f 38//39 41//41 37//33
f 39//38 42//42 38//39
f 36//37 43//43 39//38
f 43//43 46//44 42//42
f 44//45 45//46 40//40
f 42//42 50//47 41//41
f 40//40 48//48 43//43
f 44//45 49//49 45//46
f 49//49 54//50 48//48
f 50//47 51//51 49//49
f 47//52 53//53 46//44
f 48//48 53//53 47//52
f 52//54 57//55 50//47
f 57//55 55//56 51//51
f 55//56 56//57 54//50
f 53//53 58//58 52//54
f 56//57 58//58 53//53
f 56//57 59//59 58//58
f 55//56 61//60 56//57
f 62//61 61//60 55//56
f 60//62 63//63 57//55
f 61//60 59//59 56//57
f 62//61 59//59 61//60
f 65//64 64//65 60//62
f 62//61 67//66 59//59
f 63//63 66//67 62//61
f 64//65 68//68 63//63
f 67//66 65//64 59//59
f 65//64 69//69 64//65
f 69//69 68//68 64//65
f 68//68 73//70 66//67
f 69//69 71//71 68//68
f 65//64 70//72 69//69
f 67//66 72//73 65//64
f 66//67 72//73 67//66
f 73//70 74//74 72//73
f 71//71 74//74 73//70
f 70//72 76//75 71//71
f 72//73 75//76 70//72
f 74//74 75//76 72//73
f 75//76 80//77 76//75
f 74//74 78//78 75//76
f 77//79 78//78 74//74
f 80//77 77//79 74//74
f 77//79 83//80 78//78
f 83//80 84//81 78//78
f 81//82 83//80 77//79
f 84//81 81//82 82//83
f 81//82 86//84 83//80
f 85//85 87//86 81//82
f 83//80 88//87 84//81
f 86//84 89//88 88//87
f 87//86 89//88 86//84
f 85//85 90//89 87//86
f 90//89 93//90 87//86
f 89//88 91//91 88//87
f 91//91 92//92 85//85
f 92//92 94//93 90//89
f 93//90 95//94 91//91
f 92//92 96//95 94//93
f 95//94 98//96 92//92
f 96//95 100//97 97//98
f 98//96 101//99 96//95
f 99//100 103//101 98//96
f 101//99 107//102 100//97
f 100//97 102//103 99//100
f 103//101 104//104 101//99
f 107//102 102//103 100//97
f 102//103 106//105 103//101
f 106//105 109//106 103//101
f 104//104 108//107 107//102
f 107//102 110//108 105//109
f 105//109 112//110 106//105
f 109//106 111//111 108//107
f 108//107 113//112 107//102
f 112//110 114//113 109//106
f 111//111 113//112 108//107
f 112//110 118//114 114//113
f 110//108 115//115 112//110
f 111//111 117//116 113//112
f 114//113 117//116 111//111
f 116//117 119//118 115//115
f 117//116 121//119 116//117
f 115//115 123//120 118//114
f 122//121 121//119 117//116
f 120//122 127//123 119//118
f 123//120 124//124 122//121
f 127//123 125//125 123//120
f 120//122 126//126 127//123
f 124//124 126//126 120//122
f 125//125 128//127 124//124
f 126//126 129//128 127//123
f 124//124 130//129 126//126
f 128//127 131//130 124//124
f 131//130 130//129 124//124
f 129//128 132//131 125//125
f 133//132 132//131 129//128
f 132//131 134//133 131//130
f 131//130 135//134 130//129
f 134//133 135//134 131//130
f 132//131 136//135 134//133
f 136//135 140//136 135//134
f 138//137 137//138 132//131
f 140//136 138//137 133//132
f 136//135 141//139 140//136
f 137//138 142//140 136//135
f 142//140 141//139 136//135
f 139//141 143//142 137//138
f 140//136 143//142 139//141
f 141//139 144//143 140//136
f 142//140 145//144 141//139
f 137//138 148//145 142//140
f 144//143 146//146 143//142
f 146//146 149//147 143//142
f 148//145 150//148 145//144
f 149//147 150//148 148//145
f 145//144 155//149 147//150
f 155//149 151//151 146//146
f 149//147 153//152 150//148
f 151//151 154//153 149//147
f 154//153 153//152 149//147
f 153//152 156//154 152//155
f 155//149 160//156 154//153
f 152//155 157//157 155//149
f 153//152 158//158 156//154
f 154//153 158//158 153//152
f 158//158 161//159 159//160
f 160//156 162//161 158//158
f 157//157 166//162 160//156
f 159//160 164//163 157//157
f 161//159 164//163 159//160
f 162//161 165//164 161//159
f 164//163 167//165 163//166
f 165//164 168//167 164//163
f 163//166 167//165 166//162
f 162//161 169//168 165//164
f 168//167 171//169 167//165
f 162//161 172//170 169//168
f 170//171 172//170 162//161
f 171//169 1//3 170//171
f 168//167 2//1 171//169
f 172//170 3//4 168//167
f 170//171 4//9 172//170
f 3//4 2//1 168//167
f 1//3 5//7 170//171
f 1//3 6//2 5//7
f 2//1 7//5 6//2
f 6//2 7//5 5//7
f 7//5 9//8 8//6
f 3//4 10//10 9//8
f 4//9 11//11 10//10
f 5//7 12//12 11//11
f 5//7 8//6 12//12
f 11//11 13//13 10//10
f 10//10 16//14 9//8
f 8//6 15//16 12//12
f 9//8 14//15 8//6
f 9//8 16//14 14//15
f 13//13 17//19 16//14
f 13//13 18//17 17//19
f 16//14 20//24 14//15
f 18//17 19//21 17//19
f 14//15 20//24 21//18
f 18//17 21//18 19//21
f 16//14 22//20 20//24
f 20//24 23//23 21//18
f 21//18 24//28 25//22
f 22//20 25//22 23//23
f 21//18 26//25 24//28
f 24//28 30//30 25//22
f 23//23 28//26 27//27
f 25//22 29//32 28//26
f 25//22 30//30 29//32
f 24//28 27//27 30//30
f 28//26 32//34 31//29
f 29//32 37//33 28//26
f 29//32 33//31 37//33
f 27//27 31//29 30//30
f 30//30 34//35 33//31
f 34//35 35//36 36//37
f 32//34 37//33 35//36
f 34//35 39//38 33//31
f 33//31 39//38 38//39
f 35//36 41//41 40//40
f 38//39 42//42 41//41
f 39//38 43//43 42//42
f 36//37 40//40 43//43
f 41//41 44//45 40//40
f 41//41 50//47 44//45
f 42//42 46//44 50//47
f 43//43 47//52 46//44
f 43//43 48//48 47//52
f 40//40 45//46 48//48
f 45//46 49//49 48//48
f 44//45 50//47 49//49
f 49//49 51//51 54//50
f 46//44 52//54 50//47
f 46//44 53//53 52//54
f 50//47 57//55 51//51
f 48//48 54//50 53//53
f 51//51 55//56 54//50
f 54//50 56//57 53//53
f 52//54 58//58 57//55
f 58//58 59//59 60//62
f 58//58 60//62 57//55
f 57//55 62//61 55//56
f 57//55 63//63 62//61
f 60//62 64//65 63//63
f 59//59 65//64 60//62
f 62//61 66//67 67//66
f 63//63 68//68 66//67
f 69//69 70//72 71//71
f 68//68 71//71 73//70
f 65//64 72//73 70//72
f 66//67 73//70 72//73
f 70//72 75//76 76//75
f 71//71 76//75 74//74
f 76//75 80//77 74//74
f 75//76 78//78 79//172
f 75//76 79//172 80//77
f 80//77 81//82 77//79
f 78//78 84//81 79//172
f 79//172 82//83 80//77
f 80//77 82//83 81//82
f 79//172 84//81 82//83
f 84//81 85//85 81//82
f 81//82 87//86 86//84
f 84//81 88//87 85//85
f 83//80 86//84 88//87
f 87//86 93//90 89//88
f 88//87 91//91 85//85
f 85//85 92//92 90//89
f 89//88 93//90 91//91
f 90//89 94//93 93//90
f 93//90 99//100 95//94
f 94//93 97//98 93//90
f 94//93 96//95 97//98
f 91//91 95//94 92//92
f 93//90 97//98 99//100
f 92//92 98//96 96//95
f 95//94 99//100 98//96
f 97//98 100//97 99//100
f 96//95 101//99 100//97
f 99//100 102//103 103//101
f 98//96 103//101 101//99
f 101//99 104//104 107//102
f 102//103 105//109 106//105
f 102//103 107//102 105//109
f 103//101 109//106 104//104
f 104//104 109//106 108//107
f 105//109 110//108 112//110
f 106//105 112//110 109//106
f 107//102 113//112 110//108
f 109//106 114//113 111//111
f 113//112 116//117 110//108
f 110//108 116//117 115//115
f 113//112 117//116 116//117
f 114//113 118//114 117//116
f 112//110 115//115 118//114
f 116//117 120//122 119//118
f 116//117 121//119 120//122
f 118//114 122//121 117//116
f 118//114 123//120 122//121
f 115//115 119//118 123//120
f 119//118 127//123 123//120
f 121//119 124//124 120//122
f 122//121 124//124 121//119
f 123//120 125//125 124//124
f 126//126 130//129 129//128
f 127//123 129//128 125//125
f 125//125 132//131 128//127
f 128//127 132//131 131//130
f 130//129 133//132 129//128
f 130//129 135//134 133//132
f 135//134 140//136 133//132
f 134//133 136//135 135//134
f 132//131 137//138 136//135
f 133//132 138//137 132//131
f 138//137 139//141 137//138
f 138//137 140//136 139//141
f 140//136 144//143 143//142
f 141//139 145//144 144//143
f 142//140 148//145 145//144
f 137//138 143//142 148//145
f 144//143 147//150 146//146
f 144//143 145//144 147//150
f 143//142 149//147 148//145
f 150//148 152//155 145//144
f 147//150 155//149 146//146
f 146//146 151//151 149//147
f 145//144 152//155 155//149
f 150//148 153//152 152//155
f 151//151 155//149 154//153
f 155//149 157//157 160//156
f 156//154 159//160 152//155
f 156//154 158//158 159//160
f 152//155 159//160 157//157
f 154//153 160//156 158//158
f 158//158 162//161 161//159
f 157//157 163//166 166//162
f 157//157 164//163 163//166
f 161//159 165//164 164//163
f 160//156 166//162 162//161
f 164//163 168//167 167//165
f 166//162 167//165 162//161
f 165//164 169//168 168//167
f 167//165 170//171 162//161
f 167//165 171//169 170//171
f 169//168 172//170 168//167
f 171//169 2//1 1//3
f 172//170 4//9 3//4
f 170//171 5//7 4//9
