# Blender v2.79 (sub 0) OBJ File: 'world_countrycodes_export2.blend'
# www.blender.org
mtllib BS.mtl
o BS.002_CUCurve.1722
v 0.515723 0.000000 0.512594
v 0.515109 0.000000 0.512813
v 0.513968 0.000000 0.511852
v 0.513447 0.000000 0.510840
v 0.513256 0.000000 0.509761
v 0.511503 0.000000 0.507517
v 0.511534 0.000000 0.505168
v 0.512063 0.000000 0.504069
v 0.512770 0.000000 0.503971
v 0.513882 0.000000 0.505556
v 0.514179 0.000000 0.507144
v 0.514045 0.000000 0.509263
v 0.515553 0.000000 0.511278
v 0.511534 0.050000 0.505168
v 0.513882 0.050000 0.505556
v 0.511503 0.050000 0.507517
v 0.513256 0.050000 0.509761
v 0.514045 0.050000 0.509263
v 0.515553 0.050000 0.511278
v 0.515723 0.050000 0.512594
v 0.513447 0.050000 0.510840
v 0.513968 0.050000 0.511852
v 0.514179 0.050000 0.507144
v 0.515109 0.050000 0.512813
v 0.512063 0.050000 0.504069
v 0.512770 0.050000 0.503971
vn 0.0000 -1.0000 0.0000
vn 0.0000 1.0000 -0.0000
vn 0.8186 0.0000 -0.5743
vn -0.1375 0.0000 -0.9905
vn -0.9999 0.0000 -0.0130
vn -0.7880 0.0000 0.6157
vn 0.9829 0.0000 -0.1840
vn 0.9918 0.0000 -0.1281
vn -0.6442 0.0000 0.7649
vn 0.3363 0.0000 0.9418
vn -0.9847 0.0000 0.1740
vn 0.9980 0.0000 0.0629
vn -0.8892 0.0000 0.4575
vn -0.9010 0.0000 -0.4338
vn 0.8006 0.0000 -0.5992
usemtl SVGMat.3781
s off
f 7//1 8//1 9//1
f 7//1 9//1 10//1
f 6//1 7//1 10//1
f 6//1 10//1 11//1
f 6//1 11//1 12//1
f 5//1 6//1 12//1
f 5//1 12//1 13//1
f 4//1 5//1 13//1
f 3//1 4//1 13//1
f 3//1 13//1 1//1
f 2//1 3//1 1//1
f 14//2 26//2 25//2
f 14//2 15//2 26//2
f 16//2 15//2 14//2
f 16//2 23//2 15//2
f 16//2 18//2 23//2
f 17//2 18//2 16//2
f 17//2 19//2 18//2
f 21//2 19//2 17//2
f 22//2 19//2 21//2
f 22//2 20//2 19//2
f 24//2 20//2 22//2
f 10//3 9//3 26//3 15//3
f 9//4 8//4 25//4 26//4
f 7//5 6//5 16//5 14//5
f 6//6 5//6 17//6 16//6
f 11//7 10//7 15//7 23//7
f 1//8 13//8 19//8 20//8
f 3//9 2//9 24//9 22//9
f 2//10 1//10 20//10 24//10
f 5//11 4//11 21//11 17//11
f 12//12 11//12 23//12 18//12
f 4//13 3//13 22//13 21//13
f 8//14 7//14 14//14 25//14
f 13//15 12//15 18//15 19//15
