# Blender v2.79 (sub 0) OBJ File: 'world_countrycodes_outlines2.blend'
# www.blender.org
mtllib BT_outline.mtl
o BT.001_CUCurve.1653
v 1.479106 0.001068 0.490215
v 1.475672 -0.001740 0.488871
v 1.476255 0.001234 0.493739
v 1.478592 0.001905 0.495751
v 1.477720 -0.001963 0.495994
v 1.479838 -0.000863 0.494281
v 1.475956 -0.000845 0.493446
v 1.477695 -0.000033 0.497276
v 1.467555 -0.000102 0.497328
v 1.468714 0.001936 0.496130
v 1.470897 -0.000872 0.493449
v 1.468210 -0.001999 0.495244
v 1.467974 -0.001465 0.496682
v 1.463446 0.001284 0.492825
v 1.465954 -0.000820 0.492937
v 1.461200 -0.001996 0.494224
v 1.460827 0.000812 0.495420
v 1.463401 -0.000810 0.492263
v 1.459035 -0.000693 0.492663
v 1.460249 0.001918 0.492657
v 1.465095 0.000308 0.490060
v 1.462179 0.000655 0.487021
v 1.462445 -0.001435 0.487560
v 1.467775 -0.000792 0.484150
v 1.467283 0.001957 0.485266
v 1.467981 0.000654 0.488235
v 1.466521 -0.001972 0.486851
v 1.471623 0.000239 0.490016
v 1.472548 -0.000808 0.485942
v 1.475463 0.001889 0.486924
v 1.474657 -0.000026 0.489365
v 1.475952 -0.000692 0.485756
v 1.476060 0.001877 0.489143
v 1.477909 -0.001983 0.489969
v 1.481351 -0.000688 0.489729
vn -0.3508 -0.0902 0.9321
vn -0.4109 0.8772 -0.2483
vn -0.1354 0.9834 0.1207
vn 0.2555 -0.9663 -0.0315
vn -0.5552 -0.7491 -0.3612
vn -0.1815 -0.9819 0.0533
vn 0.7313 0.6809 -0.0393
vn 0.9351 -0.3167 0.1585
vn 0.5054 0.7608 0.4070
vn 0.3584 0.0139 0.9335
vn -0.0851 -0.7214 0.6872
vn 0.2746 -0.8670 0.4158
vn -0.1420 0.0328 0.9893
vn -0.0125 0.9094 0.4157
vn 0.0591 -0.5252 -0.8489
vn 0.3569 0.8063 -0.4716
vn 0.0060 -0.9973 -0.0735
vn 0.1246 -0.4639 -0.8770
vn -0.3349 -0.8562 0.3932
vn -0.5418 0.8404 0.0068
vn 0.7927 -0.6094 0.0120
vn -0.5408 0.3121 0.7811
vn -0.9606 -0.2771 0.0214
vn 0.7469 0.2900 0.5983
vn -0.6563 0.3457 -0.6706
vn -0.0424 0.8592 -0.5098
vn -0.5190 -0.6917 -0.5021
vn 0.0432 -0.9982 0.0417
vn 0.0053 -0.3257 -0.9454
vn 0.1868 -0.4546 -0.8708
vn -0.1787 0.1809 0.9671
vn 0.1454 0.8563 -0.4956
vn 0.2597 -0.3195 -0.9113
vn 0.9762 -0.1465 0.1599
vn -0.0571 0.5046 0.8614
usemtl SVGMat.3781
s 1
f 31//1 3//2 33//3
f 34//4 7//5 2//6
f 1//7 6//8 34//4
f 33//3 4//9 1//7
f 3//2 4//9 33//3
f 4//9 6//8 1//7
f 4//9 8//10 6//8
f 8//10 13//11 5//12
f 4//9 9//13 8//10
f 3//2 10//14 4//9
f 5//12 11//15 7//5
f 11//15 14//16 3//2
f 12//17 15//18 11//15
f 13//11 16//19 12//17
f 9//13 16//19 13//11
f 14//16 20//20 10//14
f 16//19 18//21 15//18
f 17//22 19//23 16//19
f 18//21 21//24 14//16
f 20//20 22//25 19//23
f 21//24 25//26 20//20
f 23//27 27//28 16//19
f 27//28 21//24 18//21
f 25//26 22//25 20//20
f 22//25 24//29 23//27
f 25//26 29//30 24//29
f 28//31 30//32 25//26
f 24//29 2//6 27//28
f 30//32 32//33 29//30
f 31//1 33//3 28//31
f 32//33 34//4 2//6
f 30//32 35//34 32//33
f 33//3 1//7 30//32
f 2//6 7//5 31//1
f 34//4 5//12 7//5
f 34//4 6//8 5//12
f 31//1 7//5 3//2
f 6//8 8//10 5//12
f 8//10 9//13 13//11
f 4//9 10//14 9//13
f 7//5 11//15 3//2
f 5//12 12//17 11//15
f 5//12 13//11 12//17
f 3//2 14//16 10//14
f 11//15 15//18 14//16
f 10//14 17//22 9//13
f 12//17 16//19 15//18
f 9//13 17//22 16//19
f 10//14 20//20 17//22
f 15//18 18//21 14//16
f 17//22 20//20 19//23
f 14//16 21//24 20//20
f 19//23 22//25 23//27
f 19//23 23//27 16//19
f 16//19 27//28 18//21
f 22//25 25//26 24//29
f 21//24 26//35 25//26
f 21//24 27//28 26//35
f 23//27 24//29 27//28
f 26//35 28//31 25//26
f 27//28 28//31 26//35
f 25//26 30//32 29//30
f 27//28 2//6 28//31
f 24//29 29//30 2//6
f 28//31 2//6 31//1
f 28//31 33//3 30//32
f 29//30 32//33 2//6
f 30//32 1//7 35//34
f 32//33 35//34 34//4
f 35//34 1//7 34//4
