# Blender v2.79 (sub 0) OBJ File: 'world_countrycodes_export2.blend'
# www.blender.org
mtllib BW.mtl
o BW.002_CUCurve.1882
v 1.116745 0.000000 0.776348
v 1.115189 0.000000 0.775821
v 1.113788 0.000000 0.774563
v 1.113020 0.000000 0.773101
v 1.112659 0.000000 0.771292
v 1.110777 0.000000 0.768766
v 1.110568 0.000000 0.767852
v 1.110030 0.000000 0.767100
v 1.107776 0.000000 0.765558
v 1.104531 0.000000 0.763922
v 1.103441 0.000000 0.761993
v 1.102327 0.000000 0.757973
v 1.101947 0.000000 0.757409
v 1.100744 0.000000 0.756793
v 1.099497 0.000000 0.755449
v 1.098624 0.000000 0.754127
v 1.096889 0.000000 0.754562
v 1.094348 0.000000 0.754927
v 1.092879 0.000000 0.755497
v 1.091562 0.000000 0.756438
v 1.090677 0.000000 0.757486
v 1.090071 0.000000 0.757492
v 1.087967 0.000000 0.755304
v 1.087328 0.000000 0.755065
v 1.085633 0.000000 0.755357
v 1.081544 0.000000 0.756992
v 1.078939 0.000000 0.757428
v 1.076023 0.000000 0.757708
v 1.076011 0.000000 0.777453
v 1.075476 0.000000 0.778088
v 1.074232 0.000000 0.778470
v 1.071463 0.000000 0.778700
v 1.070388 0.000000 0.779094
v 1.070379 0.000000 0.795993
v 1.072270 0.000000 0.796905
v 1.073104 0.000000 0.797618
v 1.073975 0.000000 0.799588
v 1.074689 0.000000 0.801983
v 1.075041 0.000000 0.804207
v 1.074702 0.000000 0.804686
v 1.073918 0.000000 0.805029
v 1.073706 0.000000 0.807095
v 1.073925 0.000000 0.807692
v 1.074337 0.000000 0.807943
v 1.078310 0.000000 0.808407
v 1.079987 0.000000 0.808136
v 1.084079 0.000000 0.804222
v 1.085589 0.000000 0.802369
v 1.085951 0.000000 0.800533
v 1.086527 0.000000 0.799197
v 1.087372 0.000000 0.798361
v 1.088558 0.000000 0.798303
v 1.089690 0.000000 0.798923
v 1.091421 0.000000 0.800111
v 1.093412 0.000000 0.800857
v 1.095440 0.000000 0.801053
v 1.098602 0.000000 0.800946
v 1.100164 0.000000 0.800610
v 1.101138 0.000000 0.799792
v 1.101810 0.000000 0.797900
v 1.102231 0.000000 0.795190
v 1.102983 0.000000 0.794374
v 1.104663 0.000000 0.794201
v 1.106349 0.000000 0.793604
v 1.107771 0.000000 0.792522
v 1.108616 0.000000 0.791372
v 1.108802 0.000000 0.789745
v 1.109509 0.000000 0.787966
v 1.110479 0.000000 0.786996
v 1.112308 0.000000 0.786553
v 1.113914 0.000000 0.785547
v 1.115074 0.000000 0.784107
v 1.115541 0.000000 0.783005
v 1.116213 0.000000 0.782478
v 1.118371 0.000000 0.781952
v 1.119098 0.000000 0.781241
v 1.120830 0.000000 0.778638
v 1.120784 0.000000 0.778700
v 1.120784 0.000000 0.778700
v 1.120784 0.000000 0.778700
v 1.120784 0.000000 0.778700
v 1.120784 0.000000 0.778700
v 1.120784 0.000000 0.778700
v 1.120784 0.000000 0.778700
v 1.120784 0.000000 0.778700
v 1.120784 0.000000 0.778700
v 1.120784 0.000000 0.778700
v 1.120784 0.000000 0.778700
v 1.120784 0.000000 0.778700
v 1.120605 0.000000 0.777539
v 1.119758 0.000000 0.776832
v 1.118481 0.000000 0.776421
v 1.095440 0.050000 0.801053
v 1.098602 0.050000 0.800946
v 1.093412 0.050000 0.800857
v 1.074337 0.050000 0.807943
v 1.078310 0.050000 0.808407
v 1.087328 0.050000 0.755065
v 1.085633 0.050000 0.755357
v 1.106349 0.050000 0.793604
v 1.107771 0.050000 0.792522
v 1.076011 0.050000 0.777453
v 1.075476 0.050000 0.778088
v 1.070388 0.050000 0.779094
v 1.116213 0.050000 0.782478
v 1.072270 0.050000 0.796905
v 1.101810 0.050000 0.797900
v 1.119758 0.050000 0.776832
v 1.118481 0.050000 0.776421
v 1.073975 0.050000 0.799588
v 1.085951 0.050000 0.800533
v 1.099497 0.050000 0.755449
v 1.096889 0.050000 0.754562
v 1.110479 0.050000 0.786996
v 1.089690 0.050000 0.798923
v 1.101138 0.050000 0.799792
v 1.115541 0.050000 0.783005
v 1.120830 0.050000 0.778638
v 1.075041 0.050000 0.804207
v 1.074702 0.050000 0.804686
v 1.074232 0.050000 0.778470
v 1.070379 0.050000 0.795993
v 1.073918 0.050000 0.805029
v 1.084079 0.050000 0.804222
v 1.109509 0.050000 0.787966
v 1.112659 0.050000 0.771292
v 1.110777 0.050000 0.768766
v 1.085589 0.050000 0.802369
v 1.081544 0.050000 0.756992
v 1.112308 0.050000 0.786553
v 1.113914 0.050000 0.785547
v 1.087372 0.050000 0.798361
v 1.088558 0.050000 0.798303
v 1.090071 0.050000 0.757492
v 1.073104 0.050000 0.797618
v 1.113788 0.050000 0.774563
v 1.113020 0.050000 0.773101
v 1.091562 0.050000 0.756438
v 1.104663 0.050000 0.794201
v 1.116745 0.050000 0.776348
v 1.103441 0.050000 0.761993
v 1.076023 0.050000 0.757708
v 1.104531 0.050000 0.763922
v 1.100744 0.050000 0.756793
v 1.102231 0.050000 0.795190
v 1.078939 0.050000 0.757428
v 1.107776 0.050000 0.765558
v 1.098624 0.050000 0.754127
v 1.086527 0.050000 0.799197
v 1.119098 0.050000 0.781241
v 1.110568 0.050000 0.767852
v 1.079987 0.050000 0.808136
v 1.087967 0.050000 0.755304
v 1.090677 0.050000 0.757486
v 1.108802 0.050000 0.789745
v 1.074689 0.050000 0.801983
v 1.118371 0.050000 0.781952
v 1.115074 0.050000 0.784107
v 1.115189 0.050000 0.775821
v 1.091421 0.050000 0.800111
v 1.073706 0.050000 0.807095
v 1.071463 0.050000 0.778700
v 1.094348 0.050000 0.754927
v 1.102983 0.050000 0.794374
v 1.102327 0.050000 0.757973
v 1.108616 0.050000 0.791372
v 1.073925 0.050000 0.807692
v 1.100164 0.050000 0.800610
v 1.092879 0.050000 0.755497
v 1.110030 0.050000 0.767100
v 1.120605 0.050000 0.777539
v 1.101947 0.050000 0.757409
vn 0.0000 -1.0000 0.0000
vn 0.0000 1.0000 0.0000
vn 0.0000 1.0000 -0.0003
vn -0.2436 0.0000 -0.9699
vn -0.4344 0.0000 0.9007
vn 0.8060 0.0000 0.5919
vn -1.0000 0.0000 -0.0006
vn 0.9183 0.0000 0.3959
vn -0.8165 0.0000 -0.5774
vn 0.7207 0.0000 -0.6932
vn 0.9797 0.0000 -0.2002
vn -0.2931 0.0000 -0.9561
vn -0.0826 0.0000 -0.9966
vn 0.5645 0.0000 -0.8254
vn 0.9207 0.0000 0.3903
vn 0.9749 0.0000 -0.2227
vn -0.5203 0.0000 0.8540
vn -1.0000 0.0000 -0.0005
vn -0.4802 0.0000 0.8771
vn 0.7033 0.0000 0.7109
vn -0.3446 0.0000 -0.9388
vn 0.6988 0.0000 0.7153
vn 0.8344 0.0000 -0.5512
vn 0.6683 0.0000 -0.7439
vn 0.3496 0.0000 -0.9369
vn -0.1420 0.0000 -0.9899
vn 0.8019 0.0000 -0.5975
vn 0.1592 0.0000 0.9872
vn 0.1025 0.0000 0.9947
vn -0.0085 0.0000 -1.0000
vn 0.7075 0.0000 0.7067
vn 0.7752 0.0000 0.6318
vn 0.9807 0.0000 -0.1957
vn 0.9292 0.0000 0.3696
vn 0.4552 0.0000 -0.8904
vn -0.3712 0.0000 -0.9286
vn -0.4001 0.0000 -0.9165
vn 0.2355 0.0000 0.9719
vn 0.5305 0.0000 0.8477
vn 0.0338 0.0000 0.9994
vn -0.9583 0.0000 0.2858
vn -0.7641 0.0000 -0.6451
vn 0.2367 0.0000 0.9716
vn 0.0487 0.0000 0.9988
vn -0.1159 0.0000 0.9933
vn -0.3619 0.0000 -0.9322
vn 0.9637 0.0000 -0.2670
vn 0.4501 0.0000 -0.8930
vn -0.1696 0.0000 -0.9855
vn 0.6405 0.0000 -0.7680
vn -0.1651 0.0000 -0.9863
vn -0.6496 0.0000 0.7602
vn 0.6051 0.0000 0.7961
vn 0.8853 0.0000 -0.4650
vn 0.8132 0.0000 -0.5821
vn -0.7652 0.0000 -0.6438
vn -0.9948 0.0000 -0.1020
vn 0.3341 0.0000 0.9425
vn 0.6428 0.0000 0.7660
vn 0.9811 0.0000 0.1933
vn 0.9936 0.0000 0.1133
vn 0.3064 0.0000 -0.9519
vn 0.8297 0.0000 -0.5583
vn -0.9878 0.0000 0.1560
vn 0.0423 0.0000 -0.9991
vn 0.6913 0.0000 0.7226
vn -0.0962 0.0000 0.9954
vn 0.9425 0.0000 0.3343
vn -0.9385 0.0000 0.3452
vn 0.3204 0.0000 -0.9473
vn 0.8706 0.0000 -0.4919
vn -0.3509 0.0000 0.9364
vn 0.7333 0.0000 -0.6799
vn -0.9146 0.0000 0.4043
vn 0.7789 0.0000 0.6271
vn -0.5659 0.0000 0.8245
vn 0.9881 0.0000 0.1536
vn 0.7352 0.0000 0.6778
vn 0.8326 0.0000 0.5538
vn -0.0958 0.0000 -0.9954
vn 0.6176 0.0000 0.7865
vn 0.2103 0.0000 0.9776
vn -0.5812 0.0000 -0.8138
usemtl SVGMat.3781
s off
f 17//1 16//1 15//1
f 18//1 17//1 15//1
f 25//1 24//1 23//1
f 19//1 18//1 15//1
f 20//1 19//1 15//1
f 20//1 15//1 14//1
f 25//1 23//1 22//1
f 26//1 25//1 22//1
f 27//1 26//1 22//1
f 20//1 14//1 13//1
f 21//1 20//1 13//1
f 21//1 13//1 12//1
f 22//1 21//1 12//1
f 27//1 22//1 12//1
f 28//1 27//1 12//1
f 28//1 12//1 11//1
f 28//1 11//1 10//1
f 28//1 10//1 9//1
f 28//1 9//1 8//1
f 28//1 8//1 7//1
f 28//1 7//1 6//1
f 29//1 28//1 6//1
f 29//1 6//1 5//1
f 29//1 5//1 4//1
f 29//1 4//1 3//1
f 29//1 3//1 2//1
f 29//1 2//1 1//1
f 29//1 1//1 92//1
f 29//1 92//1 91//1
f 29//1 91//1 90//1
f 30//1 29//1 90//1
f 30//1 90//1 77//1
f 31//1 30//1 77//1
f 32//1 31//1 77//1
f 33//1 32//1 77//1
f 33//1 77//1 76//1
f 33//1 76//1 75//1
f 33//1 75//1 74//1
f 33//1 74//1 73//1
f 33//1 73//1 72//1
f 33//1 72//1 71//1
f 33//1 71//1 70//1
f 33//1 70//1 69//1
f 33//1 69//1 68//1
f 34//1 33//1 68//1
f 34//1 68//1 67//1
f 34//1 67//1 66//1
f 34//1 66//1 65//1
f 34//1 65//1 64//1
f 34//1 64//1 63//1
f 34//1 63//1 62//1
f 34//1 62//1 61//1
f 34//1 61//1 60//1
f 35//1 34//1 60//1
f 36//1 35//1 60//1
f 36//1 60//1 52//1
f 36//1 52//1 51//1
f 37//1 36//1 51//1
f 53//1 52//1 60//1
f 53//1 60//1 59//1
f 37//1 51//1 50//1
f 37//1 50//1 49//1
f 54//1 53//1 59//1
f 54//1 59//1 58//1
f 38//1 37//1 49//1
f 55//1 54//1 58//1
f 55//1 58//1 57//1
f 55//1 57//1 56//1
f 38//1 49//1 48//1
f 39//1 38//1 48//1
f 39//1 48//1 47//1
f 40//1 39//1 47//1
f 41//1 40//1 47//1
f 41//1 47//1 46//1
f 42//1 41//1 46//1
f 43//1 42//1 46//1
f 44//1 43//1 46//1
f 45//1 44//1 46//1
f 113//2 112//2 148//2
f 163//2 112//2 113//2
f 99//2 153//2 98//2
f 169//2 112//2 163//2
f 138//2 112//2 169//2
f 138//2 144//2 112//2
f 99//2 134//2 153//2
f 129//2 134//2 99//2
f 146//2 134//2 129//2
f 138//2 172//2 144//2
f 154//2 172//2 138//2
f 154//2 165//2 172//2
f 134//3 165//3 154//3
f 146//2 165//2 134//2
f 142//2 165//2 146//2
f 142//2 141//2 165//2
f 142//2 143//2 141//2
f 142//2 147//2 143//2
f 142//2 170//2 147//2
f 142//2 151//2 170//2
f 142//2 127//2 151//2
f 102//2 127//2 142//2
f 102//2 126//2 127//2
f 102//2 137//2 126//2
f 102//2 136//2 137//2
f 102//2 159//2 136//2
f 102//2 140//2 159//2
f 102//2 109//2 140//2
f 102//2 108//2 109//2
f 102//2 171//2 108//2
f 103//2 171//2 102//2
f 103//2 118//2 171//2
f 121//2 118//2 103//2
f 162//2 118//2 121//2
f 104//2 118//2 162//2
f 104//2 150//2 118//2
f 104//2 157//2 150//2
f 104//2 105//2 157//2
f 104//2 117//2 105//2
f 104//2 158//2 117//2
f 104//2 131//2 158//2
f 104//2 130//2 131//2
f 104//2 114//2 130//2
f 104//2 125//2 114//2
f 122//2 125//2 104//2
f 122//2 155//2 125//2
f 122//2 166//2 155//2
f 122//2 101//2 166//2
f 122//2 100//2 101//2
f 122//2 139//2 100//2
f 122//2 164//2 139//2
f 122//2 145//2 164//2
f 122//2 107//2 145//2
f 106//2 107//2 122//2
f 135//2 107//2 106//2
f 135//2 133//2 107//2
f 135//2 132//2 133//2
f 110//2 132//2 135//2
f 115//2 107//2 133//2
f 115//2 116//2 107//2
f 110//2 149//2 132//2
f 110//2 111//2 149//2
f 160//2 116//2 115//2
f 160//2 168//2 116//2
f 156//2 111//2 110//2
f 95//2 168//2 160//2
f 95//2 94//2 168//2
f 95//2 93//2 94//2
f 156//2 128//2 111//2
f 119//2 128//2 156//2
f 119//2 124//2 128//2
f 120//2 124//2 119//2
f 123//2 124//2 120//2
f 123//2 152//2 124//2
f 161//2 152//2 123//2
f 167//2 152//2 161//2
f 96//2 152//2 167//2
f 97//2 152//2 96//2
f 16//4 17//4 113//4 148//4
f 34//5 35//5 106//5 122//5
f 65//6 66//6 166//6 101//6
f 28//7 29//7 102//7 142//7
f 49//8 50//8 149//8 111//8
f 39//9 40//9 120//9 119//9
f 22//10 23//10 153//10 134//10
f 77//11 90//11 171//11 118//11
f 30//12 31//12 121//12 103//12
f 31//13 32//13 162//13 121//13
f 8//14 9//14 147//14 170//14
f 72//15 73//15 117//15 158//15
f 6//16 7//16 151//16 127//16
f 43//17 44//17 96//17 167//17
f 33//18 34//18 122//18 104//18
f 52//19 53//19 115//19 133//19
f 50//20 51//20 132//20 149//20
f 32//21 33//21 104//21 162//21
f 75//22 76//22 150//22 157//22
f 15//23 16//23 148//23 112//23
f 2//24 3//24 136//24 159//24
f 23//25 24//25 98//25 153//25
f 17//26 18//26 163//26 113//26
f 5//27 6//27 127//27 126//27
f 45//28 46//28 152//28 97//28
f 62//29 63//29 139//29 164//29
f 21//30 22//30 134//30 154//30
f 68//31 69//31 114//31 125//31
f 47//32 48//32 128//32 124//32
f 4//33 5//33 126//33 137//33
f 67//34 68//34 125//34 155//34
f 13//35 14//35 144//35 172//35
f 25//36 26//36 129//36 99//36
f 40//37 41//37 123//37 120//37
f 69//38 70//38 130//38 114//38
f 70//39 71//39 131//39 130//39
f 56//40 57//40 94//40 93//40
f 37//41 38//41 156//41 110//41
f 20//42 21//42 154//42 138//42
f 74//43 75//43 157//43 105//43
f 51//44 52//44 133//44 132//44
f 44//45 45//45 97//45 96//45
f 18//46 19//46 169//46 163//46
f 11//47 12//47 165//47 141//47
f 9//48 10//48 143//48 147//48
f 24//49 25//49 99//49 98//49
f 90//50 91//50 108//50 171//50
f 26//51 27//51 146//51 129//51
f 35//52 36//52 135//52 106//52
f 64//53 65//53 101//53 100//53
f 3//54 4//54 137//54 136//54
f 7//55 8//55 170//55 151//55
f 29//56 30//56 103//56 102//56
f 41//57 42//57 161//57 123//57
f 63//58 64//58 100//58 139//58
f 58//59 59//59 116//59 168//59
f 48//60 49//60 111//60 128//60
f 66//61 67//61 155//61 166//61
f 91//62 92//62 109//62 108//62
f 12//63 13//63 172//63 165//63
f 38//64 39//64 119//64 156//64
f 92//65 1//65 140//65 109//65
f 46//66 47//66 124//66 152//66
f 55//67 56//67 93//67 95//67
f 59//68 60//68 107//68 116//68
f 42//69 43//69 167//69 161//69
f 1//70 2//70 159//70 140//70
f 10//71 11//71 141//71 143//71
f 54//72 55//72 95//72 160//72
f 14//73 15//73 112//73 144//73
f 36//74 37//74 110//74 135//74
f 71//75 72//75 158//75 131//75
f 53//76 54//76 160//76 115//76
f 60//77 61//77 145//77 107//77
f 61//78 62//78 164//78 145//78
f 76//79 77//79 118//79 150//79
f 27//80 28//80 142//80 146//80
f 73//81 74//81 105//81 117//81
f 57//82 58//82 168//82 94//82
f 19//83 20//83 138//83 169//83
