# Blender v2.79 (sub 0) OBJ File: 'menu.blend'
# www.blender.org
mtllib cambodia.mtl
o cambbodia_Curve.060_CUCurve.5019
v 16.684797 -0.000002 11.961142
v 16.693760 -0.000002 11.955668
v 16.694189 -0.000002 11.965934
v 16.627829 -0.000002 11.960388
v 16.636566 -0.000002 11.959758
v 16.645441 -0.000002 11.960917
v 16.620543 -0.000002 11.963284
v 16.653296 -0.000002 11.963497
v 16.677408 -0.000002 11.963872
v 16.468906 -0.000002 11.963055
v 16.478470 -0.000002 11.961967
v 16.485037 -0.000002 11.962433
v 16.543098 -0.000002 11.961795
v 16.556824 -0.000002 11.961800
v 16.563290 -0.000002 11.963903
v 16.512798 -0.000002 11.965783
v 16.568394 -0.000002 11.968474
v 16.498091 -0.000002 11.965923
v 16.660467 -0.000002 11.965388
v 16.458317 -0.000002 11.966625
v 16.670233 -0.000002 11.965252
v 16.616907 -0.000002 11.967139
v 16.448151 -0.000002 11.971688
v 16.615227 -0.000002 11.971010
v 16.574568 -0.000002 11.973741
v 16.696880 -0.000002 11.983727
v 16.434649 -0.000002 11.981292
v 16.581770 -0.000002 11.977651
v 16.614012 -0.000002 11.981965
v 16.592989 -0.000002 11.982542
v 16.596947 -0.000002 11.985175
v 16.610851 -0.000002 11.988854
v 16.422287 -0.000002 11.993302
v 16.598028 -0.000002 11.987386
v 16.597567 -0.000002 11.991806
v 16.701103 -0.000002 11.999146
v 16.606354 -0.000002 11.993325
v 16.598532 -0.000002 11.994247
v 16.601749 -0.000002 11.995138
v 16.409594 -0.000002 12.009506
v 16.705833 -0.000002 12.011486
v 16.406750 -0.000002 12.014259
v 16.405296 -0.000002 12.018521
v 16.711218 -0.000002 12.021986
v 16.405077 -0.000002 12.022254
v 16.406326 -0.000002 12.027134
v 16.717775 -0.000002 12.034085
v 16.414434 -0.000002 12.040569
v 16.719433 -0.000002 12.041407
v 16.718876 -0.000002 12.048062
v 16.416834 -0.000002 12.048943
v 16.716467 -0.000002 12.054131
v 16.712568 -0.000002 12.059689
v 16.417477 -0.000002 12.060079
v 16.704607 -0.000002 12.067524
v 16.418636 -0.000002 12.067027
v 16.421030 -0.000002 12.073645
v 16.680202 -0.000002 12.084905
v 16.425617 -0.000002 12.082631
v 16.427002 -0.000002 12.087874
v 16.674030 -0.000002 12.090916
v 16.426689 -0.000002 12.092656
v 16.669579 -0.000002 12.097298
v 16.425669 -0.000002 12.096560
v 16.425669 -0.000002 12.099380
v 16.430689 -0.000002 12.101888
v 16.434553 -0.000002 12.105102
v 16.662315 -0.000002 12.112354
v 16.437397 -0.000002 12.108903
v 16.440020 -0.000002 12.114983
v 16.657480 -0.000002 12.119103
v 16.441338 -0.000002 12.124470
v 16.614851 -0.000002 12.120296
v 16.652077 -0.000002 12.122686
v 16.609118 -0.000002 12.120818
v 16.606560 -0.000002 12.123145
v 16.632853 -0.000002 12.124038
v 16.647041 -0.000002 12.124248
v 16.606295 -0.000002 12.126971
v 16.640711 -0.000002 12.124750
v 16.608505 -0.000002 12.133944
v 16.441086 -0.000002 12.133594
v 16.439684 -0.000002 12.149710
v 16.620283 -0.000002 12.155967
v 16.440825 -0.000002 12.153838
v 16.442486 -0.000002 12.156467
v 16.475435 -0.000002 12.155953
v 16.469284 -0.000002 12.156180
v 16.476994 -0.000002 12.157330
v 16.444675 -0.000002 12.158195
v 16.623228 -0.000002 12.163301
v 16.455326 -0.000002 12.159174
v 16.477287 -0.000002 12.160044
v 16.448345 -0.000002 12.159416
v 16.624199 -0.000002 12.168566
v 16.473402 -0.000002 12.172742
v 16.562538 -0.000002 12.168825
v 16.569834 -0.000002 12.168912
v 16.623228 -0.000002 12.172745
v 16.559433 -0.000002 12.170051
v 16.558008 -0.000002 12.174242
v 16.599741 -0.000002 12.175447
v 16.620176 -0.000002 12.175439
v 16.472843 -0.000002 12.179344
v 16.556267 -0.000002 12.178054
v 16.615482 -0.000002 12.176663
v 16.609516 -0.000002 12.176713
v 16.549679 -0.000002 12.184669
v 16.474262 -0.000002 12.183871
v 16.476471 -0.000002 12.186852
v 16.516090 -0.000002 12.184975
v 16.508385 -0.000002 12.185376
v 16.519768 -0.000002 12.186870
v 16.479622 -0.000002 12.189010
v 16.521599 -0.000002 12.189677
v 16.492977 -0.000002 12.189290
v 16.538876 -0.000002 12.191828
v 16.484715 -0.000002 12.190212
v 16.522152 -0.000002 12.191993
v 16.527311 -0.000002 12.198193
v 16.524019 -0.000002 12.194734
v 16.684797 0.049998 11.961142
v 16.694189 0.049998 11.965934
v 16.693760 0.049998 11.955668
v 16.627829 0.049998 11.960388
v 16.645441 0.049998 11.960917
v 16.636566 0.049998 11.959758
v 16.620543 0.049998 11.963284
v 16.653296 0.049998 11.963497
v 16.677408 0.049998 11.963872
v 16.468906 0.049998 11.963055
v 16.485037 0.049998 11.962433
v 16.478470 0.049998 11.961967
v 16.543098 0.049998 11.961795
v 16.563290 0.049998 11.963903
v 16.556824 0.049998 11.961800
v 16.512798 0.049998 11.965783
v 16.568394 0.049998 11.968474
v 16.498091 0.049998 11.965923
v 16.660467 0.049998 11.965388
v 16.458317 0.049998 11.966625
v 16.670233 0.049998 11.965252
v 16.616907 0.049998 11.967139
v 16.448151 0.049998 11.971688
v 16.615227 0.049998 11.971010
v 16.574568 0.049998 11.973741
v 16.696880 0.049998 11.983727
v 16.434649 0.049998 11.981292
v 16.581770 0.049998 11.977651
v 16.614012 0.049998 11.981965
v 16.592989 0.049998 11.982542
v 16.596947 0.049998 11.985175
v 16.610851 0.049998 11.988854
v 16.422287 0.049998 11.993302
v 16.598028 0.049998 11.987386
v 16.597567 0.049998 11.991806
v 16.701103 0.049998 11.999146
v 16.606354 0.049998 11.993325
v 16.598532 0.049998 11.994247
v 16.601749 0.049998 11.995138
v 16.409594 0.049998 12.009506
v 16.705833 0.049998 12.011486
v 16.406750 0.049998 12.014259
v 16.405296 0.049998 12.018521
v 16.711218 0.049998 12.021986
v 16.405077 0.049998 12.022254
v 16.406326 0.049998 12.027134
v 16.717775 0.049998 12.034085
v 16.414434 0.049998 12.040569
v 16.719433 0.049998 12.041407
v 16.718876 0.049998 12.048062
v 16.416834 0.049998 12.048943
v 16.716467 0.049998 12.054131
v 16.712568 0.049998 12.059689
v 16.417477 0.049998 12.060079
v 16.704607 0.049998 12.067524
v 16.418636 0.049998 12.067027
v 16.421030 0.049998 12.073645
v 16.680202 0.049998 12.084905
v 16.425617 0.049998 12.082631
v 16.427002 0.049998 12.087874
v 16.674030 0.049998 12.090916
v 16.426689 0.049998 12.092656
v 16.669579 0.049998 12.097298
v 16.425669 0.049998 12.096560
v 16.425669 0.049998 12.099380
v 16.430689 0.049998 12.101888
v 16.434553 0.049998 12.105102
v 16.662315 0.049998 12.112354
v 16.437397 0.049998 12.108903
v 16.440020 0.049998 12.114983
v 16.657480 0.049998 12.119103
v 16.441338 0.049998 12.124470
v 16.614851 0.049998 12.120296
v 16.652077 0.049998 12.122686
v 16.609118 0.049998 12.120818
v 16.606560 0.049998 12.123145
v 16.632853 0.049998 12.124038
v 16.647041 0.049998 12.124248
v 16.606295 0.049998 12.126971
v 16.640711 0.049998 12.124750
v 16.608505 0.049998 12.133944
v 16.441086 0.049998 12.133594
v 16.439684 0.049998 12.149710
v 16.620283 0.049998 12.155967
v 16.440825 0.049998 12.153838
v 16.442486 0.049998 12.156467
v 16.475435 0.049998 12.155953
v 16.469284 0.049998 12.156180
v 16.476994 0.049998 12.157330
v 16.444675 0.049998 12.158195
v 16.623228 0.049998 12.163301
v 16.455326 0.049998 12.159174
v 16.477287 0.049998 12.160044
v 16.448345 0.049998 12.159416
v 16.624199 0.049998 12.168566
v 16.473402 0.049998 12.172742
v 16.562538 0.049998 12.168825
v 16.569834 0.049998 12.168912
v 16.623228 0.049998 12.172745
v 16.559433 0.049998 12.170051
v 16.558008 0.049998 12.174242
v 16.599741 0.049998 12.175447
v 16.620176 0.049998 12.175439
v 16.472843 0.049998 12.179344
v 16.556267 0.049998 12.178054
v 16.615482 0.049998 12.176663
v 16.609516 0.049998 12.176713
v 16.549679 0.049998 12.184669
v 16.474262 0.049998 12.183871
v 16.476471 0.049998 12.186852
v 16.516090 0.049998 12.184975
v 16.508385 0.049998 12.185376
v 16.519768 0.049998 12.186870
v 16.479622 0.049998 12.189010
v 16.521599 0.049998 12.189677
v 16.492977 0.049998 12.189290
v 16.538876 0.049998 12.191828
v 16.484715 0.049998 12.190212
v 16.522152 0.049998 12.191993
v 16.527311 0.049998 12.198193
v 16.524019 0.049998 12.194734
vn -0.0000 -1.0000 -0.0000
vn 0.0000 1.0000 -0.0000
vn 0.0000 1.0000 -0.0001
vn 0.2462 0.0000 0.9692
vn -0.8453 0.0000 0.5343
vn 0.0907 0.0000 0.9959
vn 0.7015 0.0000 0.7127
vn -0.6618 0.0000 0.7497
vn -1.0000 0.0000 0.0000
vn -0.5796 0.0000 -0.8149
vn 0.8129 0.0000 0.5824
vn -0.0720 0.0000 -0.9974
vn 0.1296 0.0000 -0.9916
vn -0.7872 0.0000 -0.6167
vn -0.7244 0.0000 0.6894
vn 0.2098 0.0000 0.9778
vn 0.9280 0.0000 -0.3726
vn -0.8907 0.0000 0.4546
vn -0.0139 0.0000 -0.9999
vn -0.9639 0.0000 0.2662
vn -0.8377 0.0000 0.5461
vn 0.4771 0.0000 -0.8788
vn -0.8008 0.0000 0.5989
vn -0.9613 0.0000 0.2755
vn 0.9976 0.0000 0.0691
vn -0.8581 0.0000 -0.5135
vn 0.5539 0.0000 -0.8326
vn -0.7275 0.0000 -0.6861
vn 0.5527 0.0000 0.8334
vn 0.3120 0.0000 -0.9501
vn -0.9465 0.0000 -0.3226
vn 0.9741 0.0000 0.2263
vn -0.1889 0.0000 -0.9820
vn -0.2296 0.0000 0.9733
vn 0.8792 0.0000 -0.4765
vn 0.0003 0.0000 -1.0000
vn 0.9007 0.0000 0.4345
vn 0.5801 0.0000 0.8145
vn -0.4466 -0.0000 0.8947
vn -0.4579 0.0000 0.8890
vn -0.3693 0.0000 -0.9293
vn 0.9888 0.0000 -0.1496
vn -0.9562 0.0000 -0.2926
vn -0.9939 0.0000 -0.1102
vn 0.0792 0.0000 0.9969
vn 0.2549 0.0000 -0.9670
vn 0.2667 0.0000 -0.9638
vn 0.8982 0.0000 -0.4395
vn 0.2526 0.0000 0.9676
vn -0.3466 0.0000 -0.9380
vn 0.0346 0.0000 0.9994
vn 0.0710 0.0000 -0.9975
vn 0.7085 0.0000 0.7057
vn -0.9979 0.0000 -0.0653
vn -0.9996 0.0000 -0.0276
vn -0.8264 0.0000 0.5631
vn -0.3156 -0.0000 0.9489
vn 0.6490 0.0000 -0.7607
vn -0.0118 0.0000 0.9999
vn -0.9964 0.0000 -0.0843
vn 0.9946 0.0000 0.1039
vn 0.8898 0.0000 -0.4563
vn -0.6194 0.0000 0.7851
vn -0.9983 0.0000 -0.0587
vn 0.3094 0.0000 -0.9509
vn 0.3996 0.0000 -0.9167
vn 0.2583 0.0000 -0.9661
vn -0.1305 0.0000 -0.9914
vn -0.9983 0.0000 0.0576
vn 0.8187 0.0000 0.5743
vn -0.1130 0.0000 -0.9936
vn -0.0903 0.0000 0.9959
vn -0.9669 0.0000 0.2553
vn -0.9089 0.0000 -0.4170
vn -0.0095 0.0000 -1.0000
vn -0.6394 0.0000 0.7688
vn 0.8202 0.0000 0.5721
vn 0.9300 0.0000 -0.3675
vn 0.9753 0.0000 -0.2208
vn 0.0082 0.0000 1.0000
vn -0.9687 0.0000 0.2480
vn -0.9542 0.0000 0.2992
vn 0.4822 0.0000 0.8761
vn -0.4458 0.0000 -0.8951
vn 0.9096 0.0000 0.4155
vn 0.9965 0.0000 0.0834
vn -0.9962 0.0000 -0.0867
vn 0.9337 0.0000 -0.3579
vn 0.3671 0.0000 0.9302
vn -0.8035 0.0000 0.5953
vn -0.9182 0.0000 0.3961
vn 0.6671 0.0000 -0.7450
vn 0.0521 0.0000 0.9986
vn -0.9864 0.0000 0.1646
vn 0.9991 0.0000 -0.0418
vn 0.9645 0.0000 -0.2641
vn 0.5524 0.0000 0.8336
vn -0.5650 0.0000 0.8251
vn -0.9942 0.0000 0.1076
vn -0.5212 0.0000 -0.8535
vn -0.3195 0.0000 -0.9476
vn 0.9532 0.0000 -0.3022
vn 0.0368 0.0000 0.9993
vn -0.7051 0.0000 -0.7091
vn 0.6729 0.0000 0.7397
vn -0.6969 0.0000 -0.7172
vn 0.2960 0.0000 0.9552
vn -0.9675 0.0000 -0.2529
vn 0.6618 0.0000 0.7497
vn 0.8818 0.0000 -0.4716
vn 0.1108 0.0000 0.9938
vn -0.9905 0.0000 0.1376
vn -0.2035 0.0000 0.9791
vn 0.9295 0.0000 0.3689
vn -0.9173 0.0000 -0.3981
vn -0.1284 0.0000 0.9917
vn -0.9404 0.0000 0.3402
vn 0.9834 0.0000 -0.1814
vn -0.9726 0.0000 0.2324
vn -0.3662 0.0000 -0.9305
vn -0.2135 0.0000 0.9769
vn 0.6977 0.0000 0.7164
vn 0.9468 0.0000 0.3218
vn -0.8562 0.0000 0.5166
usemtl SVGMat.009
s 1
f 1//1 2//1 3//1
f 4//1 5//1 6//1
f 7//1 4//1 6//1
f 7//1 6//1 8//1
f 9//1 1//1 3//1
f 10//1 11//1 12//1
f 13//1 14//1 15//1
f 16//1 13//1 15//1
f 16//1 15//1 17//1
f 10//1 12//1 18//1
f 7//1 8//1 19//1
f 20//1 10//1 18//1
f 21//1 9//1 3//1
f 22//1 7//1 19//1
f 19//1 21//1 3//1
f 22//1 19//1 3//1
f 18//1 16//1 17//1
f 20//1 18//1 17//1
f 23//1 20//1 17//1
f 24//1 22//1 3//1
f 23//1 17//1 25//1
f 24//1 3//1 26//1
f 27//1 23//1 25//1
f 27//1 25//1 28//1
f 29//1 24//1 26//1
f 27//1 28//1 30//1
f 27//1 30//1 31//1
f 32//1 29//1 26//1
f 33//1 27//1 31//1
f 33//1 31//1 34//1
f 33//1 34//1 35//1
f 32//1 26//1 36//1
f 37//1 32//1 36//1
f 33//1 35//1 38//1
f 39//1 37//1 36//1
f 33//1 38//1 39//1
f 33//1 39//1 36//1
f 40//1 33//1 36//1
f 40//1 36//1 41//1
f 42//1 40//1 41//1
f 43//1 42//1 41//1
f 43//1 41//1 44//1
f 45//1 43//1 44//1
f 46//1 45//1 44//1
f 46//1 44//1 47//1
f 48//1 46//1 47//1
f 48//1 47//1 49//1
f 48//1 49//1 50//1
f 51//1 48//1 50//1
f 51//1 50//1 52//1
f 51//1 52//1 53//1
f 54//1 51//1 53//1
f 54//1 53//1 55//1
f 56//1 54//1 55//1
f 57//1 56//1 55//1
f 57//1 55//1 58//1
f 59//1 57//1 58//1
f 60//1 59//1 58//1
f 60//1 58//1 61//1
f 62//1 60//1 61//1
f 62//1 61//1 63//1
f 64//1 62//1 63//1
f 65//1 64//1 63//1
f 66//1 65//1 63//1
f 67//1 66//1 63//1
f 67//1 63//1 68//1
f 69//1 67//1 68//1
f 70//1 69//1 68//1
f 70//1 68//1 71//1
f 72//1 70//1 73//1
f 73//1 70//1 71//1
f 73//1 71//1 74//1
f 72//1 73//1 75//1
f 72//1 75//1 76//1
f 77//1 73//1 74//1
f 77//1 74//1 78//1
f 72//1 76//1 79//1
f 80//1 77//1 78//1
f 72//1 79//1 81//1
f 82//1 72//1 81//1
f 83//1 82//1 81//1
f 83//1 81//1 84//1
f 85//1 83//1 84//1
f 86//1 85//1 87//1
f 87//1 85//1 84//1
f 86//1 87//1 88//1
f 89//1 87//1 84//1
f 90//1 86//1 88//1
f 89//1 84//1 91//1
f 90//1 88//1 92//1
f 93//1 89//1 91//1
f 94//1 90//1 92//1
f 93//1 91//1 95//1
f 96//1 93//1 97//1
f 97//1 93//1 98//1
f 98//1 93//1 95//1
f 98//1 95//1 99//1
f 96//1 97//1 100//1
f 96//1 100//1 101//1
f 102//1 98//1 99//1
f 102//1 99//1 103//1
f 104//1 96//1 101//1
f 104//1 101//1 105//1
f 102//1 103//1 106//1
f 107//1 102//1 106//1
f 104//1 105//1 108//1
f 109//1 104//1 108//1
f 110//1 109//1 111//1
f 111//1 109//1 108//1
f 110//1 111//1 112//1
f 113//1 111//1 108//1
f 114//1 110//1 112//1
f 115//1 113//1 108//1
f 114//1 112//1 116//1
f 115//1 108//1 117//1
f 118//1 114//1 116//1
f 119//1 115//1 117//1
f 119//1 117//1 120//1
f 121//1 119//1 120//1
f 122//2 123//2 124//2
f 125//2 126//2 127//2
f 128//2 126//2 125//2
f 128//2 129//2 126//2
f 130//2 123//2 122//2
f 131//2 132//2 133//2
f 134//2 135//2 136//2
f 137//2 135//2 134//2
f 137//2 138//2 135//2
f 131//2 139//2 132//2
f 128//2 140//2 129//2
f 141//2 139//2 131//2
f 142//2 123//2 130//2
f 143//2 140//2 128//2
f 140//2 123//2 142//2
f 143//2 123//2 140//2
f 139//2 138//2 137//2
f 141//2 138//2 139//2
f 144//2 138//2 141//2
f 145//2 123//2 143//2
f 144//2 146//2 138//2
f 145//2 147//2 123//2
f 148//2 146//2 144//2
f 148//2 149//2 146//2
f 150//2 147//2 145//2
f 148//2 151//2 149//2
f 148//2 152//2 151//2
f 153//2 147//2 150//2
f 154//2 152//2 148//2
f 154//2 155//2 152//2
f 154//2 156//2 155//2
f 153//2 157//2 147//2
f 158//2 157//2 153//2
f 154//2 159//2 156//2
f 160//2 157//2 158//2
f 154//2 160//2 159//2
f 154//2 157//2 160//2
f 161//2 157//2 154//2
f 161//2 162//2 157//2
f 163//2 162//2 161//2
f 164//2 162//2 163//2
f 164//2 165//2 162//2
f 166//2 165//2 164//2
f 167//2 165//2 166//2
f 167//2 168//2 165//2
f 169//2 168//2 167//2
f 169//2 170//2 168//2
f 169//2 171//2 170//2
f 172//2 171//2 169//2
f 172//2 173//2 171//2
f 172//2 174//2 173//2
f 175//2 174//2 172//2
f 175//2 176//2 174//2
f 177//2 176//2 175//2
f 178//2 176//2 177//2
f 178//2 179//2 176//2
f 180//2 179//2 178//2
f 181//2 179//2 180//2
f 181//2 182//2 179//2
f 183//2 182//2 181//2
f 183//2 184//2 182//2
f 185//2 184//2 183//2
f 186//2 184//2 185//2
f 187//2 184//2 186//2
f 188//2 184//2 187//2
f 188//2 189//2 184//2
f 190//2 189//2 188//2
f 191//2 189//2 190//2
f 191//2 192//2 189//2
f 193//2 194//2 191//2
f 194//2 192//2 191//2
f 194//2 195//2 192//2
f 193//2 196//2 194//2
f 193//2 197//2 196//2
f 198//2 195//2 194//2
f 198//2 199//2 195//2
f 193//2 200//2 197//2
f 201//2 199//2 198//2
f 193//2 202//2 200//2
f 203//2 202//2 193//2
f 204//2 202//2 203//2
f 204//2 205//2 202//2
f 206//2 205//2 204//2
f 207//2 208//2 206//2
f 208//2 205//2 206//2
f 207//2 209//2 208//2
f 210//2 205//2 208//2
f 211//2 209//2 207//2
f 210//2 212//2 205//2
f 211//2 213//2 209//2
f 214//2 212//2 210//2
f 215//2 213//2 211//2
f 214//2 216//2 212//2
f 217//2 218//2 214//2
f 218//2 219//2 214//2
f 219//2 216//2 214//2
f 219//2 220//2 216//2
f 217//2 221//2 218//2
f 217//2 222//2 221//2
f 223//2 220//2 219//2
f 223//2 224//2 220//2
f 225//2 222//2 217//2
f 225//2 226//2 222//2
f 223//2 227//2 224//2
f 228//2 227//2 223//2
f 225//2 229//2 226//2
f 230//2 229//2 225//2
f 231//2 232//2 230//2
f 232//2 229//2 230//2
f 231//2 233//3 232//2
f 234//2 229//2 232//2
f 235//2 233//3 231//2
f 236//2 229//2 234//2
f 235//2 237//2 233//3
f 236//2 238//2 229//2
f 239//2 237//2 235//2
f 240//2 238//2 236//2
f 240//2 241//2 238//2
f 242//2 241//2 240//2
f 116//4 112//4 233//4 237//4
f 85//5 86//5 207//5 206//5
f 75//6 73//6 194//6 196//6
f 55//7 53//7 174//7 176//7
f 87//8 89//8 210//8 208//8
f 64//9 65//9 186//9 185//9
f 23//10 27//10 148//10 144//10
f 71//11 68//11 189//11 192//11
f 5//12 4//12 125//12 127//12
f 6//13 5//13 127//13 126//13
f 33//14 40//14 161//14 154//14
f 121//15 120//15 241//15 242//15
f 92//16 88//16 209//16 213//16
f 91//17 84//17 205//17 212//17
f 57//18 59//18 180//18 178//18
f 21//19 19//19 140//19 142//19
f 83//20 85//20 206//20 204//20
f 113//21 115//21 236//21 234//21
f 28//22 25//22 146//22 149//22
f 67//23 69//23 190//23 188//23
f 48//24 51//24 172//24 169//24
f 79//25 76//25 197//25 200//25
f 40//26 42//26 163//26 161//26
f 31//27 30//27 151//27 152//27
f 7//28 22//28 143//28 128//28
f 74//29 71//29 192//29 195//29
f 8//30 6//30 126//30 129//30
f 42//31 43//31 164//31 163//31
f 99//32 95//32 216//32 220//32
f 9//33 21//33 142//33 130//33
f 114//34 118//34 239//34 235//34
f 47//35 44//35 165//35 168//35
f 14//36 13//36 134//36 136//36
f 68//37 63//37 184//37 189//37
f 58//38 55//38 176//38 179//38
f 65//39 66//39 187//39 186//39
f 111//40 113//40 234//40 232//40
f 4//41 7//41 128//41 125//41
f 26//42 3//42 123//42 147//42
f 93//43 96//43 217//43 214//43
f 24//44 29//44 150//44 145//44
f 80//45 78//45 199//45 201//45
f 19//46 8//46 129//46 140//46
f 39//47 38//47 159//47 160//47
f 34//48 31//48 152//48 155//48
f 106//49 103//49 224//49 227//49
f 1//50 9//50 130//50 122//50
f 94//51 92//51 213//51 215//51
f 12//52 11//52 133//52 132//52
f 108//53 105//53 226//53 229//53
f 60//54 62//54 183//54 181//54
f 72//55 82//55 203//55 193//55
f 119//56 121//56 242//56 240//56
f 90//57 94//57 215//57 211//57
f 25//58 17//58 138//58 146//58
f 97//59 98//59 219//59 218//59
f 96//60 104//60 225//60 217//60
f 35//61 34//61 155//61 156//61
f 44//62 41//62 162//62 165//62
f 86//63 90//63 211//63 207//63
f 43//64 45//64 166//64 164//64
f 15//65 14//65 136//65 135//65
f 30//66 28//66 149//66 151//66
f 18//67 12//67 132//67 139//67
f 13//68 16//68 137//68 134//68
f 51//69 54//69 175//69 172//69
f 53//70 52//70 173//70 174//70
f 11//71 10//71 131//71 133//71
f 77//72 80//72 201//72 198//72
f 59//73 60//73 181//73 180//73
f 29//74 32//74 153//74 150//74
f 16//75 18//75 139//75 137//75
f 66//76 67//76 188//76 187//76
f 63//77 61//77 182//77 184//77
f 38//78 35//78 156//78 159//78
f 49//79 47//79 168//79 170//79
f 107//80 106//80 227//80 228//80
f 45//81 46//81 167//81 166//81
f 104//82 109//82 230//82 225//82
f 120//83 117//83 238//83 241//83
f 20//84 23//84 144//84 141//84
f 105//85 101//85 222//85 226//85
f 50//86 49//86 170//86 171//86
f 82//87 83//87 204//87 203//87
f 41//88 36//88 157//88 162//88
f 100//89 97//89 218//89 221//89
f 109//90 110//90 231//90 230//90
f 69//91 70//91 191//91 190//91
f 17//92 15//92 135//92 138//92
f 112//93 111//93 232//93 233//93
f 54//94 56//94 177//94 175//94
f 3//95 2//95 124//95 123//95
f 36//96 26//96 147//96 157//96
f 117//97 108//97 229//97 238//97
f 110//98 114//98 235//98 231//98
f 89//99 93//99 214//99 210//99
f 2//100 1//100 122//100 124//100
f 10//101 20//101 141//101 131//101
f 81//102 79//102 200//102 202//102
f 88//103 87//103 208//103 209//103
f 32//104 37//104 158//104 153//104
f 76//105 75//105 196//105 197//105
f 27//106 33//106 154//106 148//106
f 78//107 74//107 195//107 199//107
f 62//108 64//108 185//108 183//108
f 103//109 99//109 220//109 224//109
f 84//110 81//110 202//110 205//110
f 118//111 116//111 237//111 239//111
f 70//112 72//112 193//112 191//112
f 73//113 77//113 198//113 194//113
f 52//114 50//114 171//114 173//114
f 22//115 24//115 145//115 143//115
f 102//116 107//116 228//116 223//116
f 56//117 57//117 178//117 177//117
f 95//118 91//118 212//118 216//118
f 115//119 119//119 240//119 236//119
f 37//120 39//120 160//120 158//120
f 98//121 102//121 223//121 219//121
f 61//122 58//122 179//122 182//122
f 101//123 100//123 221//123 222//123
f 46//124 48//124 169//124 167//124
