# Blender v2.79 (sub 0) OBJ File: 'world_countrycodes_export2.blend'
# www.blender.org
mtllib CH.mtl
o CH.002_CUCurve.1802
v 1.017375 0.000000 0.361077
v 1.016092 0.000000 0.360504
v 1.015271 0.000000 0.359638
v 1.015115 0.000000 0.358241
v 1.015230 0.000000 0.357047
v 1.013212 0.000000 0.356090
v 1.011353 0.000000 0.355388
v 1.010338 0.000000 0.355242
v 1.009338 0.000000 0.355318
v 1.008002 0.000000 0.355806
v 1.005686 0.000000 0.356120
v 1.003265 0.000000 0.355968
v 1.003241 0.000000 0.356198
v 1.003050 0.000000 0.356580
v 1.002707 0.000000 0.356776
v 1.001863 0.000000 0.356930
v 1.001125 0.000000 0.357268
v 1.000488 0.000000 0.357777
v 0.999891 0.000000 0.358592
v 0.999379 0.000000 0.359852
v 0.996999 0.000000 0.362075
v 0.995943 0.000000 0.363804
v 0.995584 0.000000 0.365378
v 0.995656 0.000000 0.366083
v 0.995947 0.000000 0.366242
v 0.996354 0.000000 0.366045
v 0.997164 0.000000 0.365191
v 0.997789 0.000000 0.364838
v 0.998588 0.000000 0.364791
v 0.999192 0.000000 0.365342
v 0.999356 0.000000 0.366335
v 1.000262 0.000000 0.367444
v 1.000411 0.000000 0.368144
v 1.000303 0.000000 0.368673
v 1.005342 0.000000 0.368320
v 1.005844 0.000000 0.367982
v 1.006596 0.000000 0.366925
v 1.007901 0.000000 0.364341
v 1.008156 0.000000 0.364295
v 1.008613 0.000000 0.364739
v 1.010183 0.000000 0.367049
v 1.011060 0.000000 0.368084
v 1.011639 0.000000 0.368489
v 1.012128 0.000000 0.368447
v 1.012606 0.000000 0.367487
v 1.012755 0.000000 0.365694
v 1.013439 0.000000 0.365094
v 1.014325 0.000000 0.364933
v 1.015456 0.000000 0.365122
v 1.016601 0.000000 0.365145
v 1.017262 0.000000 0.364783
v 1.017460 0.000000 0.363758
v 1.017983 0.000000 0.363507
v 1.019149 0.000000 0.363641
v 1.019635 0.000000 0.363185
v 1.019890 0.000000 0.362301
v 1.020995 0.000000 0.361281
v 1.020064 0.000000 0.360860
v 1.018761 0.000000 0.360756
v 1.013212 0.050000 0.356090
v 1.005686 0.050000 0.356120
v 1.015115 0.050000 0.358241
v 0.999891 0.050000 0.358592
v 0.999192 0.050000 0.365342
v 0.999356 0.050000 0.366335
v 1.015271 0.050000 0.359638
v 0.999379 0.050000 0.359852
v 0.995943 0.050000 0.363804
v 0.995584 0.050000 0.365378
v 0.997164 0.050000 0.365191
v 1.012606 0.050000 0.367487
v 1.012755 0.050000 0.365694
v 1.017375 0.050000 0.361077
v 1.020064 0.050000 0.360860
v 1.008156 0.050000 0.364295
v 1.017262 0.050000 0.364783
v 1.008002 0.050000 0.355806
v 1.003050 0.050000 0.356580
v 1.008613 0.050000 0.364739
v 1.014325 0.050000 0.364933
v 1.016092 0.050000 0.360504
v 1.017460 0.050000 0.363758
v 0.996999 0.050000 0.362075
v 1.019635 0.050000 0.363185
v 1.018761 0.050000 0.360756
v 1.003241 0.050000 0.356198
v 1.007901 0.050000 0.364341
v 1.015230 0.050000 0.357047
v 1.001863 0.050000 0.356930
v 0.997789 0.050000 0.364838
v 0.995656 0.050000 0.366083
v 1.009338 0.050000 0.355318
v 1.005342 0.050000 0.368320
v 1.005844 0.050000 0.367982
v 1.019890 0.050000 0.362301
v 1.020995 0.050000 0.361281
v 1.002707 0.050000 0.356776
v 1.010183 0.050000 0.367049
v 1.000488 0.050000 0.357777
v 1.000262 0.050000 0.367444
v 1.000411 0.050000 0.368144
v 1.017983 0.050000 0.363507
v 0.995947 0.050000 0.366242
v 0.996354 0.050000 0.366045
v 1.011060 0.050000 0.368084
v 1.011353 0.050000 0.355388
v 0.998588 0.050000 0.364791
v 1.006596 0.050000 0.366925
v 1.013439 0.050000 0.365094
v 1.015456 0.050000 0.365122
v 1.011639 0.050000 0.368489
v 1.012128 0.050000 0.368447
v 1.000303 0.050000 0.368673
v 1.016601 0.050000 0.365145
v 1.001125 0.050000 0.357268
v 1.010338 0.050000 0.355242
v 1.019149 0.050000 0.363641
v 1.003265 0.050000 0.355968
vn 0.0000 -1.0000 0.0000
vn 0.0000 1.0000 0.0000
vn 0.0000 1.0000 0.0001
vn -0.2261 0.0000 -0.9741
vn -0.9800 0.0000 -0.1992
vn -0.8947 0.0000 -0.4467
vn 0.1782 0.0000 0.9840
vn -0.8534 0.0000 -0.5212
vn 0.9955 0.0000 0.0952
vn 0.8952 0.0000 0.4456
vn 0.4923 0.0000 0.8704
vn -0.4795 0.0000 0.8776
vn 0.4122 0.0000 -0.9111
vn 0.7253 0.0000 0.6885
vn -0.1143 0.0000 0.9934
vn -0.3432 0.0000 -0.9392
vn -0.1792 0.0000 -0.9838
vn 0.0799 0.0000 -0.9968
vn 0.0626 0.0000 -0.9980
vn -0.7743 0.0000 0.6328
vn -0.6966 0.0000 0.7175
vn 0.0586 0.0000 0.9983
vn 0.5589 0.0000 0.8292
vn -0.0202 0.0000 0.9998
vn 0.4079 0.0000 -0.9130
vn -0.6734 0.0000 0.7392
vn 0.6784 0.0000 0.7347
vn -0.9866 0.0000 0.1629
vn 0.1788 0.0000 0.9839
vn 0.8925 0.0000 0.4510
vn -0.6827 0.0000 -0.7307
vn -0.6241 0.0000 -0.7813
vn -0.8271 0.0000 0.5621
vn -0.9749 0.0000 -0.2228
vn -0.7628 0.0000 0.6467
vn 0.1424 0.0000 -0.9898
vn 0.6588 0.0000 0.7524
vn -0.9947 0.0000 -0.1033
vn 0.3530 0.0000 -0.9356
vn -0.1644 0.0000 0.9864
vn 0.9966 0.0000 0.0824
vn -0.9264 0.0000 -0.3765
vn 0.9938 0.0000 -0.1108
vn -0.0756 0.0000 -0.9971
vn 0.0854 0.0000 0.9963
vn -0.8066 0.0000 -0.5911
vn -0.5732 0.0000 0.8194
vn -0.9782 0.0000 0.2075
vn -0.1342 0.0000 -0.9910
vn 0.6850 0.0000 0.7285
vn 0.4318 0.0000 0.9020
vn 0.4286 0.0000 -0.9035
vn 0.8150 0.0000 0.5795
vn -0.9947 0.0000 0.1024
vn 0.7258 0.0000 -0.6880
vn 0.4799 0.0000 0.8773
vn -0.4966 0.0000 -0.8680
vn 0.4370 0.0000 0.8995
vn 0.9817 0.0000 0.1904
vn 0.9606 0.0000 0.2780
vn 0.0699 0.0000 0.9976
vn -0.4167 0.0000 -0.9090
usemtl SVGMat.3781
s off
f 9//1 8//1 7//1
f 10//1 9//1 7//1
f 10//1 7//1 6//1
f 11//1 10//1 6//1
f 13//1 12//1 11//1
f 13//1 11//1 6//1
f 14//1 13//1 6//1
f 14//1 6//1 5//1
f 15//1 14//1 5//1
f 16//1 15//1 5//1
f 17//1 16//1 5//1
f 17//1 5//1 4//1
f 18//1 17//1 4//1
f 19//1 18//1 4//1
f 19//1 4//1 3//1
f 20//1 19//1 3//1
f 20//1 3//1 2//1
f 21//1 20//1 2//1
f 21//1 2//1 1//1
f 1//1 59//1 58//1
f 1//1 58//1 57//1
f 21//1 1//1 57//1
f 21//1 57//1 56//1
f 21//1 56//1 55//1
f 22//1 21//1 55//1
f 22//1 55//1 53//1
f 53//1 55//1 54//1
f 22//1 53//1 52//1
f 39//1 22//1 52//1
f 22//1 39//1 38//1
f 39//1 52//1 51//1
f 40//1 39//1 51//1
f 22//1 38//1 29//1
f 23//1 22//1 28//1
f 28//1 22//1 29//1
f 48//1 40//1 51//1
f 23//1 28//1 27//1
f 48//1 51//1 50//1
f 40//1 48//1 47//1
f 30//1 29//1 38//1
f 49//1 48//1 50//1
f 30//1 38//1 37//1
f 40//1 47//1 46//1
f 41//1 40//1 46//1
f 24//1 23//1 27//1
f 31//1 30//1 37//1
f 24//1 27//1 26//1
f 24//1 26//1 25//1
f 41//1 46//1 45//1
f 32//1 31//1 37//1
f 32//1 37//1 36//1
f 42//1 41//1 45//1
f 33//1 32//1 36//1
f 42//1 45//1 44//1
f 33//1 36//1 35//1
f 43//1 42//1 44//1
f 34//1 33//1 35//1
f 92//2 106//2 116//2
f 77//2 106//2 92//2
f 77//2 60//2 106//2
f 61//2 60//2 77//2
f 86//2 61//2 118//2
f 86//3 60//3 61//3
f 78//2 60//2 86//2
f 78//2 88//2 60//2
f 97//2 88//2 78//2
f 89//3 88//3 97//3
f 115//2 88//2 89//2
f 115//2 62//2 88//2
f 99//2 62//2 115//2
f 63//2 62//2 99//2
f 63//2 66//2 62//2
f 67//2 66//2 63//2
f 67//2 81//2 66//2
f 83//2 81//2 67//2
f 83//2 73//2 81//2
f 73//2 74//2 85//2
f 73//2 96//2 74//2
f 83//2 96//2 73//2
f 83//2 95//2 96//2
f 83//2 84//2 95//2
f 68//2 84//2 83//2
f 68//2 102//2 84//2
f 102//2 117//2 84//2
f 68//2 82//2 102//2
f 75//2 82//2 68//2
f 68//3 87//3 75//3
f 75//2 76//2 82//2
f 79//2 76//2 75//2
f 68//2 107//2 87//2
f 69//2 90//2 68//2
f 90//2 107//2 68//2
f 80//2 76//2 79//2
f 69//2 70//2 90//2
f 80//2 114//2 76//2
f 79//2 109//2 80//2
f 64//2 87//2 107//2
f 110//2 114//2 80//2
f 64//2 108//2 87//2
f 79//2 72//2 109//2
f 98//2 72//2 79//2
f 91//2 70//2 69//2
f 65//2 108//2 64//2
f 91//2 104//2 70//2
f 91//2 103//2 104//2
f 98//2 71//2 72//2
f 100//2 108//2 65//2
f 100//2 94//2 108//2
f 105//2 71//2 98//2
f 101//2 94//2 100//2
f 105//2 112//2 71//2
f 101//2 93//2 94//2
f 111//2 112//2 105//2
f 113//2 93//2 101//2
f 59//4 1//4 73//4 85//4
f 33//5 34//5 113//5 101//5
f 13//6 14//6 78//6 86//6
f 38//7 39//7 75//7 87//7
f 21//8 22//8 68//8 83//8
f 4//9 5//9 88//9 62//9
f 44//10 45//10 71//10 112//10
f 27//11 28//11 90//11 70//11
f 24//12 25//12 103//12 91//12
f 57//13 58//13 74//13 96//13
f 26//14 27//14 70//14 104//14
f 53//15 54//15 117//15 102//15
f 9//16 10//16 77//16 92//16
f 15//17 16//17 89//17 97//17
f 58//18 59//18 85//18 74//18
f 11//19 12//19 118//19 61//19
f 31//20 32//20 100//20 65//20
f 39//21 40//21 79//21 75//21
f 28//22 29//22 107//22 90//22
f 35//23 36//23 94//23 93//23
f 49//24 50//24 114//24 110//24
f 1//25 2//25 81//25 73//25
f 29//26 30//26 64//26 107//26
f 56//27 57//27 96//27 95//27
f 30//28 31//28 65//28 64//28
f 47//29 48//29 80//29 109//29
f 37//30 38//30 87//30 108//30
f 20//31 21//31 83//31 67//31
f 17//32 18//32 99//32 115//32
f 40//33 41//33 98//33 79//33
f 22//34 23//34 69//34 68//34
f 41//35 42//35 105//35 98//35
f 7//36 8//36 116//36 106//36
f 46//37 47//37 109//37 72//37
f 12//38 13//38 86//38 118//38
f 6//39 7//39 106//39 60//39
f 48//40 49//40 110//40 80//40
f 45//41 46//41 72//41 71//41
f 19//42 20//42 67//42 63//42
f 3//43 4//43 62//43 66//43
f 8//44 9//44 92//44 116//44
f 43//45 44//45 112//45 111//45
f 18//46 19//46 63//46 99//46
f 42//47 43//47 111//47 105//47
f 32//48 33//48 101//48 100//48
f 10//49 11//49 61//49 77//49
f 54//50 55//50 84//50 117//50
f 52//51 53//51 102//51 82//51
f 5//52 6//52 60//52 88//52
f 36//53 37//53 108//53 94//53
f 23//54 24//54 91//54 69//54
f 2//55 3//55 66//55 81//55
f 50//56 51//56 76//56 114//56
f 14//57 15//57 97//57 78//57
f 25//58 26//58 104//58 103//58
f 51//59 52//59 82//59 76//59
f 55//60 56//60 95//60 84//60
f 34//61 35//61 93//61 113//61
f 16//62 17//62 115//62 89//62
