# Blender v2.79 (sub 0) OBJ File: 'world_countrycodes_export2.blend'
# www.blender.org
mtllib CM.mtl
o CM.002_CUCurve.1863
v 1.026490 0.000000 0.637814
v 1.033862 0.000000 0.638155
v 1.040391 0.000000 0.638275
v 1.042132 0.000000 0.638152
v 1.045054 0.000000 0.638955
v 1.049546 0.000000 0.640963
v 1.050318 0.000000 0.637573
v 1.050985 0.000000 0.635949
v 1.050359 0.000000 0.635546
v 1.049680 0.000000 0.634372
v 1.046455 0.000000 0.631515
v 1.045171 0.000000 0.629538
v 1.044832 0.000000 0.627095
v 1.043829 0.000000 0.625541
v 1.043037 0.000000 0.624148
v 1.042631 0.000000 0.622562
v 1.042561 0.000000 0.620378
v 1.041807 0.000000 0.617038
v 1.042156 0.000000 0.615839
v 1.043893 0.000000 0.612956
v 1.044830 0.000000 0.610878
v 1.045974 0.000000 0.609143
v 1.047476 0.000000 0.607698
v 1.046375 0.000000 0.605376
v 1.045534 0.000000 0.602820
v 1.044431 0.000000 0.601453
v 1.042045 0.000000 0.599566
v 1.040541 0.000000 0.598263
v 1.039907 0.000000 0.597293
v 1.039600 0.000000 0.596197
v 1.039664 0.000000 0.595117
v 1.039922 0.000000 0.594384
v 1.041036 0.000000 0.594030
v 1.043197 0.000000 0.593960
v 1.045493 0.000000 0.594095
v 1.046873 0.000000 0.593909
v 1.047288 0.000000 0.593514
v 1.046088 0.000000 0.591897
v 1.045097 0.000000 0.589580
v 1.044647 0.000000 0.587151
v 1.044618 0.000000 0.584452
v 1.043957 0.000000 0.581952
v 1.043957 0.000000 0.580443
v 1.043069 0.000000 0.578109
v 1.041381 0.000000 0.576043
v 1.040110 0.000000 0.575762
v 1.039744 0.000000 0.578855
v 1.040371 0.000000 0.580035
v 1.041622 0.000000 0.580968
v 1.042485 0.000000 0.581369
v 1.042773 0.000000 0.582339
v 1.042420 0.000000 0.584960
v 1.041824 0.000000 0.585688
v 1.039278 0.000000 0.586346
v 1.037163 0.000000 0.589504
v 1.035748 0.000000 0.592740
v 1.035778 0.000000 0.593357
v 1.035377 0.000000 0.595056
v 1.034759 0.000000 0.596190
v 1.034082 0.000000 0.596653
v 1.033739 0.000000 0.597656
v 1.033723 0.000000 0.599770
v 1.031385 0.000000 0.601768
v 1.030963 0.000000 0.602652
v 1.029110 0.000000 0.607315
v 1.025618 0.000000 0.613615
v 1.024869 0.000000 0.614630
v 1.024559 0.000000 0.614539
v 1.024119 0.000000 0.613241
v 1.023303 0.000000 0.612184
v 1.022007 0.000000 0.611211
v 1.020766 0.000000 0.611030
v 1.019356 0.000000 0.611729
v 1.017050 0.000000 0.611701
v 1.013391 0.000000 0.614996
v 1.010521 0.000000 0.617941
v 1.010034 0.000000 0.620262
v 1.008883 0.000000 0.624009
v 1.010549 0.000000 0.626039
v 1.011647 0.000000 0.627693
v 1.013052 0.000000 0.628098
v 1.015378 0.000000 0.627974
v 1.016260 0.000000 0.629154
v 1.016980 0.000000 0.631015
v 1.017243 0.000000 0.633568
v 1.016071 0.000000 0.636685
v 1.015948 0.000000 0.638262
v 1.016105 0.000000 0.638773
v 1.016210 0.000000 0.638773
v 1.016505 0.000000 0.638773
v 1.016964 0.000000 0.638773
v 1.017558 0.000000 0.638773
v 1.018262 0.000000 0.638773
v 1.019048 0.000000 0.638773
v 1.019888 0.000000 0.638773
v 1.020755 0.000000 0.638773
v 1.021622 0.000000 0.638773
v 1.022462 0.000000 0.638773
v 1.023248 0.000000 0.638773
v 1.023951 0.000000 0.638773
v 1.046873 0.050000 0.593909
v 1.047288 0.050000 0.593514
v 1.043069 0.050000 0.578109
v 1.039744 0.050000 0.578855
v 1.021622 0.050000 0.638773
v 1.023951 0.050000 0.638773
v 1.043957 0.050000 0.580443
v 1.042485 0.050000 0.581369
v 1.024559 0.050000 0.614539
v 1.013391 0.050000 0.614996
v 1.019888 0.050000 0.638773
v 1.020755 0.050000 0.638773
v 1.045171 0.050000 0.629538
v 1.015378 0.050000 0.627974
v 1.016505 0.050000 0.638773
v 1.044431 0.050000 0.601453
v 1.031385 0.050000 0.601768
v 1.040371 0.050000 0.580035
v 1.042156 0.050000 0.615839
v 1.044618 0.050000 0.584452
v 1.042773 0.050000 0.582339
v 1.016260 0.050000 0.629154
v 1.022462 0.050000 0.638773
v 1.023248 0.050000 0.638773
v 1.043829 0.050000 0.625541
v 1.010549 0.050000 0.626039
v 1.044647 0.050000 0.587151
v 1.037163 0.050000 0.589504
v 1.039600 0.050000 0.596197
v 1.034759 0.050000 0.596190
v 1.043037 0.050000 0.624148
v 1.041807 0.050000 0.617038
v 1.010521 0.050000 0.617941
v 1.039664 0.050000 0.595117
v 1.041381 0.050000 0.576043
v 1.046375 0.050000 0.605376
v 1.045534 0.050000 0.602820
v 1.035778 0.050000 0.593357
v 1.035377 0.050000 0.595056
v 1.042132 0.050000 0.638152
v 1.045054 0.050000 0.638955
v 1.043957 0.050000 0.581952
v 1.018262 0.050000 0.638773
v 1.019048 0.050000 0.638773
v 1.016964 0.050000 0.638773
v 1.046088 0.050000 0.591897
v 1.016980 0.050000 0.631015
v 1.041622 0.050000 0.580968
v 1.013052 0.050000 0.628098
v 1.050318 0.050000 0.637573
v 1.050985 0.050000 0.635949
v 1.040110 0.050000 0.575762
v 1.023303 0.050000 0.612184
v 1.022007 0.050000 0.611211
v 1.008883 0.050000 0.624009
v 1.030963 0.050000 0.602652
v 1.043197 0.050000 0.593960
v 1.045493 0.050000 0.594095
v 1.041036 0.050000 0.594030
v 1.016210 0.050000 0.638773
v 1.017558 0.050000 0.638773
v 1.042420 0.050000 0.584960
v 1.041824 0.050000 0.585688
v 1.025618 0.050000 0.613615
v 1.024869 0.050000 0.614630
v 1.045974 0.050000 0.609143
v 1.047476 0.050000 0.607698
v 1.046455 0.050000 0.631515
v 1.029110 0.050000 0.607315
v 1.026490 0.050000 0.637814
v 1.017243 0.050000 0.633568
v 1.016071 0.050000 0.636685
v 1.044832 0.050000 0.627095
v 1.034082 0.050000 0.596653
v 1.033739 0.050000 0.597656
v 1.049680 0.050000 0.634372
v 1.010034 0.050000 0.620262
v 1.044830 0.050000 0.610878
v 1.024119 0.050000 0.613241
v 1.016105 0.050000 0.638773
v 1.042045 0.050000 0.599566
v 1.040541 0.050000 0.598263
v 1.033862 0.050000 0.638155
v 1.043893 0.050000 0.612956
v 1.045097 0.050000 0.589580
v 1.033723 0.050000 0.599770
v 1.015948 0.050000 0.638262
v 1.049546 0.050000 0.640963
v 1.050359 0.050000 0.635546
v 1.019356 0.050000 0.611729
v 1.017050 0.050000 0.611701
v 1.039278 0.050000 0.586346
v 1.035748 0.050000 0.592740
v 1.040391 0.050000 0.638275
v 1.011647 0.050000 0.627693
v 1.042631 0.050000 0.622562
v 1.042561 0.050000 0.620378
v 1.039922 0.050000 0.594384
v 1.020766 0.050000 0.611030
v 1.039907 0.050000 0.597293
vn 0.0000 -1.0000 0.0000
vn 0.0000 0.0000 1.0000
vn 0.0000 1.0000 0.0000
vn 0.0000 0.0000 -1.0000
vn -0.9787 0.0000 -0.2055
vn 0.6003 0.0000 -0.7998
vn -0.4081 0.0000 0.9129
vn -0.4213 0.0000 0.9069
vn -0.9293 0.0000 -0.3693
vn 0.9035 0.0000 -0.4286
vn -0.9988 0.0000 0.0496
vn -0.0586 0.0000 0.9983
vn 0.7742 0.0000 -0.6329
vn 0.2808 0.0000 -0.9598
vn -0.0184 0.0000 0.9998
vn 0.9602 0.0000 0.2795
vn -0.8782 0.0000 -0.4782
vn -0.9970 0.0000 -0.0776
vn 0.6895 0.0000 0.7243
vn 0.5417 0.0000 -0.8406
vn -0.9910 0.0000 -0.1336
vn -0.7741 0.0000 -0.6330
vn -0.8045 0.0000 -0.5939
vn 0.9347 0.0000 -0.3554
vn -0.2765 0.0000 0.9610
vn 0.6934 0.0000 0.7206
vn 0.8386 0.0000 -0.5448
vn -0.8309 0.0000 -0.5564
vn -0.5643 0.0000 -0.8256
vn 0.3534 0.0000 0.9355
vn -0.9360 0.0000 -0.3521
vn 1.0000 0.0000 -0.0002
vn -0.8746 0.0000 -0.4848
vn 0.9754 0.0000 -0.2203
vn 0.8402 0.0000 -0.5423
vn -0.9462 0.0000 -0.3234
vn 0.9905 0.0000 -0.1375
vn -0.8832 0.0000 0.4690
vn -0.9559 0.0000 -0.2937
vn -0.9162 0.0000 -0.4008
vn 0.0325 0.0000 0.9995
vn 0.0702 0.0000 0.9975
vn -0.8011 0.0000 0.5985
vn 0.3032 0.0000 0.9529
vn 0.9116 0.0000 0.4110
vn 0.9668 0.0000 -0.2555
vn -0.9024 0.0000 -0.4309
vn 0.7917 0.0000 -0.6109
vn 0.8656 0.0000 -0.5007
vn -0.8334 0.0000 0.5527
vn 0.8693 0.0000 -0.4942
vn 0.1333 0.0000 0.9911
vn 0.8371 0.0000 -0.5471
vn 0.6547 0.0000 -0.7559
vn 0.9983 0.0000 0.0588
vn -0.7728 0.0000 0.6347
vn 0.8565 0.0000 0.5162
vn -0.4439 0.0000 -0.8961
vn 0.6203 0.0000 -0.7844
vn 0.9194 0.0000 -0.3934
vn 0.9688 0.0000 -0.2480
vn 0.9500 0.0000 -0.3122
vn -1.0000 0.0000 -0.0074
vn -0.9732 0.0000 -0.2301
vn 0.9833 0.0000 -0.1818
vn -0.2649 0.0000 0.9643
vn 0.1440 0.0000 -0.9896
vn -0.0462 0.0000 0.9989
vn -0.6498 0.0000 -0.7601
vn 0.9470 0.0000 -0.3211
vn 0.9630 0.0000 -0.2697
vn -0.7162 0.0000 -0.6979
vn -0.9555 0.0000 0.2950
vn 0.9751 0.0000 0.2219
vn 0.8029 0.0000 -0.5961
vn 0.9431 0.0000 0.3325
vn 0.7782 0.0000 -0.6281
vn -0.9326 0.0000 0.3609
vn 0.9999 0.0000 -0.0109
vn -0.5980 0.0000 0.8015
vn 0.9995 0.0000 -0.0319
vn 0.6631 0.0000 -0.7485
vn 0.0532 0.0000 0.9986
vn -0.2503 0.0000 -0.9682
vn 0.0121 0.0000 -0.9999
vn 0.9249 0.0000 0.3801
vn -0.9947 0.0000 0.1026
vn 0.2160 0.0000 -0.9764
vn -0.6691 0.0000 -0.7432
vn 0.8350 0.0000 0.5503
vn -0.9931 0.0000 -0.1174
vn -0.9586 0.0000 0.2846
usemtl SVGMat.3781
s off
f 47//1 46//1 45//1
f 47//1 45//1 44//1
f 47//1 44//1 43//1
f 48//1 47//1 43//1
f 49//1 48//1 43//1
f 50//1 49//1 43//1
f 50//1 43//1 42//1
f 51//1 50//1 42//1
f 51//1 42//1 41//1
f 52//1 51//1 41//1
f 53//1 52//1 41//1
f 53//1 41//1 40//1
f 54//1 53//1 40//1
f 55//1 54//1 40//1
f 55//1 40//1 39//1
f 55//1 39//1 38//1
f 56//1 55//1 38//1
f 56//1 38//1 37//1
f 57//1 56//1 37//1
f 57//1 37//1 36//1
f 57//1 36//1 34//1
f 57//1 34//1 33//1
f 58//1 57//1 33//1
f 35//1 34//1 36//1
f 58//1 33//1 32//1
f 58//1 32//1 31//1
f 58//1 31//1 30//1
f 59//1 58//1 30//1
f 60//1 59//1 30//1
f 60//1 30//1 29//1
f 61//1 60//1 29//1
f 61//1 29//1 28//1
f 62//1 61//1 28//1
f 62//1 28//1 27//1
f 62//1 27//1 26//1
f 63//1 62//1 26//1
f 63//1 26//1 25//1
f 64//1 63//1 25//1
f 65//1 64//1 25//1
f 65//1 25//1 24//1
f 65//1 24//1 23//1
f 65//1 23//1 22//1
f 65//1 22//1 21//1
f 66//1 65//1 21//1
f 73//1 72//1 71//1
f 73//1 71//1 70//1
f 74//1 73//1 70//1
f 66//1 21//1 20//1
f 74//1 70//1 69//1
f 75//1 74//1 69//1
f 75//1 69//1 68//1
f 66//1 20//1 19//1
f 67//1 66//1 19//1
f 75//1 68//1 67//1
f 75//1 67//1 19//1
f 75//1 19//1 18//1
f 76//1 75//1 18//1
f 77//1 76//1 18//1
f 77//1 18//1 17//1
f 78//1 77//1 17//1
f 78//1 17//1 16//1
f 78//1 16//1 15//1
f 78//1 15//1 14//1
f 79//1 78//1 14//1
f 79//1 14//1 13//1
f 80//1 79//1 13//1
f 81//1 80//1 82//1
f 82//1 80//1 13//1
f 82//1 13//1 12//1
f 83//1 82//1 12//1
f 84//1 83//1 12//1
f 84//1 12//1 11//1
f 85//1 84//1 11//1
f 85//1 11//1 10//1
f 86//1 85//1 10//1
f 86//1 10//1 9//1
f 86//1 9//1 8//1
f 86//1 8//1 7//1
f 87//1 86//1 1//1
f 1//1 86//1 7//1
f 2//1 1//1 7//1
f 2//1 7//1 4//1
f 2//1 4//1 3//1
f 5//1 4//1 7//1
f 88//1 87//1 1//1
f 5//1 7//1 6//1
f 88//1 1//1 100//1
f 89//2 88//2 100//2
f 90//2 89//2 100//2
f 91//2 90//2 100//2
f 92//2 91//2 100//2
f 93//2 92//2 100//2
f 94//2 93//2 100//2
f 95//2 94//2 100//2
f 96//2 95//2 100//2
f 97//2 96//2 100//2
f 98//2 97//2 100//2
f 99//2 98//2 100//2
f 104//3 135//3 152//3
f 104//3 103//3 135//3
f 104//3 107//3 103//3
f 118//3 107//3 104//3
f 148//3 107//3 118//3
f 108//3 107//3 148//3
f 108//3 142//3 107//3
f 121//3 142//3 108//3
f 121//3 120//3 142//3
f 162//3 120//3 121//3
f 163//3 120//3 162//3
f 163//3 127//3 120//3
f 192//3 127//3 163//3
f 128//3 127//3 192//3
f 128//3 185//3 127//3
f 128//3 146//3 185//3
f 193//3 146//3 128//3
f 193//3 102//3 146//3
f 138//3 102//3 193//3
f 138//3 101//3 102//3
f 138//3 157//3 101//3
f 138//3 159//3 157//3
f 139//3 159//3 138//3
f 158//3 101//3 157//3
f 139//3 198//3 159//3
f 139//3 134//3 198//3
f 139//3 129//3 134//3
f 130//3 129//3 139//3
f 174//3 129//3 130//3
f 174//3 200//3 129//3
f 175//3 200//3 174//3
f 175//3 182//3 200//3
f 186//3 182//3 175//3
f 186//3 181//3 182//3
f 186//3 116//3 181//3
f 117//3 116//3 186//3
f 117//3 137//3 116//3
f 156//3 137//3 117//3
f 169//3 137//3 156//3
f 169//3 136//3 137//3
f 169//3 167//3 136//3
f 169//3 166//3 167//3
f 169//3 178//3 166//3
f 164//3 178//3 169//3
f 190//3 154//3 199//3
f 190//3 153//3 154//3
f 191//3 153//3 190//3
f 164//3 184//3 178//3
f 191//3 179//3 153//3
f 110//3 179//3 191//3
f 110//3 109//3 179//3
f 164//3 119//3 184//3
f 165//3 119//3 164//3
f 110//3 165//3 109//3
f 110//3 119//3 165//3
f 110//3 132//3 119//3
f 133//3 132//3 110//3
f 177//3 132//3 133//3
f 177//3 197//3 132//3
f 155//3 197//3 177//3
f 155//3 196//3 197//3
f 155//3 131//3 196//3
f 155//3 125//3 131//3
f 126//3 125//3 155//3
f 126//3 173//3 125//3
f 195//3 173//3 126//3
f 149//3 114//3 195//3
f 114//3 173//3 195//3
f 114//3 113//3 173//3
f 122//3 113//3 114//3
f 147//3 113//3 122//3
f 147//3 168//3 113//3
f 171//3 168//3 147//3
f 171//3 176//3 168//3
f 172//3 176//3 171//3
f 172//3 189//3 176//3
f 172//3 151//3 189//3
f 172//3 150//3 151//3
f 187//3 170//3 172//3
f 170//3 150//3 172//3
f 183//3 150//3 170//3
f 183//3 140//3 150//3
f 183//3 194//3 140//3
f 141//3 150//3 140//3
f 180//3 170//3 187//3
f 141//3 188//3 150//3
f 180//3 106//3 170//3
f 160//2 106//2 180//2
f 115//2 106//2 160//2
f 145//4 106//4 115//4
f 161//2 106//2 145//2
f 143//2 106//2 161//2
f 144//2 106//2 143//2
f 111//2 106//2 144//2
f 112//2 106//2 111//2
f 105//2 106//2 112//2
f 123//2 106//2 105//2
f 124//4 106//4 123//4
f 76//5 77//5 177//5 133//5
f 96//2 97//2 105//2 112//2
f 70//6 71//6 154//6 153//6
f 5//7 6//7 188//7 141//7
f 49//8 50//8 108//8 148//8
f 64//9 65//9 169//9 156//9
f 23//10 24//10 136//10 167//10
f 90//2 91//2 145//2 115//2
f 56//11 57//11 138//11 193//11
f 34//12 35//12 158//12 157//12
f 44//13 45//13 135//13 103//13
f 67//14 68//14 109//14 165//14
f 2//15 3//15 194//15 183//15
f 99//2 100//2 106//2 124//2
f 18//16 19//16 119//16 132//16
f 58//17 59//17 130//17 139//17
f 86//18 87//18 187//18 172//18
f 89//2 90//2 115//2 160//2
f 36//19 37//19 102//19 101//19
f 8//20 9//20 189//20 151//20
f 51//21 52//21 162//21 121//21
f 52//22 53//22 163//22 162//22
f 66//23 67//23 165//23 164//23
f 43//24 44//24 103//24 107//24
f 80//25 81//25 149//25 195//25
f 22//26 23//26 167//26 166//26
f 11//27 12//27 113//27 168//27
f 54//28 55//28 128//28 192//28
f 59//29 60//29 174//29 130//29
f 100//30 1//30 170//30 106//30
f 95//2 96//2 112//2 111//2
f 85//31 86//31 172//31 171//31
f 42//32 43//32 107//32 142//32
f 65//33 66//33 164//33 169//33
f 17//34 18//34 132//34 197//34
f 13//35 14//35 125//35 173//35
f 60//36 61//36 175//36 174//36
f 12//37 13//37 173//37 113//37
f 47//38 48//38 118//38 104//38
f 92//2 93//2 143//2 161//2
f 94//2 95//2 111//2 144//2
f 77//39 78//39 155//39 177//39
f 55//40 56//40 193//40 128//40
f 33//41 34//41 157//41 159//41
f 3//42 4//42 140//42 194//42
f 82//43 83//43 122//43 114//43
f 98//2 99//2 124//2 123//2
f 32//44 33//44 159//44 198//44
f 20//45 21//45 178//45 184//45
f 41//46 42//46 142//46 120//46
f 63//47 64//47 156//47 117//47
f 69//48 70//48 153//48 179//48
f 9//49 10//49 176//49 189//49
f 88//2 89//2 160//2 180//2
f 79//50 80//50 195//50 126//50
f 14//51 15//51 131//51 125//51
f 35//52 36//52 101//52 158//52
f 28//53 29//53 200//53 182//53
f 27//54 28//54 182//54 181//54
f 30//55 31//55 134//55 129//55
f 78//56 79//56 126//56 155//56
f 19//57 20//57 184//57 119//57
f 72//58 73//58 190//58 199//58
f 26//59 27//59 181//59 116//59
f 38//60 39//60 185//60 146//60
f 15//61 16//61 196//61 131//61
f 24//62 25//62 137//62 136//62
f 61//63 62//63 186//63 175//63
f 57//64 58//64 139//64 138//64
f 39//65 40//65 127//65 185//65
f 4//66 5//66 141//66 140//66
f 71//67 72//67 199//67 154//67
f 1//68 2//68 183//68 170//68
f 62//69 63//69 117//69 186//69
f 68//70 69//70 179//70 109//70
f 29//71 30//71 129//71 200//71
f 75//72 76//72 133//72 110//72
f 93//2 94//2 144//2 143//2
f 91//2 92//2 161//2 145//2
f 87//73 88//73 180//73 187//73
f 6//74 7//74 150//74 188//74
f 37//75 38//75 146//75 102//75
f 31//76 32//76 198//76 134//76
f 25//77 26//77 116//77 137//77
f 83//78 84//78 147//78 122//78
f 40//79 41//79 120//79 127//79
f 48//80 49//80 148//80 118//80
f 16//81 17//81 197//81 196//81
f 10//82 11//82 168//82 176//82
f 81//83 82//83 114//83 149//83
f 53//84 54//84 192//84 163//84
f 73//85 74//85 191//85 190//85
f 97//2 98//2 123//2 105//2
f 7//86 8//86 151//86 150//86
f 84//87 85//87 171//87 147//87
f 45//88 46//88 152//88 135//88
f 74//89 75//89 110//89 191//89
f 21//90 22//90 166//90 178//90
f 46//91 47//91 104//91 152//91
f 50//92 51//92 121//92 108//92
