# Blender v2.79 (sub 0) OBJ File: 'world_countrycodes_outlines2.blend'
# www.blender.org
mtllib CR_outline.mtl
o CR.001_CUCurve.1603
v 0.480524 -0.000788 0.604665
v 0.480649 0.001946 0.603454
v 0.482006 0.001044 0.601055
v 0.481374 -0.001941 0.602042
v 0.477906 0.000124 0.600027
v 0.478472 0.001453 0.599608
v 0.478478 -0.001361 0.600032
v 0.480611 0.001878 0.597963
v 0.481318 0.000017 0.597024
v 0.480116 -0.002000 0.597600
v 0.474460 0.000719 0.598224
v 0.476225 0.000585 0.593981
v 0.476701 -0.000588 0.594834
v 0.475255 -0.001790 0.597538
v 0.473633 0.000006 0.596828
v 0.473901 0.001949 0.595478
v 0.474209 -0.001903 0.593595
v 0.472880 0.000805 0.592604
v 0.471639 -0.000907 0.593621
v 0.471537 0.002029 0.595090
v 0.473527 -0.001791 0.595814
v 0.471996 -0.000822 0.597639
v 0.469850 0.001477 0.596907
v 0.467858 -0.000643 0.596287
v 0.469954 0.000782 0.592691
v 0.469379 -0.001351 0.592851
v 0.467758 -0.002004 0.593319
v 0.467169 0.001941 0.593199
v 0.465986 -0.000879 0.592296
v 0.467389 0.000851 0.588879
v 0.468954 -0.001499 0.586463
v 0.469767 0.002005 0.587934
v 0.471162 0.000723 0.590040
v 0.470258 -0.001984 0.588778
v 0.467936 0.001017 0.586250
v 0.472022 0.000591 0.586159
v 0.479294 0.000082 0.587415
v 0.479421 0.001916 0.588630
v 0.479824 0.001396 0.591031
v 0.479468 0.000070 0.591559
v 0.479967 -0.001891 0.590532
v 0.480815 -0.001433 0.588158
v 0.481566 0.000525 0.587397
v 0.487615 0.001467 0.596566
v 0.485337 0.001987 0.596435
v 0.483898 0.000034 0.596811
v 0.485534 -0.001990 0.596216
v 0.488814 -0.000896 0.596388
v 0.487676 -0.000070 0.599551
v 0.487066 -0.001435 0.599161
v 0.484696 -0.001946 0.601928
v 0.483623 0.000809 0.601054
v 0.485421 0.001961 0.603867
v 0.486055 -0.000883 0.604965
vn -0.0512 -0.9955 -0.0796
vn 0.6432 0.5985 -0.4775
vn -0.6214 0.5474 -0.5605
vn -0.3266 0.8186 0.4725
vn -0.6994 0.0732 0.7110
vn -0.4640 -0.3315 0.8214
vn 0.3643 -0.8763 -0.3152
vn 0.4152 0.8622 -0.2901
vn 0.8058 -0.0285 -0.5914
vn -0.3120 -0.8647 0.3936
vn -0.4458 -0.7795 0.4399
vn -0.4214 0.8640 0.2756
vn -0.6140 0.3325 0.7158
vn 0.4433 0.3294 -0.8336
vn 0.4235 -0.6494 -0.6315
vn -0.1351 -0.9520 0.2745
vn 0.1402 -0.7972 -0.5871
vn -0.1529 0.3620 -0.9195
vn -0.4104 0.1034 0.9060
vn 0.0966 -0.3348 0.9373
vn 0.0222 0.9976 0.0657
vn 0.0159 0.9839 -0.1780
vn -0.2410 0.6259 0.7417
vn -0.6399 -0.2964 0.7090
vn 0.0933 -0.4677 -0.8789
vn 0.7541 0.5869 -0.2946
vn 0.5669 -0.7934 -0.2216
vn -0.2691 -0.9536 0.1352
vn -0.5477 0.8267 0.1287
vn -0.9555 -0.2947 0.0118
vn -0.8598 0.4074 -0.3079
vn -0.3636 -0.6480 -0.6692
vn -0.0598 0.9854 -0.1590
vn 0.3900 0.4431 0.8072
vn 0.1037 -0.9861 0.1299
vn -0.6381 0.3619 -0.6795
vn 0.1013 0.2941 -0.9503
vn 0.2775 -0.7495 -0.6010
vn 0.0855 0.9311 -0.3545
vn -0.4937 -0.0487 0.8683
vn -0.3528 0.7825 0.5130
vn -0.1503 -0.9514 0.2689
vn 0.4464 0.2368 -0.8629
vn 0.0959 0.0823 -0.9920
vn 0.6669 0.7314 -0.1425
vn -0.1823 0.9829 0.0267
vn -0.9533 -0.0428 0.2988
vn -0.0993 -0.9950 0.0090
vn 0.9336 -0.3174 -0.1662
vn 0.9560 0.0441 0.2900
vn 0.5715 -0.8014 0.1762
vn -0.0666 -0.9966 -0.0493
vn 0.5187 -0.3284 0.7893
vn 0.3308 0.8061 0.4906
usemtl SVGMat.3781
s 1
f 4//1 3//2 52//3
f 2//4 5//5 1//6
f 1//6 10//7 4//1
f 3//2 8//8 2//4
f 4//1 9//9 3//2
f 5//5 14//10 7//11
f 6//12 11//13 5//5
f 8//8 11//13 6//12
f 9//9 12//14 8//8
f 10//7 13//15 9//9
f 11//13 21//16 14//10
f 14//10 17//17 13//15
f 17//17 18//18 12//14
f 15//19 22//20 21//16
f 16//21 22//20 15//19
f 20//22 23//23 16//21
f 23//23 24//24 22//20
f 19//25 25//26 20//22
f 21//16 26//27 19//25
f 22//20 27//28 21//16
f 28//29 29//30 24//24
f 30//31 31//32 29//30
f 25//26 32//33 28//29
f 26//27 33//34 25//26
f 27//28 34//35 26//27
f 31//32 34//35 27//28
f 32//33 35//36 30//31
f 32//33 36//37 35//36
f 36//37 42//38 31//32
f 32//33 38//39 36//37
f 34//35 40//40 33//34
f 39//41 38//39 32//33
f 42//38 41//42 34//35
f 38//39 43//43 37//44
f 38//39 44//45 43//43
f 39//41 45//46 38//39
f 41//42 46//47 40//40
f 42//38 47//48 41//42
f 43//43 48//49 42//38
f 46//47 45//46 39//41
f 44//45 48//49 43//43
f 44//45 49//50 48//49
f 50//51 51//52 47//48
f 46//47 52//3 45//46
f 51//52 52//3 46//47
f 49//50 54//53 50//51
f 53//54 54//53 49//50
f 53//54 1//6 54//53
f 52//3 2//4 53//54
f 54//53 4//1 51//52
f 52//3 3//2 2//4
f 51//52 4//1 52//3
f 1//6 5//5 7//11
f 2//4 6//12 5//5
f 1//6 7//11 10//7
f 2//4 8//8 6//12
f 3//2 9//9 8//8
f 4//1 10//7 9//9
f 7//11 14//10 10//7
f 5//5 11//13 14//10
f 8//8 16//21 11//13
f 8//8 12//14 16//21
f 9//9 13//15 12//14
f 10//7 14//10 13//15
f 11//13 15//19 21//16
f 11//13 16//21 15//19
f 13//15 17//17 12//14
f 14//10 21//16 17//17
f 12//14 18//18 16//21
f 17//17 19//25 18//18
f 18//18 20//22 16//21
f 18//18 19//25 20//22
f 17//17 21//16 19//25
f 16//21 23//23 22//20
f 20//22 28//29 23//23
f 20//22 25//26 28//29
f 19//25 26//27 25//26
f 21//16 27//28 26//27
f 22//20 24//24 27//28
f 23//23 28//29 24//24
f 24//24 29//30 27//28
f 28//29 30//31 29//30
f 29//30 31//32 27//28
f 28//29 32//33 30//31
f 25//26 33//34 32//33
f 26//27 34//35 33//34
f 30//31 35//36 31//32
f 35//36 36//37 31//32
f 36//37 37//44 42//38
f 36//37 38//39 37//44
f 33//34 39//41 32//33
f 33//34 40//40 39//41
f 34//35 41//42 40//40
f 31//32 42//38 34//35
f 37//44 43//43 42//38
f 38//39 45//46 44//45
f 40//40 46//47 39//41
f 42//38 48//49 47//48
f 41//42 47//48 46//47
f 48//49 49//50 50//51
f 48//49 50//51 47//48
f 47//48 51//52 46//47
f 45//46 53//54 44//45
f 45//46 52//3 53//54
f 44//45 53//54 49//50
f 50//51 54//53 51//52
f 53//54 2//4 1//6
f 54//53 1//6 4//1
