# Blender v2.79 (sub 0) OBJ File: 'world_countrycodes_export2.blend'
# www.blender.org
mtllib CZ.mtl
o CZ.002_CUCurve.1816
v 1.062759 0.000000 0.338445
v 1.060160 0.000000 0.338149
v 1.059659 0.000000 0.337829
v 1.059402 0.000000 0.336838
v 1.059025 0.000000 0.336058
v 1.058490 0.000000 0.335723
v 1.056300 0.000000 0.335449
v 1.055357 0.000000 0.335646
v 1.054713 0.000000 0.336573
v 1.054143 0.000000 0.336715
v 1.053174 0.000000 0.336379
v 1.052083 0.000000 0.335327
v 1.051850 0.000000 0.334591
v 1.051345 0.000000 0.333865
v 1.049737 0.000000 0.332908
v 1.047125 0.000000 0.331838
v 1.044895 0.000000 0.330411
v 1.044570 0.000000 0.331086
v 1.044068 0.000000 0.331254
v 1.042322 0.000000 0.330818
v 1.041775 0.000000 0.330897
v 1.041136 0.000000 0.331297
v 1.038655 0.000000 0.332137
v 1.037462 0.000000 0.332743
v 1.036744 0.000000 0.333293
v 1.034835 0.000000 0.334310
v 1.032576 0.000000 0.335109
v 1.030584 0.000000 0.335545
v 1.030253 0.000000 0.335982
v 1.030349 0.000000 0.336697
v 1.031561 0.000000 0.338699
v 1.032319 0.000000 0.341744
v 1.033029 0.000000 0.343037
v 1.035606 0.000000 0.344745
v 1.039161 0.000000 0.347545
v 1.039251 0.000000 0.347959
v 1.040357 0.000000 0.348290
v 1.042485 0.000000 0.348363
v 1.043934 0.000000 0.347993
v 1.044525 0.000000 0.346902
v 1.045078 0.000000 0.345124
v 1.046235 0.000000 0.345162
v 1.048055 0.000000 0.345587
v 1.049906 0.000000 0.346500
v 1.050900 0.000000 0.347322
v 1.051818 0.000000 0.347673
v 1.053125 0.000000 0.347743
v 1.054628 0.000000 0.347387
v 1.054725 0.000000 0.347911
v 1.055014 0.000000 0.348451
v 1.055805 0.000000 0.347166
v 1.056422 0.000000 0.346701
v 1.058045 0.000000 0.346507
v 1.059523 0.000000 0.345950
v 1.060648 0.000000 0.345261
v 1.061643 0.000000 0.344330
v 1.062837 0.000000 0.342873
v 1.064217 0.000000 0.341698
v 1.065284 0.000000 0.341031
v 1.064783 0.000000 0.340526
v 1.063713 0.000000 0.338910
v 1.047125 0.050000 0.331838
v 1.041136 0.050000 0.331297
v 1.054628 0.050000 0.347387
v 1.055014 0.050000 0.348451
v 1.044895 0.050000 0.330411
v 1.034835 0.050000 0.334310
v 1.032576 0.050000 0.335109
v 1.030584 0.050000 0.335545
v 1.030253 0.050000 0.335982
v 1.054713 0.050000 0.336573
v 1.054143 0.050000 0.336715
v 1.032319 0.050000 0.341744
v 1.064783 0.050000 0.340526
v 1.050900 0.050000 0.347322
v 1.056422 0.050000 0.346701
v 1.065284 0.050000 0.341031
v 1.059523 0.050000 0.345950
v 1.060648 0.050000 0.345261
v 1.044570 0.050000 0.331086
v 1.063713 0.050000 0.338910
v 1.062759 0.050000 0.338445
v 1.052083 0.050000 0.335327
v 1.042485 0.050000 0.348363
v 1.043934 0.050000 0.347993
v 1.053174 0.050000 0.336379
v 1.030349 0.050000 0.336697
v 1.039251 0.050000 0.347959
v 1.040357 0.050000 0.348290
v 1.051345 0.050000 0.333865
v 1.036744 0.050000 0.333293
v 1.059025 0.050000 0.336058
v 1.055357 0.050000 0.335646
v 1.049737 0.050000 0.332908
v 1.037462 0.050000 0.332743
v 1.059402 0.050000 0.336838
v 1.055805 0.050000 0.347166
v 1.035606 0.050000 0.344745
v 1.039161 0.050000 0.347545
v 1.048055 0.050000 0.345587
v 1.061643 0.050000 0.344330
v 1.062837 0.050000 0.342873
v 1.045078 0.050000 0.345124
v 1.042322 0.050000 0.330818
v 1.038655 0.050000 0.332137
v 1.044068 0.050000 0.331254
v 1.031561 0.050000 0.338699
v 1.033029 0.050000 0.343037
v 1.058490 0.050000 0.335723
v 1.059659 0.050000 0.337829
v 1.060160 0.050000 0.338149
v 1.046235 0.050000 0.345162
v 1.049906 0.050000 0.346500
v 1.044525 0.050000 0.346902
v 1.051818 0.050000 0.347673
v 1.064217 0.050000 0.341698
v 1.041775 0.050000 0.330897
v 1.051850 0.050000 0.334591
v 1.054725 0.050000 0.347911
v 1.058045 0.050000 0.346507
v 1.056300 0.050000 0.335449
v 1.053125 0.050000 0.347743
vn 0.0000 -1.0000 0.0000
vn 0.0000 1.0000 -0.0000
vn 0.0000 1.0000 0.0001
vn -0.2863 0.0000 0.9581
vn -0.9836 0.0000 0.1805
vn 0.2423 0.0000 -0.9702
vn 0.3275 0.0000 -0.9448
vn -0.9773 0.0000 0.2116
vn 0.9534 0.0000 -0.3018
vn -0.8813 0.0000 0.4726
vn 0.1188 0.0000 0.9929
vn -0.6077 0.0000 -0.7941
vn 0.3529 0.0000 0.9357
vn -0.4535 0.0000 -0.8912
vn 0.6829 0.0000 0.7305
vn -0.0346 0.0000 0.9994
vn -0.6187 0.0000 0.7856
vn 0.5380 0.0000 -0.8429
vn -0.2272 0.0000 0.9738
vn -0.3160 0.0000 -0.9488
vn -0.5525 0.0000 0.8335
vn -0.6372 0.0000 0.7707
vn 0.5116 0.0000 -0.8592
vn 0.7736 0.0000 0.6337
vn 0.8792 0.0000 0.4764
vn 0.8516 0.0000 0.5242
vn -0.2136 0.0000 -0.9769
vn 0.5392 0.0000 -0.8422
vn -0.9704 0.0000 0.2415
vn -0.3577 0.0000 0.9339
vn 0.9007 0.0000 -0.4344
vn -0.3336 0.0000 -0.9427
vn 0.6484 0.0000 0.7613
vn -0.7973 0.0000 -0.6035
vn -0.0534 0.0000 0.9986
vn -0.8213 0.0000 -0.5705
vn -0.1440 0.0000 -0.9896
vn -0.3204 0.0000 -0.9473
vn -0.2422 0.0000 -0.9702
vn 0.3790 0.0000 -0.9254
vn -0.4422 0.0000 0.8969
vn 0.1240 0.0000 -0.9923
vn -0.0326 0.0000 0.9995
vn 0.2306 0.0000 0.9730
vn -0.9909 0.0000 0.1343
vn 0.7097 0.0000 -0.7045
vn 0.5303 0.0000 0.8478
vn -0.8555 0.0000 0.5178
vn 0.5219 0.0000 0.8530
vn 0.5307 0.0000 -0.8476
vn 0.6020 0.0000 0.7985
vn -0.4702 0.0000 -0.8826
vn 0.6945 0.0000 -0.7195
vn -0.9011 0.0000 -0.4336
vn -0.2044 0.0000 -0.9789
vn 0.4380 0.0000 -0.8990
vn 0.9679 0.0000 -0.2512
vn 0.9549 0.0000 0.2971
vn 0.2478 0.0000 0.9688
vn 0.1133 0.0000 -0.9936
vn -0.5306 0.0000 -0.8476
vn 0.8203 0.0000 -0.5719
vn -0.8764 0.0000 0.4816
vn 0.8339 0.0000 -0.5519
usemtl SVGMat.3781
s off
f 18//1 17//1 16//1
f 22//1 21//1 20//1
f 22//1 20//1 19//1
f 19//1 18//1 16//1
f 22//1 19//1 16//1
f 23//1 22//1 16//1
f 23//1 16//1 15//1
f 24//1 23//1 15//1
f 25//1 24//1 15//1
f 25//1 15//1 14//1
f 26//1 25//1 14//1
f 26//1 14//1 13//1
f 27//1 26//1 13//1
f 27//1 13//1 12//1
f 28//1 27//1 12//1
f 8//1 7//1 6//1
f 29//1 28//1 12//1
f 29//1 12//1 11//1
f 8//1 6//1 5//1
f 9//1 8//1 5//1
f 30//1 29//1 11//1
f 9//1 5//1 4//1
f 30//1 11//1 10//1
f 10//1 9//1 4//1
f 30//1 10//1 4//1
f 30//1 4//1 3//1
f 31//1 30//1 3//1
f 31//1 3//1 2//1
f 31//1 2//1 1//1
f 31//1 1//1 61//1
f 31//1 61//1 60//1
f 32//1 31//1 60//1
f 32//1 60//1 59//1
f 32//1 59//1 58//1
f 32//1 58//1 57//1
f 33//1 32//1 57//1
f 33//1 57//1 56//1
f 34//1 33//1 56//1
f 34//1 56//1 55//1
f 41//1 34//1 55//1
f 42//1 41//1 55//1
f 43//1 42//1 55//1
f 35//1 34//1 41//1
f 43//1 55//1 54//1
f 44//1 43//1 54//1
f 35//1 41//1 40//1
f 44//1 54//1 53//1
f 44//1 53//1 52//1
f 45//1 44//1 52//1
f 45//1 52//1 51//1
f 45//1 51//1 48//1
f 46//1 45//1 48//1
f 48//1 51//1 50//1
f 49//1 48//1 50//1
f 46//1 48//1 47//1
f 35//1 40//1 39//1
f 36//1 35//1 39//1
f 37//1 36//1 39//1
f 37//1 39//1 38//1
f 80//2 62//2 66//2
f 63//2 104//2 117//2
f 63//2 106//2 104//2
f 106//2 62//2 80//2
f 63//2 62//2 106//2
f 105//2 62//2 63//2
f 105//2 94//2 62//2
f 95//2 94//2 105//2
f 91//2 94//2 95//2
f 91//2 90//2 94//2
f 67//2 90//2 91//2
f 67//2 118//2 90//2
f 68//2 118//2 67//2
f 68//2 83//2 118//2
f 69//2 83//2 68//2
f 93//2 109//2 121//2
f 70//2 83//2 69//2
f 70//2 86//2 83//2
f 93//2 92//2 109//2
f 71//2 92//2 93//2
f 87//2 86//2 70//2
f 71//2 96//2 92//2
f 87//2 72//2 86//2
f 72//2 96//2 71//2
f 87//2 96//2 72//2
f 87//2 110//2 96//2
f 107//2 110//2 87//2
f 107//2 111//2 110//2
f 107//2 82//2 111//2
f 107//2 81//2 82//2
f 107//2 74//2 81//2
f 73//2 74//2 107//2
f 73//2 77//2 74//2
f 73//2 116//2 77//2
f 73//2 102//2 116//2
f 108//2 102//2 73//2
f 108//2 101//2 102//2
f 98//2 101//2 108//2
f 98//2 79//2 101//2
f 103//3 79//3 98//3
f 112//2 79//2 103//2
f 100//2 79//2 112//2
f 99//2 103//2 98//2
f 100//2 78//2 79//2
f 113//2 78//2 100//2
f 99//2 114//2 103//2
f 113//2 120//2 78//2
f 113//2 76//2 120//2
f 75//2 76//2 113//2
f 75//2 97//2 76//2
f 75//2 64//2 97//2
f 115//2 64//2 75//2
f 64//2 65//2 97//2
f 119//2 65//2 64//2
f 115//2 122//2 64//2
f 99//2 85//2 114//2
f 88//2 85//2 99//2
f 89//2 85//2 88//2
f 89//2 84//2 85//2
f 36//4 37//4 89//4 88//4
f 48//5 49//5 119//5 64//5
f 19//6 20//6 104//6 106//6
f 10//7 11//7 86//7 72//7
f 35//8 36//8 88//8 99//8
f 12//9 13//9 118//9 83//9
f 49//10 50//10 65//10 119//10
f 52//11 53//11 120//11 76//11
f 24//12 25//12 91//12 95//12
f 53//13 54//13 78//13 120//13
f 23//14 24//14 95//14 105//14
f 55//15 56//15 101//15 79//15
f 37//16 38//16 84//16 89//16
f 34//17 35//17 99//17 98//17
f 2//18 3//18 110//18 111//18
f 42//19 43//19 100//19 112//19
f 18//20 19//20 106//20 80//20
f 33//21 34//21 98//21 108//21
f 44//22 45//22 75//22 113//22
f 14//23 15//23 94//23 90//23
f 56//24 57//24 102//24 101//24
f 39//25 40//25 114//25 85//25
f 50//26 51//26 97//26 65//26
f 27//27 28//27 69//27 68//27
f 16//28 17//28 66//28 62//28
f 31//29 32//29 73//29 107//29
f 45//30 46//30 115//30 75//30
f 4//31 5//31 92//31 96//31
f 26//32 27//32 68//32 67//32
f 57//33 58//33 116//33 102//33
f 28//34 29//34 70//34 69//34
f 46//35 47//35 122//35 115//35
f 8//36 9//36 71//36 93//36
f 20//37 21//37 117//37 104//37
f 22//38 23//38 105//38 63//38
f 9//39 10//39 72//39 71//39
f 15//40 16//40 62//40 94//40
f 43//41 44//41 113//41 100//41
f 6//42 7//42 121//42 109//42
f 41//43 42//43 112//43 103//43
f 47//44 48//44 64//44 122//44
f 29//45 30//45 87//45 70//45
f 59//46 60//46 74//46 77//46
f 58//47 59//47 77//47 116//47
f 30//48 31//48 107//48 87//48
f 54//49 55//49 79//49 78//49
f 5//50 6//50 109//50 92//50
f 51//51 52//51 76//51 97//51
f 25//52 26//52 67//52 91//52
f 11//53 12//53 83//53 86//53
f 17//54 18//54 80//54 66//54
f 7//55 8//55 93//55 121//55
f 61//56 1//56 82//56 81//56
f 3//57 4//57 96//57 110//57
f 40//58 41//58 103//58 114//58
f 38//59 39//59 85//59 84//59
f 1//60 2//60 111//60 82//60
f 21//61 22//61 63//61 117//61
f 13//62 14//62 90//62 118//62
f 32//63 33//63 108//63 73//63
f 60//64 61//64 81//64 74//64
