# Blender v2.79 (sub 0) OBJ File: 'world_countrycodes_outlines2.blend'
# www.blender.org
mtllib CZ_outline.mtl
o CZ.001_CUCurve.1642
v 1.067346 0.001113 0.341232
v 1.059180 0.001409 0.344721
v 1.059021 -0.000688 0.344127
v 1.060826 -0.000788 0.347666
v 1.060176 0.001938 0.346592
v 1.055691 0.001990 0.347859
v 1.054985 -0.001940 0.346466
v 1.057070 -0.000900 0.348613
v 1.055095 0.000010 0.344923
v 1.054992 0.001475 0.345857
v 1.055203 0.000701 0.352811
v 1.054982 -0.001587 0.349890
v 1.053719 0.000845 0.349580
v 1.052402 0.000054 0.345775
v 1.051817 -0.001911 0.346751
v 1.051189 0.000812 0.349558
v 1.051165 -0.001435 0.349001
v 1.051783 0.001920 0.346809
v 1.046441 0.001346 0.346443
v 1.047428 -0.000810 0.343327
v 1.046662 -0.000714 0.347097
v 1.044202 0.001580 0.343283
v 1.044255 -0.001868 0.344311
v 1.042687 -0.000841 0.346422
v 1.044230 -0.001921 0.348940
v 1.044561 -0.000055 0.350331
v 1.044498 0.001454 0.349467
v 1.043321 0.001917 0.347522
v 1.038637 0.001472 0.349162
v 1.039744 0.001967 0.347326
v 1.038170 -0.001921 0.347870
v 1.040622 -0.000832 0.346328
v 1.038094 -0.000805 0.349647
v 1.034363 0.000716 0.341487
v 1.033317 -0.001942 0.342148
v 1.031854 0.001974 0.342818
v 1.031071 -0.000748 0.343892
v 1.032472 0.000832 0.336628
v 1.031187 -0.001966 0.336279
v 1.028116 0.000736 0.336186
v 1.028405 -0.001309 0.335449
v 1.029495 0.000124 0.333960
v 1.029930 0.001950 0.334919
v 1.036739 0.000735 0.335566
v 1.035112 -0.001413 0.332538
v 1.043751 -0.001982 0.330311
v 1.041678 -0.001391 0.332435
v 1.036443 0.000691 0.331116
v 1.041317 0.000789 0.329010
v 1.042348 0.000702 0.332926
v 1.043270 -0.001104 0.329009
v 1.043781 0.001967 0.330234
v 1.045094 0.001387 0.332559
v 1.045180 -0.000804 0.333072
v 1.044936 -0.000728 0.328360
v 1.045053 0.001489 0.329124
v 1.052638 -0.000584 0.332192
v 1.051629 0.001922 0.332890
v 1.049909 0.000805 0.335262
v 1.050302 -0.001373 0.334984
v 1.053777 -0.002007 0.336304
v 1.053888 0.001628 0.335052
v 1.053400 0.001956 0.337520
v 1.053996 -0.000970 0.334666
v 1.053163 -0.000732 0.338675
v 1.056948 0.000570 0.337432
v 1.057093 -0.001196 0.336811
v 1.054928 -0.000737 0.333562
v 1.060004 -0.000683 0.334127
v 1.060359 0.001438 0.335795
v 1.058905 0.001979 0.336847
v 1.059483 -0.002083 0.336986
v 1.061245 -0.000853 0.336442
v 1.058762 0.001447 0.339110
v 1.058456 -0.000659 0.339674
v 1.062912 -0.001305 0.340546
v 1.065235 0.002018 0.340091
v 1.065977 -0.002009 0.341071
v 1.064515 0.000669 0.336928
v 1.062278 0.000749 0.340674
v 1.064018 -0.001413 0.337309
v 1.068284 -0.000780 0.341281
vn 0.8146 0.5325 0.2299
vn 0.4362 -0.3557 0.8265
vn 0.3945 -0.8969 0.1998
vn -0.3969 -0.8831 0.2501
vn -0.4811 -0.1049 -0.8703
vn -0.6851 0.6853 0.2468
vn -0.3184 0.7791 -0.5400
vn 0.2255 0.8630 0.4520
vn 0.2551 0.9572 -0.1369
vn -0.0571 -0.9428 -0.3284
vn 0.1715 0.9564 0.2364
vn 0.5530 -0.4990 0.6672
vn -0.2696 -0.0481 -0.9618
vn -0.1049 0.7971 -0.5946
vn 0.0095 0.1840 0.9828
vn -0.3720 0.5472 0.7497
vn -0.0129 0.9719 -0.2351
vn 0.0588 -0.0031 -0.9983
vn -0.2364 -0.6994 0.6745
vn 0.0099 -0.8422 0.5391
vn -0.2161 0.4114 0.8855
vn 0.0470 -0.9543 -0.2951
vn 0.0608 0.9164 0.3956
vn -0.4047 0.5609 -0.7222
vn 0.2367 -0.2962 -0.9253
vn 0.1885 -0.6255 0.7571
vn -0.3858 -0.7779 -0.4960
vn -0.5382 -0.4956 -0.6817
vn 0.2318 -0.8938 0.3839
vn 0.4054 -0.0478 0.9129
vn 0.3657 0.7427 0.5608
vn -0.3759 -0.3115 0.8727
vn -0.0351 0.9811 -0.1903
vn -0.2653 0.6815 0.6820
vn 0.1617 0.9467 -0.2786
vn -0.0881 -0.9796 0.1807
vn 0.2830 -0.3796 -0.8808
vn 0.7071 0.3970 -0.5851
vn -0.7903 -0.3138 0.5262
vn -0.4093 0.8834 0.2282
vn -0.7718 -0.5954 -0.2230
vn 0.6815 0.6321 0.3687
vn -0.3301 0.8875 -0.3214
vn 0.0969 -0.9936 0.0582
vn 0.1723 -0.9692 -0.1759
vn 0.3259 0.3345 0.8842
vn -0.5685 0.0164 -0.8225
vn -0.2589 -0.7334 -0.6286
vn -0.0950 0.9466 -0.3081
vn 0.0136 -0.9858 -0.1670
vn 0.2012 -0.6898 0.6954
vn -0.3496 0.2545 -0.9016
vn -0.1778 -0.4256 -0.8873
vn -0.2055 0.3385 -0.9182
vn 0.1544 0.4188 0.8948
vn -0.2510 -0.4422 0.8610
vn 0.0490 -0.2724 -0.9609
vn -0.0330 0.6236 -0.7811
vn 0.6049 -0.3063 -0.7350
vn 0.2700 0.8851 -0.3791
vn -0.1758 0.7404 0.6488
vn -0.5164 0.4972 0.6972
vn -0.4686 -0.5538 0.6882
vn -0.0126 -0.9936 0.1119
vn -0.0743 0.8347 0.5456
vn 0.3070 0.8629 -0.4014
vn 0.0674 -0.6451 -0.7611
vn -0.2228 -0.2949 0.9292
vn -0.3511 0.4502 0.8210
vn -0.1996 -0.4543 0.8682
vn -0.2237 -0.2503 -0.9420
vn 0.4630 -0.2221 -0.8581
vn -0.1207 0.9923 -0.0259
vn 0.0244 -0.9987 -0.0456
vn 0.3202 0.6855 -0.6538
vn 0.4643 -0.5509 -0.6934
vn -0.4465 0.6880 0.5720
vn -0.5449 -0.3527 0.7607
vn 0.5162 0.3106 -0.7982
vn 0.8929 -0.2496 0.3747
vn 0.2466 -0.7579 -0.6039
vn -0.9492 0.3109 0.0489
usemtl SVGMat.3781
s 1
f 1//1 4//2 78//3
f 76//4 3//5 80//6
f 78//3 3//5 76//4
f 2//7 5//8 77//9
f 4//2 7//10 78//3
f 2//7 6//11 5//8
f 6//11 8//12 4//2
f 7//10 9//13 3//5
f 9//13 10//14 2//7
f 6//11 11//15 8//12
f 6//11 13//16 11//15
f 9//13 18//17 10//14
f 7//10 14//18 9//13
f 13//16 17//19 12//20
f 6//11 16//21 13//16
f 17//19 15//22 7//10
f 18//17 19//23 16//21
f 14//18 22//24 18//17
f 15//22 20//25 14//18
f 21//26 23//27 15//22
f 23//27 24//28 22//24
f 21//26 25//29 23//27
f 19//23 26//30 21//26
f 22//24 27//31 19//23
f 26//30 25//29 21//26
f 26//30 33//32 25//29
f 28//33 29//34 27//31
f 24//28 30//35 28//33
f 31//36 32//37 24//28
f 29//34 33//32 26//30
f 32//37 34//38 30//35
f 29//34 37//39 33//32
f 36//40 41//41 37//39
f 38//42 43//43 36//40
f 39//44 38//42 34//38
f 37//39 39//44 35//45
f 39//44 44//46 38//42
f 42//47 45//48 41//41
f 44//46 52//49 43//43
f 45//48 46//50 39//44
f 46//50 47//51 39//44
f 48//52 51//53 45//48
f 52//49 49//54 48//52
f 47//51 50//55 44//46
f 46//50 54//56 47//51
f 51//53 55//57 46//50
f 52//49 55//57 51//53
f 56//58 57//59 55//57
f 52//49 58//60 56//58
f 53//61 58//60 52//49
f 54//56 59//62 53//61
f 46//50 60//63 54//56
f 55//57 61//64 46//50
f 59//62 63//65 58//60
f 62//66 64//67 57//59
f 60//63 65//68 59//62
f 61//64 65//68 60//63
f 65//68 66//69 63//65
f 61//64 67//70 65//68
f 66//69 62//66 63//65
f 62//66 68//71 64//67
f 62//66 69//72 68//71
f 66//69 71//73 62//66
f 68//71 72//74 61//64
f 70//75 73//76 69//72
f 66//69 74//77 71//73
f 67//70 75//78 66//69
f 72//74 75//78 67//70
f 72//74 76//4 75//78
f 74//77 77//9 71//73
f 73//76 78//3 72//74
f 70//75 79//79 73//76
f 77//9 79//79 70//75
f 75//78 80//6 74//77
f 76//4 80//6 75//78
f 79//79 82//80 81//81
f 77//9 1//1 79//79
f 1//1 82//80 79//79
f 80//6 2//7 77//9
f 80//6 3//5 2//7
f 77//9 5//8 1//1
f 1//1 5//8 4//2
f 78//3 7//10 3//5
f 5//8 6//11 4//2
f 4//2 8//12 7//10
f 3//5 9//13 2//7
f 2//7 10//14 6//11
f 8//12 11//15 12//20
f 8//12 12//20 7//10
f 11//15 13//16 12//20
f 10//14 18//17 6//11
f 9//13 14//18 18//17
f 7//10 15//22 14//18
f 13//16 16//21 17//19
f 12//20 17//19 7//10
f 6//11 18//17 16//21
f 16//21 21//26 17//19
f 16//21 19//23 21//26
f 14//18 20//25 22//24
f 17//19 21//26 15//22
f 18//17 22//24 19//23
f 15//22 23//27 20//25
f 20//25 23//27 22//24
f 22//24 24//28 28//33
f 23//27 25//29 24//28
f 19//23 27//31 26//30
f 22//24 28//33 27//31
f 27//31 29//34 26//30
f 28//33 30//35 29//34
f 25//29 31//36 24//28
f 25//29 33//32 31//36
f 24//28 32//37 30//35
f 30//35 36//40 29//34
f 30//35 34//38 36//40
f 31//36 35//45 32//37
f 33//32 37//39 31//36
f 32//37 35//45 34//38
f 29//34 36//40 37//39
f 31//36 37//39 35//45
f 34//38 38//42 36//40
f 35//45 39//44 34//38
f 36//40 40//82 41//41
f 36//40 43//43 40//82
f 37//39 41//41 39//44
f 40//82 42//47 41//41
f 40//82 43//43 42//47
f 38//42 44//46 43//43
f 43//43 48//52 42//47
f 43//43 52//49 48//52
f 41//41 45//48 39//44
f 39//44 47//51 44//46
f 42//47 48//52 45//48
f 48//52 49//54 51//53
f 44//46 50//55 52//49
f 45//48 51//53 46//50
f 49//54 52//49 51//53
f 50//55 53//61 52//49
f 47//51 54//56 50//55
f 50//55 54//56 53//61
f 52//49 56//58 55//57
f 56//58 58//60 57//59
f 53//61 59//62 58//60
f 54//56 60//63 59//62
f 46//50 61//64 60//63
f 55//57 57//59 61//64
f 58//60 62//66 57//59
f 57//59 64//67 61//64
f 58//60 63//65 62//66
f 59//62 65//68 63//65
f 65//68 67//70 66//69
f 64//67 68//71 61//64
f 62//66 70//75 69//72
f 62//66 71//73 70//75
f 61//64 72//74 67//70
f 68//71 69//72 72//74
f 69//72 73//76 72//74
f 66//69 75//78 74//77
f 71//73 77//9 70//75
f 72//74 78//3 76//4
f 73//76 79//79 81//81
f 74//77 80//6 77//9
f 73//76 81//81 78//3
f 81//81 82//80 78//3
f 82//80 1//1 78//3
