# Blender v2.79 (sub 0) OBJ File: 'world_countrycodes_export2.blend'
# www.blender.org
mtllib DJ.mtl
o DJ.002_CUCurve.1846
v 1.196562 0.000000 0.579207
v 1.195250 0.000000 0.581253
v 1.193705 0.000000 0.583206
v 1.193187 0.000000 0.584494
v 1.193070 0.000000 0.586039
v 1.193296 0.000000 0.587257
v 1.193633 0.000000 0.588030
v 1.194117 0.000000 0.588335
v 1.195362 0.000000 0.588326
v 1.196342 0.000000 0.587994
v 1.197131 0.000000 0.587540
v 1.197740 0.000000 0.587412
v 1.198449 0.000000 0.587774
v 1.199441 0.000000 0.588688
v 1.200434 0.000000 0.587328
v 1.201787 0.000000 0.585860
v 1.200629 0.000000 0.585311
v 1.198795 0.000000 0.584672
v 1.198746 0.000000 0.584307
v 1.199864 0.000000 0.583105
v 1.201263 0.000000 0.582214
v 1.202476 0.000000 0.581813
v 1.202847 0.000000 0.581360
v 1.202867 0.000000 0.580512
v 1.202098 0.000000 0.579190
v 1.200765 0.000000 0.577907
v 1.199887 0.000000 0.578434
v 1.199063 0.000000 0.579145
v 1.198637 0.000000 0.579361
v 1.197776 0.000000 0.579361
v 1.193187 0.050000 0.584494
v 1.198746 0.050000 0.584307
v 1.198449 0.050000 0.587774
v 1.199441 0.050000 0.588688
v 1.194117 0.050000 0.588335
v 1.195362 0.050000 0.588326
v 1.193070 0.050000 0.586039
v 1.201787 0.050000 0.585860
v 1.195250 0.050000 0.581253
v 1.201263 0.050000 0.582214
v 1.202867 0.050000 0.580512
v 1.198637 0.050000 0.579361
v 1.199864 0.050000 0.583105
v 1.200629 0.050000 0.585311
v 1.202098 0.050000 0.579190
v 1.199063 0.050000 0.579145
v 1.196562 0.050000 0.579207
v 1.200765 0.050000 0.577907
v 1.199887 0.050000 0.578434
v 1.196342 0.050000 0.587994
v 1.193633 0.050000 0.588030
v 1.197131 0.050000 0.587540
v 1.193705 0.050000 0.583206
v 1.200434 0.050000 0.587328
v 1.198795 0.050000 0.584672
v 1.202476 0.050000 0.581813
v 1.202847 0.050000 0.581360
v 1.197776 0.050000 0.579361
v 1.197740 0.050000 0.587412
v 1.193296 0.050000 0.587257
vn 0.0000 -1.0000 0.0000
vn 0.0000 1.0000 0.0000
vn -0.9167 0.0000 0.3995
vn -0.8417 0.0000 -0.5399
vn 0.8645 0.0000 -0.5027
vn -0.4524 0.0000 -0.8918
vn -0.5149 0.0000 -0.8573
vn 0.7320 0.0000 0.6813
vn 0.3214 0.0000 0.9469
vn 0.6934 0.0000 -0.7206
vn 0.5372 0.0000 0.8435
vn -0.4551 0.0000 0.8905
vn -0.6777 0.0000 0.7353
vn -0.7844 0.0000 -0.6202
vn 0.2073 0.0000 0.9783
vn 0.0069 0.0000 1.0000
vn 0.3291 0.0000 -0.9443
vn -0.9832 0.0000 0.1825
vn -0.5339 0.0000 0.8455
vn 0.9997 0.0000 0.0232
vn 0.7355 0.0000 0.6775
vn 0.8075 0.0000 0.5899
vn 0.4284 0.0000 -0.9036
vn 0.9911 0.0000 -0.1328
vn 0.3140 0.0000 0.9494
vn 0.7740 0.0000 0.6332
vn -0.9972 0.0000 -0.0751
vn -0.6534 0.0000 -0.7570
vn 0.0003 0.0000 -1.0000
vn 0.4981 0.0000 0.8671
vn 0.1257 0.0000 -0.9921
vn -0.9276 0.0000 -0.3737
usemtl SVGMat.3781
s off
f 27//1 26//1 25//1
f 28//1 27//1 25//1
f 2//1 1//1 30//1
f 29//1 28//1 25//1
f 2//1 30//1 29//1
f 2//1 29//1 25//1
f 2//1 25//1 24//1
f 2//1 24//1 23//1
f 2//1 23//1 22//1
f 2//1 22//1 21//1
f 2//1 21//1 20//1
f 3//1 2//1 20//1
f 4//1 3//1 20//1
f 4//1 20//1 19//1
f 4//1 19//1 18//1
f 4//1 18//1 17//1
f 5//1 4//1 17//1
f 5//1 17//1 16//1
f 5//1 16//1 15//1
f 6//1 5//1 15//1
f 12//1 6//1 15//1
f 6//1 12//1 11//1
f 13//1 12//1 15//1
f 7//1 6//1 11//1
f 7//1 11//1 10//1
f 7//1 10//1 9//1
f 8//1 7//1 9//1
f 14//1 13//1 15//1
f 49//2 45//2 48//2
f 46//2 45//2 49//2
f 39//2 58//2 47//2
f 42//2 45//2 46//2
f 39//2 42//2 58//2
f 39//2 45//2 42//2
f 39//2 41//2 45//2
f 39//2 57//2 41//2
f 39//2 56//2 57//2
f 39//2 40//2 56//2
f 39//2 43//2 40//2
f 53//2 43//2 39//2
f 31//2 43//2 53//2
f 31//2 32//2 43//2
f 31//2 55//2 32//2
f 31//2 44//2 55//2
f 37//2 44//2 31//2
f 37//2 38//2 44//2
f 37//2 54//2 38//2
f 60//2 54//2 37//2
f 59//2 54//2 60//2
f 60//2 52//2 59//2
f 33//2 54//2 59//2
f 51//2 52//2 60//2
f 51//2 50//2 52//2
f 51//2 36//2 50//2
f 35//2 36//2 51//2
f 34//2 54//2 33//2
f 6//3 7//3 51//3 60//3
f 1//4 2//4 39//4 47//4
f 24//5 25//5 45//5 41//5
f 28//6 29//6 42//6 46//6
f 26//7 27//7 49//7 48//7
f 19//8 20//8 43//8 32//8
f 9//9 10//9 50//9 36//9
f 25//10 26//10 48//10 45//10
f 20//11 21//11 40//11 43//11
f 12//12 13//12 33//12 59//12
f 13//13 14//13 34//13 33//13
f 2//14 3//14 53//14 39//14
f 11//15 12//15 59//15 52//15
f 8//16 9//16 36//16 35//16
f 17//17 18//17 55//17 44//17
f 5//18 6//18 60//18 37//18
f 7//19 8//19 35//19 51//19
f 23//20 24//20 41//20 57//20
f 15//21 16//21 38//21 54//21
f 14//22 15//22 54//22 34//22
f 16//23 17//23 44//23 38//23
f 18//24 19//24 32//24 55//24
f 21//25 22//25 56//25 40//25
f 22//26 23//26 57//26 56//26
f 4//27 5//27 37//27 31//27
f 27//28 28//28 46//28 49//28
f 29//29 30//29 58//29 42//29
f 10//30 11//30 52//30 50//30
f 30//31 1//31 47//31 58//31
f 3//32 4//32 31//32 53//32
