# Blender v2.79 (sub 0) OBJ File: 'world_countrycodes_export2.blend'
# www.blender.org
mtllib DK.mtl
o DK.002_CUCurve.1753
v 1.031604 0.000000 0.291952
v 1.030235 0.000000 0.293358
v 1.029759 0.000000 0.293260
v 1.028502 0.000000 0.291400
v 1.027901 0.000000 0.292720
v 1.025910 0.000000 0.292515
v 1.024718 0.000000 0.293310
v 1.023978 0.000000 0.294722
v 1.024277 0.000000 0.296455
v 1.025693 0.000000 0.298101
v 1.027106 0.000000 0.299165
v 1.027072 0.000000 0.299877
v 1.026034 0.000000 0.300383
v 1.024611 0.000000 0.300280
v 1.024306 0.000000 0.300589
v 1.024477 0.000000 0.301436
v 1.025972 0.000000 0.302707
v 1.027768 0.000000 0.302686
v 1.029715 0.000000 0.300793
v 1.030721 0.000000 0.298678
v 1.030754 0.000000 0.297444
v 1.031961 0.000000 0.293919
v 1.032297 0.000000 0.292356
v 1.032082 0.000000 0.291987
v 1.019327 0.000000 0.286829
v 1.018811 0.000000 0.286008
v 1.018582 0.000000 0.284696
v 1.018915 0.000000 0.283411
v 1.019642 0.000000 0.282339
v 1.020195 0.000000 0.280820
v 1.020137 0.000000 0.278989
v 1.019576 0.000000 0.277852
v 1.017722 0.000000 0.277932
v 1.016070 0.000000 0.279149
v 1.015462 0.000000 0.281225
v 1.014471 0.000000 0.281887
v 1.012645 0.000000 0.281974
v 1.012123 0.000000 0.282345
v 1.012879 0.000000 0.283659
v 1.012733 0.000000 0.284553
v 1.011802 0.000000 0.284831
v 1.010424 0.000000 0.283399
v 1.009076 0.000000 0.282893
v 1.007980 0.000000 0.283624
v 1.006459 0.000000 0.287320
v 1.006040 0.000000 0.289763
v 1.006193 0.000000 0.292211
v 1.006796 0.000000 0.294515
v 1.008537 0.000000 0.296922
v 1.008821 0.000000 0.297882
v 1.008597 0.000000 0.299111
v 1.009526 0.000000 0.300978
v 1.012172 0.000000 0.301067
v 1.015297 0.000000 0.301585
v 1.016843 0.000000 0.301514
v 1.016430 0.000000 0.300932
v 1.014681 0.000000 0.299080
v 1.014664 0.000000 0.298166
v 1.015436 0.000000 0.297974
v 1.016689 0.000000 0.298470
v 1.017899 0.000000 0.299426
v 1.019549 0.000000 0.299878
v 1.021104 0.000000 0.299588
v 1.021468 0.000000 0.298936
v 1.021280 0.000000 0.297249
v 1.020773 0.000000 0.295998
v 1.020008 0.000000 0.295333
v 1.018307 0.000000 0.295994
v 1.017381 0.000000 0.295867
v 1.016725 0.000000 0.295024
v 1.016747 0.000000 0.294351
v 1.018138 0.000000 0.292307
v 1.018656 0.000000 0.291189
v 1.019612 0.000000 0.290728
v 1.021603 0.000000 0.290214
v 1.022105 0.000000 0.289386
v 1.021438 0.000000 0.288260
v 1.030721 0.050000 0.298678
v 1.030754 0.050000 0.297444
v 1.016070 0.050000 0.279149
v 1.015462 0.050000 0.281225
v 1.016725 0.050000 0.295024
v 1.016747 0.050000 0.294351
v 1.031961 0.050000 0.293919
v 1.032297 0.050000 0.292356
v 1.027768 0.050000 0.302686
v 1.029715 0.050000 0.300793
v 1.024477 0.050000 0.301436
v 1.025972 0.050000 0.302707
v 1.006796 0.050000 0.294515
v 1.017381 0.050000 0.295867
v 1.018307 0.050000 0.295994
v 1.006040 0.050000 0.289763
v 1.018656 0.050000 0.291189
v 1.019642 0.050000 0.282339
v 1.012123 0.050000 0.282345
v 1.029759 0.050000 0.293260
v 1.027901 0.050000 0.292720
v 1.008597 0.050000 0.299111
v 1.014681 0.050000 0.299080
v 1.006193 0.050000 0.292211
v 1.018138 0.050000 0.292307
v 1.026034 0.050000 0.300383
v 1.024306 0.050000 0.300589
v 1.008821 0.050000 0.297882
v 1.015436 0.050000 0.297974
v 1.019549 0.050000 0.299878
v 1.021104 0.050000 0.299588
v 1.024611 0.050000 0.300280
v 1.017899 0.050000 0.299426
v 1.023978 0.050000 0.294722
v 1.032082 0.050000 0.291987
v 1.031604 0.050000 0.291952
v 1.020773 0.050000 0.295998
v 1.020008 0.050000 0.295333
v 1.019612 0.050000 0.290728
v 1.018915 0.050000 0.283411
v 1.012879 0.050000 0.283659
v 1.021603 0.050000 0.290214
v 1.025693 0.050000 0.298101
v 1.027106 0.050000 0.299165
v 1.021280 0.050000 0.297249
v 1.024277 0.050000 0.296455
v 1.009076 0.050000 0.282893
v 1.007980 0.050000 0.283624
v 1.027072 0.050000 0.299877
v 1.011802 0.050000 0.284831
v 1.010424 0.050000 0.283399
v 1.021468 0.050000 0.298936
v 1.016843 0.050000 0.301514
v 1.016430 0.050000 0.300932
v 1.020195 0.050000 0.280820
v 1.009526 0.050000 0.300978
v 1.012172 0.050000 0.301067
v 1.030235 0.050000 0.293358
v 1.024718 0.050000 0.293310
v 1.006459 0.050000 0.287320
v 1.021438 0.050000 0.288260
v 1.019327 0.050000 0.286829
v 1.008537 0.050000 0.296922
v 1.022105 0.050000 0.289386
v 1.016689 0.050000 0.298470
v 1.014664 0.050000 0.298166
v 1.018582 0.050000 0.284696
v 1.012733 0.050000 0.284553
v 1.014471 0.050000 0.281887
v 1.019576 0.050000 0.277852
v 1.017722 0.050000 0.277932
v 1.012645 0.050000 0.281974
v 1.020137 0.050000 0.278989
v 1.028502 0.050000 0.291400
v 1.018811 0.050000 0.286008
v 1.025910 0.050000 0.292515
v 1.015297 0.050000 0.301585
vn 0.0000 -1.0000 0.0000
vn 0.0000 1.0000 0.0000
vn 0.8469 0.0000 -0.5318
vn 0.9461 0.0000 0.3239
vn 0.7205 0.0000 -0.6935
vn 0.9851 0.0000 -0.1722
vn 0.1362 0.0000 -0.9907
vn -0.7580 0.0000 0.6523
vn 0.8966 0.0000 -0.4428
vn -0.3624 0.0000 -0.9320
vn 0.9939 0.0000 -0.1104
vn 0.9995 0.0000 -0.0317
vn 0.9680 0.0000 0.2509
vn -0.9857 0.0000 -0.1688
vn 0.8157 0.0000 -0.5785
vn -0.9247 0.0000 -0.3807
vn -0.5548 0.0000 -0.8320
vn 0.8277 0.0000 0.5611
vn 0.3518 0.0000 -0.9361
vn -0.0430 0.0000 -0.9991
vn -0.9988 0.0000 -0.0482
vn -0.0334 0.0000 0.9994
vn 0.1022 0.0000 -0.9948
vn 0.0723 0.0000 -0.9974
vn -0.9981 0.0000 0.0623
vn 0.8269 0.0000 0.5624
vn 0.2025 0.0000 -0.9793
vn -0.9101 0.0000 -0.4143
vn 0.7893 0.0000 -0.6140
vn 0.1833 0.0000 0.9831
vn -0.9838 0.0000 -0.1791
vn 0.0115 0.0000 0.9999
vn 0.7270 0.0000 -0.6866
vn -0.8953 0.0000 0.4454
vn -0.8665 0.0000 0.4992
vn -0.7111 0.0000 -0.7031
vn -0.1636 0.0000 0.9865
vn 0.4342 0.0000 0.9008
vn -0.9869 0.0000 -0.1615
vn 0.0461 0.0000 0.9989
vn 0.8285 0.0000 -0.5600
vn -0.9674 0.0000 0.2533
vn 0.5610 0.0000 -0.8278
vn -0.7165 0.0000 -0.6975
vn 0.0732 0.0000 -0.9973
vn 0.9073 0.0000 0.4205
vn 0.8549 0.0000 0.5188
vn 0.6562 0.0000 -0.7546
vn 0.8603 0.0000 -0.5098
vn -0.0475 0.0000 -0.9989
vn -0.6194 0.0000 0.7851
vn 0.8735 0.0000 0.4869
vn 0.9996 0.0000 0.0273
vn -0.5552 0.0000 -0.8317
vn -0.8857 0.0000 -0.4643
vn 0.9998 0.0000 -0.0188
vn -0.9597 0.0000 -0.2809
vn 0.9266 0.0000 -0.3760
vn 0.9031 0.0000 0.4295
vn 0.2413 0.0000 0.9705
vn -0.6016 0.0000 0.7988
vn -0.3680 0.0000 0.9298
vn 0.9995 0.0000 0.0324
vn -0.5933 0.0000 -0.8050
vn -0.2644 0.0000 0.9644
vn 0.9777 0.0000 0.2101
vn 0.8639 0.0000 -0.5036
vn -0.8103 0.0000 0.5860
vn -0.9854 0.0000 0.1701
vn -0.9589 0.0000 0.2838
vn 0.6972 0.0000 0.7169
vn 0.9396 0.0000 0.3424
vn -0.5782 0.0000 -0.8159
vn -0.2855 0.0000 -0.9584
vn -0.6476 0.0000 0.7620
vn 0.2500 0.0000 0.9682
vn -0.9802 0.0000 0.1982
vn -0.4385 0.0000 -0.8988
usemtl SVGMat.3781
s off
f 33//1 32//1 31//1
f 34//1 33//1 31//1
f 34//1 31//1 30//1
f 35//1 34//1 30//1
f 36//1 35//1 30//1
f 36//1 30//1 29//1
f 37//1 36//1 29//1
f 38//1 37//1 29//1
f 38//1 29//1 28//1
f 39//1 38//1 28//1
f 44//1 43//1 42//1
f 40//1 39//1 28//1
f 40//1 28//1 27//1
f 44//1 42//1 41//1
f 45//1 44//1 41//1
f 41//1 40//1 27//1
f 45//1 41//1 27//1
f 45//1 27//1 26//1
f 45//1 26//1 25//1
f 45//1 25//1 77//1
f 46//1 45//1 77//1
f 46//1 77//1 76//1
f 46//1 76//1 75//1
f 46//1 75//1 74//1
f 46//1 74//1 73//1
f 47//1 46//1 73//1
f 47//1 73//1 72//1
f 47//1 72//1 71//1
f 48//1 47//1 71//1
f 48//1 71//1 70//1
f 48//1 70//1 69//1
f 68//1 67//1 66//1
f 49//1 48//1 69//1
f 49//1 69//1 68//1
f 49//1 68//1 66//1
f 49//1 66//1 65//1
f 50//1 49//1 65//1
f 59//1 50//1 65//1
f 50//1 59//1 58//1
f 59//1 65//1 64//1
f 51//1 50//1 58//1
f 60//1 59//1 64//1
f 51//1 58//1 57//1
f 61//1 60//1 64//1
f 61//1 64//1 63//1
f 62//1 61//1 63//1
f 52//1 51//1 57//1
f 52//1 57//1 56//1
f 52//1 56//1 53//1
f 53//1 56//1 55//1
f 54//1 53//1 55//1
f 1//1 24//1 23//1
f 5//1 4//1 3//1
f 6//1 5//1 3//1
f 7//1 6//1 3//1
f 2//1 1//1 23//1
f 2//1 23//1 22//1
f 7//1 3//1 2//1
f 7//1 2//1 22//1
f 8//1 7//1 22//1
f 8//1 22//1 21//1
f 9//1 8//1 21//1
f 10//1 9//1 21//1
f 10//1 21//1 20//1
f 11//1 10//1 20//1
f 11//1 20//1 19//1
f 12//1 11//1 19//1
f 13//1 12//1 19//1
f 15//1 14//1 13//1
f 15//1 13//1 19//1
f 16//1 15//1 19//1
f 16//1 19//1 18//1
f 17//1 16//1 18//1
f 148//2 150//2 147//2
f 80//2 150//2 148//2
f 80//2 132//2 150//2
f 81//2 132//2 80//2
f 146//2 132//2 81//2
f 146//2 95//2 132//2
f 149//2 95//2 146//2
f 96//2 95//2 149//2
f 96//2 117//2 95//2
f 118//2 117//2 96//2
f 125//2 128//2 124//2
f 145//2 117//2 118//2
f 145//2 144//2 117//2
f 125//2 127//2 128//2
f 137//2 127//2 125//2
f 127//2 144//2 145//2
f 137//2 144//2 127//2
f 137//2 152//2 144//2
f 137//2 139//2 152//2
f 137//2 138//2 139//2
f 93//2 138//2 137//2
f 93//2 141//2 138//2
f 93//2 119//2 141//2
f 93//2 116//2 119//2
f 93//2 94//2 116//2
f 101//2 94//2 93//2
f 101//2 102//2 94//2
f 101//2 83//2 102//2
f 90//2 83//2 101//2
f 90//2 82//2 83//2
f 90//2 91//2 82//2
f 92//2 114//2 115//2
f 140//2 91//2 90//2
f 140//2 92//2 91//2
f 140//2 114//2 92//2
f 140//2 122//2 114//2
f 105//2 122//2 140//2
f 106//2 122//2 105//2
f 105//2 143//2 106//2
f 106//2 129//2 122//2
f 99//2 143//2 105//2
f 142//2 129//2 106//2
f 99//2 100//2 143//2
f 110//2 129//2 142//2
f 110//2 108//2 129//2
f 107//2 108//2 110//2
f 133//2 100//2 99//2
f 133//2 131//2 100//2
f 133//2 134//2 131//2
f 134//2 130//2 131//2
f 154//2 130//2 134//2
f 113//2 85//2 112//2
f 98//2 97//2 151//2
f 153//2 97//2 98//2
f 136//2 97//2 153//2
f 135//2 85//2 113//2
f 135//2 84//2 85//2
f 136//2 135//2 97//2
f 136//2 84//2 135//2
f 111//2 84//2 136//2
f 111//2 79//2 84//2
f 123//2 79//2 111//2
f 120//2 79//2 123//2
f 120//2 78//2 79//2
f 121//2 78//2 120//2
f 121//2 87//2 78//2
f 126//2 87//2 121//2
f 103//2 87//2 126//2
f 104//2 103//2 109//2
f 104//2 87//2 103//2
f 88//2 87//2 104//2
f 88//2 86//2 87//2
f 89//2 86//2 88//2
f 25//3 26//3 152//3 139//3
f 21//4 22//4 84//4 79//4
f 41//5 42//5 128//5 127//5
f 26//6 27//6 144//6 152//6
f 68//7 69//7 91//7 92//7
f 9//8 10//8 120//8 123//8
f 31//9 32//9 147//9 150//9
f 67//10 68//10 92//10 115//10
f 64//11 65//11 122//11 129//11
f 30//12 31//12 150//12 132//12
f 27//13 28//13 117//13 144//13
f 45//14 46//14 93//14 137//14
f 55//15 56//15 131//15 130//15
f 44//16 45//16 137//16 125//16
f 6//17 7//17 136//17 153//17
f 28//18 29//18 95//18 117//18
f 42//19 43//19 124//19 128//19
f 32//20 33//20 148//20 147//20
f 11//21 12//21 126//21 121//21
f 52//22 53//22 134//22 133//22
f 5//23 6//23 153//23 98//23
f 13//24 14//24 109//24 103//24
f 46//25 47//25 101//25 93//25
f 71//26 72//26 102//26 83//26
f 2//27 3//27 97//27 135//27
f 4//28 5//28 98//28 151//28
f 69//29 70//29 82//29 91//29
f 62//30 63//30 108//30 107//30
f 50//31 51//31 99//31 105//31
f 17//32 18//32 86//32 89//32
f 56//33 57//33 100//33 131//33
f 51//34 52//34 133//34 99//34
f 38//35 39//35 118//35 96//35
f 14//36 15//36 104//36 109//36
f 53//37 54//37 154//37 134//37
f 73//38 74//38 116//38 94//38
f 39//39 40//39 145//39 118//39
f 54//40 55//40 130//40 154//40
f 3//41 4//41 151//41 97//41
f 47//42 48//42 90//42 101//42
f 77//43 25//43 139//43 138//43
f 1//44 2//44 135//44 113//44
f 24//45 1//45 113//45 112//45
f 72//46 73//46 94//46 102//46
f 75//47 76//47 141//47 119//47
f 66//48 67//48 115//48 114//48
f 76//49 77//49 138//49 141//49
f 36//50 37//50 149//50 146//50
f 60//51 61//51 110//51 142//51
f 63//52 64//52 129//52 108//52
f 20//53 21//53 79//53 78//53
f 35//54 36//54 146//54 81//54
f 7//55 8//55 111//55 136//55
f 57//56 58//56 143//56 100//56
f 34//57 35//57 81//57 80//57
f 65//58 66//58 114//58 122//58
f 19//59 20//59 78//59 87//59
f 58//60 59//60 106//60 143//60
f 10//61 11//61 121//61 120//61
f 59//62 60//62 142//62 106//62
f 70//63 71//63 83//63 82//63
f 33//64 34//64 80//64 148//64
f 61//65 62//65 107//65 110//65
f 22//66 23//66 85//66 84//66
f 23//67 24//67 112//67 85//67
f 48//68 49//68 140//68 90//68
f 8//69 9//69 123//69 111//69
f 49//70 50//70 105//70 140//70
f 18//71 19//71 87//71 86//71
f 29//72 30//72 132//72 95//72
f 37//73 38//73 96//73 149//73
f 40//74 41//74 127//74 145//74
f 43//54 44//54 125//54 124//54
f 16//75 17//75 89//75 88//75
f 74//76 75//76 119//76 116//76
f 15//77 16//77 88//77 104//77
f 12//78 13//78 103//78 126//78
