# Blender v2.79 (sub 0) OBJ File: 'world_countrycodes_export2.blend'
# www.blender.org
mtllib DO.mtl
o DO.002_CUCurve.1784
v 0.556992 0.000000 0.545192
v 0.559960 0.000000 0.545007
v 0.565704 0.000000 0.545138
v 0.567423 0.000000 0.544292
v 0.567702 0.000000 0.543259
v 0.567318 0.000000 0.542070
v 0.565316 0.000000 0.540328
v 0.560577 0.000000 0.538090
v 0.554361 0.000000 0.536756
v 0.551632 0.000000 0.537107
v 0.549510 0.000000 0.536811
v 0.548992 0.000000 0.540860
v 0.548398 0.000000 0.547805
v 0.549545 0.000000 0.548279
v 0.550587 0.000000 0.548175
v 0.553735 0.000000 0.546348
v 0.567702 0.050000 0.543259
v 0.567318 0.050000 0.542070
v 0.551632 0.050000 0.537107
v 0.548992 0.050000 0.540860
v 0.565316 0.050000 0.540328
v 0.560577 0.050000 0.538090
v 0.554361 0.050000 0.536756
v 0.548398 0.050000 0.547805
v 0.550587 0.050000 0.548175
v 0.559960 0.050000 0.545007
v 0.565704 0.050000 0.545138
v 0.549510 0.050000 0.536811
v 0.553735 0.050000 0.546348
v 0.556992 0.050000 0.545192
v 0.567423 0.050000 0.544292
v 0.549545 0.050000 0.548279
vn 0.0000 -1.0000 0.0000
vn 0.0000 1.0000 0.0000
vn 0.0988 0.0000 0.9951
vn 0.2098 0.0000 -0.9777
vn 0.9655 0.0000 0.2603
vn 0.3346 0.0000 0.9424
vn -0.1276 0.0000 -0.9918
vn 0.0623 0.0000 0.9981
vn -0.9964 0.0000 -0.0852
vn -0.0228 0.0000 0.9997
vn 0.4414 0.0000 0.8973
vn -0.3817 0.0000 0.9243
vn -0.9919 0.0000 -0.1270
vn 0.4269 0.0000 -0.9043
vn 0.1382 0.0000 -0.9904
vn 0.9516 0.0000 -0.3073
vn 0.5019 0.0000 0.8649
vn 0.6565 0.0000 -0.7544
usemtl SVGMat.3781
s off
f 12//1 11//1 10//1
f 10//1 9//1 8//1
f 12//1 10//1 8//1
f 12//1 8//1 7//1
f 12//1 7//1 6//1
f 12//1 6//1 5//1
f 12//1 5//1 4//1
f 12//1 4//1 3//1
f 1//1 12//1 2//1
f 2//1 12//1 3//1
f 12//1 1//1 16//1
f 13//1 12//1 16//1
f 13//1 16//1 15//1
f 14//1 13//1 15//1
f 20//2 19//2 28//2
f 19//2 22//2 23//2
f 20//2 22//2 19//2
f 20//2 21//2 22//2
f 20//2 18//2 21//2
f 20//2 17//2 18//2
f 20//2 31//2 17//2
f 20//2 27//2 31//2
f 30//2 26//2 20//2
f 26//2 27//2 20//2
f 20//2 29//2 30//2
f 24//2 29//2 20//2
f 24//2 25//2 29//2
f 32//2 25//2 24//2
f 14//3 15//3 25//3 32//3
f 8//4 9//4 23//4 22//4
f 4//5 5//5 17//5 31//5
f 16//6 1//6 30//6 29//6
f 9//7 10//7 19//7 23//7
f 1//8 2//8 26//8 30//8
f 12//9 13//9 24//9 20//9
f 2//10 3//10 27//10 26//10
f 3//11 4//11 31//11 27//11
f 13//12 14//12 32//12 24//12
f 11//13 12//13 20//13 28//13
f 7//14 8//14 22//14 21//14
f 10//15 11//15 28//15 19//15
f 5//16 6//16 18//16 17//16
f 15//17 16//17 29//17 25//17
f 6//18 7//18 21//18 18//18
