# Blender v2.79 (sub 0) OBJ File: 'world_countrycodes_outlines2.blend'
# www.blender.org
mtllib DO_outline.mtl
o DO.001_CUCurve.1610
v 0.546741 0.001455 0.548578
v 0.551160 0.000701 0.539175
v 0.550534 -0.002070 0.537207
v 0.547732 -0.000094 0.534406
v 0.550657 0.001951 0.536017
v 0.556695 -0.000766 0.534832
v 0.556456 0.000788 0.538784
v 0.568223 -0.002130 0.542089
v 0.568314 0.001485 0.540209
v 0.565708 -0.000839 0.543077
v 0.569101 0.000608 0.546269
v 0.568112 0.001963 0.543984
v 0.567226 -0.001959 0.545585
v 0.556847 0.000750 0.547104
v 0.557462 -0.002230 0.545106
v 0.556451 0.001368 0.543388
v 0.549934 0.000827 0.550426
v 0.550332 -0.000326 0.545991
v 0.548149 -0.001932 0.549451
vn -0.7658 0.5637 0.3093
vn -0.6771 -0.0378 -0.7349
vn -0.3919 -0.7474 0.5364
vn -0.0426 -0.9984 -0.0356
vn 0.4236 -0.3004 -0.8545
vn 0.7268 0.4265 0.5383
vn -0.0680 0.9362 -0.3447
vn 0.2271 -0.2320 -0.9458
vn -0.1967 0.4637 0.8638
vn 0.6521 0.4699 -0.5949
vn 0.5311 -0.8170 -0.2244
vn -0.4462 -0.8899 -0.0952
vn 0.7087 0.1914 0.6791
vn 0.1943 -0.8306 0.5218
vn -0.0287 -0.9948 -0.0977
vn 0.3477 0.9311 0.1100
vn 0.2251 0.4525 0.8629
vn -0.2032 0.5534 -0.8077
vn 0.1177 0.3801 0.9174
usemtl SVGMat.3781
s 1
f 1//1 4//2 19//3
f 19//3 3//4 18//5
f 2//6 5//7 1//1
f 4//2 3//4 19//3
f 5//7 4//2 1//1
f 4//2 6//8 3//4
f 5//7 6//8 4//2
f 3//4 7//9 2//6
f 7//9 9//10 5//7
f 6//8 8//11 3//4
f 8//11 10//12 7//9
f 11//13 13//14 8//11
f 11//13 15//15 13//14
f 12//16 14//17 11//13
f 13//14 15//15 10//12
f 14//17 19//3 15//15
f 16//18 17//19 14//17
f 18//5 2//6 1//1
f 18//5 3//4 2//6
f 2//6 7//9 5//7
f 5//7 9//10 6//8
f 3//4 8//11 7//9
f 6//8 9//10 8//11
f 7//9 12//16 9//10
f 7//9 10//12 12//16
f 9//10 11//13 8//11
f 9//10 12//16 11//13
f 8//11 13//14 10//12
f 11//13 14//17 15//15
f 10//12 16//18 12//16
f 10//12 15//15 16//18
f 12//16 16//18 14//17
f 15//15 18//5 16//18
f 14//17 17//19 19//3
f 16//18 1//1 17//19
f 16//18 18//5 1//1
f 15//15 19//3 18//5
f 17//19 1//1 19//3
