# Blender v2.79 (sub 0) OBJ File: 'world_countrycodes_export2.blend'
# www.blender.org
mtllib EC.mtl
o EC.002_CUCurve.1764
v 0.524800 0.000000 0.650882
v 0.523137 0.000000 0.649395
v 0.522536 0.000000 0.649268
v 0.521258 0.000000 0.649882
v 0.519847 0.000000 0.650034
v 0.518476 0.000000 0.649693
v 0.517152 0.000000 0.648851
v 0.515149 0.000000 0.646950
v 0.512831 0.000000 0.646221
v 0.509834 0.000000 0.644692
v 0.507415 0.000000 0.642872
v 0.507409 0.000000 0.643976
v 0.506532 0.000000 0.644914
v 0.504860 0.000000 0.645500
v 0.502901 0.000000 0.645755
v 0.501995 0.000000 0.646486
v 0.501634 0.000000 0.648009
v 0.501586 0.000000 0.650455
v 0.499514 0.000000 0.652422
v 0.498858 0.000000 0.653982
v 0.498695 0.000000 0.655343
v 0.497864 0.000000 0.656073
v 0.496663 0.000000 0.656726
v 0.495965 0.000000 0.657710
v 0.495846 0.000000 0.658976
v 0.496142 0.000000 0.659817
v 0.496751 0.000000 0.661001
v 0.496620 0.000000 0.662288
v 0.495899 0.000000 0.664049
v 0.496293 0.000000 0.664704
v 0.498375 0.000000 0.666017
v 0.499842 0.000000 0.667150
v 0.500579 0.000000 0.667306
v 0.501589 0.000000 0.666886
v 0.502105 0.000000 0.667426
v 0.502208 0.000000 0.668438
v 0.501884 0.000000 0.669516
v 0.501131 0.000000 0.670352
v 0.500121 0.000000 0.670818
v 0.499182 0.000000 0.670858
v 0.500295 0.000000 0.672604
v 0.500338 0.000000 0.673488
v 0.499183 0.000000 0.674966
v 0.499319 0.000000 0.675636
v 0.500669 0.000000 0.676860
v 0.501602 0.000000 0.677054
v 0.502951 0.000000 0.676817
v 0.503906 0.000000 0.677009
v 0.505580 0.000000 0.678956
v 0.506607 0.000000 0.679578
v 0.507628 0.000000 0.679150
v 0.508575 0.000000 0.677402
v 0.510613 0.000000 0.672021
v 0.512074 0.000000 0.669457
v 0.513330 0.000000 0.668460
v 0.517695 0.000000 0.667172
v 0.521906 0.000000 0.665178
v 0.525181 0.000000 0.662135
v 0.526943 0.000000 0.659120
v 0.527398 0.000000 0.657331
v 0.528840 0.000000 0.655985
v 0.528668 0.000000 0.655008
v 0.437199 0.000000 0.650382
v 0.436194 0.000000 0.652294
v 0.436233 0.000000 0.654020
v 0.436976 0.000000 0.655519
v 0.438137 0.000000 0.656617
v 0.439362 0.000000 0.657113
v 0.440024 0.000000 0.656999
v 0.440455 0.000000 0.656560
v 0.440649 0.000000 0.655092
v 0.440372 0.000000 0.653115
v 0.439712 0.000000 0.651250
v 0.438781 0.000000 0.650065
v 0.438038 0.000000 0.649916
v 0.517152 0.050000 0.648851
v 0.501634 0.050000 0.648009
v 0.496293 0.050000 0.664704
v 0.498375 0.050000 0.666017
v 0.501589 0.050000 0.666886
v 0.517695 0.050000 0.667172
v 0.498695 0.050000 0.655343
v 0.528668 0.050000 0.655008
v 0.440372 0.050000 0.653115
v 0.439712 0.050000 0.651250
v 0.512831 0.050000 0.646221
v 0.502901 0.050000 0.645755
v 0.501131 0.050000 0.670352
v 0.500121 0.050000 0.670818
v 0.502208 0.050000 0.668438
v 0.501884 0.050000 0.669516
v 0.497864 0.050000 0.656073
v 0.528840 0.050000 0.655985
v 0.499842 0.050000 0.667150
v 0.436233 0.050000 0.654020
v 0.440649 0.050000 0.655092
v 0.505580 0.050000 0.678956
v 0.507628 0.050000 0.679150
v 0.502105 0.050000 0.667426
v 0.436976 0.050000 0.655519
v 0.440455 0.050000 0.656560
v 0.496142 0.050000 0.659817
v 0.525181 0.050000 0.662135
v 0.439362 0.050000 0.657113
v 0.440024 0.050000 0.656999
v 0.504860 0.050000 0.645500
v 0.438137 0.050000 0.656617
v 0.437199 0.050000 0.650382
v 0.436194 0.050000 0.652294
v 0.507409 0.050000 0.643976
v 0.506532 0.050000 0.644914
v 0.495965 0.050000 0.657710
v 0.495846 0.050000 0.658976
v 0.438038 0.050000 0.649916
v 0.512074 0.050000 0.669457
v 0.513330 0.050000 0.668460
v 0.500295 0.050000 0.672604
v 0.510613 0.050000 0.672021
v 0.507415 0.050000 0.642872
v 0.501995 0.050000 0.646486
v 0.526943 0.050000 0.659120
v 0.521906 0.050000 0.665178
v 0.503906 0.050000 0.677009
v 0.499182 0.050000 0.670858
v 0.500338 0.050000 0.673488
v 0.499183 0.050000 0.674966
v 0.501586 0.050000 0.650455
v 0.496663 0.050000 0.656726
v 0.499514 0.050000 0.652422
v 0.498858 0.050000 0.653982
v 0.508575 0.050000 0.677402
v 0.518476 0.050000 0.649693
v 0.509834 0.050000 0.644692
v 0.523137 0.050000 0.649395
v 0.521258 0.050000 0.649882
v 0.496751 0.050000 0.661001
v 0.522536 0.050000 0.649268
v 0.495899 0.050000 0.664049
v 0.499319 0.050000 0.675636
v 0.500579 0.050000 0.667306
v 0.524800 0.050000 0.650882
v 0.515149 0.050000 0.646950
v 0.500669 0.050000 0.676860
v 0.501602 0.050000 0.677054
v 0.527398 0.050000 0.657331
v 0.502951 0.050000 0.676817
v 0.438781 0.050000 0.650065
v 0.519847 0.050000 0.650034
v 0.496620 0.050000 0.662288
v 0.506607 0.050000 0.679578
vn 0.0000 -1.0000 0.0000
vn 0.0000 1.0000 -0.0000
vn -0.7878 0.0000 -0.6159
vn 0.6667 0.0000 -0.7453
vn -0.7238 0.0000 0.6900
vn -0.9929 0.0000 -0.1189
vn -0.9998 0.0000 -0.0197
vn 0.7129 0.0000 0.7012
vn 0.7863 0.0000 -0.6178
vn -0.8962 0.0000 0.4437
vn -0.3307 0.0000 -0.9437
vn 0.9351 0.0000 0.3543
vn 0.1702 0.0000 0.9854
vn -0.9949 0.0000 -0.1013
vn -0.9218 0.0000 -0.3876
vn -0.1291 0.0000 -0.9916
vn 0.9690 0.0000 0.2469
vn -0.3751 0.0000 0.9270
vn 0.8793 0.0000 0.4763
vn -0.2041 0.0000 0.9790
vn -0.6885 0.0000 -0.7253
vn -0.8852 0.0000 -0.4652
vn 0.2064 0.0000 -0.9785
vn -0.7304 0.0000 -0.6831
vn 0.3001 0.0000 -0.9539
vn 0.9903 0.0000 -0.1390
vn -0.6109 0.0000 0.7917
vn -0.4777 0.0000 -0.8785
vn -0.9956 0.0000 -0.0937
vn 0.8689 0.0000 0.4950
vn -0.9430 0.0000 0.3327
vn 0.3866 0.0000 0.9222
vn 0.6806 0.0000 0.7326
vn 0.7295 0.0000 -0.6840
vn 0.5367 0.0000 -0.8438
vn 0.9848 0.0000 -0.1734
vn 0.4543 0.0000 -0.8908
vn -0.6872 0.0000 0.7265
vn -0.4855 0.0000 -0.8742
vn 0.6216 0.0000 0.7833
vn -0.6715 0.0000 0.7410
vn -0.5333 0.0000 0.8459
vn -0.5180 0.0000 0.8554
vn 0.9913 0.0000 0.1313
vn -0.1966 0.0000 0.9805
vn 0.1969 0.0000 -0.9804
vn -0.4332 0.0000 -0.9013
vn -1.0000 0.0000 -0.0051
vn -0.8156 0.0000 -0.5786
vn -0.8569 0.0000 0.5155
vn -0.2078 0.0000 0.9782
vn 0.9428 0.0000 -0.3335
vn -0.9802 0.0000 0.1982
vn 0.8634 0.0000 0.5045
vn -0.6602 0.0000 -0.7511
vn -0.9988 0.0000 0.0489
vn -0.9997 0.0000 0.0225
vn 0.4280 0.0000 0.9038
vn -0.4187 0.0000 -0.9081
vn 0.3843 0.0000 0.9232
vn -0.7430 0.0000 -0.6693
vn -0.9577 0.0000 -0.2878
vn -0.7584 0.0000 0.6518
vn -0.1071 0.0000 -0.9942
vn -0.9253 0.0000 -0.3792
vn 0.6013 0.0000 -0.7990
vn -0.8891 0.0000 0.4576
vn -0.0422 0.0000 -0.9991
vn -0.9948 0.0000 0.1019
vn -0.9730 0.0000 -0.2306
vn 0.2830 0.0000 0.9591
vn -0.8433 0.0000 0.5375
vn 0.2419 0.0000 -0.9703
vn 0.6882 0.0000 -0.7255
vn -0.6280 0.0000 -0.7782
vn 0.6824 0.0000 0.7310
vn 0.1732 0.0000 0.9849
usemtl SVGMat.3781
s off
f 63//1 75//1 74//1
f 63//1 74//1 73//1
f 64//1 63//1 73//1
f 64//1 73//1 72//1
f 65//1 64//1 72//1
f 65//1 72//1 71//1
f 66//1 65//1 71//1
f 66//1 71//1 70//1
f 67//1 66//1 70//1
f 67//1 70//1 69//1
f 68//1 67//1 69//1
f 12//1 11//1 10//1
f 13//1 12//1 10//1
f 14//1 13//1 10//1
f 14//1 10//1 9//1
f 15//1 14//1 9//1
f 16//1 15//1 9//1
f 16//1 9//1 8//1
f 17//1 16//1 8//1
f 17//1 8//1 7//1
f 18//1 17//1 7//1
f 18//1 7//1 6//1
f 4//1 3//1 2//1
f 4//1 2//1 1//1
f 18//1 6//1 5//1
f 5//1 4//1 1//1
f 18//1 5//1 1//1
f 19//1 18//1 1//1
f 20//1 19//1 1//1
f 20//1 1//1 62//1
f 21//1 20//1 62//1
f 21//1 62//1 61//1
f 22//1 21//1 61//1
f 23//1 22//1 61//1
f 23//1 61//1 60//1
f 24//1 23//1 60//1
f 24//1 60//1 59//1
f 25//1 24//1 59//1
f 26//1 25//1 59//1
f 26//1 59//1 58//1
f 27//1 26//1 58//1
f 28//1 27//1 58//1
f 29//1 28//1 58//1
f 29//1 58//1 57//1
f 30//1 29//1 57//1
f 31//1 30//1 57//1
f 31//1 57//1 56//1
f 32//1 31//1 34//1
f 34//1 31//1 56//1
f 32//1 34//1 33//1
f 35//1 34//1 56//1
f 36//1 35//1 56//1
f 36//1 56//1 55//1
f 36//1 55//1 54//1
f 37//1 36//1 54//1
f 38//1 37//1 54//1
f 38//1 54//1 53//1
f 39//1 38//1 53//1
f 40//1 39//1 53//1
f 41//1 40//1 53//1
f 42//1 41//1 53//1
f 43//1 42//1 53//1
f 44//1 43//1 53//1
f 45//1 44//1 53//1
f 45//1 53//1 47//1
f 47//1 53//1 52//1
f 48//1 47//1 52//1
f 45//1 47//1 46//1
f 48//1 52//1 51//1
f 49//1 48//1 51//1
f 50//1 49//1 51//1
f 108//2 147//2 114//2
f 108//2 85//2 147//2
f 109//2 85//2 108//2
f 109//2 84//2 85//2
f 95//2 84//2 109//2
f 95//2 96//2 84//2
f 100//2 96//2 95//2
f 100//2 101//2 96//2
f 107//2 101//2 100//2
f 107//2 105//2 101//2
f 104//2 105//2 107//2
f 110//2 133//2 119//2
f 111//2 133//2 110//2
f 106//2 133//2 111//2
f 106//2 86//2 133//2
f 87//2 86//2 106//2
f 120//2 86//2 87//2
f 120//2 142//2 86//2
f 77//2 142//2 120//2
f 77//2 76//2 142//2
f 127//2 76//2 77//2
f 127//2 132//2 76//2
f 135//2 134//2 137//2
f 135//2 141//2 134//2
f 127//2 148//2 132//2
f 148//2 141//2 135//2
f 127//2 141//2 148//2
f 129//2 141//2 127//2
f 130//2 141//2 129//2
f 130//2 83//2 141//2
f 82//2 83//2 130//2
f 82//2 93//2 83//2
f 92//2 93//2 82//2
f 128//2 93//2 92//2
f 128//2 145//2 93//2
f 112//2 145//2 128//2
f 112//2 121//2 145//2
f 113//2 121//2 112//2
f 102//2 121//2 113//2
f 102//2 103//2 121//2
f 136//2 103//2 102//2
f 149//2 103//2 136//2
f 138//2 103//2 149//2
f 138//2 122//2 103//2
f 78//2 122//2 138//2
f 79//2 122//2 78//2
f 79//2 81//2 122//2
f 94//2 80//2 79//2
f 80//2 81//2 79//2
f 94//2 140//2 80//2
f 99//2 81//2 80//2
f 90//2 81//2 99//2
f 90//2 116//2 81//2
f 90//2 115//2 116//2
f 91//2 115//2 90//2
f 88//2 115//2 91//2
f 88//2 118//2 115//2
f 89//2 118//2 88//2
f 124//2 118//2 89//2
f 117//2 118//2 124//2
f 125//2 118//2 117//2
f 126//2 118//2 125//2
f 139//2 118//2 126//2
f 143//2 118//2 139//2
f 143//2 146//2 118//2
f 146//2 131//2 118//2
f 123//2 131//2 146//2
f 143//2 144//2 146//2
f 123//2 98//2 131//2
f 97//2 98//2 123//2
f 150//2 98//2 97//2
f 42//3 43//3 126//3 125//3
f 1//4 2//4 134//4 141//4
f 34//5 35//5 99//5 80//5
f 20//6 21//6 82//6 130//6
f 17//7 18//7 127//7 77//7
f 69//8 70//8 101//8 105//8
f 73//9 74//9 147//9 85//9
f 65//10 66//10 100//10 95//10
f 13//11 14//11 106//11 111//11
f 52//12 53//12 118//12 131//12
f 68//13 69//13 105//13 104//13
f 27//14 28//14 149//14 136//14
f 19//15 20//15 130//15 129//15
f 14//16 15//16 87//16 106//16
f 59//17 60//17 145//17 121//17
f 67//18 68//18 104//18 107//18
f 51//19 52//19 131//19 98//19
f 45//20 46//20 144//20 143//20
f 18//21 19//21 129//21 127//21
f 63//22 64//22 109//22 108//22
f 2//23 3//23 137//23 134//23
f 12//24 13//24 111//24 110//24
f 8//25 9//25 86//25 142//25
f 71//26 72//26 84//26 96//26
f 31//27 32//27 94//27 79//27
f 22//28 23//28 128//28 92//28
f 24//29 25//29 113//29 112//29
f 53//30 54//30 115//30 118//30
f 25//31 26//31 102//31 113//31
f 50//32 51//32 98//32 150//32
f 57//33 58//33 103//33 122//33
f 62//34 1//34 141//34 83//34
f 6//35 7//35 76//35 132//35
f 61//36 62//36 83//36 93//36
f 9//37 10//37 133//37 86//37
f 66//38 67//38 107//38 100//38
f 75//39 63//39 108//39 114//39
f 54//40 55//40 116//40 115//40
f 44//41 45//41 143//41 139//41
f 30//42 31//42 79//42 78//42
f 49//43 50//43 150//43 97//43
f 70//44 71//44 96//44 101//44
f 47//45 48//45 123//45 146//45
f 74//46 75//46 114//46 147//46
f 3//47 4//47 135//47 137//47
f 11//48 12//48 110//48 119//48
f 23//49 24//49 112//49 128//49
f 29//50 30//50 78//50 138//50
f 32//51 33//51 140//51 94//51
f 72//52 73//52 85//52 84//52
f 43//53 44//53 139//53 126//53
f 58//54 59//54 121//54 103//54
f 21//55 22//55 92//55 82//55
f 41//56 42//56 125//56 117//56
f 64//57 65//57 95//57 109//57
f 56//58 57//58 122//58 81//58
f 38//59 39//59 89//59 88//59
f 33//60 34//60 80//60 140//60
f 37//61 38//61 88//61 91//61
f 36//62 37//62 91//62 90//62
f 48//63 49//63 97//63 123//63
f 4//64 5//64 148//64 135//64
f 28//65 29//65 138//65 149//65
f 10//66 11//66 119//66 133//66
f 26//67 27//67 136//67 102//67
f 39//68 40//68 124//68 89//68
f 35//69 36//69 90//69 99//69
f 16//70 17//70 77//70 120//70
f 55//71 56//71 81//71 116//71
f 40//72 41//72 117//72 124//72
f 5//73 6//73 132//73 148//73
f 7//74 8//74 142//74 76//74
f 15//75 16//75 120//75 87//75
f 60//76 61//76 93//76 145//76
f 46//77 47//77 146//77 144//77
