# Blender v2.79 (sub 0) OBJ File: 'world_countrycodes_export2.blend'
# www.blender.org
mtllib EE.mtl
o EE.002_CUCurve.1751
v 1.115866 0.000000 0.265331
v 1.116863 0.000000 0.264244
v 1.117230 0.000000 0.263591
v 1.117137 0.000000 0.262802
v 1.116751 0.000000 0.262118
v 1.115804 0.000000 0.262617
v 1.113919 0.000000 0.262848
v 1.107453 0.000000 0.261589
v 1.105307 0.000000 0.261554
v 1.097959 0.000000 0.262405
v 1.094867 0.000000 0.263169
v 1.093418 0.000000 0.264335
v 1.090567 0.000000 0.265827
v 1.090363 0.000000 0.266531
v 1.091347 0.000000 0.267581
v 1.091531 0.000000 0.268266
v 1.091445 0.000000 0.269501
v 1.091726 0.000000 0.270291
v 1.093111 0.000000 0.272083
v 1.094350 0.000000 0.272595
v 1.095985 0.000000 0.272393
v 1.097046 0.000000 0.272747
v 1.097201 0.000000 0.273718
v 1.096460 0.000000 0.274771
v 1.096456 0.000000 0.274776
v 1.096456 0.000000 0.274776
v 1.096456 0.000000 0.274776
v 1.096456 0.000000 0.274776
v 1.096456 0.000000 0.274776
v 1.096456 0.000000 0.274776
v 1.096456 0.000000 0.274776
v 1.096456 0.000000 0.274776
v 1.096456 0.000000 0.274776
v 1.096456 0.000000 0.274776
v 1.096456 0.000000 0.274776
v 1.096456 0.000000 0.274776
v 1.098238 0.000000 0.274579
v 1.100798 0.000000 0.274569
v 1.102583 0.000000 0.274776
v 1.105517 0.000000 0.276927
v 1.107753 0.000000 0.278135
v 1.111398 0.000000 0.278155
v 1.113643 0.000000 0.278472
v 1.113475 0.000000 0.278077
v 1.113515 0.000000 0.277438
v 1.113847 0.000000 0.276849
v 1.115500 0.000000 0.276032
v 1.115551 0.000000 0.275299
v 1.114487 0.000000 0.273745
v 1.114146 0.000000 0.272603
v 1.113878 0.000000 0.270777
v 1.113719 0.000000 0.268697
v 1.113961 0.000000 0.268038
v 1.115224 0.000000 0.266513
v 1.085381 0.000000 0.270143
v 1.084323 0.000000 0.270841
v 1.083512 0.000000 0.271911
v 1.083070 0.000000 0.273089
v 1.082993 0.000000 0.274149
v 1.083254 0.000000 0.274821
v 1.083656 0.000000 0.274951
v 1.085756 0.000000 0.273949
v 1.087734 0.000000 0.272664
v 1.089696 0.000000 0.270839
v 1.089672 0.000000 0.270113
v 1.089021 0.000000 0.269721
v 1.087635 0.000000 0.269593
v 1.088410 0.000000 0.267185
v 1.087800 0.000000 0.266882
v 1.085986 0.000000 0.266881
v 1.084719 0.000000 0.267394
v 1.084655 0.000000 0.267885
v 1.085636 0.000000 0.268450
v 1.086537 0.000000 0.268555
v 1.087521 0.000000 0.268280
v 1.088383 0.000000 0.267512
v 1.117137 0.050000 0.262802
v 1.115804 0.050000 0.262617
v 1.084719 0.050000 0.267394
v 1.084655 0.050000 0.267885
v 1.083512 0.050000 0.271911
v 1.089696 0.050000 0.270839
v 1.088410 0.050000 0.267185
v 1.088383 0.050000 0.267512
v 1.097201 0.050000 0.273718
v 1.115551 0.050000 0.275299
v 1.114487 0.050000 0.273745
v 1.085636 0.050000 0.268450
v 1.087521 0.050000 0.268280
v 1.083070 0.050000 0.273089
v 1.087734 0.050000 0.272664
v 1.093111 0.050000 0.272083
v 1.114146 0.050000 0.272603
v 1.111398 0.050000 0.278155
v 1.113643 0.050000 0.278472
v 1.084323 0.050000 0.270841
v 1.089672 0.050000 0.270113
v 1.102583 0.050000 0.274776
v 1.105517 0.050000 0.276927
v 1.116751 0.050000 0.262118
v 1.113919 0.050000 0.262848
v 1.090567 0.050000 0.265827
v 1.115224 0.050000 0.266513
v 1.087800 0.050000 0.266882
v 1.085986 0.050000 0.266881
v 1.097046 0.050000 0.272747
v 1.117230 0.050000 0.263591
v 1.093418 0.050000 0.264335
v 1.095985 0.050000 0.272393
v 1.094867 0.050000 0.263169
v 1.107753 0.050000 0.278135
v 1.087635 0.050000 0.269593
v 1.107453 0.050000 0.261589
v 1.105307 0.050000 0.261554
v 1.097959 0.050000 0.262405
v 1.086537 0.050000 0.268555
v 1.091347 0.050000 0.267581
v 1.091531 0.050000 0.268266
v 1.098238 0.050000 0.274579
v 1.090363 0.050000 0.266531
v 1.115500 0.050000 0.276032
v 1.091445 0.050000 0.269501
v 1.091726 0.050000 0.270291
v 1.085381 0.050000 0.270143
v 1.100798 0.050000 0.274569
v 1.085756 0.050000 0.273949
v 1.082993 0.050000 0.274149
v 1.083254 0.050000 0.274821
v 1.094350 0.050000 0.272595
v 1.116863 0.050000 0.264244
v 1.113515 0.050000 0.277438
v 1.113847 0.050000 0.276849
v 1.113719 0.050000 0.268697
v 1.113878 0.050000 0.270777
v 1.113961 0.050000 0.268038
v 1.083656 0.050000 0.274951
v 1.113475 0.050000 0.278077
v 1.089021 0.050000 0.269721
v 1.096460 0.050000 0.274771
v 1.115866 0.050000 0.265331
vn 0.0000 -1.0000 0.0000
vn 0.0000 1.0000 0.0000
vn 0.0000 1.0000 -0.0010
vn 0.9894 0.0000 -0.1452
vn 0.4452 0.0000 -0.8954
vn 0.6648 0.0000 0.7470
vn -0.3758 0.0000 -0.9267
vn 0.7702 0.0000 0.6379
vn -0.3081 0.0000 0.9514
vn -0.1396 0.0000 0.9902
vn 0.9931 0.0000 -0.1173
vn 0.9976 0.0000 0.0691
vn 0.8707 0.0000 -0.4918
vn 0.4305 0.0000 0.9026
vn -0.9421 0.0000 0.3355
vn -0.5912 0.0000 0.8065
vn 0.7367 0.0000 0.6762
vn 0.6810 0.0000 0.7322
vn -0.7968 0.0000 -0.6043
vn 0.1912 0.0000 -0.9816
vn 0.4430 0.0000 0.8965
vn 0.9995 0.0000 -0.0330
vn -0.9976 0.0000 -0.0698
vn -0.4660 0.0000 -0.8848
vn -0.7914 0.0000 0.6114
vn -0.2398 0.0000 -0.9708
vn -0.1220 0.0000 -0.9925
vn 0.9582 0.0000 -0.2860
vn -0.5506 0.0000 -0.8347
vn 0.9981 0.0000 0.0612
vn -0.4637 0.0000 -0.8860
vn 0.0007 0.0000 -1.0000
vn 0.9391 0.0000 0.3437
vn -0.9875 0.0000 0.1576
vn -0.7299 0.0000 0.6835
vn 0.5450 0.0000 0.8385
vn -0.2369 0.0000 -0.9715
vn -0.9322 0.0000 0.3620
vn -0.6270 0.0000 -0.7790
vn -0.0057 0.0000 1.0000
vn 0.1226 0.0000 0.9925
vn -0.9974 0.0000 -0.0726
vn 0.8716 0.0000 0.4902
vn 0.0164 0.0000 -0.9999
vn 0.5152 0.0000 -0.8570
vn 0.0919 0.0000 -0.9958
vn 0.8707 0.0000 0.4919
vn -0.1151 0.0000 -0.9934
vn -0.9365 0.0000 -0.3508
vn -0.3825 0.0000 0.9240
vn 0.2698 0.0000 0.9629
vn -0.3160 0.0000 0.9488
vn -0.9655 0.0000 0.2604
vn -0.9916 0.0000 -0.1295
vn 0.0041 0.0000 1.0000
vn 0.1069 0.0000 0.9943
vn -0.1161 0.0000 0.9932
vn 0.9966 0.0000 0.0829
vn 0.9202 0.0000 -0.3915
vn -0.8177 0.0000 -0.5756
vn 0.8788 0.0000 0.4772
vn -0.1153 0.0000 0.9933
vn 0.9971 0.0000 -0.0759
vn -0.4992 0.0000 0.8665
vn 0.8249 0.0000 -0.5653
vn -0.4753 0.0000 0.8798
vn -0.9605 0.0000 -0.2783
usemtl SVGMat.3781
s off
f 67//1 66//1 65//1
f 55//1 67//1 65//1
f 56//1 55//1 65//1
f 56//1 65//1 64//1
f 57//1 56//1 64//1
f 57//1 64//1 63//1
f 58//1 57//1 63//1
f 58//1 63//1 62//1
f 59//1 58//1 62//1
f 59//1 62//1 61//1
f 60//1 59//1 61//1
f 70//1 69//1 68//1
f 71//1 70//1 68//1
f 71//1 68//1 76//1
f 72//1 71//1 76//1
f 72//1 76//1 75//1
f 73//1 72//1 75//1
f 73//1 75//1 74//1
f 10//1 9//1 8//1
f 10//1 8//1 7//1
f 6//1 5//1 4//1
f 11//1 10//1 7//1
f 7//1 6//1 4//1
f 11//1 7//1 4//1
f 11//1 4//1 3//1
f 12//1 11//1 3//1
f 12//1 3//1 2//1
f 12//1 2//1 1//1
f 13//1 12//1 1//1
f 13//1 1//1 54//1
f 14//1 13//1 54//1
f 14//1 54//1 53//1
f 15//1 14//1 53//1
f 16//1 15//1 53//1
f 16//1 53//1 52//1
f 17//1 16//1 52//1
f 17//1 52//1 51//1
f 18//1 17//1 51//1
f 19//1 18//1 51//1
f 19//1 51//1 50//1
f 20//1 19//1 21//1
f 21//1 19//1 50//1
f 22//1 21//1 50//1
f 23//1 22//1 50//1
f 23//1 50//1 49//1
f 23//1 49//1 48//1
f 24//1 23//1 37//1
f 37//1 23//1 38//1
f 38//1 23//1 48//1
f 39//1 38//1 48//1
f 40//1 39//1 48//1
f 40//1 48//1 47//1
f 40//1 47//1 46//1
f 40//1 46//1 45//1
f 41//1 40//1 45//1
f 41//1 45//1 44//1
f 41//1 44//1 42//1
f 43//1 42//1 44//1
f 112//2 97//2 138//2
f 124//2 97//2 112//2
f 96//2 97//2 124//2
f 96//2 82//2 97//2
f 81//2 82//2 96//2
f 81//2 91//2 82//2
f 90//2 91//2 81//2
f 90//2 126//2 91//2
f 127//2 126//2 90//2
f 127//2 136//2 126//2
f 128//2 136//2 127//2
f 105//2 83//2 104//2
f 79//2 83//2 105//2
f 79//2 84//2 83//2
f 80//2 84//2 79//2
f 80//2 89//2 84//2
f 88//2 89//2 80//2
f 88//2 116//2 89//2
f 115//2 113//2 114//2
f 115//2 101//2 113//2
f 78//2 77//2 100//2
f 110//2 101//2 115//2
f 101//2 77//2 78//2
f 110//3 77//3 101//3
f 110//2 107//2 77//2
f 108//2 107//2 110//2
f 108//2 130//2 107//2
f 108//2 140//2 130//2
f 102//2 140//2 108//2
f 102//2 103//2 140//2
f 120//2 103//2 102//2
f 120//2 135//2 103//2
f 117//2 135//2 120//2
f 118//2 135//2 117//2
f 118//2 133//2 135//2
f 122//2 133//2 118//2
f 122//2 134//2 133//2
f 123//2 134//2 122//2
f 92//2 134//2 123//2
f 92//2 93//2 134//2
f 129//2 109//2 92//2
f 109//2 93//2 92//2
f 106//2 93//2 109//2
f 85//2 93//2 106//2
f 85//2 87//2 93//2
f 85//2 86//2 87//2
f 139//2 119//2 85//2
f 119//2 125//2 85//2
f 125//2 86//2 85//2
f 98//2 86//2 125//2
f 99//2 86//2 98//2
f 99//2 121//2 86//2
f 99//2 132//2 121//2
f 99//2 131//2 132//2
f 111//2 131//2 99//2
f 111//2 137//2 131//2
f 111//2 94//2 137//2
f 95//2 137//2 94//2
f 50//4 51//4 134//4 93//4
f 68//5 69//5 104//5 83//5
f 75//6 76//6 84//6 89//6
f 70//7 71//7 79//7 105//7
f 53//8 54//8 103//8 135//8
f 60//9 61//9 136//9 128//9
f 42//10 43//10 95//10 94//10
f 3//11 4//11 77//11 107//11
f 47//12 48//12 86//12 121//12
f 4//13 5//13 100//13 77//13
f 61//14 62//14 126//14 136//14
f 17//15 18//15 123//15 122//15
f 39//16 40//16 99//16 98//16
f 1//17 2//17 130//17 140//17
f 63//18 64//18 82//18 91//18
f 56//19 57//19 81//19 96//19
f 7//20 8//20 113//20 101//20
f 46//21 47//21 121//21 132//21
f 64//22 65//22 97//22 82//22
f 16//23 17//23 122//23 118//23
f 5//24 6//24 78//24 100//24
f 18//25 19//25 92//25 123//25
f 10//26 11//26 110//26 115//26
f 6//27 7//27 101//27 78//27
f 49//28 50//28 93//28 87//28
f 55//29 56//29 96//29 124//29
f 44//30 45//30 131//30 137//30
f 12//31 13//31 102//31 108//31
f 69//32 70//32 105//32 104//32
f 52//33 53//33 135//33 133//33
f 22//34 23//34 85//34 106//34
f 14//35 15//35 117//35 120//35
f 62//36 63//36 91//36 126//36
f 67//37 55//37 124//37 112//37
f 59//38 60//38 128//38 127//38
f 11//39 12//39 108//39 110//39
f 41//40 42//40 94//40 111//40
f 20//41 21//41 109//41 129//41
f 58//42 59//42 127//42 90//42
f 2//43 3//43 107//43 130//43
f 8//44 9//44 114//44 113//44
f 65//45 66//45 138//45 97//45
f 66//46 67//46 112//46 138//46
f 45//47 46//47 132//47 131//47
f 9//48 10//48 115//48 114//48
f 57//49 58//49 90//49 81//49
f 19//50 20//50 129//50 92//50
f 74//51 75//51 89//51 116//51
f 21//52 22//52 106//52 109//52
f 15//53 16//53 118//53 117//53
f 71//54 72//54 80//54 79//54
f 37//55 38//55 125//55 119//55
f 24//56 37//56 119//56 139//56
f 73//57 74//57 116//57 88//57
f 76//58 68//58 83//58 84//58
f 43//59 44//59 137//59 95//59
f 23//60 24//60 139//60 85//60
f 54//61 1//61 140//61 103//61
f 38//62 39//62 98//62 125//62
f 51//63 52//63 133//63 134//63
f 72//64 73//64 88//64 80//64
f 48//65 49//65 87//65 86//65
f 40//66 41//66 111//66 99//66
f 13//67 14//67 120//67 102//67
