# Blender v2.79 (sub 0) OBJ File: 'world_countrycodes_export2.blend'
# www.blender.org
mtllib EG.mtl
o EG.002_CUCurve.1851
v 1.154849 0.000000 0.475595
v 1.150785 0.000000 0.465637
v 1.149911 0.000000 0.466735
v 1.145720 0.000000 0.465960
v 1.143082 0.000000 0.466322
v 1.140688 0.000000 0.466197
v 1.138325 0.000000 0.465444
v 1.136173 0.000000 0.464296
v 1.131223 0.000000 0.464393
v 1.125906 0.000000 0.465856
v 1.124327 0.000000 0.467401
v 1.122280 0.000000 0.467902
v 1.119741 0.000000 0.467528
v 1.114985 0.000000 0.465658
v 1.109668 0.000000 0.464487
v 1.105590 0.000000 0.464059
v 1.101294 0.000000 0.463230
v 1.099891 0.000000 0.462335
v 1.099215 0.000000 0.464100
v 1.098875 0.000000 0.466341
v 1.099361 0.000000 0.469564
v 1.098147 0.000000 0.471508
v 1.097834 0.000000 0.473130
v 1.098652 0.000000 0.477977
v 1.098657 0.000000 0.522886
v 1.133286 0.000000 0.522886
v 1.135874 0.000000 0.521321
v 1.137466 0.000000 0.522093
v 1.137971 0.000000 0.522548
v 1.138070 0.000000 0.522548
v 1.138348 0.000000 0.522548
v 1.138780 0.000000 0.522548
v 1.139341 0.000000 0.522548
v 1.140004 0.000000 0.522548
v 1.140744 0.000000 0.522548
v 1.141536 0.000000 0.522548
v 1.142353 0.000000 0.522548
v 1.143171 0.000000 0.522548
v 1.143962 0.000000 0.522548
v 1.144703 0.000000 0.522548
v 1.145366 0.000000 0.522548
v 1.145806 0.000000 0.523048
v 1.146894 0.000000 0.523817
v 1.148244 0.000000 0.524238
v 1.149132 0.000000 0.524015
v 1.150027 0.000000 0.522125
v 1.150881 0.000000 0.521531
v 1.152531 0.000000 0.521310
v 1.153525 0.000000 0.520434
v 1.154748 0.000000 0.517537
v 1.156932 0.000000 0.517359
v 1.158620 0.000000 0.515124
v 1.158530 0.000000 0.513984
v 1.158714 0.000000 0.512073
v 1.158436 0.000000 0.510854
v 1.156731 0.000000 0.508371
v 1.155024 0.000000 0.504099
v 1.150282 0.000000 0.496184
v 1.149526 0.000000 0.493500
v 1.147418 0.000000 0.490493
v 1.147301 0.000000 0.488382
v 1.146892 0.000000 0.487155
v 1.142679 0.000000 0.481812
v 1.140965 0.000000 0.477006
v 1.140554 0.000000 0.472992
v 1.140912 0.000000 0.472501
v 1.141779 0.000000 0.473437
v 1.144951 0.000000 0.480515
v 1.148095 0.000000 0.485726
v 1.149943 0.000000 0.487288
v 1.150883 0.000000 0.487025
v 1.151962 0.000000 0.485058
v 1.153467 0.000000 0.479373
v 1.153774 0.000000 0.479269
v 1.153862 0.000000 0.479453
v 1.153861 0.000000 0.479460
v 1.154087 0.000000 0.477937
v 1.145806 0.050000 0.523048
v 1.146894 0.050000 0.523817
v 1.145366 0.050000 0.522548
v 1.150027 0.050000 0.522125
v 1.098652 0.050000 0.477977
v 1.156731 0.050000 0.508371
v 1.154849 0.050000 0.475595
v 1.124327 0.050000 0.467401
v 1.139341 0.050000 0.522548
v 1.140004 0.050000 0.522548
v 1.150883 0.050000 0.487025
v 1.151962 0.050000 0.485058
v 1.099215 0.050000 0.464100
v 1.098875 0.050000 0.466341
v 1.145720 0.050000 0.465960
v 1.143082 0.050000 0.466322
v 1.153862 0.050000 0.479453
v 1.153861 0.050000 0.479460
v 1.146892 0.050000 0.487155
v 1.142679 0.050000 0.481812
v 1.147301 0.050000 0.488382
v 1.148095 0.050000 0.485726
v 1.137466 0.050000 0.522093
v 1.135874 0.050000 0.521321
v 1.152531 0.050000 0.521310
v 1.150785 0.050000 0.465637
v 1.098147 0.050000 0.471508
v 1.140912 0.050000 0.472501
v 1.101294 0.050000 0.463230
v 1.099891 0.050000 0.462335
v 1.109668 0.050000 0.464487
v 1.138780 0.050000 0.522548
v 1.138325 0.050000 0.465444
v 1.125906 0.050000 0.465856
v 1.144703 0.050000 0.522548
v 1.149132 0.050000 0.524015
v 1.141536 0.050000 0.522548
v 1.144951 0.050000 0.480515
v 1.097834 0.050000 0.473130
v 1.140965 0.050000 0.477006
v 1.133286 0.050000 0.522886
v 1.147418 0.050000 0.490493
v 1.140554 0.050000 0.472992
v 1.149911 0.050000 0.466735
v 1.158530 0.050000 0.513984
v 1.150282 0.050000 0.496184
v 1.149526 0.050000 0.493500
v 1.154087 0.050000 0.477937
v 1.148244 0.050000 0.524238
v 1.122280 0.050000 0.467902
v 1.150881 0.050000 0.521531
v 1.114985 0.050000 0.465658
v 1.140744 0.050000 0.522548
v 1.158436 0.050000 0.510854
v 1.153774 0.050000 0.479269
v 1.131223 0.050000 0.464393
v 1.136173 0.050000 0.464296
v 1.153525 0.050000 0.520434
v 1.154748 0.050000 0.517537
v 1.138348 0.050000 0.522548
v 1.158714 0.050000 0.512073
v 1.155024 0.050000 0.504099
v 1.153467 0.050000 0.479373
v 1.105590 0.050000 0.464059
v 1.143962 0.050000 0.522548
v 1.138070 0.050000 0.522548
v 1.143171 0.050000 0.522548
v 1.098657 0.050000 0.522886
v 1.141779 0.050000 0.473437
v 1.119741 0.050000 0.467528
v 1.140688 0.050000 0.466197
v 1.142353 0.050000 0.522548
v 1.137971 0.050000 0.522548
v 1.156932 0.050000 0.517359
v 1.099361 0.050000 0.469564
v 1.149943 0.050000 0.487288
v 1.158620 0.050000 0.515124
vn 0.0000 -1.0000 0.0000
vn 0.0000 0.0000 1.0000
vn 0.0000 1.0000 0.0000
vn 0.1457 0.0000 -0.9893
vn -0.9860 0.0000 0.1665
vn 0.9259 0.0000 -0.3779
vn 0.5712 0.0000 0.8208
vn 0.3036 0.0000 -0.9528
vn -0.9888 0.0000 0.1490
vn 0.5382 0.0000 -0.8428
vn -0.9126 0.0000 0.4090
vn -0.7822 0.0000 -0.6231
vn -0.2652 0.0000 -0.9642
vn 0.9985 0.0000 -0.0555
vn -0.6693 0.0000 0.7430
vn 0.4706 0.0000 -0.8823
vn -0.6456 0.0000 0.7637
vn 0.9213 0.0000 0.3889
vn 0.6607 0.0000 0.7506
vn 0.9751 0.0000 -0.2219
vn -0.9819 0.0000 -0.1895
vn 0.9038 0.0000 0.4280
vn 0.7979 0.0000 0.6028
vn 0.9418 0.0000 -0.3361
vn 0.8244 0.0000 -0.5660
vn 0.9667 0.0000 0.2558
vn 0.8086 0.0000 0.5884
vn -0.8562 0.0000 0.5166
vn -0.5768 0.0000 0.8169
vn 0.1333 0.0000 0.9911
vn 0.9954 0.0000 0.0958
vn 0.1893 0.0000 -0.9819
vn -0.7511 0.0000 0.6602
vn 0.2151 0.0000 -0.9766
vn 0.9969 0.0000 -0.0791
vn -0.9018 0.0000 0.4322
vn 0.9286 0.0000 -0.3711
vn 0.5176 0.0000 0.8556
vn 0.1818 0.0000 -0.9833
vn 0.0815 0.0000 0.9967
vn -0.8482 0.0000 -0.5297
vn 0.8189 0.0000 -0.5739
vn 0.3204 0.0000 0.9473
vn 0.9948 0.0000 -0.1017
vn 0.8767 0.0000 0.4810
vn -0.9338 0.0000 -0.3577
vn 0.1045 0.0000 -0.9945
vn 0.9892 0.0000 0.1469
vn -0.9887 0.0000 -0.1497
vn 0.9625 0.0000 -0.2711
vn -0.1358 0.0000 -0.9907
vn 0.0519 0.0000 -0.9986
vn 0.9509 0.0000 0.3094
vn -0.9980 0.0000 -0.0639
vn 0.2430 0.0000 0.9700
vn 0.7853 0.0000 -0.6192
vn 0.9488 0.0000 -0.3159
vn 0.2696 0.0000 0.9630
vn 0.8578 0.0000 -0.5140
vn -0.4359 0.0000 0.9000
vn -0.2379 0.0000 -0.9713
vn -1.0000 0.0000 0.0001
vn 0.3659 0.0000 -0.9306
vn -0.6994 0.0000 -0.7147
vn -0.2977 0.0000 0.9547
vn -0.0196 0.0000 -0.9998
vn -0.7334 0.0000 0.6798
usemtl SVGMat.3781
s off
f 19//1 18//1 17//1
f 19//1 17//1 16//1
f 19//1 16//1 15//1
f 20//1 19//1 15//1
f 9//1 8//1 7//1
f 20//1 15//1 14//1
f 10//1 9//1 7//1
f 10//1 7//1 6//1
f 5//1 4//1 3//1
f 3//1 2//1 1//1
f 10//1 6//1 5//1
f 10//1 5//1 3//1
f 11//1 10//1 3//1
f 11//1 3//1 1//1
f 20//1 14//1 13//1
f 12//1 11//1 1//1
f 20//1 13//1 12//1
f 21//1 20//1 12//1
f 21//1 12//1 66//1
f 66//1 12//1 1//1
f 22//1 21//1 66//1
f 23//1 22//1 66//1
f 23//1 66//1 65//1
f 67//1 66//1 1//1
f 23//1 65//1 64//1
f 24//1 23//1 64//1
f 67//1 1//1 77//1
f 68//1 67//1 77//1
f 24//1 64//1 63//1
f 68//1 77//1 74//1
f 68//1 74//1 73//1
f 74//1 77//1 75//1
f 68//1 73//1 72//1
f 69//1 68//1 72//1
f 24//1 63//1 62//1
f 69//1 72//1 71//1
f 70//1 69//1 71//1
f 24//1 62//1 61//1
f 24//1 61//1 60//1
f 24//1 60//1 59//1
f 24//1 59//1 58//1
f 24//1 58//1 57//1
f 24//1 57//1 56//1
f 24//1 56//1 55//1
f 24//1 55//1 54//1
f 24//1 54//1 53//1
f 24//1 53//1 52//1
f 24//1 52//1 51//1
f 24//1 51//1 50//1
f 24//1 50//1 49//1
f 25//1 24//1 49//1
f 25//1 49//1 27//1
f 27//1 49//1 48//1
f 27//1 48//1 47//1
f 25//1 27//1 26//1
f 27//1 47//1 46//1
f 28//1 27//1 46//1
f 28//1 46//1 41//1
f 29//1 28//1 41//1
f 30//2 29//2 41//2
f 31//2 30//2 41//2
f 32//2 31//2 41//2
f 33//2 32//2 41//2
f 34//2 33//2 41//2
f 35//2 34//2 41//2
f 36//2 35//2 41//2
f 37//2 36//2 41//2
f 38//2 37//2 41//2
f 39//2 38//2 41//2
f 40//2 39//2 41//2
f 42//1 41//1 46//1
f 42//1 46//1 45//1
f 43//1 42//1 45//1
f 44//1 43//1 45//1
f 90//3 106//3 107//3
f 90//3 141//3 106//3
f 90//3 108//3 141//3
f 91//3 108//3 90//3
f 133//3 110//3 134//3
f 91//3 129//3 108//3
f 111//3 110//3 133//3
f 111//3 148//3 110//3
f 93//3 121//3 92//3
f 121//3 84//3 103//3
f 111//3 93//3 148//3
f 111//3 121//3 93//3
f 85//3 121//3 111//3
f 85//3 84//3 121//3
f 91//3 147//3 129//3
f 127//3 84//3 85//3
f 91//3 127//3 147//3
f 152//3 127//3 91//3
f 152//3 105//3 127//3
f 105//3 84//3 127//3
f 104//3 105//3 152//3
f 116//3 105//3 104//3
f 116//3 120//3 105//3
f 146//3 84//3 105//3
f 116//3 117//3 120//3
f 82//3 117//3 116//3
f 146//3 125//3 84//3
f 115//3 125//3 146//3
f 82//3 97//3 117//3
f 115//3 132//3 125//3
f 115//3 140//3 132//3
f 132//3 94//3 125//3
f 115//3 89//3 140//3
f 99//3 89//3 115//3
f 82//3 96//3 97//3
f 99//3 88//3 89//3
f 153//3 88//3 99//3
f 82//3 98//3 96//3
f 82//3 119//3 98//3
f 82//3 124//3 119//3
f 82//3 123//3 124//3
f 82//3 139//3 123//3
f 82//3 83//3 139//3
f 82//3 131//3 83//3
f 82//3 138//3 131//3
f 82//3 122//3 138//3
f 82//3 154//3 122//3
f 82//3 151//3 154//3
f 82//3 136//3 151//3
f 82//3 135//3 136//3
f 145//3 135//3 82//3
f 145//3 101//3 135//3
f 101//3 102//3 135//3
f 101//3 128//3 102//3
f 145//3 118//3 101//3
f 101//3 81//3 128//3
f 100//3 81//3 101//3
f 100//3 80//3 81//3
f 150//3 80//3 100//3
f 143//2 80//2 150//2
f 137//2 80//2 143//2
f 109//2 80//2 137//2
f 86//2 80//2 109//2
f 87//2 80//2 86//2
f 130//2 80//2 87//2
f 114//2 80//2 130//2
f 149//2 80//2 114//2
f 144//2 80//2 149//2
f 142//2 80//2 144//2
f 112//2 80//2 142//2
f 78//3 81//3 80//3
f 78//3 113//3 81//3
f 79//3 113//3 78//3
f 126//3 113//3 79//3
f 12//4 13//4 147//4 127//4
f 23//5 24//5 82//5 116//5
f 1//6 2//6 103//6 84//6
f 46//7 47//7 128//7 81//7
f 6//8 7//8 110//8 148//8
f 20//9 21//9 152//9 91//9
f 17//10 18//10 107//10 106//10
f 67//11 68//11 115//11 146//11
f 36//2 37//2 149//2 114//2
f 2//12 3//12 121//12 103//12
f 9//13 10//13 111//13 133//13
f 60//14 61//14 98//14 119//14
f 28//15 29//15 150//15 100//15
f 7//16 8//16 134//16 110//16
f 69//17 70//17 153//17 99//17
f 49//18 50//18 136//18 135//18
f 48//19 49//19 135//19 102//19
f 40//2 41//2 80//2 112//2
f 54//20 55//20 131//20 138//20
f 22//21 23//21 116//21 104//21
f 45//22 46//22 81//22 113//22
f 51//23 52//23 154//23 151//23
f 63//24 64//24 117//24 97//24
f 55//25 56//25 83//25 131//25
f 72//26 73//26 140//26 89//26
f 65//27 66//27 105//27 120//27
f 37//2 38//2 144//2 149//2
f 68//28 69//28 99//28 115//28
f 42//29 43//29 79//29 78//29
f 47//30 48//30 102//30 128//30
f 29//2 30//2 143//2 150//2
f 53//31 54//31 138//31 122//31
f 16//32 17//32 106//32 141//32
f 41//33 42//33 78//33 80//33
f 32//2 33//2 86//2 109//2
f 14//34 15//34 108//34 129//34
f 52//35 53//35 122//35 154//35
f 74//36 75//36 94//36 132//36
f 56//37 57//37 139//37 83//37
f 26//38 27//38 101//38 118//38
f 3//39 4//39 92//39 121//39
f 50//40 51//40 151//40 136//40
f 21//41 22//41 104//41 152//41
f 59//42 60//42 119//42 124//42
f 73//43 74//43 132//43 140//43
f 64//44 65//44 120//44 117//44
f 34//2 35//2 130//2 87//2
f 33//2 34//2 87//2 86//2
f 71//45 72//45 89//45 88//45
f 18//46 19//46 90//46 107//46
f 15//47 16//47 141//47 108//47
f 75//48 77//48 125//48 94//48
f 19//49 20//49 91//49 90//49
f 58//50 59//50 124//50 123//50
f 4//51 5//51 93//51 92//51
f 5//52 6//52 148//52 93//52
f 30//2 31//2 137//2 143//2
f 77//53 1//53 84//53 125//53
f 75//54 76//54 95//54 94//54
f 31//2 32//2 109//2 137//2
f 38//2 39//2 142//2 144//2
f 44//55 45//55 113//55 126//55
f 62//56 63//56 97//56 96//56
f 61//57 62//57 96//57 98//57
f 70//58 71//58 88//58 153//58
f 57//59 58//59 123//59 139//59
f 27//60 28//60 100//60 101//60
f 11//61 12//61 127//61 85//61
f 39//2 40//2 112//2 142//2
f 24//62 25//62 145//62 82//62
f 13//63 14//63 129//63 147//63
f 10//64 11//64 85//64 111//64
f 43//65 44//65 126//65 79//65
f 25//2 26//2 118//2 145//2
f 8//66 9//66 133//66 134//66
f 66//67 67//67 146//67 105//67
f 35//2 36//2 114//2 130//2
