# Blender v2.79 (sub 0) OBJ File: 'world_countrycodes_outlines2.blend'
# www.blender.org
mtllib EH_outline.mtl
o EH.001_CUCurve.1683
v 0.887247 0.000747 0.529403
v 0.861073 0.001847 0.528755
v 0.862871 -0.002030 0.527258
v 0.865053 0.000696 0.525226
v 0.862088 0.000639 0.522087
v 0.862395 -0.001428 0.522909
v 0.874153 0.001421 0.501757
v 0.875694 0.001952 0.502949
v 0.876969 0.001002 0.503431
v 0.872149 -0.000743 0.506008
v 0.875540 -0.000827 0.507915
v 0.875522 -0.001954 0.503167
v 0.873404 -0.000726 0.501215
v 0.885108 0.001820 0.490186
v 0.879816 0.000796 0.494065
v 0.883116 0.000757 0.496291
v 0.882703 -0.001966 0.494771
v 0.885713 -0.000812 0.490839
v 0.883720 -0.001863 0.489106
v 0.883863 -0.000030 0.486921
v 0.884834 0.001916 0.487860
v 0.910634 0.000757 0.487343
v 0.908351 0.000771 0.490871
v 0.909914 -0.001927 0.488234
v 0.908889 -0.001391 0.490480
v 0.912537 -0.000740 0.491279
v 0.911065 0.001935 0.489702
v 0.908541 0.000001 0.497349
v 0.909842 0.001996 0.498370
v 0.911677 0.001435 0.500589
v 0.910025 -0.001978 0.498491
v 0.912103 -0.000799 0.501072
v 0.892189 0.001978 0.499762
v 0.892689 -0.001688 0.500796
v 0.889091 0.000143 0.497058
v 0.890490 -0.002000 0.514710
v 0.891944 0.001896 0.515401
v 0.889363 0.000641 0.513643
v 0.892977 -0.000820 0.515811
v 0.886293 0.001939 0.518414
v 0.883763 0.000781 0.516968
v 0.884607 -0.001852 0.517513
v 0.887261 -0.000654 0.519320
v 0.883282 -0.000748 0.525455
v 0.885989 -0.001949 0.528082
v 0.884541 0.001949 0.526776
vn 0.6618 0.2438 0.7089
vn -0.3296 -0.8543 0.4019
vn 0.3517 -0.8431 0.4068
vn -0.0376 0.9993 -0.0023
vn -0.6696 0.4368 0.6007
vn -0.5977 -0.5467 -0.5864
vn 0.7461 0.6486 -0.1502
vn -0.7128 -0.6698 -0.2082
vn -0.8736 0.3288 -0.3588
vn -0.7530 -0.5051 -0.4216
vn -0.6050 0.7200 -0.3399
vn 0.1288 0.9879 0.0858
vn 0.2168 -0.9731 0.0775
vn -0.8345 -0.3424 -0.4317
vn 0.3978 -0.8704 0.2899
vn -0.6691 0.5016 -0.5483
vn 0.1466 0.9245 0.3518
vn 0.8139 0.3237 0.4824
vn 0.7783 0.2937 0.5548
vn 0.4494 -0.5341 0.7161
vn -0.4780 -0.0992 -0.8727
vn 0.2811 -0.8077 -0.5182
vn -0.3116 -0.8931 -0.3244
vn -0.2430 0.8312 -0.5000
vn 0.4801 0.2788 -0.8317
vn 0.4700 0.8614 -0.1926
vn -0.4495 -0.8406 0.3021
vn 0.9397 -0.3107 -0.1427
vn -0.6959 -0.0569 -0.7158
vn -0.4846 0.5415 0.6870
vn -0.0535 0.9972 -0.0525
vn 0.0586 -0.9982 0.0132
vn 0.5330 0.6325 0.5620
vn 0.6387 -0.3593 0.6804
vn -0.7170 -0.0180 -0.6968
vn 0.2159 -0.9632 0.1602
vn 0.4726 0.8364 0.2777
vn 0.0049 0.9994 0.0334
vn -0.0893 -0.9959 0.0086
vn 0.8220 -0.3217 0.4700
vn 0.7929 -0.4816 0.3732
vn -0.7889 0.3446 -0.5088
vn 0.1336 0.9905 0.0308
vn -0.4691 -0.8244 -0.3166
vn -0.7769 0.4602 -0.4295
vn 0.8580 -0.3101 0.4094
usemtl SVGMat.3781
s 1
f 1//1 3//2 45//3
f 46//4 2//5 1//1
f 45//3 3//2 44//6
f 44//6 4//7 46//4
f 3//2 4//7 44//6
f 2//5 6//8 3//2
f 5//9 10//10 6//8
f 2//5 7//11 5//9
f 4//7 8//12 2//5
f 6//8 12//13 3//2
f 7//11 10//10 5//9
f 7//11 13//14 10//10
f 13//14 17//15 12//13
f 7//11 15//16 13//14
f 14//17 15//16 7//11
f 9//18 16//19 8//12
f 12//13 16//19 9//18
f 17//15 18//20 16//19
f 20//21 24//22 19//23
f 21//24 22//25 20//21
f 14//17 27//26 21//24
f 24//22 25//27 18//20
f 22//25 26//28 24//22
f 25//27 28//29 23//30
f 23//30 29//31 27//26
f 26//28 31//32 24//22
f 29//31 30//33 27//26
f 28//29 29//31 23//30
f 30//33 32//34 26//28
f 31//32 35//35 28//29
f 30//33 34//36 32//34
f 32//34 34//36 31//32
f 34//36 35//35 31//32
f 35//35 37//37 33//38
f 34//36 36//39 35//35
f 33//38 39//40 34//36
f 39//40 36//39 34//36
f 37//37 43//41 39//40
f 41//42 40//43 37//37
f 42//44 41//42 38//45
f 39//40 42//44 36//39
f 40//43 1//1 43//41
f 1//1 45//3 43//41
f 42//44 44//6 41//42
f 41//42 46//4 40//43
f 44//6 46//4 41//42
f 1//1 2//5 3//2
f 46//4 4//7 2//5
f 2//5 5//9 6//8
f 2//5 8//12 7//11
f 4//7 9//18 8//12
f 3//2 11//46 4//7
f 3//2 12//13 11//46
f 6//8 10//10 12//13
f 4//7 11//46 9//18
f 11//46 12//13 9//18
f 10//10 13//14 12//13
f 8//12 14//17 7//11
f 13//14 15//16 19//23
f 8//12 16//19 14//17
f 12//13 17//15 16//19
f 13//14 19//23 17//15
f 16//19 18//20 14//17
f 14//17 21//24 15//16
f 17//15 19//23 18//20
f 15//16 20//21 19//23
f 15//16 21//24 20//21
f 18//20 23//30 14//17
f 20//21 22//25 24//22
f 21//24 27//26 22//25
f 14//17 23//30 27//26
f 19//23 24//22 18//20
f 18//20 25//27 23//30
f 22//25 27//26 26//28
f 24//22 31//32 25//27
f 27//26 30//33 26//28
f 25//27 31//32 28//29
f 26//28 32//34 31//32
f 29//31 33//38 30//33
f 28//29 35//35 29//31
f 30//33 33//38 34//36
f 29//31 35//35 33//38
f 35//35 36//39 38//45
f 33//38 37//37 39//40
f 35//35 38//45 37//37
f 37//37 40//43 43//41
f 38//45 41//42 37//37
f 36//39 42//44 38//45
f 39//40 43//41 42//44
f 43//41 45//3 42//44
f 42//44 45//3 44//6
f 40//43 46//4 1//1
