# Blender v2.79 (sub 0) OBJ File: 'world_countrycodes_export2.blend'
# www.blender.org
mtllib ER.mtl
o ER.002_CUCurve.1845
v 1.168988 0.000000 0.552135
v 1.166955 0.000000 0.553298
v 1.166230 0.000000 0.554190
v 1.166287 0.000000 0.555928
v 1.166026 0.000000 0.557521
v 1.165437 0.000000 0.558967
v 1.164003 0.000000 0.560768
v 1.163205 0.000000 0.562477
v 1.163209 0.000000 0.565047
v 1.163767 0.000000 0.568254
v 1.165554 0.000000 0.568086
v 1.168361 0.000000 0.568431
v 1.169117 0.000000 0.568903
v 1.169752 0.000000 0.568326
v 1.170630 0.000000 0.565863
v 1.171291 0.000000 0.565405
v 1.171959 0.000000 0.565423
v 1.172990 0.000000 0.566056
v 1.174114 0.000000 0.567145
v 1.174919 0.000000 0.567676
v 1.175931 0.000000 0.567673
v 1.177426 0.000000 0.567008
v 1.178090 0.000000 0.566972
v 1.178940 0.000000 0.567453
v 1.182714 0.000000 0.567515
v 1.184788 0.000000 0.567473
v 1.189059 0.000000 0.571282
v 1.196685 0.000000 0.579154
v 1.196647 0.000000 0.579122
v 1.196647 0.000000 0.579122
v 1.196647 0.000000 0.579122
v 1.196647 0.000000 0.579122
v 1.196647 0.000000 0.579122
v 1.196647 0.000000 0.579122
v 1.196647 0.000000 0.579122
v 1.196647 0.000000 0.579122
v 1.196647 0.000000 0.579122
v 1.196647 0.000000 0.579122
v 1.196647 0.000000 0.579122
v 1.196647 0.000000 0.579122
v 1.199053 0.000000 0.579243
v 1.200987 0.000000 0.577837
v 1.198122 0.000000 0.574868
v 1.195355 0.000000 0.571578
v 1.193562 0.000000 0.569218
v 1.190709 0.000000 0.566824
v 1.188217 0.000000 0.565567
v 1.185315 0.000000 0.564718
v 1.184438 0.000000 0.564025
v 1.182954 0.000000 0.561507
v 1.181632 0.000000 0.560859
v 1.179603 0.000000 0.557827
v 1.178382 0.000000 0.554533
v 1.178084 0.000000 0.552349
v 1.177309 0.000000 0.550124
v 1.176310 0.000000 0.548298
v 1.175011 0.000000 0.546671
v 1.173170 0.000000 0.548889
v 1.170730 0.000000 0.550947
v 1.189059 0.050000 0.571282
v 1.198122 0.050000 0.574868
v 1.164003 0.050000 0.560768
v 1.181632 0.050000 0.560859
v 1.170630 0.050000 0.565863
v 1.171291 0.050000 0.565405
v 1.174114 0.050000 0.567145
v 1.177426 0.050000 0.567008
v 1.178090 0.050000 0.566972
v 1.184788 0.050000 0.567473
v 1.166955 0.050000 0.553298
v 1.178084 0.050000 0.552349
v 1.172990 0.050000 0.566056
v 1.177309 0.050000 0.550124
v 1.190709 0.050000 0.566824
v 1.173170 0.050000 0.548889
v 1.170730 0.050000 0.550947
v 1.163209 0.050000 0.565047
v 1.184438 0.050000 0.564025
v 1.166026 0.050000 0.557521
v 1.165437 0.050000 0.558967
v 1.166230 0.050000 0.554190
v 1.168361 0.050000 0.568431
v 1.169752 0.050000 0.568326
v 1.188217 0.050000 0.565567
v 1.195355 0.050000 0.571578
v 1.193562 0.050000 0.569218
v 1.171959 0.050000 0.565423
v 1.185315 0.050000 0.564718
v 1.168988 0.050000 0.552135
v 1.163767 0.050000 0.568254
v 1.165554 0.050000 0.568086
v 1.182954 0.050000 0.561507
v 1.176310 0.050000 0.548298
v 1.196685 0.050000 0.579154
v 1.174919 0.050000 0.567676
v 1.166287 0.050000 0.555928
v 1.179603 0.050000 0.557827
v 1.178940 0.050000 0.567453
v 1.169117 0.050000 0.568903
v 1.175931 0.050000 0.567673
v 1.200987 0.050000 0.577837
v 1.163205 0.050000 0.562477
v 1.178382 0.050000 0.554533
v 1.199053 0.050000 0.579243
v 1.182714 0.050000 0.567515
v 1.175011 0.050000 0.546671
vn 0.0000 -1.0000 0.0000
vn 0.0000 1.0000 0.0000
vn 0.0000 1.0000 -0.0001
vn -0.7825 0.0000 -0.6227
vn -0.7696 0.0000 -0.6385
vn -0.6447 0.0000 -0.7644
vn -0.5509 0.0000 0.8346
vn 0.8773 0.0000 -0.4800
vn -0.6956 0.0000 0.7185
vn -0.4926 0.0000 0.8702
vn 0.6200 0.0000 -0.7846
vn 0.5882 0.0000 0.8087
vn -0.9259 0.0000 -0.3777
vn -0.9869 0.0000 -0.1615
vn -0.0262 0.0000 0.9997
vn -0.7758 0.0000 -0.6310
vn -1.0000 0.0000 0.0016
vn -0.9995 0.0000 0.0328
vn 0.9418 0.0000 0.3360
vn -0.7183 0.0000 0.6958
vn 0.8310 0.0000 -0.5563
vn -0.4966 0.0000 -0.8680
vn 0.5695 0.0000 0.8220
vn 0.7654 0.0000 -0.6436
vn -0.9061 0.0000 -0.4231
vn 0.9377 0.0000 -0.3475
vn 0.4505 0.0000 -0.8928
vn 0.0935 0.0000 0.9956
vn -0.5233 0.0000 0.8522
vn 0.6428 0.0000 -0.7660
vn 0.4400 0.0000 -0.8980
vn 0.7962 0.0000 -0.6050
vn -0.0376 0.0000 0.9993
vn -0.6656 0.0000 0.7463
vn 0.0535 0.0000 0.9986
vn 0.6730 0.0000 0.7396
vn 0.4066 0.0000 0.9136
vn -0.0163 0.0000 0.9999
vn 0.0203 0.0000 0.9998
vn 0.2806 0.0000 -0.9598
vn -0.9852 0.0000 0.1713
vn 0.9443 0.0000 -0.3290
vn -0.5298 0.0000 0.8481
vn -0.1220 0.0000 0.9925
vn -0.5633 0.0000 -0.8262
vn 0.0022 0.0000 1.0000
vn 0.7813 0.0000 -0.6241
vn 0.8615 0.0000 -0.5077
vn 0.9908 0.0000 -0.1351
vn 0.7195 0.0000 -0.6945
usemtl SVGMat.3781
s off
f 58//1 57//1 56//1
f 58//1 56//1 55//1
f 59//1 58//1 55//1
f 59//1 55//1 54//1
f 1//1 59//1 54//1
f 2//1 1//1 54//1
f 2//1 54//1 53//1
f 3//1 2//1 53//1
f 4//1 3//1 53//1
f 4//1 53//1 52//1
f 5//1 4//1 52//1
f 6//1 5//1 52//1
f 6//1 52//1 51//1
f 7//1 6//1 51//1
f 7//1 51//1 50//1
f 8//1 7//1 50//1
f 8//1 50//1 49//1
f 9//1 8//1 49//1
f 9//1 49//1 48//1
f 16//1 9//1 17//1
f 17//1 9//1 48//1
f 17//1 48//1 47//1
f 9//1 16//1 15//1
f 18//1 17//1 47//1
f 18//1 47//1 46//1
f 9//1 15//1 14//1
f 19//1 18//1 23//1
f 23//1 18//1 46//1
f 19//1 23//1 22//1
f 24//1 23//1 26//1
f 26//1 23//1 46//1
f 20//1 19//1 22//1
f 20//1 22//1 21//1
f 24//1 26//1 25//1
f 10//1 9//1 11//1
f 11//1 9//1 14//1
f 26//1 46//1 45//1
f 12//1 11//1 14//1
f 27//1 26//1 45//1
f 13//1 12//1 14//1
f 27//1 45//1 44//1
f 27//1 44//1 43//1
f 28//1 27//1 43//1
f 28//1 43//1 42//1
f 28//1 42//1 41//1
f 75//2 93//2 106//2
f 75//2 73//2 93//2
f 76//2 73//2 75//2
f 76//2 71//2 73//2
f 89//2 71//2 76//2
f 70//2 71//2 89//2
f 70//2 103//2 71//2
f 81//2 103//2 70//2
f 96//2 103//2 81//2
f 96//2 97//2 103//2
f 79//2 97//2 96//2
f 80//2 97//2 79//2
f 80//2 63//2 97//2
f 62//2 63//2 80//2
f 62//2 92//2 63//2
f 102//2 92//2 62//2
f 102//2 78//2 92//2
f 77//2 78//2 102//2
f 77//2 88//2 78//2
f 65//2 87//2 77//2
f 87//2 88//2 77//2
f 87//2 84//2 88//2
f 77//2 64//2 65//2
f 72//2 84//2 87//2
f 72//2 74//2 84//2
f 77//2 83//2 64//2
f 66//2 68//2 72//2
f 68//2 74//2 72//2
f 66//2 67//2 68//2
f 98//2 69//2 68//2
f 69//2 74//2 68//2
f 95//2 67//2 66//2
f 95//2 100//2 67//2
f 98//3 105//3 69//3
f 90//2 91//2 77//2
f 91//2 83//2 77//2
f 69//2 86//2 74//2
f 82//2 83//2 91//2
f 60//2 86//2 69//2
f 99//2 83//2 82//2
f 60//2 85//2 86//2
f 60//2 61//2 85//2
f 94//2 61//2 60//2
f 94//2 101//2 61//2
f 94//2 104//2 101//2
f 6//4 7//4 62//4 80//4
f 57//5 58//5 75//5 106//5
f 58//6 59//6 76//6 75//6
f 19//7 20//7 95//7 66//7
f 55//8 56//8 93//8 73//8
f 18//9 19//9 66//9 72//9
f 23//10 24//10 98//10 68//10
f 48//11 49//11 78//11 88//11
f 41//12 42//12 101//12 104//12
f 5//13 6//13 80//13 79//13
f 4//14 5//14 79//14 96//14
f 16//15 17//15 87//15 65//15
f 2//16 3//16 81//16 70//16
f 8//17 9//17 77//17 102//17
f 3//18 4//18 96//18 81//18
f 14//19 15//19 64//19 83//19
f 27//20 28//20 94//20 60//20
f 51//21 52//21 97//21 63//21
f 1//22 2//22 70//22 89//22
f 15//23 16//23 65//23 64//23
f 43//24 44//24 85//24 61//24
f 7//25 8//25 102//25 62//25
f 52//26 53//26 103//26 97//26
f 46//27 47//27 84//27 74//27
f 10//28 11//28 91//28 90//28
f 17//29 18//29 72//29 87//29
f 45//30 46//30 74//30 86//30
f 50//31 51//31 63//31 92//31
f 44//32 45//32 86//32 85//32
f 28//33 41//33 104//33 94//33
f 26//34 27//34 60//34 69//34
f 22//35 23//35 68//35 67//35
f 13//36 14//36 83//36 99//36
f 21//37 22//37 67//37 100//37
f 24//38 25//38 105//38 98//38
f 25//39 26//39 69//39 105//39
f 47//40 48//40 88//40 84//40
f 9//41 10//41 90//41 77//41
f 54//42 55//42 73//42 71//42
f 12//43 13//43 99//43 82//43
f 11//44 12//44 82//44 91//44
f 59//45 1//45 89//45 76//45
f 20//46 21//46 100//46 95//46
f 56//47 57//47 106//47 93//47
f 49//48 50//48 92//48 78//48
f 53//49 54//49 71//49 103//49
f 42//50 43//50 61//50 101//50
