# Blender v2.79 (sub 0) OBJ File: 'world_countrycodes_outlines2.blend'
# www.blender.org
mtllib ER_outline.mtl
o ER.001_CUCurve.1671
v 1.179188 -0.000757 0.548975
v 1.178802 0.001453 0.549783
v 1.175238 -0.000843 0.549856
v 1.178081 0.001979 0.552907
v 1.180648 -0.000799 0.555571
v 1.178029 0.000820 0.559604
v 1.176798 -0.000867 0.556181
v 1.182744 0.001329 0.559648
v 1.183570 -0.000762 0.559614
v 1.183974 0.002013 0.564572
v 1.181013 -0.001913 0.561597
v 1.184774 -0.001974 0.563400
v 1.181540 0.000823 0.563047
v 1.186019 0.000900 0.562769
v 1.183641 -0.000718 0.566179
v 1.190436 0.001408 0.568013
v 1.190181 -0.000716 0.568583
v 1.193582 -0.000003 0.566275
v 1.193300 0.001961 0.567721
v 1.193194 -0.001946 0.567653
v 1.198312 -0.001235 0.577820
v 1.200877 0.002007 0.577892
v 1.201883 -0.001976 0.577808
v 1.204099 0.000766 0.578414
v 1.197967 0.000863 0.577487
v 1.199754 -0.000858 0.581015
v 1.198840 0.001867 0.580355
v 1.196800 -0.001998 0.580014
v 1.195943 0.000631 0.581193
v 1.184286 -0.000863 0.569402
v 1.184661 0.001968 0.568158
v 1.185788 0.000739 0.565585
v 1.185357 -0.001903 0.566683
v 1.177806 0.001398 0.568682
v 1.176017 0.001814 0.566194
v 1.178023 -0.000749 0.565144
v 1.177824 -0.000713 0.569105
v 1.175748 -0.001920 0.566646
v 1.174796 -0.000796 0.569786
v 1.174299 0.001914 0.568378
v 1.171734 -0.000975 0.567408
v 1.171754 0.001963 0.565873
v 1.172513 -0.000012 0.563314
v 1.172096 -0.001929 0.564466
v 1.170294 0.001474 0.564014
v 1.169457 -0.000889 0.564150
v 1.169202 0.001972 0.568035
v 1.168761 0.000022 0.566568
v 1.170342 0.000991 0.570702
v 1.169228 -0.001973 0.567971
v 1.169954 -0.001508 0.570338
v 1.167584 0.000166 0.570353
v 1.165421 0.000800 0.566065
v 1.164523 -0.001864 0.567206
v 1.162688 -0.001444 0.569540
v 1.162595 0.001712 0.569506
v 1.161127 0.000842 0.562116
v 1.163974 0.001981 0.561983
v 1.162219 -0.001931 0.562304
v 1.165148 -0.000798 0.562448
v 1.164081 0.000758 0.557405
v 1.167387 0.000902 0.559543
v 1.167483 -0.001422 0.558235
v 1.166823 0.001976 0.554564
v 1.168416 -0.000006 0.555038
v 1.165993 -0.001945 0.555237
v 1.165057 0.001431 0.553057
v 1.164479 -0.000876 0.552940
v 1.175361 0.001879 0.548059
v 1.170981 0.000701 0.548385
v 1.174932 -0.001944 0.546044
v 1.174918 0.000686 0.543592
vn 0.8331 -0.3817 -0.4003
vn -0.4334 -0.8417 0.3219
vn -0.0232 -0.8726 -0.4879
vn 0.6528 0.6955 -0.3001
vn 0.8422 -0.4466 -0.3021
vn -0.4511 -0.5947 0.6654
vn -0.7950 0.3542 0.4924
vn -0.0365 0.9991 -0.0211
vn -0.8410 -0.4803 0.2491
vn -0.0254 0.9994 0.0238
vn 0.6375 0.6420 -0.4259
vn 0.7730 -0.2627 -0.5774
vn -0.2359 0.9119 0.3358
vn 0.2323 -0.9626 -0.1397
vn -0.7333 0.1979 0.6504
vn 0.5510 0.4345 -0.7124
vn -0.5256 -0.2983 0.7967
vn -0.3701 0.7110 0.5979
vn -0.5152 -0.4528 0.7277
vn 0.2645 0.9064 -0.3292
vn 0.5948 -0.0134 -0.8037
vn 0.2147 -0.9350 -0.2823
vn -0.0920 -0.9822 -0.1633
vn 0.5170 -0.8557 -0.0217
vn 0.1525 0.9883 -0.0037
vn -0.0920 0.9909 -0.0982
vn 0.9681 0.2045 0.1447
vn 0.2984 -0.3469 0.8892
vn 0.0976 0.8379 0.5369
vn -0.1788 -0.8711 0.4574
vn -0.4068 0.2519 0.8781
vn -0.3645 -0.4811 0.7973
vn -0.0452 0.9819 0.1838
vn 0.3918 0.3240 -0.8611
vn 0.0439 -0.9620 -0.2695
vn 0.2124 -0.8641 -0.4563
vn 0.1386 0.8192 -0.5565
vn -0.1333 -0.2552 -0.9576
vn 0.0252 0.7192 0.6943
vn 0.0582 -0.4591 0.8865
vn -0.2005 -0.3565 0.9125
vn -0.2365 0.7914 0.5637
vn 0.3036 -0.6967 0.6499
vn 0.0247 0.9980 0.0578
vn 0.0692 -0.8874 -0.4558
vn 0.2387 0.0223 -0.9708
vn -0.3915 0.6352 -0.6657
vn -0.0467 0.9976 -0.0501
vn -0.0056 -0.9924 -0.1225
vn 0.4572 0.4065 0.7910
vn -0.6458 0.0121 -0.7634
vn 0.6503 0.5839 -0.4860
vn -0.1271 -0.0476 0.9907
vn -0.5698 -0.5595 0.6019
vn 0.3525 -0.6388 0.6838
vn -0.5511 0.6265 0.5511
vn 0.1669 -0.9754 -0.1438
vn -0.9170 0.3358 -0.2152
vn -0.5163 -0.8462 -0.1314
vn 0.1645 0.9857 0.0350
vn 0.8438 -0.4719 0.2554
vn -0.8827 0.3459 -0.3179
vn -0.1694 -0.9855 0.0025
vn 0.7099 -0.6707 0.2148
vn 0.8177 0.4190 0.3946
vn 0.1223 0.9872 0.1016
vn 0.8328 0.0029 0.5536
vn -0.6376 0.6652 -0.3884
vn -0.5232 0.4426 -0.7282
vn -0.8124 -0.4071 -0.4175
vn -0.0298 0.2125 -0.9767
vn -0.6688 -0.3612 -0.6497
usemtl SVGMat.3781
s 1
f 1//1 11//2 71//3
f 2//4 5//5 1//1
f 3//6 6//7 69//8
f 11//2 7//9 3//6
f 4//10 8//11 2//4
f 8//11 9//12 5//5
f 6//7 10//13 4//10
f 5//5 12//14 11//2
f 11//2 13//15 6//7
f 8//11 14//16 9//12
f 10//13 14//16 8//11
f 11//2 15//17 13//15
f 12//14 15//17 11//2
f 15//17 16//18 10//13
f 12//14 17//19 15//17
f 16//18 19//20 10//13
f 18//21 20//22 12//14
f 20//22 21//23 17//19
f 18//21 23//24 20//22
f 16//18 22//25 19//20
f 17//19 25//26 16//18
f 21//23 25//26 17//19
f 24//27 26//28 23//24
f 22//25 27//29 24//27
f 25//26 27//29 22//25
f 26//28 28//30 23//24
f 27//29 29//31 26//28
f 29//31 28//30 26//28
f 29//31 30//32 28//30
f 27//29 31//33 29//31
f 21//23 32//34 25//26
f 25//26 31//33 27//29
f 30//32 38//35 33//36
f 32//34 35//37 31//33
f 36//38 35//37 32//34
f 34//39 37//40 30//32
f 34//39 39//41 37//40
f 40//42 41//43 39//41
f 35//37 42//44 40//42
f 41//43 44//45 38//35
f 43//46 45//47 35//37
f 45//47 47//48 42//44
f 41//43 50//49 44//45
f 42//44 49//50 41//43
f 47//48 49//50 42//44
f 48//51 47//48 45//47
f 48//51 53//52 47//48
f 52//53 55//54 51//55
f 47//48 56//56 49//50
f 50//49 53//52 48//51
f 53//52 56//56 47//48
f 55//54 54//57 50//49
f 57//58 59//59 55//54
f 53//52 58//60 56//56
f 55//54 59//59 54//57
f 54//57 60//61 53//52
f 59//59 60//61 54//57
f 61//62 66//63 59//59
f 58//60 61//62 57//58
f 59//59 63//64 60//61
f 62//65 64//66 58//60
f 63//64 65//67 62//65
f 65//67 64//66 62//65
f 64//66 67//68 61//62
f 67//68 70//69 68//70
f 70//69 71//3 68//70
f 69//8 70//69 67//68
f 65//67 69//8 64//66
f 69//8 72//71 70//69
f 72//71 1//1 71//3
f 69//8 2//4 72//71
f 69//8 4//10 2//4
f 71//3 11//2 3//6
f 69//8 6//7 4//10
f 3//6 7//9 6//7
f 1//1 5//5 11//2
f 2//4 8//11 5//5
f 4//10 10//13 8//11
f 7//9 11//2 6//7
f 5//5 9//12 12//14
f 6//7 13//15 10//13
f 9//12 14//16 12//14
f 13//15 15//17 10//13
f 15//17 17//19 16//18
f 10//13 19//20 14//16
f 14//16 18//21 12//14
f 14//16 19//20 18//21
f 12//14 20//22 17//19
f 19//20 24//27 18//21
f 19//20 22//25 24//27
f 20//22 23//24 21//23
f 18//21 24//27 23//24
f 16//18 25//26 22//25
f 24//27 27//29 26//28
f 23//24 28//30 21//23
f 29//31 31//33 30//32
f 28//30 33//36 21//23
f 28//30 30//32 33//36
f 25//26 32//34 31//33
f 21//23 33//36 32//34
f 33//36 36//38 32//34
f 33//36 38//35 36//38
f 31//33 34//39 30//32
f 31//33 35//37 34//39
f 30//32 37//40 38//35
f 35//37 40//42 34//39
f 36//38 38//35 35//37
f 37//40 39//41 38//35
f 34//39 40//42 39//41
f 40//42 42//44 41//43
f 38//35 43//46 35//37
f 38//35 44//45 43//46
f 39//41 41//43 38//35
f 35//37 45//47 42//44
f 44//45 46//72 43//46
f 43//46 46//72 45//47
f 46//72 48//51 45//47
f 44//45 50//49 46//72
f 41//43 49//50 51//55
f 46//72 50//49 48//51
f 41//43 51//55 50//49
f 49//50 52//53 51//55
f 49//50 56//56 52//53
f 50//49 54//57 53//52
f 51//55 55//54 50//49
f 52//53 56//56 55//54
f 56//56 57//58 55//54
f 56//56 58//60 57//58
f 53//52 60//61 58//60
f 57//58 61//62 59//59
f 60//61 62//65 58//60
f 60//61 63//64 62//65
f 58//60 64//66 61//62
f 59//59 66//63 63//64
f 61//62 68//70 66//63
f 63//64 66//63 65//67
f 61//62 67//68 68//70
f 64//66 69//8 67//68
f 66//63 3//6 65//67
f 68//70 71//3 66//63
f 66//63 71//3 3//6
f 65//67 3//6 69//8
f 70//69 72//71 71//3
f 72//71 2//4 1//1
