# Blender v2.79 (sub 0) OBJ File: 'world_countrycodes_outlines2.blend'
# www.blender.org
mtllib ES_outline.mtl
o ES.001_CUCurve.048
v 0.979347 -0.000813 0.397684
v 0.978409 0.001913 0.396989
v 0.972010 0.001236 0.401996
v 0.971935 -0.001916 0.401034
v 0.970687 -0.000223 0.398104
v 0.965564 0.001985 0.402458
v 0.964099 0.001437 0.400716
v 0.964147 -0.000711 0.400083
v 0.963949 -0.001921 0.403011
v 0.966075 0.000691 0.405616
v 0.962536 0.000860 0.403500
v 0.966695 -0.001121 0.403276
v 0.960878 -0.000761 0.410870
v 0.960036 0.001903 0.410118
v 0.959201 -0.001967 0.408519
v 0.957353 0.001405 0.410773
v 0.956890 -0.000658 0.410778
v 0.960819 0.001929 0.417899
v 0.959276 -0.001973 0.417343
v 0.961981 -0.000710 0.418213
v 0.958000 0.000831 0.416786
v 0.956572 0.002030 0.421572
v 0.954961 -0.001905 0.420786
v 0.957588 -0.000794 0.422187
v 0.954083 0.000644 0.420348
v 0.956699 -0.000772 0.426655
v 0.955791 0.001853 0.425980
v 0.953523 0.000824 0.423621
v 0.954604 -0.001960 0.424612
v 0.951714 0.001411 0.427742
v 0.947199 0.001947 0.429617
v 0.950862 -0.001969 0.425742
v 0.952003 -0.000783 0.428226
v 0.946505 0.000110 0.428598
v 0.947221 -0.001927 0.429837
v 0.948518 -0.000771 0.432573
v 0.948162 0.001457 0.432000
v 0.936772 0.000697 0.433137
v 0.933569 0.001863 0.431393
v 0.933574 -0.000667 0.430243
v 0.934823 -0.001929 0.433008
v 0.933474 0.000762 0.435055
v 0.930374 0.001637 0.434782
v 0.929249 0.001907 0.432146
v 0.926923 -0.002047 0.435863
v 0.929292 -0.000675 0.430988
v 0.927350 -0.000839 0.433024
v 0.927633 0.001977 0.434807
v 0.930710 -0.001097 0.434945
v 0.929194 -0.000088 0.437136
v 0.925103 0.000956 0.436345
v 0.920307 -0.000797 0.430177
v 0.920760 0.001897 0.429129
v 0.922264 0.001401 0.427264
v 0.922710 -0.000745 0.426996
v 0.919158 -0.000450 0.425851
v 0.918602 -0.001807 0.427132
v 0.918713 0.001166 0.425825
v 0.917205 -0.001909 0.429131
v 0.917391 0.001708 0.429985
v 0.915404 0.000766 0.427351
v 0.916025 -0.000904 0.422996
v 0.917019 0.001952 0.423619
v 0.919120 -0.001869 0.422324
v 0.918212 0.000855 0.421781
v 0.921646 0.001917 0.422796
v 0.921563 -0.001592 0.424034
v 0.922474 -0.000900 0.421865
v 0.917007 -0.001895 0.419848
v 0.915845 0.000699 0.419624
v 0.920137 0.000776 0.419200
v 0.919927 -0.001272 0.419045
v 0.918031 -0.000751 0.416093
v 0.918610 0.001870 0.416943
v 0.921180 0.001916 0.417480
v 0.922581 0.000805 0.417097
v 0.921133 -0.001963 0.416281
v 0.916274 0.001933 0.412543
v 0.915409 -0.000634 0.413613
v 0.919639 0.000795 0.413139
v 0.917580 -0.002167 0.412310
v 0.917725 0.000541 0.410024
v 0.918450 -0.000871 0.410348
v 0.920814 0.001919 0.412404
v 0.921842 0.000031 0.413041
v 0.921250 -0.001733 0.411339
v 0.918975 -0.000977 0.406759
v 0.920609 0.002037 0.407400
v 0.923243 0.000614 0.407279
v 0.922043 -0.001991 0.406493
v 0.918049 -0.000643 0.401650
v 0.918723 0.001439 0.401686
v 0.922246 0.000051 0.403119
v 0.920802 -0.001987 0.402550
v 0.920945 0.001971 0.402637
v 0.922021 -0.000842 0.398992
v 0.923386 0.001945 0.399146
v 0.926410 0.001048 0.397854
v 0.926127 -0.000869 0.399762
v 0.922281 0.001979 0.396140
v 0.924839 -0.001655 0.397227
v 0.920799 -0.001294 0.397666
v 0.920617 0.000683 0.397928
v 0.922725 0.000818 0.394180
v 0.921844 -0.001986 0.395225
v 0.918074 0.001402 0.395308
v 0.917985 -0.000813 0.394823
v 0.918174 0.001941 0.397754
v 0.917935 -0.001863 0.397908
v 0.917532 -0.000021 0.398956
v 0.912298 0.001693 0.396656
v 0.913079 -0.002032 0.395587
v 0.912920 -0.000889 0.398298
v 0.912009 0.000000 0.397209
v 0.914263 0.001671 0.394420
v 0.914080 -0.000825 0.393025
v 0.910801 0.000634 0.393259
v 0.910789 -0.001939 0.394862
v 0.907611 -0.000702 0.398251
v 0.908760 0.001943 0.396867
v 0.912182 0.000555 0.393414
v 0.907837 0.000807 0.392532
v 0.908348 -0.001386 0.392408
v 0.908925 0.001592 0.388373
v 0.908568 -0.001765 0.388021
v 0.905191 0.000957 0.389253
v 0.906633 -0.002009 0.386521
v 0.904768 -0.001000 0.387342
v 0.906675 0.001904 0.386272
v 0.910653 -0.000048 0.383804
v 0.912313 0.001979 0.384014
v 0.914784 0.001052 0.385636
v 0.912652 -0.000822 0.387767
v 0.913549 -0.001919 0.384300
v 0.913712 -0.001509 0.382011
v 0.915342 0.000824 0.381503
v 0.919344 -0.000786 0.383301
v 0.918805 0.001921 0.384324
v 0.918481 0.000760 0.387169
v 0.919025 -0.001931 0.386109
v 0.942181 -0.000749 0.383505
v 0.948405 0.001935 0.385074
v 0.942355 0.000779 0.387449
v 0.947812 -0.001928 0.386537
v 0.950408 -0.000855 0.384664
v 0.949438 0.000728 0.388544
v 0.961583 0.001338 0.390153
v 0.961244 0.001892 0.392678
v 0.961407 -0.000598 0.393881
v 0.961411 -0.000696 0.389662
v 0.962971 -0.001902 0.392223
v 0.964316 0.001945 0.390637
v 0.964392 0.000679 0.392448
v 0.964068 -0.001944 0.391210
v 0.963450 -0.000752 0.387469
v 0.964259 0.001438 0.388208
v 0.967793 -0.000807 0.389825
v 0.969645 0.000849 0.390568
v 0.976656 -0.000682 0.394752
v 0.979405 -0.002022 0.394182
v 0.979947 -0.001526 0.391849
v 0.977299 0.001306 0.394612
v 0.980691 0.000515 0.391113
v 0.979729 0.001966 0.393316
v 0.980722 0.000920 0.413668
v 0.978117 0.001941 0.412841
v 0.979850 -0.001937 0.412655
v 0.979068 -0.000781 0.415316
v 0.975982 0.000167 0.415971
v 0.972739 -0.001929 0.412689
v 0.975476 0.001515 0.412231
v 0.975794 -0.001184 0.411956
v 0.972173 0.001597 0.413162
v 0.976192 -0.000065 0.412707
v 0.973350 0.001011 0.409730
v 0.975640 -0.000765 0.408529
v 0.978342 -0.002002 0.410500
v 0.977169 -0.000774 0.411837
v 0.980246 -0.000600 0.408586
v 0.979235 0.002052 0.409931
vn 0.4754 -0.8771 0.0680
vn -0.4287 0.0413 -0.9025
vn -0.6940 -0.7139 0.0932
vn 0.3951 0.8602 0.3225
vn 0.2895 0.6650 0.6884
vn 0.7576 -0.2978 0.5809
vn -0.3123 0.9446 0.1007
vn 0.1708 -0.8957 0.4105
vn 0.4687 -0.4678 0.7493
vn 0.1577 0.9853 0.0650
vn -0.5589 -0.3981 -0.7274
vn -0.3330 -0.9275 -0.1700
vn -0.7815 0.4019 -0.4772
vn 0.8332 0.2800 0.4769
vn 0.8701 -0.4339 0.2335
vn 0.2564 0.9640 0.0692
vn -0.3693 -0.8783 -0.3034
vn -0.9261 -0.3285 -0.1856
vn -0.7293 0.6569 -0.1912
vn 0.5116 0.8346 0.2040
vn -0.0985 -0.9951 0.0032
vn 0.8979 -0.3004 0.3218
vn -0.8347 0.5004 -0.2299
vn 0.1838 0.9768 0.1094
vn -0.4571 -0.8541 -0.2479
vn 0.7714 -0.4650 0.4344
vn -0.8352 0.3068 -0.4563
vn 0.7216 -0.3278 0.6098
vn -0.7108 0.5060 -0.4885
vn 0.4301 0.8234 0.3701
vn -0.0492 -0.9955 -0.0813
vn -0.1113 0.9545 -0.2765
vn -0.2983 -0.8369 -0.4588
vn 0.4723 0.2463 0.8463
vn 0.4998 -0.4953 0.7105
vn -0.4015 0.0226 -0.9156
vn 0.4419 -0.3777 0.8137
vn 0.3322 0.6841 0.6494
vn -0.0453 -0.9878 -0.1489
vn 0.1432 0.4584 0.8771
vn -0.1682 -0.3651 -0.9156
vn -0.0101 0.9074 -0.4202
vn 0.1212 -0.9343 0.3351
vn 0.3306 0.3331 0.8830
vn 0.3804 -0.3373 0.8611
vn -0.3457 0.7896 -0.5070
vn 0.2345 0.8085 0.5398
vn -0.1602 -0.8618 0.4811
vn -0.3849 -0.3632 -0.8485
vn 0.0381 -0.5830 -0.8115
vn 0.0027 0.9869 0.1611
vn 0.3421 0.0206 0.9394
vn -0.4806 0.3484 0.8047
vn -0.4975 -0.3300 0.8022
vn -0.1260 0.9670 0.2213
vn 0.4142 0.6623 -0.6243
vn 0.5431 -0.4134 -0.7308
vn 0.2598 -0.9631 -0.0703
vn 0.8990 -0.3985 -0.1812
vn 0.4316 0.9020 -0.0034
vn -0.3684 0.6062 0.7048
vn -0.4009 -0.7577 0.5149
vn -0.9542 0.2351 0.1848
vn -0.7793 -0.3758 -0.5015
vn -0.4480 0.8484 -0.2819
vn -0.1128 -0.9904 -0.0794
vn -0.6653 0.7190 -0.2009
vn 0.6334 0.7611 0.1392
vn 0.5950 -0.6281 0.5014
vn -0.5949 -0.7862 0.1671
vn -0.4154 0.9080 0.0550
vn -0.9316 0.3351 0.1406
vn 0.5825 -0.7973 0.1577
vn 0.9152 -0.3595 -0.1820
vn -0.8196 -0.5669 0.0827
vn 0.9314 0.3624 -0.0339
vn 0.3942 0.8962 0.2035
vn 0.9755 0.2116 0.0605
vn 0.5551 -0.8224 -0.1243
vn 0.5842 0.5712 0.5766
vn -0.6356 0.7608 -0.1310
vn -0.9494 -0.2446 0.1970
vn -0.2759 -0.9414 -0.1937
vn -0.8026 0.3251 -0.5000
vn -0.5309 -0.7593 -0.3762
vn 0.3840 0.8484 0.3642
vn 0.5725 -0.7981 0.1877
vn 0.7694 -0.0707 0.6348
vn -0.0813 0.9932 0.0827
vn -0.8737 -0.4803 -0.0769
vn 0.4494 -0.8930 -0.0246
vn 0.9262 0.3179 0.2027
vn -0.8918 -0.3241 -0.3158
vn 0.9652 0.0222 0.2604
vn -0.0118 -0.9998 0.0110
vn -0.7145 0.6323 -0.2995
vn -0.7170 -0.6897 -0.1012
vn 0.1991 0.9790 0.0427
vn -0.0098 0.9979 0.0641
vn 0.5128 -0.7499 -0.4178
vn 0.8605 0.4271 -0.2776
vn 0.2155 0.9503 -0.2244
vn 0.1465 -0.8589 -0.4907
vn -0.1188 0.3878 0.9141
vn 0.4558 0.3215 -0.8299
vn -0.0343 -0.4870 -0.8727
vn 0.0924 -0.8765 0.4724
vn -0.0399 -0.7354 0.6764
vn 0.0076 0.8880 0.4598
vn -0.0056 0.7484 -0.6631
vn 0.0479 0.0400 0.9980
vn -0.4915 -0.3177 0.8108
vn -0.0120 0.8525 0.5226
vn -0.2582 -0.0845 0.9624
vn 0.0748 -0.9962 -0.0440
vn 0.6312 -0.3334 -0.7003
vn 0.2321 0.7558 -0.6122
vn -0.0204 -0.9957 -0.0905
vn -0.7834 0.1522 -0.6025
vn -0.3593 0.8346 0.4176
vn -0.6131 -0.2669 0.7436
vn 0.9257 0.2561 0.2784
vn -0.9023 0.4005 0.1596
vn 0.2879 0.9227 0.2562
vn -0.6203 -0.7650 0.1732
vn 0.3359 -0.9386 0.0790
vn -0.9091 -0.3529 -0.2215
vn -0.8113 0.4549 0.3672
vn -0.3645 -0.8271 -0.4277
vn -0.4838 0.7553 -0.4420
vn -0.4419 -0.1066 -0.8907
vn -0.0452 -0.9937 0.1026
vn -0.1644 0.9200 -0.3556
vn 0.4761 -0.3763 0.7948
vn -0.2543 -0.6168 -0.7448
vn 0.0521 0.3696 -0.9277
vn 0.1002 0.5327 0.8403
vn 0.1178 0.9547 -0.2733
vn -0.0500 -0.8932 0.4467
vn 0.2243 -0.4368 -0.8711
vn -0.1620 0.3531 0.9214
vn 0.0354 -0.3460 -0.9376
vn 0.0974 0.8710 -0.4815
vn -0.0321 0.3811 0.9239
vn -0.0704 -0.9705 0.2304
vn 0.2898 -0.3739 -0.8810
vn -0.3473 0.3654 0.8636
vn -0.0891 -0.5388 -0.8377
vn 0.0611 0.8222 0.5659
vn 0.2369 -0.8838 0.4035
vn 0.0417 -0.9830 0.1785
vn 0.0119 -0.2076 0.9781
vn 0.0101 0.9933 0.1145
vn 0.0067 0.3861 0.9224
vn -0.1122 0.8181 -0.5640
vn -0.1846 -0.3655 -0.9123
vn 0.0337 0.6720 -0.7397
vn 0.2727 -0.5270 -0.8049
vn 0.1883 0.4696 -0.8625
vn 0.5219 0.8525 -0.0304
vn 0.7355 0.2079 -0.6448
vn 0.5475 -0.7024 -0.4548
vn 0.2398 -0.9682 -0.0706
vn -0.0728 0.9970 0.0249
vn 0.3041 0.8634 -0.4025
vn 0.5212 -0.8423 0.1372
vn 0.0291 -0.9926 -0.1181
vn 0.8254 0.3981 0.4003
vn 0.4006 -0.3549 0.8447
vn -0.1479 0.0905 0.9848
vn -0.6685 -0.7322 0.1301
vn 0.1066 0.9933 0.0450
vn 0.2396 -0.7995 0.5508
vn -0.6272 0.3931 -0.6724
vn -0.2282 -0.2897 -0.9295
vn -0.7872 0.5518 0.2752
vn -0.0260 -0.0985 0.9948
vn 0.6234 -0.1874 -0.7591
vn -0.4925 0.6758 -0.5483
vn 0.8488 -0.3508 0.3954
usemtl SVGMat.3781
s 1
f 160//1 5//2 159//3
f 2//4 3//5 1//6
f 162//7 3//5 2//4
f 1//6 4//8 160//1
f 3//5 4//8 1//6
f 159//3 5//2 162//7
f 3//5 12//9 4//8
f 5//2 6//10 3//5
f 4//8 8//11 5//2
f 6//10 12//9 3//5
f 9//12 11//13 8//11
f 6//10 10//14 12//9
f 10//14 13//15 12//9
f 6//10 14//16 10//14
f 11//13 14//16 6//10
f 12//9 15//17 9//12
f 15//17 17//18 11//13
f 16//19 18//20 14//16
f 13//15 19//21 15//17
f 18//20 20//22 13//15
f 19//21 21//23 17//18
f 21//23 22//24 18//20
f 20//22 23//25 19//21
f 22//24 24//26 20//22
f 23//25 25//27 21//23
f 22//24 26//28 24//26
f 23//25 28//29 25//27
f 28//29 27//30 22//24
f 26//28 29//31 23//25
f 28//29 31//32 27//30
f 26//28 32//33 29//31
f 30//34 33//35 26//28
f 32//33 34//36 28//29
f 34//36 31//32 28//29
f 30//34 36//37 33//35
f 31//32 37//38 30//34
f 33//35 35//39 32//33
f 37//38 38//40 36//37
f 35//39 40//41 34//36
f 39//42 38//40 37//38
f 40//41 39//42 31//32
f 41//43 40//41 35//39
f 39//42 42//44 38//40
f 42//44 49//45 41//43
f 39//42 44//46 43//47
f 49//45 45//48 41//43
f 43//47 49//45 42//44
f 46//49 44//46 39//42
f 45//48 46//49 40//41
f 45//48 47//50 46//49
f 47//50 48//51 44//46
f 43//47 50//52 49//45
f 50//52 45//48 49//45
f 48//51 51//53 43//47
f 51//53 52//54 45//48
f 48//51 53//55 51//53
f 47//50 54//56 48//51
f 45//48 55//57 47//50
f 54//56 53//55 48//51
f 52//54 57//58 45//48
f 56//59 58//60 54//56
f 58//60 60//61 53//55
f 52//54 59//62 57//58
f 53//55 60//61 52//54
f 61//63 62//64 59//62
f 60//61 63//65 61//63
f 58//60 63//65 60//61
f 64//66 56//59 57//58
f 63//65 65//67 62//64
f 65//67 64//66 62//64
f 58//60 66//68 63//65
f 56//59 66//68 58//60
f 64//66 67//69 56//59
f 64//66 69//70 67//69
f 65//67 69//70 64//66
f 74//71 70//72 65//67
f 69//70 72//73 68//74
f 70//72 73//75 69//70
f 71//76 75//77 74//71
f 72//73 76//78 71//76
f 77//79 80//80 76//78
f 75//77 78//81 74//71
f 78//81 79//82 73//75
f 76//78 78//81 75//77
f 73//75 81//83 77//79
f 78//81 82//84 79//82
f 82//84 83//85 81//83
f 80//80 84//86 78//81
f 83//85 86//87 81//83
f 81//83 85//88 80//80
f 85//88 88//89 84//86
f 87//90 90//91 86//87
f 86//87 89//92 88//89
f 88//89 91//93 87//90
f 90//91 93//94 89//92
f 91//93 94//95 90//91
f 92//96 96//97 91//93
f 95//98 97//99 92//96
f 96//97 101//100 94//95
f 93//94 98//101 95//98
f 98//101 100//102 97//99
f 96//97 105//103 101//100
f 97//99 103//104 96//97
f 100//102 103//104 97//99
f 101//100 104//105 100//102
f 105//103 107//106 104//105
f 103//104 109//107 102//108
f 100//102 108//109 103//104
f 106//110 108//109 100//102
f 102//108 109//107 105//103
f 108//109 110//111 103//104
f 108//109 113//112 110//111
f 106//110 111//113 108//109
f 111//113 114//114 113//112
f 114//114 112//115 113//112
f 112//115 116//116 115//117
f 112//115 118//118 116//116
f 117//119 120//120 115//117
f 114//114 119//121 112//115
f 111//113 119//121 114//114
f 118//118 121//122 117//119
f 120//120 122//123 119//121
f 121//122 124//124 120//120
f 123//125 125//126 118//118
f 122//123 128//127 123//125
f 124//124 126//128 122//123
f 125//126 124//124 121//122
f 123//125 127//129 125//126
f 129//130 130//131 128//127
f 130//131 134//132 127//129
f 124//124 131//133 129//130
f 125//126 133//134 124//124
f 127//129 133//134 125//126
f 130//131 135//135 134//132
f 131//133 136//136 130//131
f 132//137 138//138 131//133
f 135//135 140//139 134//132
f 136//136 137//140 135//135
f 134//132 139//141 132//137
f 138//138 141//142 137//140
f 139//141 142//143 138//138
f 140//139 143//144 139//141
f 137//140 144//145 140//139
f 142//143 145//146 141//142
f 144//145 146//147 143//144
f 142//143 150//148 145//146
f 146//147 148//149 142//143
f 145//146 151//150 144//145
f 150//148 154//151 151//150
f 149//152 152//153 148//149
f 151//150 153//154 149//152
f 147//155 155//156 150//148
f 152//153 156//157 147//155
f 156//157 157//158 155//156
f 152//153 158//159 156//157
f 153//154 164//160 152//153
f 154//151 159//3 153//154
f 157//158 160//1 154//151
f 159//3 162//7 153//154
f 160//1 159//3 154//151
f 164//160 163//161 158//159
f 162//7 2//4 164//160
f 163//161 1//6 161//162
f 164//160 1//6 163//161
f 178//163 166//164 180//165
f 167//166 178//163 177//167
f 165//168 168//169 167//166
f 166//164 169//170 165//168
f 168//169 170//171 167//166
f 178//163 171//172 166//164
f 170//171 172//173 178//163
f 175//174 176//175 170//171
f 171//172 180//165 173//176
f 174//177 180//165 171//172
f 177//167 178//163 174//177
f 175//174 179//178 176//175
f 180//165 165//168 179//178
f 160//1 4//8 5//2
f 162//7 5//2 3//5
f 5//2 7//179 6//10
f 5//2 8//11 7//179
f 4//8 9//12 8//11
f 4//8 12//9 9//12
f 8//11 11//13 7//179
f 7//179 11//13 6//10
f 10//14 14//16 13//15
f 9//12 15//17 11//13
f 12//9 13//15 15//17
f 11//13 16//19 14//16
f 11//13 17//18 16//19
f 15//17 19//21 17//18
f 14//16 18//20 13//15
f 13//15 20//22 19//21
f 17//18 21//23 16//19
f 16//19 21//23 18//20
f 18//20 22//24 20//22
f 19//21 23//25 21//23
f 21//23 25//27 22//24
f 20//22 24//26 23//25
f 22//24 27//30 26//28
f 25//27 28//29 22//24
f 23//25 29//31 28//29
f 24//26 26//28 23//25
f 27//30 30//34 26//28
f 27//30 31//32 30//34
f 29//31 32//33 28//29
f 26//28 33//35 32//33
f 32//33 35//39 34//36
f 30//34 37//38 36//37
f 33//35 36//37 35//39
f 36//37 38//40 41//43
f 31//32 39//42 37//38
f 34//36 40//41 31//32
f 36//37 41//43 35//39
f 38//40 42//44 41//43
f 39//42 43//47 42//44
f 41//43 45//48 40//41
f 40//41 46//49 39//42
f 46//49 47//50 44//46
f 44//46 48//51 43//47
f 43//47 51//53 50//52
f 50//52 51//53 45//48
f 51//53 53//55 52//54
f 47//50 55//57 54//56
f 45//48 57//58 55//57
f 55//57 56//59 54//56
f 55//57 57//58 56//59
f 54//56 58//60 53//55
f 52//54 60//61 59//62
f 60//61 61//63 59//62
f 61//63 63//65 62//64
f 59//62 64//66 57//58
f 59//62 62//64 64//66
f 63//65 66//68 65//67
f 56//59 67//69 66//68
f 67//69 68//74 66//68
f 68//74 71//76 66//68
f 66//68 74//71 65//67
f 67//69 69//70 68//74
f 65//67 70//72 69//70
f 66//68 71//76 74//71
f 68//74 72//73 71//76
f 70//72 74//71 73//75
f 69//70 77//79 72//73
f 69//70 73//75 77//79
f 71//76 76//78 75//77
f 72//73 77//79 76//78
f 74//71 78//81 73//75
f 76//78 80//80 78//81
f 77//79 81//83 80//80
f 73//75 79//82 81//83
f 79//82 82//84 81//83
f 78//81 84//86 82//84
f 80//80 85//88 84//86
f 81//83 86//87 85//88
f 83//85 82//84 87//90
f 85//88 86//87 88//89
f 83//85 87//90 86//87
f 84//86 88//89 82//84
f 82//84 88//89 87//90
f 86//87 90//91 89//92
f 88//89 92//96 91//93
f 89//92 95//98 88//89
f 89//92 93//94 95//98
f 90//91 94//95 93//94
f 87//90 91//93 90//91
f 88//89 95//98 92//96
f 92//96 97//99 96//97
f 94//95 99//180 93//94
f 91//93 96//97 94//95
f 94//95 101//100 99//180
f 95//98 98//101 97//99
f 93//94 99//180 98//101
f 99//180 101//100 98//101
f 98//101 101//100 100//102
f 96//97 102//108 105//103
f 96//97 103//104 102//108
f 101//100 105//103 104//105
f 104//105 106//110 100//102
f 104//105 107//106 106//110
f 105//103 109//107 107//106
f 103//104 110//111 109//107
f 110//111 113//112 109//107
f 107//106 115//117 106//110
f 109//107 112//115 107//106
f 108//109 111//113 113//112
f 106//110 115//117 111//113
f 107//106 112//115 115//117
f 109//107 113//112 112//115
f 116//116 117//119 115//117
f 116//116 118//118 117//119
f 115//117 120//120 111//113
f 111//113 120//120 119//121
f 117//119 121//122 120//120
f 112//115 119//121 118//118
f 119//121 122//123 123//125
f 119//121 123//125 118//118
f 120//120 124//124 122//123
f 118//118 125//126 121//122
f 122//123 126//128 128//127
f 124//124 129//130 126//128
f 123//125 128//127 127//129
f 126//128 129//130 128//127
f 128//127 130//131 127//129
f 129//130 131//133 130//131
f 124//124 132//137 131//133
f 124//124 133//134 132//137
f 127//129 134//132 133//134
f 133//134 134//132 132//137
f 130//131 136//136 135//135
f 131//133 138//138 136//136
f 136//136 138//138 137//140
f 132//137 139//141 138//138
f 134//132 140//139 139//141
f 135//135 137//140 140//139
f 138//138 142//143 141//142
f 139//141 143//144 142//143
f 140//139 144//145 143//144
f 137//140 141//142 144//145
f 143//144 146//147 142//143
f 141//142 145//146 144//145
f 142//143 147//155 150//148
f 142//143 148//149 147//155
f 144//145 149//152 146//147
f 144//145 151//150 149//152
f 146//147 149//152 148//149
f 145//146 150//148 151//150
f 148//149 152//153 147//155
f 149//152 153//154 152//153
f 151//150 154//151 153//154
f 150//148 155//156 154//151
f 147//155 156//157 155//156
f 156//157 158//159 157//158
f 155//156 157//158 154//151
f 157//158 158//159 161//162
f 152//153 164//160 158//159
f 157//158 161//162 160//1
f 153//154 162//7 164//160
f 158//159 163//161 161//162
f 164//160 2//4 1//6
f 161//162 1//6 160//1
f 180//165 166//164 165//168
f 165//168 169//170 168//169
f 166//164 173//176 169//170
f 167//166 170//171 178//163
f 168//169 169//170 170//171
f 166//164 171//172 173//176
f 178//163 172//173 171//172
f 169//170 173//176 170//171
f 172//173 174//177 171//172
f 173//176 175//174 170//171
f 173//176 180//165 175//174
f 170//171 177//167 172//173
f 170//171 176//175 177//167
f 172//173 177//167 174//177
f 174//177 178//163 180//165
f 175//174 180//165 179//178
f 176//175 179//178 177//167
f 179//178 165//168 167//166
f 179//178 167//166 177//167
