# Blender v2.79 (sub 0) OBJ File: 'world_countrycodes_export2.blend'
# www.blender.org
mtllib FJ.mtl
o FJ.002_CUCurve.1734
v 1.970471 0.000000 0.751193
v 1.972102 0.000000 0.751216
v 1.974975 0.000000 0.750064
v 1.976142 0.000000 0.748790
v 1.976137 0.000000 0.747507
v 1.973097 0.000000 0.748204
v 1.970040 0.000000 0.750576
v 1.962336 0.000000 0.757562
v 1.964104 0.000000 0.758897
v 1.967059 0.000000 0.759089
v 1.968570 0.000000 0.757950
v 1.969182 0.000000 0.755829
v 1.968326 0.000000 0.754685
v 1.965812 0.000000 0.754640
v 1.962587 0.000000 0.756471
v 1.962336 0.050000 0.757562
v 1.964104 0.050000 0.758897
v 1.969182 0.050000 0.755829
v 1.968326 0.050000 0.754685
v 1.968570 0.050000 0.757950
v 1.976142 0.050000 0.748790
v 1.976137 0.050000 0.747507
v 1.974975 0.050000 0.750064
v 1.973097 0.050000 0.748204
v 1.970040 0.050000 0.750576
v 1.965812 0.050000 0.754640
v 1.972102 0.050000 0.751216
v 1.970471 0.050000 0.751193
v 1.962587 0.050000 0.756471
v 1.967059 0.050000 0.759089
vn 0.0000 -1.0000 0.0000
vn 0.0000 1.0000 0.0000
vn 0.0178 0.0000 -0.9998
vn -0.4938 0.0000 -0.8696
vn 0.8008 0.0000 -0.5989
vn -0.0650 0.0000 0.9979
vn -0.0140 0.0000 0.9999
vn 0.3720 0.0000 0.9282
vn 1.0000 0.0000 -0.0038
vn 0.6021 0.0000 0.7984
vn -0.8195 0.0000 0.5731
vn 0.7376 0.0000 0.6753
vn -0.9745 0.0000 -0.2242
vn -0.2233 0.0000 -0.9747
vn 0.9608 0.0000 0.2771
vn -0.6131 0.0000 -0.7900
vn -0.6024 0.0000 0.7982
usemtl SVGMat.3781
s off
f 14//1 13//1 12//1
f 15//1 14//1 12//1
f 8//1 15//1 12//1
f 8//1 12//1 11//1
f 9//1 8//1 11//1
f 9//1 11//1 10//1
f 6//1 5//1 4//1
f 7//1 6//1 4//1
f 7//1 4//1 3//1
f 7//1 3//1 2//1
f 1//1 7//1 2//1
f 26//2 18//2 19//2
f 29//2 18//2 26//2
f 16//2 18//2 29//2
f 16//2 20//2 18//2
f 17//2 20//2 16//2
f 17//2 30//2 20//2
f 24//2 21//2 22//2
f 25//2 21//2 24//2
f 25//2 23//2 21//2
f 25//2 27//2 23//2
f 28//2 27//2 25//2
f 13//3 14//3 26//3 19//3
f 14//4 15//4 29//4 26//4
f 12//5 13//5 19//5 18//5
f 9//6 10//6 30//6 17//6
f 1//7 2//7 27//7 28//7
f 2//8 3//8 23//8 27//8
f 4//9 5//9 22//9 21//9
f 10//10 11//10 20//10 30//10
f 7//11 1//11 28//11 25//11
f 3//12 4//12 21//12 23//12
f 15//13 8//13 16//13 29//13
f 5//14 6//14 24//14 22//14
f 11//15 12//15 18//15 20//15
f 6//16 7//16 25//16 24//16
f 8//17 9//17 17//17 16//17
