# Blender v2.79 (sub 0) OBJ File: 'world_countrycodes_export2.blend'
# www.blender.org
mtllib GA.mtl
o GA.002_CUCurve.1850
v 1.027135 0.000000 0.671584
v 1.027667 0.000000 0.671058
v 1.027691 0.000000 0.670040
v 1.026353 0.000000 0.666455
v 1.026525 0.000000 0.665456
v 1.027067 0.000000 0.664998
v 1.028153 0.000000 0.664734
v 1.030388 0.000000 0.664722
v 1.031128 0.000000 0.664221
v 1.031769 0.000000 0.662215
v 1.032163 0.000000 0.661683
v 1.032751 0.000000 0.661575
v 1.033458 0.000000 0.662086
v 1.034824 0.000000 0.664701
v 1.035465 0.000000 0.665088
v 1.036559 0.000000 0.665013
v 1.038655 0.000000 0.665764
v 1.039821 0.000000 0.665811
v 1.040518 0.000000 0.665537
v 1.041065 0.000000 0.664821
v 1.041523 0.000000 0.663295
v 1.041694 0.000000 0.660836
v 1.041729 0.000000 0.656094
v 1.041503 0.000000 0.654730
v 1.040960 0.000000 0.653663
v 1.039231 0.000000 0.652359
v 1.038180 0.000000 0.650566
v 1.038345 0.000000 0.649396
v 1.038994 0.000000 0.648715
v 1.039912 0.000000 0.648311
v 1.040592 0.000000 0.647634
v 1.041014 0.000000 0.646770
v 1.040980 0.000000 0.645332
v 1.040240 0.000000 0.644227
v 1.039080 0.000000 0.643619
v 1.037401 0.000000 0.643775
v 1.035110 0.000000 0.644412
v 1.034442 0.000000 0.644362
v 1.034281 0.000000 0.643802
v 1.034899 0.000000 0.638199
v 1.026434 0.000000 0.637814
v 1.026435 0.000000 0.637814
v 1.026435 0.000000 0.637813
v 1.025400 0.000000 0.638121
v 1.025471 0.000000 0.641784
v 1.025173 0.000000 0.645444
v 1.017169 0.000000 0.645814
v 1.014829 0.000000 0.646119
v 1.013750 0.000000 0.647465
v 1.013790 0.000000 0.648006
v 1.015706 0.000000 0.649646
v 1.016075 0.000000 0.650387
v 1.015583 0.000000 0.650797
v 1.013960 0.000000 0.651322
v 1.013069 0.000000 0.651878
v 1.012864 0.000000 0.652930
v 1.012584 0.000000 0.653921
v 1.011866 0.000000 0.655104
v 1.010471 0.000000 0.656277
v 1.010865 0.000000 0.657495
v 1.013345 0.000000 0.660692
v 1.013726 0.000000 0.662062
v 1.015205 0.000000 0.663937
v 1.018142 0.000000 0.666885
v 1.019323 0.000000 0.668374
v 1.021297 0.000000 0.671587
v 1.023242 0.000000 0.673334
v 1.023681 0.000000 0.672730
v 1.024367 0.000000 0.672170
v 1.025352 0.000000 0.671778
v 1.040960 0.050000 0.653663
v 1.039231 0.050000 0.652359
v 1.034281 0.050000 0.643802
v 1.025471 0.050000 0.641784
v 1.026435 0.050000 0.637814
v 1.026435 0.050000 0.637813
v 1.038180 0.050000 0.650566
v 1.038345 0.050000 0.649396
v 1.041523 0.050000 0.663295
v 1.041694 0.050000 0.660836
v 1.012864 0.050000 0.652930
v 1.034442 0.050000 0.644362
v 1.034824 0.050000 0.664701
v 1.035465 0.050000 0.665088
v 1.027691 0.050000 0.670040
v 1.019323 0.050000 0.668374
v 1.040518 0.050000 0.665537
v 1.041065 0.050000 0.664821
v 1.032751 0.050000 0.661575
v 1.013790 0.050000 0.648006
v 1.015706 0.050000 0.649646
v 1.026525 0.050000 0.665456
v 1.027067 0.050000 0.664998
v 1.013069 0.050000 0.651878
v 1.025352 0.050000 0.671778
v 1.027135 0.050000 0.671584
v 1.026434 0.050000 0.637814
v 1.025400 0.050000 0.638121
v 1.036559 0.050000 0.665013
v 1.034899 0.050000 0.638199
v 1.015205 0.050000 0.663937
v 1.015583 0.050000 0.650797
v 1.023681 0.050000 0.672730
v 1.024367 0.050000 0.672170
v 1.030388 0.050000 0.664722
v 1.040980 0.050000 0.645332
v 1.025173 0.050000 0.645444
v 1.018142 0.050000 0.666885
v 1.026353 0.050000 0.666455
v 1.013345 0.050000 0.660692
v 1.023242 0.050000 0.673334
v 1.038994 0.050000 0.648715
v 1.040240 0.050000 0.644227
v 1.035110 0.050000 0.644412
v 1.041729 0.050000 0.656094
v 1.041503 0.050000 0.654730
v 1.013726 0.050000 0.662062
v 1.031128 0.050000 0.664221
v 1.013960 0.050000 0.651322
v 1.040592 0.050000 0.647634
v 1.041014 0.050000 0.646770
v 1.010471 0.050000 0.656277
v 1.027667 0.050000 0.671058
v 1.021297 0.050000 0.671587
v 1.031769 0.050000 0.662215
v 1.017169 0.050000 0.645814
v 1.014829 0.050000 0.646119
v 1.039821 0.050000 0.665811
v 1.028153 0.050000 0.664734
v 1.010865 0.050000 0.657495
v 1.011866 0.050000 0.655104
v 1.039080 0.050000 0.643619
v 1.033458 0.050000 0.662086
v 1.038655 0.050000 0.665764
v 1.032163 0.050000 0.661683
v 1.016075 0.050000 0.650387
v 1.037401 0.050000 0.643775
v 1.012584 0.050000 0.653921
v 1.039912 0.050000 0.648311
v 1.013750 0.050000 0.647465
vn 0.0000 -1.0000 0.0000
vn 0.0000 1.0000 0.0000
vn -0.2850 0.0000 -0.9585
vn -0.8548 0.0000 -0.5189
vn 0.7037 0.0000 0.7105
vn 0.9997 0.0000 -0.0235
vn -0.5297 0.0000 -0.8482
vn 0.8911 0.0000 -0.4538
vn 0.0454 0.0000 -0.9990
vn -0.9998 0.0000 0.0192
vn 0.8626 0.0000 -0.5058
vn -0.1295 0.0000 -0.9916
vn -0.9621 0.0000 -0.2726
vn -0.0461 0.0000 -0.9989
vn -0.8521 0.0000 0.5234
vn 0.6322 0.0000 0.7748
vn -0.5854 0.0000 0.8107
vn -0.9967 0.0000 -0.0811
vn 0.9579 0.0000 0.2870
vn 0.3655 0.0000 0.9308
vn 0.0683 0.0000 0.9977
vn 0.7055 0.0000 0.7087
vn -0.7800 0.0000 -0.6258
vn -0.0925 0.0000 -0.9957
vn 0.0053 0.0000 1.0000
vn -0.3370 0.0000 0.9415
vn 0.4026 0.0000 0.9154
vn 0.8309 0.0000 -0.5565
vn -0.7901 0.0000 0.6129
vn -0.7084 0.0000 0.7058
vn -0.9515 0.0000 0.3077
vn 0.0749 0.0000 -0.9972
vn 0.9526 0.0000 0.3042
vn 0.6023 0.0000 -0.7983
vn 0.9854 0.0000 0.1703
vn -0.7836 0.0000 0.6212
vn 0.9997 0.0000 0.0237
vn 0.2040 0.0000 0.9790
vn -0.6680 0.0000 0.7441
vn -0.2040 0.0000 -0.9790
vn 0.8089 0.0000 0.5879
vn -0.6402 0.0000 -0.7682
vn 0.9902 0.0000 0.1393
vn 0.7242 0.0000 0.6896
vn 0.9976 0.0000 0.0694
vn 0.2364 0.0000 0.9717
vn -0.8949 0.0000 0.4463
vn 0.9369 0.0000 -0.3497
vn 0.9610 0.0000 -0.2765
vn -0.6439 0.0000 -0.7651
vn 1.0000 0.0000 0.0074
vn 0.4641 0.0000 -0.8858
vn 0.9866 0.0000 -0.1630
vn -0.5173 0.0000 0.8558
vn -0.3078 0.0000 -0.9514
vn -0.8864 0.0000 0.4629
vn 0.7942 0.0000 0.6077
vn -0.9973 0.0000 0.0738
vn -0.0403 0.0000 0.9992
vn 0.9940 0.0000 0.1095
vn 0.8037 0.0000 0.5950
vn -0.6502 0.0000 0.7598
vn -0.2678 0.0000 -0.9635
vn -0.9635 0.0000 0.2678
vn 0.6454 0.0000 0.7638
vn 0.8988 0.0000 0.4383
vn -0.9817 0.0000 -0.1906
vn 0.1801 0.0000 0.9836
vn 0.5603 0.0000 0.8283
vn 0.1080 0.0000 0.9941
vn -0.7851 0.0000 0.6194
vn 0.3693 0.0000 0.9293
usemtl SVGMat.3781
s off
f 44//1 41//1 40//1
f 44//1 40//1 39//1
f 45//1 44//1 39//1
f 46//1 45//1 39//1
f 36//1 35//1 34//1
f 46//1 39//1 38//1
f 37//1 36//1 34//1
f 46//1 38//1 37//1
f 46//1 37//1 34//1
f 46//1 34//1 33//1
f 47//1 46//1 33//1
f 48//1 47//1 33//1
f 48//1 33//1 32//1
f 49//1 48//1 32//1
f 49//1 32//1 31//1
f 50//1 49//1 31//1
f 50//1 31//1 30//1
f 50//1 30//1 29//1
f 51//1 50//1 29//1
f 51//1 29//1 28//1
f 51//1 28//1 27//1
f 52//1 51//1 27//1
f 53//1 52//1 27//1
f 54//1 53//1 27//1
f 54//1 27//1 26//1
f 55//1 54//1 26//1
f 56//1 55//1 26//1
f 56//1 26//1 25//1
f 57//1 56//1 25//1
f 57//1 25//1 24//1
f 58//1 57//1 24//1
f 58//1 24//1 23//1
f 59//1 58//1 23//1
f 60//1 59//1 23//1
f 61//1 60//1 23//1
f 61//1 23//1 22//1
f 62//1 61//1 22//1
f 62//1 22//1 12//1
f 12//1 22//1 21//1
f 62//1 12//1 11//1
f 13//1 12//1 21//1
f 62//1 11//1 10//1
f 62//1 10//1 9//1
f 14//1 13//1 21//1
f 63//1 62//1 9//1
f 14//1 21//1 20//1
f 63//1 9//1 8//1
f 63//1 8//1 7//1
f 63//1 7//1 6//1
f 15//1 14//1 16//1
f 16//1 14//1 20//1
f 64//1 63//1 6//1
f 16//1 20//1 19//1
f 64//1 6//1 5//1
f 17//1 16//1 19//1
f 64//1 5//1 4//1
f 17//1 19//1 18//1
f 65//1 64//1 4//1
f 65//1 4//1 3//1
f 66//1 65//1 3//1
f 66//1 3//1 2//1
f 66//1 2//1 1//1
f 66//1 1//1 70//1
f 66//1 70//1 69//1
f 66//1 69//1 68//1
f 67//1 66//1 68//1
f 98//2 100//2 97//2
f 98//2 73//2 100//2
f 74//2 73//2 98//2
f 107//2 73//2 74//2
f 137//2 113//2 132//2
f 107//2 82//2 73//2
f 114//2 113//2 137//2
f 107//2 114//2 82//2
f 107//2 113//2 114//2
f 107//2 106//2 113//2
f 126//2 106//2 107//2
f 127//2 106//2 126//2
f 127//2 121//2 106//2
f 140//2 121//2 127//2
f 140//2 120//2 121//2
f 90//2 120//2 140//2
f 90//2 139//2 120//2
f 90//2 112//2 139//2
f 91//2 112//2 90//2
f 91//2 78//2 112//2
f 91//2 77//2 78//2
f 136//2 77//2 91//2
f 102//2 77//2 136//2
f 119//2 77//2 102//2
f 119//2 72//2 77//2
f 94//2 72//2 119//2
f 81//2 72//2 94//2
f 81//2 71//2 72//2
f 138//2 71//2 81//2
f 138//2 116//2 71//2
f 131//2 116//2 138//2
f 131//2 115//2 116//2
f 122//2 115//2 131//2
f 130//2 115//2 122//2
f 110//2 115//2 130//2
f 110//2 80//2 115//2
f 117//2 80//2 110//2
f 117//2 89//2 80//2
f 89//2 79//2 80//2
f 117//2 135//2 89//2
f 133//2 79//2 89//2
f 117//2 125//2 135//2
f 117//2 118//2 125//2
f 83//2 79//2 133//2
f 101//2 118//2 117//2
f 83//2 88//2 79//2
f 101//2 105//2 118//2
f 101//2 129//2 105//2
f 101//2 93//2 129//2
f 84//2 99//2 83//2
f 99//2 88//2 83//2
f 108//2 93//2 101//2
f 99//2 87//2 88//2
f 108//2 92//2 93//2
f 134//2 87//2 99//2
f 108//2 109//2 92//2
f 134//2 128//2 87//2
f 86//2 109//2 108//2
f 86//2 85//2 109//2
f 124//2 85//2 86//2
f 124//2 123//2 85//2
f 124//2 96//2 123//2
f 124//2 95//2 96//2
f 124//2 104//2 95//2
f 124//2 103//2 104//2
f 111//2 103//2 124//2
f 41//3 44//3 98//3 97//3
f 57//4 58//4 131//4 138//4
f 1//5 2//5 123//5 96//5
f 32//6 33//6 106//6 121//6
f 54//7 55//7 94//7 119//7
f 24//8 25//8 71//8 116//8
f 40//9 41//9 97//9 100//9
f 44//10 45//10 74//10 98//10
f 26//11 27//11 77//11 72//11
f 47//12 48//12 127//12 126//12
f 56//13 57//13 138//13 81//13
f 46//14 47//14 126//14 107//14
f 65//15 66//15 124//15 86//15
f 68//16 69//16 104//16 103//16
f 12//17 13//17 133//17 89//17
f 45//18 46//18 107//18 74//18
f 20//19 21//19 79//19 88//19
f 18//20 19//20 87//20 128//20
f 15//21 16//21 99//21 84//21
f 30//22 31//22 120//22 139//22
f 48//23 49//23 140//23 127//23
f 35//24 36//24 137//24 132//24
f 7//25 8//25 105//25 129//25
f 16//26 17//26 134//26 99//26
f 29//27 30//27 139//27 112//27
f 33//28 34//28 113//28 106//28
f 60//29 61//29 110//29 130//29
f 63//30 64//30 108//30 101//30
f 59//31 60//31 130//31 122//31
f 37//32 38//32 82//32 114//32
f 9//33 10//33 125//33 118//33
f 25//34 26//34 72//34 71//34
f 4//35 5//35 92//35 109//35
f 64//36 65//36 86//36 108//36
f 2//37 3//37 85//37 123//37
f 42//38 43//38 76//38 75//38
f 66//39 67//39 111//39 124//39
f 42//40 41//40 97//40 75//40
f 67//41 68//41 103//41 111//41
f 52//42 53//42 102//42 136//42
f 27//43 28//43 78//43 77//43
f 28//44 29//44 112//44 78//44
f 21//45 22//45 80//45 79//45
f 6//46 7//46 129//46 93//46
f 51//47 52//47 136//47 91//47
f 3//48 4//48 109//48 85//48
f 38//49 39//49 73//49 82//49
f 58//50 59//50 122//50 131//50
f 22//51 23//51 115//51 80//51
f 34//52 35//52 132//52 113//52
f 23//53 24//53 116//53 115//53
f 14//54 15//54 84//54 83//54
f 53//55 54//55 119//55 102//55
f 13//56 14//56 83//56 133//56
f 19//57 20//57 88//57 87//57
f 49//58 50//58 90//58 140//58
f 17//59 18//59 128//59 134//59
f 39//60 40//60 100//60 73//60
f 10//61 11//61 135//61 125//61
f 50//62 51//62 91//62 90//62
f 36//63 37//63 114//63 137//63
f 61//64 62//64 117//64 110//64
f 5//65 6//65 93//65 92//65
f 31//66 32//66 121//66 120//66
f 55//67 56//67 81//67 94//67
f 11//68 12//68 89//68 135//68
f 8//69 9//69 118//69 105//69
f 70//70 1//70 96//70 95//70
f 62//71 63//71 101//71 117//71
f 69//72 70//72 95//72 104//72
