# Blender v2.79 (sub 0) OBJ File: 'world_countrycodes_outlines2.blend'
# www.blender.org
mtllib GA_outline.mtl
o GA.001_CUCurve.1676
v 1.025268 -0.000815 0.673855
v 1.023036 0.001382 0.671144
v 1.023789 0.000000 0.676629
v 1.018847 0.000823 0.671414
v 1.020503 -0.000612 0.666606
v 1.012127 0.000791 0.663144
v 1.014518 0.001927 0.661716
v 1.015508 -0.000817 0.661069
v 1.013283 -0.001917 0.662948
v 1.011515 0.001975 0.656833
v 1.009520 -0.002000 0.656565
v 1.008174 0.000793 0.656197
v 1.012756 -0.000809 0.656929
v 1.010512 0.000735 0.653731
v 1.011995 0.001428 0.650772
v 1.014861 -0.000610 0.653104
v 1.013923 0.001968 0.652014
v 1.012018 -0.001832 0.652925
v 1.011508 -0.000788 0.650476
v 1.017761 0.000854 0.651686
v 1.017348 -0.001916 0.650573
v 1.016838 0.001935 0.649676
v 1.014583 0.001496 0.650056
v 1.013869 -0.000802 0.649938
v 1.017776 0.000027 0.648939
v 1.012592 0.001956 0.647468
v 1.013505 -0.001995 0.646788
v 1.011546 -0.000871 0.647982
v 1.015278 0.001402 0.647496
v 1.015844 -0.000782 0.647856
v 1.013814 -0.000747 0.644209
v 1.014135 0.001411 0.644700
v 1.023737 -0.001357 0.643753
v 1.024439 0.001987 0.644840
v 1.027187 -0.000438 0.647519
v 1.027547 -0.000015 0.639737
v 1.026402 0.001963 0.638444
v 1.026270 -0.001990 0.638477
v 1.023661 0.000877 0.636313
v 1.024058 -0.001489 0.636890
v 1.032415 0.000118 0.640398
v 1.036472 -0.001645 0.636772
v 1.035977 0.001856 0.637272
v 1.034936 0.001985 0.643598
v 1.036015 -0.000815 0.642743
v 1.033324 -0.001903 0.644662
v 1.032841 0.001108 0.645837
v 1.034449 -0.000815 0.646415
v 1.039086 0.000783 0.641522
v 1.039187 0.000738 0.645831
v 1.039605 -0.001108 0.645808
v 1.039189 -0.001932 0.642695
v 1.041783 0.000042 0.642643
v 1.042340 -0.001438 0.644364
v 1.042196 0.001879 0.644976
v 1.041369 -0.001928 0.648145
v 1.043040 -0.000014 0.648025
v 1.039459 0.001771 0.649952
v 1.040162 -0.000772 0.650395
v 1.037201 0.001906 0.649286
v 1.036234 0.000031 0.648775
v 1.037102 -0.001939 0.650117
v 1.036965 0.000667 0.652819
v 1.039620 -0.000968 0.655031
v 1.043247 0.000809 0.653388
v 1.040815 0.001960 0.654788
v 1.042338 -0.001901 0.653783
v 1.039896 -0.001387 0.664446
v 1.043282 0.000704 0.665145
v 1.041682 -0.001944 0.665870
v 1.039420 0.000882 0.663935
v 1.040491 0.001916 0.666799
v 1.040010 -0.000675 0.667919
v 1.034152 -0.000773 0.666749
v 1.034334 0.001402 0.666234
v 1.036190 -0.000047 0.663034
v 1.035630 -0.001953 0.664155
v 1.035475 0.001972 0.664065
v 1.032671 -0.000912 0.663666
v 1.032743 0.001493 0.663015
v 1.031699 0.001994 0.660849
v 1.034034 0.000748 0.659748
v 1.032348 -0.001966 0.660268
v 1.030580 0.000022 0.660201
v 1.030472 0.001995 0.663799
v 1.031619 -0.001888 0.665187
v 1.031999 0.000742 0.666292
v 1.029688 -0.000901 0.662808
v 1.028348 -0.000016 0.666624
v 1.027051 0.001965 0.665705
v 1.026923 -0.001974 0.665780
v 1.025026 0.000994 0.663844
v 1.024347 -0.000919 0.665155
v 1.029888 -0.000603 0.670989
v 1.028683 0.001952 0.671115
v 1.026343 0.001445 0.670238
v 1.025911 -0.000919 0.670018
v 1.027958 -0.001957 0.672095
v 1.027979 0.000757 0.673397
v 1.023602 0.001983 0.673425
v 1.022914 -0.000799 0.670491
v 1.021877 -0.001967 0.673343
vn 0.0180 0.9321 0.3618
vn 0.1723 0.0227 0.9847
vn 0.3727 -0.3952 0.8396
vn -0.7082 0.3668 0.6032
vn -0.3030 -0.8861 0.3506
vn 0.7277 -0.2952 -0.6192
vn 0.3270 -0.6182 -0.7147
vn -0.3530 -0.9002 0.2550
vn -0.7635 0.3785 0.5232
vn 0.2771 0.7650 -0.5813
vn 0.2803 0.9366 -0.2101
vn 0.7393 -0.4029 -0.5395
vn -0.5445 -0.8379 -0.0380
vn 0.1534 0.9881 0.0079
vn -0.9419 0.3081 -0.1337
vn 0.8506 -0.5182 -0.0888
vn -0.8525 0.3386 -0.3983
vn -0.2817 -0.9575 -0.0607
vn -0.5119 0.6320 -0.5818
vn 0.5885 -0.2788 0.7588
vn 0.1647 0.9633 0.2121
vn -0.6456 -0.3764 -0.6644
vn -0.6230 -0.7404 -0.2524
vn 0.7796 0.3248 0.5355
vn 0.5972 -0.7929 0.1205
vn 0.4769 0.8675 -0.1414
vn -0.4804 0.7698 -0.4203
vn 0.8712 -0.0214 -0.4905
vn -0.2843 -0.9531 -0.1033
vn -0.6577 0.7526 0.0323
vn -0.9335 -0.2916 0.2084
vn 0.3327 0.9127 0.2371
vn 0.6138 -0.7795 0.1247
vn -0.4617 -0.3184 -0.8279
vn 0.0237 0.9977 0.0637
vn 0.6888 -0.1357 0.7121
vn -0.3784 -0.8934 -0.2422
vn -0.3705 0.6291 -0.6833
vn 0.6108 -0.0015 0.7918
vn 0.0362 0.9991 -0.0197
vn -0.7548 0.0617 0.6530
vn -0.5517 -0.6413 -0.5332
vn 0.6197 -0.5601 -0.5497
vn 0.0627 -0.9966 0.0531
vn -0.6424 0.3669 -0.6728
vn 0.5319 0.7195 -0.4465
vn 0.3410 -0.6426 -0.6861
vn -0.0940 0.9919 -0.0857
vn -0.5453 -0.8051 0.2334
vn -0.6789 0.4580 0.5739
vn -0.1905 -0.3529 0.9160
vn 0.0725 0.3350 -0.9394
vn 0.6026 0.7836 -0.1512
vn 0.0622 -0.8467 -0.5283
vn -0.4776 -0.8573 0.1920
vn 0.6823 0.0357 -0.7301
vn 0.7554 -0.5904 -0.2841
vn 0.3727 -0.8955 0.2430
vn 0.9267 0.0595 0.3711
vn -0.3788 0.7955 0.4729
vn 0.2794 0.9537 0.1114
vn 0.7878 -0.6158 0.0058
vn -0.4906 0.8565 -0.1605
vn -0.9472 -0.0300 -0.3192
vn -0.8312 0.2372 0.5029
vn -0.5546 -0.8317 0.0271
vn 0.8773 0.3539 -0.3240
vn 0.5289 -0.8292 -0.1805
vn -0.2113 -0.8603 -0.4640
vn -0.7555 -0.5580 0.3432
vn -0.1444 0.9841 0.1028
vn 0.9083 0.2793 0.3112
vn 0.4616 -0.8142 0.3520
vn -0.5159 0.6550 -0.5521
vn 0.2178 0.8057 0.5507
vn 0.1456 -0.2638 0.9535
vn -0.5288 -0.3723 0.7627
vn 0.5418 -0.0632 -0.8381
vn 0.0674 -0.9854 -0.1563
vn -0.4700 0.6218 0.6264
vn 0.1770 -0.7917 0.5846
vn 0.1187 0.9720 -0.2028
vn -0.0468 0.9258 0.3750
vn 0.4630 0.2421 -0.8526
vn -0.0192 -0.7906 -0.6120
vn -0.6811 0.0233 -0.7317
vn 0.3747 -0.8195 0.4336
vn 0.5719 0.2879 0.7682
vn -0.0941 0.9886 -0.1172
vn -0.2537 0.8532 -0.4557
vn -0.5725 -0.5479 -0.6099
vn -0.0513 -0.9955 -0.0791
vn -0.1276 0.9868 0.0994
vn -0.8824 -0.4086 -0.2333
vn 0.8499 -0.0521 0.5244
vn 0.9661 -0.2229 0.1301
vn -0.6707 0.4108 -0.6175
vn 0.5456 0.8321 0.0996
vn -0.3902 0.8742 -0.2889
vn -0.6282 -0.7101 -0.3178
vn 0.4989 0.2635 0.8256
vn 0.3399 -0.8639 0.3715
usemtl SVGMat.3781
s 1
f 100//1 3//2 1//3
f 100//1 4//4 3//2
f 102//5 5//6 101//7
f 4//4 9//8 102//5
f 100//1 6//9 4//4
f 2//10 7//11 100//1
f 102//5 8//12 5//6
f 8//12 7//11 2//10
f 6//9 11//13 9//8
f 10//14 12//15 6//9
f 8//12 10//14 7//11
f 11//13 13//16 8//12
f 10//14 14//17 12//15
f 14//17 18//18 11//13
f 10//14 15//19 14//17
f 16//20 17//21 10//14
f 11//13 16//20 13//16
f 14//17 19//22 18//18
f 15//19 19//22 14//17
f 15//19 24//23 19//22
f 16//20 20//24 17//21
f 18//18 21//25 16//20
f 20//24 22//26 17//21
f 21//25 20//24 16//20
f 19//22 21//25 18//18
f 22//26 23//27 15//19
f 21//25 25//28 20//24
f 24//23 27//29 21//25
f 26//30 28//31 24//23
f 25//28 29//32 22//26
f 21//25 30//33 25//28
f 27//29 30//33 21//25
f 26//30 31//34 28//31
f 29//32 34//35 26//30
f 27//29 35//36 30//33
f 31//34 33//37 27//29
f 32//38 33//37 31//34
f 30//33 35//36 29//32
f 36//39 37//40 35//36
f 36//39 41//41 37//40
f 40//42 42//43 38//44
f 39//45 42//43 40//42
f 37//40 43//46 39//45
f 41//41 43//46 37//40
f 43//46 42//43 39//45
f 43//46 45//47 42//43
f 41//41 44//48 43//46
f 42//43 46//49 41//41
f 46//49 47//50 41//41
f 45//47 46//49 42//43
f 46//49 48//51 47//50
f 44//48 49//52 45//47
f 47//50 55//53 44//48
f 49//52 52//54 45//47
f 55//53 49//52 44//48
f 46//49 51//55 48//51
f 53//56 54//57 52//54
f 54//57 56//58 52//54
f 55//53 57//59 53//56
f 50//60 58//61 55//53
f 57//59 56//58 54//57
f 57//59 59//62 56//58
f 58//61 59//62 57//59
f 50//60 60//63 58//61
f 51//55 61//64 50//60
f 61//64 63//65 60//63
f 62//66 63//65 61//64
f 60//63 65//67 58//61
f 59//62 67//68 62//66
f 67//68 68//69 64//70
f 66//71 69//72 65//67
f 69//72 70//73 67//68
f 64//70 71//74 66//71
f 68//69 71//74 64//70
f 72//75 73//76 69//72
f 72//75 74//77 73//76
f 68//69 76//78 71//74
f 70//73 77//79 68//69
f 74//77 77//79 70//73
f 75//80 79//81 74//77
f 78//82 80//83 75//80
f 76//78 82//84 78//82
f 77//79 82//84 76//78
f 74//77 83//85 77//79
f 83//85 84//86 82//84
f 79//81 86//87 83//85
f 80//83 87//88 79//81
f 85//89 87//88 80//83
f 84//86 85//89 81//90
f 83//85 88//91 84//86
f 86//87 88//91 83//85
f 87//88 91//92 86//87
f 85//89 90//93 87//88
f 91//92 93//94 88//91
f 89//95 94//96 91//92
f 90//93 94//96 89//95
f 92//97 95//98 90//93
f 93//94 96//99 92//97
f 91//92 97//100 93//94
f 95//98 99//101 94//96
f 99//101 1//3 98//102
f 95//98 100//1 99//101
f 96//99 100//1 95//98
f 98//102 101//7 97//100
f 101//7 2//10 96//99
f 1//3 3//2 102//5
f 3//2 4//4 102//5
f 101//7 5//6 2//10
f 4//4 6//9 9//8
f 100//1 7//11 6//9
f 5//6 8//12 2//10
f 102//5 9//8 8//12
f 7//11 10//14 6//9
f 9//8 11//13 8//12
f 6//9 12//15 11//13
f 8//12 13//16 10//14
f 12//15 14//17 11//13
f 13//16 16//20 10//14
f 10//14 17//21 15//19
f 11//13 18//18 16//20
f 17//21 22//26 15//19
f 15//19 23//27 24//23
f 19//22 24//23 21//25
f 20//24 25//28 22//26
f 22//26 26//30 23//27
f 23//27 26//30 24//23
f 24//23 28//31 27//29
f 22//26 29//32 26//30
f 25//28 30//33 29//32
f 26//30 32//38 31//34
f 28//31 31//34 27//29
f 26//30 34//35 32//38
f 27//29 33//37 35//36
f 32//38 34//35 33//37
f 29//32 35//36 34//35
f 35//36 37//40 34//35
f 34//35 39//45 33//37
f 34//35 37//40 39//45
f 33//37 38//44 35//36
f 35//36 38//44 36//39
f 33//37 39//45 40//42
f 33//37 40//42 38//44
f 38//44 41//41 36//39
f 38//44 42//43 41//41
f 43//46 44//48 45//47
f 41//41 47//50 44//48
f 48//51 50//60 47//50
f 47//50 50//60 55//53
f 48//51 51//55 50//60
f 45//47 52//54 46//49
f 46//49 52//54 51//55
f 49//52 53//56 52//54
f 49//52 55//53 53//56
f 52//54 56//58 51//55
f 53//56 57//59 54//57
f 55//53 58//61 57//59
f 56//58 62//66 51//55
f 56//58 59//62 62//66
f 50//60 61//64 60//63
f 51//55 62//66 61//64
f 62//66 64//70 63//65
f 58//61 65//67 59//62
f 63//65 66//71 60//63
f 63//65 64//70 66//71
f 59//62 65//67 67//68
f 60//63 66//71 65//67
f 62//66 67//68 64//70
f 65//67 69//72 67//68
f 66//71 72//75 69//72
f 67//68 70//73 68//69
f 66//71 71//74 72//75
f 69//72 73//76 70//73
f 72//75 75//80 74//77
f 71//74 78//82 72//75
f 71//74 76//78 78//82
f 68//69 77//79 76//78
f 73//76 74//77 70//73
f 72//75 78//82 75//80
f 75//80 80//83 79//81
f 78//82 81//90 80//83
f 78//82 82//84 81//90
f 77//79 83//85 82//84
f 74//77 79//81 83//85
f 82//84 84//86 81//90
f 81//90 85//89 80//83
f 79//81 87//88 86//87
f 84//86 88//91 85//89
f 87//88 89//95 91//92
f 87//88 90//93 89//95
f 86//87 91//92 88//91
f 88//91 92//97 85//89
f 85//89 92//97 90//93
f 88//91 93//94 92//97
f 90//93 95//98 94//96
f 92//97 96//99 95//98
f 93//94 97//100 96//99
f 91//92 98//102 97//100
f 91//92 94//96 98//102
f 94//96 99//101 98//102
f 99//101 100//1 1//3
f 97//100 101//7 96//99
f 98//102 102//5 101//7
f 98//102 1//3 102//5
f 96//99 2//10 100//1
