# Blender v2.79 (sub 0) OBJ File: 'world_countrycodes_export2.blend'
# www.blender.org
mtllib GE.mtl
o GE.002_CUCurve.1833
v 1.199189 0.000000 0.398158
v 1.200285 0.000000 0.398073
v 1.201342 0.000000 0.399021
v 1.203281 0.000000 0.401821
v 1.207418 0.000000 0.400871
v 1.208967 0.000000 0.400609
v 1.211656 0.000000 0.400672
v 1.213940 0.000000 0.401125
v 1.213547 0.000000 0.400198
v 1.213887 0.000000 0.399642
v 1.214721 0.000000 0.399554
v 1.216427 0.000000 0.400260
v 1.217871 0.000000 0.401346
v 1.219068 0.000000 0.401798
v 1.220317 0.000000 0.401894
v 1.221808 0.000000 0.401475
v 1.222063 0.000000 0.401099
v 1.221880 0.000000 0.400526
v 1.220176 0.000000 0.399143
v 1.219845 0.000000 0.398439
v 1.220137 0.000000 0.397819
v 1.221164 0.000000 0.396858
v 1.218247 0.000000 0.395066
v 1.217401 0.000000 0.394980
v 1.216548 0.000000 0.392063
v 1.216090 0.000000 0.391545
v 1.215287 0.000000 0.391383
v 1.214274 0.000000 0.390739
v 1.210716 0.000000 0.390858
v 1.207617 0.000000 0.391663
v 1.206878 0.000000 0.391300
v 1.205270 0.000000 0.389932
v 1.204063 0.000000 0.389649
v 1.202737 0.000000 0.389064
v 1.201614 0.000000 0.388174
v 1.200819 0.000000 0.387270
v 1.199273 0.000000 0.387104
v 1.194331 0.000000 0.387287
v 1.192614 0.000000 0.386942
v 1.190960 0.000000 0.385965
v 1.188153 0.000000 0.384941
v 1.185443 0.000000 0.384700
v 1.183262 0.000000 0.385709
v 1.185494 0.000000 0.386663
v 1.189611 0.000000 0.387876
v 1.191232 0.000000 0.388922
v 1.191873 0.000000 0.389901
v 1.192531 0.000000 0.392201
v 1.193235 0.000000 0.393228
v 1.194266 0.000000 0.394292
v 1.194462 0.000000 0.395337
v 1.194251 0.000000 0.396571
v 1.193774 0.000000 0.397546
v 1.192959 0.000000 0.398399
v 1.194704 0.000000 0.398569
v 1.196969 0.000000 0.398527
v 1.200285 0.050000 0.398073
v 1.219845 0.050000 0.398439
v 1.204063 0.050000 0.389649
v 1.202737 0.050000 0.389064
v 1.188153 0.050000 0.384941
v 1.185443 0.050000 0.384700
v 1.220137 0.050000 0.397819
v 1.193774 0.050000 0.397546
v 1.219068 0.050000 0.401798
v 1.221808 0.050000 0.401475
v 1.222063 0.050000 0.401099
v 1.221880 0.050000 0.400526
v 1.207617 0.050000 0.391663
v 1.192531 0.050000 0.392201
v 1.205270 0.050000 0.389932
v 1.211656 0.050000 0.400672
v 1.213940 0.050000 0.401125
v 1.208967 0.050000 0.400609
v 1.191873 0.050000 0.389901
v 1.213887 0.050000 0.399642
v 1.214721 0.050000 0.399554
v 1.194704 0.050000 0.398569
v 1.196969 0.050000 0.398527
v 1.201614 0.050000 0.388174
v 1.200819 0.050000 0.387270
v 1.192959 0.050000 0.398399
v 1.194462 0.050000 0.395337
v 1.194251 0.050000 0.396571
v 1.193235 0.050000 0.393228
v 1.220317 0.050000 0.401894
v 1.216427 0.050000 0.400260
v 1.217401 0.050000 0.394980
v 1.194331 0.050000 0.387287
v 1.185494 0.050000 0.386663
v 1.201342 0.050000 0.399021
v 1.207418 0.050000 0.400871
v 1.216548 0.050000 0.392063
v 1.216090 0.050000 0.391545
v 1.215287 0.050000 0.391383
v 1.214274 0.050000 0.390739
v 1.218247 0.050000 0.395066
v 1.189611 0.050000 0.387876
v 1.191232 0.050000 0.388922
v 1.217871 0.050000 0.401346
v 1.220176 0.050000 0.399143
v 1.192614 0.050000 0.386942
v 1.206878 0.050000 0.391300
v 1.221164 0.050000 0.396858
v 1.213547 0.050000 0.400198
v 1.194266 0.050000 0.394292
v 1.190960 0.050000 0.385965
v 1.199189 0.050000 0.398158
v 1.210716 0.050000 0.390858
v 1.199273 0.050000 0.387104
v 1.203281 0.050000 0.401821
v 1.183262 0.050000 0.385709
vn 0.0000 -1.0000 0.0000
vn 0.0000 1.0000 -0.0000
vn 0.0000 1.0000 -0.0002
vn -0.0972 0.0000 0.9953
vn -0.3929 0.0000 0.9196
vn 0.5236 0.0000 -0.8520
vn -0.9857 0.0000 -0.1685
vn 0.1970 0.0000 -0.9804
vn 0.8531 0.0000 0.5217
vn -0.8244 0.0000 0.5660
vn -0.9829 0.0000 0.1840
vn -0.0771 0.0000 0.9970
vn 0.1065 0.0000 -0.9943
vn 0.6481 0.0000 -0.7616
vn -0.2826 0.0000 0.9592
vn 0.3428 0.0000 -0.9394
vn 0.6831 0.0000 0.7304
vn -0.8222 0.0000 0.5692
vn 0.2709 0.0000 0.9626
vn -0.0332 0.0000 -0.9994
vn -0.9615 0.0000 0.2748
vn 0.1638 0.0000 0.9865
vn -0.4199 0.0000 -0.9076
vn 0.0773 0.0000 0.9970
vn -0.2515 0.0000 -0.9679
vn -0.8368 0.0000 0.5475
vn 0.5087 0.0000 -0.8610
vn 0.4405 0.0000 -0.8977
vn 0.7494 0.0000 -0.6622
vn 0.4035 0.0000 -0.9150
vn -0.3827 0.0000 0.9239
vn 0.5364 0.0000 -0.8440
vn 0.0885 0.0000 -0.9961
vn -0.6674 0.0000 0.7447
vn 0.6210 0.0000 -0.7838
vn 0.8274 0.0000 0.5616
vn 0.2283 0.0000 -0.9736
vn -0.5420 0.0000 0.8404
vn 0.2240 0.0000 0.9746
vn 0.1666 0.0000 0.9860
vn 0.9529 0.0000 -0.3034
vn 0.9049 0.0000 0.4257
vn 0.9210 0.0000 -0.3896
vn -0.8982 0.0000 -0.4396
vn -0.3535 0.0000 0.9354
vn 0.1009 0.0000 -0.9949
vn -0.6006 0.0000 0.7996
vn -0.1943 0.0000 0.9809
vn -0.0237 0.0000 0.9997
vn 0.9047 0.0000 -0.4260
vn 0.1051 0.0000 0.9945
vn -0.7234 0.0000 -0.6905
vn 0.1974 0.0000 -0.9803
vn 0.0185 0.0000 0.9998
vn -0.0370 0.0000 -0.9993
vn -0.7184 0.0000 0.6957
vn 0.9598 0.0000 -0.2807
vn 0.7512 0.0000 -0.6601
vn 0.6301 0.0000 -0.7765
usemtl SVGMat.3781
s off
f 43//1 42//1 41//1
f 43//1 41//1 40//1
f 44//1 43//1 40//1
f 44//1 40//1 39//1
f 44//1 39//1 38//1
f 45//1 44//1 38//1
f 38//1 37//1 36//1
f 45//1 38//1 36//1
f 45//1 36//1 35//1
f 46//1 45//1 35//1
f 46//1 35//1 34//1
f 47//1 46//1 34//1
f 47//1 34//1 33//1
f 47//1 33//1 32//1
f 48//1 47//1 32//1
f 48//1 32//1 31//1
f 29//1 28//1 27//1
f 30//1 29//1 27//1
f 48//1 31//1 30//1
f 30//1 27//1 26//1
f 30//1 26//1 25//1
f 48//1 30//1 25//1
f 49//1 48//1 25//1
f 49//1 25//1 24//1
f 50//1 49//1 24//1
f 51//1 50//1 24//1
f 51//1 24//1 23//1
f 52//1 51//1 23//1
f 52//1 23//1 22//1
f 53//1 52//1 22//1
f 53//1 22//1 21//1
f 54//1 53//1 2//1
f 2//1 53//1 21//1
f 2//1 21//1 20//1
f 54//1 2//1 1//1
f 54//1 1//1 56//1
f 3//1 2//1 20//1
f 55//1 54//1 56//1
f 3//1 20//1 19//1
f 11//1 3//1 19//1
f 3//1 11//1 10//1
f 3//1 10//1 9//1
f 11//1 19//1 18//1
f 12//1 11//1 18//1
f 6//1 3//1 9//1
f 6//1 9//1 7//1
f 13//1 12//1 18//1
f 3//1 6//1 5//1
f 13//1 18//1 17//1
f 7//1 9//1 8//1
f 4//1 3//1 5//1
f 13//1 17//1 16//1
f 14//1 13//1 16//1
f 14//1 16//1 15//1
f 112//2 61//2 62//2
f 112//2 107//2 61//2
f 90//2 107//2 112//2
f 90//2 102//2 107//2
f 90//2 89//2 102//2
f 98//2 89//2 90//2
f 89//2 81//2 110//2
f 98//2 81//2 89//2
f 98//2 80//2 81//2
f 99//2 80//2 98//2
f 99//2 60//2 80//2
f 75//2 60//2 99//2
f 75//2 59//2 60//2
f 75//2 71//2 59//2
f 70//2 71//2 75//2
f 70//2 103//2 71//2
f 109//2 95//2 96//2
f 69//2 95//2 109//2
f 70//2 69//2 103//2
f 69//2 94//2 95//2
f 69//2 93//2 94//2
f 70//2 93//2 69//2
f 85//2 93//2 70//2
f 85//2 88//2 93//2
f 106//2 88//2 85//2
f 83//2 88//2 106//2
f 83//2 97//2 88//2
f 84//2 97//2 83//2
f 84//2 104//2 97//2
f 64//2 104//2 84//2
f 64//2 63//2 104//2
f 82//2 57//2 64//2
f 57//2 63//2 64//2
f 57//2 58//2 63//2
f 82//3 108//3 57//3
f 82//2 79//2 108//2
f 91//2 58//2 57//2
f 78//2 79//2 82//2
f 91//2 101//2 58//2
f 77//2 101//2 91//2
f 91//2 76//2 77//2
f 91//2 105//2 76//2
f 77//2 68//2 101//2
f 87//2 68//2 77//2
f 74//2 105//2 91//2
f 74//2 72//2 105//2
f 100//2 68//2 87//2
f 91//2 92//2 74//2
f 100//2 67//2 68//2
f 72//2 73//2 105//2
f 111//2 92//2 91//2
f 100//2 66//2 67//2
f 65//2 66//2 100//2
f 65//2 86//2 66//2
f 54//4 55//4 78//4 82//4
f 43//5 44//5 90//5 112//5
f 22//6 23//6 97//6 104//6
f 51//7 52//7 84//7 83//7
f 38//8 39//8 102//8 89//8
f 9//9 10//9 76//9 105//9
f 48//10 49//10 85//10 70//10
f 50//11 51//11 83//11 106//11
f 14//12 15//12 86//12 65//12
f 36//13 37//13 110//13 81//13
f 31//14 32//14 71//14 103//14
f 44//15 45//15 98//15 90//15
f 40//16 41//16 61//16 107//16
f 21//17 22//17 104//17 63//17
f 3//18 4//18 111//18 91//18
f 15//19 16//19 66//19 86//19
f 28//20 29//20 109//20 96//20
f 47//21 48//21 70//21 75//21
f 56//22 1//22 108//22 79//22
f 42//23 43//23 112//23 62//23
f 1//24 2//24 57//24 108//24
f 29//25 30//25 69//25 109//25
f 46//26 47//26 75//26 99//26
f 39//27 40//27 107//27 102//27
f 30//28 31//28 103//28 69//28
f 25//29 26//29 94//29 93//29
f 33//30 34//30 60//30 59//30
f 11//31 12//31 87//31 77//31
f 27//32 28//32 96//32 95//32
f 41//33 42//33 62//33 61//33
f 2//34 3//34 91//34 57//34
f 34//35 35//35 80//35 60//35
f 16//36 17//36 67//36 66//36
f 32//37 33//37 59//37 71//37
f 45//38 46//38 99//38 98//38
f 4//39 5//39 92//39 111//39
f 5//40 6//40 74//40 92//40
f 17//41 18//41 68//41 67//41
f 20//42 21//42 63//42 58//42
f 8//43 9//43 105//43 73//43
f 52//44 53//44 64//44 84//44
f 13//45 14//45 65//45 100//45
f 23//46 24//46 88//46 97//46
f 12//47 13//47 100//47 87//47
f 7//48 8//48 73//48 72//48
f 6//49 7//49 72//49 74//49
f 19//50 20//50 58//50 101//50
f 10//51 11//51 77//51 76//51
f 53//52 54//52 82//52 64//52
f 26//53 27//53 95//53 94//53
f 55//54 56//54 79//54 78//54
f 37//55 38//55 89//55 110//55
f 49//56 50//56 106//56 85//56
f 24//57 25//57 93//57 88//57
f 35//58 36//58 81//58 80//58
f 18//59 19//59 101//59 68//59
