# Blender v2.79 (sub 0) OBJ File: 'world_countrycodes_export2.blend'
# www.blender.org
mtllib GF.mtl
o GF.002_CUCurve.1769
v 0.649976 0.000000 0.630799
v 0.650120 0.000000 0.633340
v 0.649845 0.000000 0.635644
v 0.648172 0.000000 0.638270
v 0.649887 0.000000 0.639362
v 0.651127 0.000000 0.639604
v 0.652384 0.000000 0.639517
v 0.653530 0.000000 0.639096
v 0.655073 0.000000 0.638858
v 0.657210 0.000000 0.638861
v 0.658061 0.000000 0.638551
v 0.658704 0.000000 0.637775
v 0.660797 0.000000 0.633727
v 0.663283 0.000000 0.630295
v 0.665907 0.000000 0.627594
v 0.665917 0.000000 0.627599
v 0.665917 0.000000 0.627599
v 0.665917 0.000000 0.627599
v 0.665917 0.000000 0.627599
v 0.665917 0.000000 0.627599
v 0.665917 0.000000 0.627599
v 0.665917 0.000000 0.627599
v 0.665917 0.000000 0.627599
v 0.665917 0.000000 0.627599
v 0.665917 0.000000 0.627599
v 0.665917 0.000000 0.627599
v 0.665917 0.000000 0.627599
v 0.664734 0.000000 0.626873
v 0.661049 0.000000 0.623217
v 0.658736 0.000000 0.621201
v 0.656928 0.000000 0.620232
v 0.654213 0.000000 0.619474
v 0.651465 0.000000 0.618450
v 0.651204 0.000000 0.619408
v 0.650533 0.000000 0.620992
v 0.649732 0.000000 0.622091
v 0.649059 0.000000 0.623599
v 0.648801 0.000000 0.624929
v 0.648809 0.000000 0.626281
v 0.649249 0.000000 0.627983
v 0.649845 0.050000 0.635644
v 0.658704 0.050000 0.637775
v 0.651127 0.050000 0.639604
v 0.652384 0.050000 0.639517
v 0.648172 0.050000 0.638270
v 0.657210 0.050000 0.638861
v 0.649887 0.050000 0.639362
v 0.661049 0.050000 0.623217
v 0.649732 0.050000 0.622091
v 0.650120 0.050000 0.633340
v 0.663283 0.050000 0.630295
v 0.648801 0.050000 0.624929
v 0.648809 0.050000 0.626281
v 0.658736 0.050000 0.621201
v 0.655073 0.050000 0.638858
v 0.664734 0.050000 0.626873
v 0.653530 0.050000 0.639096
v 0.649059 0.050000 0.623599
v 0.649249 0.050000 0.627983
v 0.660797 0.050000 0.633727
v 0.656928 0.050000 0.620232
v 0.654213 0.050000 0.619474
v 0.651465 0.050000 0.618450
v 0.651204 0.050000 0.619408
v 0.650533 0.050000 0.620992
v 0.658061 0.050000 0.638551
v 0.665907 0.050000 0.627594
v 0.649976 0.050000 0.630799
vn 0.0000 -1.0000 0.0000
vn 0.0000 1.0000 0.0000
vn 0.3493 0.0000 -0.9370
vn -1.0000 0.0000 0.0059
vn -0.9206 0.0000 -0.3905
vn 0.8099 0.0000 0.5866
vn 0.6570 0.0000 -0.7539
vn -0.9134 0.0000 -0.4071
vn 0.5236 0.0000 -0.8520
vn -0.0013 0.0000 1.0000
vn -0.9682 0.0000 0.2501
vn -0.9984 0.0000 0.0564
vn 0.7043 0.0000 -0.7099
vn -0.8082 0.0000 -0.5889
vn -0.5371 0.0000 0.8435
vn 0.3420 0.0000 0.9397
vn 0.1526 0.0000 0.9883
vn -0.9817 0.0000 -0.1906
vn 0.0692 0.0000 0.9976
vn 0.7702 0.0000 0.6378
vn 0.2687 0.0000 -0.9632
vn -0.9929 0.0000 -0.1186
vn -0.9649 0.0000 -0.2626
vn 0.3450 0.0000 0.9386
vn -0.1921 0.0000 0.9814
vn 0.8883 0.0000 0.4593
vn -0.8435 0.0000 -0.5372
vn 0.7172 0.0000 0.6968
vn 0.4727 0.0000 -0.8812
usemtl SVGMat.3781
s off
f 34//1 33//1 32//1
f 34//1 32//1 31//1
f 35//1 34//1 31//1
f 35//1 31//1 30//1
f 36//1 35//1 30//1
f 36//1 30//1 29//1
f 37//1 36//1 29//1
f 38//1 37//1 29//1
f 38//1 29//1 28//1
f 39//1 38//1 28//1
f 40//1 39//1 28//1
f 40//1 28//1 15//1
f 40//1 15//1 14//1
f 1//1 40//1 14//1
f 2//1 1//1 14//1
f 2//1 14//1 13//1
f 3//1 2//1 13//1
f 3//1 13//1 12//1
f 4//1 3//1 12//1
f 4//1 12//1 11//1
f 4//1 11//1 10//1
f 9//1 4//1 10//1
f 4//1 9//1 8//1
f 5//1 4//1 8//1
f 5//1 8//1 7//1
f 6//1 5//1 7//1
f 64//2 62//2 63//2
f 64//2 61//2 62//2
f 65//2 61//2 64//2
f 65//2 54//2 61//2
f 49//2 54//2 65//2
f 49//2 48//2 54//2
f 58//2 48//2 49//2
f 52//2 48//2 58//2
f 52//2 56//2 48//2
f 53//2 56//2 52//2
f 59//2 56//2 53//2
f 59//2 67//2 56//2
f 59//2 51//2 67//2
f 68//2 51//2 59//2
f 50//2 51//2 68//2
f 50//2 60//2 51//2
f 41//2 60//2 50//2
f 41//2 42//2 60//2
f 45//2 42//2 41//2
f 45//2 66//2 42//2
f 45//2 46//2 66//2
f 55//2 46//2 45//2
f 45//2 57//2 55//2
f 47//2 57//2 45//2
f 47//2 44//2 57//2
f 43//2 44//2 47//2
f 32//3 33//3 63//3 62//3
f 38//4 39//4 53//4 52//4
f 34//5 35//5 65//5 64//5
f 13//6 14//6 51//6 60//6
f 29//7 30//7 54//7 48//7
f 36//8 37//8 58//8 49//8
f 15//9 28//9 56//9 67//9
f 9//10 10//10 46//10 55//10
f 39//11 40//11 59//11 53//11
f 1//12 2//12 50//12 68//12
f 28//13 29//13 48//13 56//13
f 40//11 1//11 68//11 59//11
f 35//14 36//14 49//14 65//14
f 4//15 5//15 47//15 45//15
f 10//16 11//16 66//16 46//16
f 8//17 9//17 55//17 57//17
f 37//18 38//18 52//18 58//18
f 6//19 7//19 44//19 43//19
f 11//20 12//20 42//20 66//20
f 31//21 32//21 62//21 61//21
f 2//22 3//22 41//22 50//22
f 33//23 34//23 64//23 63//23
f 7//24 8//24 57//24 44//24
f 5//25 6//25 43//25 47//25
f 12//26 13//26 60//26 42//26
f 3//27 4//27 45//27 41//27
f 14//28 15//28 67//28 51//28
f 30//29 31//29 61//29 54//29
