# Blender v2.79 (sub 0) OBJ File: 'world_countrycodes_outlines2.blend'
# www.blender.org
mtllib GF_outline.mtl
o GF.001_CUCurve.057
v 0.648120 0.000050 0.621052
v 0.649412 0.001938 0.624724
v 0.647772 -0.001894 0.626018
v 0.650739 -0.001449 0.616876
v 0.651648 0.002019 0.618655
v 0.652741 0.000671 0.621064
v 0.652099 -0.001987 0.619451
v 0.650514 0.000914 0.616097
v 0.659236 0.000773 0.619030
v 0.657443 -0.000826 0.622562
v 0.657966 0.001976 0.621495
v 0.658199 -0.001961 0.619852
v 0.668871 -0.000142 0.627321
v 0.662868 0.001008 0.627982
v 0.664289 -0.001962 0.627650
v 0.667578 -0.001464 0.627316
v 0.666807 0.001914 0.627399
v 0.664085 -0.000014 0.632363
v 0.656638 -0.000037 0.636637
v 0.658977 0.001436 0.639881
v 0.657734 0.001944 0.637887
v 0.659481 -0.000006 0.640277
v 0.657192 -0.001981 0.638521
v 0.658959 -0.001437 0.639911
v 0.653260 -0.000013 0.641276
v 0.651903 0.001949 0.640391
v 0.650349 -0.001331 0.638128
v 0.650177 -0.001449 0.641149
v 0.650406 0.001347 0.638207
v 0.651312 0.000050 0.637753
v 0.648590 -0.000015 0.641114
v 0.648041 0.001870 0.639615
v 0.647112 -0.001968 0.638230
v 0.645783 0.000775 0.638438
v 0.648394 -0.000002 0.633735
v 0.649513 0.001874 0.633948
v 0.649565 -0.001994 0.634139
v 0.651815 0.001445 0.634240
v 0.651861 -0.001412 0.633397
v 0.650784 -0.000058 0.624987
v 0.650103 -0.001386 0.624493
v 0.646662 0.000868 0.624901
vn -0.9127 -0.1837 -0.3649
vn -0.3019 -0.6620 -0.6859
vn -0.5423 -0.8401 -0.0050
vn 0.0406 -0.9900 0.1350
vn 0.6005 -0.7845 0.1548
vn 0.3224 0.4043 0.8559
vn 0.9942 0.0338 0.1023
vn 0.1544 0.9879 0.0106
vn -0.3529 0.3508 -0.8674
vn -0.9306 0.3509 -0.1038
vn -0.0783 0.9876 -0.1357
vn 0.4787 0.3273 -0.8147
vn -0.4821 -0.4276 0.7647
vn -0.1335 0.9662 0.2205
vn 0.2318 -0.8868 -0.3997
vn 0.5762 -0.8145 -0.0672
vn -0.7589 0.6481 0.0628
vn -0.1935 -0.9802 0.0425
vn 0.4694 0.8828 -0.0168
vn 0.8228 0.1046 0.5586
vn 0.9990 -0.0081 -0.0428
vn -0.5284 -0.0455 -0.8478
vn -0.1016 0.9807 -0.1669
vn 0.3829 -0.6973 0.6059
vn 0.3811 0.7007 0.6030
vn 0.5914 0.0023 0.8064
vn -0.0594 -0.9937 -0.0953
vn 0.0916 0.0624 0.9938
vn -0.1232 -0.6413 0.7573
vn -0.0335 0.8803 0.4732
vn 0.2397 0.9560 -0.1693
vn 0.2623 -0.7275 -0.6339
vn 0.5878 0.0300 -0.8085
vn -0.4307 0.0197 0.9023
vn -0.5904 -0.8018 0.0924
vn -0.3112 0.8624 0.3992
vn -0.9577 0.2592 0.1245
vn -0.2873 0.9567 -0.0461
vn -0.9891 -0.0178 -0.1462
vn -0.2378 -0.9705 -0.0396
vn 0.8832 0.4685 0.0217
vn 0.9024 -0.4308 -0.0052
usemtl SVGMat.3781
s 1
f 1//1 4//2 3//3
f 4//2 7//4 3//3
f 41//5 6//6 40//7
f 2//8 8//9 42//10
f 5//11 9//12 8//9
f 7//4 10//13 6//6
f 10//13 11//14 6//6
f 4//2 12//15 7//4
f 9//12 12//15 4//2
f 9//12 16//16 12//15
f 10//13 14//17 11//14
f 12//15 15//18 10//13
f 11//14 17//19 9//12
f 14//17 17//19 11//14
f 16//16 15//18 12//15
f 17//19 18//20 13//21
f 15//18 19//22 14//17
f 14//17 21//23 17//19
f 18//20 24//24 16//16
f 20//25 22//26 18//20
f 19//22 21//23 14//17
f 24//24 23//27 15//18
f 20//25 25//28 22//26
f 25//28 28//29 24//24
f 21//23 26//30 20//25
f 19//22 29//31 21//23
f 27//32 30//33 19//22
f 26//30 31//34 25//28
f 28//29 33//35 23//27
f 29//31 32//36 26//30
f 31//34 33//35 28//29
f 32//36 34//37 31//34
f 32//36 36//38 34//37
f 35//39 37//40 33//35
f 30//33 38//41 29//31
f 37//40 39//42 27//32
f 38//41 36//38 32//36
f 39//42 40//7 30//33
f 38//41 2//8 36//38
f 35//39 3//3 37//40
f 40//7 2//8 38//41
f 37//40 41//5 39//42
f 36//38 42//10 35//39
f 2//8 42//10 36//38
f 3//3 7//4 41//5
f 40//7 6//6 2//8
f 42//10 8//9 1//1
f 2//8 5//11 8//9
f 2//8 6//6 5//11
f 41//5 7//4 6//6
f 1//1 8//9 4//2
f 8//9 9//12 4//2
f 6//6 11//14 5//11
f 5//11 11//14 9//12
f 7//4 12//15 10//13
f 9//12 13//21 16//16
f 10//13 15//18 14//17
f 9//12 17//19 13//21
f 13//21 18//20 16//16
f 17//19 20//25 18//20
f 17//19 21//23 20//25
f 18//20 22//26 24//24
f 15//18 23//27 19//22
f 16//16 24//24 15//18
f 22//26 25//28 24//24
f 20//25 26//30 25//28
f 23//27 27//32 19//22
f 24//24 28//29 23//27
f 21//23 29//31 26//30
f 19//22 30//33 29//31
f 25//28 31//34 28//29
f 26//30 32//36 31//34
f 23//27 33//35 27//32
f 31//34 34//37 33//35
f 34//37 35//39 33//35
f 34//37 36//38 35//39
f 33//35 37//40 27//32
f 29//31 38//41 32//36
f 27//32 39//42 30//33
f 30//33 40//7 38//41
f 39//42 41//5 40//7
f 37//40 3//3 41//5
f 35//39 42//10 3//3
f 42//10 1//1 3//3
