# Blender v2.79 (sub 0) OBJ File: 'world_countrycodes_export2.blend'
# www.blender.org
mtllib GH.mtl
o GH.002_CUCurve.1861
v 0.962074 0.000000 0.601884
v 0.961778 0.000000 0.597085
v 0.962143 0.000000 0.593903
v 0.961999 0.000000 0.592757
v 0.961362 0.000000 0.591628
v 0.960468 0.000000 0.590887
v 0.960000 0.000000 0.589650
v 0.959536 0.000000 0.587398
v 0.959141 0.000000 0.587650
v 0.958431 0.000000 0.588737
v 0.958211 0.000000 0.588949
v 0.957231 0.000000 0.588446
v 0.949841 0.000000 0.587910
v 0.945348 0.000000 0.588023
v 0.943836 0.000000 0.588351
v 0.943622 0.000000 0.588849
v 0.943739 0.000000 0.590071
v 0.944845 0.000000 0.593820
v 0.944534 0.000000 0.594876
v 0.943997 0.000000 0.595145
v 0.944954 0.000000 0.597976
v 0.945602 0.000000 0.600923
v 0.945953 0.000000 0.603803
v 0.945780 0.000000 0.604603
v 0.944428 0.000000 0.606165
v 0.943863 0.000000 0.607100
v 0.943705 0.000000 0.608826
v 0.941854 0.000000 0.612680
v 0.941672 0.000000 0.613464
v 0.942476 0.000000 0.616342
v 0.943364 0.000000 0.618412
v 0.944197 0.000000 0.619893
v 0.944293 0.000000 0.620779
v 0.944055 0.000000 0.622464
v 0.945750 0.000000 0.623011
v 0.948297 0.000000 0.624025
v 0.952088 0.000000 0.622822
v 0.956202 0.000000 0.621122
v 0.960160 0.000000 0.619127
v 0.965885 0.000000 0.616792
v 0.964637 0.000000 0.614129
v 0.963838 0.000000 0.610804
v 0.963594 0.000000 0.607523
v 0.962763 0.000000 0.603946
v 0.961778 0.050000 0.597085
v 0.943997 0.050000 0.595145
v 0.943364 0.050000 0.618412
v 0.944197 0.050000 0.619893
v 0.960160 0.050000 0.619127
v 0.941672 0.050000 0.613464
v 0.942476 0.050000 0.616342
v 0.962074 0.050000 0.601884
v 0.945602 0.050000 0.600923
v 0.961362 0.050000 0.591628
v 0.943739 0.050000 0.590071
v 0.963594 0.050000 0.607523
v 0.962763 0.050000 0.603946
v 0.944055 0.050000 0.622464
v 0.952088 0.050000 0.622822
v 0.965885 0.050000 0.616792
v 0.960000 0.050000 0.589650
v 0.943622 0.050000 0.588849
v 0.957231 0.050000 0.588446
v 0.945348 0.050000 0.588023
v 0.944534 0.050000 0.594876
v 0.944428 0.050000 0.606165
v 0.944845 0.050000 0.593820
v 0.948297 0.050000 0.624025
v 0.958211 0.050000 0.588949
v 0.943836 0.050000 0.588351
v 0.945953 0.050000 0.603803
v 0.945780 0.050000 0.604603
v 0.944293 0.050000 0.620779
v 0.943863 0.050000 0.607100
v 0.944954 0.050000 0.597976
v 0.959536 0.050000 0.587398
v 0.964637 0.050000 0.614129
v 0.956202 0.050000 0.621122
v 0.945750 0.050000 0.623011
v 0.962143 0.050000 0.593903
v 0.963838 0.050000 0.610804
v 0.958431 0.050000 0.588737
v 0.949841 0.050000 0.587910
v 0.961999 0.050000 0.592757
v 0.943705 0.050000 0.608826
v 0.941854 0.050000 0.612680
v 0.960468 0.050000 0.590887
v 0.959141 0.050000 0.587650
vn 0.0000 -1.0000 0.0000
vn 0.0000 1.0000 0.0000
vn 0.4569 0.0000 -0.8895
vn 0.6381 0.0000 -0.7700
vn -0.5387 0.0000 -0.8425
vn -0.4479 0.0000 -0.8941
vn 0.9724 0.0000 -0.2335
vn -0.0251 0.0000 -0.9997
vn 0.9055 0.0000 -0.4244
vn -0.9954 0.0000 0.0953
vn 0.9981 0.0000 -0.0616
vn 0.9972 0.0000 -0.0741
vn -0.3699 0.0000 0.9291
vn -0.9592 0.0000 -0.2828
vn -0.9191 0.0000 -0.3939
vn -0.8716 0.0000 0.4902
vn 0.3025 0.0000 0.9532
vn 0.0723 0.0000 -0.9974
vn -0.9959 0.0000 -0.0908
vn 0.3777 0.0000 0.9259
vn -0.9592 0.0000 0.2828
vn 0.9352 0.0000 -0.3541
vn -0.9632 0.0000 0.2689
vn 0.4500 0.0000 0.8930
vn -0.9767 0.0000 0.2147
vn -0.6935 0.0000 -0.7204
vn -0.9926 0.0000 0.1212
vn -0.8370 0.0000 -0.5472
vn -0.2120 0.0000 -0.9773
vn -0.9942 0.0000 0.1076
vn 0.9922 0.0000 -0.1248
vn -0.3073 0.0000 0.9516
vn 0.9935 0.0000 0.1141
vn -0.9773 0.0000 -0.2118
vn -0.9190 0.0000 0.3943
vn 0.8708 0.0000 -0.4917
vn 0.9740 0.0000 -0.2264
vn -0.9474 0.0000 0.3200
vn -0.9902 0.0000 -0.1394
vn -0.7562 0.0000 -0.6543
vn -0.8555 0.0000 -0.5179
vn -0.9014 0.0000 -0.4330
vn 0.3820 0.0000 0.9242
vn 0.9794 0.0000 -0.2018
vn -0.9742 0.0000 -0.2258
vn 0.9484 0.0000 -0.3171
usemtl SVGMat.3781
s off
f 10//1 9//1 8//1
f 14//1 13//1 12//1
f 15//1 14//1 12//1
f 16//1 15//1 12//1
f 16//1 12//1 11//1
f 10//1 8//1 7//1
f 11//1 10//1 7//1
f 16//1 11//1 7//1
f 17//1 16//1 7//1
f 17//1 7//1 6//1
f 17//1 6//1 5//1
f 18//1 17//1 5//1
f 18//1 5//1 4//1
f 18//1 4//1 3//1
f 18//1 3//1 2//1
f 19//1 18//1 2//1
f 20//1 19//1 2//1
f 21//1 20//1 2//1
f 21//1 2//1 1//1
f 22//1 21//1 1//1
f 23//1 22//1 1//1
f 23//1 1//1 44//1
f 24//1 23//1 44//1
f 24//1 44//1 43//1
f 25//1 24//1 43//1
f 26//1 25//1 43//1
f 27//1 26//1 43//1
f 27//1 43//1 42//1
f 28//1 27//1 42//1
f 28//1 42//1 41//1
f 29//1 28//1 41//1
f 30//1 29//1 41//1
f 30//1 41//1 40//1
f 31//1 30//1 40//1
f 31//1 40//1 39//1
f 32//1 31//1 39//1
f 32//1 39//1 38//1
f 33//1 32//1 38//1
f 34//1 33//1 38//1
f 34//1 38//1 37//1
f 35//1 34//1 37//1
f 35//1 37//1 36//1
f 82//2 76//2 88//2
f 64//2 63//2 83//2
f 70//2 63//2 64//2
f 62//2 63//2 70//2
f 62//2 69//2 63//2
f 82//2 61//2 76//2
f 69//2 61//2 82//2
f 62//2 61//2 69//2
f 55//2 61//2 62//2
f 55//2 87//2 61//2
f 55//2 54//2 87//2
f 67//2 54//2 55//2
f 67//2 84//2 54//2
f 67//2 80//2 84//2
f 67//2 45//2 80//2
f 65//2 45//2 67//2
f 46//2 45//2 65//2
f 75//2 45//2 46//2
f 75//2 52//2 45//2
f 53//2 52//2 75//2
f 71//2 52//2 53//2
f 71//2 57//2 52//2
f 72//2 57//2 71//2
f 72//2 56//2 57//2
f 66//2 56//2 72//2
f 74//2 56//2 66//2
f 85//2 56//2 74//2
f 85//2 81//2 56//2
f 86//2 81//2 85//2
f 86//2 77//2 81//2
f 50//2 77//2 86//2
f 51//2 77//2 50//2
f 51//2 60//2 77//2
f 47//2 60//2 51//2
f 47//2 49//2 60//2
f 48//2 49//2 47//2
f 48//2 78//2 49//2
f 73//2 78//2 48//2
f 58//2 78//2 73//2
f 58//2 59//2 78//2
f 79//2 59//2 58//2
f 79//2 68//2 59//2
f 11//3 12//3 63//3 69//3
f 5//4 6//4 87//4 54//4
f 8//5 9//5 88//5 76//5
f 19//6 20//6 46//6 65//6
f 41//7 42//7 81//7 77//7
f 13//8 14//8 64//8 83//8
f 40//9 41//9 77//9 60//9
f 16//10 17//10 55//10 62//10
f 1//11 2//11 45//11 52//11
f 42//12 43//12 56//12 81//12
f 35//13 36//13 68//13 79//13
f 18//14 19//14 65//14 67//14
f 15//15 16//15 62//15 70//15
f 31//16 32//16 48//16 47//16
f 36//17 37//17 59//17 68//17
f 12//18 13//18 83//18 63//18
f 26//19 27//19 85//19 74//19
f 39//20 40//20 60//20 49//20
f 17//21 18//21 67//21 55//21
f 6//22 7//22 61//22 87//22
f 29//23 30//23 51//23 50//23
f 38//24 39//24 49//24 78//24
f 21//25 22//25 53//25 75//25
f 10//26 11//26 69//26 82//26
f 22//27 23//27 71//27 53//27
f 9//28 10//28 82//28 88//28
f 14//29 15//29 70//29 64//29
f 32//30 33//30 73//30 48//30
f 3//31 4//31 84//31 80//31
f 34//32 35//32 79//32 58//32
f 2//33 3//33 80//33 45//33
f 23//34 24//34 72//34 71//34
f 30//35 31//35 47//35 51//35
f 4//36 5//36 54//36 84//36
f 43//37 44//37 57//37 56//37
f 20//38 21//38 75//38 46//38
f 33//39 34//39 58//39 73//39
f 24//40 25//40 66//40 72//40
f 25//41 26//41 74//41 66//41
f 27//42 28//42 86//42 85//42
f 37//43 38//43 78//43 59//43
f 7//44 8//44 76//44 61//44
f 28//45 29//45 50//45 86//45
f 44//46 1//46 52//46 57//46
