# Blender v2.79 (sub 0) OBJ File: 'world_countrycodes_outlines2.blend'
# www.blender.org
mtllib GH_outline.mtl
o GH.001_CUCurve.1687
v 0.966133 -0.000804 0.612725
v 0.965888 0.001960 0.615988
v 0.962864 0.000699 0.615866
v 0.964350 -0.001964 0.616309
v 0.968508 0.000763 0.617697
v 0.967738 -0.001436 0.617378
v 0.956892 0.000847 0.622852
v 0.949007 0.000838 0.622117
v 0.948970 -0.001928 0.623219
v 0.948363 -0.000853 0.626063
v 0.947986 0.001942 0.624886
v 0.942451 0.001401 0.623405
v 0.946368 0.000857 0.620861
v 0.945323 -0.001965 0.621683
v 0.941902 -0.000703 0.623768
v 0.942311 -0.000813 0.620565
v 0.943831 0.001956 0.621654
v 0.942449 -0.001907 0.613271
v 0.939541 -0.000779 0.613637
v 0.940632 0.001888 0.613123
v 0.943604 0.000755 0.613892
v 0.945892 0.000758 0.607866
v 0.945397 -0.001421 0.607722
v 0.945088 -0.001965 0.604356
v 0.942597 0.001416 0.606552
v 0.942067 -0.000663 0.606547
v 0.944150 0.000056 0.603225
v 0.945302 0.001920 0.604053
v 0.947563 0.001435 0.604339
v 0.948005 -0.000794 0.604557
v 0.946381 -0.000022 0.596353
v 0.942593 -0.001177 0.593693
v 0.944988 -0.001943 0.595772
v 0.945933 0.001491 0.595796
v 0.941310 0.000710 0.593501
v 0.944175 0.002008 0.594497
v 0.946789 -0.000816 0.593690
v 0.942628 -0.001926 0.588460
v 0.941491 -0.000010 0.587892
v 0.942717 0.001896 0.587567
v 0.945031 0.001399 0.589333
v 0.945421 -0.000786 0.589822
v 0.943411 -0.000865 0.586139
v 0.958214 0.001907 0.587556
v 0.956693 -0.000814 0.590269
v 0.958077 -0.000049 0.586341
v 0.958438 0.001491 0.590297
v 0.958100 -0.001474 0.587090
v 0.957701 -0.000698 0.591489
v 0.958457 0.000042 0.591097
v 0.958931 -0.001974 0.588996
v 0.961161 -0.000003 0.583966
v 0.962160 -0.000005 0.589502
v 0.961453 0.001949 0.590950
v 0.961396 -0.001942 0.590875
v 0.960431 0.001421 0.592906
v 0.959995 -0.000731 0.593132
v 0.963527 0.001430 0.592329
v 0.964053 -0.000888 0.592542
v 0.961737 0.001888 0.603993
v 0.964222 -0.000141 0.601439
v 0.963842 0.001366 0.602184
v 0.963488 -0.001420 0.601023
v 0.960239 -0.000864 0.602102
v 0.962174 -0.001964 0.604248
vn 0.2801 0.9572 -0.0732
vn 0.8791 0.3472 0.3264
vn 0.8745 -0.4227 -0.2376
vn 0.3720 0.3973 0.8389
vn -0.1520 -0.9813 -0.1183
vn -0.0190 0.4606 -0.8874
vn -0.7481 0.3777 -0.5456
vn 0.6720 -0.6926 0.2620
vn 0.0172 -0.9738 -0.2265
vn -0.0112 0.8517 0.5239
vn -0.0076 -0.3600 0.9329
vn -0.7861 -0.3620 0.5009
vn 0.6283 0.4057 -0.6638
vn -0.2541 0.9633 -0.0866
vn 0.1570 -0.9745 -0.1602
vn -0.6741 0.6434 0.3628
vn -0.8897 -0.4325 0.1458
vn 0.8892 0.4570 -0.0212
vn -0.5262 0.8503 -0.0082
vn -0.9392 -0.3412 0.0389
vn 0.2223 -0.9739 0.0458
vn -0.8534 -0.3507 -0.3857
vn -0.1810 0.9834 -0.0121
vn -0.1581 -0.9844 -0.0767
vn -0.6967 0.6310 -0.3410
vn 0.6623 -0.6801 0.3144
vn 0.8045 0.4259 0.4140
vn -0.9951 0.0309 -0.0933
vn 0.8979 -0.4099 0.1604
vn 0.7311 0.6675 0.1406
vn -0.1277 0.9879 -0.0873
vn -0.8107 -0.5854 0.0104
vn 0.9888 -0.1386 -0.0546
vn 0.6993 0.7100 -0.0824
vn -0.7641 0.2123 -0.6091
vn 0.2380 -0.9713 0.0052
vn 0.9381 -0.3351 -0.0873
vn -0.4338 0.8024 -0.4099
vn -0.4348 -0.8878 -0.1509
vn -0.9584 0.0261 -0.2841
vn 0.3060 0.9130 0.2697
vn 0.5243 -0.6876 0.5022
vn -0.2810 -0.3150 -0.9065
vn -0.2461 -0.4408 0.8632
vn -0.0331 0.9319 -0.3611
vn -0.3457 0.0530 -0.9368
vn -0.3157 0.8180 0.4808
vn -0.0113 -0.9989 0.0448
vn -0.1801 -0.2641 0.9475
vn 0.3712 -0.0072 -0.9285
vn -0.0412 -0.8441 -0.5345
vn 0.2395 0.9579 -0.1581
vn 0.2240 -0.9688 -0.1062
vn -0.8756 -0.4113 0.2532
vn -0.3837 0.0283 0.9230
vn -0.6756 0.7053 0.2149
vn 0.9335 -0.0117 -0.3584
vn 0.8729 -0.4256 -0.2384
vn 0.7252 0.6449 -0.2411
vn -0.9514 -0.2890 0.1063
vn -0.4651 0.8838 0.0494
vn -0.1928 -0.9779 0.0807
vn 0.9917 -0.0914 -0.0900
vn 0.6737 0.7356 -0.0714
vn 0.6054 -0.7945 -0.0481
usemtl SVGMat.3781
s 1
f 2//1 5//2 1//3
f 2//1 7//4 5//2
f 4//5 8//6 3//7
f 6//8 9//9 4//5
f 8//6 11//10 2//1
f 7//4 10//11 6//8
f 11//10 15//12 10//11
f 9//9 13//13 8//6
f 8//6 17//14 11//10
f 10//11 14//15 9//9
f 12//16 16//17 15//12
f 14//15 21//18 13//13
f 13//13 20//19 17//14
f 17//14 19//20 16//17
f 19//20 18//21 14//15
f 20//19 26//22 19//20
f 21//18 28//23 20//19
f 19//20 24//24 18//21
f 28//23 25//25 20//19
f 23//26 22//27 21//18
f 25//25 27//28 26//22
f 23//26 30//29 22//27
f 24//24 30//29 23//26
f 29//30 36//31 28//23
f 27//28 32//32 24//24
f 31//33 34//34 29//30
f 28//23 35//35 27//28
f 36//31 35//35 28//23
f 33//36 37//37 31//33
f 34//34 40//38 36//31
f 32//32 38//39 33//36
f 36//31 39//40 32//32
f 37//37 41//41 34//34
f 38//39 42//42 37//37
f 39//40 43//43 38//39
f 40//38 43//43 39//40
f 38//39 45//44 42//42
f 44//45 46//46 43//43
f 41//41 44//45 40//38
f 45//44 47//47 41//41
f 43//43 51//48 38//39
f 51//48 49//49 45//44
f 46//46 52//50 48//51
f 44//45 52//50 46//46
f 44//45 54//52 52//50
f 47//47 54//52 44//45
f 55//53 57//54 51//48
f 50//55 56//56 47//47
f 53//57 59//58 55//53
f 58//59 59//58 53//57
f 55//53 64//60 57//54
f 56//56 60//61 54//52
f 59//58 65//62 55//53
f 58//59 61//63 59//58
f 60//61 62//64 58//59
f 64//60 60//61 56//56
f 61//63 1//3 63//65
f 62//64 1//3 61//63
f 64//60 3//7 60//61
f 65//62 3//7 64//60
f 1//3 4//5 65//62
f 1//3 5//2 6//8
f 1//3 6//8 4//5
f 5//2 7//4 6//8
f 3//7 8//6 2//1
f 2//1 11//10 7//4
f 4//5 9//9 8//6
f 6//8 10//11 9//9
f 7//4 11//10 10//11
f 11//10 12//16 15//12
f 11//10 17//14 12//16
f 8//6 13//13 17//14
f 9//9 14//15 13//13
f 10//11 15//12 14//15
f 12//16 17//14 16//17
f 15//12 16//17 14//15
f 14//15 18//21 21//18
f 17//14 20//19 19//20
f 13//13 21//18 20//19
f 16//17 19//20 14//15
f 21//18 22//27 28//23
f 18//21 23//26 21//18
f 18//21 24//24 23//26
f 20//19 25//25 26//22
f 19//20 26//22 24//24
f 26//22 27//28 24//24
f 25//25 28//23 27//28
f 22//27 29//30 28//23
f 22//27 30//29 29//30
f 24//24 33//36 30//29
f 30//29 31//33 29//30
f 24//24 32//32 33//36
f 30//29 33//36 31//33
f 29//30 34//34 36//31
f 27//28 35//35 32//32
f 35//35 36//31 32//32
f 31//33 37//37 34//34
f 33//36 38//39 37//37
f 32//32 39//40 38//39
f 36//31 40//38 39//40
f 34//34 41//41 40//38
f 37//37 42//42 41//41
f 40//38 44//45 43//43
f 42//42 45//44 41//41
f 43//43 46//46 48//51
f 41//41 47//47 44//45
f 38//39 51//48 45//44
f 43//43 48//51 51//48
f 45//44 49//49 47//47
f 49//49 50//55 47//47
f 49//49 51//48 50//55
f 48//51 52//50 51//48
f 52//50 53//57 55//53
f 52//50 54//52 53//57
f 52//50 55//53 51//48
f 51//48 57//54 50//55
f 47//47 56//56 54//52
f 50//55 57//54 56//56
f 54//52 58//59 53//57
f 54//52 60//61 58//59
f 55//53 65//62 64//60
f 59//58 61//63 63//65
f 58//59 62//64 61//63
f 59//58 63//65 65//62
f 57//54 64//60 56//56
f 60//61 2//1 62//64
f 62//64 2//1 1//3
f 60//61 3//7 2//1
f 63//65 1//3 65//62
f 65//62 4//5 3//7
