# Blender v2.79 (sub 0) OBJ File: 'world_countrycodes_export2.blend'
# www.blender.org
mtllib GM.mtl
o GM.002_CUCurve.1870
v 0.873597 0.000000 0.573749
v 0.874585 0.000000 0.573798
v 0.877614 0.000000 0.575292
v 0.879604 0.000000 0.575123
v 0.881463 0.000000 0.574338
v 0.880034 0.000000 0.574015
v 0.877757 0.000000 0.573856
v 0.876441 0.000000 0.573122
v 0.875052 0.000000 0.571729
v 0.874252 0.000000 0.571332
v 0.873319 0.000000 0.571401
v 0.870359 0.000000 0.572597
v 0.867298 0.000000 0.572908
v 0.865763 0.000000 0.572745
v 0.865708 0.000000 0.573387
v 0.865155 0.000000 0.575454
v 0.865029 0.000000 0.576160
v 0.866059 0.000000 0.575899
v 0.869216 0.000000 0.575526
v 0.871894 0.000000 0.574648
v 0.881463 0.050000 0.574338
v 0.880034 0.050000 0.574015
v 0.873597 0.050000 0.573749
v 0.877757 0.050000 0.573856
v 0.865708 0.050000 0.573387
v 0.865155 0.050000 0.575454
v 0.874585 0.050000 0.573798
v 0.873319 0.050000 0.571401
v 0.870359 0.050000 0.572597
v 0.879604 0.050000 0.575123
v 0.876441 0.050000 0.573122
v 0.865029 0.050000 0.576160
v 0.867298 0.050000 0.572908
v 0.875052 0.050000 0.571729
v 0.865763 0.050000 0.572745
v 0.866059 0.050000 0.575899
v 0.869216 0.050000 0.575526
v 0.877614 0.050000 0.575292
v 0.871894 0.050000 0.574648
v 0.874252 0.050000 0.571332
vn 0.0000 -1.0000 0.0000
vn 0.0000 1.0000 0.0000
vn 0.0694 0.0000 -0.9976
vn 0.3118 0.0000 0.9501
vn 0.1052 0.0000 -0.9944
vn -0.4423 0.0000 0.8968
vn 0.4665 0.0000 0.8845
vn 0.1172 0.0000 0.9931
vn -0.3746 0.0000 -0.9272
vn -0.1010 0.0000 -0.9949
vn 0.3886 0.0000 0.9214
vn -0.9964 0.0000 -0.0853
vn -0.0737 0.0000 -0.9973
vn 0.4873 0.0000 -0.8732
vn 0.2211 0.0000 -0.9753
vn -0.0489 0.0000 0.9988
vn -0.9845 0.0000 -0.1756
vn 0.0847 0.0000 0.9964
vn 0.2452 0.0000 0.9695
vn -0.9660 0.0000 -0.2584
vn 0.4447 0.0000 -0.8957
vn 0.7080 0.0000 -0.7062
usemtl SVGMat.3781
s off
f 11//1 10//1 9//1
f 12//1 11//1 9//1
f 12//1 9//1 8//1
f 15//1 14//1 13//1
f 13//1 12//1 8//1
f 15//1 13//1 8//1
f 15//1 8//1 7//1
f 15//1 7//1 1//1
f 2//1 1//1 7//1
f 2//1 7//1 6//1
f 15//1 1//1 20//1
f 2//1 6//1 5//1
f 16//1 15//1 20//1
f 3//1 2//1 5//1
f 3//1 5//1 4//1
f 16//1 20//1 19//1
f 16//1 19//1 18//1
f 17//1 16//1 18//1
f 28//2 34//2 40//2
f 29//2 34//2 28//2
f 29//2 31//2 34//2
f 25//2 33//2 35//2
f 33//2 31//2 29//2
f 25//2 31//2 33//2
f 25//2 24//2 31//2
f 25//2 23//2 24//2
f 27//2 24//2 23//2
f 27//2 22//2 24//2
f 25//2 39//2 23//2
f 27//2 21//2 22//2
f 26//2 39//2 25//2
f 38//2 21//2 27//2
f 38//2 30//2 21//2
f 26//2 37//2 39//2
f 26//2 36//2 37//2
f 32//2 36//2 26//2
f 6//3 7//3 24//3 22//3
f 19//4 20//4 39//4 37//4
f 13//5 14//5 35//5 33//5
f 2//6 3//6 38//6 27//6
f 20//7 1//7 23//7 39//7
f 18//8 19//8 37//8 36//8
f 11//9 12//9 29//9 28//9
f 12//10 13//10 33//10 29//10
f 4//11 5//11 21//11 30//11
f 14//12 15//12 25//12 35//12
f 10//13 11//13 28//13 40//13
f 7//14 8//14 31//14 24//14
f 5//15 6//15 22//15 21//15
f 1//16 2//16 27//16 23//16
f 16//17 17//17 32//17 26//17
f 3//18 4//18 30//18 38//18
f 17//19 18//19 36//19 32//19
f 15//20 16//20 26//20 25//20
f 9//21 10//21 40//21 34//21
f 8//22 9//22 34//22 31//22
