# Blender v2.79 (sub 0) OBJ File: 'world_countrycodes_export2.blend'
# www.blender.org
mtllib GN.mtl
o GN.002_CUCurve.1860
v 0.888373 0.000000 0.594707
v 0.889280 0.000000 0.594513
v 0.891170 0.000000 0.594862
v 0.892285 0.000000 0.594713
v 0.894401 0.000000 0.594014
v 0.895288 0.000000 0.593951
v 0.896424 0.000000 0.594652
v 0.898641 0.000000 0.597331
v 0.899640 0.000000 0.599297
v 0.899780 0.000000 0.601476
v 0.900408 0.000000 0.603058
v 0.900592 0.000000 0.603358
v 0.900590 0.000000 0.603361
v 0.902282 0.000000 0.602991
v 0.904782 0.000000 0.602643
v 0.905314 0.000000 0.603248
v 0.905921 0.000000 0.604554
v 0.906330 0.000000 0.606547
v 0.906288 0.000000 0.608189
v 0.906783 0.000000 0.609341
v 0.908104 0.000000 0.610007
v 0.908965 0.000000 0.609635
v 0.910262 0.000000 0.607951
v 0.911063 0.000000 0.607315
v 0.911388 0.000000 0.607985
v 0.912416 0.000000 0.608587
v 0.912853 0.000000 0.607962
v 0.913954 0.000000 0.606899
v 0.914019 0.000000 0.606267
v 0.913316 0.000000 0.604533
v 0.913382 0.000000 0.603627
v 0.913804 0.000000 0.603048
v 0.914333 0.000000 0.603020
v 0.915413 0.000000 0.603379
v 0.915991 0.000000 0.603204
v 0.916288 0.000000 0.602761
v 0.916181 0.000000 0.601941
v 0.915061 0.000000 0.599882
v 0.915236 0.000000 0.598823
v 0.914804 0.000000 0.597555
v 0.913768 0.000000 0.596688
v 0.913536 0.000000 0.595534
v 0.914056 0.000000 0.592398
v 0.913597 0.000000 0.591970
v 0.913085 0.000000 0.591178
v 0.912726 0.000000 0.589009
v 0.912324 0.000000 0.588466
v 0.911419 0.000000 0.588252
v 0.911156 0.000000 0.587429
v 0.911559 0.000000 0.586644
v 0.912201 0.000000 0.586274
v 0.912007 0.000000 0.585910
v 0.910062 0.000000 0.584179
v 0.909760 0.000000 0.582735
v 0.908856 0.000000 0.580721
v 0.907694 0.000000 0.579484
v 0.906846 0.000000 0.580013
v 0.904729 0.000000 0.581893
v 0.903661 0.000000 0.582380
v 0.901340 0.000000 0.581381
v 0.900260 0.000000 0.581437
v 0.899538 0.000000 0.582556
v 0.898675 0.000000 0.582461
v 0.897213 0.000000 0.582100
v 0.896378 0.000000 0.582848
v 0.895968 0.000000 0.582818
v 0.895490 0.000000 0.582264
v 0.895030 0.000000 0.581008
v 0.895028 0.000000 0.580056
v 0.892612 0.000000 0.580714
v 0.888779 0.000000 0.580702
v 0.886358 0.000000 0.580094
v 0.885921 0.000000 0.579486
v 0.884668 0.000000 0.578815
v 0.882081 0.000000 0.578133
v 0.882000 0.000000 0.579214
v 0.881495 0.000000 0.580357
v 0.880376 0.000000 0.581021
v 0.880367 0.000000 0.581840
v 0.881220 0.000000 0.583355
v 0.880857 0.000000 0.584019
v 0.879728 0.000000 0.584418
v 0.878918 0.000000 0.584225
v 0.877545 0.000000 0.584787
v 0.873921 0.000000 0.587679
v 0.875069 0.000000 0.588917
v 0.876515 0.000000 0.591295
v 0.877777 0.000000 0.592517
v 0.880195 0.000000 0.594388
v 0.882419 0.000000 0.596658
v 0.884372 0.000000 0.599660
v 0.886388 0.000000 0.597861
v 0.888073 0.000000 0.595972
v 0.908856 0.050000 0.580721
v 0.904729 0.050000 0.581893
v 0.913536 0.050000 0.595534
v 0.914056 0.050000 0.592398
v 0.900260 0.050000 0.581437
v 0.899538 0.050000 0.582556
v 0.914804 0.050000 0.597555
v 0.913768 0.050000 0.596688
v 0.895490 0.050000 0.582264
v 0.880367 0.050000 0.581840
v 0.912201 0.050000 0.586274
v 0.877545 0.050000 0.584787
v 0.895968 0.050000 0.582818
v 0.906330 0.050000 0.606547
v 0.913316 0.050000 0.604533
v 0.896424 0.050000 0.594652
v 0.908104 0.050000 0.610007
v 0.908965 0.050000 0.609635
v 0.888073 0.050000 0.595972
v 0.888373 0.050000 0.594707
v 0.899780 0.050000 0.601476
v 0.916288 0.050000 0.602761
v 0.881220 0.050000 0.583355
v 0.880857 0.050000 0.584019
v 0.907694 0.050000 0.579484
v 0.906846 0.050000 0.580013
v 0.886358 0.050000 0.580094
v 0.885921 0.050000 0.579486
v 0.882000 0.050000 0.579214
v 0.905314 0.050000 0.603248
v 0.913382 0.050000 0.603627
v 0.911419 0.050000 0.588252
v 0.911156 0.050000 0.587429
v 0.913804 0.050000 0.603048
v 0.873921 0.050000 0.587679
v 0.882419 0.050000 0.596658
v 0.909760 0.050000 0.582735
v 0.903661 0.050000 0.582380
v 0.895030 0.050000 0.581008
v 0.898641 0.050000 0.597331
v 0.899640 0.050000 0.599297
v 0.912324 0.050000 0.588466
v 0.875069 0.050000 0.588917
v 0.912007 0.050000 0.585910
v 0.910062 0.050000 0.584179
v 0.882081 0.050000 0.578133
v 0.896378 0.050000 0.582848
v 0.912853 0.050000 0.607962
v 0.913954 0.050000 0.606899
v 0.913085 0.050000 0.591178
v 0.912726 0.050000 0.589009
v 0.916181 0.050000 0.601941
v 0.889280 0.050000 0.594513
v 0.880195 0.050000 0.594388
v 0.884668 0.050000 0.578815
v 0.884372 0.050000 0.599660
v 0.888779 0.050000 0.580702
v 0.879728 0.050000 0.584418
v 0.878918 0.050000 0.584225
v 0.876515 0.050000 0.591295
v 0.877777 0.050000 0.592517
v 0.898675 0.050000 0.582461
v 0.906288 0.050000 0.608189
v 0.913597 0.050000 0.591970
v 0.902282 0.050000 0.602991
v 0.904782 0.050000 0.602643
v 0.911559 0.050000 0.586644
v 0.911063 0.050000 0.607315
v 0.892285 0.050000 0.594713
v 0.894401 0.050000 0.594014
v 0.880376 0.050000 0.581021
v 0.905921 0.050000 0.604554
v 0.895028 0.050000 0.580056
v 0.914019 0.050000 0.606267
v 0.906783 0.050000 0.609341
v 0.900592 0.050000 0.603358
v 0.886388 0.050000 0.597861
v 0.911388 0.050000 0.607985
v 0.912416 0.050000 0.608587
v 0.892612 0.050000 0.580714
v 0.891170 0.050000 0.594862
v 0.900408 0.050000 0.603058
v 0.897213 0.050000 0.582100
v 0.910262 0.050000 0.607951
v 0.895288 0.050000 0.593951
v 0.881495 0.050000 0.580357
v 0.915236 0.050000 0.598823
v 0.901340 0.050000 0.581381
v 0.914333 0.050000 0.603020
v 0.915413 0.050000 0.603379
v 0.900590 0.050000 0.603361
v 0.915991 0.050000 0.603204
v 0.915061 0.050000 0.599882
vn 0.0000 -1.0000 0.0000
vn 0.0000 1.0000 0.0000
vn 0.0000 1.0000 0.0001
vn 0.9267 0.0000 -0.3758
vn -0.4504 0.0000 0.8928
vn -0.9188 0.0000 0.3948
vn -0.3791 0.0000 -0.9253
vn 0.9974 0.0000 0.0724
vn 0.7285 0.0000 -0.6850
vn 0.8035 0.0000 -0.5953
vn 0.9527 0.0000 -0.3039
vn -0.9796 0.0000 0.2010
vn 0.2121 0.0000 0.9773
vn 0.2895 0.0000 0.9572
vn 0.8077 0.0000 0.5896
vn -0.7507 0.0000 0.6606
vn 0.0701 0.0000 0.9975
vn -0.6238 0.0000 -0.7816
vn -0.9069 0.0000 0.4213
vn -0.5249 0.0000 0.8512
vn -0.4152 0.0000 -0.9097
vn 0.2551 0.0000 -0.9669
vn 0.9947 0.0000 0.1029
vn 0.2092 0.0000 0.9779
vn 0.7462 0.0000 0.6657
vn 0.6659 0.0000 0.7461
vn -0.9979 0.0000 0.0644
vn 0.9124 0.0000 -0.4094
vn 0.8401 0.0000 -0.5424
vn 0.8308 0.0000 0.5565
vn -0.2626 0.0000 -0.9649
vn -0.8916 0.0000 0.4528
vn 0.1096 0.0000 -0.9940
vn -0.9997 0.0000 -0.0254
vn 0.3954 0.0000 -0.9185
vn 0.6817 0.0000 -0.7317
vn 0.8784 0.0000 -0.4779
vn 0.6648 0.0000 -0.7470
vn 0.7922 0.0000 0.6102
vn -0.7704 0.0000 0.6375
vn -0.9972 0.0000 -0.0750
vn -0.3160 0.0000 0.9488
vn 0.9866 0.0000 0.1634
vn -0.5053 0.0000 0.8629
vn 0.1378 0.0000 0.9905
vn 0.0730 0.0000 -0.9973
vn -0.0523 0.0000 -0.9986
vn -0.8401 0.0000 -0.5424
vn 0.0031 0.0000 -1.0000
vn 0.8899 0.0000 0.4562
vn 0.9467 0.0000 -0.3222
vn 0.6421 0.0000 -0.7666
vn -0.3334 0.0000 -0.9428
vn 0.6943 0.0000 0.7197
vn 0.4995 0.0000 0.8663
vn 0.2300 0.0000 -0.9732
vn -0.8545 0.0000 0.5194
vn -0.9146 0.0000 -0.4043
vn 0.9866 0.0000 -0.1634
vn 0.7569 0.0000 -0.6535
vn 0.3137 0.0000 0.9495
vn 0.9867 0.0000 0.1626
vn 0.9917 0.0000 -0.1284
vn 0.9389 0.0000 -0.3442
vn 0.6218 0.0000 0.7832
vn -0.8713 0.0000 0.4907
vn -0.9999 0.0000 -0.0119
vn -0.1819 0.0000 0.9833
vn -0.6638 0.0000 -0.7479
vn -0.6669 0.0000 -0.7451
vn 0.8824 0.0000 -0.4704
vn 0.3965 0.0000 0.9180
vn -0.5106 0.0000 -0.8598
vn 0.1329 0.0000 0.9911
vn 0.4718 0.0000 -0.8817
vn -0.7809 0.0000 -0.6247
vn 0.9731 0.0000 0.2303
vn -0.8527 0.0000 0.5224
vn 0.9788 0.0000 -0.2048
vn 0.0530 0.0000 0.9986
vn -0.6956 0.0000 0.7184
vn -0.6119 0.0000 0.7910
vn 0.8201 0.0000 0.5722
vn -0.8383 0.0000 0.5453
vn 0.9803 0.0000 -0.1974
vn -0.8768 0.0000 -0.4809
vn 0.2400 0.0000 -0.9708
vn -0.7142 0.0000 0.6999
vn 0.2436 0.0000 -0.9699
vn -0.5297 0.0000 -0.8482
vn 1.0000 0.0000 -0.0014
vn -0.8998 0.0000 0.4364
vn 0.2322 0.0000 -0.9727
vn 0.8118 0.0000 -0.5840
vn -0.9295 0.0000 0.3688
vn -0.7333 0.0000 0.6799
usemtl SVGMat.3781
s off
f 76//1 75//1 74//1
f 76//1 74//1 73//1
f 76//1 73//1 72//1
f 77//1 76//1 72//1
f 57//1 56//1 55//1
f 70//1 69//1 68//1
f 77//1 72//1 71//1
f 58//1 57//1 55//1
f 78//1 77//1 71//1
f 78//1 71//1 70//1
f 78//1 70//1 68//1
f 79//1 78//1 68//1
f 79//1 68//1 67//1
f 58//1 55//1 54//1
f 61//1 60//1 59//1
f 62//1 61//1 59//1
f 59//1 58//1 54//1
f 65//1 64//1 63//1
f 62//1 59//1 54//1
f 79//1 67//1 66//1
f 65//1 63//1 62//1
f 65//1 62//1 54//1
f 80//1 79//1 66//1
f 80//1 66//1 65//1
f 80//1 65//1 54//1
f 80//1 54//1 53//1
f 81//1 80//1 53//1
f 82//1 81//1 53//1
f 84//1 83//1 82//1
f 84//1 82//1 53//1
f 84//1 53//1 52//1
f 84//1 52//1 51//1
f 85//1 84//1 51//1
f 85//1 51//1 50//1
f 85//1 50//1 49//1
f 85//1 49//1 48//1
f 86//1 85//1 48//1
f 86//1 48//1 47//1
f 86//1 47//1 46//1
f 87//1 86//1 46//1
f 87//1 46//1 45//1
f 87//1 45//1 44//1
f 88//1 87//1 44//1
f 88//1 44//1 43//1
f 89//1 88//1 6//1
f 6//1 88//1 43//1
f 89//1 6//1 5//1
f 7//1 6//1 43//1
f 7//1 43//1 42//1
f 89//1 5//1 2//1
f 2//1 5//1 4//1
f 89//1 2//1 1//1
f 90//1 89//1 1//1
f 3//1 2//1 4//1
f 90//1 1//1 93//1
f 8//1 7//1 42//1
f 8//1 42//1 41//1
f 90//1 93//1 92//1
f 8//1 41//1 40//1
f 8//1 40//1 39//1
f 9//1 8//1 39//1
f 91//1 90//1 92//1
f 9//1 39//1 38//1
f 10//1 9//1 38//1
f 10//1 38//1 37//1
f 10//1 37//1 36//1
f 11//1 10//1 15//1
f 15//1 10//1 36//1
f 11//1 15//1 14//1
f 15//1 36//1 32//1
f 32//1 36//1 33//1
f 33//1 36//1 35//1
f 16//1 15//1 32//1
f 34//1 33//1 35//1
f 11//1 14//1 12//1
f 16//1 32//1 31//1
f 17//1 16//1 31//1
f 17//1 31//1 30//1
f 18//1 17//1 30//1
f 18//1 30//1 29//1
f 18//1 29//1 28//1
f 18//1 28//1 24//1
f 19//1 18//1 24//1
f 25//1 24//1 28//1
f 19//1 24//1 23//1
f 25//1 28//1 27//1
f 25//1 27//1 26//1
f 20//1 19//1 23//1
f 20//1 23//1 22//1
f 21//1 20//1 22//1
f 122//2 148//2 139//2
f 122//2 121//2 148//2
f 122//2 120//2 121//2
f 179//2 120//2 122//2
f 119//2 94//2 118//2
f 173//2 132//2 166//2
f 179//2 150//2 120//2
f 95//2 94//2 119//2
f 164//2 150//2 179//2
f 164//2 173//2 150//2
f 164//2 132//2 173//2
f 103//2 132//2 164//2
f 103//2 102//2 132//2
f 95//2 130//2 94//2
f 98//2 131//2 181//2
f 99//2 131//2 98//2
f 131//2 130//2 95//2
f 140//2 155//2 176//2
f 99//2 130//2 131//2
f 103//2 106//2 102//2
f 140//2 99//2 155//2
f 140//2 130//2 99//2
f 116//2 106//2 103//2
f 116//2 140//2 106//2
f 116//2 130//2 140//2
f 116//2 138//2 130//2
f 117//2 138//2 116//2
f 151//2 138//2 117//2
f 105//2 151//2 152//2
f 105//2 138//2 151//2
f 105//2 137//2 138//2
f 105//2 104//2 137//2
f 128//2 104//2 105//2
f 128//2 160//2 104//2
f 128//2 126//2 160//2
f 128//2 125//2 126//2
f 136//2 125//2 128//2
f 136//2 135//2 125//2
f 136//2 144//2 135//2
f 153//2 144//2 136//2
f 153//2 143//2 144//2
f 153//2 157//2 143//2
f 154//2 157//2 153//2
f 154//2 97//2 157//2
f 147//2 178//2 154//2
f 178//2 97//2 154//2
f 147//2 163//2 178//2
f 109//2 97//2 178//2
f 109//2 96//2 97//2
f 147//2 146//2 163//2
f 146//2 162//2 163//2
f 147//2 113//2 146//2
f 129//2 113//2 147//2
f 174//2 162//2 146//2
f 129//2 112//2 113//2
f 133//2 96//2 109//2
f 133//2 101//2 96//2
f 129//2 170//2 112//2
f 133//2 100//2 101//2
f 133//2 180//2 100//2
f 134//2 180//2 133//2
f 149//2 170//2 129//2
f 134//2 186//2 180//2
f 114//2 186//2 134//2
f 114//2 145//2 186//2
f 114//2 115//2 145//2
f 175//2 159//2 114//2
f 159//2 115//2 114//2
f 175//3 158//3 159//3
f 159//2 127//2 115//2
f 127//2 182//2 115//2
f 182//2 185//2 115//2
f 123//2 127//2 159//2
f 183//2 185//2 182//2
f 175//2 169//2 158//2
f 123//2 124//2 127//2
f 165//2 124//2 123//2
f 165//2 108//2 124//2
f 107//2 108//2 165//2
f 107//2 167//2 108//2
f 107//2 142//2 167//2
f 107//2 161//2 142//2
f 156//2 161//2 107//2
f 171//2 142//2 161//2
f 156//2 177//2 161//2
f 171//2 141//2 142//2
f 171//2 172//2 141//2
f 168//2 177//2 156//2
f 168//2 111//2 177//2
f 110//2 111//2 168//2
f 29//4 30//4 108//4 167//4
f 20//5 21//5 110//5 168//5
f 19//6 20//6 168//6 156//6
f 83//7 84//7 105//7 152//7
f 30//8 31//8 124//8 108//8
f 55//9 56//9 118//9 94//9
f 46//10 47//10 135//10 144//10
f 48//11 49//11 126//11 125//11
f 17//12 18//12 107//12 165//12
f 12//13 14//13 158//13 169//13
f 34//14 35//14 185//14 183//14
f 31//15 32//15 127//15 124//15
f 15//16 16//16 123//16 159//16
f 5//17 6//17 178//17 163//17
f 84//18 85//18 128//18 105//18
f 16//19 17//19 165//19 123//19
f 6//20 7//20 109//20 178//20
f 58//21 59//21 131//21 95//21
f 74//22 75//22 139//22 148//22
f 28//23 29//23 167//23 142//23
f 1//24 2//24 146//24 113//24
f 92//25 93//25 112//25 170//25
f 91//26 92//26 170//26 149//26
f 9//27 10//27 114//27 134//27
f 54//28 55//28 94//28 130//28
f 44//29 45//29 143//29 157//29
f 35//30 36//30 115//30 185//30
f 69//31 70//31 173//31 166//31
f 8//32 9//32 134//32 133//32
f 62//33 63//33 155//33 99//33
f 18//34 19//34 156//34 107//34
f 59//35 60//35 181//35 131//35
f 43//36 44//36 157//36 97//36
f 37//37 38//37 186//37 145//37
f 52//38 53//38 138//38 137//38
f 22//39 23//39 177//39 111//39
f 7//40 8//40 133//40 109//40
f 75//41 76//41 122//41 139//41
f 33//42 34//42 183//42 182//42
f 42//43 43//43 97//43 96//43
f 25//44 26//44 172//44 171//44
f 14//45 15//45 159//45 158//45
f 65//46 66//46 106//46 140//46
f 60//47 61//47 98//47 181//47
f 61//48 62//48 99//48 98//48
f 70//49 71//49 150//49 173//49
f 49//50 50//50 160//50 126//50
f 39//51 40//51 100//51 180//51
f 40//52 41//52 101//52 100//52
f 81//53 82//53 151//53 117//53
f 27//54 28//54 142//54 141//54
f 50//55 51//55 104//55 160//55
f 47//56 48//56 125//56 135//56
f 86//57 87//57 153//57 136//57
f 76//58 77//58 179//58 122//58
f 45//59 46//59 144//59 143//59
f 66//60 67//60 102//60 106//60
f 4//61 5//61 163//61 162//61
f 38//62 39//62 180//62 186//62
f 36//63 37//63 145//63 115//63
f 67//64 68//64 132//64 102//64
f 23//65 24//65 161//65 177//65
f 79//66 80//66 116//66 103//66
f 78//67 79//67 103//67 164//67
f 2//68 3//68 174//68 146//68
f 57//69 58//69 95//69 119//69
f 64//70 65//70 140//70 176//70
f 51//71 52//71 137//71 104//71
f 21//72 22//72 111//72 110//72
f 77//73 78//73 164//73 179//73
f 3//74 4//74 162//74 174//74
f 73//75 74//75 148//75 121//75
f 12//76 13//76 184//76 169//76
f 93//77 1//77 113//77 112//77
f 11//78 12//78 169//78 175//78
f 53//79 54//79 130//79 138//79
f 32//80 33//80 182//80 127//80
f 87//81 88//81 154//81 153//81
f 88//82 89//82 147//82 154//82
f 26//83 27//83 141//83 172//83
f 90//84 91//84 149//84 129//84
f 41//85 42//85 96//85 101//85
f 80//86 81//86 117//86 116//86
f 63//87 64//87 176//87 155//87
f 89//88 90//88 129//88 147//88
f 71//89 72//89 120//89 150//89
f 56//90 57//90 119//90 118//90
f 68//91 69//91 166//91 132//91
f 24//92 25//92 171//92 161//92
f 82//93 83//93 152//93 151//93
f 72//94 73//94 121//94 120//94
f 10//95 11//95 175//95 114//95
f 85//96 86//96 136//96 128//96
