# Blender v2.79 (sub 0) OBJ File: 'world_countrycodes_outlines2.blend'
# www.blender.org
mtllib GN_outline.mtl
o GN.001_CUCurve.1686
v 0.880388 -0.000726 0.597134
v 0.878062 0.001326 0.594525
v 0.884749 0.001971 0.598298
v 0.884963 0.000074 0.596349
v 0.884977 -0.001887 0.597861
v 0.876517 0.000727 0.588206
v 0.874924 -0.001963 0.588154
v 0.875624 -0.000544 0.593340
v 0.871339 -0.000791 0.587667
v 0.872770 0.001891 0.587659
v 0.878750 0.000706 0.582268
v 0.879448 -0.001714 0.582852
v 0.879059 0.000819 0.586287
v 0.880527 0.001927 0.582675
v 0.881483 0.001905 0.584801
v 0.882031 -0.000818 0.585776
v 0.882171 -0.001954 0.583716
v 0.882757 0.000541 0.581869
v 0.881065 -0.001981 0.581593
v 0.878326 0.000828 0.580682
v 0.879979 0.000985 0.579051
v 0.883640 0.001343 0.579918
v 0.883787 -0.000691 0.580397
v 0.881456 -0.001866 0.577551
v 0.880705 0.001528 0.576333
v 0.887679 -0.001893 0.579917
v 0.888721 0.000086 0.578874
v 0.887817 0.001887 0.579896
v 0.885912 -0.000765 0.582170
v 0.893238 0.000820 0.582637
v 0.894075 -0.001924 0.581271
v 0.896938 -0.000691 0.577872
v 0.895792 0.002029 0.579835
v 0.896715 0.000905 0.580695
v 0.895182 0.001989 0.583207
v 0.896144 -0.001925 0.581835
v 0.895389 -0.000873 0.584837
v 0.897561 0.001376 0.583899
v 0.897724 -0.000774 0.584214
v 0.899174 0.001966 0.581425
v 0.898561 -0.000643 0.580257
v 0.900912 -0.001446 0.583398
v 0.900486 0.000630 0.584358
v 0.902832 -0.001800 0.580553
v 0.901215 0.000667 0.579242
v 0.903821 0.002034 0.581639
v 0.904080 -0.001793 0.583552
v 0.904228 0.000684 0.584410
v 0.907790 -0.000801 0.577231
v 0.907805 0.001872 0.578333
v 0.907363 -0.001253 0.581461
v 0.911721 0.000787 0.582167
v 0.907989 0.001846 0.580707
v 0.912160 -0.001931 0.587287
v 0.911548 -0.001376 0.583326
v 0.910546 -0.001821 0.586589
v 0.909446 0.000519 0.586370
v 0.910248 0.001482 0.586243
v 0.913135 0.001678 0.587041
v 0.914291 -0.000893 0.585747
v 0.913833 -0.000533 0.587372
v 0.911319 0.001993 0.588971
v 0.909142 -0.000723 0.587176
v 0.910541 -0.000726 0.589909
v 0.915704 0.000853 0.592337
v 0.912090 -0.001407 0.595601
v 0.912964 -0.001922 0.592850
v 0.915532 -0.001239 0.595306
v 0.913088 0.001972 0.592740
v 0.914234 0.001983 0.598448
v 0.911664 0.000948 0.596700
v 0.912989 0.000095 0.598984
v 0.916711 0.000911 0.597321
v 0.914212 -0.001949 0.598714
v 0.917021 -0.000978 0.599653
v 0.918522 -0.000616 0.603782
v 0.917243 0.001940 0.603063
v 0.914486 0.000853 0.601433
v 0.915645 -0.001979 0.602519
v 0.914207 0.001931 0.604143
v 0.915078 0.000024 0.605015
v 0.913363 -0.001951 0.602217
v 0.912433 0.000989 0.601652
v 0.911217 -0.000840 0.604005
v 0.911962 0.000868 0.606076
v 0.913307 0.002002 0.608109
v 0.915049 -0.001648 0.604715
v 0.916067 0.000871 0.607073
v 0.912150 -0.001340 0.606314
v 0.913264 0.000739 0.610922
v 0.913016 -0.001912 0.609484
v 0.910687 0.000741 0.609662
v 0.910553 0.001903 0.606365
v 0.910674 0.000086 0.605051
v 0.909927 -0.002039 0.607914
v 0.909279 -0.001275 0.611675
v 0.906785 0.001979 0.610997
v 0.908191 0.001084 0.607799
v 0.907438 -0.001864 0.609026
v 0.905017 -0.000784 0.610626
v 0.904027 -0.000681 0.604674
v 0.904378 0.001359 0.604198
v 0.905328 0.001953 0.601815
v 0.907984 -0.000765 0.604245
v 0.905569 -0.001315 0.601007
v 0.900947 -0.001956 0.602044
v 0.900158 0.001943 0.604321
v 0.902212 0.000507 0.600398
v 0.899542 -0.000858 0.605481
v 0.897518 0.000795 0.599561
v 0.898019 -0.001357 0.599687
v 0.900517 0.001915 0.598779
v 0.896041 -0.001881 0.592903
v 0.894818 -0.000833 0.595872
v 0.895540 0.002027 0.594480
v 0.896090 0.000752 0.591906
v 0.889821 0.000395 0.596864
v 0.891566 -0.000823 0.592926
v 0.889463 -0.001404 0.596334
v 0.889677 0.001994 0.594870
v 0.887365 0.000838 0.592829
v 0.888162 -0.001980 0.593902
v 0.883802 -0.000013 0.602999
vn -0.5812 -0.6640 0.4704
vn -0.0026 -0.9990 0.0446
vn -0.0229 -0.9996 0.0179
vn -0.1978 0.0100 -0.9802
vn 0.8054 0.5924 0.0187
vn 0.0165 0.9942 0.1061
vn -0.5019 0.6848 0.5282
vn -0.7190 -0.2748 0.6383
vn -0.5902 0.8027 -0.0851
vn -0.9524 -0.2911 -0.0901
vn -0.8642 0.3941 -0.3128
vn -0.0059 0.9987 -0.0490
vn 0.2948 0.6053 0.7393
vn -0.3909 -0.9066 -0.1592
vn 0.6630 -0.3221 0.6758
vn 0.4129 0.8252 0.3854
vn 0.8863 0.2225 0.4061
vn 0.5592 -0.8115 0.1694
vn 0.2100 -0.9777 0.0058
vn -0.9226 0.3045 -0.2368
vn -0.2338 -0.7728 -0.5900
vn -0.8293 0.3983 -0.3919
vn 0.0955 0.9043 0.4160
vn -0.4338 0.4371 -0.7878
vn 0.0367 0.9912 -0.1266
vn -0.0110 -0.9741 -0.2259
vn -0.3425 -0.2820 0.8962
vn 0.0670 -0.6691 0.7402
vn 0.0659 0.0367 -0.9971
vn -0.4294 0.4349 0.7914
vn 0.3313 0.8888 -0.3165
vn -0.1230 -0.9765 0.1770
vn 0.6319 -0.2198 -0.7432
vn 0.5758 0.6049 -0.5500
vn -0.2581 0.8751 0.4093
vn 0.1362 -0.9897 -0.0440
vn -0.2604 -0.3645 0.8941
vn 0.0729 0.6738 0.7352
vn 0.0769 -0.4901 0.8683
vn -0.0741 0.9546 -0.2885
vn -0.1892 -0.4217 -0.8867
vn -0.0439 -0.8577 0.5122
vn -0.0518 -0.8096 -0.5846
vn 0.0634 0.2451 -0.9674
vn -0.0291 0.9878 -0.1530
vn 0.1807 -0.7846 0.5931
vn 0.0472 0.3535 0.9342
vn 0.2514 0.3231 0.9123
vn 0.1020 -0.3730 -0.9222
vn -0.0231 -0.9416 0.3358
vn 0.0727 0.9686 0.2376
vn 0.0885 0.7350 -0.6723
vn 0.7559 0.3830 -0.5309
vn 0.1583 -0.9870 0.0268
vn 0.4469 -0.7987 -0.4029
vn -0.3901 -0.9161 0.0926
vn -0.8150 0.4426 0.3739
vn 0.5204 0.8329 -0.1882
vn 0.9523 -0.3032 -0.0347
vn 0.9314 -0.3207 -0.1723
vn -0.4038 0.5154 -0.7558
vn -0.4227 0.8921 0.1596
vn -0.9655 -0.2568 -0.0436
vn -0.8869 -0.3304 0.3228
vn 0.8954 0.3800 -0.2320
vn -0.0904 -0.9959 -0.0038
vn 0.6839 -0.7118 -0.1599
vn -0.8159 -0.5644 0.1253
vn -0.2351 0.9713 0.0345
vn -0.2900 -0.9310 0.2218
vn -0.2193 0.9649 0.1443
vn 0.8529 0.4533 -0.2588
vn -0.8433 -0.0261 0.5369
vn -0.9202 0.3522 0.1708
vn 0.7276 -0.6456 -0.2317
vn 0.0942 -0.9922 -0.0814
vn 0.8715 -0.2279 0.4341
vn -0.7048 0.6677 -0.2396
vn 0.0404 0.9992 -0.0031
vn 0.4799 0.8280 0.2900
vn 0.9449 0.2566 0.2031
vn 0.3140 -0.8947 0.3177
vn -0.2814 -0.8058 -0.5209
vn -0.5429 0.4485 -0.7100
vn -0.9240 -0.3682 -0.1027
vn -0.2035 0.8032 -0.5598
vn 0.0971 0.9788 0.1804
vn -0.2266 -0.9266 -0.2999
vn 0.9529 0.2536 0.1664
vn 0.1928 -0.8068 0.5584
vn 0.2079 0.2473 0.9463
vn -0.2017 -0.9573 -0.2069
vn 0.2045 0.5252 0.8260
vn -0.1203 0.8758 -0.4675
vn -0.1529 -0.0765 -0.9853
vn 0.3711 -0.4312 0.8224
vn -0.2424 0.7517 0.6133
vn 0.0611 0.7502 -0.6584
vn -0.7754 -0.3075 0.5515
vn -0.0743 -0.9963 -0.0430
vn -0.4183 -0.6904 0.5903
vn 0.3587 0.7841 -0.5064
vn 0.9016 -0.2781 -0.3312
vn 0.4312 -0.5724 -0.6974
vn -0.2976 0.7990 0.5224
vn -0.3490 0.8133 0.4654
vn 0.0667 -0.9962 -0.0549
vn 0.5364 0.2688 -0.8000
vn -0.4408 -0.3370 0.8319
vn -0.7635 0.5017 0.4065
vn -0.3130 -0.5359 0.7841
vn -0.6517 -0.6858 0.3238
vn 0.4216 0.8711 -0.2517
vn -0.0225 0.9992 0.0332
vn 0.3150 0.3120 -0.8963
vn 0.2905 -0.7934 -0.5348
vn 0.4438 0.2908 0.8476
vn -0.1427 -0.0629 -0.9877
vn 0.2657 -0.8080 0.5259
vn -0.2624 -0.8384 -0.4777
vn -0.3965 0.3279 -0.8574
vn 0.0816 0.9900 -0.1149
vn -0.1100 -0.0227 0.9937
usemtl SVGMat.3781
s 1
f 1//1 7//2 5//3
f 4//4 6//5 3//6
f 2//7 8//8 1//1
f 5//3 6//5 4//4
f 6//5 10//9 3//6
f 2//7 9//10 8//8
f 10//9 11//11 9//10
f 6//5 14//12 10//9
f 7//2 13//13 6//5
f 12//14 16//15 7//2
f 13//13 15//16 14//12
f 16//15 18//17 15//16
f 17//18 18//17 16//15
f 18//17 14//12 15//16
f 12//14 19//19 17//18
f 20//20 24//21 12//14
f 14//12 21//22 20//20
f 18//17 22//23 14//12
f 22//23 25//24 14//12
f 22//23 28//25 25//24
f 26//26 29//27 23//28
f 27//29 26//26 24//21
f 29//27 30//30 22//23
f 30//30 33//31 28//25
f 26//26 31//32 29//27
f 27//29 32//33 26//26
f 28//25 32//33 27//29
f 33//31 34//34 32//33
f 30//30 35//35 33//31
f 36//36 37//37 31//32
f 37//37 38//38 35//35
f 36//36 39//39 37//37
f 35//35 40//40 34//34
f 38//38 40//40 35//35
f 41//41 42//42 36//36
f 41//41 44//43 42//42
f 40//40 45//44 41//41
f 40//40 46//45 45//44
f 44//43 47//46 42//42
f 46//45 44//43 45//44
f 43//47 46//45 40//40
f 42//42 48//48 43//47
f 47//46 48//48 42//42
f 46//45 49//49 44//43
f 47//46 51//50 48//48
f 53//51 50//52 46//45
f 49//49 51//50 47//46
f 50//52 52//53 49//49
f 49//49 54//54 51//50
f 52//53 55//55 49//49
f 54//54 56//56 51//50
f 51//50 57//57 53//51
f 56//56 57//57 51//50
f 57//57 59//58 53//51
f 59//58 61//59 60//60
f 61//59 54//54 60//60
f 58//61 62//62 59//58
f 63//63 62//62 58//61
f 56//56 64//64 63//63
f 59//58 65//65 61//59
f 62//62 65//65 59//58
f 54//54 67//66 64//64
f 68//67 67//66 54//54
f 66//68 69//69 62//62
f 68//67 74//70 67//66
f 70//71 73//72 65//65
f 66//68 72//73 71//74
f 72//73 70//71 71//74
f 73//72 75//75 68//67
f 75//75 79//76 74//70
f 73//72 76//77 75//75
f 72//73 78//78 70//71
f 74//70 78//78 72//73
f 78//78 80//79 77//80
f 80//79 81//81 76//77
f 87//82 82//83 79//76
f 82//83 83//84 78//78
f 82//83 84//85 83//84
f 84//85 85//86 83//84
f 85//86 86//87 80//79
f 87//82 89//88 84//85
f 88//89 91//90 87//82
f 86//87 90//91 88//89
f 90//91 95//92 91//90
f 86//87 92//93 90//91
f 85//86 93//94 86//87
f 89//88 94//95 85//86
f 94//95 93//94 85//86
f 92//93 96//96 95//92
f 93//94 97//97 92//93
f 94//95 98//98 93//94
f 95//92 98//98 94//95
f 97//97 100//99 96//96
f 100//99 99//100 96//96
f 97//97 101//101 100//99
f 98//98 103//102 97//97
f 99//100 104//103 98//98
f 101//101 105//104 99//100
f 104//103 103//102 98//98
f 103//102 107//105 102//106
f 106//107 108//108 105//104
f 101//101 106//107 105//104
f 108//108 107//105 103//102
f 107//105 109//109 101//101
f 107//105 110//110 109//109
f 110//110 114//111 111//112
f 112//113 115//114 110//110
f 108//108 116//115 112//113
f 113//116 116//115 108//108
f 111//112 113//116 106//107
f 115//114 117//117 114//111
f 113//116 118//118 116//115
f 119//119 122//120 113//116
f 118//118 121//121 120//122
f 122//120 121//121 118//118
f 122//120 4//4 121//121
f 4//4 3//6 121//121
f 119//119 5//3 122//120
f 117//117 123//123 119//119
f 120//122 123//123 117//117
f 3//6 123//123 120//122
f 3//6 2//7 123//123
f 5//3 7//2 6//5
f 3//6 10//9 2//7
f 1//1 8//8 7//2
f 8//8 9//10 7//2
f 2//7 10//9 9//10
f 9//10 12//14 7//2
f 9//10 11//11 12//14
f 10//9 14//12 11//11
f 6//5 13//13 14//12
f 7//2 16//15 13//13
f 12//14 17//18 16//15
f 13//13 16//15 15//16
f 14//12 20//20 11//11
f 17//18 19//19 18//17
f 11//11 20//20 12//14
f 12//14 24//21 19//19
f 20//20 21//22 24//21
f 19//19 23//28 18//17
f 18//17 23//28 22//23
f 14//12 25//24 21//22
f 19//19 24//21 23//28
f 21//22 25//24 24//21
f 24//21 26//26 23//28
f 25//24 27//29 24//21
f 25//24 28//25 27//29
f 23//28 29//27 22//23
f 22//23 30//30 28//25
f 29//27 31//32 30//30
f 28//25 33//31 32//33
f 26//26 32//33 31//32
f 32//33 34//34 36//36
f 32//33 36//36 31//32
f 33//31 35//35 34//34
f 31//32 37//37 30//30
f 30//30 37//37 35//35
f 37//37 39//39 38//38
f 34//34 41//41 36//36
f 34//34 40//40 41//41
f 36//36 42//42 39//39
f 39//39 43//47 38//38
f 39//39 42//42 43//47
f 38//38 43//47 40//40
f 41//41 45//44 44//43
f 43//47 48//48 46//45
f 46//45 50//52 49//49
f 48//48 53//51 46//45
f 48//48 51//50 53//51
f 44//43 49//49 47//46
f 50//52 53//51 52//53
f 49//49 55//55 54//54
f 53//51 59//58 52//53
f 52//53 60//60 55//55
f 57//57 58//61 59//58
f 52//53 59//58 60//60
f 55//55 60//60 54//54
f 56//56 63//63 57//57
f 57//57 63//63 58//61
f 63//63 64//64 62//62
f 56//56 54//54 64//64
f 61//59 65//65 68//67
f 64//64 66//68 62//62
f 64//64 67//66 66//68
f 61//59 68//67 54//54
f 62//62 69//69 65//65
f 69//69 70//71 65//65
f 66//68 71//74 69//69
f 67//66 74//70 66//68
f 69//69 71//74 70//71
f 65//65 73//72 68//67
f 66//68 74//70 72//73
f 68//67 75//75 74//70
f 70//71 77//80 73//72
f 73//72 77//80 76//77
f 70//71 78//78 77//80
f 74//70 79//76 78//78
f 75//75 76//77 79//76
f 77//80 80//79 76//77
f 76//77 87//82 79//76
f 76//77 81//81 87//82
f 79//76 82//83 78//78
f 78//78 83//84 80//79
f 83//84 85//86 80//79
f 80//79 88//89 81//81
f 80//79 86//87 88//89
f 82//83 87//82 84//85
f 81//81 88//89 87//82
f 84//85 89//88 85//86
f 88//89 90//91 91//90
f 87//82 91//90 89//88
f 90//91 92//93 95//92
f 86//87 93//94 92//93
f 91//90 95//92 89//88
f 89//88 95//92 94//95
f 92//93 97//97 96//96
f 93//94 98//98 97//97
f 95//92 99//100 98//98
f 95//92 96//96 99//100
f 97//97 102//106 101//101
f 97//97 103//102 102//106
f 100//99 101//101 99//100
f 99//100 105//104 104//103
f 104//103 105//104 103//102
f 102//106 107//105 101//101
f 105//104 108//108 103//102
f 101//101 109//109 106//107
f 109//109 110//110 111//112
f 109//109 111//112 106//107
f 108//108 112//113 107//105
f 107//105 112//113 110//110
f 106//107 113//116 108//108
f 110//110 115//114 114//111
f 112//113 116//115 115//114
f 111//112 114//111 113//116
f 114//111 117//117 119//119
f 116//115 120//122 115//114
f 116//115 118//118 120//122
f 114//111 119//119 113//116
f 115//114 120//122 117//117
f 113//116 122//120 118//118
f 122//120 5//3 4//4
f 121//121 3//6 120//122
f 119//119 123//123 5//3
f 123//123 2//7 1//1
f 123//123 1//1 5//3
