# Blender v2.79 (sub 0) OBJ File: 'world_countrycodes_outlines2.blend'
# www.blender.org
mtllib GR_outline.mtl
o GR.001_CUCurve.046
v 1.110108 -0.000546 0.400846
v 1.109205 -0.001917 0.400188
v 1.104893 0.000771 0.401219
v 1.105593 -0.001978 0.402634
v 1.105557 -0.000709 0.406621
v 1.105249 0.001965 0.404810
v 1.101548 -0.000796 0.403868
v 1.101311 0.001890 0.402744
v 1.100437 0.000795 0.400011
v 1.100184 -0.001906 0.401188
v 1.097685 0.000151 0.406646
v 1.097231 0.001602 0.402507
v 1.096886 -0.001944 0.402569
v 1.094850 0.000766 0.404774
v 1.094852 -0.001197 0.404443
v 1.096277 0.000789 0.400817
v 1.092076 0.001936 0.403115
v 1.090845 -0.000450 0.402700
v 1.091681 -0.001873 0.404075
v 1.094913 0.000725 0.408420
v 1.092129 0.001896 0.406840
v 1.090984 -0.000176 0.406059
v 1.093559 -0.002180 0.407237
v 1.088843 0.000760 0.409808
v 1.089143 0.001969 0.406568
v 1.089874 -0.002133 0.408309
v 1.086935 -0.000837 0.407887
v 1.085825 0.001879 0.406892
v 1.087080 -0.000619 0.403595
v 1.084007 0.001055 0.404932
v 1.083857 -0.001864 0.407312
v 1.083026 0.000719 0.408381
v 1.091281 0.001931 0.414921
v 1.087935 0.000776 0.414262
v 1.089376 -0.001913 0.414690
v 1.092303 -0.001007 0.414941
v 1.089562 0.001027 0.417391
v 1.086252 0.001601 0.415456
v 1.086801 -0.001987 0.415971
v 1.089483 -0.001007 0.416532
v 1.085865 0.000793 0.418271
v 1.088263 -0.001847 0.419634
v 1.089145 0.001375 0.420319
v 1.093434 0.001940 0.416238
v 1.091929 -0.000078 0.419622
v 1.091662 -0.001615 0.415717
v 1.096959 -0.000746 0.417897
v 1.093374 -0.000657 0.420664
v 1.094775 0.001933 0.421005
v 1.095859 -0.001932 0.422462
v 1.096928 0.000927 0.422961
v 1.092714 -0.002203 0.423553
v 1.090059 0.000935 0.424929
v 1.089271 0.001841 0.422759
v 1.088860 0.000874 0.420184
v 1.088583 -0.001909 0.421403
v 1.087300 0.001990 0.424292
v 1.085882 0.000791 0.422520
v 1.086732 -0.001915 0.424055
v 1.089511 -0.001310 0.422513
v 1.086243 -0.000040 0.425135
v 1.089651 0.001188 0.424967
v 1.089783 -0.001306 0.425367
v 1.092550 -0.001964 0.425103
v 1.092402 0.001476 0.423141
v 1.093452 0.000786 0.426113
v 1.091247 -0.000882 0.428357
v 1.090974 0.001934 0.427226
v 1.088516 0.001047 0.428026
v 1.086360 0.001856 0.425156
v 1.085403 0.000037 0.424419
v 1.086187 -0.001880 0.425401
v 1.089013 -0.000983 0.427389
v 1.089401 -0.001990 0.432050
v 1.090648 0.000020 0.432558
v 1.088939 0.001978 0.432992
v 1.087511 0.001042 0.429669
v 1.086935 -0.001237 0.430382
v 1.087440 -0.000763 0.433965
v 1.082066 0.000177 0.431334
v 1.080384 0.001999 0.427059
v 1.080196 -0.001993 0.428920
v 1.082150 -0.000844 0.426959
v 1.078538 0.000847 0.428550
v 1.078125 -0.000804 0.425144
v 1.082113 0.000566 0.424125
v 1.076134 0.000799 0.421935
v 1.080252 -0.001385 0.421911
v 1.078910 0.001936 0.421054
v 1.077143 -0.001914 0.421443
v 1.078430 -0.000828 0.418262
v 1.079107 0.001506 0.418674
v 1.085184 0.001947 0.421230
v 1.083321 0.001103 0.418873
v 1.086044 -0.000030 0.422239
v 1.086091 -0.001971 0.420540
v 1.083810 -0.001679 0.419470
v 1.082296 -0.000665 0.419830
v 1.087067 0.000805 0.419497
v 1.081222 0.000949 0.415615
v 1.082012 -0.001727 0.416187
v 1.081382 0.001992 0.418350
v 1.078196 0.000877 0.416849
v 1.077610 -0.001315 0.417534
v 1.076950 0.002004 0.419051
v 1.076530 -0.001953 0.420103
v 1.077397 0.000849 0.421056
v 1.074191 0.000785 0.418932
v 1.073619 0.000745 0.414915
v 1.074133 -0.001389 0.414655
v 1.073850 -0.001852 0.410563
v 1.074811 0.000765 0.410881
v 1.070941 -0.001324 0.412769
v 1.071934 0.002011 0.412015
v 1.071430 0.000652 0.408694
v 1.073103 -0.000966 0.407332
v 1.074078 0.001957 0.407983
v 1.078580 0.000863 0.405621
v 1.076829 -0.000879 0.408710
v 1.078840 0.002001 0.403707
v 1.078150 -0.001988 0.404137
v 1.076591 -0.000794 0.401666
v 1.076920 0.001451 0.402068
v 1.081996 0.001142 0.400809
v 1.082549 0.000766 0.404886
v 1.083069 -0.002101 0.402730
v 1.082906 -0.000648 0.399739
v 1.084601 0.000716 0.403305
v 1.091804 -0.000849 0.400137
v 1.090680 0.000624 0.396155
v 1.091235 0.001944 0.399229
v 1.089620 -0.001915 0.397848
v 1.103479 0.001438 0.401292
v 1.104272 -0.000616 0.401777
v 1.103310 -0.000847 0.397728
v 1.104366 0.001981 0.398914
v 1.104311 -0.001958 0.398779
v 1.106680 0.001137 0.399165
v 1.106974 -0.000949 0.399349
v 1.104588 0.001506 0.396500
v 1.104907 -0.000670 0.395691
v 1.109282 -0.001444 0.395294
v 1.108877 0.001918 0.396299
v 1.109288 0.001717 0.400610
v 1.108335 -0.000730 0.441520
v 1.107762 0.001541 0.441249
v 1.104777 -0.000072 0.439016
v 1.106566 -0.001979 0.438790
v 1.100842 -0.001952 0.442828
v 1.098339 0.001669 0.443694
v 1.099113 -0.000305 0.439977
v 1.089280 0.001895 0.440056
v 1.092251 0.001499 0.439202
v 1.089507 -0.001022 0.441405
v 1.092289 -0.001731 0.438825
v 1.088718 -0.001557 0.439261
v 1.092807 -0.000923 0.440082
v 1.092611 -0.000729 0.435703
v 1.093154 0.001919 0.437272
v 1.096167 -0.000748 0.437149
v 1.095060 0.000815 0.440907
v 1.105806 0.001977 0.440155
v 1.104061 0.000776 0.437571
v 1.105640 -0.000799 0.441431
v 1.108382 0.000657 0.437751
vn 0.0009 0.9799 0.1995
vn 0.0476 0.8550 0.5163
vn 0.5747 0.7994 0.1751
vn -0.1022 -0.9943 0.0294
vn -0.3572 0.4679 -0.8083
vn 0.3756 -0.9172 0.1326
vn -0.0109 -0.9965 -0.0827
vn 0.9284 -0.1690 0.3309
vn 0.1277 -0.2559 0.9582
vn -0.0222 -0.5418 0.8402
vn 0.0409 0.9831 0.1781
vn -0.1269 -0.8403 -0.5270
vn -0.1411 0.3024 -0.9427
vn 0.0460 0.0530 0.9975
vn 0.0400 0.9453 -0.3237
vn 0.0183 -0.9348 -0.3548
vn 0.3388 0.7805 0.5253
vn 0.2776 0.1990 -0.9398
vn -0.4262 0.8441 -0.3255
vn 0.2807 -0.8027 0.5261
vn -0.4686 -0.8717 -0.1431
vn -0.8071 -0.1588 -0.5686
vn -0.0036 0.9998 0.0197
vn 0.3540 -0.8830 0.3082
vn 0.7664 0.2603 0.5872
vn -0.5455 -0.3152 -0.7765
vn 0.0512 -0.9278 0.3696
vn -0.1785 0.2791 0.9435
vn 0.1344 0.9469 -0.2920
vn 0.1800 -0.6992 0.6919
vn -0.1313 0.9909 -0.0296
vn 0.0628 -0.2329 -0.9705
vn -0.6324 0.4052 -0.6601
vn -0.6094 -0.7895 -0.0721
vn -0.9126 0.3250 0.2480
vn 0.9149 -0.3931 0.0919
vn -0.0128 -0.9992 0.0383
vn 0.6212 0.7828 0.0359
vn -0.8086 0.5245 -0.2663
vn 0.0477 0.9983 -0.0320
vn 0.0807 -0.9952 -0.0555
vn -0.6873 0.6074 -0.3983
vn -0.5425 -0.7957 -0.2693
vn -0.8755 0.2785 0.3948
vn -0.0751 0.5969 0.7988
vn -0.2147 -0.7518 0.6234
vn 0.1609 0.7602 -0.6294
vn -0.2042 -0.1398 0.9689
vn -0.0553 -0.6393 -0.7669
vn 0.8488 -0.2264 -0.4778
vn -0.7249 -0.6845 -0.0764
vn 0.0600 0.9981 -0.0105
vn 0.4502 -0.8119 0.3715
vn -0.1035 0.9574 -0.2696
vn 0.7628 0.3771 0.5253
vn 0.0320 -0.9048 0.4247
vn -0.3923 0.2628 0.8814
vn -0.1694 -0.9757 0.1390
vn -0.0961 0.3473 -0.9328
vn -0.1099 -0.8283 -0.5494
vn -0.8803 0.2855 -0.3788
vn -0.3292 0.8741 0.3570
vn -0.5578 -0.8125 0.1690
vn -0.6910 0.0080 0.7228
vn 0.0882 0.9961 -0.0071
vn -0.1617 -0.8597 -0.4845
vn 0.5918 0.5126 -0.6222
vn 0.6128 -0.7824 -0.1110
vn 0.2208 0.8592 0.4615
vn 0.9282 0.2847 0.2394
vn 0.2846 -0.3951 0.8734
vn 0.4917 0.8399 0.2297
vn 0.2084 -0.8526 0.4792
vn -0.4796 0.8054 -0.3482
vn -0.7572 0.0171 -0.6529
vn -0.4784 -0.8032 -0.3548
vn 0.4228 -0.8681 0.2601
vn 0.9325 0.0492 0.3577
vn -0.6447 0.7430 -0.1795
vn -0.1507 -0.8884 -0.4335
vn -0.1458 -0.3487 0.9258
vn 0.3140 0.7996 0.5119
vn -0.4714 0.1372 0.8712
vn -0.0472 0.9987 0.0211
vn -0.3708 -0.8661 0.3351
vn 0.6960 -0.5243 -0.4906
vn -0.8269 0.3869 0.4081
vn -0.8119 -0.4901 0.3172
vn 0.3215 -0.8035 0.5011
vn 0.9291 0.2616 -0.2611
vn -0.9390 0.3439 0.0049
vn -0.3999 -0.3692 -0.8389
vn -0.5798 -0.8137 -0.0423
vn -0.0816 0.9966 -0.0035
vn -0.2621 0.6666 -0.6977
vn 0.5791 -0.8079 0.1093
vn -0.1651 0.8982 0.4074
vn 0.2492 0.8696 0.4262
vn 0.5073 -0.0113 0.8617
vn 0.9009 0.3141 -0.2994
vn 0.1284 0.9762 0.1748
vn 0.1723 -0.7196 -0.6727
vn -0.1630 -0.9817 0.0978
vn 0.2446 0.5719 -0.7830
vn 0.0270 0.4182 -0.9079
vn -0.1168 0.9766 0.1805
vn 0.1731 -0.2838 0.9431
vn -0.2806 -0.7697 0.5734
vn -0.1101 0.3336 0.9362
vn -0.8446 0.2905 0.4497
vn -0.6151 -0.7136 0.3353
vn -0.8395 0.1314 0.5272
vn -0.5039 0.8490 0.1587
vn 0.1768 -0.9842 0.0056
vn 0.8156 0.5654 0.1233
vn -0.8197 -0.4818 0.3099
vn -0.8412 0.2271 -0.4906
vn -0.6899 -0.4821 -0.5399
vn -0.1948 0.9591 -0.2051
vn 0.7534 -0.3573 0.5520
vn -0.5282 -0.3935 -0.7524
vn 0.5808 0.3551 0.7324
vn 0.0662 0.9942 0.0846
vn 0.0865 -0.9872 0.1335
vn -0.4615 0.6384 -0.6160
vn 0.0531 -0.9687 0.2422
vn -0.3668 0.4636 -0.8065
vn 0.4082 0.2879 0.8662
vn -0.6495 -0.3691 -0.6647
vn 0.4103 0.2902 0.8645
vn -0.1282 0.2760 -0.9525
vn 0.0486 0.9597 0.2768
vn -0.3271 -0.3381 -0.8824
vn -0.0728 -0.8985 -0.4328
vn 0.1158 -0.4650 0.8777
vn 0.1340 0.6650 0.7347
vn -0.0346 0.9973 -0.0642
vn 0.0010 -1.0000 0.0018
vn 0.2712 -0.3421 0.8997
vn -0.4037 -0.2991 -0.8646
vn -0.4999 0.6305 -0.5937
vn 0.4561 0.7350 -0.5017
vn 0.5122 -0.4774 -0.7140
vn 0.7503 -0.3752 0.5443
vn 0.0292 -0.8344 0.5503
vn 0.3736 -0.8251 -0.4238
vn 0.5765 0.6739 0.4620
vn -0.0374 0.6882 0.7245
vn 0.2710 0.3119 -0.9106
vn 0.0423 0.0338 -0.9985
vn 0.1859 0.9779 -0.0955
vn -0.5694 -0.3804 0.7287
vn -0.1044 -0.9717 -0.2116
vn -0.8126 -0.5445 -0.2080
vn 0.0326 0.9985 0.0436
vn -0.6774 0.7289 0.0990
vn -0.1313 -0.2758 -0.9522
vn -0.0725 0.8671 -0.4927
vn 0.0838 -0.4542 -0.8869
vn -0.5000 -0.3887 0.7738
vn -0.1644 0.4255 0.8899
vn 0.1093 0.3631 -0.9253
vn 0.6076 -0.2658 0.7484
vn 0.6897 0.2180 -0.6904
vn 0.1975 -0.8556 -0.4784
usemtl SVGMat.3781
s 1
f 138//1 6//2 144//3
f 139//4 3//5 138//1
f 2//6 4//7 139//4
f 1//8 4//7 2//6
f 144//3 5//9 1//8
f 6//2 7//10 5//9
f 3//5 8//11 6//2
f 7//10 10//12 4//7
f 4//7 9//13 3//5
f 8//11 11//14 7//10
f 9//13 12//15 8//11
f 10//12 12//15 9//13
f 7//10 13//16 10//12
f 12//15 14//17 11//14
f 13//16 16//18 12//15
f 16//18 17//19 12//15
f 15//20 19//21 13//16
f 13//16 18//22 16//18
f 19//21 18//22 13//16
f 18//22 21//23 17//19
f 14//17 23//24 15//20
f 17//19 20//25 14//17
f 19//21 22//26 18//22
f 15//20 23//24 19//21
f 20//25 26//27 23//24
f 21//23 24//28 20//25
f 22//26 25//29 21//23
f 24//28 27//30 26//27
f 25//29 28//31 24//28
f 26//27 29//32 22//26
f 29//32 30//33 25//29
f 27//30 31//34 26//27
f 31//34 32//35 30//33
f 36//36 35//37 31//34
f 32//35 33//38 28//31
f 33//38 36//36 27//30
f 35//37 34//39 32//35
f 33//38 37//40 36//36
f 37//40 40//41 36//36
f 34//39 38//42 33//38
f 36//36 39//43 35//37
f 39//43 38//42 34//39
f 39//43 41//44 38//42
f 41//44 43//45 38//42
f 42//46 43//45 41//44
f 40//41 42//46 39//43
f 43//45 44//47 37//40
f 42//46 45//48 43//45
f 40//41 46//49 42//46
f 44//47 46//49 40//41
f 44//47 47//50 46//49
f 48//51 49//52 45//48
f 46//49 48//51 45//48
f 47//50 50//53 46//49
f 48//51 54//54 49//52
f 51//55 52//56 50//53
f 49//52 53//57 51//55
f 50//53 52//56 48//51
f 53//57 60//58 52//56
f 48//51 55//59 54//54
f 52//56 55//59 48//51
f 56//60 58//61 55//59
f 55//59 57//62 54//54
f 60//58 59//63 56//60
f 54//54 60//58 53//57
f 59//63 61//64 58//61
f 61//64 57//62 58//61
f 61//64 62//65 57//62
f 59//63 63//66 61//64
f 62//65 65//67 57//62
f 60//58 64//68 59//63
f 54//54 65//67 60//58
f 65//67 64//68 60//58
f 62//65 68//69 65//67
f 66//70 67//71 64//68
f 68//69 69//72 67//71
f 69//72 73//73 67//71
f 62//65 70//74 68//69
f 63//66 71//75 62//65
f 64//68 72//76 63//66
f 67//71 72//76 64//68
f 73//73 74//77 72//76
f 69//72 75//78 73//73
f 71//75 77//79 70//74
f 72//76 78//80 71//75
f 74//77 78//80 72//76
f 75//78 79//81 74//77
f 76//82 79//81 75//78
f 76//82 80//83 79//81
f 77//79 81//84 76//82
f 80//83 82//85 74//77
f 82//85 83//86 78//80
f 81//84 84//87 80//83
f 84//87 85//88 82//85
f 85//88 88//89 82//85
f 83//86 86//90 81//84
f 81//84 87//91 85//88
f 87//91 91//92 90//93
f 89//94 92//95 87//91
f 91//92 96//96 90//93
f 92//95 94//97 91//92
f 93//98 94//97 92//95
f 88//89 93//98 89//94
f 95//99 99//100 93//98
f 96//96 99//100 95//99
f 99//100 102//101 93//98
f 96//96 101//102 99//100
f 97//103 101//102 96//96
f 101//102 103//104 100//105
f 103//104 105//106 102//101
f 98//107 106//108 101//102
f 105//106 107//109 102//101
f 105//106 108//110 107//109
f 108//110 110//111 106//108
f 105//106 109//112 108//110
f 103//104 114//113 105//106
f 111//114 112//115 103//104
f 110//111 113//116 111//114
f 109//112 113//116 110//111
f 115//117 116//118 113//116
f 112//115 117//119 114//113
f 116//118 111//114 113//116
f 111//114 119//120 112//115
f 117//119 122//121 116//118
f 118//122 120//123 117//119
f 116//118 121//124 111//114
f 120//123 123//125 117//119
f 122//121 126//126 121//124
f 123//125 124//127 122//121
f 120//123 124//127 123//125
f 118//122 125//128 120//123
f 121//124 125//128 118//122
f 124//127 127//129 126//126
f 126//126 128//130 125//128
f 124//127 130//131 127//129
f 131//132 130//131 124//127
f 130//131 135//133 132//134
f 129//135 133//136 131//132
f 131//132 136//137 130//131
f 133//136 136//137 131//132
f 135//133 137//138 132//134
f 137//138 134//139 129//135
f 134//139 138//1 133//136
f 137//138 139//4 134//139
f 135//133 141//140 137//138
f 140//141 141//140 135//133
f 138//1 143//142 136//137
f 141//140 142//143 137//138
f 140//141 142//143 141//140
f 143//142 1//8 142//143
f 138//1 144//3 143//142
f 1//8 2//6 142//143
f 145//144 149//145 148//146
f 146//147 150//148 145//144
f 147//149 151//150 162//151
f 150//148 154//152 149//145
f 149//145 155//153 151//150
f 154//152 156//154 149//145
f 153//155 152//156 150//148
f 152//156 154//152 150//148
f 152//156 156//154 154//152
f 152//156 158//157 156//154
f 153//155 159//158 152//156
f 159//158 160//159 158//157
f 157//160 161//161 153//155
f 161//161 162//151 159//158
f 160//159 148//146 155//153
f 159//158 163//162 160//159
f 162//151 163//162 159//158
f 157//160 164//163 161//161
f 148//146 164//163 157//160
f 162//151 165//164 163//162
f 165//164 145//144 148//146
f 162//151 146//147 165//164
f 146//147 145//144 165//164
f 138//1 3//5 6//2
f 139//4 4//7 3//5
f 144//3 6//2 5//9
f 1//8 5//9 4//7
f 6//2 8//11 7//10
f 5//9 7//10 4//7
f 3//5 9//13 8//11
f 4//7 10//12 9//13
f 8//11 12//15 11//14
f 10//12 13//16 12//15
f 7//10 11//14 13//16
f 11//14 14//17 15//20
f 11//14 15//20 13//16
f 12//15 17//19 14//17
f 16//18 18//22 17//19
f 14//17 20//25 23//24
f 17//19 21//23 20//25
f 18//22 22//26 21//23
f 19//21 23//24 22//26
f 20//25 24//28 26//27
f 21//23 25//29 24//28
f 23//24 26//27 22//26
f 24//28 28//31 27//30
f 22//26 29//32 25//29
f 25//29 30//33 28//31
f 26//27 31//34 29//32
f 29//32 31//34 30//33
f 30//33 32//35 28//31
f 28//31 33//38 27//30
f 27//30 36//36 31//34
f 32//35 34//39 33//38
f 31//34 35//37 32//35
f 33//38 38//42 37//40
f 35//37 39//43 34//39
f 36//36 40//41 39//43
f 39//43 42//46 41//44
f 38//42 43//45 37//40
f 37//40 44//47 40//41
f 43//45 45//48 44//47
f 42//46 46//49 45//48
f 45//48 49//52 44//47
f 44//47 51//55 47//50
f 44//47 49//52 51//55
f 46//49 50//53 48//51
f 47//50 51//55 50//53
f 49//52 54//54 53//57
f 51//55 53//57 52//56
f 52//56 60//58 56//60
f 52//56 56//60 55//59
f 55//59 58//61 57//62
f 56//60 59//63 58//61
f 61//64 63//66 62//65
f 57//62 65//67 54//54
f 59//63 64//68 63//66
f 65//67 66//70 64//68
f 65//67 68//69 66//70
f 66//70 68//69 67//71
f 68//69 70//74 69//72
f 62//65 71//75 70//74
f 63//66 72//76 71//75
f 67//71 73//73 72//76
f 70//74 76//82 69//72
f 73//73 75//78 74//77
f 69//72 76//82 75//78
f 70//74 77//79 76//82
f 71//75 78//80 77//79
f 79//81 80//83 74//77
f 76//82 81//84 80//83
f 74//77 82//85 78//80
f 78//80 83//86 77//79
f 77//79 83//86 81//84
f 80//83 84//87 82//85
f 82//85 88//89 83//86
f 84//87 81//84 85//88
f 83//86 88//89 86//90
f 85//88 87//91 90//93
f 86//90 89//94 81//84
f 86//90 88//89 89//94
f 85//88 90//93 88//89
f 81//84 89//94 87//91
f 87//91 92//95 91//92
f 89//94 93//98 92//95
f 90//93 96//96 88//89
f 91//92 94//97 97//103
f 88//89 95//99 93//98
f 88//89 96//96 95//99
f 91//92 97//103 96//96
f 94//97 98//107 97//103
f 93//98 102//101 94//97
f 99//100 100//105 102//101
f 99//100 101//102 100//105
f 94//97 102//101 98//107
f 97//103 98//107 101//102
f 100//105 103//104 102//101
f 101//102 104//165 103//104
f 101//102 106//108 104//165
f 102//101 107//109 98//107
f 98//107 107//109 106//108
f 107//109 108//110 106//108
f 108//110 109//112 110//111
f 106//108 111//114 104//165
f 106//108 110//111 111//114
f 104//165 111//114 103//104
f 105//106 114//113 109//112
f 103//104 112//115 114//113
f 109//112 114//113 113//116
f 114//113 115//117 113//116
f 114//113 117//119 115//117
f 115//117 117//119 116//118
f 112//115 118//122 117//119
f 112//115 119//120 118//122
f 111//114 121//124 119//120
f 119//120 121//124 118//122
f 116//118 122//121 121//124
f 117//119 123//125 122//121
f 122//121 124//127 126//126
f 121//124 126//126 125//128
f 125//128 128//130 120//123
f 126//126 129//135 128//130
f 128//130 131//132 120//123
f 128//130 129//135 131//132
f 127//129 132//134 126//126
f 127//129 130//131 132//134
f 120//123 131//132 124//127
f 126//126 132//134 129//135
f 129//135 134//139 133//136
f 130//131 136//137 135//133
f 132//134 137//138 129//135
f 133//136 138//1 136//137
f 134//139 139//4 138//1
f 136//137 140//141 135//133
f 136//137 143//142 140//141
f 137//138 142//143 139//4
f 140//141 143//142 142//143
f 143//142 144//3 1//8
f 142//143 2//6 139//4
f 162//151 150//148 146//147
f 148//146 151//150 147//149
f 148//146 149//145 151//150
f 145//144 150//148 149//145
f 162//151 151//150 150//148
f 149//145 156//154 155//153
f 151//150 153//155 150//148
f 151//150 155//153 153//155
f 155//153 157//160 153//155
f 152//156 159//158 158//157
f 156//154 158//157 155//153
f 158//157 160//159 155//153
f 153//155 161//161 159//158
f 155//153 148//146 157//160
f 160//159 163//162 148//146
f 161//161 164//163 162//151
f 163//162 165//164 148//146
f 164//163 147//149 162//151
f 164//163 148//146 147//149
