# Blender v2.79 (sub 0) OBJ File: 'world_countrycodes_outlines2.blend'
# www.blender.org
mtllib GT_outline.mtl
o GT.001_CUCurve.1613
v 0.444485 -0.001927 0.570605
v 0.444249 0.000824 0.569381
v 0.444772 0.000061 0.574569
v 0.443539 0.001717 0.572813
v 0.436239 -0.000614 0.572720
v 0.436532 0.001940 0.571456
v 0.437910 0.000807 0.568990
v 0.437638 -0.001970 0.570162
v 0.431005 0.001989 0.564956
v 0.428929 -0.001869 0.565221
v 0.432824 -0.000649 0.564754
v 0.427649 0.000776 0.565246
v 0.434241 0.001918 0.558086
v 0.435284 -0.001913 0.559783
v 0.433886 -0.000521 0.556972
v 0.435783 0.000768 0.560971
v 0.443742 0.001936 0.558554
v 0.441716 -0.001924 0.557838
v 0.440378 0.000844 0.557247
v 0.443643 -0.000948 0.560050
v 0.444246 -0.000659 0.556324
v 0.436008 0.000705 0.552919
v 0.439379 0.001925 0.550727
v 0.440713 -0.000422 0.550717
v 0.439218 -0.001993 0.552779
v 0.436620 -0.001454 0.552861
v 0.438482 0.000707 0.546758
v 0.438938 -0.001900 0.547837
v 0.447600 0.000818 0.550363
v 0.450633 0.001857 0.547406
v 0.450522 -0.002062 0.547527
v 0.451024 0.001508 0.557868
v 0.447113 0.000153 0.562346
v 0.453586 -0.000844 0.558699
v 0.452838 0.001923 0.559831
v 0.450305 0.000700 0.561474
v 0.450605 -0.001847 0.559894
v 0.452903 -0.002003 0.561350
v 0.452681 -0.000753 0.563356
v 0.452666 0.001877 0.562330
v 0.461964 0.000163 0.554713
v 0.447592 0.000851 0.566007
v 0.448840 -0.001769 0.565604
v 0.450358 0.001944 0.566479
v 0.450706 0.000760 0.569324
v 0.450959 -0.001135 0.567660
vn 0.2786 0.9482 0.1525
vn 0.2643 -0.0673 0.9621
vn 0.7819 0.3280 0.5301
vn 0.6845 -0.5926 0.4246
vn -0.0500 -0.9893 -0.1365
vn -0.3562 -0.7873 -0.5032
vn -0.3674 0.4810 -0.7960
vn -0.6264 0.4006 -0.6687
vn 0.0293 0.9293 0.3680
vn -0.3661 -0.2985 0.8814
vn -0.1815 0.8896 0.4191
vn 0.3705 0.4445 -0.8156
vn 0.1191 -0.9756 -0.1841
vn -0.0036 0.9999 0.0117
vn 0.8337 -0.5474 -0.0721
vn -0.5992 -0.7967 0.0793
vn -0.2420 0.8480 -0.4715
vn -0.9513 0.2933 0.0949
vn 0.0725 -0.9858 0.1511
vn -0.4216 -0.2814 -0.8620
vn 0.4547 0.4754 0.7531
vn 0.6007 0.7523 0.2705
vn 0.0966 -0.9952 0.0153
vn 0.9116 -0.3054 -0.2752
vn 0.6166 -0.3640 0.6980
vn -0.5272 0.7855 -0.3240
vn -0.7604 -0.6310 0.1537
vn -0.9106 0.3742 0.1757
vn -0.0338 0.9993 -0.0147
vn 0.1214 -0.9904 -0.0653
vn -0.3361 -0.8185 -0.4659
vn -0.5191 0.3263 -0.7899
vn 0.5012 -0.7219 -0.4771
vn 0.6752 -0.6514 0.3460
vn -0.4342 0.4257 0.7938
vn 0.5657 0.6254 -0.5375
vn 0.3735 0.8693 -0.3238
vn -0.6709 0.0403 0.7404
vn -0.1118 -0.5088 -0.8536
vn -0.1309 -0.9901 0.0514
vn 0.0110 0.9586 -0.2845
vn 0.0167 -0.9967 0.0788
vn -0.9419 0.0923 -0.3229
vn -0.2291 0.3441 0.9105
vn 0.8003 0.0109 -0.5995
vn -0.1875 0.9787 0.0835
usemtl SVGMat.3781
s 1
f 44//1 3//2 45//3
f 46//4 1//5 43//6
f 1//5 2//7 42//8
f 2//7 4//9 44//1
f 4//9 5//10 3//2
f 2//7 6//11 4//9
f 1//5 7//12 2//7
f 3//2 8//13 1//5
f 7//12 9//14 6//11
f 8//13 11//15 7//12
f 11//15 9//14 7//12
f 10//16 11//15 8//13
f 9//14 13//17 12//18
f 10//16 14//19 11//15
f 12//18 15//20 10//16
f 13//17 15//20 12//18
f 11//15 16//21 9//14
f 14//19 16//21 11//15
f 16//21 17//22 13//17
f 18//23 21//24 20//25
f 19//26 26//27 18//23
f 17//22 22//28 19//26
f 21//24 23//29 17//22
f 18//23 25//30 21//24
f 22//28 28//31 26//27
f 23//29 27//32 22//28
f 27//32 31//33 28//31
f 24//34 29//35 23//29
f 23//29 30//36 27//32
f 29//35 30//36 23//29
f 28//31 31//33 24//34
f 30//36 31//33 27//32
f 30//36 32//37 31//33
f 29//35 32//37 30//36
f 33//38 29//35 31//33
f 32//37 34//39 37//40
f 33//38 35//41 32//37
f 34//39 38//42 37//40
f 37//40 39//43 36//44
f 38//42 39//43 37//40
f 35//41 41//45 34//39
f 40//46 41//45 35//41
f 39//43 42//8 40//46
f 38//42 43//6 39//43
f 40//46 44//1 41//45
f 42//8 44//1 40//46
f 46//4 43//6 38//42
f 44//1 45//3 46//4
f 45//3 3//2 46//4
f 42//8 2//7 44//1
f 44//1 4//9 3//2
f 46//4 3//2 1//5
f 4//9 6//11 5//10
f 2//7 7//12 6//11
f 1//5 8//13 7//12
f 3//2 5//10 8//13
f 5//10 10//16 8//13
f 6//11 12//18 5//10
f 6//11 9//14 12//18
f 5//10 12//18 10//16
f 10//16 15//20 14//19
f 9//14 16//21 13//17
f 13//17 19//26 15//20
f 14//19 20//25 16//21
f 15//20 18//23 14//19
f 13//17 17//22 19//26
f 14//19 18//23 20//25
f 15//20 19//26 18//23
f 16//21 20//25 17//22
f 20//25 21//24 17//22
f 19//26 22//28 26//27
f 17//22 23//29 22//28
f 21//24 24//34 23//29
f 21//24 25//30 24//34
f 18//23 26//27 25//30
f 22//28 27//32 28//31
f 26//27 28//31 25//30
f 25//30 28//31 24//34
f 24//34 31//33 29//35
f 32//37 37//40 31//33
f 29//35 33//38 32//37
f 37//40 33//38 31//33
f 32//37 35//41 34//39
f 33//38 36//44 35//41
f 33//38 37//40 36//44
f 36//44 40//46 35//41
f 36//44 39//43 40//46
f 39//43 43//6 42//8
f 34//39 41//45 38//42
f 41//45 44//1 46//4
f 41//45 46//4 38//42
f 43//6 1//5 42//8
