# Blender v2.79 (sub 0) OBJ File: 'world_countrycodes_export2.blend'
# www.blender.org
mtllib GW.mtl
o GW.002_CUCurve.1868
v 0.876880 0.000000 0.585317
v 0.878338 0.000000 0.584430
v 0.878951 0.000000 0.584283
v 0.879570 0.000000 0.584403
v 0.880371 0.000000 0.584247
v 0.880901 0.000000 0.583893
v 0.881181 0.000000 0.583433
v 0.880311 0.000000 0.581881
v 0.880304 0.000000 0.581106
v 0.881118 0.000000 0.580588
v 0.881592 0.000000 0.580094
v 0.881918 0.000000 0.579473
v 0.882029 0.000000 0.578658
v 0.880824 0.000000 0.578294
v 0.872317 0.000000 0.578953
v 0.870929 0.000000 0.579732
v 0.869066 0.000000 0.580240
v 0.868744 0.000000 0.580072
v 0.868462 0.000000 0.579589
v 0.868104 0.000000 0.579298
v 0.867240 0.000000 0.579244
v 0.866302 0.000000 0.579432
v 0.867684 0.000000 0.581222
v 0.869019 0.000000 0.582288
v 0.871386 0.000000 0.583119
v 0.871991 0.000000 0.583553
v 0.872192 0.000000 0.584157
v 0.872084 0.000000 0.585431
v 0.872241 0.000000 0.586181
v 0.872714 0.000000 0.586796
v 0.873932 0.000000 0.587677
v 0.874375 0.000000 0.587228
v 0.876880 0.050000 0.585317
v 0.872241 0.050000 0.586181
v 0.872084 0.050000 0.585431
v 0.869066 0.050000 0.580240
v 0.868744 0.050000 0.580072
v 0.881592 0.050000 0.580094
v 0.881918 0.050000 0.579473
v 0.872317 0.050000 0.578953
v 0.878951 0.050000 0.584283
v 0.879570 0.050000 0.584403
v 0.880371 0.050000 0.584247
v 0.872192 0.050000 0.584157
v 0.880304 0.050000 0.581106
v 0.867684 0.050000 0.581222
v 0.882029 0.050000 0.578658
v 0.880824 0.050000 0.578294
v 0.880901 0.050000 0.583893
v 0.881118 0.050000 0.580588
v 0.868104 0.050000 0.579298
v 0.867240 0.050000 0.579244
v 0.880311 0.050000 0.581881
v 0.866302 0.050000 0.579432
v 0.881181 0.050000 0.583433
v 0.868462 0.050000 0.579589
v 0.871386 0.050000 0.583119
v 0.871991 0.050000 0.583553
v 0.872714 0.050000 0.586796
v 0.873932 0.050000 0.587677
v 0.870929 0.050000 0.579732
v 0.878338 0.050000 0.584430
v 0.869019 0.050000 0.582288
v 0.874375 0.050000 0.587228
vn 0.0000 -1.0000 0.0000
vn 0.0000 1.0000 -0.0000
vn -0.5862 0.0000 0.8102
vn -0.7925 0.0000 0.6099
vn 0.1919 0.0000 0.9814
vn 0.0630 0.0000 -0.9980
vn 0.8536 0.0000 0.5209
vn 0.7218 0.0000 0.6921
vn 1.0000 0.0000 -0.0082
vn 0.7114 0.0000 0.7027
vn -0.9789 0.0000 0.2044
vn 0.8721 0.0000 -0.4893
vn -0.2631 0.0000 -0.9648
vn 0.4615 0.0000 -0.8872
vn 0.5199 0.0000 0.8543
vn 0.5365 0.0000 0.8439
vn -0.5828 0.0000 0.8126
vn 0.6065 0.0000 0.7951
vn -0.6241 0.0000 0.7813
vn -0.7916 0.0000 0.6111
vn 0.6299 0.0000 -0.7767
vn -0.1914 0.0000 0.9815
vn -0.1972 0.0000 -0.9804
vn 0.8855 0.0000 0.4647
vn -0.9965 0.0000 -0.0841
vn -0.3312 0.0000 0.9435
vn -0.9489 0.0000 0.3156
vn 0.2896 0.0000 -0.9572
vn -0.4894 0.0000 -0.8720
vn -0.0772 0.0000 -0.9970
vn 0.2339 0.0000 0.9723
vn 0.9909 0.0000 0.1347
vn 0.8640 0.0000 -0.5035
vn 0.5550 0.0000 0.8319
usemtl SVGMat.3781
s off
f 15//1 14//1 13//1
f 15//1 13//1 12//1
f 16//1 15//1 12//1
f 22//1 21//1 20//1
f 22//1 20//1 19//1
f 22//1 19//1 18//1
f 16//1 12//1 11//1
f 23//1 22//1 18//1
f 17//1 16//1 11//1
f 23//1 18//1 17//1
f 23//1 17//1 11//1
f 23//1 11//1 10//1
f 23//1 10//1 9//1
f 23//1 9//1 8//1
f 24//1 23//1 8//1
f 24//1 8//1 7//1
f 25//1 24//1 7//1
f 26//1 25//1 7//1
f 26//1 7//1 6//1
f 27//1 26//1 6//1
f 27//1 6//1 5//1
f 27//1 5//1 3//1
f 27//1 3//1 2//1
f 4//1 3//1 5//1
f 27//1 2//1 1//1
f 28//1 27//1 1//1
f 29//1 28//1 1//1
f 29//1 1//1 32//1
f 30//1 29//1 32//1
f 31//1 30//1 32//1
f 40//2 47//2 48//2
f 40//2 39//2 47//2
f 61//2 39//2 40//2
f 54//2 51//2 52//2
f 54//2 56//2 51//2
f 54//2 37//2 56//2
f 61//2 38//2 39//2
f 46//2 37//2 54//2
f 36//2 38//2 61//2
f 46//2 36//2 37//2
f 46//2 38//2 36//2
f 46//2 50//2 38//2
f 46//2 45//2 50//2
f 46//2 53//2 45//2
f 63//2 53//2 46//2
f 63//2 55//2 53//2
f 57//2 55//2 63//2
f 58//2 55//2 57//2
f 58//2 49//2 55//2
f 44//2 49//2 58//2
f 44//2 43//2 49//2
f 44//2 41//2 43//2
f 44//2 62//2 41//2
f 42//2 43//2 41//2
f 44//2 33//2 62//2
f 35//2 33//2 44//2
f 34//2 33//2 35//2
f 34//2 64//2 33//2
f 59//2 64//2 34//2
f 60//2 64//2 59//2
f 30//3 31//3 60//3 59//3
f 29//4 30//4 59//4 34//4
f 4//5 5//5 43//5 42//5
f 20//6 21//6 52//6 51//6
f 6//7 7//7 55//7 49//7
f 10//8 11//8 38//8 50//8
f 8//9 9//9 45//9 53//9
f 31//10 32//10 64//10 60//10
f 28//11 29//11 34//11 35//11
f 7//12 8//12 53//12 55//12
f 16//13 17//13 36//13 61//13
f 17//14 18//14 37//14 36//14
f 1//15 2//15 62//15 33//15
f 9//16 10//16 50//16 45//16
f 25//17 26//17 58//17 57//17
f 32//18 1//18 33//18 64//18
f 23//19 24//19 63//19 46//19
f 22//20 23//20 46//20 54//20
f 19//21 20//21 51//21 56//21
f 3//22 4//22 42//22 41//22
f 21//23 22//23 54//23 52//23
f 11//24 12//24 39//24 38//24
f 27//25 28//25 35//25 44//25
f 24//26 25//26 57//26 63//26
f 26//27 27//27 44//27 58//27
f 13//28 14//28 48//28 47//28
f 15//29 16//29 61//29 40//29
f 14//30 15//30 40//30 48//30
f 2//31 3//31 41//31 62//31
f 12//32 13//32 47//32 39//32
f 18//33 19//33 56//33 37//33
f 5//34 6//34 49//34 43//34
