# Blender v2.79 (sub 0) OBJ File: 'world_countrycodes_outlines2.blend'
# www.blender.org
mtllib GW_outline.mtl
o GW.001_CUCurve.1694
v 0.872790 0.001958 0.588612
v 0.873982 -0.000821 0.585258
v 0.873736 -0.001752 0.589292
v 0.870184 0.000703 0.584719
v 0.870212 -0.000723 0.586582
v 0.872782 0.001849 0.582800
v 0.873838 -0.000042 0.582265
v 0.872865 -0.001860 0.582882
v 0.868038 -0.001908 0.580254
v 0.867388 -0.000762 0.583646
v 0.866123 0.002002 0.580963
v 0.864963 -0.002015 0.579236
v 0.869937 0.000009 0.580596
v 0.862861 0.000693 0.578156
v 0.868177 0.000770 0.577253
v 0.868374 -0.000497 0.582162
v 0.869371 -0.001366 0.578302
v 0.868217 0.001909 0.580312
v 0.869630 0.000805 0.578085
v 0.868976 0.001458 0.581640
v 0.873028 -0.000954 0.580758
v 0.883114 0.000911 0.576698
v 0.879914 -0.000871 0.579778
v 0.882941 -0.001969 0.579091
v 0.883646 -0.001166 0.577235
v 0.883070 0.000826 0.581321
v 0.881167 0.001974 0.579745
v 0.878267 0.000858 0.580748
v 0.879032 -0.001399 0.582550
v 0.880824 -0.002005 0.583039
v 0.883265 -0.000881 0.583491
v 0.880175 0.001971 0.583775
v 0.882816 0.001109 0.584724
v 0.879272 -0.001410 0.585805
v 0.879003 0.000749 0.586384
v 0.878685 0.000646 0.582305
v 0.873726 0.001360 0.585738
vn -0.2275 0.7151 0.6609
vn -0.7489 -0.3489 0.5634
vn -0.0468 -0.5958 0.8017
vn -0.4726 0.7860 0.3984
vn 0.3508 0.8889 -0.2947
vn 0.3889 0.8702 -0.3025
vn 0.4073 -0.8675 -0.2855
vn 0.4996 -0.7113 -0.4944
vn 0.8191 -0.0045 -0.5736
vn -0.6790 -0.1688 0.7144
vn -0.4186 0.8665 0.2720
vn -0.5124 -0.8368 -0.1928
vn -0.0828 0.9575 -0.2761
vn 0.0463 -0.9838 -0.1733
vn 0.0908 -0.0144 -0.9958
vn -0.8957 0.2058 -0.3940
vn 0.0147 -0.6937 -0.7201
vn 0.0823 0.3381 -0.9375
vn -0.6558 -0.2569 0.7099
vn 0.1312 0.5429 -0.8295
vn -0.1990 0.5945 0.7790
vn 0.1403 -0.5047 0.8518
vn 0.5122 0.4632 -0.7232
vn 0.7021 -0.4607 -0.5429
vn 0.1394 0.9890 -0.0480
vn -0.3529 -0.7627 0.5420
vn 0.5155 -0.8554 0.0498
vn 0.7286 0.4803 0.4882
vn 0.1793 -0.9831 0.0353
vn -0.8859 0.2855 -0.3656
vn -0.5068 -0.7670 -0.3935
vn -0.8885 0.4107 -0.2045
vn 0.8860 -0.4604 0.0553
vn -0.0198 0.9947 0.1004
vn 0.7370 0.4364 0.5160
vn 0.4237 -0.6179 0.6622
vn 0.4364 0.3726 0.8190
usemtl SVGMat.3781
s 1
f 1//1 5//2 3//3
f 1//1 4//4 5//2
f 37//5 6//6 1//1
f 3//3 8//7 2//8
f 5//2 8//7 3//3
f 7//9 6//6 37//5
f 4//4 10//10 5//2
f 6//6 11//11 4//4
f 5//2 12//12 8//7
f 7//9 18//13 6//6
f 9//14 13//15 7//9
f 11//11 14//16 10//10
f 14//16 17//17 12//12
f 11//11 15//18 14//16
f 9//14 16//19 13//15
f 17//17 9//14 12//12
f 18//13 19//20 15//18
f 16//19 20//21 18//13
f 9//14 21//22 16//19
f 22//23 25//24 17//17
f 18//13 22//23 19//20
f 20//21 27//25 18//13
f 23//26 27//25 20//21
f 9//14 23//26 21//22
f 25//24 24//27 9//14
f 22//23 26//28 25//24
f 27//25 26//28 22//23
f 26//28 30//29 24//27
f 23//26 28//30 27//25
f 24//27 29//31 23//26
f 29//31 36//32 28//30
f 26//28 31//33 30//29
f 27//25 31//33 26//28
f 36//32 32//34 28//30
f 33//35 34//36 31//33
f 32//34 35//37 33//35
f 32//34 1//1 35//37
f 30//29 2//8 29//31
f 36//32 1//1 32//34
f 34//36 3//3 30//29
f 35//37 3//3 34//36
f 1//1 3//3 35//37
f 1//1 6//6 4//4
f 2//8 7//9 37//5
f 2//8 8//7 7//9
f 8//7 9//14 7//9
f 4//4 11//11 10//10
f 8//7 12//12 9//14
f 5//2 10//10 12//12
f 6//6 18//13 11//11
f 7//9 13//15 18//13
f 10//10 14//16 12//12
f 14//16 15//18 17//17
f 13//15 16//19 18//13
f 11//11 18//13 15//18
f 15//18 19//20 17//17
f 16//19 21//22 20//21
f 19//20 22//23 17//17
f 21//22 23//26 20//21
f 17//17 25//24 9//14
f 18//13 27//25 22//23
f 9//14 24//27 23//26
f 25//24 26//28 24//27
f 23//26 29//31 28//30
f 24//27 30//29 29//31
f 27//25 33//35 31//33
f 28//30 32//34 27//25
f 27//25 32//34 33//35
f 31//33 34//36 30//29
f 33//35 35//37 34//36
f 29//31 2//8 36//32
f 30//29 3//3 2//8
f 36//32 37//5 1//1
f 36//32 2//8 37//5
