# Blender v2.79 (sub 0) OBJ File: 'world_countrycodes_outlines2.blend'
# www.blender.org
mtllib GY_outline.mtl
o GY.001_CUCurve.058
v 0.620400 0.000804 0.602318
v 0.617982 -0.001995 0.604073
v 0.617728 -0.001531 0.601385
v 0.626719 -0.000915 0.606624
v 0.626251 0.001875 0.607705
v 0.623560 0.000937 0.609078
v 0.624751 -0.002012 0.608115
v 0.627531 0.000746 0.610265
v 0.627183 -0.001386 0.610397
v 0.624816 0.001986 0.611082
v 0.625176 -0.001993 0.611925
v 0.624292 0.000712 0.612894
v 0.627836 -0.000809 0.614464
v 0.630026 0.000753 0.611058
v 0.632571 0.001950 0.617924
v 0.635452 -0.000850 0.616123
v 0.635071 0.001442 0.616452
v 0.631107 0.000036 0.618338
v 0.632505 -0.001971 0.617828
v 0.634708 -0.000745 0.619802
v 0.633842 0.001843 0.622025
v 0.631367 0.001374 0.621387
v 0.630899 -0.000816 0.621234
v 0.634052 -0.001911 0.622056
v 0.634426 -0.000577 0.623879
v 0.630683 0.001409 0.625035
v 0.630824 -0.000941 0.625377
v 0.628679 -0.001822 0.623055
v 0.628888 0.001863 0.622960
v 0.627877 0.000053 0.622422
v 0.630019 0.000759 0.628634
v 0.628281 0.001985 0.629750
v 0.625706 0.000742 0.629211
v 0.626280 -0.001428 0.629214
v 0.628802 -0.001968 0.628934
v 0.633570 0.000676 0.631946
v 0.630561 -0.000595 0.634531
v 0.633122 -0.001402 0.632250
v 0.632419 -0.000794 0.638057
v 0.633366 0.001895 0.639104
v 0.633496 -0.002028 0.640753
v 0.640481 0.000268 0.644121
v 0.633477 0.000645 0.642120
v 0.629835 -0.000864 0.639468
v 0.630280 0.001947 0.642458
v 0.630589 -0.000897 0.643475
v 0.627991 0.000916 0.640424
v 0.628793 -0.001978 0.641804
v 0.629346 0.000694 0.644526
v 0.624905 -0.000799 0.645919
v 0.623794 0.001423 0.645676
v 0.623433 0.002003 0.643314
v 0.623596 -0.000730 0.642022
v 0.623079 -0.001981 0.644271
v 0.620330 -0.000759 0.644861
v 0.619789 0.001399 0.640019
v 0.618644 0.001945 0.642089
v 0.615855 -0.000884 0.639780
v 0.620182 -0.000782 0.639559
v 0.616606 -0.002016 0.635335
v 0.615753 0.001903 0.633965
v 0.618942 -0.000762 0.633770
v 0.615354 -0.000713 0.632026
v 0.617285 0.000790 0.628953
v 0.618522 0.001832 0.632586
v 0.621292 -0.000604 0.629878
v 0.620674 0.001478 0.627831
v 0.619993 -0.001887 0.627621
v 0.618885 0.000080 0.624781
v 0.618428 -0.001917 0.628050
v 0.615197 -0.000684 0.626998
v 0.616379 0.002114 0.625720
v 0.614849 -0.000002 0.623814
v 0.616468 0.002061 0.621686
v 0.617344 -0.000957 0.620249
v 0.613489 0.000825 0.619949
v 0.614895 -0.001978 0.622110
v 0.613093 -0.000743 0.625842
v 0.613076 0.001951 0.624101
v 0.608330 0.001917 0.618402
v 0.610831 0.001442 0.617683
v 0.611489 -0.000647 0.617612
v 0.607018 0.000521 0.617660
v 0.608194 -0.001976 0.617959
v 0.610866 0.001981 0.613864
v 0.611993 -0.000914 0.614778
v 0.609706 -0.001864 0.612768
v 0.608897 0.000815 0.611800
v 0.612649 0.000875 0.611071
v 0.615775 0.001895 0.611418
v 0.616012 -0.001838 0.612207
v 0.612927 -0.001412 0.611147
v 0.615595 0.000655 0.613931
v 0.616755 0.000010 0.610531
v 0.612221 -0.001889 0.607772
v 0.614613 0.001395 0.608516
v 0.615237 -0.000861 0.608509
v 0.610614 -0.000031 0.608458
v 0.611967 0.001886 0.608728
v 0.618071 0.001992 0.604005
v 0.614952 0.000966 0.603889
v 0.618498 0.000023 0.605766
v 0.616800 0.000698 0.600586
vn 0.4398 0.4302 -0.7883
vn 0.7485 -0.3610 -0.5562
vn -0.0658 -0.6766 -0.7334
vn 0.0062 0.9998 -0.0164
vn 0.4903 0.8241 -0.2835
vn 0.0634 -0.0300 0.9975
vn -0.7845 0.4223 0.4541
vn 0.0668 -0.9900 0.1238
vn -0.1483 -0.9869 0.0638
vn 0.6189 0.5189 -0.5897
vn 0.5164 -0.7843 -0.3437
vn -0.3372 0.9371 0.0897
vn -0.4897 -0.8326 0.2587
vn -0.8052 0.1651 0.5695
vn -0.5695 -0.2517 0.7825
vn 0.5143 0.3580 -0.7792
vn -0.2216 0.9748 0.0237
vn -0.0946 -0.9940 0.0555
vn 0.8520 -0.4368 -0.2883
vn 0.7279 0.6467 -0.2279
vn 0.9325 -0.3570 0.0541
vn 0.5441 0.8118 0.2119
vn -0.9713 0.0703 0.2271
vn -0.5054 0.7675 -0.3942
vn -0.6494 -0.5202 -0.5546
vn 0.4730 -0.8735 0.1152
vn 0.7785 -0.1327 0.6134
vn 0.3925 0.8089 0.4378
vn 0.6209 -0.6217 0.4774
vn -0.3611 0.8426 -0.3995
vn -0.4060 -0.8482 -0.3401
vn -0.7394 0.0363 -0.6722
vn 0.8674 0.4461 -0.2204
vn -0.9202 0.3453 0.1845
vn 0.2105 -0.9776 0.0039
vn 0.5780 -0.6955 -0.4268
vn -0.1399 0.9769 0.1617
vn 0.7236 0.4420 -0.5302
vn -0.7415 -0.6497 0.1673
vn -0.8441 -0.2381 0.4804
vn -0.9961 -0.0836 0.0285
vn 0.7954 0.0430 0.6045
vn 0.0967 -0.9595 0.2646
vn -0.0748 0.9935 -0.0854
vn 0.1952 0.4148 0.8887
vn -0.4189 -0.4160 -0.8071
vn 0.2069 0.9268 0.3133
vn 0.4197 -0.4491 0.7888
vn -0.1204 -0.9753 -0.1849
vn -0.3551 0.3981 -0.8458
vn 0.4808 0.3010 0.8235
vn 0.1033 -0.4099 0.9062
vn -0.0852 0.6087 0.7888
vn 0.0261 0.9718 -0.2344
vn 0.1003 -0.4185 -0.9026
vn -0.0550 -0.9730 0.2241
vn -0.5314 -0.3048 0.7903
vn 0.5251 0.7711 -0.3600
vn 0.8213 -0.1573 -0.5484
vn -0.4527 0.8163 0.3587
vn -0.8647 -0.3182 0.3887
vn -0.2386 -0.9711 -0.0019
vn -0.6509 0.7581 -0.0393
vn 0.8842 -0.4454 0.1404
vn 0.4400 0.8951 0.0717
vn -0.9052 -0.3300 -0.2677
vn -0.9806 0.1356 0.1418
vn 0.5026 -0.7980 -0.3324
vn 0.9551 -0.2326 0.1833
vn 0.7704 0.5896 -0.2423
vn -0.3397 0.9396 0.0417
vn 0.8980 0.1192 -0.4234
vn -0.8434 -0.2428 0.4792
vn -0.1459 -0.9827 0.1142
vn -0.1883 0.1968 0.9622
vn 0.0300 -0.9881 -0.1505
vn 0.3335 0.8811 -0.3353
vn 0.5379 -0.3434 -0.7699
vn 0.4767 0.5313 -0.7003
vn -0.0489 -0.2732 0.9607
vn -0.1103 0.8270 0.5513
vn 0.8145 -0.4620 -0.3508
vn -0.4772 0.8502 0.2223
vn -0.9853 0.1364 0.1025
vn 0.5673 0.8103 -0.1467
vn -0.5317 -0.8399 0.1090
vn -0.4101 -0.8392 -0.3572
vn 0.5533 -0.5615 0.6152
vn -0.6512 0.3171 -0.6894
vn 0.0976 0.9947 0.0327
vn -0.3940 -0.9016 -0.1785
vn -0.5961 0.7845 -0.1705
vn 0.6093 -0.7514 0.2531
vn 0.9774 0.0198 -0.2105
vn 0.6026 0.2581 0.7551
vn -0.4702 -0.8605 -0.1957
vn 0.5045 0.8606 0.0694
vn 0.5232 0.8509 0.0455
vn 0.7500 -0.6561 0.0837
vn -0.5230 0.8523 0.0039
vn -0.9979 -0.0214 -0.0605
vn -0.3537 0.2790 -0.8927
vn -0.6410 0.4909 -0.5900
usemtl SVGMat.3781
s 1
f 1//1 4//2 3//3
f 100//4 5//5 1//1
f 102//6 6//7 100//4
f 2//8 6//7 102//6
f 6//7 5//5 100//4
f 4//2 7//9 2//8
f 5//5 8//10 4//2
f 8//10 9//11 4//2
f 6//7 10//12 5//5
f 9//11 11//13 7//9
f 7//9 12//14 6//7
f 11//13 13//15 12//14
f 10//12 14//16 8//10
f 12//14 15//17 10//12
f 9//11 19//18 11//13
f 14//16 16//19 9//11
f 15//17 17//20 14//16
f 13//15 15//17 12//14
f 17//20 20//21 16//19
f 15//17 21//22 17//20
f 18//23 22//24 15//17
f 19//18 23//25 18//23
f 22//24 21//22 15//17
f 20//21 24//26 19//18
f 21//22 25//27 20//21
f 26//28 27//29 25//27
f 23//25 29//30 22//24
f 24//26 28//31 23//25
f 28//31 30//32 23//25
f 27//29 28//31 24//26
f 26//28 31//33 27//29
f 29//30 31//33 26//28
f 30//32 33//34 29//30
f 28//31 33//34 30//32
f 27//29 35//35 28//31
f 31//33 38//36 35//35
f 32//37 36//38 31//33
f 34//39 37//40 33//34
f 35//35 37//40 34//39
f 35//35 39//41 37//40
f 32//37 42//42 36//38
f 38//36 41//43 35//35
f 39//41 40//44 32//37
f 36//38 42//42 38//36
f 40//44 43//45 42//42
f 41//43 44//46 39//41
f 40//44 45//47 43//45
f 43//45 46//48 41//43
f 45//47 46//48 43//45
f 46//48 48//49 41//43
f 44//46 47//50 40//44
f 49//51 50//52 46//48
f 45//47 51//53 49//51
f 47//50 52//54 45//47
f 48//49 53//55 47//50
f 46//48 54//56 48//49
f 51//53 55//57 50//52
f 53//55 56//58 52//54
f 54//56 59//59 53//55
f 52//54 57//60 51//53
f 57//60 58//61 55//57
f 56//58 57//60 52//54
f 58//61 60//62 54//56
f 56//58 61//63 57//60
f 62//64 65//65 56//58
f 60//62 62//64 59//59
f 61//63 63//66 58//61
f 61//63 64//67 63//66
f 63//66 68//68 60//62
f 68//68 66//69 62//64
f 66//69 67//70 65//65
f 67//70 72//71 65//65
f 68//68 69//72 66//69
f 64//67 71//73 70//74
f 69//72 72//71 67//70
f 72//71 73//75 71//73
f 71//73 77//76 70//74
f 69//72 74//77 72//71
f 75//78 76//79 74//77
f 73//75 78//80 77//76
f 74//77 78//80 73//75
f 76//79 79//81 74//77
f 77//76 82//82 76//79
f 80//83 83//84 78//80
f 81//85 80//83 79//81
f 78//80 84//86 77//76
f 83//84 84//86 78//80
f 83//84 87//87 84//86
f 84//86 86//88 82//82
f 80//83 88//89 83//84
f 81//85 85//90 80//83
f 82//82 85//90 81//85
f 88//89 92//91 87//87
f 85//90 89//92 88//89
f 87//87 91//93 86//88
f 91//93 94//94 93//95
f 92//91 95//96 91//93
f 94//94 96//97 90//98
f 91//93 97//99 94//94
f 95//96 97//99 91//93
f 96//97 99//100 90//98
f 98//101 95//96 92//91
f 96//97 100//4 99//100
f 98//101 3//3 95//96
f 102//6 100//4 96//97
f 100//4 103//102 101//103
f 100//4 1//1 103//102
f 1//1 5//5 4//2
f 2//8 7//9 6//7
f 3//3 4//2 2//8
f 4//2 9//11 7//9
f 5//5 10//12 8//10
f 6//7 12//14 10//12
f 7//9 11//13 12//14
f 8//10 14//16 9//11
f 10//12 15//17 14//16
f 11//13 19//18 13//15
f 14//16 17//20 16//19
f 13//15 18//23 15//17
f 13//15 19//18 18//23
f 9//11 16//19 19//18
f 17//20 21//22 20//21
f 16//19 20//21 19//18
f 18//23 23//25 22//24
f 19//18 24//26 23//25
f 20//21 25//27 24//26
f 21//22 26//28 25//27
f 22//24 29//30 21//22
f 25//27 27//29 24//26
f 21//22 29//30 26//28
f 23//25 30//32 29//30
f 27//29 31//33 35//35
f 29//30 32//37 31//33
f 29//30 33//34 32//37
f 28//31 34//39 33//34
f 28//31 35//35 34//39
f 31//33 36//38 38//36
f 33//34 37//40 32//37
f 37//40 39//41 32//37
f 32//37 40//44 42//42
f 35//35 41//43 39//41
f 38//36 42//42 41//43
f 42//42 43//45 41//43
f 39//41 44//46 40//44
f 41//43 48//49 44//46
f 40//44 47//50 45//47
f 44//46 48//49 47//50
f 45//47 49//51 46//48
f 49//51 51//53 50//52
f 45//47 52//54 51//53
f 47//50 53//55 52//54
f 48//49 54//56 53//55
f 46//48 50//52 54//56
f 50//52 55//57 54//56
f 51//53 57//60 55//57
f 53//55 59//59 56//58
f 55//57 58//61 54//56
f 54//56 60//62 59//59
f 57//60 61//63 58//61
f 59//59 62//64 56//58
f 56//58 65//65 61//63
f 58//61 63//66 60//62
f 63//66 64//67 70//74
f 61//63 65//65 64//67
f 60//62 68//68 62//64
f 63//66 70//74 68//68
f 62//64 66//69 65//65
f 65//65 72//71 64//67
f 66//69 69//72 67//70
f 68//68 70//74 69//72
f 64//67 72//71 71//73
f 71//73 73//75 77//76
f 72//71 74//77 73//75
f 70//74 75//78 69//72
f 70//74 77//76 75//78
f 69//72 75//78 74//77
f 75//78 77//76 76//79
f 74//77 79//81 78//80
f 79//81 80//83 78//80
f 76//79 81//85 79//81
f 76//79 82//82 81//85
f 77//76 84//86 82//82
f 80//83 85//90 88//89
f 82//82 86//88 85//90
f 84//86 87//87 86//88
f 83//84 88//89 87//87
f 88//89 89//92 92//91
f 85//90 90//98 89//92
f 86//88 93//95 85//90
f 86//88 91//93 93//95
f 87//87 92//91 91//93
f 85//90 93//95 90//98
f 93//95 94//94 90//98
f 94//94 97//99 96//97
f 90//98 99//100 89//92
f 89//92 98//101 92//91
f 89//92 99//100 98//101
f 99//100 101//103 98//101
f 99//100 100//4 101//103
f 95//96 2//8 97//99
f 98//101 101//103 3//3
f 95//96 3//3 2//8
f 97//99 102//6 96//97
f 97//99 2//8 102//6
f 101//103 103//102 3//3
f 103//102 1//1 3//3
