# Blender v2.79 (sub 0) OBJ File: 'world_countrycodes_outlines2.blend'
# www.blender.org
mtllib HN_outline.mtl
o HN.001_CUCurve.1615
v 0.458720 0.000155 0.579399
v 0.460773 0.001820 0.575301
v 0.457948 0.000865 0.576540
v 0.459248 -0.001335 0.572484
v 0.458395 -0.001891 0.575121
v 0.459067 0.001401 0.572165
v 0.454354 -0.000706 0.580170
v 0.457197 0.002122 0.574910
v 0.459892 -0.000046 0.570729
v 0.455927 0.000815 0.572340
v 0.456988 0.001941 0.569924
v 0.456864 -0.001945 0.571338
v 0.458400 -0.001034 0.569067
v 0.452550 0.000673 0.572225
v 0.452139 -0.000311 0.567796
v 0.450728 0.001402 0.567477
v 0.447761 -0.001942 0.569139
v 0.447745 0.002002 0.568544
v 0.445102 -0.000709 0.568983
v 0.447864 0.001244 0.566070
v 0.448420 -0.000765 0.564303
v 0.451097 -0.001142 0.567463
v 0.454669 0.000682 0.558090
v 0.456351 -0.000020 0.561972
v 0.455631 -0.001930 0.560891
v 0.454695 -0.001454 0.558788
v 0.463398 -0.000854 0.558441
v 0.456314 0.001939 0.560596
v 0.463824 -0.001853 0.561512
v 0.463895 0.000706 0.562467
v 0.472252 0.001986 0.557781
v 0.473221 0.000805 0.560434
v 0.473396 -0.001294 0.560089
v 0.472783 -0.001999 0.557995
v 0.475217 -0.000541 0.556848
v 0.477890 0.001162 0.558887
v 0.485068 0.001935 0.564520
v 0.481096 -0.000822 0.563323
v 0.484720 -0.000843 0.562160
v 0.482477 0.001975 0.563840
v 0.483419 -0.002039 0.564242
v 0.485103 -0.000754 0.566098
v 0.477190 -0.001986 0.568381
v 0.477246 0.001522 0.569121
v 0.476497 -0.000213 0.565217
v 0.473479 0.000734 0.569443
v 0.472056 0.001923 0.566613
v 0.471132 -0.000798 0.565780
v 0.469069 0.000852 0.568839
v 0.471062 -0.001818 0.568857
v 0.470904 -0.001917 0.571147
v 0.469431 0.001586 0.572438
v 0.463189 0.001900 0.570929
v 0.463764 -0.002022 0.572297
v 0.464787 0.001748 0.573716
v 0.461782 -0.000756 0.570511
v 0.461302 0.000563 0.574410
v 0.460938 -0.001735 0.575699
v 0.463037 -0.002002 0.576502
v 0.465263 0.000032 0.576870
vn 0.8272 0.0936 0.5541
vn -0.4060 0.0680 0.9113
vn 0.2458 -0.8817 0.4027
vn 0.3911 0.8199 0.4180
vn 0.1548 0.9867 -0.0491
vn -0.0657 0.6805 0.7298
vn 0.6480 -0.7179 -0.2545
vn 0.6743 0.7053 -0.2185
vn -0.4720 -0.1130 0.8743
vn -0.0042 -0.9814 0.1918
vn 0.9564 0.0676 -0.2840
vn -0.2483 0.9541 0.1675
vn -0.7492 0.5244 0.4046
vn 0.2019 0.8744 -0.4412
vn 0.4726 -0.4093 -0.7804
vn -0.2009 0.2618 0.9440
vn -0.3607 -0.9036 0.2311
vn -0.0786 -0.9968 -0.0155
vn 0.3724 -0.0980 -0.9228
vn 0.5859 -0.8100 -0.0255
vn 0.4487 0.8900 -0.0805
vn -0.4192 0.8838 0.2077
vn -0.9633 -0.2387 0.1226
vn -0.7287 0.5214 -0.4439
vn -0.7639 -0.3880 -0.5157
vn -0.3008 0.3885 -0.8709
vn 0.0875 0.9957 0.0292
vn 0.0833 -0.9785 0.1888
vn -0.2886 -0.6972 -0.6561
vn 0.3970 -0.0127 0.9177
vn -0.1104 -0.4348 -0.8937
vn 0.0364 -0.8703 0.4911
vn 0.0943 0.3747 0.9223
vn -0.0499 0.8651 -0.4991
vn -0.1531 0.4728 0.8677
vn -0.0013 -0.9233 -0.3840
vn 0.2447 -0.1832 -0.9521
vn 0.3617 0.6334 -0.6840
vn 0.7446 -0.2930 -0.5997
vn 0.7145 0.6981 0.0465
vn -0.0676 -0.6960 0.7148
vn -0.7474 -0.5604 0.3569
vn 0.2361 -0.9716 -0.0108
vn 0.7768 -0.2979 0.5548
vn -0.2373 -0.0258 -0.9711
vn 0.0891 -0.8722 0.4810
vn 0.1505 0.6870 0.7109
vn -0.1409 0.9898 0.0187
vn -0.1812 0.8582 -0.4801
vn -0.4808 -0.3758 -0.7922
vn 0.2959 0.4128 0.8614
vn -0.0365 -0.9841 -0.1737
vn -0.4755 0.5328 -0.7000
vn 0.2980 0.6140 0.7308
vn 0.4374 -0.7252 0.5317
vn -0.3940 0.8089 -0.4363
vn 0.0849 -0.9963 -0.0125
vn -0.7067 -0.2578 -0.6588
vn -0.3438 0.5508 -0.7605
vn -0.1270 -0.9913 0.0337
usemtl SVGMat.3781
s 1
f 60//1 1//2 59//3
f 55//4 1//2 60//1
f 2//5 3//6 1//2
f 4//7 6//8 2//5
f 3//6 7//9 5//10
f 4//7 9//11 6//8
f 8//12 10//13 7//9
f 6//8 11//14 8//12
f 5//10 13//15 4//7
f 9//11 11//14 6//8
f 14//16 17//17 12//18
f 11//14 14//16 10//13
f 12//18 15//19 13//15
f 12//18 22//20 15//19
f 15//19 16//21 11//14
f 16//21 18//22 11//14
f 14//16 19//23 17//17
f 18//22 19//23 14//16
f 18//22 20//24 19//23
f 20//24 21//25 17//17
f 20//24 23//26 21//25
f 16//21 28//27 18//22
f 21//25 25//28 17//17
f 23//26 26//29 21//25
f 28//27 23//26 20//24
f 24//30 28//27 16//21
f 23//26 27//31 26//29
f 26//29 29//32 25//28
f 24//30 30//33 28//27
f 29//32 30//33 24//30
f 30//33 31//34 28//27
f 29//32 32//35 30//33
f 27//31 34//36 29//32
f 31//34 35//37 27//31
f 36//38 39//39 35//37
f 31//34 37//40 36//38
f 33//41 38//42 32//35
f 34//36 38//42 33//41
f 37//40 39//39 36//38
f 39//39 41//43 34//36
f 37//40 42//44 39//39
f 41//43 45//45 38//42
f 42//44 43//46 41//43
f 37//40 44//47 42//44
f 38//42 45//45 40//48
f 45//45 47//49 44//47
f 43//46 48//50 45//45
f 46//51 50//52 43//46
f 47//49 46//51 44//47
f 48//50 49//53 47//49
f 49//53 52//54 47//49
f 46//51 51//55 50//52
f 49//53 53//56 52//54
f 52//54 54//57 51//55
f 53//56 55//4 52//54
f 50//52 56//58 49//53
f 54//57 56//58 50//52
f 56//58 57//59 53//56
f 54//57 58//60 56//58
f 57//59 55//4 53//56
f 55//4 2//5 1//2
f 59//3 1//2 58//60
f 1//2 3//6 5//10
f 1//2 5//10 58//60
f 58//60 4//7 57//59
f 2//5 8//12 3//6
f 57//59 4//7 2//5
f 58//60 5//10 4//7
f 2//5 6//8 8//12
f 3//6 8//12 7//9
f 7//9 10//13 12//18
f 7//9 12//18 5//10
f 8//12 11//14 10//13
f 4//7 13//15 9//11
f 5//10 12//18 13//15
f 9//11 13//15 11//14
f 10//13 14//16 12//18
f 13//15 15//19 11//14
f 11//14 18//22 14//16
f 12//18 17//17 22//20
f 19//23 20//24 17//17
f 15//19 22//20 16//21
f 18//22 28//27 20//24
f 17//17 25//28 22//20
f 22//20 24//30 16//21
f 22//20 25//28 24//30
f 21//25 26//29 25//28
f 23//26 28//27 27//31
f 25//28 29//32 24//30
f 26//29 27//31 29//32
f 28//27 31//34 27//31
f 30//33 32//35 31//34
f 29//32 33//41 32//35
f 29//32 34//36 33//41
f 27//31 35//37 34//36
f 31//34 36//38 35//37
f 32//35 40//48 31//34
f 32//35 38//42 40//48
f 35//37 39//39 34//36
f 31//34 40//48 37//40
f 34//36 41//43 38//42
f 39//39 42//44 41//43
f 40//48 44//47 37//40
f 41//43 43//46 45//45
f 42//44 44//47 43//46
f 40//48 45//45 44//47
f 44//47 46//51 43//46
f 45//45 48//50 47//49
f 43//46 50//52 48//50
f 48//50 50//52 49//53
f 47//49 52//54 46//51
f 46//51 52//54 51//55
f 51//55 54//57 50//52
f 52//54 55//4 54//57
f 49//53 56//58 53//56
f 56//58 58//60 57//59
f 55//4 60//1 54//57
f 54//57 59//3 58//60
f 54//57 60//1 59//3
f 57//59 2//5 55//4
