# Blender v2.79 (sub 0) OBJ File: 'world_countrycodes_outlines2.blend'
# www.blender.org
mtllib HR_outline.mtl
o HR.001_CUCurve.1646
v 1.058418 0.000809 0.391248
v 1.059841 0.000808 0.387615
v 1.055187 -0.000806 0.386551
v 1.052015 -0.001967 0.386706
v 1.052859 0.000679 0.389758
v 1.053835 -0.001421 0.389614
v 1.053609 0.001934 0.386682
v 1.051184 0.000793 0.387412
v 1.054171 0.000004 0.384322
v 1.047825 -0.000879 0.386222
v 1.048441 0.001972 0.385295
v 1.049570 0.001413 0.383350
v 1.049917 -0.000858 0.382968
v 1.040897 0.000857 0.376451
v 1.045242 0.000081 0.375830
v 1.043438 -0.001974 0.374627
v 1.043445 0.001928 0.374948
v 1.041307 -0.000921 0.376269
v 1.043743 0.001013 0.372984
v 1.039818 -0.001103 0.372541
v 1.036925 -0.000752 0.375694
v 1.037595 0.001899 0.374732
v 1.040293 0.000992 0.373081
v 1.037939 -0.002047 0.373135
v 1.035810 -0.000737 0.370232
v 1.037174 0.001949 0.371071
v 1.044738 0.001858 0.370029
v 1.044882 -0.001920 0.370154
v 1.045910 -0.001495 0.372434
v 1.044345 -0.000015 0.369053
v 1.046380 0.000503 0.373219
v 1.048299 0.001000 0.370243
v 1.047388 -0.001964 0.369222
v 1.045925 -0.000815 0.367116
v 1.047216 0.001953 0.367594
v 1.049605 -0.000778 0.369428
v 1.046884 0.000611 0.364717
v 1.050156 0.000757 0.367258
v 1.049077 -0.001999 0.366434
v 1.047308 -0.001407 0.365160
v 1.052521 0.002009 0.363434
v 1.052611 -0.001405 0.365176
v 1.052631 0.000841 0.365828
v 1.052021 -0.001948 0.362470
v 1.052378 0.000937 0.361188
v 1.059892 -0.001387 0.367141
v 1.060065 0.000729 0.366635
v 1.058074 0.001947 0.368749
v 1.058727 -0.000069 0.370469
v 1.058901 -0.001961 0.369143
v 1.063352 0.000915 0.370263
v 1.064054 -0.001871 0.369015
v 1.065721 -0.000689 0.365379
v 1.065169 0.001943 0.366819
v 1.066394 0.001968 0.370488
v 1.065924 -0.001395 0.373065
v 1.066628 -0.001947 0.370849
v 1.065436 -0.000007 0.372418
v 1.066456 0.001646 0.373483
v 1.069280 0.000575 0.371237
v 1.067991 -0.001353 0.370440
v 1.068220 -0.002000 0.376165
v 1.069353 0.001987 0.377623
v 1.070644 -0.000698 0.380326
v 1.063707 -0.000697 0.375973
v 1.063661 0.001396 0.375363
v 1.064137 -0.001964 0.373251
v 1.053865 0.001414 0.374375
v 1.053405 0.000865 0.370968
v 1.053989 -0.000982 0.374782
v 1.050478 0.001987 0.372778
v 1.050882 -0.002030 0.373490
v 1.051527 -0.000600 0.376018
v 1.049960 0.001362 0.375197
v 1.051952 -0.001213 0.371811
v 1.050291 -0.000827 0.375410
v 1.048937 -0.000798 0.371420
v 1.047145 0.001906 0.375095
v 1.045986 -0.000003 0.375333
v 1.047233 -0.001910 0.375493
v 1.052764 -0.000730 0.378296
v 1.051860 0.001909 0.379087
v 1.049150 0.000869 0.380155
v 1.050314 -0.001981 0.379900
v 1.054990 0.001973 0.385217
v 1.057421 0.000700 0.383751
v 1.056028 -0.001807 0.386796
v 1.056855 -0.001420 0.383959
v 1.054388 0.000443 0.386367
v 1.060169 -0.001997 0.390627
v 1.067370 -0.000780 0.397196
v 1.061004 0.002025 0.390824
v 1.052716 0.000692 0.382749
vn -0.5158 -0.7927 0.3249
vn 0.3736 -0.4486 -0.8119
vn -0.9943 0.0667 -0.0836
vn -0.0147 -0.9586 0.2844
vn -0.3209 0.2423 0.9156
vn -0.3817 -0.6348 0.6718
vn 0.2826 0.9574 0.0596
vn -0.5748 0.3395 0.7445
vn 0.1421 0.9766 -0.1611
vn -0.1352 -0.9763 0.1686
vn -0.4763 0.3613 0.8016
vn 0.6840 -0.0372 -0.7285
vn -0.5876 -0.3839 0.7123
vn -0.3425 0.8480 0.4045
vn 0.6934 -0.2064 -0.6903
vn 0.4224 0.7580 -0.4968
vn -0.4027 0.5096 0.7603
vn 0.3208 -0.8831 -0.3422
vn 0.8390 0.0528 -0.5416
vn 0.2484 0.9553 -0.1600
vn -0.3779 -0.7099 0.5943
vn 0.5265 0.3337 -0.7819
vn -0.6667 -0.3027 0.6810
vn -0.4580 0.8126 0.3604
vn 0.4462 -0.8552 0.2639
vn 0.0656 0.9942 -0.0845
vn -0.2399 -0.9690 0.0591
vn -0.4349 0.8203 -0.3713
vn -0.7825 -0.2490 -0.5707
vn -0.1176 0.9715 -0.2059
vn -0.1690 -0.9607 -0.2201
vn 0.3259 -0.7131 0.6207
vn -0.4871 0.0442 -0.8722
vn 0.4557 0.2787 0.8454
vn 0.1944 -0.9566 0.2170
vn -0.8218 -0.3489 -0.4503
vn 0.6271 0.5151 0.5842
vn -0.2282 0.9670 -0.1133
vn -0.7208 0.3390 -0.6046
vn 0.7253 -0.3352 0.6012
vn 0.6899 0.4049 0.6001
vn 0.1926 -0.9692 0.1531
vn -0.5515 -0.6785 -0.4852
vn 0.0200 0.3011 -0.9534
vn 0.0023 0.9854 -0.1698
vn -0.0628 -0.8176 0.5724
vn -0.1259 0.5158 0.8474
vn -0.0247 -0.7875 -0.6158
vn 0.1473 -0.7850 -0.6017
vn 0.1024 0.4541 -0.8850
vn -0.1256 -0.8952 0.4275
vn -0.1726 0.9160 0.3620
vn -0.2680 -0.0154 0.9633
vn -0.3754 0.5336 0.7578
vn -0.1212 -0.9811 0.1507
vn 0.4460 -0.2712 -0.8529
vn 0.3262 0.8281 -0.4558
vn 0.7162 -0.5347 -0.4485
vn 0.2246 0.9529 -0.2037
vn -0.2325 -0.9513 -0.2025
vn -0.9769 0.1186 -0.1776
vn -0.2363 0.9716 0.0018
vn 0.8206 0.2412 -0.5181
vn 0.3316 0.8591 0.3898
vn 0.1662 -0.9774 0.1303
vn 0.0979 -0.9937 -0.0544
vn 0.5112 -0.1742 0.8416
vn -0.2797 -0.4266 0.8600
vn 0.0076 -0.9269 -0.3752
vn 0.0717 0.7177 0.6926
vn -0.1601 0.7873 0.5954
vn -0.0826 0.2944 -0.9521
vn 0.1078 -0.4584 0.8822
vn -0.1494 0.8884 -0.4340
vn -0.0814 -0.5475 -0.8328
vn -0.0107 -0.9999 -0.0009
vn 0.0507 -0.2687 0.9619
vn 0.3225 0.9367 0.1363
vn 0.3067 -0.8997 0.3105
vn -0.3731 -0.2257 -0.8999
vn -0.5552 0.8215 -0.1300
vn -0.5166 -0.8543 0.0570
vn 0.7175 -0.3991 -0.5709
vn 0.2888 0.9297 -0.2285
vn -0.9996 -0.0167 -0.0204
vn -0.7358 0.3800 0.5604
vn -0.3191 -0.9160 0.2430
vn -0.1749 0.9644 0.1984
vn 0.7157 0.4077 -0.5670
vn -0.3031 -0.2040 0.9308
vn 0.4783 -0.7662 -0.4291
vn 0.7150 -0.0862 0.6937
vn 0.6440 -0.1237 0.7549
usemtl SVGMat.3781
s 1
f 87//1 3//2 2//3
f 90//4 3//2 87//1
f 1//5 6//6 90//4
f 92//7 5//8 1//5
f 3//2 7//9 2//3
f 5//8 4//10 6//6
f 7//9 8//11 5//8
f 3//2 9//12 7//9
f 4//10 9//12 3//2
f 8//11 10//13 4//10
f 7//9 11//14 8//11
f 4//10 13//15 9//12
f 12//16 11//14 7//9
f 11//14 14//17 10//13
f 10//13 16//18 4//10
f 15//19 17//20 12//16
f 14//17 18//21 10//13
f 15//19 19//22 17//20
f 16//18 19//22 15//19
f 14//17 21//23 18//21
f 17//20 22//24 14//17
f 19//22 22//24 17//20
f 20//25 23//26 19//22
f 18//21 24//27 16//18
f 23//26 26//28 22//24
f 22//24 25//29 21//23
f 23//26 27//30 26//28
f 25//29 28//31 24//27
f 28//31 29//32 20//25
f 27//30 30//33 25//29
f 30//33 28//31 25//29
f 29//32 31//34 23//26
f 28//31 33//35 29//32
f 30//33 34//36 28//31
f 27//30 34//36 30//33
f 33//35 32//37 31//34
f 32//37 35//38 27//30
f 34//36 33//35 28//31
f 35//38 37//39 34//36
f 36//40 38//41 32//37
f 33//35 39//42 36//40
f 40//43 39//42 33//35
f 35//38 45//44 37//39
f 38//41 41//45 35//38
f 42//46 43//47 38//41
f 40//43 44//48 39//42
f 37//39 44//48 40//43
f 45//44 46//49 44//48
f 41//45 47//50 45//44
f 46//49 50//51 44//48
f 43//47 48//52 41//45
f 42//46 49//53 43//47
f 49//53 51//54 48//52
f 52//55 51//54 49//53
f 47//50 53//56 46//49
f 48//52 54//57 47//50
f 51//54 54//57 48//52
f 46//49 52//55 50//51
f 54//57 61//58 53//56
f 51//54 55//59 54//57
f 56//60 58//61 51//54
f 58//61 59//62 51//54
f 55//59 60//63 61//58
f 59//62 63//64 55//59
f 61//58 62//65 57//66
f 60//63 64//67 61//58
f 63//64 64//67 60//63
f 63//64 65//68 64//67
f 62//65 67//69 56//60
f 65//68 67//69 62//65
f 59//62 68//70 66//71
f 58//61 69//72 59//62
f 68//70 70//73 65//68
f 69//72 71//74 59//62
f 75//75 69//72 58//61
f 70//73 72//76 67//69
f 68//70 73//77 70//73
f 71//74 74//78 68//70
f 74//78 76//79 73//77
f 72//76 77//80 75//75
f 77//80 78//81 71//74
f 72//76 80//82 77//80
f 76//79 80//82 72//76
f 74//78 81//83 76//79
f 78//81 82//84 74//78
f 79//85 83//86 78//81
f 80//82 83//86 79//85
f 76//79 84//87 80//82
f 83//86 85//88 82//84
f 81//83 87//1 84//87
f 82//84 86//89 81//83
f 85//88 86//89 82//84
f 84//87 89//90 83//86
f 88//91 90//4 87//1
f 86//89 91//92 88//91
f 87//1 93//93 89//90
f 92//7 1//5 91//92
f 87//1 2//3 93//93
f 90//4 4//10 3//2
f 1//5 5//8 6//6
f 90//4 6//6 4//10
f 2//3 7//9 92//7
f 92//7 7//9 5//8
f 5//8 8//11 4//10
f 8//11 11//14 10//13
f 9//12 12//16 7//9
f 9//12 13//15 12//16
f 4//10 16//18 13//15
f 13//15 15//19 12//16
f 12//16 17//20 11//14
f 13//15 16//18 15//19
f 10//13 18//21 16//18
f 11//14 17//20 14//17
f 16//18 20//25 19//22
f 14//17 22//24 21//23
f 19//22 23//26 22//24
f 16//18 24//27 20//25
f 18//21 21//23 24//27
f 22//24 26//28 25//29
f 21//23 25//29 24//27
f 26//28 27//30 25//29
f 24//27 28//31 20//25
f 20//25 29//32 23//26
f 23//26 31//34 27//30
f 31//34 32//37 27//30
f 29//32 33//35 31//34
f 27//30 35//38 34//36
f 33//35 36//40 32//37
f 34//36 37//39 40//43
f 32//37 38//41 35//38
f 36//40 39//42 38//41
f 34//36 40//43 33//35
f 35//38 41//45 45//44
f 39//42 42//46 38//41
f 38//41 43//47 41//45
f 39//42 44//48 42//46
f 37//39 45//44 44//48
f 45//44 47//50 46//49
f 44//48 50//51 42//46
f 41//45 48//52 47//50
f 43//47 49//53 48//52
f 42//46 50//51 49//53
f 50//51 52//55 49//53
f 47//50 54//57 53//56
f 46//49 53//56 52//55
f 53//56 61//58 57//66
f 54//57 55//59 61//58
f 53//56 57//66 52//55
f 52//55 56//60 51//54
f 52//55 57//66 56//60
f 51//54 59//62 55//59
f 55//59 63//64 60//63
f 57//66 62//65 56//60
f 61//58 64//67 62//65
f 63//64 66//71 65//68
f 64//67 65//68 62//65
f 56//60 67//69 58//61
f 63//64 59//62 66//71
f 66//71 68//70 65//68
f 67//69 75//75 58//61
f 65//68 70//73 67//69
f 59//62 71//74 68//70
f 67//69 72//76 75//75
f 68//70 74//78 73//77
f 69//72 75//75 71//74
f 70//73 73//77 72//76
f 73//77 76//79 72//76
f 75//75 77//80 71//74
f 71//74 78//81 74//78
f 77//80 79//85 78//81
f 77//80 80//82 79//85
f 74//78 82//84 81//83
f 78//81 83//86 82//84
f 80//82 84//87 83//86
f 76//79 81//83 84//87
f 81//83 86//89 88//91
f 83//86 89//90 85//88
f 84//87 87//1 89//90
f 81//83 88//91 87//1
f 85//88 92//7 86//89
f 85//88 89//90 92//7
f 92//7 91//92 86//89
f 89//90 93//93 92//7
f 88//91 91//92 90//4
f 91//92 1//5 90//4
f 93//93 2//3 92//7
