# Blender v2.79 (sub 0) OBJ File: 'world_countrycodes_outlines2.blend'
# www.blender.org
mtllib HT_outline.mtl
o HT.001_CUCurve.1611
v 0.546899 0.001663 0.545103
v 0.547283 -0.002021 0.547220
v 0.550246 0.000140 0.551465
v 0.544301 0.000700 0.548188
v 0.543023 -0.000959 0.544412
v 0.534311 -0.001733 0.545632
v 0.537981 -0.001578 0.548960
v 0.536888 0.001973 0.548124
v 0.535335 0.000919 0.545482
v 0.530880 0.000632 0.546212
v 0.531856 -0.001598 0.546358
v 0.533063 -0.000700 0.542371
v 0.533490 0.001965 0.543466
v 0.542379 -0.000983 0.542292
v 0.544521 0.002156 0.542601
v 0.544438 0.000866 0.545678
v 0.544504 -0.001958 0.544486
v 0.546684 -0.000646 0.543049
v 0.540357 0.001968 0.535563
v 0.538840 -0.002039 0.534669
v 0.537611 0.000947 0.536051
v 0.541963 -0.000819 0.536624
v 0.541270 0.000535 0.532544
v 0.547676 0.001505 0.538052
v 0.551509 0.000871 0.535468
v 0.549767 -0.002209 0.536654
vn -0.3543 0.8488 0.3923
vn 0.4709 0.0621 0.8799
vn 0.7881 0.3191 -0.5263
vn -0.0174 -0.9871 0.1591
vn -0.1432 0.9375 -0.3171
vn 0.0483 0.4914 0.8696
vn -0.0981 -0.5590 0.8233
vn -0.0766 -0.9908 -0.1110
vn -0.1322 0.8189 0.5584
vn -0.9107 0.3005 0.2835
vn 0.3504 0.9206 -0.1724
vn -0.2939 0.8313 -0.4717
vn -0.6228 -0.7134 0.3211
vn -0.4343 -0.3443 -0.8324
vn -0.7782 -0.6168 -0.1184
vn 0.4045 0.3682 0.8371
vn 0.3655 0.9281 -0.0711
vn 0.3124 -0.8388 0.4459
vn 0.9813 -0.1926 0.0056
vn -0.5695 -0.7422 -0.3533
vn -0.9441 0.3297 -0.0037
vn -0.1175 0.9808 -0.1558
vn 0.5135 -0.7683 0.3821
vn -0.1053 0.1958 -0.9749
vn 0.3038 -0.9279 -0.2161
vn 0.0618 -0.4040 -0.9126
usemtl SVGMat.3781
s 1
f 24//1 3//2 25//3
f 2//4 1//5 24//1
f 1//5 4//6 3//2
f 2//4 7//7 6//8
f 4//6 7//7 2//4
f 1//5 8//9 4//6
f 8//9 10//10 7//7
f 9//11 13//12 8//9
f 11//13 6//8 7//7
f 10//10 12//14 11//13
f 13//12 14//15 12//14
f 6//8 16//16 9//11
f 16//16 15//17 13//12
f 14//15 17//18 6//8
f 17//18 18//19 16//16
f 18//19 15//17 16//16
f 14//15 20//20 17//18
f 15//17 21//21 14//15
f 19//22 21//21 15//17
f 18//19 19//22 15//17
f 20//20 22//23 18//19
f 19//22 23//24 21//21
f 23//24 26//25 20//20
f 19//22 25//3 23//24
f 22//23 24//1 19//22
f 25//3 3//2 26//25
f 24//1 1//5 3//2
f 26//25 2//4 24//1
f 26//25 3//2 2//4
f 3//2 4//6 2//4
f 2//4 5//26 1//5
f 2//4 6//8 5//26
f 5//26 9//11 1//5
f 5//26 6//8 9//11
f 4//6 8//9 7//7
f 1//5 9//11 8//9
f 7//7 10//10 11//13
f 8//9 13//12 10//10
f 10//10 13//12 12//14
f 11//13 12//14 6//8
f 13//12 15//17 14//15
f 9//11 16//16 13//12
f 6//8 17//18 16//16
f 12//14 14//15 6//8
f 17//18 20//20 18//19
f 14//15 21//21 20//20
f 18//19 22//23 19//22
f 21//21 23//24 20//20
f 19//22 24//1 25//3
f 20//20 26//25 22//23
f 23//24 25//3 26//25
f 22//23 26//25 24//1
