# Blender v2.79 (sub 0) OBJ File: 'world_countrycodes_outlines2.blend'
# www.blender.org
mtllib HU_outline.mtl
o HU.001_CUCurve.1643
v 1.084073 -0.001413 0.357312
v 1.082214 -0.001846 0.355670
v 1.084337 0.000807 0.357776
v 1.082439 0.001848 0.355445
v 1.081644 0.000004 0.354831
v 1.077028 -0.000850 0.362994
v 1.079461 0.001436 0.365333
v 1.075093 0.000816 0.364963
v 1.076205 -0.002013 0.366945
v 1.080224 -0.000737 0.365263
v 1.075482 -0.000688 0.368854
v 1.073937 -0.001751 0.365623
v 1.075506 0.001950 0.367741
v 1.070623 0.000647 0.367944
v 1.070693 -0.001416 0.367415
v 1.071335 0.001929 0.364974
v 1.070751 -0.000693 0.363768
v 1.060267 -0.001396 0.367322
v 1.059264 0.000024 0.370702
v 1.060341 0.000030 0.366652
v 1.059169 0.001471 0.370006
v 1.059709 -0.001954 0.369424
v 1.060042 0.001904 0.367791
v 1.051266 -0.001414 0.364159
v 1.050859 -0.002002 0.361277
v 1.052913 -0.001313 0.361317
v 1.052830 0.001363 0.361249
v 1.053250 0.000000 0.361329
v 1.050837 0.000819 0.364525
v 1.048967 -0.000698 0.361806
v 1.050131 0.001973 0.360806
v 1.049491 -0.000801 0.359286
v 1.050735 0.000055 0.358141
v 1.051290 0.001413 0.358428
v 1.051185 -0.001381 0.358512
v 1.054315 -0.000018 0.359870
v 1.052459 -0.001995 0.354674
v 1.054375 0.001434 0.356583
v 1.054395 -0.001710 0.356343
v 1.054864 0.000034 0.357046
v 1.051373 0.000062 0.353635
v 1.052557 0.001970 0.354566
v 1.055420 0.002003 0.354084
v 1.054411 -0.001113 0.353243
v 1.057393 0.001384 0.355086
v 1.057709 0.000055 0.355728
v 1.057243 -0.001963 0.354181
v 1.054250 0.000707 0.351926
v 1.058454 0.000845 0.351588
v 1.058391 -0.001388 0.352110
v 1.061889 -0.001437 0.355696
v 1.063360 -0.000011 0.352199
v 1.064286 0.001985 0.353181
v 1.064852 0.000755 0.355830
v 1.066167 -0.001794 0.353711
v 1.067112 0.000740 0.353948
v 1.064731 0.001445 0.351217
v 1.064360 -0.001858 0.352841
v 1.064493 -0.000714 0.350704
v 1.071195 0.000874 0.349232
v 1.072130 -0.001842 0.352094
v 1.071367 -0.001410 0.349682
v 1.072380 0.000001 0.353066
v 1.072133 0.001842 0.352091
v 1.076571 0.001949 0.346813
v 1.077025 0.000686 0.349787
v 1.076644 -0.001969 0.348449
v 1.076190 -0.000889 0.345764
v 1.085535 0.000040 0.348794
v 1.086091 0.001425 0.352856
v 1.085804 0.001415 0.349633
v 1.086898 -0.001433 0.350063
v 1.087955 0.002006 0.352415
v 1.088743 -0.001971 0.352808
v 1.085299 -0.000034 0.353003
v 1.086127 -0.001436 0.352830
v 1.088917 0.000870 0.350759
v 1.089814 0.000017 0.352640
v 1.089099 0.000957 0.354452
vn 0.7496 0.3623 0.5539
vn 0.4809 -0.7611 0.4353
vn 0.5836 -0.8105 0.0487
vn -0.9964 -0.0671 0.0510
vn -0.3293 0.8808 -0.3403
vn -0.4628 0.8776 -0.1252
vn -0.3609 -0.8560 -0.3703
vn -0.3633 -0.9288 0.0724
vn 0.3226 0.9461 -0.0284
vn 0.6496 0.5198 0.5548
vn -0.6906 0.0125 -0.7231
vn -0.7017 -0.4637 -0.5409
vn 0.5462 0.6767 0.4937
vn -0.3073 0.5842 -0.7512
vn 0.1643 -0.9416 0.2938
vn 0.2001 -0.2424 0.9493
vn 0.7207 -0.3618 0.5914
vn -0.0395 -0.8836 -0.4665
vn 0.1437 0.8399 0.5233
vn 0.0081 0.4618 0.8869
vn 0.0479 -0.7118 0.7007
vn -0.0483 -0.3096 -0.9496
vn 0.0758 0.9690 -0.2352
vn -0.0271 0.8900 -0.4552
vn 0.1153 -0.8383 -0.5329
vn 0.2137 0.0794 -0.9736
vn -0.1849 -0.0709 0.9802
vn -0.0683 -0.8797 0.4706
vn -0.1590 0.7336 0.6607
vn -0.5214 -0.6677 0.5312
vn -0.2348 -0.9720 -0.0002
vn -0.5508 0.8326 -0.0588
vn -0.6631 0.3986 0.6335
vn 0.5672 -0.8000 -0.1956
vn 0.5226 0.8288 -0.1997
vn 0.9822 0.0215 -0.1865
vn -0.9540 -0.2422 0.1764
vn -0.8359 -0.2942 -0.4633
vn -0.8987 0.0777 -0.4315
vn -0.7758 -0.5276 -0.3460
vn 0.9295 0.0160 0.3685
vn -0.3255 0.8686 -0.3735
vn -0.3359 -0.8822 -0.3300
vn 0.3947 0.8489 0.3515
vn 0.3458 -0.9058 0.2446
vn 0.8104 0.0203 0.5855
vn -0.9295 0.0844 -0.3589
vn -0.7190 0.0307 -0.6943
vn -0.3242 -0.6551 -0.6824
vn -0.1093 0.9784 -0.1752
vn 0.1329 0.7561 0.6407
vn 0.1582 -0.0554 0.9858
vn -0.0223 -0.9883 0.1507
vn -0.7580 0.2454 -0.6042
vn -0.0401 -0.6821 -0.7302
vn -0.0133 0.3947 -0.9187
vn -0.0498 0.9976 -0.0474
vn -0.3448 0.0291 -0.9382
vn -0.1995 -0.9640 -0.1758
vn 0.2266 -0.8105 0.5401
vn 0.3490 0.3250 0.8789
vn 0.0449 -0.6309 0.7745
vn 0.3308 0.3248 0.8860
vn -0.5172 -0.3472 -0.7823
vn -0.4135 0.6718 -0.6145
vn -0.3607 0.5310 -0.7667
vn 0.2130 -0.8535 0.4755
vn 0.3712 -0.0355 0.9278
vn -0.2654 -0.7614 -0.5914
vn 0.1175 0.4280 0.8961
vn 0.0353 -0.9899 0.1372
vn -0.0400 0.8359 -0.5473
vn 0.3802 0.0163 -0.9247
vn -0.1263 -0.3509 -0.9278
vn 0.3996 -0.6837 -0.6106
vn 0.2756 0.7329 -0.6220
vn 0.7437 0.3166 -0.5887
vn 0.1753 0.8950 0.4100
vn 0.9986 -0.0248 -0.0472
usemtl SVGMat.3781
s 1
f 79//1 1//2 74//3
f 75//4 4//5 70//6
f 74//3 2//7 76//8
f 73//9 3//10 79//1
f 2//7 5//11 75//4
f 1//2 2//7 74//3
f 2//7 6//12 5//11
f 4//5 7//13 3//10
f 6//12 8//14 4//5
f 1//2 9//15 2//7
f 7//13 11//16 10//17
f 9//15 12//18 6//12
f 13//19 14//20 11//16
f 15//21 12//18 9//15
f 12//18 17//22 8//14
f 17//22 23//23 16//24
f 12//18 18//25 17//22
f 18//25 20//26 17//22
f 19//27 22//28 15//21
f 16//24 21//29 14//20
f 19//27 24//30 22//28
f 24//30 25//31 22//28
f 31//32 29//33 21//29
f 25//31 26//34 18//25
f 20//26 27//35 23//23
f 26//34 28//36 20//26
f 29//33 30//37 24//30
f 31//32 32//38 30//37
f 31//32 33//39 32//38
f 33//39 35//40 32//38
f 26//34 36//41 28//36
f 27//35 42//42 31//32
f 35//40 37//43 25//31
f 36//41 38//44 27//35
f 37//43 39//45 26//34
f 39//45 40//46 36//41
f 33//39 37//43 35//40
f 34//47 41//48 33//39
f 41//48 44//49 37//43
f 38//44 43//50 42//42
f 43//50 44//49 41//48
f 40//46 45//51 38//44
f 39//45 46//52 40//46
f 44//49 47//53 39//45
f 43//50 48//54 44//49
f 48//54 50//55 44//49
f 43//50 49//56 48//54
f 43//50 53//57 49//56
f 52//58 58//59 50//55
f 45//51 53//57 43//50
f 50//55 55//60 47//53
f 46//52 54//61 45//51
f 51//62 54//61 46//52
f 55//60 56//63 54//61
f 52//58 59//64 58//59
f 57//65 59//64 52//58
f 57//65 60//66 59//64
f 53//57 60//66 57//65
f 58//59 61//67 55//60
f 61//67 63//68 56//63
f 62//69 61//67 58//59
f 61//67 66//70 63//68
f 62//69 67//71 61//67
f 65//72 69//73 68//74
f 69//73 72//75 68//74
f 70//6 73//9 65//72
f 72//75 74//3 67//71
f 67//71 75//4 66//70
f 74//3 76//8 67//71
f 71//76 77//77 69//73
f 73//9 77//77 71//76
f 77//77 74//3 72//75
f 73//9 79//1 77//77
f 70//6 4//5 73//9
f 76//8 2//7 75//4
f 79//1 3//10 1//2
f 73//9 4//5 3//10
f 75//4 5//11 4//5
f 3//10 10//17 1//2
f 5//11 6//12 4//5
f 3//10 7//13 10//17
f 4//5 13//19 7//13
f 4//5 8//14 13//19
f 2//7 9//15 6//12
f 1//2 10//17 9//15
f 10//17 11//16 9//15
f 6//12 12//18 8//14
f 7//13 13//19 11//16
f 11//16 14//20 15//21
f 11//16 15//21 9//15
f 8//14 16//24 13//19
f 13//19 16//24 14//20
f 8//14 17//22 16//24
f 14//20 19//27 15//21
f 17//22 20//26 23//23
f 14//20 21//29 19//27
f 15//21 22//28 12//18
f 12//18 22//28 18//25
f 16//24 23//23 21//29
f 23//23 31//32 21//29
f 22//28 25//31 18//25
f 21//29 29//33 19//27
f 18//25 26//34 20//26
f 23//23 27//35 31//32
f 20//26 28//36 27//35
f 19//27 29//33 24//30
f 29//33 31//32 30//37
f 24//30 30//37 25//31
f 30//37 32//38 25//31
f 31//32 34//47 33//39
f 32//38 35//40 25//31
f 28//36 36//41 27//35
f 31//32 42//42 34//47
f 25//31 37//43 26//34
f 27//35 38//44 42//42
f 26//34 39//45 36//41
f 36//41 40//46 38//44
f 33//39 41//48 37//43
f 34//47 42//42 41//48
f 42//42 43//50 41//48
f 37//43 44//49 39//45
f 38//44 45//51 43//50
f 40//46 46//52 45//51
f 39//45 47//53 46//52
f 48//54 49//56 50//55
f 44//49 50//55 47//53
f 47//53 51//62 46//52
f 49//56 52//58 50//55
f 49//56 53//57 52//58
f 47//53 55//60 51//62
f 50//55 58//59 55//60
f 45//51 54//61 53//57
f 51//62 55//60 54//61
f 54//61 56//63 53//57
f 53//57 57//65 52//58
f 59//64 60//66 62//69
f 56//63 64//78 53//57
f 55//60 61//67 56//63
f 59//64 62//69 58//59
f 56//63 63//68 64//78
f 53//57 64//78 60//66
f 60//66 68//74 62//69
f 63//68 66//70 64//78
f 64//78 65//72 60//66
f 60//66 65//72 68//74
f 64//78 66//70 65//72
f 61//67 67//71 66//70
f 62//69 68//74 67//71
f 66//70 70//6 65//72
f 65//72 71//76 69//73
f 68//74 72//75 67//71
f 65//72 73//9 71//76
f 66//70 75//4 70//6
f 67//71 76//8 75//4
f 69//73 77//77 72//75
f 77//77 78//79 74//3
f 77//77 79//1 78//79
f 78//79 79//1 74//3
