# Blender v2.79 (sub 0) OBJ File: 'world_countrycodes_export2.blend'
# www.blender.org
mtllib IE.mtl
o IE.002_CUCurve.1755
v 0.923406 0.000000 0.307448
v 0.922258 0.000000 0.306491
v 0.920510 0.000000 0.304735
v 0.919354 0.000000 0.304553
v 0.918527 0.000000 0.305638
v 0.918131 0.000000 0.307144
v 0.917481 0.000000 0.307321
v 0.915279 0.000000 0.306173
v 0.914349 0.000000 0.305807
v 0.914238 0.000000 0.305144
v 0.915073 0.000000 0.303602
v 0.916574 0.000000 0.302043
v 0.917541 0.000000 0.299531
v 0.915237 0.000000 0.298851
v 0.912686 0.000000 0.298826
v 0.911252 0.000000 0.299792
v 0.911484 0.000000 0.301653
v 0.913696 0.000000 0.302604
v 0.914020 0.000000 0.303365
v 0.913626 0.000000 0.303986
v 0.910455 0.000000 0.304913
v 0.908281 0.000000 0.306066
v 0.904208 0.000000 0.305220
v 0.902679 0.000000 0.306133
v 0.903952 0.000000 0.307802
v 0.904408 0.000000 0.309023
v 0.903361 0.000000 0.310974
v 0.903715 0.000000 0.311854
v 0.907271 0.000000 0.314462
v 0.907427 0.000000 0.315494
v 0.905299 0.000000 0.317624
v 0.904745 0.000000 0.319943
v 0.901840 0.000000 0.321630
v 0.901244 0.000000 0.322519
v 0.901504 0.000000 0.323787
v 0.903707 0.000000 0.325882
v 0.905887 0.000000 0.326752
v 0.907702 0.000000 0.326844
v 0.911790 0.000000 0.325813
v 0.915223 0.000000 0.324058
v 0.917805 0.000000 0.322031
v 0.919300 0.000000 0.321541
v 0.922344 0.000000 0.321894
v 0.924106 0.000000 0.321158
v 0.925092 0.000000 0.318981
v 0.924936 0.000000 0.313024
v 0.923767 0.000000 0.308294
v 0.911252 0.050000 0.299792
v 0.911484 0.050000 0.301653
v 0.901840 0.050000 0.321630
v 0.901244 0.050000 0.322519
v 0.907427 0.050000 0.315494
v 0.924936 0.050000 0.313024
v 0.923406 0.050000 0.307448
v 0.917481 0.050000 0.307321
v 0.915237 0.050000 0.298851
v 0.912686 0.050000 0.298826
v 0.907702 0.050000 0.326844
v 0.911790 0.050000 0.325813
v 0.903715 0.050000 0.311854
v 0.907271 0.050000 0.314462
v 0.905299 0.050000 0.317624
v 0.925092 0.050000 0.318981
v 0.914238 0.050000 0.305144
v 0.910455 0.050000 0.304913
v 0.908281 0.050000 0.306066
v 0.904208 0.050000 0.305220
v 0.917541 0.050000 0.299531
v 0.915073 0.050000 0.303602
v 0.916574 0.050000 0.302043
v 0.914349 0.050000 0.305807
v 0.922344 0.050000 0.321894
v 0.924106 0.050000 0.321158
v 0.904408 0.050000 0.309023
v 0.919300 0.050000 0.321541
v 0.915279 0.050000 0.306173
v 0.902679 0.050000 0.306133
v 0.920510 0.050000 0.304735
v 0.918527 0.050000 0.305638
v 0.913696 0.050000 0.302604
v 0.918131 0.050000 0.307144
v 0.919354 0.050000 0.304553
v 0.901504 0.050000 0.323787
v 0.904745 0.050000 0.319943
v 0.903707 0.050000 0.325882
v 0.905887 0.050000 0.326752
v 0.903952 0.050000 0.307802
v 0.922258 0.050000 0.306491
v 0.914020 0.050000 0.303365
v 0.913626 0.050000 0.303986
v 0.903361 0.050000 0.310974
v 0.915223 0.050000 0.324058
v 0.917805 0.050000 0.322031
v 0.923767 0.050000 0.308294
vn 0.0000 -1.0000 0.0000
vn 0.0000 1.0000 0.0000
vn 0.0000 1.0000 -0.0001
vn 0.4552 0.0000 0.8904
vn 0.9708 0.0000 -0.2401
vn -0.9206 0.0000 0.3906
vn 0.9333 0.0000 0.3592
vn 0.9110 0.0000 0.4124
vn 0.2034 0.0000 -0.9791
vn -0.1153 0.0000 0.9933
vn -0.2809 0.0000 -0.9597
vn -0.5022 0.0000 -0.8648
vn -0.9671 0.0000 -0.2545
vn 0.7202 0.0000 0.6938
vn -0.9727 0.0000 -0.2322
vn 0.4625 0.0000 -0.8866
vn -0.2633 0.0000 -0.9647
vn 0.9863 0.0000 -0.1652
vn -0.8440 0.0000 -0.5363
vn 0.3118 0.0000 0.9501
vn 0.1555 0.0000 -0.9878
vn 0.8794 0.0000 0.4760
vn 0.6403 0.0000 -0.7682
vn 0.3855 0.0000 0.9227
vn -0.7950 0.0000 -0.6066
vn -0.9923 0.0000 0.1236
vn -0.9796 0.0000 0.2009
vn 0.9200 0.0000 -0.3919
vn -0.8811 0.0000 -0.4729
vn -0.8304 0.0000 -0.5572
vn 0.7087 0.0000 -0.7055
vn -0.6890 0.0000 0.7247
vn -0.3708 0.0000 0.9287
vn -0.9276 0.0000 0.3735
vn -0.0508 0.0000 0.9987
vn -0.7951 0.0000 0.6065
vn 0.6175 0.0000 0.7866
vn -0.3947 0.0000 0.9188
vn 0.0098 0.0000 -1.0000
vn -0.4685 0.0000 -0.8834
vn -0.5128 0.0000 -0.8585
vn 0.2446 0.0000 0.9696
vn 0.3661 0.0000 -0.9306
vn -0.7073 0.0000 -0.7069
vn -0.5587 0.0000 -0.8294
vn -0.5913 0.0000 0.8064
vn -0.9366 0.0000 0.3504
vn 0.2832 0.0000 -0.9591
vn 0.9997 0.0000 -0.0260
vn -0.9888 0.0000 0.1495
usemtl SVGMat.3781
s off
f 16//1 15//1 14//1
f 16//1 14//1 13//1
f 17//1 16//1 13//1
f 17//1 13//1 12//1
f 18//1 17//1 12//1
f 18//1 12//1 11//1
f 19//1 18//1 11//1
f 20//1 19//1 11//1
f 20//1 11//1 10//1
f 21//1 20//1 10//1
f 5//1 4//1 3//1
f 5//1 3//1 2//1
f 22//1 21//1 10//1
f 22//1 10//1 9//1
f 24//1 23//1 22//1
f 22//1 9//1 8//1
f 24//1 22//1 8//1
f 6//1 5//1 2//1
f 24//1 8//1 7//1
f 25//1 24//1 7//1
f 6//1 2//1 1//1
f 7//1 6//1 1//1
f 25//1 7//1 1//1
f 25//1 1//1 47//1
f 26//1 25//1 47//1
f 26//1 47//1 46//1
f 27//1 26//1 46//1
f 28//1 27//1 46//1
f 29//1 28//1 46//1
f 30//1 29//1 46//1
f 30//1 46//1 45//1
f 31//1 30//1 45//1
f 32//1 31//1 45//1
f 32//1 45//1 44//1
f 33//1 32//1 44//1
f 33//1 44//1 42//1
f 42//1 44//1 43//1
f 33//1 42//1 41//1
f 34//1 33//1 41//1
f 34//1 41//1 40//1
f 35//1 34//1 40//1
f 36//1 35//1 40//1
f 36//1 40//1 39//1
f 36//1 39//1 38//1
f 37//1 36//1 38//1
f 48//2 56//2 57//2
f 48//2 68//2 56//2
f 49//2 68//2 48//2
f 49//2 70//2 68//2
f 80//2 70//2 49//2
f 80//2 69//2 70//2
f 89//2 69//2 80//2
f 90//2 69//2 89//2
f 90//2 64//2 69//2
f 65//2 64//2 90//2
f 79//2 78//2 82//2
f 79//2 88//2 78//2
f 66//2 64//2 65//2
f 66//2 71//2 64//2
f 77//2 66//2 67//2
f 66//2 76//2 71//2
f 77//3 76//3 66//3
f 81//2 88//2 79//2
f 77//2 55//2 76//2
f 87//2 55//2 77//2
f 81//2 54//2 88//2
f 55//2 54//2 81//2
f 87//2 54//2 55//2
f 87//2 94//2 54//2
f 74//2 94//2 87//2
f 74//2 53//2 94//2
f 91//2 53//2 74//2
f 60//2 53//2 91//2
f 61//2 53//2 60//2
f 52//2 53//2 61//2
f 52//2 63//2 53//2
f 62//2 63//2 52//2
f 84//2 63//2 62//2
f 84//2 73//2 63//2
f 50//2 73//2 84//2
f 50//2 75//2 73//2
f 75//2 72//2 73//2
f 50//2 93//2 75//2
f 51//2 93//2 50//2
f 51//2 92//2 93//2
f 83//2 92//2 51//2
f 85//2 92//2 83//2
f 85//2 59//2 92//2
f 85//2 58//2 59//2
f 86//2 58//2 85//2
f 39//4 40//4 92//4 59//4
f 46//5 47//5 94//5 53//5
f 18//6 19//6 89//6 80//6
f 12//7 13//7 68//7 70//7
f 44//8 45//8 63//8 73//8
f 22//9 23//9 67//9 66//9
f 42//10 43//10 72//10 75//10
f 20//11 21//11 65//11 90//11
f 32//12 33//12 50//12 84//12
f 5//13 6//13 81//13 79//13
f 11//14 12//14 70//14 69//14
f 31//15 32//15 84//15 62//15
f 7//16 8//16 76//16 55//16
f 6//17 7//17 55//17 81//17
f 9//18 10//18 64//18 71//18
f 19//19 20//19 90//19 89//19
f 41//20 42//20 75//20 93//20
f 3//21 4//21 82//21 78//21
f 10//22 11//22 69//22 64//22
f 1//23 2//23 88//23 54//23
f 43//24 44//24 73//24 72//24
f 4//25 5//25 79//25 82//25
f 16//26 17//26 49//26 48//26
f 34//27 35//27 83//27 51//27
f 47//28 1//28 54//28 94//28
f 26//29 27//29 91//29 74//29
f 33//30 34//30 51//30 50//30
f 2//31 3//31 78//31 88//31
f 35//32 36//32 85//32 83//32
f 36//33 37//33 86//33 85//33
f 27//34 28//34 60//34 91//34
f 37//35 38//35 58//35 86//35
f 24//36 25//36 87//36 77//36
f 40//37 41//37 93//37 92//37
f 17//38 18//38 80//38 49//38
f 14//39 15//39 57//39 56//39
f 21//40 22//40 66//40 65//40
f 23//41 24//41 77//41 67//41
f 38//42 39//42 59//42 58//42
f 8//43 9//43 71//43 76//43
f 30//44 31//44 62//44 52//44
f 15//45 16//45 48//45 57//45
f 28//46 29//46 61//46 60//46
f 25//47 26//47 74//47 87//47
f 13//48 14//48 56//48 68//48
f 45//49 46//49 53//49 63//49
f 29//50 30//50 52//50 61//50
