# Blender v2.79 (sub 0) OBJ File: 'world_countrycodes_export2.blend'
# www.blender.org
mtllib IL.mtl
o IL.002_CUCurve.1836
v 1.154623 0.000000 0.476244
v 1.155187 0.000000 0.476582
v 1.155381 0.000000 0.474829
v 1.155904 0.000000 0.472056
v 1.156876 0.000000 0.468686
v 1.157445 0.000000 0.467326
v 1.157705 0.000000 0.466131
v 1.157750 0.000000 0.465540
v 1.156810 0.000000 0.464478
v 1.156168 0.000000 0.463430
v 1.155631 0.000000 0.461975
v 1.155801 0.000000 0.460400
v 1.156267 0.000000 0.458544
v 1.156788 0.000000 0.457832
v 1.157487 0.000000 0.457756
v 1.158545 0.000000 0.457807
v 1.158663 0.000000 0.457068
v 1.159032 0.000000 0.454040
v 1.156201 0.000000 0.452823
v 1.155632 0.000000 0.454109
v 1.155270 0.000000 0.455614
v 1.154492 0.000000 0.458131
v 1.153647 0.000000 0.460285
v 1.152672 0.000000 0.462378
v 1.150824 0.000000 0.465606
v 1.154877 0.000000 0.475567
v 1.157705 0.050000 0.466131
v 1.157750 0.050000 0.465540
v 1.155801 0.050000 0.460400
v 1.152672 0.050000 0.462378
v 1.150824 0.050000 0.465606
v 1.159032 0.050000 0.454040
v 1.155270 0.050000 0.455614
v 1.156201 0.050000 0.452823
v 1.156168 0.050000 0.463430
v 1.156810 0.050000 0.464478
v 1.154623 0.050000 0.476244
v 1.155187 0.050000 0.476582
v 1.156788 0.050000 0.457832
v 1.154492 0.050000 0.458131
v 1.157487 0.050000 0.457756
v 1.158545 0.050000 0.457807
v 1.158663 0.050000 0.457068
v 1.157445 0.050000 0.467326
v 1.153647 0.050000 0.460285
v 1.155631 0.050000 0.461975
v 1.155381 0.050000 0.474829
v 1.156876 0.050000 0.468686
v 1.156267 0.050000 0.458544
v 1.155632 0.050000 0.454109
v 1.154877 0.050000 0.475567
v 1.155904 0.050000 0.472056
vn 0.0000 -1.0000 0.0000
vn 0.0000 1.0000 0.0000
vn 0.9926 0.0000 0.1212
vn 0.9699 0.0000 0.2435
vn -0.9309 0.0000 -0.3652
vn -0.0476 0.0000 0.9989
vn -0.9362 0.0000 -0.3514
vn 0.3950 0.0000 -0.9187
vn -0.9143 0.0000 -0.4050
vn 0.9223 0.0000 0.3864
vn 0.9875 0.0000 0.1578
vn 0.9942 0.0000 0.1075
vn 0.8525 0.0000 -0.5227
vn 0.9608 0.0000 0.2771
vn -0.9554 0.0000 -0.2954
vn 0.9771 0.0000 0.2126
vn 0.7488 0.0000 -0.6628
vn 0.9972 0.0000 0.0747
vn -0.9066 0.0000 -0.4221
vn 0.9382 0.0000 -0.3461
vn 0.9827 0.0000 0.1853
vn -0.8678 0.0000 -0.4969
vn -0.9722 0.0000 -0.2340
vn 0.8068 0.0000 0.5908
vn -0.9263 0.0000 0.3769
vn -0.5144 0.0000 0.8575
vn 0.1082 0.0000 0.9941
vn 0.9940 0.0000 0.1096
usemtl SVGMat.3781
s off
f 20//1 19//1 18//1
f 21//1 20//1 18//1
f 21//1 18//1 17//1
f 22//1 21//1 17//1
f 22//1 17//1 14//1
f 14//1 17//1 15//1
f 15//1 17//1 16//1
f 22//1 14//1 13//1
f 23//1 22//1 13//1
f 23//1 13//1 12//1
f 24//1 23//1 12//1
f 24//1 12//1 11//1
f 24//1 11//1 10//1
f 25//1 24//1 10//1
f 25//1 10//1 9//1
f 25//1 9//1 8//1
f 25//1 8//1 7//1
f 25//1 7//1 6//1
f 25//1 6//1 5//1
f 25//1 5//1 4//1
f 25//1 4//1 3//1
f 26//1 25//1 3//1
f 1//1 26//1 3//1
f 1//1 3//1 2//1
f 50//2 32//2 34//2
f 33//2 32//2 50//2
f 33//2 43//2 32//2
f 40//2 43//2 33//2
f 40//2 39//2 43//2
f 39//2 41//2 43//2
f 41//2 42//2 43//2
f 40//2 49//2 39//2
f 45//2 49//2 40//2
f 45//2 29//2 49//2
f 30//2 29//2 45//2
f 30//2 46//2 29//2
f 30//2 35//2 46//2
f 31//2 35//2 30//2
f 31//2 36//2 35//2
f 31//2 28//2 36//2
f 31//2 27//2 28//2
f 31//2 44//2 27//2
f 31//2 48//2 44//2
f 31//2 52//2 48//2
f 31//2 47//2 52//2
f 51//2 47//2 31//2
f 37//2 47//2 51//2
f 37//2 38//2 47//2
f 17//3 18//3 32//3 43//3
f 12//4 13//4 49//4 29//4
f 22//5 23//5 45//5 40//5
f 15//6 16//6 42//6 41//6
f 26//7 1//7 37//7 51//7
f 18//8 19//8 34//8 32//8
f 19//9 20//9 50//9 34//9
f 5//10 6//10 44//10 48//10
f 16//11 17//11 43//11 42//11
f 11//12 12//12 29//12 46//12
f 9//13 10//13 35//13 36//13
f 4//14 5//14 48//14 52//14
f 21//15 22//15 40//15 33//15
f 6//16 7//16 27//16 44//16
f 8//17 9//17 36//17 28//17
f 7//18 8//18 28//18 27//18
f 23//19 24//19 30//19 45//19
f 10//20 11//20 46//20 35//20
f 3//21 4//21 52//21 47//21
f 24//22 25//22 31//22 30//22
f 20//23 21//23 33//23 50//23
f 13//24 14//24 39//24 49//24
f 25//25 26//25 51//25 31//25
f 1//26 2//26 38//26 37//26
f 14//27 15//27 41//27 39//27
f 2//28 3//28 47//28 38//28
