# Blender v2.79 (sub 0) OBJ File: 'world_countrycodes_outlines2.blend'
# www.blender.org
mtllib IL_outline.mtl
o IL.001_CUCurve.1662
v 1.153253 -0.000029 0.465949
v 1.151579 0.001991 0.465690
v 1.149747 0.001490 0.465457
v 1.148626 -0.000694 0.465464
v 1.151838 -0.001960 0.465956
v 1.151801 -0.000822 0.459933
v 1.157234 0.001335 0.454886
v 1.154902 -0.000009 0.450254
v 1.155588 0.001953 0.451715
v 1.157150 -0.000675 0.455594
v 1.155565 -0.001939 0.451906
v 1.160945 -0.001134 0.452932
v 1.160238 0.001731 0.453620
v 1.157336 -0.001937 0.458496
v 1.155991 -0.001438 0.456347
v 1.160209 -0.000694 0.459962
v 1.159019 0.001971 0.458726
v 1.157891 0.000790 0.459651
v 1.157462 0.001863 0.456653
v 1.154755 0.000592 0.456842
v 1.156332 -0.001938 0.462052
v 1.153779 0.000995 0.462503
v 1.154269 -0.001429 0.462967
v 1.157735 0.000011 0.462330
v 1.156138 0.001973 0.461498
v 1.155688 -0.000677 0.466362
v 1.159399 0.001425 0.465502
v 1.156975 0.001968 0.466049
v 1.158068 -0.001918 0.466790
v 1.159931 -0.000822 0.465052
v 1.158001 0.000017 0.471473
v 1.153537 -0.000650 0.473288
v 1.156068 0.001425 0.478644
v 1.154093 -0.002017 0.476536
v 1.154827 0.002046 0.475134
v 1.156844 -0.000812 0.479806
v 1.152599 0.000899 0.476696
v 1.156954 -0.000895 0.475484
vn 0.1700 0.9845 0.0420
vn -0.6868 0.7239 -0.0643
vn -0.7812 0.3374 0.5253
vn 0.9989 0.0461 0.0079
vn -0.0608 0.9871 0.1481
vn -0.8203 -0.5011 -0.2756
vn -0.9478 -0.3009 -0.1058
vn 0.0001 0.9889 0.1486
vn -0.3868 -0.0014 -0.9221
vn -0.1499 0.8432 -0.5163
vn -0.1959 -0.8987 -0.3922
vn 0.1322 -0.9907 -0.0315
vn 0.7603 -0.4587 -0.4599
vn 0.5984 0.7331 -0.3231
vn 0.2344 0.8765 0.4205
vn 0.1884 -0.9478 -0.2570
vn -0.1482 0.9423 -0.3001
vn 0.1370 -0.9833 0.1198
vn -0.3781 -0.7204 -0.5814
vn 0.6021 -0.2746 0.7497
vn 0.5654 0.4730 0.6757
vn -0.7967 0.2929 -0.5286
vn 0.0870 0.9944 -0.0606
vn 0.2316 -0.9678 -0.0981
vn -0.7559 -0.6412 0.1324
vn -0.8938 0.4380 0.0964
vn -0.9159 -0.3544 0.1884
vn -0.2742 0.9589 0.0731
vn 0.2246 -0.9683 0.1093
vn 0.9023 -0.0153 -0.4308
vn 0.9207 -0.3419 -0.1878
vn 0.7592 0.6446 -0.0900
vn 0.9776 -0.0764 0.1961
vn 0.2175 0.7366 0.6403
vn -0.9882 -0.1473 0.0414
vn 0.3956 -0.2777 0.8754
vn -0.3593 -0.8359 0.4150
vn 0.7959 -0.1546 0.5853
usemtl SVGMat.3781
s 1
f 2//1 3//2 37//3
f 1//4 2//1 35//5
f 3//2 6//6 4//7
f 1//4 7//8 2//1
f 3//2 8//9 6//6
f 2//1 9//10 3//2
f 6//6 11//11 5//12
f 8//9 11//11 6//6
f 7//8 9//10 2//1
f 8//9 12//13 11//11
f 9//10 12//13 8//9
f 7//8 13//14 9//10
f 7//8 17//15 13//14
f 10//16 19//17 7//8
f 14//18 15//19 10//16
f 13//14 16//20 12//13
f 17//15 18//21 16//20
f 15//19 20//22 10//16
f 20//22 25//23 19//17
f 21//24 23//25 15//19
f 18//21 21//24 14//18
f 23//25 22//26 20//22
f 23//25 26//27 22//26
f 22//26 28//28 25//23
f 26//27 28//28 22//26
f 29//29 26//27 23//25
f 24//30 30//31 21//24
f 27//32 30//31 24//30
f 27//32 31//33 30//31
f 31//33 29//29 30//31
f 28//28 33//34 27//32
f 32//35 35//5 28//28
f 29//29 32//35 26//27
f 31//33 36//36 29//29
f 33//34 36//36 31//33
f 33//34 37//3 36//36
f 35//5 37//3 33//34
f 34//37 38//38 32//35
f 38//38 1//4 35//5
f 35//5 2//1 37//3
f 34//37 5//12 38//38
f 37//3 4//7 34//37
f 37//3 3//2 4//7
f 34//37 4//7 5//12
f 38//38 5//12 1//4
f 4//7 6//6 5//12
f 5//12 10//16 1//4
f 3//2 9//10 8//9
f 1//4 10//16 7//8
f 5//12 11//11 10//16
f 9//10 13//14 12//13
f 11//11 12//13 10//16
f 12//13 14//18 10//16
f 7//8 19//17 17//15
f 13//14 17//15 16//20
f 12//13 16//20 14//18
f 16//20 18//21 14//18
f 17//15 19//17 18//21
f 10//16 20//22 19//17
f 19//17 25//23 18//21
f 14//18 21//24 15//19
f 20//22 22//26 25//23
f 15//19 23//25 20//22
f 18//21 24//30 21//24
f 18//21 25//23 24//30
f 25//23 27//32 24//30
f 25//23 28//28 27//32
f 21//24 29//29 23//25
f 21//24 30//31 29//29
f 26//27 32//35 28//28
f 27//32 33//34 31//33
f 29//29 34//37 32//35
f 28//28 35//5 33//34
f 29//29 36//36 34//37
f 36//36 37//3 34//37
f 32//35 38//38 35//5
