# Blender v2.79 (sub 0) OBJ File: 'world_countrycodes_outlines2.blend'
# www.blender.org
mtllib IQ_outline.mtl
o IQ.001_CUCurve.1619
v 1.210078 0.000009 0.481180
v 1.222519 -0.000656 0.482509
v 1.211044 -0.001416 0.480710
v 1.210491 0.001951 0.480051
v 1.211648 0.000758 0.477438
v 1.211066 -0.001965 0.478486
v 1.184857 0.001920 0.460473
v 1.197308 0.000830 0.471619
v 1.185408 -0.001395 0.459854
v 1.185465 0.000010 0.459335
v 1.183349 0.000779 0.462931
v 1.183642 -0.001926 0.461779
v 1.178101 0.001845 0.461913
v 1.180225 0.000791 0.458818
v 1.179558 -0.001941 0.460191
v 1.177203 -0.000681 0.462945
v 1.174655 0.000004 0.451482
v 1.178463 0.001414 0.453300
v 1.179045 -0.000770 0.453627
v 1.176032 -0.001966 0.452248
v 1.175966 0.001914 0.452173
v 1.190116 -0.001968 0.446349
v 1.188824 -0.001365 0.444184
v 1.190274 0.002007 0.444905
v 1.190789 0.000679 0.447330
v 1.188445 0.000829 0.443881
v 1.191831 -0.001440 0.442866
v 1.192540 0.000669 0.443356
v 1.188329 0.000767 0.440334
v 1.193039 0.000786 0.438012
v 1.189251 -0.000844 0.437310
v 1.192164 -0.001915 0.437466
v 1.190593 0.001987 0.438040
v 1.189415 -0.001949 0.432793
v 1.188176 0.000042 0.433501
v 1.189482 0.001962 0.433623
v 1.192329 0.000859 0.433973
v 1.191891 -0.001361 0.433701
v 1.191031 0.000807 0.430168
v 1.198489 -0.001026 0.424696
v 1.198597 0.001969 0.425945
v 1.200283 0.000763 0.428295
v 1.199797 -0.001958 0.427030
v 1.201375 0.000769 0.424352
v 1.205531 0.000774 0.425382
v 1.204803 0.001910 0.428422
v 1.205291 -0.001914 0.426520
v 1.205167 -0.000968 0.429367
v 1.210673 0.001924 0.430437
v 1.209527 0.000703 0.427392
v 1.211428 -0.000083 0.431581
v 1.210779 -0.001798 0.430717
v 1.213879 0.000169 0.410427
v 1.208551 0.000769 0.443939
v 1.213269 -0.000394 0.428129
v 1.209044 0.000016 0.429163
v 1.210052 -0.001957 0.428689
v 1.215748 0.000025 0.433786
v 1.215237 0.001383 0.434155
v 1.211061 0.000803 0.432904
v 1.214240 0.001931 0.436427
v 1.214491 -0.001899 0.434452
v 1.212517 -0.000875 0.436387
v 1.216817 -0.001359 0.438002
v 1.219304 -0.001929 0.436820
v 1.216518 0.000859 0.438260
v 1.219509 0.000009 0.435162
v 1.219331 0.001919 0.436931
v 1.220541 0.000081 0.440387
v 1.216241 0.000055 0.440005
v 1.217221 0.001919 0.440698
v 1.217046 -0.001904 0.440782
v 1.219495 -0.001384 0.442069
v 1.219250 0.000932 0.442876
v 1.213664 0.000831 0.445249
v 1.213975 -0.001374 0.445654
v 1.214069 0.001963 0.449953
v 1.214498 -0.002034 0.448798
v 1.216964 0.000955 0.447496
v 1.216261 -0.001257 0.448908
v 1.213500 -0.000734 0.451514
v 1.217491 0.000859 0.449435
v 1.216989 0.000845 0.453881
v 1.218220 -0.001974 0.453518
v 1.220976 -0.000944 0.453619
v 1.219930 0.001919 0.454513
v 1.218151 0.001479 0.456275
v 1.217875 -0.000679 0.456896
v 1.226217 0.001991 0.459796
v 1.226163 -0.001982 0.459167
v 1.223927 -0.000783 0.456163
v 1.227269 0.001401 0.457946
v 1.225074 -0.000859 0.460613
v 1.227522 -0.000675 0.457302
v 1.228083 -0.001982 0.464266
v 1.230503 -0.000705 0.462250
v 1.229955 0.001411 0.462374
v 1.226443 0.000775 0.463026
v 1.227001 0.002098 0.465651
v 1.230030 0.000812 0.465459
v 1.225613 -0.000757 0.466210
v 1.231526 -0.002006 0.473405
v 1.228255 0.001462 0.469663
v 1.227704 -0.000881 0.469463
v 1.231705 -0.000922 0.469635
v 1.230469 0.001962 0.470001
v 1.229137 -0.000658 0.473020
v 1.230447 0.001430 0.473433
v 1.236578 -0.000706 0.474994
v 1.234297 0.001954 0.474491
v 1.230492 -0.001279 0.477319
v 1.230379 0.001860 0.476456
v 1.230659 -0.000805 0.472709
v 1.226888 0.000842 0.475025
v 1.226467 -0.001307 0.474449
v 1.225377 0.001944 0.472491
v 1.228443 0.000781 0.471340
v 1.225492 -0.001938 0.472380
v 1.224060 -0.000053 0.471962
v 1.221880 0.001803 0.481394
v 1.220206 0.000978 0.478409
v 1.220883 -0.001948 0.479413
vn -0.4005 0.0009 0.9163
vn -0.1885 -0.7563 0.6264
vn 0.4206 -0.2990 0.8566
vn -0.0949 -0.9880 -0.1216
vn 0.3076 0.4160 -0.8557
vn -0.3676 0.6069 -0.7046
vn 0.1466 0.9260 -0.3478
vn -0.1396 0.9174 0.3726
vn 0.2432 -0.7055 -0.6657
vn 0.3418 0.0913 -0.9353
vn -0.1902 0.4211 0.8868
vn -0.4838 0.5078 0.7127
vn -0.0778 -0.9351 0.3455
vn 0.1322 -0.9409 -0.3118
vn -0.3728 0.8216 0.4311
vn -0.6141 -0.2806 0.7376
vn 0.5755 0.5629 -0.5933
vn 0.0427 -0.9947 -0.0932
vn -0.9091 -0.0022 -0.4166
vn -0.4328 -0.8837 -0.1783
vn 0.4472 0.8678 0.2167
vn -0.4766 0.8596 -0.1842
vn 0.7445 -0.5960 0.3007
vn 0.4254 -0.8390 0.3393
vn -0.5178 -0.7926 -0.3219
vn 0.1853 0.9781 0.0951
vn 0.6963 0.2627 0.6679
vn 0.7678 -0.6144 0.1816
vn 0.9346 0.2703 0.2310
vn -0.9309 0.3358 -0.1433
vn -0.7423 0.5110 -0.4334
vn 0.9267 0.3740 -0.0374
vn -0.1660 0.9831 -0.0774
vn 0.5131 -0.8580 -0.0219
vn -0.8847 -0.4637 0.0469
vn -0.4305 0.8985 -0.0857
vn -0.5282 -0.8033 -0.2748
vn -0.9836 0.0446 -0.1750
vn 0.7397 0.5791 0.3427
vn 0.5731 -0.7888 0.2222
vn -0.6367 0.3051 -0.7082
vn -0.3069 -0.4109 -0.8585
vn -0.2057 0.8876 -0.4121
vn 0.0641 0.3926 0.9174
vn 0.0334 -0.9800 0.1962
vn 0.0914 0.3016 -0.9490
vn 0.1712 -0.8875 -0.4277
vn 0.3144 0.3695 -0.8744
vn -0.0656 0.9053 0.4196
vn 0.0002 -0.9839 -0.1787
vn -0.2502 0.8880 0.3858
vn -0.3420 0.6027 -0.7209
vn -0.2334 -0.4672 0.8527
vn 0.3408 0.3616 0.8678
vn 0.1573 0.0125 -0.9875
vn -0.9624 0.0345 0.2694
vn 0.1402 -0.0538 -0.9886
vn 0.9587 -0.1459 -0.2440
vn 0.4796 -0.1081 0.8708
vn 0.3757 0.8227 -0.4265
vn -0.8639 0.2729 0.4234
vn -0.3407 0.8400 0.4221
vn 0.1308 -0.9854 -0.1089
vn 0.6531 -0.0880 -0.7521
vn -0.6781 -0.3586 0.6416
vn -0.5251 -0.8166 0.2394
vn -0.6900 0.5961 0.4104
vn 0.7123 0.0020 -0.7018
vn 0.5201 -0.8175 -0.2472
vn 0.5157 0.8311 -0.2081
vn 0.9891 0.0836 0.1212
vn -0.9777 0.0126 -0.2095
vn -0.2611 0.9626 -0.0722
vn 0.7003 -0.6595 0.2731
vn 0.7535 0.5578 0.3478
vn 0.8041 0.5627 0.1918
vn -0.8936 0.3532 -0.2770
vn -0.3908 -0.9149 -0.1008
vn -0.5354 0.8315 0.1480
vn -0.3113 -0.9496 0.0375
vn 0.6601 -0.7392 -0.1337
vn -0.7865 -0.5724 -0.2317
vn -0.8364 -0.2603 0.4823
vn 0.7397 0.4659 -0.4855
vn -0.7262 0.3878 0.5676
vn -0.1804 -0.9782 0.1022
vn 0.2303 0.9290 -0.2897
vn 0.6689 -0.3056 -0.6776
vn -0.6977 -0.3535 0.6231
vn -0.5624 0.7005 0.4393
vn -0.1996 0.9678 0.1532
vn 0.0516 -0.9961 -0.0711
vn 0.5232 -0.2351 -0.8191
vn 0.5039 0.6526 -0.5658
vn -0.7048 -0.3366 0.6244
vn 0.5781 -0.3179 -0.7515
vn -0.0028 -1.0000 0.0035
vn 0.9051 -0.3990 -0.1467
vn 0.7108 0.6845 -0.1618
vn -0.9856 0.0465 0.1626
vn -0.4333 0.8968 0.0888
vn 0.9101 0.3894 -0.1416
vn -0.9330 -0.3409 0.1156
vn -0.7872 -0.4799 0.3872
vn 0.8273 -0.3436 -0.4443
vn -0.6518 0.6657 0.3633
vn -0.1325 -0.9897 0.0533
vn -0.6135 -0.2575 0.7465
vn -0.0415 0.9991 -0.0112
vn 0.5267 0.8351 0.1587
vn 0.3184 0.9363 -0.1478
vn 0.9508 -0.2040 0.2332
vn -0.0359 -0.5005 0.8650
vn -0.0132 0.7500 0.6613
vn 0.0285 0.5790 0.8148
vn -0.2159 0.8615 -0.4595
vn 0.0540 -0.8479 0.5274
vn -0.1470 -0.8379 -0.5257
vn 0.5102 -0.6925 0.5100
vn 0.2310 0.2726 -0.9340
vn -0.6004 -0.0303 -0.7991
vn 0.2259 0.8249 0.5182
usemtl SVGMat.3781
s 1
f 1//1 3//2 2//3
f 122//4 5//5 121//6
f 5//5 7//7 4//8
f 9//9 10//10 5//5
f 10//10 7//7 5//5
f 7//7 11//11 8//12
f 3//2 12//13 6//14
f 11//11 12//13 3//2
f 7//7 13//15 11//11
f 13//15 16//16 11//11
f 10//10 14//17 7//7
f 9//9 14//17 10//10
f 12//13 15//18 9//9
f 14//17 13//15 7//7
f 13//15 17//19 16//16
f 17//19 20//20 16//16
f 18//21 21//22 13//15
f 15//18 19//23 14//17
f 16//16 20//20 15//18
f 20//20 19//23 15//18
f 20//20 22//24 19//23
f 17//19 23//25 20//20
f 18//21 24//26 21//22
f 19//23 25//27 18//21
f 23//25 22//24 20//20
f 22//24 25//27 19//23
f 27//28 28//29 25//27
f 24//26 29//30 26//31
f 30//32 33//33 24//26
f 27//28 30//32 28//29
f 23//25 32//34 22//24
f 29//30 31//35 23//25
f 30//32 36//36 33//33
f 31//35 34//37 32//34
f 33//33 35//38 31//35
f 32//34 37//39 30//32
f 34//37 38//40 32//34
f 39//41 40//42 34//37
f 36//36 41//43 39//41
f 37//39 41//43 36//36
f 38//40 42//44 37//39
f 34//37 43//45 38//40
f 41//43 44//46 40//42
f 44//46 47//47 40//42
f 41//43 45//48 44//46
f 42//44 46//49 41//43
f 40//42 47//47 43//45
f 45//48 57//50 47//47
f 49//51 50//52 45//48
f 48//53 49//51 46//49
f 57//50 52//54 48//53
f 50//52 53//55 57//50
f 49//51 53//55 50//52
f 51//56 54//57 49//51
f 49//51 55//58 53//55
f 52//54 56//59 54//57
f 49//51 59//60 55//58
f 56//59 60//61 49//51
f 57//50 60//61 56//59
f 60//61 61//62 49//51
f 55//58 62//63 57//50
f 58//64 62//63 55//58
f 63//65 61//62 60//61
f 62//63 64//66 63//65
f 64//66 66//67 63//65
f 59//60 67//68 58//64
f 67//68 65//69 62//63
f 68//70 69//71 67//68
f 64//66 70//72 66//67
f 66//67 71//73 68//70
f 69//71 73//74 65//69
f 71//73 74//75 68//70
f 70//72 71//73 66//67
f 71//73 79//76 74//75
f 70//72 75//77 71//73
f 72//78 75//77 70//72
f 75//77 77//79 71//73
f 73//74 78//80 72//78
f 74//75 80//81 73//74
f 76//82 81//83 75//77
f 78//80 81//83 76//82
f 77//79 82//84 79//76
f 81//83 83//85 77//79
f 78//80 84//86 81//83
f 83//85 86//87 77//79
f 80//81 84//86 78//80
f 82//84 85//88 80//81
f 84//86 88//89 83//85
f 87//90 89//91 86//87
f 85//88 90//92 84//86
f 86//87 91//93 85//88
f 89//91 92//94 86//87
f 88//89 89//91 87//90
f 90//92 93//95 88//89
f 92//94 94//96 91//93
f 90//92 95//97 93//95
f 92//94 96//98 94//96
f 89//91 97//99 92//94
f 93//95 98//100 89//91
f 95//97 98//100 93//95
f 98//100 99//101 89//91
f 96//98 95//97 90//92
f 97//99 100//102 96//98
f 99//101 100//102 97//99
f 95//97 101//103 98//100
f 95//97 104//104 101//103
f 100//102 105//105 95//97
f 101//103 103//106 99//101
f 102//107 107//108 104//104
f 107//108 108//109 103//106
f 108//109 110//110 106//111
f 106//111 109//112 105//105
f 110//110 111//113 109//112
f 108//109 112//114 110//110
f 112//114 114//115 111//113
f 108//109 116//116 112//114
f 115//117 118//118 111//113
f 113//119 117//120 108//109
f 118//118 119//121 117//120
f 116//116 120//122 114//115
f 119//121 121//6 116//116
f 115//117 122//4 118//118
f 120//122 2//3 114//115
f 122//4 121//6 119//121
f 121//6 120//122 116//116
f 120//122 1//1 2//3
f 121//6 4//8 120//122
f 2//3 6//14 122//4
f 2//3 3//2 6//14
f 120//122 4//8 1//1
f 121//6 5//5 4//8
f 122//4 6//14 5//5
f 4//8 8//12 1//1
f 4//8 7//7 8//12
f 1//1 8//12 3//2
f 6//14 9//9 5//5
f 8//12 11//11 3//2
f 6//14 12//13 9//9
f 11//11 16//16 12//13
f 9//9 15//18 14//17
f 12//13 16//16 15//18
f 14//17 18//21 13//15
f 14//17 19//23 18//21
f 13//15 21//22 17//19
f 21//22 26//31 17//19
f 21//22 24//26 26//31
f 18//21 25//27 24//26
f 17//19 26//31 23//25
f 22//24 27//28 25//27
f 25//27 28//29 24//26
f 26//31 29//30 23//25
f 28//29 30//32 24//26
f 24//26 33//33 29//30
f 22//24 32//34 27//28
f 23//25 31//35 32//34
f 27//28 32//34 30//32
f 29//30 33//33 31//35
f 31//35 35//38 34//37
f 33//33 36//36 35//38
f 30//32 37//39 36//36
f 32//34 38//40 37//39
f 36//36 39//41 35//38
f 35//38 39//41 34//37
f 39//41 41//43 40//42
f 37//39 42//44 41//43
f 38//40 43//45 42//44
f 34//37 40//42 43//45
f 44//46 45//48 47//47
f 41//43 46//49 45//48
f 43//45 48//53 42//44
f 43//45 47//47 48//53
f 42//44 48//53 46//49
f 46//49 49//51 45//48
f 47//47 57//50 48//53
f 45//48 50//52 57//50
f 48//53 51//56 49//51
f 48//53 52//54 51//56
f 52//54 54//57 51//56
f 56//59 49//51 54//57
f 52//54 57//50 56//59
f 53//55 55//58 57//50
f 55//58 59//60 58//64
f 57//50 63//65 60//61
f 49//51 61//62 59//60
f 57//50 62//63 63//65
f 61//62 68//70 59//60
f 62//63 65//69 64//66
f 63//65 66//67 61//62
f 61//62 66//67 68//70
f 58//64 67//68 62//63
f 59//60 68//70 67//68
f 67//68 69//71 65//69
f 65//69 72//78 64//66
f 68//70 74//75 69//71
f 64//66 72//78 70//72
f 65//69 73//74 72//78
f 69//71 74//75 73//74
f 72//78 76//82 75//77
f 71//73 77//79 79//76
f 72//78 78//80 76//82
f 74//75 79//76 80//81
f 73//74 80//81 78//80
f 75//77 81//83 77//79
f 79//76 82//84 80//81
f 81//83 84//86 83//85
f 77//79 86//87 82//84
f 80//81 85//88 84//86
f 82//84 86//87 85//88
f 83//85 87//90 86//87
f 83//85 88//89 87//90
f 84//86 90//92 88//89
f 85//88 91//93 90//92
f 86//87 92//94 91//93
f 88//89 93//95 89//91
f 91//93 94//96 90//92
f 92//94 97//99 96//98
f 94//96 96//98 90//92
f 89//91 99//101 97//99
f 96//98 100//102 95//97
f 98//100 101//103 99//101
f 99//101 106//111 100//102
f 95//97 102//107 104//104
f 99//101 103//106 106//111
f 101//103 104//104 103//106
f 95//97 105//105 102//107
f 100//102 106//111 105//105
f 104//104 107//108 103//106
f 103//106 108//109 106//111
f 106//111 110//110 109//112
f 105//105 109//112 102//107
f 110//110 112//114 111//113
f 107//108 113//119 108//109
f 107//108 102//107 113//119
f 109//112 111//113 102//107
f 102//107 111//113 113//119
f 111//113 114//115 115//117
f 112//114 116//116 114//115
f 111//113 118//118 113//119
f 108//109 117//120 116//116
f 113//119 118//118 117//120
f 117//120 119//121 116//116
f 118//118 122//4 119//121
f 114//115 2//3 115//117
f 115//117 2//3 122//4
