# Blender v2.79 (sub 0) OBJ File: 'world_countrycodes_outlines2.blend'
# www.blender.org
mtllib IT_outline.mtl
o IT.001_CUCurve.002
v 1.047211 -0.000794 0.426065
v 1.046223 0.001841 0.425907
v 1.043374 0.000744 0.424992
v 1.044227 -0.001874 0.425754
v 1.047127 -0.000795 0.431712
v 1.045938 0.002006 0.431149
v 1.043792 -0.000921 0.428470
v 1.044739 -0.002019 0.431149
v 1.043630 0.001473 0.432733
v 1.042884 -0.000682 0.433093
v 1.038672 0.000757 0.429669
v 1.044039 0.001652 0.429334
v 1.036703 -0.001551 0.428330
v 1.032012 0.000759 0.427271
v 1.031836 0.001966 0.423815
v 1.033698 -0.000531 0.423484
v 1.030314 -0.001943 0.423962
v 1.029138 0.000753 0.423726
v 1.033032 0.000979 0.419468
v 1.035249 -0.001886 0.422329
v 1.033915 -0.001416 0.419521
v 1.036332 0.001835 0.421091
v 1.035783 0.001807 0.422860
v 1.038643 -0.000735 0.420395
v 1.039125 -0.000760 0.424315
v 1.048544 0.001963 0.420686
v 1.045631 0.000792 0.422880
v 1.046199 -0.001532 0.422366
v 1.046195 -0.000873 0.419286
v 1.048647 -0.001956 0.421321
v 1.049940 0.000001 0.421145
v 1.015120 0.001966 0.403596
v 1.016725 -0.001911 0.402883
v 1.016900 0.000813 0.415098
v 1.013329 0.000027 0.412613
v 1.014377 -0.001950 0.413655
v 1.016398 -0.001190 0.415134
v 1.014284 0.001946 0.413997
v 1.010297 0.000945 0.414703
v 1.009966 -0.001434 0.415228
v 1.009278 -0.001931 0.417713
v 1.010774 0.000724 0.418821
v 1.007166 0.000923 0.417419
v 1.008873 0.001987 0.417265
v 1.006501 -0.000898 0.414759
v 1.007233 0.001574 0.409753
v 1.010920 -0.000003 0.408535
v 1.007852 -0.001941 0.408908
v 1.004243 -0.000669 0.403825
v 1.007222 0.001978 0.403962
v 1.008261 -0.000969 0.404974
v 1.006541 -0.002070 0.402534
v 1.005152 0.001251 0.401854
v 1.012784 0.001877 0.400724
v 1.009486 -0.000776 0.400889
v 1.013483 0.000645 0.403885
v 1.014061 -0.001219 0.403446
v 1.014111 -0.001604 0.400304
v 1.017818 0.000762 0.402775
v 1.063431 -0.000100 0.411893
v 1.062774 -0.001923 0.410637
v 1.062504 0.001918 0.410680
v 1.055303 0.000674 0.409002
v 1.058089 0.000860 0.405101
v 1.057066 -0.001943 0.406003
v 1.055137 -0.001025 0.408619
v 1.054223 0.001919 0.406426
v 1.053853 -0.000801 0.405422
v 1.052099 0.001939 0.409953
v 1.050710 0.000084 0.409928
v 1.052238 -0.001947 0.409329
v 1.054040 -0.000983 0.413759
v 1.058146 0.000787 0.412805
v 1.055695 0.002009 0.414090
v 1.057112 -0.001881 0.413009
v 1.057744 -0.000708 0.415533
v 1.055376 0.001353 0.417122
v 1.051378 -0.000766 0.415855
v 1.052176 0.001783 0.416275
v 1.053774 -0.001922 0.417421
v 1.052772 0.000850 0.422632
v 1.049963 -0.001251 0.420487
v 1.049793 -0.001939 0.423983
v 1.050593 0.000967 0.420574
v 1.049163 0.000030 0.424857
v 1.049306 0.001924 0.423650
v 1.046632 -0.000021 0.420065
v 1.047871 0.001927 0.419739
v 1.047984 -0.001945 0.419828
v 1.048607 0.000848 0.415084
v 1.051155 0.002020 0.415518
v 1.049704 -0.001913 0.414872
v 1.052376 -0.000834 0.415033
v 1.050172 0.000886 0.408490
v 1.046499 0.000448 0.410511
v 1.047257 0.002062 0.408479
v 1.047027 -0.001418 0.410116
v 1.049231 -0.001084 0.407367
v 1.046529 -0.002015 0.407916
v 1.043128 0.000829 0.407319
v 1.045566 0.000743 0.404213
v 1.043785 -0.001087 0.403517
v 1.035443 0.001129 0.402376
v 1.035231 0.001923 0.399648
v 1.038639 -0.000249 0.399308
v 1.035009 -0.001989 0.400431
v 1.031624 -0.000812 0.401116
v 1.022936 -0.000688 0.393646
v 1.020967 0.001921 0.390581
v 1.033170 0.000925 0.397095
v 1.023556 -0.001415 0.389870
v 1.020339 -0.001966 0.389376
v 1.023040 0.000745 0.388731
v 1.018256 -0.000433 0.387404
v 1.020092 -0.001938 0.383929
v 1.020794 0.000958 0.382774
v 1.014684 0.001954 0.378897
v 1.015667 0.001425 0.381966
v 1.015045 -0.000732 0.382196
v 1.016406 -0.000999 0.378489
v 1.010386 -0.001385 0.380620
v 1.009322 0.002028 0.379681
v 1.010227 0.000843 0.381265
v 1.009270 0.000635 0.377164
v 1.008798 -0.001959 0.378802
v 1.007595 0.000697 0.384464
v 1.006078 0.000745 0.380791
v 1.005563 -0.001636 0.380878
v 1.007253 -0.001809 0.383517
v 1.002563 -0.001947 0.384630
v 1.000970 0.000683 0.385912
v 1.002022 -0.000989 0.382235
v 1.002996 0.001758 0.382045
v 1.005007 0.001554 0.379549
v 1.001997 0.000050 0.378769
v 1.000620 -0.001950 0.379599
v 1.000540 0.002006 0.379544
v 0.998632 -0.000008 0.381962
v 0.998993 0.001949 0.377901
v 0.998227 -0.000746 0.377454
v 1.002401 0.000907 0.376463
v 1.001517 -0.001796 0.376588
v 0.996318 -0.000663 0.375465
v 1.000569 0.000829 0.375189
v 0.999996 -0.001461 0.375052
v 0.997612 -0.002004 0.373704
v 0.996736 0.001728 0.373640
v 0.998748 0.000844 0.372002
v 1.002016 0.001956 0.371819
v 0.999501 -0.001404 0.372153
v 1.002666 -0.001625 0.371523
v 1.001843 0.000921 0.370104
v 0.999499 -0.002163 0.369428
v 0.998932 0.001921 0.369336
v 0.998191 0.000419 0.367242
v 1.006608 0.001156 0.369899
v 1.004262 0.000004 0.366166
v 1.006430 -0.001791 0.369021
v 1.006652 0.000584 0.362595
v 1.008139 0.000707 0.366634
v 1.007849 -0.002002 0.365216
v 1.008081 -0.000956 0.362123
v 1.008596 0.001947 0.363651
v 1.011389 -0.000871 0.366519
v 1.011371 0.001551 0.367256
v 1.010789 -0.000760 0.370747
v 1.011824 0.001960 0.369963
v 1.013629 -0.001648 0.369234
v 1.014371 0.000976 0.366875
v 1.012136 -0.001841 0.364439
v 1.011576 -0.000000 0.363437
v 1.012429 0.001818 0.364188
v 1.015634 0.000981 0.363367
v 1.018164 0.001914 0.364911
v 1.015725 -0.000438 0.367423
v 1.016676 -0.001991 0.364283
v 1.018774 -0.000889 0.365592
v 1.016196 -0.000774 0.362117
v 1.018272 0.001415 0.362199
v 1.018004 -0.000777 0.361761
v 1.021419 0.000923 0.363952
v 1.021373 -0.001304 0.363679
v 1.020639 -0.002026 0.361430
v 1.020017 0.000697 0.359541
v 1.023045 -0.000711 0.359432
v 1.021938 0.001942 0.361215
v 1.028122 0.000617 0.361633
v 1.028644 -0.001673 0.361168
v 1.030669 0.000897 0.358123
v 1.030437 -0.001872 0.359264
v 1.030648 0.001964 0.361420
v 1.029156 0.000741 0.363801
v 1.032060 -0.000767 0.360821
v 1.032985 -0.002002 0.363891
v 1.031865 0.001517 0.364446
v 1.035915 -0.000332 0.360973
v 1.034025 0.001938 0.370789
v 1.031604 -0.001991 0.372084
v 1.031147 0.001121 0.369399
v 1.035154 -0.000614 0.371747
v 1.032870 0.001034 0.373050
v 1.030179 0.001996 0.373508
v 1.028609 -0.000741 0.371837
v 1.028806 -0.000729 0.375336
v 1.032580 -0.000744 0.378243
v 1.029390 0.001932 0.379078
v 1.031914 0.001379 0.378719
v 1.029343 -0.000023 0.381181
v 1.030171 -0.001914 0.380475
v 1.038950 0.000778 0.383357
v 1.036780 -0.001940 0.385100
v 1.038750 -0.001377 0.383813
v 1.036541 0.001570 0.386060
v 1.041342 0.001941 0.391748
v 1.039222 -0.000743 0.393632
v 1.041555 -0.001938 0.392064
v 1.046166 0.000750 0.394392
v 1.041504 0.001761 0.395579
v 1.044911 -0.000771 0.398127
v 1.043557 -0.000652 0.393085
v 1.048826 -0.001950 0.398228
v 1.050698 0.000698 0.395099
v 1.051134 -0.001250 0.396376
v 1.049975 0.001993 0.397741
v 1.048696 0.000794 0.399696
v 1.061807 -0.000866 0.403215
v 1.061746 0.001168 0.407628
v 1.061286 -0.000852 0.407698
v 1.063987 -0.001973 0.407218
v 1.064690 0.001007 0.405678
v 1.064182 0.001880 0.407611
vn 0.9771 0.0430 -0.2085
vn 0.8703 -0.4176 0.2609
vn 0.5178 -0.8286 -0.2127
vn 0.4739 0.7899 -0.3891
vn -0.2294 -0.9586 0.1686
vn -0.8812 0.3547 -0.3124
vn -0.6565 0.7537 -0.0287
vn -0.5021 -0.8543 -0.1342
vn 0.3363 0.9392 0.0695
vn 0.8086 -0.2874 0.5133
vn 0.4655 0.8279 0.3129
vn -0.6017 -0.6447 -0.4715
vn 0.1354 -0.9557 0.2614
vn -0.0557 0.6613 0.7480
vn -0.2029 -0.3285 0.9225
vn -0.4168 0.5903 0.6912
vn -0.1437 0.9597 -0.2416
vn -0.5283 0.2988 0.7947
vn -0.3297 -0.6662 0.6689
vn -0.6116 -0.7896 0.0501
vn 0.6236 -0.6467 0.4393
vn -0.1600 0.9867 0.0295
vn -0.9577 0.2857 -0.0339
vn -0.1448 -0.6066 -0.7817
vn -0.3454 0.4351 -0.8314
vn 0.0276 0.8203 0.5712
vn 0.0271 -0.9756 0.2179
vn -0.0018 -0.3200 -0.9474
vn 0.0732 0.8720 -0.4840
vn 0.0302 -0.2568 0.9660
vn 0.0486 -0.2756 -0.9600
vn 0.8657 0.3336 -0.3731
vn 0.6606 -0.5980 0.4538
vn 0.5134 -0.8169 -0.2630
vn -0.0167 0.9997 -0.0162
vn 0.7938 0.4082 0.4506
vn -0.5676 0.5927 0.5714
vn -0.0244 0.9995 -0.0170
vn -0.2833 -0.9252 0.2525
vn -0.8932 0.0051 -0.4495
vn -0.0976 -0.9915 -0.0852
vn 0.1886 0.8106 -0.5544
vn -0.1975 -0.7861 0.5857
vn 0.1631 0.2473 0.9551
vn -0.0628 -0.9221 -0.3818
vn -0.1656 0.9256 0.3402
vn -0.7659 0.2853 0.5761
vn -0.9100 -0.3967 0.1203
vn -0.5415 0.8368 0.0812
vn 0.9765 0.0505 -0.2095
vn -0.2384 -0.9695 0.0567
vn -0.9679 -0.2484 -0.0374
vn 0.0029 0.9964 0.0851
vn 0.7053 -0.6831 0.1897
vn 0.0748 0.7786 -0.6230
vn -0.6617 0.4569 -0.5944
vn -0.3027 -0.8649 -0.4004
vn -0.2062 -0.2281 -0.9515
vn 0.2136 -0.5947 -0.7750
vn 0.4682 -0.0283 0.8831
vn 0.2201 -0.8569 0.4661
vn 0.5845 -0.8107 -0.0328
vn 0.3477 -0.8784 0.3279
vn 0.1451 0.8493 0.5075
vn 0.3196 0.8710 0.3731
vn -0.0150 -0.9976 -0.0676
vn 0.2685 0.3597 -0.8936
vn -0.1228 0.9918 0.0355
vn 0.0942 -0.8515 -0.5157
vn -0.3122 0.8421 -0.4397
vn -0.4784 -0.2955 -0.8269
vn -0.4860 -0.8714 -0.0662
vn -0.9976 0.0152 0.0679
vn -0.4629 0.8850 0.0493
vn 0.5376 -0.8299 -0.1491
vn 0.9006 0.3755 -0.2188
vn 0.0593 0.9982 0.0028
vn 0.8382 -0.2406 0.4894
vn 0.5738 0.6135 0.5425
vn -0.7739 -0.6264 -0.0924
vn -0.4940 0.8051 -0.3283
vn -0.7806 -0.3378 -0.5258
vn 0.7653 0.3128 0.5625
vn -0.0184 -0.7856 0.6184
vn 0.2459 -0.9475 0.2042
vn 0.0342 -0.9950 -0.0940
vn -0.5083 0.8255 -0.2452
vn -0.2084 0.8296 0.5180
vn -0.9977 -0.0327 0.0598
vn -0.2871 0.0156 0.9578
vn -0.4221 -0.9065 0.0107
vn -0.4529 0.8914 0.0160
vn -0.2149 -0.9766 0.0074
vn -0.8998 0.4359 0.0154
vn 0.4765 0.8792 0.0048
vn 0.9326 -0.3602 -0.0185
vn 0.6226 -0.4331 -0.6518
vn -0.8144 -0.4650 0.3472
vn 0.0560 0.9934 -0.0998
vn 0.6960 0.4372 -0.5695
vn -0.1651 -0.9862 0.0072
vn -0.8534 0.1695 0.4928
vn -0.5571 0.1561 0.8156
vn 0.6089 0.2937 -0.7368
vn 0.0083 -0.9961 0.0879
vn -0.4404 0.4204 0.7932
vn 0.5724 -0.0617 -0.8176
vn 0.3725 -0.6438 -0.6684
vn 0.1295 0.9745 -0.1829
vn -0.5185 -0.2621 0.8139
vn -0.6301 -0.2596 0.7318
vn -0.4169 0.8392 0.3492
vn 0.5507 0.2155 -0.8064
vn -0.4381 -0.8506 0.2906
vn 0.5236 -0.6895 -0.5004
vn 0.7048 0.5151 -0.4877
vn -0.8454 -0.3147 0.4314
vn 0.3878 -0.8948 -0.2211
vn 0.7759 0.4076 -0.4815
vn 0.1849 0.8456 -0.5008
vn -0.5563 0.6475 0.5208
vn -0.4651 -0.2298 0.8549
vn 0.4295 -0.4052 -0.8071
vn -0.2550 -0.8214 -0.5102
vn 0.3121 0.4906 0.8136
vn 0.3377 -0.7809 0.5255
vn 0.1857 -0.8122 0.5529
vn -0.0810 0.9934 -0.0809
vn 0.4558 0.3660 0.8113
vn -0.0920 0.2517 -0.9634
vn -0.3077 0.2165 -0.9265
vn -0.1680 0.9576 0.2337
vn -0.3132 -0.8372 0.4483
vn -0.6856 0.2755 0.6738
vn -0.5585 -0.7608 0.3306
vn 0.5337 0.5855 -0.6101
vn -0.0557 -0.8431 -0.5348
vn 0.8379 -0.1046 -0.5357
vn -0.0749 -0.9959 0.0503
vn -0.7220 -0.0281 0.6913
vn -0.0440 0.9967 0.0674
vn -0.4232 0.8983 0.1178
vn -0.7332 -0.5570 0.3901
vn 0.8557 0.3810 -0.3500
vn 0.5698 -0.7824 -0.2511
vn -0.9287 -0.2878 0.2337
vn -0.7074 0.6334 -0.3135
vn 0.7801 0.5416 -0.3131
vn -0.5100 -0.8061 -0.3002
vn 0.6295 0.7745 0.0626
vn -0.8066 0.3675 -0.4629
vn -0.5268 -0.7687 -0.3627
vn 0.8182 -0.5700 -0.0749
vn 0.6693 -0.6865 -0.2839
vn -0.4093 -0.9030 -0.1306
vn -0.4621 0.8802 -0.1078
vn -0.7302 0.0835 -0.6781
vn -0.5733 0.1017 -0.8130
vn 0.6748 0.5437 0.4989
vn 0.4410 0.5452 0.7129
vn 0.3628 -0.8046 0.4701
vn -0.0911 -0.9933 -0.0712
vn 0.2385 0.8443 -0.4798
vn -0.5495 0.3197 -0.7719
vn 0.2483 0.5464 0.7998
vn -0.1282 -0.8374 -0.5312
vn 0.1309 -0.4389 -0.8889
vn -0.2839 -0.3007 0.9105
vn 0.5279 -0.6341 0.5649
vn 0.3478 0.7987 0.4910
vn 0.0996 0.7428 0.6620
vn -0.3329 0.8382 -0.4319
vn -0.0531 0.9486 -0.3120
vn -0.6579 -0.0217 -0.7527
vn -0.1215 -0.9916 -0.0439
vn -0.4104 -0.8386 -0.3581
vn -0.2634 0.4945 -0.8283
vn 0.1854 0.8845 0.4281
vn 0.4618 -0.2142 0.8607
vn 0.4127 -0.4023 0.8172
vn -0.3988 0.7675 -0.5018
vn -0.4437 -0.3938 -0.8050
vn -0.6393 -0.3376 -0.6908
vn 0.3192 -0.6624 0.6777
vn 0.4244 0.4698 0.7740
vn 0.0489 0.9717 -0.2311
vn -0.1504 -0.9372 -0.3146
vn -0.3414 0.2510 -0.9058
vn -0.1729 -0.2163 -0.9609
vn -0.2518 0.2239 0.9415
vn -0.0409 -0.8859 0.4620
vn 0.4208 0.3665 -0.8298
vn 0.3456 -0.8228 -0.4511
vn 0.1521 0.9840 -0.0926
vn -0.6439 0.2362 0.7277
vn -0.0260 -0.9954 0.0917
vn -0.3087 0.9052 0.2921
vn 0.4791 -0.5382 -0.6934
vn 0.7851 -0.0378 -0.6182
vn 0.4732 0.8671 0.1557
vn 0.0366 -0.9983 -0.0443
vn -0.8024 0.5058 -0.3168
vn 0.7398 0.4429 0.5065
vn 0.8213 -0.3186 0.4733
vn -0.3860 0.9217 -0.0384
vn -0.8758 -0.2944 -0.3825
vn -0.9409 -0.3366 -0.0382
vn 0.8151 -0.5093 -0.2759
vn -0.4128 -0.8681 0.2755
vn -0.5937 0.7952 0.1229
vn 0.4758 0.8505 -0.2240
vn 0.6765 0.4920 -0.5480
vn -0.8157 -0.0039 0.5784
vn -0.5276 0.7846 0.3256
vn -0.3433 -0.9119 0.2249
vn 0.3397 0.9210 -0.1908
vn 0.6325 -0.2378 -0.7371
vn 0.1441 -0.9894 -0.0149
vn 0.5820 -0.6658 -0.4669
vn -0.7672 -0.3688 0.5248
vn 0.3052 0.5628 -0.7682
vn -0.4256 -0.2926 0.8563
vn 0.1159 0.9886 -0.0964
vn -0.4183 0.7196 0.5542
vn 0.5174 -0.5467 -0.6583
vn 0.6361 0.2819 -0.7183
vn 0.8589 0.3186 -0.4009
vn 0.5286 -0.4096 -0.7435
vn -0.5333 0.3971 0.7469
vn 0.5977 0.7973 0.0841
vn -0.1428 -0.9452 0.2935
usemtl SVGMat.3781
s 1
f 31//1 1//2 30//3
f 26//4 1//2 31//1
f 28//5 3//6 27//7
f 30//3 4//8 28//5
f 3//6 2//9 26//4
f 1//2 4//8 30//3
f 2//9 5//10 1//2
f 3//6 6//11 2//9
f 4//8 7//12 3//6
f 1//2 8//13 4//8
f 9//14 10//15 5//10
f 9//14 11//16 10//15
f 6//11 11//16 9//14
f 12//17 14//18 11//16
f 13//19 17//20 8//13
f 16//21 15//22 12//17
f 17//20 16//21 7//12
f 14//18 17//20 13//19
f 15//22 18//23 14//18
f 18//23 21//24 17//20
f 15//22 19//25 18//23
f 16//21 23//26 15//22
f 17//20 20//27 16//21
f 19//25 24//28 21//24
f 23//26 26//4 22//29
f 25//30 27//7 23//26
f 20//27 28//5 25//30
f 26//4 29//31 24//28
f 27//7 26//4 23//26
f 28//5 27//7 25//30
f 29//31 30//3 20//27
f 26//4 31//1 29//31
f 59//32 37//33 33//34
f 32//35 34//36 59//32
f 56//37 38//38 32//35
f 57//39 35//40 56//37
f 33//34 36//41 57//39
f 37//33 36//41 33//34
f 35//40 39//42 38//38
f 37//33 41//43 36//41
f 38//38 42//44 34//36
f 40//45 39//42 35//40
f 39//42 44//46 38//38
f 42//44 41//43 37//33
f 43//47 45//48 41//43
f 43//47 46//49 45//48
f 44//46 46//49 43//47
f 39//42 46//49 44//46
f 41//43 47//50 40//45
f 45//48 48//51 41//43
f 46//49 49//52 48//51
f 47//50 50//53 46//49
f 48//51 51//54 47//50
f 50//53 54//55 53//56
f 51//54 56//37 50//53
f 56//37 54//55 50//53
f 52//57 57//39 51//54
f 55//58 58//59 52//57
f 54//55 58//59 55//58
f 54//55 59//32 58//59
f 56//37 32//35 54//55
f 60//60 61//61 229//62
f 60//60 66//63 61//61
f 62//64 63//65 60//60
f 228//66 64//67 227//68
f 61//61 65//69 228//66
f 64//67 67//70 62//64
f 66//63 65//69 61//61
f 65//69 68//71 64//67
f 68//71 67//70 64//67
f 66//63 71//72 65//69
f 70//73 69//74 67//70
f 63//65 75//75 66//63
f 69//74 73//76 63//65
f 70//73 74//77 69//74
f 73//76 76//78 75//75
f 74//77 77//79 73//76
f 72//80 79//81 74//77
f 75//75 78//82 72//80
f 79//81 81//83 77//79
f 81//83 83//84 80//85
f 82//86 84//87 79//81
f 83//84 82//86 78//82
f 86//88 87//89 85//90
f 87//89 89//91 83//84
f 84//87 88//92 86//88
f 87//89 92//93 89//91
f 88//92 90//94 87//89
f 84//87 91//95 88//92
f 82//86 93//96 84//87
f 92//93 93//96 82//86
f 92//93 98//97 93//96
f 90//94 97//98 92//93
f 91//95 96//99 90//94
f 94//100 96//99 91//95
f 97//98 99//101 92//93
f 98//97 96//99 94//100
f 95//102 99//101 97//98
f 96//99 100//103 95//102
f 98//97 101//104 96//99
f 99//101 101//104 98//97
f 100//103 106//105 99//101
f 96//99 103//106 100//103
f 99//101 105//107 102//108
f 102//108 105//107 104//109
f 103//106 107//110 106//105
f 103//106 108//111 107//110
f 104//109 109//112 103//106
f 110//113 109//112 104//109
f 108//111 112//114 106//105
f 111//115 113//116 110//113
f 109//112 114//117 108//111
f 112//114 115//118 111//115
f 115//118 116//119 113//116
f 116//119 117//120 109//112
f 117//120 118//121 109//112
f 118//121 119//122 114//117
f 120//123 117//120 116//119
f 119//122 125//124 115//118
f 117//120 123//125 118//121
f 123//125 129//126 121//127
f 122//128 126//129 123//125
f 125//124 127//130 124//131
f 127//130 133//132 122//128
f 126//129 130//133 129//126
f 133//132 131//134 126//129
f 131//134 132//135 130//133
f 127//130 134//136 133//132
f 132//135 128//137 130//133
f 128//137 134//136 127//130
f 128//137 135//138 134//136
f 132//135 136//139 128//137
f 133//132 138//140 132//135
f 137//141 138//140 133//132
f 137//141 139//142 138//140
f 139//142 140//143 138//140
f 135//138 141//144 137//141
f 140//143 142//145 136//139
f 142//145 141//144 135//138
f 139//142 143//146 140//143
f 141//144 147//147 139//142
f 142//145 144//148 141//144
f 140//143 146//149 142//145
f 144//148 149//150 147//147
f 148//151 150//152 146//149
f 150//152 151//153 146//149
f 145//154 151//153 144//148
f 150//152 153//155 151//153
f 148//151 153//155 150//152
f 154//156 155//157 148//151
f 154//156 157//158 155//157
f 152//159 156//160 154//156
f 155//157 157//158 153//155
f 153//155 156//160 152//159
f 157//158 158//161 153//155
f 157//158 161//162 158//161
f 163//163 159//164 157//158
f 158//161 160//165 156//160
f 163//163 164//166 162//167
f 161//162 166//168 160//165
f 164//166 168//169 161//162
f 168//169 169//170 167//171
f 169//170 172//172 167//171
f 165//173 171//174 164//166
f 171//174 176//175 170//176
f 172//172 173//177 171//174
f 169//170 174//178 172//172
f 175//179 174//178 169//170
f 176//175 177//180 175//179
f 174//178 179//181 173//177
f 179//181 180//182 178//183
f 176//175 182//184 177//180
f 181//185 186//186 174//178
f 180//182 183//187 176//175
f 179//181 184//188 180//182
f 186//186 184//188 179//181
f 184//188 185//189 183//187
f 182//184 187//190 181//185
f 183//187 188//191 182//184
f 189//192 190//193 185//189
f 187//190 191//194 186//186
f 188//191 192//195 187//190
f 194//196 195//197 192//195
f 193//198 194//196 188//191
f 191//194 196//199 193//198
f 195//197 196//199 191//194
f 195//197 197//200 196//199
f 198//201 199//202 195//197
f 196//199 198//201 194//196
f 197//200 201//203 200//204
f 199//202 202//205 197//200
f 203//206 202//205 199//202
f 198//201 204//207 203//206
f 201//203 205//208 198//201
f 205//208 209//209 198//201
f 206//210 207//211 201//203
f 204//207 206//210 202//205
f 207//211 210//212 205//208
f 206//210 210//212 207//211
f 208//213 213//214 206//210
f 209//209 213//214 208//213
f 205//208 211//215 209//209
f 213//214 214//216 210//212
f 220//217 216//218 212//219
f 211//215 215//220 213//214
f 212//219 216//218 211//215
f 214//216 217//221 220//217
f 216//218 219//222 215//220
f 219//222 224//223 218//224
f 217//221 223//225 220//217
f 218//224 222//226 217//221
f 230//227 226//228 223//225
f 225//229 231//230 224//223
f 221//231 228//66 225//229
f 226//228 229//62 221//231
f 231//230 60//60 230//227
f 227//68 62//64 231//230
f 26//4 2//9 1//2
f 27//7 3//6 26//4
f 28//5 4//8 3//6
f 2//9 6//11 5//10
f 3//6 12//17 6//11
f 3//6 7//12 12//17
f 4//8 8//13 7//12
f 1//2 5//10 8//13
f 6//11 9//14 5//10
f 5//10 10//15 8//13
f 10//15 11//16 13//19
f 6//11 12//17 11//16
f 10//15 13//19 8//13
f 11//16 14//18 13//19
f 12//17 15//22 14//18
f 7//12 16//21 12//17
f 8//13 17//20 7//12
f 14//18 18//23 17//20
f 18//23 19//25 21//24
f 15//22 22//29 19//25
f 15//22 23//26 22//29
f 17//20 21//24 20//27
f 19//25 22//29 24//28
f 21//24 24//28 20//27
f 20//27 25//30 16//21
f 16//21 25//30 23//26
f 22//29 26//4 24//28
f 24//28 29//31 20//27
f 20//27 30//3 28//5
f 29//31 31//1 30//3
f 59//32 34//36 37//33
f 56//37 35//40 38//38
f 57//39 36//41 35//40
f 32//35 38//38 34//36
f 36//41 40//45 35//40
f 36//41 41//43 40//45
f 34//36 42//44 37//33
f 38//38 44//46 42//44
f 42//44 43//47 41//43
f 42//44 44//46 43//47
f 45//48 46//49 48//51
f 39//42 47//50 46//49
f 40//45 47//50 39//42
f 41//43 48//51 47//50
f 46//49 53//56 49//52
f 46//49 50//53 53//56
f 47//50 51//54 50//53
f 48//51 52//57 51//54
f 48//51 49//52 52//57
f 49//52 53//56 52//57
f 53//56 55//58 52//57
f 53//56 54//55 55//58
f 51//54 57//39 56//37
f 52//57 58//59 57//39
f 58//59 59//32 33//34
f 54//55 32//35 59//32
f 58//59 33//34 57//39
f 231//230 62//64 60//60
f 60//60 63//65 66//63
f 227//68 64//67 62//64
f 228//66 65//69 64//67
f 62//64 67//70 63//65
f 67//70 69//74 63//65
f 68//71 70//73 67//70
f 65//69 71//72 68//71
f 68//71 71//72 70//73
f 71//72 72//80 70//73
f 70//73 72//80 74//77
f 66//63 75//75 71//72
f 63//65 73//76 75//75
f 69//74 74//77 73//76
f 71//72 75//75 72//80
f 73//76 77//79 76//78
f 76//78 77//79 80//85
f 72//80 78//82 79//81
f 76//78 80//85 75//75
f 74//77 79//81 77//79
f 75//75 80//85 78//82
f 77//79 81//83 80//85
f 78//82 82//86 79//81
f 79//81 86//88 81//83
f 80//85 83//84 78//82
f 79//81 84//87 86//88
f 81//83 85//90 83//84
f 81//83 86//88 85//90
f 85//90 87//89 83//84
f 86//88 88//92 87//89
f 83//84 89//91 82//86
f 87//89 90//94 92//93
f 88//92 91//95 90//94
f 89//91 92//93 82//86
f 84//87 93//96 91//95
f 93//96 94//100 91//95
f 93//96 98//97 94//100
f 90//94 95//102 97//98
f 90//94 96//99 95//102
f 92//93 99//101 98//97
f 95//102 100//103 99//101
f 99//101 102//108 101//104
f 101//104 104//109 96//99
f 101//104 102//108 104//109
f 100//103 103//106 106//105
f 96//99 104//109 103//106
f 99//101 106//105 105//107
f 105//107 110//113 104//109
f 105//107 106//105 110//113
f 103//106 109//112 108//111
f 106//105 111//115 110//113
f 107//110 108//111 106//105
f 106//105 112//114 111//115
f 110//113 113//116 109//112
f 108//111 114//117 112//114
f 111//115 115//118 113//116
f 112//114 114//117 115//118
f 113//116 116//119 109//112
f 109//112 118//121 114//117
f 114//117 119//122 115//118
f 115//118 120//123 116//119
f 115//118 125//124 120//123
f 120//123 124//131 117//120
f 119//122 121//127 125//124
f 118//121 123//125 119//122
f 117//120 122//128 123//125
f 119//122 123//125 121//127
f 117//120 124//131 122//128
f 120//123 125//124 124//131
f 123//125 126//129 129//126
f 124//131 127//130 122//128
f 125//124 128//137 127//130
f 121//127 129//126 125//124
f 125//124 129//126 128//137
f 122//128 133//132 126//129
f 129//126 130//133 128//137
f 126//129 131//134 130//133
f 131//134 133//132 132//135
f 134//136 135//138 137//141
f 128//137 136//139 135//138
f 134//136 137//141 133//132
f 132//135 138//140 136//139
f 138//140 140//143 136//139
f 137//141 141//144 139//142
f 136//139 142//145 135//138
f 139//142 147//147 143//146
f 141//144 144//148 147//147
f 142//145 145//154 144//148
f 142//145 146//149 145//154
f 140//143 143//146 146//149
f 143//146 147//147 146//149
f 147//147 148//151 146//149
f 147//147 149//150 148//151
f 146//149 151//153 145//154
f 144//148 151//153 149//150
f 151//153 152//159 149//150
f 149//150 154//156 148//151
f 149//150 152//159 154//156
f 151//153 153//155 152//159
f 148//151 155//157 153//155
f 154//156 156//160 157//158
f 153//155 158//161 156//160
f 156//160 163//163 157//158
f 157//158 159//164 162//167
f 156//160 160//165 163//163
f 158//161 161//162 160//165
f 157//158 162//167 161//162
f 159//164 163//163 162//167
f 163//163 165//173 164//166
f 160//165 167//171 163//163
f 160//165 166//168 167//171
f 162//167 164//166 161//162
f 163//163 167//171 165//173
f 161//162 168//169 166//168
f 166//168 168//169 167//171
f 168//169 175//179 169//170
f 164//166 170//176 168//169
f 167//171 172//172 165//173
f 168//169 170//176 175//179
f 164//166 171//174 170//176
f 165//173 172//172 171//174
f 171//174 173//177 176//175
f 172//172 174//178 173//177
f 170//176 176//175 175//179
f 175//179 177//180 174//178
f 173//177 178//183 176//175
f 173//177 179//181 178//183
f 178//183 180//182 176//175
f 177//180 181//185 174//178
f 177//180 182//184 181//185
f 174//178 186//186 179//181
f 176//175 183//187 182//184
f 180//182 184//188 183//187
f 184//188 186//186 185//189
f 181//185 187//190 186//186
f 182//184 188//191 187//190
f 186//186 189//192 185//189
f 185//189 190//193 183//187
f 186//186 191//194 189//192
f 183//187 190//193 188//191
f 189//192 193//198 190//193
f 189//192 191//194 193//198
f 187//190 192//195 191//194
f 190//193 193//198 188//191
f 192//195 195//197 191//194
f 188//191 194//196 192//195
f 193//198 196//199 194//196
f 196//199 197//200 200//204
f 194//196 198//201 195//197
f 195//197 199//202 197//200
f 196//199 200//204 198//201
f 200//204 201//203 198//201
f 197//200 202//205 201//203
f 198//201 203//206 199//202
f 203//206 204//207 202//205
f 202//205 206//210 201//203
f 198//201 209//209 204//207
f 201//203 207//211 205//208
f 204//207 208//213 206//210
f 204//207 209//209 208//213
f 205//208 210//212 212//219
f 209//209 211//215 213//214
f 205//208 212//219 211//215
f 206//210 213//214 210//212
f 210//212 220//217 212//219
f 210//212 214//216 220//217
f 213//214 218//224 214//216
f 213//214 215//220 218//224
f 211//215 216//218 215//220
f 214//216 218//224 217//221
f 215//220 219//222 218//224
f 216//218 221//231 219//222
f 216//218 220//217 221//231
f 219//222 225//229 224//223
f 219//222 221//231 225//229
f 217//221 222//226 223//225
f 218//224 224//223 222//226
f 220//217 223//225 221//231
f 222//226 224//223 223//225
f 224//223 230//227 223//225
f 223//225 226//228 221//231
f 224//223 231//230 230//227
f 225//229 227//68 231//230
f 225//229 228//66 227//68
f 221//231 229//62 228//66
f 226//228 230//227 229//62
f 230//227 60//60 229//62
f 229//62 61//61 228//66
