# Blender v2.79 (sub 0) OBJ File: 'world_countrycodes_export2.blend'
# www.blender.org
mtllib JO.mtl
o JO.002_CUCurve.1835
v 1.177425 0.000000 0.452489
v 1.172853 0.000000 0.454808
v 1.167141 0.000000 0.457215
v 1.164779 0.000000 0.458719
v 1.159647 0.000000 0.456040
v 1.159196 0.000000 0.454039
v 1.159195 0.000000 0.454037
v 1.158498 0.000000 0.459398
v 1.157682 0.000000 0.467081
v 1.155974 0.000000 0.472368
v 1.155340 0.000000 0.476627
v 1.160175 0.000000 0.478695
v 1.161431 0.000000 0.478640
v 1.163141 0.000000 0.477886
v 1.164338 0.000000 0.476619
v 1.165055 0.000000 0.474792
v 1.166154 0.000000 0.473947
v 1.169525 0.000000 0.473621
v 1.171244 0.000000 0.471522
v 1.172207 0.000000 0.470693
v 1.170604 0.000000 0.468365
v 1.168368 0.000000 0.466538
v 1.167186 0.000000 0.465891
v 1.167533 0.000000 0.464930
v 1.169037 0.000000 0.463672
v 1.171824 0.000000 0.462730
v 1.175951 0.000000 0.462219
v 1.177894 0.000000 0.460952
v 1.179064 0.000000 0.460809
v 1.179068 0.000000 0.460809
v 1.179080 0.000000 0.460809
v 1.179098 0.000000 0.460809
v 1.179121 0.000000 0.460809
v 1.179149 0.000000 0.460809
v 1.179180 0.000000 0.460809
v 1.179214 0.000000 0.460809
v 1.179248 0.000000 0.460809
v 1.179282 0.000000 0.460809
v 1.179315 0.000000 0.460809
v 1.179347 0.000000 0.460809
v 1.179374 0.000000 0.460809
v 1.179021 0.000000 0.459182
v 1.177809 0.000000 0.454271
v 1.179149 0.050000 0.460809
v 1.179180 0.050000 0.460809
v 1.167533 0.050000 0.464930
v 1.169037 0.050000 0.463672
v 1.177809 0.050000 0.454271
v 1.177425 0.050000 0.452489
v 1.179080 0.050000 0.460809
v 1.179098 0.050000 0.460809
v 1.171824 0.050000 0.462730
v 1.175951 0.050000 0.462219
v 1.179068 0.050000 0.460809
v 1.179374 0.050000 0.460809
v 1.177894 0.050000 0.460952
v 1.179315 0.050000 0.460809
v 1.179347 0.050000 0.460809
v 1.164338 0.050000 0.476619
v 1.165055 0.050000 0.474792
v 1.170604 0.050000 0.468365
v 1.168368 0.050000 0.466538
v 1.158498 0.050000 0.459398
v 1.159196 0.050000 0.454039
v 1.160175 0.050000 0.478695
v 1.163141 0.050000 0.477886
v 1.157682 0.050000 0.467081
v 1.167186 0.050000 0.465891
v 1.179282 0.050000 0.460809
v 1.164779 0.050000 0.458719
v 1.179021 0.050000 0.459182
v 1.179064 0.050000 0.460809
v 1.179214 0.050000 0.460809
v 1.179248 0.050000 0.460809
v 1.169525 0.050000 0.473621
v 1.171244 0.050000 0.471522
v 1.161431 0.050000 0.478640
v 1.159647 0.050000 0.456040
v 1.155340 0.050000 0.476627
v 1.167141 0.050000 0.457215
v 1.172853 0.050000 0.454808
v 1.166154 0.050000 0.473947
v 1.155974 0.050000 0.472368
v 1.172207 0.050000 0.470693
v 1.179121 0.050000 0.460809
vn 0.0000 -1.0000 0.0000
vn 0.0000 0.0000 1.0000
vn 0.0000 1.0000 -0.0000
vn 0.0000 0.0000 -1.0000
vn -0.5371 0.0000 -0.8435
vn -0.9944 0.0000 -0.1056
vn -0.3883 0.0000 -0.9215
vn 0.8236 0.0000 -0.5671
vn -0.9916 0.0000 -0.1290
vn -0.3932 0.0000 0.9195
vn 0.9709 0.0000 -0.2395
vn 0.6414 0.0000 0.7672
vn 0.4032 0.0000 0.9151
vn 0.9775 0.0000 -0.2107
vn -0.9515 0.0000 -0.3075
vn 0.1208 0.0000 0.9927
vn 0.1230 0.0000 0.9924
vn 0.3201 0.0000 0.9474
vn 0.9772 0.0000 -0.2125
vn 0.6091 0.0000 0.7931
vn 0.9406 0.0000 0.3395
vn 0.4808 0.0000 -0.8768
vn 0.7269 0.0000 0.6867
vn 0.5463 0.0000 0.8376
vn 0.0965 0.0000 0.9953
vn 0.7736 0.0000 0.6337
vn 0.6528 0.0000 0.7576
vn 0.0436 0.0000 0.9990
vn -0.9891 0.0000 -0.1471
vn 0.9310 0.0000 0.3651
vn 0.9755 0.0000 -0.2199
vn 0.6327 0.0000 -0.7744
vn -0.4524 0.0000 -0.8918
vn 0.4627 0.0000 -0.8865
usemtl SVGMat.3781
s off
f 2//1 1//1 43//1
f 8//1 6//1 5//1
f 3//1 2//1 43//1
f 8//1 5//1 4//1
f 3//1 43//1 42//1
f 4//1 3//1 42//1
f 8//1 4//1 42//1
f 8//1 42//1 41//1
f 29//1 8//1 41//1
f 8//1 29//1 28//1
f 30//2 29//2 41//2
f 31//2 30//2 41//2
f 32//2 31//2 41//2
f 33//2 32//2 41//2
f 34//2 33//2 41//2
f 35//2 34//2 41//2
f 36//2 35//2 41//2
f 37//2 36//2 41//2
f 38//2 37//2 41//2
f 39//2 38//2 41//2
f 40//2 39//2 41//2
f 8//1 28//1 27//1
f 8//1 27//1 26//1
f 8//1 26//1 25//1
f 9//1 8//1 25//1
f 9//1 25//1 24//1
f 9//1 24//1 23//1
f 9//1 23//1 22//1
f 9//1 22//1 21//1
f 9//1 21//1 20//1
f 10//1 9//1 20//1
f 10//1 20//1 19//1
f 10//1 19//1 18//1
f 17//1 10//1 18//1
f 10//1 17//1 16//1
f 11//1 10//1 16//1
f 11//1 16//1 15//1
f 11//1 15//1 14//1
f 12//1 11//1 14//1
f 12//1 14//1 13//1
f 81//3 48//3 49//3
f 63//3 78//3 64//3
f 80//3 48//3 81//3
f 63//3 70//3 78//3
f 80//3 71//3 48//3
f 70//3 71//3 80//3
f 63//3 71//3 70//3
f 63//3 55//3 71//3
f 72//3 55//3 63//3
f 63//3 56//3 72//3
f 54//2 55//2 72//2
f 50//2 55//2 54//2
f 51//2 55//2 50//2
f 85//2 55//2 51//2
f 44//2 55//2 85//2
f 45//2 55//2 44//2
f 73//2 55//2 45//2
f 74//2 55//2 73//2
f 69//4 55//4 74//4
f 57//2 55//2 69//2
f 58//2 55//2 57//2
f 63//3 53//3 56//3
f 63//3 52//3 53//3
f 63//3 47//3 52//3
f 67//3 47//3 63//3
f 67//3 46//3 47//3
f 67//3 68//3 46//3
f 67//3 62//3 68//3
f 67//3 61//3 62//3
f 67//3 84//3 61//3
f 83//3 84//3 67//3
f 83//3 76//3 84//3
f 83//3 75//3 76//3
f 82//3 75//3 83//3
f 83//3 60//3 82//3
f 79//3 60//3 83//3
f 79//3 59//3 60//3
f 79//3 66//3 59//3
f 65//3 66//3 79//3
f 65//3 77//3 66//3
f 3//5 4//5 70//5 80//5
f 30//2 31//2 50//2 54//2
f 8//6 9//6 67//6 63//6
f 2//7 3//7 80//7 81//7
f 20//8 21//8 61//8 84//8
f 6//9 8//9 63//9 64//9
f 11//10 12//10 65//10 79//10
f 29//2 30//2 54//2 72//2
f 34//2 35//2 45//2 44//2
f 42//11 43//11 48//11 71//11
f 24//12 25//12 47//12 46//12
f 37//2 38//2 69//2 74//2
f 38//2 39//2 57//2 69//2
f 13//13 14//13 66//13 77//13
f 43//14 1//14 49//14 48//14
f 9//15 10//15 83//15 67//15
f 31//2 32//2 51//2 50//2
f 32//2 33//2 85//2 51//2
f 28//16 29//16 72//16 56//16
f 33//2 34//2 44//2 85//2
f 26//17 27//17 53//17 52//17
f 40//2 41//2 55//2 58//2
f 36//2 37//2 74//2 73//2
f 25//18 26//18 52//18 47//18
f 41//19 42//19 71//19 55//19
f 16//20 17//20 82//20 60//20
f 23//21 24//21 46//21 68//21
f 22//22 23//22 68//22 62//22
f 14//23 15//23 59//23 66//23
f 27//24 28//24 56//24 53//24
f 17//25 18//25 75//25 82//25
f 18//26 19//26 76//26 75//26
f 39//2 40//2 58//2 57//2
f 19//27 20//27 84//27 76//27
f 12//28 13//28 77//28 65//28
f 10//29 11//29 79//29 83//29
f 15//30 16//30 60//30 59//30
f 5//31 6//31 64//31 78//31
f 35//2 36//2 73//2 45//2
f 21//32 22//32 62//32 61//32
f 1//33 2//33 81//33 49//33
f 4//34 5//34 78//34 70//34
