# Blender v2.79 (sub 0) OBJ File: 'world_countrycodes_export2.blend'
# www.blender.org
mtllib KE.mtl
o KH.002_CUCurve.1825
v 1.549297 0.000000 0.589702
v 1.550329 0.000000 0.589623
v 1.553314 0.000000 0.590290
v 1.555096 0.000000 0.590422
v 1.555720 0.000000 0.589880
v 1.555546 0.000000 0.588782
v 1.553816 0.000000 0.585425
v 1.554390 0.000000 0.584792
v 1.557884 0.000000 0.585301
v 1.559255 0.000000 0.584497
v 1.560640 0.000000 0.581678
v 1.564474 0.000000 0.578695
v 1.565214 0.000000 0.577078
v 1.565009 0.000000 0.575954
v 1.563503 0.000000 0.573085
v 1.562797 0.000000 0.570396
v 1.562654 0.000000 0.568271
v 1.562668 0.000000 0.568234
v 1.561448 0.000000 0.568972
v 1.559591 0.000000 0.569255
v 1.557698 0.000000 0.568743
v 1.555918 0.000000 0.568745
v 1.554881 0.000000 0.569489
v 1.554648 0.000000 0.571088
v 1.553950 0.000000 0.572028
v 1.553135 0.000000 0.572131
v 1.553041 0.000000 0.571238
v 1.550718 0.000000 0.570221
v 1.549255 0.000000 0.569028
v 1.547493 0.000000 0.568961
v 1.543464 0.000000 0.569479
v 1.541197 0.000000 0.569086
v 1.538730 0.000000 0.569696
v 1.535872 0.000000 0.571581
v 1.533913 0.000000 0.573860
v 1.533540 0.000000 0.575260
v 1.534576 0.000000 0.577248
v 1.534799 0.000000 0.579485
v 1.535643 0.000000 0.581415
v 1.535388 0.000000 0.582716
v 1.536400 0.000000 0.583455
v 1.536914 0.000000 0.585127
v 1.536939 0.000000 0.588141
v 1.537894 0.000000 0.588816
v 1.540372 0.000000 0.588433
v 1.540894 0.000000 0.588584
v 1.540379 0.000000 0.590489
v 1.540704 0.000000 0.591531
v 1.541709 0.000000 0.591880
v 1.544430 0.000000 0.591337
v 1.545102 0.000000 0.591647
v 1.545724 0.000000 0.592760
v 1.548590 0.000000 0.591037
v 1.559591 0.050000 0.569255
v 1.557698 0.050000 0.568743
v 1.535643 0.050000 0.581415
v 1.535388 0.050000 0.582716
v 1.555918 0.050000 0.568745
v 1.554881 0.050000 0.569489
v 1.550718 0.050000 0.570221
v 1.543464 0.050000 0.569479
v 1.535872 0.050000 0.571581
v 1.533913 0.050000 0.573860
v 1.533540 0.050000 0.575260
v 1.534576 0.050000 0.577248
v 1.559255 0.050000 0.584497
v 1.536400 0.050000 0.583455
v 1.553041 0.050000 0.571238
v 1.565214 0.050000 0.577078
v 1.565009 0.050000 0.575954
v 1.563503 0.050000 0.573085
v 1.562797 0.050000 0.570396
v 1.555546 0.050000 0.588782
v 1.553816 0.050000 0.585425
v 1.554390 0.050000 0.584792
v 1.557884 0.050000 0.585301
v 1.553314 0.050000 0.590290
v 1.555096 0.050000 0.590422
v 1.536939 0.050000 0.588141
v 1.536914 0.050000 0.585127
v 1.553135 0.050000 0.572131
v 1.554648 0.050000 0.571088
v 1.553950 0.050000 0.572028
v 1.560640 0.050000 0.581678
v 1.564474 0.050000 0.578695
v 1.562654 0.050000 0.568271
v 1.561448 0.050000 0.568972
v 1.540379 0.050000 0.590489
v 1.540704 0.050000 0.591531
v 1.548590 0.050000 0.591037
v 1.534799 0.050000 0.579485
v 1.541709 0.050000 0.591880
v 1.540372 0.050000 0.588433
v 1.540894 0.050000 0.588584
v 1.538730 0.050000 0.569696
v 1.549297 0.050000 0.589702
v 1.547493 0.050000 0.568961
v 1.541197 0.050000 0.569086
v 1.550329 0.050000 0.589623
v 1.544430 0.050000 0.591337
v 1.555720 0.050000 0.589880
v 1.562668 0.050000 0.568234
v 1.545102 0.050000 0.591647
v 1.545724 0.050000 0.592760
v 1.537894 0.050000 0.588816
v 1.549255 0.050000 0.569028
vn 0.0000 -1.0000 0.0000
vn 0.0000 1.0000 -0.0000
vn 0.7404 0.0000 0.6722
vn 0.9944 0.0000 -0.1053
vn 0.6562 0.0000 0.7545
vn -0.0015 0.0000 -1.0000
vn -0.8030 0.0000 -0.5960
vn 0.9877 0.0000 -0.1566
vn -0.1504 0.0000 -0.9886
vn -0.4188 0.0000 0.9081
vn 0.6141 0.0000 0.7893
vn -0.2180 0.0000 0.9760
vn -0.5506 0.0000 -0.8347
vn -0.5031 0.0000 -0.8642
vn -1.0000 0.0000 0.0084
vn -0.1275 0.0000 -0.9918
vn -0.9546 0.0000 0.2979
vn 0.8835 0.0000 0.4685
vn 0.5152 0.0000 0.8571
vn -0.2400 0.0000 -0.9708
vn 0.1709 0.0000 -0.9853
vn 0.1528 0.0000 0.9883
vn -0.9161 0.0000 0.4009
vn -0.9895 0.0000 -0.1446
vn 0.9977 0.0000 -0.0672
vn 0.2613 0.0000 -0.9653
vn 0.6323 0.0000 -0.7747
vn 0.5059 0.0000 0.8626
vn -0.9813 0.0000 -0.1925
vn 0.9094 0.0000 0.4159
vn -0.5830 0.0000 -0.8125
vn -0.3280 0.0000 0.9447
vn -0.7584 0.0000 -0.6518
vn 0.8975 0.0000 0.4410
vn -0.9559 0.0000 0.2938
vn -0.8868 0.0000 0.4621
vn 0.1955 0.0000 0.9807
vn -0.1257 0.0000 -0.9921
vn 0.4009 0.0000 -0.9161
vn 0.0763 0.0000 0.9971
vn -0.9663 0.0000 -0.2576
vn 0.9838 0.0000 -0.1790
vn 0.9672 0.0000 -0.2541
vn -0.9653 0.0000 -0.2611
vn 0.8889 0.0000 -0.4580
vn 0.0377 0.0000 -0.9993
vn -0.9951 0.0000 0.0992
vn -0.1444 0.0000 0.9895
vn -0.0739 0.0000 0.9973
vn 0.9298 0.0000 0.3681
vn -0.2793 0.0000 0.9602
vn -0.8728 0.0000 0.4881
vn -0.5898 0.0000 0.8075
vn -0.5772 0.0000 0.8166
vn 0.8854 0.0000 -0.4647
usemtl SVGMat.3781
s off
f 19//1 17//1 16//1
f 22//1 21//1 20//1
f 23//1 22//1 20//1
f 31//1 30//1 29//1
f 20//1 19//1 16//1
f 31//1 29//1 28//1
f 23//1 20//1 16//1
f 33//1 32//1 31//1
f 33//1 31//1 28//1
f 24//1 23//1 16//1
f 34//1 33//1 28//1
f 34//1 28//1 27//1
f 24//1 16//1 15//1
f 25//1 24//1 15//1
f 34//1 27//1 26//1
f 26//1 25//1 15//1
f 34//1 26//1 15//1
f 35//1 34//1 15//1
f 35//1 15//1 14//1
f 36//1 35//1 14//1
f 36//1 14//1 13//1
f 37//1 36//1 13//1
f 37//1 13//1 12//1
f 38//1 37//1 12//1
f 38//1 12//1 11//1
f 39//1 38//1 11//1
f 40//1 39//1 11//1
f 41//1 40//1 11//1
f 41//1 11//1 10//1
f 42//1 41//1 10//1
f 8//1 42//1 10//1
f 8//1 10//1 9//1
f 42//1 8//1 7//1
f 43//1 42//1 7//1
f 43//1 7//1 6//1
f 45//1 43//1 6//1
f 46//1 45//1 6//1
f 44//1 43//1 45//1
f 46//1 6//1 5//1
f 47//1 46//1 1//1
f 1//1 46//1 2//1
f 2//1 46//1 5//1
f 3//1 2//1 5//1
f 3//1 5//1 4//1
f 47//1 1//1 53//1
f 48//1 47//1 53//1
f 48//1 53//1 50//1
f 51//1 50//1 53//1
f 48//1 50//1 49//1
f 51//1 53//1 52//1
f 87//2 72//2 86//2
f 58//2 54//2 55//2
f 59//2 54//2 58//2
f 61//2 106//2 97//2
f 54//2 72//2 87//2
f 61//2 60//2 106//2
f 59//2 72//2 54//2
f 95//2 61//2 98//2
f 95//2 60//2 61//2
f 82//2 72//2 59//2
f 62//2 60//2 95//2
f 62//2 68//2 60//2
f 82//2 71//2 72//2
f 83//2 71//2 82//2
f 62//2 81//2 68//2
f 81//2 71//2 83//2
f 62//2 71//2 81//2
f 63//2 71//2 62//2
f 63//2 70//2 71//2
f 64//2 70//2 63//2
f 64//2 69//2 70//2
f 65//2 69//2 64//2
f 65//2 85//2 69//2
f 91//2 85//2 65//2
f 91//2 84//2 85//2
f 56//2 84//2 91//2
f 57//2 84//2 56//2
f 67//2 84//2 57//2
f 67//2 66//2 84//2
f 80//2 66//2 67//2
f 75//2 66//2 80//2
f 75//2 76//2 66//2
f 80//2 74//2 75//2
f 79//2 74//2 80//2
f 79//2 73//2 74//2
f 93//2 73//2 79//2
f 94//2 73//2 93//2
f 105//2 93//2 79//2
f 94//2 101//2 73//2
f 88//2 96//2 94//2
f 96//2 99//2 94//2
f 99//2 101//2 94//2
f 77//2 101//2 99//2
f 77//2 78//2 101//2
f 88//2 90//2 96//2
f 89//2 90//2 88//2
f 89//2 100//2 90//2
f 103//2 90//2 100//2
f 89//2 92//2 100//2
f 103//2 104//2 90//2
f 7//3 8//3 75//3 74//3
f 26//4 27//4 68//4 81//4
f 4//5 5//5 101//5 78//5
f 21//6 22//6 58//6 55//6
f 24//7 25//7 83//7 82//7
f 5//8 6//8 73//8 101//8
f 19//9 20//9 54//9 87//9
f 50//10 51//10 103//10 100//10
f 11//11 12//11 85//11 84//11
f 2//12 3//12 77//12 99//12
f 33//13 34//13 62//13 95//13
f 17//14 19//14 87//14 86//14
f 42//15 43//15 79//15 80//15
f 30//16 31//16 61//16 97//16
f 47//17 48//17 89//17 88//17
f 53//18 1//18 96//18 90//18
f 52//19 53//19 90//19 104//19
f 32//20 33//20 95//20 98//20
f 31//21 32//21 98//21 61//21
f 44//22 45//22 93//22 105//22
f 38//23 39//23 56//23 91//23
f 23//24 24//24 82//24 59//24
f 16//25 17//25 86//25 72//25
f 20//26 21//26 55//26 54//26
f 28//27 29//27 106//27 60//27
f 9//28 10//28 66//28 76//28
f 39//29 40//29 57//29 56//29
f 12//30 13//30 69//30 85//30
f 22//31 23//31 59//31 58//31
f 48//32 49//32 92//32 89//32
f 34//33 35//33 63//33 62//33
f 10//34 11//34 84//34 66//34
f 41//35 42//35 80//35 67//35
f 36//36 37//36 65//36 64//36
f 49//37 50//37 100//37 92//37
f 25//38 26//38 81//38 83//38
f 27//39 28//39 60//39 68//39
f 1//40 2//40 99//40 96//40
f 35//41 36//41 64//41 63//41
f 13//42 14//42 70//42 69//42
f 15//43 16//43 72//43 71//43
f 46//44 47//44 88//44 94//44
f 6//45 7//45 74//45 73//45
f 29//46 30//46 97//46 106//46
f 37//47 38//47 91//47 65//47
f 8//48 9//48 76//48 75//48
f 3//49 4//49 78//49 77//49
f 17//50 18//50 102//50 86//50
f 45//51 46//51 94//51 93//51
f 51//52 52//52 104//52 103//52
f 40//53 41//53 67//53 57//53
f 43//54 44//54 105//54 79//54
f 14//55 15//55 71//55 70//55
