# Blender v2.79 (sub 0) OBJ File: 'world_countrycodes_outlines2.blend'
# www.blender.org
mtllib KG_outline.mtl
o KG.001_CUCurve.1660
v 1.417336 -0.000003 0.396742
v 1.413175 -0.000104 0.395243
v 1.414647 -0.001963 0.394883
v 1.406993 0.001407 0.401389
v 1.405357 0.001888 0.399474
v 1.404984 -0.000788 0.398567
v 1.407179 -0.000952 0.401794
v 1.403397 -0.001941 0.402317
v 1.404607 -0.000605 0.405082
v 1.402740 0.000744 0.401405
v 1.403216 0.001963 0.404257
v 1.398373 0.000811 0.405103
v 1.396910 -0.000725 0.401290
v 1.397856 0.001943 0.402226
v 1.397397 -0.001924 0.404122
v 1.395572 0.000765 0.407907
v 1.392202 0.001326 0.405756
v 1.391912 -0.000778 0.405313
v 1.392696 -0.001899 0.408478
v 1.391441 -0.000073 0.409661
v 1.391412 0.001924 0.408430
v 1.387974 0.002004 0.406560
v 1.388870 0.000836 0.403849
v 1.388736 -0.001980 0.405080
v 1.385980 0.000803 0.409047
v 1.384330 0.000837 0.405487
v 1.383280 -0.001467 0.406815
v 1.387826 -0.001195 0.407910
v 1.381910 0.000592 0.411522
v 1.379804 0.001632 0.408460
v 1.381024 -0.002005 0.410250
v 1.378509 -0.000758 0.408285
v 1.377681 0.000831 0.411959
v 1.378062 -0.001419 0.412468
v 1.379236 -0.001972 0.414350
v 1.379191 0.001582 0.415350
v 1.366294 -0.000714 0.415433
v 1.367764 -0.001024 0.411521
v 1.365515 -0.002033 0.413217
v 1.367569 0.001423 0.415246
v 1.366548 0.002033 0.413211
v 1.366718 0.000707 0.410544
v 1.361999 0.000863 0.414961
v 1.362387 -0.000709 0.410823
v 1.362323 -0.001370 0.414567
v 1.362509 0.001889 0.412015
v 1.353444 -0.001542 0.414125
v 1.352403 0.001934 0.412617
v 1.355805 0.000827 0.411394
v 1.355370 -0.001209 0.411069
v 1.351351 -0.000690 0.411838
v 1.355522 -0.001978 0.408410
v 1.355719 0.000553 0.407297
v 1.355798 0.001963 0.408335
v 1.362293 0.000855 0.410620
v 1.369041 0.002023 0.407736
v 1.363269 -0.001871 0.407584
v 1.367023 -0.000808 0.409603
v 1.366651 -0.000767 0.405467
v 1.369488 0.001025 0.405589
v 1.371864 0.001196 0.408644
v 1.371812 -0.001372 0.408800
v 1.370121 -0.001769 0.406061
v 1.372627 0.001064 0.403986
v 1.375546 -0.002003 0.405693
v 1.376286 0.001684 0.405990
v 1.372368 -0.000930 0.404916
v 1.376832 -0.000709 0.404393
v 1.366625 -0.000762 0.397583
v 1.367193 0.000742 0.402058
v 1.367162 0.001856 0.398765
v 1.366816 -0.001957 0.400797
v 1.363692 0.001319 0.400221
v 1.363559 -0.000743 0.399644
v 1.364501 0.001983 0.402361
v 1.363273 -0.001670 0.403111
v 1.361135 0.000723 0.402842
v 1.358360 0.001977 0.398820
v 1.359087 -0.002015 0.398029
v 1.361004 0.001363 0.397690
v 1.361695 -0.000610 0.397766
v 1.356865 -0.000815 0.399532
v 1.359531 0.001443 0.394978
v 1.359564 -0.000644 0.394185
v 1.362718 -0.000752 0.391285
v 1.365971 0.002049 0.390131
v 1.365371 -0.000365 0.394974
v 1.366594 0.000769 0.392246
v 1.365914 -0.001715 0.391410
v 1.364219 0.000950 0.389097
v 1.365963 -0.001873 0.389460
v 1.370140 0.000749 0.388611
v 1.376226 0.001989 0.392031
v 1.375161 -0.000909 0.390524
v 1.374796 0.000751 0.394571
v 1.376245 -0.001935 0.393564
v 1.378282 0.000738 0.393653
v 1.379207 -0.002006 0.389249
v 1.379988 0.000891 0.389947
v 1.377325 0.001413 0.387777
v 1.376912 -0.000861 0.387500
v 1.381816 -0.000768 0.389978
v 1.382303 -0.000800 0.386019
v 1.382757 0.001879 0.387144
v 1.389122 0.000710 0.388768
v 1.389231 0.001937 0.391538
v 1.388789 -0.000659 0.392563
v 1.389385 -0.001425 0.389075
v 1.393178 0.000795 0.388080
v 1.390350 -0.001933 0.391005
v 1.409396 -0.001939 0.390778
v 1.408998 -0.000034 0.389599
v 1.409913 0.001911 0.390899
v 1.408367 -0.000769 0.393587
v 1.410224 0.001846 0.392741
v 1.411058 0.000003 0.395946
v 1.412861 -0.000407 0.391713
v 1.414724 0.001994 0.394927
v 1.416685 0.001481 0.393468
v 1.417181 -0.001025 0.393272
vn -0.7779 0.4405 0.4480
vn -0.3188 0.8314 -0.4551
vn 0.1375 0.9810 0.1367
vn 0.4245 0.7383 0.5240
vn 0.8236 -0.0120 0.5670
vn 0.5375 -0.4823 0.6917
vn -0.0692 -0.9864 -0.1492
vn 0.1516 -0.9881 0.0252
vn 0.4365 -0.2817 0.8545
vn 0.1524 0.8641 0.4796
vn 0.2553 0.4422 0.8598
vn -0.3431 -0.3184 -0.8837
vn -0.4228 0.4386 -0.7930
vn 0.1990 -0.8406 0.5036
vn 0.0475 -0.9777 0.2047
vn -0.1492 0.8655 -0.4781
vn 0.6035 0.2810 0.7461
vn -0.1854 0.7882 -0.5868
vn -0.0057 -0.5794 -0.8150
vn -0.0835 0.8632 0.4978
vn -0.0761 0.0110 0.9970
vn 0.1294 -0.5848 0.8007
vn 0.0174 0.3464 -0.9379
vn -0.0207 -0.8428 -0.5377
vn 0.0278 0.9922 0.1211
vn 0.5083 0.3812 0.7721
vn -0.3694 0.3296 -0.8688
vn -0.3549 -0.6639 -0.6582
vn -0.3704 0.8040 -0.4651
vn 0.1202 -0.9803 0.1566
vn 0.6623 0.4026 0.6319
vn -0.7031 -0.3115 -0.6392
vn -0.4723 0.6981 -0.5380
vn -0.2967 -0.8522 -0.4309
vn 0.3777 0.5779 0.7234
vn 0.3482 -0.7654 0.5412
vn 0.0344 0.9994 -0.0013
vn -0.0996 -0.2829 0.9539
vn 0.1826 -0.4148 -0.8914
vn -0.2604 0.6138 0.7453
vn 0.0074 -0.9999 -0.0031
vn 0.4405 0.3357 -0.8326
vn -0.0655 0.5012 0.8628
vn -0.0186 -0.3195 -0.9474
vn -0.3815 -0.5672 0.7298
vn -0.0572 -0.6279 0.7762
vn -0.0629 0.9208 -0.3849
vn -0.5881 0.7636 0.2663
vn 0.1629 0.9676 -0.1930
vn 0.2604 -0.9584 0.1166
vn -0.9596 -0.2746 -0.0606
vn -0.2555 0.8992 -0.3550
vn -0.2689 -0.8414 -0.4687
vn -0.4024 0.1370 -0.9051
vn -0.0565 -0.9803 -0.1894
vn 0.1188 0.4488 0.8857
vn 0.1408 -0.3548 0.9243
vn -0.0275 0.9730 0.2292
vn -0.2194 0.4902 -0.8435
vn -0.0545 -0.4579 -0.8873
vn 0.2787 -0.5895 0.7581
vn 0.2939 0.4992 0.8151
vn -0.8221 -0.1044 0.5596
vn -0.2636 -0.8863 -0.3807
vn 0.5149 -0.8098 0.2811
vn -0.5577 -0.8267 -0.0746
vn 0.7343 0.6271 0.2598
vn 0.9254 -0.2059 -0.3181
vn -0.0221 0.4694 0.8827
vn 0.1111 0.8074 -0.5794
vn -0.0240 -0.3247 -0.9455
vn -0.0146 -0.9895 0.1435
vn 0.0453 0.8024 -0.5951
vn 0.1117 -0.6507 -0.7510
vn 0.1021 0.8100 0.5774
vn 0.0131 -0.6732 0.7393
vn -0.3817 0.3226 0.8661
vn -0.5493 0.8319 0.0791
vn 0.5008 0.8600 0.0977
vn -0.2311 -0.9697 -0.0784
vn 0.8427 -0.5313 0.0863
vn -0.9339 -0.2618 0.2435
vn -0.5986 0.6731 -0.4343
vn -0.7040 -0.3740 -0.6036
vn 0.7791 -0.0986 0.6190
vn -0.6047 -0.5921 -0.5326
vn -0.4689 0.3074 -0.8280
vn -0.0352 0.9789 -0.2014
vn 0.0143 -0.9526 0.3039
vn -0.1964 -0.7860 -0.5862
vn 0.1567 0.2525 -0.9548
vn -0.2372 -0.6067 -0.7587
vn 0.0031 0.9991 0.0415
vn 0.2085 0.5512 0.8079
vn -0.0526 0.3395 0.9391
vn 0.1799 -0.8195 0.5441
vn 0.6436 0.2782 0.7130
vn 0.0765 -0.9899 0.1193
vn 0.4339 0.3533 0.8288
vn -0.4730 0.6406 -0.6049
vn -0.5690 -0.4144 -0.7103
vn 0.0526 0.8429 -0.5355
vn -0.2237 -0.3002 0.9272
vn 0.0464 -0.3712 -0.9274
vn 0.1440 0.5197 -0.8421
vn -0.0547 0.9003 0.4318
vn -0.0405 -0.9774 0.2073
vn 0.0800 -0.7189 -0.6905
vn -0.1722 -0.2875 0.9421
vn 0.0033 0.3543 -0.9351
vn 0.1533 -0.9091 -0.3872
vn 0.0070 0.9709 0.2392
vn -0.1953 -0.4552 0.8687
vn 0.3363 0.8166 -0.4691
vn 0.4327 -0.1211 -0.8933
vn 0.2443 -0.0116 -0.9696
vn -0.3699 -0.0331 0.9285
vn 0.6117 0.6686 -0.4227
vn 0.7283 -0.4822 -0.4869
vn -0.5593 -0.3263 -0.7620
usemtl SVGMat.3781
s 1
f 2//1 5//2 118//3
f 118//3 4//4 1//5
f 7//6 8//7 3//8
f 4//4 7//6 1//5
f 4//4 9//9 7//6
f 11//10 12//11 9//9
f 8//7 13//12 10//13
f 12//11 19//14 15//15
f 14//16 16//17 12//11
f 13//12 17//18 14//16
f 15//15 18//19 13//12
f 17//18 21//20 14//16
f 20//21 28//22 19//14
f 21//20 28//22 20//21
f 18//19 23//23 17//18
f 19//14 24//24 18//19
f 23//23 22//25 21//20
f 28//22 24//24 19//14
f 22//25 25//26 28//22
f 24//24 26//27 23//23
f 27//28 30//29 26//27
f 28//22 31//30 24//24
f 22//25 29//31 25//26
f 29//31 31//30 28//22
f 27//28 32//32 30//29
f 31//30 32//32 27//28
f 32//32 33//33 30//29
f 31//30 34//34 32//32
f 33//33 36//35 30//29
f 29//31 35//36 31//30
f 33//33 41//37 36//35
f 36//35 37//38 35//36
f 34//34 38//39 33//33
f 41//37 40//40 36//35
f 38//39 41//37 33//33
f 39//41 38//39 34//34
f 38//39 42//42 41//37
f 41//37 43//43 37//38
f 38//39 44//44 42//42
f 39//41 44//44 38//39
f 43//43 47//45 45//46
f 46//47 48//48 43//43
f 44//44 49//49 46//47
f 39//41 50//50 44//44
f 45//46 47//45 39//41
f 48//48 51//51 47//45
f 49//49 54//52 48//48
f 51//51 52//53 47//45
f 48//48 53//54 51//51
f 53//54 57//55 52//53
f 50//50 55//56 49//49
f 52//53 58//57 50//50
f 55//56 56//58 54//52
f 56//58 60//59 53//54
f 58//57 56//58 55//56
f 59//60 62//61 57//55
f 58//57 61//62 56//58
f 56//58 64//63 60//59
f 63//64 65//65 62//61
f 64//63 67//66 63//64
f 65//65 66//67 61//62
f 65//65 68//68 66//67
f 66//67 70//69 64//63
f 68//68 71//70 66//67
f 65//65 69//71 68//68
f 67//66 72//72 65//65
f 69//71 73//73 71//70
f 72//72 74//74 69//71
f 73//73 75//75 71//70
f 70//69 76//76 72//72
f 75//75 76//76 70//69
f 75//75 77//77 76//76
f 75//75 78//78 77//77
f 73//73 78//78 75//75
f 74//74 80//79 73//73
f 79//80 81//81 74//74
f 77//77 82//82 76//76
f 78//78 82//82 77//77
f 83//83 84//84 82//82
f 79//80 87//85 81//81
f 83//83 85//86 84//84
f 78//78 90//87 83//83
f 80//79 86//88 78//78
f 84//84 89//89 79//80
f 81//81 87//85 80//79
f 90//87 91//90 85//86
f 86//88 92//91 90//87
f 92//91 94//92 91//90
f 86//88 93//93 92//91
f 93//93 94//92 92//91
f 88//94 93//93 86//88
f 89//89 95//95 88//94
f 91//90 96//96 89//89
f 94//92 96//96 91//90
f 96//96 97//97 95//95
f 98//98 99//99 97//97
f 94//92 98//98 96//96
f 100//100 101//101 94//92
f 99//99 104//102 93//93
f 98//98 102//103 99//99
f 100//100 103//104 101//101
f 104//102 105//105 103//104
f 99//99 106//106 104//102
f 103//104 110//107 98//98
f 105//105 108//108 103//104
f 106//106 105//105 104//102
f 107//109 106//106 99//99
f 110//107 107//109 102//103
f 106//106 109//110 105//105
f 108//108 111//111 110//107
f 107//109 115//112 106//106
f 109//110 111//111 108//108
f 110//107 114//113 107//109
f 111//111 114//113 110//107
f 113//114 117//115 112//116
f 114//113 116//117 115//112
f 111//111 116//117 114//113
f 116//117 118//3 115//112
f 118//3 119//118 115//112
f 119//118 120//119 117//115
f 119//118 1//5 120//119
f 118//3 1//5 119//118
f 3//8 6//120 2//1
f 118//3 5//2 4//4
f 2//1 6//120 5//2
f 1//5 7//6 3//8
f 3//8 8//7 6//120
f 6//120 10//13 5//2
f 6//120 8//7 10//13
f 5//2 11//10 4//4
f 5//2 10//13 11//10
f 4//4 11//10 9//9
f 7//6 9//9 8//7
f 9//9 12//11 15//15
f 10//13 14//16 11//10
f 10//13 13//12 14//16
f 9//9 15//15 8//7
f 11//10 14//16 12//11
f 8//7 15//15 13//12
f 12//11 16//17 19//14
f 13//12 18//19 17//18
f 14//16 21//20 16//17
f 15//15 19//14 18//19
f 16//17 20//21 19//14
f 16//17 21//20 20//21
f 21//20 22//25 28//22
f 17//18 23//23 21//20
f 18//19 24//24 23//23
f 23//23 26//27 22//25
f 24//24 27//28 26//27
f 25//26 29//31 28//22
f 26//27 30//29 22//25
f 24//24 31//30 27//28
f 22//25 30//29 29//31
f 32//32 34//34 33//33
f 30//29 36//35 29//31
f 31//30 35//36 34//34
f 29//31 36//35 35//36
f 35//36 39//41 34//34
f 35//36 37//38 39//41
f 36//35 40//40 37//38
f 40//40 41//37 37//38
f 37//38 43//43 45//46
f 42//42 46//47 41//37
f 42//42 44//44 46//47
f 37//38 45//46 39//41
f 41//37 46//47 43//43
f 43//43 48//48 47//45
f 46//47 49//49 48//48
f 44//44 50//50 49//49
f 39//41 47//45 50//50
f 47//45 52//53 50//50
f 51//51 53//54 52//53
f 48//48 54//52 53//54
f 49//49 55//56 54//52
f 50//50 58//57 55//56
f 54//52 56//58 53//54
f 52//53 57//55 58//57
f 53//54 59//60 57//55
f 53//54 60//59 59//60
f 57//55 62//61 58//57
f 59//60 60//59 63//64
f 59//60 63//64 62//61
f 58//57 62//61 61//62
f 60//59 64//63 63//64
f 61//62 66//67 56//58
f 62//61 65//65 61//62
f 56//58 66//67 64//63
f 63//64 67//66 65//65
f 64//63 70//69 67//66
f 68//68 69//71 71//70
f 67//66 70//69 72//72
f 66//67 71//70 70//69
f 65//65 72//72 69//71
f 69//71 74//74 73//73
f 71//70 75//75 70//69
f 72//72 76//76 74//74
f 76//76 79//80 74//74
f 73//73 80//79 78//78
f 74//74 81//81 80//79
f 76//76 82//82 79//80
f 78//78 83//83 82//82
f 82//82 84//84 79//80
f 83//83 90//87 85//86
f 78//78 86//88 90//87
f 79//80 89//89 87//85
f 84//84 85//86 89//89
f 80//79 87//85 86//88
f 87//85 88//94 86//88
f 87//85 89//89 88//94
f 85//86 91//90 89//89
f 90//87 92//91 91//90
f 88//94 95//95 93//93
f 89//89 96//96 95//95
f 95//95 97//97 93//93
f 96//96 98//98 97//97
f 97//97 99//99 93//93
f 93//93 100//100 94//92
f 94//92 101//101 98//98
f 93//93 104//102 100//100
f 101//101 103//104 98//98
f 100//100 104//102 103//104
f 98//98 110//107 102//103
f 102//103 107//109 99//99
f 103//104 108//108 110//107
f 105//105 109//110 108//108
f 106//106 113//114 109//110
f 106//106 115//112 113//114
f 109//110 112//116 111//111
f 109//110 113//114 112//116
f 107//109 114//113 115//112
f 112//116 117//115 111//111
f 113//114 115//112 117//115
f 111//111 3//8 116//117
f 111//111 117//115 3//8
f 116//117 2//1 118//3
f 116//117 3//8 2//1
f 115//112 119//118 117//115
f 117//115 120//119 3//8
f 120//119 1//5 3//8
