# Blender v2.79 (sub 0) OBJ File: 'world_countrycodes_export2.blend'
# www.blender.org
mtllib KP.mtl
o KP.002_CUCurve.1830
v 1.695491 0.000000 0.391850
v 1.694470 0.000000 0.391593
v 1.692482 0.000000 0.390067
v 1.691204 0.000000 0.389888
v 1.690392 0.000000 0.390489
v 1.689251 0.000000 0.393627
v 1.688442 0.000000 0.394216
v 1.687159 0.000000 0.394639
v 1.686100 0.000000 0.396093
v 1.685082 0.000000 0.396921
v 1.682525 0.000000 0.397287
v 1.681654 0.000000 0.397619
v 1.681476 0.000000 0.398230
v 1.682266 0.000000 0.399859
v 1.682150 0.000000 0.400317
v 1.681425 0.000000 0.400561
v 1.677143 0.000000 0.400294
v 1.675279 0.000000 0.398966
v 1.674176 0.000000 0.399021
v 1.673283 0.000000 0.399657
v 1.671114 0.000000 0.402839
v 1.670106 0.000000 0.403801
v 1.665915 0.000000 0.406131
v 1.660434 0.000000 0.408797
v 1.659624 0.000000 0.409595
v 1.658787 0.000000 0.411256
v 1.660353 0.000000 0.411529
v 1.662928 0.000000 0.412555
v 1.665182 0.000000 0.414325
v 1.665702 0.000000 0.415254
v 1.665623 0.000000 0.416251
v 1.664783 0.000000 0.417678
v 1.661650 0.000000 0.420963
v 1.661521 0.000000 0.422090
v 1.662836 0.000000 0.423457
v 1.663128 0.000000 0.424785
v 1.664005 0.000000 0.425839
v 1.665328 0.000000 0.426059
v 1.666299 0.000000 0.424811
v 1.667386 0.000000 0.424509
v 1.670733 0.000000 0.424691
v 1.671506 0.000000 0.425401
v 1.675002 0.000000 0.422817
v 1.677308 0.000000 0.421890
v 1.680479 0.000000 0.421777
v 1.681978 0.000000 0.421360
v 1.682993 0.000000 0.420655
v 1.680798 0.000000 0.418358
v 1.677373 0.000000 0.415417
v 1.676995 0.000000 0.414509
v 1.677174 0.000000 0.412943
v 1.678479 0.000000 0.411368
v 1.682965 0.000000 0.409089
v 1.687077 0.000000 0.406541
v 1.690044 0.000000 0.404361
v 1.690484 0.000000 0.402928
v 1.690836 0.000000 0.399513
v 1.691494 0.000000 0.397885
v 1.694362 0.000000 0.394654
v 1.697757 0.000000 0.391835
v 1.696846 0.000000 0.391607
v 1.671114 0.050000 0.402839
v 1.670106 0.050000 0.403801
v 1.694470 0.050000 0.391593
v 1.690392 0.050000 0.390489
v 1.664005 0.050000 0.425839
v 1.665328 0.050000 0.426059
v 1.664783 0.050000 0.417678
v 1.677373 0.050000 0.415417
v 1.690484 0.050000 0.402928
v 1.665702 0.050000 0.415254
v 1.665623 0.050000 0.416251
v 1.681476 0.050000 0.398230
v 1.691494 0.050000 0.397885
v 1.663128 0.050000 0.424785
v 1.667386 0.050000 0.424509
v 1.666299 0.050000 0.424811
v 1.662928 0.050000 0.412555
v 1.677174 0.050000 0.412943
v 1.677143 0.050000 0.400294
v 1.658787 0.050000 0.411256
v 1.678479 0.050000 0.411368
v 1.680798 0.050000 0.418358
v 1.661650 0.050000 0.420963
v 1.661521 0.050000 0.422090
v 1.682266 0.050000 0.399859
v 1.675002 0.050000 0.422817
v 1.677308 0.050000 0.421890
v 1.697757 0.050000 0.391835
v 1.696846 0.050000 0.391607
v 1.665915 0.050000 0.406131
v 1.687077 0.050000 0.406541
v 1.676995 0.050000 0.414509
v 1.673283 0.050000 0.399657
v 1.670733 0.050000 0.424691
v 1.671506 0.050000 0.425401
v 1.660353 0.050000 0.411529
v 1.689251 0.050000 0.393627
v 1.681978 0.050000 0.421360
v 1.690836 0.050000 0.399513
v 1.685082 0.050000 0.396921
v 1.682525 0.050000 0.397287
v 1.682150 0.050000 0.400317
v 1.681425 0.050000 0.400561
v 1.688442 0.050000 0.394216
v 1.695491 0.050000 0.391850
v 1.675279 0.050000 0.398966
v 1.674176 0.050000 0.399021
v 1.690044 0.050000 0.404361
v 1.665182 0.050000 0.414325
v 1.692482 0.050000 0.390067
v 1.660434 0.050000 0.408797
v 1.659624 0.050000 0.409595
v 1.694362 0.050000 0.394654
v 1.680479 0.050000 0.421777
v 1.687159 0.050000 0.394639
v 1.682993 0.050000 0.420655
v 1.662836 0.050000 0.423457
v 1.682965 0.050000 0.409089
v 1.681654 0.050000 0.397619
v 1.691204 0.050000 0.389888
v 1.686100 0.050000 0.396093
vn 0.0000 -1.0000 0.0000
vn 0.0000 1.0000 0.0000
vn 0.0000 1.0000 0.0001
vn 0.3731 0.0000 0.9278
vn -0.3570 0.0000 -0.9341
vn 0.2424 0.0000 -0.9702
vn -0.6311 0.0000 -0.7757
vn 0.2669 0.0000 0.9637
vn 0.7895 0.0000 0.6137
vn 0.6515 0.0000 -0.7587
vn -0.8932 0.0000 -0.4497
vn -0.7018 0.0000 -0.7124
vn 0.2449 0.0000 -0.9695
vn 0.9935 0.0000 0.1137
vn -0.4374 0.0000 -0.8993
vn -0.8263 0.0000 -0.5632
vn 0.5921 0.0000 0.8058
vn 0.0621 0.0000 -0.9981
vn -0.6770 0.0000 0.7360
vn -0.9767 0.0000 0.2146
vn -0.9600 0.0000 -0.2798
vn -0.9398 0.0000 -0.3417
vn -0.1714 0.0000 0.9852
vn -0.6176 0.0000 0.7865
vn 0.5944 0.0000 0.8042
vn -0.3134 0.0000 -0.9496
vn 0.1387 0.0000 -0.9903
vn -0.6901 0.0000 -0.7237
vn 0.2680 0.0000 0.9634
vn 0.7701 0.0000 0.6380
vn 0.7231 0.0000 -0.6907
vn -0.8620 0.0000 -0.5069
vn -0.7235 0.0000 -0.6903
vn -0.1643 0.0000 0.9864
vn -0.0541 0.0000 0.9985
vn -0.1414 0.0000 -0.9900
vn -0.3188 0.0000 -0.9478
vn -0.9969 0.0000 -0.0793
vn 0.7478 0.0000 0.6639
vn -0.5798 0.0000 -0.8147
vn 0.5268 0.0000 0.8500
vn -0.4859 0.0000 -0.8740
vn -0.5878 0.0000 -0.8090
vn -0.8085 0.0000 -0.5885
vn -0.7688 0.0000 0.6395
vn -0.1768 0.0000 -0.9843
vn 0.9947 0.0000 0.1025
vn 0.5802 0.0000 -0.8144
vn -0.7205 0.0000 0.6934
vn -0.0497 0.0000 -0.9988
vn -0.5948 0.0000 -0.8039
vn 0.9270 0.0000 0.3752
vn 0.5706 0.0000 0.8213
vn -0.9692 0.0000 -0.2463
vn 0.9559 0.0000 0.2935
vn -0.3702 0.0000 0.9290
vn 0.6390 0.0000 0.7692
vn -0.8726 0.0000 0.4884
vn -0.9935 0.0000 -0.1138
vn 0.9233 0.0000 -0.3841
vn 0.0357 0.0000 0.9994
vn 0.6089 0.0000 -0.7933
vn -0.8998 0.0000 0.4363
vn 0.4529 0.0000 0.8916
usemtl SVGMat.3781
s off
f 5//1 4//1 3//1
f 5//1 3//1 2//1
f 6//1 5//1 2//1
f 1//1 61//1 60//1
f 6//1 2//1 1//1
f 6//1 1//1 60//1
f 6//1 60//1 59//1
f 7//1 6//1 59//1
f 8//1 7//1 59//1
f 9//1 8//1 59//1
f 10//1 9//1 59//1
f 10//1 59//1 58//1
f 11//1 10//1 58//1
f 12//1 11//1 58//1
f 13//1 12//1 58//1
f 13//1 58//1 57//1
f 14//1 13//1 57//1
f 20//1 19//1 18//1
f 20//1 18//1 17//1
f 15//1 14//1 57//1
f 16//1 15//1 57//1
f 21//1 20//1 17//1
f 21//1 17//1 16//1
f 21//1 16//1 57//1
f 21//1 57//1 56//1
f 22//1 21//1 56//1
f 22//1 56//1 55//1
f 22//1 55//1 54//1
f 23//1 22//1 54//1
f 23//1 54//1 53//1
f 24//1 23//1 53//1
f 25//1 24//1 53//1
f 25//1 53//1 52//1
f 26//1 25//1 52//1
f 27//1 26//1 52//1
f 27//1 52//1 51//1
f 28//1 27//1 51//1
f 29//1 28//1 51//1
f 29//1 51//1 50//1
f 30//1 29//1 50//1
f 30//1 50//1 49//1
f 31//1 30//1 49//1
f 32//1 31//1 49//1
f 32//1 49//1 48//1
f 33//1 32//1 48//1
f 33//1 48//1 47//1
f 33//1 47//1 46//1
f 34//1 33//1 46//1
f 34//1 46//1 45//1
f 34//1 45//1 44//1
f 34//1 44//1 43//1
f 35//1 34//1 43//1
f 36//1 35//1 43//1
f 36//1 43//1 40//1
f 36//1 40//1 39//1
f 41//1 40//1 43//1
f 41//1 43//1 42//1
f 37//1 36//1 39//1
f 37//1 39//1 38//1
f 65//2 111//2 121//2
f 65//2 64//2 111//2
f 98//2 64//2 65//2
f 106//2 89//2 90//2
f 98//2 106//2 64//2
f 98//2 89//2 106//2
f 98//2 114//2 89//2
f 105//2 114//2 98//2
f 116//2 114//2 105//2
f 122//2 114//2 116//2
f 101//2 114//2 122//2
f 101//2 74//2 114//2
f 102//2 74//2 101//2
f 120//2 74//2 102//2
f 73//2 74//2 120//2
f 73//2 100//2 74//2
f 86//2 100//2 73//2
f 94//2 107//2 108//2
f 94//2 80//2 107//2
f 103//2 100//2 86//2
f 104//2 100//2 103//2
f 62//2 80//2 94//2
f 62//2 104//2 80//2
f 62//2 100//2 104//2
f 62//2 70//2 100//2
f 63//2 70//2 62//2
f 63//2 109//2 70//2
f 63//2 92//2 109//2
f 91//2 92//2 63//2
f 91//2 119//2 92//2
f 112//2 119//2 91//2
f 113//2 119//2 112//2
f 113//2 82//2 119//2
f 81//2 82//2 113//2
f 97//2 82//2 81//2
f 97//2 79//2 82//2
f 78//2 79//2 97//2
f 110//2 79//2 78//2
f 110//2 93//2 79//2
f 71//2 93//2 110//2
f 71//2 69//2 93//2
f 72//2 69//2 71//2
f 68//2 69//2 72//2
f 68//2 83//2 69//2
f 84//2 83//2 68//2
f 84//2 117//2 83//2
f 84//2 99//2 117//2
f 85//2 99//2 84//2
f 85//2 115//2 99//2
f 85//3 88//3 115//3
f 85//2 87//2 88//2
f 118//2 87//2 85//2
f 75//2 87//2 118//2
f 75//2 76//2 87//2
f 75//2 77//2 76//2
f 95//2 87//2 76//2
f 95//2 96//2 87//2
f 66//2 77//2 75//2
f 66//2 67//2 77//2
f 43//4 44//4 88//4 87//4
f 11//5 12//5 120//5 102//5
f 60//6 61//6 90//6 89//6
f 9//7 10//7 101//7 122//7
f 39//8 40//8 76//8 77//8
f 38//9 39//9 77//9 67//9
f 48//10 49//10 69//10 83//10
f 25//11 26//11 81//11 113//11
f 24//12 25//12 113//12 112//12
f 1//13 2//13 64//13 106//13
f 50//14 51//14 79//14 93//14
f 23//15 24//15 112//15 91//15
f 20//16 21//16 62//16 94//16
f 54//17 55//17 109//17 92//17
f 16//18 17//18 80//18 104//18
f 41//19 42//19 96//19 95//19
f 35//20 36//20 75//20 118//20
f 12//21 13//21 73//21 120//21
f 5//22 6//22 98//22 65//22
f 26//23 27//23 97//23 81//23
f 28//24 29//24 110//24 78//24
f 42//25 43//25 87//25 96//25
f 7//26 8//26 116//26 105//26
f 3//27 4//27 121//27 111//27
f 21//28 22//28 63//28 62//28
f 45//29 46//29 99//29 115//29
f 51//30 52//30 82//30 79//30
f 47//31 48//31 83//31 117//31
f 31//32 32//32 68//32 72//32
f 32//33 33//33 84//33 68//33
f 37//34 38//34 67//34 66//34
f 40//35 41//35 95//35 76//35
f 10//36 11//36 102//36 101//36
f 15//37 16//37 104//37 103//37
f 30//38 31//38 72//38 71//38
f 58//39 59//39 114//39 74//39
f 19//40 20//40 94//40 108//40
f 53//41 54//41 92//41 119//41
f 22//42 23//42 91//42 63//42
f 6//43 7//43 105//43 98//43
f 8//44 9//44 122//44 116//44
f 36//45 37//45 66//45 75//45
f 61//46 1//46 106//46 90//46
f 56//47 57//47 100//47 70//47
f 17//48 18//48 107//48 80//48
f 34//49 35//49 118//49 85//49
f 18//50 19//50 108//50 107//50
f 4//51 5//51 65//51 121//51
f 57//52 58//52 74//52 100//52
f 46//53 47//53 117//53 99//53
f 14//54 15//54 103//54 86//54
f 55//55 56//55 70//55 109//55
f 27//56 28//56 78//56 97//56
f 59//57 60//57 89//57 114//57
f 29//58 30//58 71//58 110//58
f 33//59 34//59 85//59 84//59
f 49//60 50//60 93//60 69//60
f 44//61 45//61 115//61 88//61
f 2//62 3//62 111//62 64//62
f 13//63 14//63 86//63 73//63
f 52//64 53//64 119//64 82//64
