# Blender v2.79 (sub 0) OBJ File: 'world_countrycodes_outlines2.blend'
# www.blender.org
mtllib KP_outline.mtl
o KP.001_CUCurve.1656
v 1.693204 0.000677 0.398490
v 1.693815 0.000585 0.392314
v 1.692681 -0.001407 0.398168
v 1.690328 -0.001925 0.397956
v 1.689317 0.001394 0.398276
v 1.691027 0.001951 0.404435
v 1.690403 -0.002198 0.404215
v 1.691811 -0.000072 0.405728
v 1.688422 0.000856 0.403449
v 1.678313 0.001311 0.413654
v 1.678906 -0.000783 0.413591
v 1.676504 0.001956 0.411847
v 1.675750 -0.000722 0.410979
v 1.675195 0.000694 0.415750
v 1.676337 -0.002094 0.414530
v 1.684526 -0.001981 0.421370
v 1.680152 0.000851 0.420178
v 1.680969 -0.001441 0.420364
v 1.685436 0.001552 0.420698
v 1.682058 0.000881 0.423486
v 1.676773 0.001943 0.422751
v 1.675866 0.000697 0.420084
v 1.675871 -0.001930 0.421292
v 1.677137 -0.000744 0.423883
v 1.671697 0.002019 0.426158
v 1.671733 -0.000960 0.427517
v 1.671150 0.000829 0.423082
v 1.671294 -0.001908 0.424237
v 1.667834 -0.000711 0.426416
v 1.667487 0.001359 0.425803
v 1.666408 0.000553 0.422578
v 1.664733 -0.001605 0.424367
v 1.664825 0.000784 0.423715
v 1.664932 -0.001536 0.427909
v 1.664673 0.001988 0.426931
v 1.661320 -0.000141 0.425884
v 1.660196 0.001788 0.421564
v 1.663586 0.000979 0.421538
v 1.662230 -0.002025 0.421652
v 1.659152 -0.000800 0.421598
v 1.666072 -0.001993 0.415629
v 1.663736 -0.000806 0.415752
v 1.665342 0.001860 0.414811
v 1.667689 0.001641 0.414536
v 1.667450 -0.000839 0.417193
v 1.667142 -0.000975 0.413261
v 1.661233 -0.000819 0.413772
v 1.659847 0.001966 0.410503
v 1.658340 -0.002000 0.409996
v 1.661642 -0.000736 0.409914
v 1.656062 0.000001 0.413101
v 1.658243 0.000818 0.407967
v 1.669529 0.001410 0.402579
v 1.669300 -0.000825 0.402097
v 1.670719 0.001946 0.404465
v 1.671916 -0.000039 0.405079
v 1.671340 -0.001951 0.403968
v 1.672475 -0.000741 0.397581
v 1.674367 0.001914 0.397911
v 1.674585 0.000724 0.401438
v 1.674383 -0.001949 0.399881
v 1.676316 -0.000756 0.397399
v 1.683197 0.001922 0.400943
v 1.681099 -0.001970 0.399845
v 1.680305 0.000822 0.399170
v 1.682513 -0.000866 0.402361
v 1.684302 -0.000773 0.400535
v 1.683479 -0.000736 0.398763
v 1.679552 0.000691 0.396517
v 1.681127 -0.001965 0.396897
v 1.682566 0.001971 0.397747
v 1.686352 0.000600 0.398592
v 1.687130 -0.001976 0.396298
v 1.685672 -0.001157 0.394064
v 1.687168 0.000831 0.392394
v 1.689085 0.001756 0.395260
v 1.690435 -0.000674 0.395467
v 1.691539 -0.001936 0.388873
v 1.689493 -0.000544 0.388182
v 1.690881 0.002101 0.389368
v 1.691746 -0.000795 0.391923
v 1.695463 0.000966 0.389533
v 1.695855 -0.000829 0.389700
v 1.695567 0.001194 0.393503
v 1.694219 -0.000844 0.393650
v 1.696129 -0.001983 0.392144
v 1.701649 -0.000704 0.391355
v 1.698417 0.002059 0.391912
vn 0.5415 -0.7815 0.3098
vn -0.5748 -0.7831 -0.2374
vn 0.1241 -0.9887 -0.0840
vn -0.7709 0.5724 -0.2794
vn -0.3955 0.2615 -0.8805
vn 0.3826 0.8998 0.2097
vn 0.7963 -0.0673 0.6011
vn 0.7038 0.5545 0.4441
vn 0.1117 -0.9917 0.0637
vn -0.7248 0.3502 -0.5932
vn 0.8171 -0.4972 0.2916
vn 0.8299 0.4594 -0.3166
vn -0.4725 -0.8697 0.1423
vn -0.4955 0.8238 -0.2751
vn -0.7736 -0.3088 -0.5533
vn -0.8599 0.2838 0.4244
vn -0.3699 0.8757 -0.3103
vn 0.6775 -0.7009 0.2228
vn -0.2948 -0.9386 -0.1792
vn 0.8574 0.5143 0.0183
vn 0.0617 0.9725 0.2246
vn -0.2880 0.3377 -0.8961
vn 0.0874 0.8693 0.4865
vn 0.1271 -0.3695 0.9205
vn 0.2690 -0.4264 0.8636
vn -0.1799 -0.8833 -0.4328
vn -0.2271 0.4803 -0.8472
vn -0.0974 -0.9568 -0.2738
vn 0.0995 -0.4722 0.8759
vn -0.0352 0.8083 0.5876
vn 0.2350 -0.9033 -0.3590
vn -0.1829 0.2723 -0.9446
vn 0.3121 0.6033 -0.7339
vn 0.0223 -0.5582 0.8294
vn -0.7579 -0.1116 0.6428
vn -0.6034 0.7928 -0.0855
vn 0.0652 -0.9965 0.0517
vn 0.7730 0.6291 0.0816
vn -0.9367 -0.3453 -0.0574
vn -0.1399 0.9850 0.1009
vn 0.2359 -0.9717 -0.0034
vn -0.9005 -0.4312 0.0559
vn 0.8761 -0.2992 0.3780
vn 0.7161 -0.4170 -0.5598
vn -0.3390 -0.4954 0.7998
vn 0.7678 0.6140 -0.1831
vn -0.0977 0.9952 -0.0042
vn -0.4583 -0.8663 -0.1989
vn 0.7799 -0.6089 0.1449
vn -0.8727 0.0168 0.4879
vn -0.6927 0.3215 -0.6456
vn -0.5569 -0.5067 -0.6581
vn -0.4374 0.7428 -0.5069
vn 0.2463 0.8898 0.3842
vn 0.2874 -0.9167 0.2774
vn -0.4938 -0.3200 -0.8086
vn -0.1019 0.8054 -0.5839
vn 0.6412 -0.0236 0.7670
vn 0.4319 0.4348 0.7902
vn 0.0116 -0.9954 0.0946
vn 0.1385 -0.3569 -0.9238
vn 0.5090 0.7822 0.3592
vn 0.0371 -0.9992 -0.0114
vn -0.2476 0.6905 -0.6796
vn 0.9354 -0.3351 0.1124
vn 0.2986 -0.3503 0.8878
vn 0.6391 -0.6482 0.4139
vn -0.0260 0.9962 -0.0824
vn -0.8363 0.3076 -0.4539
vn -0.4250 -0.8575 -0.2899
vn -0.5452 -0.5690 -0.6155
vn 0.4315 0.1915 0.8815
vn 0.2885 -0.8690 0.4020
vn 0.4266 0.8072 0.4081
vn 0.7140 -0.2095 0.6680
vn 0.0571 -0.8057 -0.5896
vn -0.6353 0.6315 -0.4446
vn -0.4471 -0.1348 -0.8842
vn -0.1103 0.8976 -0.4267
vn 0.3551 -0.4477 0.8206
vn 0.2546 0.3932 -0.8835
vn 0.2736 -0.4887 -0.8285
vn 0.4147 0.3782 0.8276
vn -0.2091 -0.3420 0.9161
vn 0.4440 0.8939 -0.0616
vn 0.9663 -0.1827 -0.1814
vn 0.3002 0.3302 0.8949
vn 0.1560 -0.2149 0.9641
usemtl SVGMat.3781
s 1
f 3//1 4//2 86//3
f 4//2 5//4 2//5
f 6//6 8//7 1//8
f 7//9 9//10 5//4
f 3//1 7//9 4//2
f 8//7 7//9 3//1
f 8//7 11//11 7//9
f 10//12 11//11 8//7
f 11//11 15//13 7//9
f 9//10 12//14 6//6
f 7//9 13//15 9//10
f 15//13 13//15 7//9
f 13//15 14//16 12//14
f 15//13 17//17 14//16
f 16//18 18//19 15//13
f 17//17 19//20 12//14
f 11//11 16//18 15//13
f 10//12 19//20 11//11
f 17//17 21//21 19//20
f 18//19 22//22 17//17
f 25//23 26//24 24//25
f 22//22 25//23 21//21
f 23//26 27//27 22//22
f 26//24 28//28 23//26
f 25//23 29//29 26//24
f 27//27 35//30 25//23
f 29//29 32//31 28//28
f 28//28 31//32 27//27
f 32//31 33//33 31//32
f 29//29 34//34 32//31
f 35//30 34//34 29//29
f 35//30 36//35 34//34
f 35//30 37//36 36//35
f 39//37 38//38 33//33
f 38//38 37//36 35//30
f 37//36 40//39 36//35
f 38//38 43//40 37//36
f 40//39 41//41 39//37
f 37//36 42//42 40//39
f 39//37 45//43 38//38
f 41//41 45//43 39//37
f 41//41 46//44 45//43
f 43//40 47//45 42//42
f 44//46 48//47 43//40
f 47//45 49//48 41//41
f 50//49 48//47 44//46
f 49//48 50//49 46//44
f 43//40 51//50 47//45
f 48//47 51//50 43//40
f 48//47 52//51 51//50
f 52//51 54//52 49//48
f 48//47 53//53 52//51
f 53//53 54//52 52//51
f 50//49 55//54 48//47
f 49//48 57//55 50//49
f 54//52 57//55 49//48
f 53//53 58//56 54//52
f 55//54 59//57 53//53
f 56//58 60//59 55//54
f 57//55 60//59 56//58
f 60//59 59//57 55//54
f 58//56 61//60 57//55
f 59//57 62//61 58//56
f 60//59 63//62 59//57
f 62//61 64//63 61//60
f 59//57 65//64 62//61
f 63//62 65//64 59//57
f 64//63 67//65 66//66
f 68//67 71//68 63//62
f 64//63 68//67 67//65
f 71//68 69//69 65//64
f 69//69 70//70 64//63
f 69//69 74//71 70//70
f 68//67 72//72 71//68
f 70//70 73//73 68//67
f 73//73 76//74 72//72
f 73//73 77//75 76//74
f 74//71 78//76 73//73
f 75//77 79//78 74//71
f 77//75 80//79 76//74
f 78//76 81//80 77//75
f 80//79 82//81 79//78
f 82//81 83//82 78//76
f 81//80 84//83 80//79
f 78//76 85//84 81//80
f 84//83 88//85 80//79
f 83//82 86//3 78//76
f 82//81 87//86 83//82
f 86//3 2//5 84//83
f 88//85 1//8 87//86
f 2//5 5//4 88//85
f 86//3 4//2 2//5
f 88//85 5//4 1//8
f 5//4 6//6 1//8
f 4//2 7//9 5//4
f 1//8 8//7 3//1
f 5//4 9//10 6//6
f 6//6 10//12 8//7
f 6//6 12//14 10//12
f 9//10 13//15 12//14
f 13//15 15//13 14//16
f 14//16 17//17 12//14
f 15//13 18//19 17//17
f 12//14 19//20 10//12
f 11//11 19//20 16//18
f 19//20 20//87 16//18
f 20//87 24//25 16//18
f 19//20 21//21 20//87
f 16//18 23//26 18//19
f 20//87 21//21 24//25
f 17//17 22//22 21//21
f 18//19 23//26 22//22
f 16//18 24//25 23//26
f 21//21 25//23 24//25
f 22//22 27//27 25//23
f 24//25 26//24 23//26
f 23//26 28//28 27//27
f 25//23 30//88 29//29
f 26//24 29//29 28//28
f 25//23 35//30 30//88
f 27//27 31//32 35//30
f 28//28 32//31 31//32
f 31//32 33//33 35//30
f 30//88 35//30 29//29
f 34//34 39//37 32//31
f 34//34 36//35 39//37
f 33//33 38//38 35//30
f 32//31 39//37 33//33
f 36//35 40//39 39//37
f 37//36 43//40 42//42
f 38//38 44//46 43//40
f 38//38 45//43 44//46
f 40//39 42//42 41//41
f 45//43 46//44 44//46
f 42//42 47//45 41//41
f 41//41 49//48 46//44
f 46//44 50//49 44//46
f 47//45 51//50 49//48
f 51//50 52//51 49//48
f 48//47 55//54 53//53
f 50//49 56//58 55//54
f 50//49 57//55 56//58
f 53//53 59//57 58//56
f 57//55 61//60 60//59
f 54//52 58//56 57//55
f 58//56 62//61 61//60
f 61//60 66//66 60//59
f 61//60 64//63 66//66
f 62//61 65//64 64//63
f 60//59 66//66 63//62
f 66//66 67//65 63//62
f 67//65 68//67 63//62
f 65//64 69//69 64//63
f 63//62 71//68 65//64
f 64//63 70//70 68//67
f 69//69 71//68 74//71
f 68//67 73//73 72//72
f 70//70 74//71 73//73
f 71//68 75//77 74//71
f 72//72 76//74 71//68
f 71//68 76//74 75//77
f 76//74 80//79 75//77
f 73//73 78//76 77//75
f 75//77 80//79 79//78
f 77//75 81//80 80//79
f 74//71 79//78 78//76
f 79//78 82//81 78//76
f 81//80 85//84 84//83
f 80//79 88//85 82//81
f 78//76 86//3 85//84
f 85//84 86//3 84//83
f 82//81 88//85 87//86
f 84//83 2//5 88//85
f 83//82 87//86 86//3
f 87//86 1//8 3//1
f 87//86 3//1 86//3
