# Blender v2.79 (sub 0) OBJ File: 'world_countrycodes_export2.blend'
# www.blender.org
mtllib KR.mtl
o KR.002_CUCurve.1841
v 1.675033 0.000000 0.422896
v 1.671521 0.000000 0.425478
v 1.672274 0.000000 0.427597
v 1.672911 0.000000 0.428438
v 1.673968 0.000000 0.428669
v 1.674524 0.000000 0.429372
v 1.674452 0.000000 0.430266
v 1.674005 0.000000 0.430780
v 1.673351 0.000000 0.431003
v 1.672287 0.000000 0.430911
v 1.671746 0.000000 0.431306
v 1.671476 0.000000 0.432102
v 1.671598 0.000000 0.433787
v 1.673038 0.000000 0.436913
v 1.672726 0.000000 0.438766
v 1.670694 0.000000 0.441939
v 1.670649 0.000000 0.442732
v 1.671243 0.000000 0.443465
v 1.671559 0.000000 0.444379
v 1.671498 0.000000 0.446277
v 1.671866 0.000000 0.446975
v 1.674369 0.000000 0.447010
v 1.677923 0.000000 0.446021
v 1.680218 0.000000 0.444971
v 1.681863 0.000000 0.443853
v 1.684634 0.000000 0.441287
v 1.686376 0.000000 0.440578
v 1.688420 0.000000 0.440971
v 1.689525 0.000000 0.440897
v 1.690626 0.000000 0.439919
v 1.690726 0.000000 0.438934
v 1.689534 0.000000 0.436212
v 1.688918 0.000000 0.432728
v 1.688993 0.000000 0.430000
v 1.688683 0.000000 0.428707
v 1.687595 0.000000 0.426447
v 1.685036 0.000000 0.422878
v 1.683126 0.000000 0.420746
v 1.682118 0.000000 0.421445
v 1.680814 0.000000 0.421833
v 1.679393 0.000000 0.421818
v 1.677169 0.000000 0.422018
v 1.673351 0.050000 0.431003
v 1.672287 0.050000 0.430911
v 1.674524 0.050000 0.429372
v 1.688993 0.050000 0.430000
v 1.671476 0.050000 0.432102
v 1.688918 0.050000 0.432728
v 1.670694 0.050000 0.441939
v 1.690626 0.050000 0.439919
v 1.687595 0.050000 0.426447
v 1.685036 0.050000 0.422878
v 1.670649 0.050000 0.442732
v 1.671746 0.050000 0.431306
v 1.673038 0.050000 0.436913
v 1.672726 0.050000 0.438766
v 1.689534 0.050000 0.436212
v 1.680814 0.050000 0.421833
v 1.679393 0.050000 0.421818
v 1.684634 0.050000 0.441287
v 1.671559 0.050000 0.444379
v 1.671498 0.050000 0.446277
v 1.686376 0.050000 0.440578
v 1.689525 0.050000 0.440897
v 1.673968 0.050000 0.428669
v 1.682118 0.050000 0.421445
v 1.688683 0.050000 0.428707
v 1.671598 0.050000 0.433787
v 1.671243 0.050000 0.443465
v 1.690726 0.050000 0.438934
v 1.688420 0.050000 0.440971
v 1.677169 0.050000 0.422018
v 1.675033 0.050000 0.422896
v 1.672274 0.050000 0.427597
v 1.681863 0.050000 0.443853
v 1.671521 0.050000 0.425478
v 1.674005 0.050000 0.430780
v 1.683126 0.050000 0.420746
v 1.674452 0.050000 0.430266
v 1.674369 0.050000 0.447010
v 1.677923 0.050000 0.446021
v 1.672911 0.050000 0.428438
v 1.671866 0.050000 0.446975
v 1.680218 0.050000 0.444971
vn 0.0000 -1.0000 0.0000
vn 0.0000 1.0000 0.0000
vn 0.4160 0.0000 0.9094
vn -0.3234 0.0000 -0.9463
vn -0.3801 0.0000 -0.9250
vn -0.9967 0.0000 -0.0806
vn -0.9995 0.0000 -0.0318
vn -0.2855 0.0000 -0.9584
vn -0.9974 0.0000 0.0724
vn -0.0900 0.0000 -0.9959
vn -0.9423 0.0000 0.3347
vn 0.0860 0.0000 -0.9963
vn -0.0139 0.0000 0.9999
vn -0.7844 0.0000 0.6202
vn 0.7450 0.0000 -0.6670
vn -0.8851 0.0000 0.4654
vn -0.7542 0.0000 -0.6567
vn -0.5698 0.0000 -0.8218
vn -0.9451 0.0000 0.3268
vn 0.6644 0.0000 0.7473
vn -0.5923 0.0000 -0.8057
vn 0.5623 0.0000 0.8269
vn -0.5890 0.0000 -0.8081
vn 0.8126 0.0000 -0.5828
vn 0.9847 0.0000 -0.1741
vn 0.9725 0.0000 -0.2331
vn -0.8421 0.0000 -0.5393
vn -0.1891 0.0000 0.9820
vn -0.9984 0.0000 -0.0574
vn 0.9160 0.0000 -0.4012
vn -0.9083 0.0000 0.4184
vn 0.2681 0.0000 0.9634
vn 0.6794 0.0000 0.7337
vn -0.7770 0.0000 0.6295
vn -0.7969 0.0000 0.6042
vn -0.9861 0.0000 -0.1660
vn 0.9948 0.0000 0.1019
vn -0.2133 0.0000 0.9770
vn 0.9996 0.0000 0.0271
vn 0.9011 0.0000 -0.4336
vn 0.0669 0.0000 0.9978
vn -0.9470 0.0000 -0.3211
vn 0.3770 0.0000 0.9262
vn 0.0111 0.0000 -0.9999
usemtl SVGMat.3781
s off
f 39//1 38//1 37//1
f 40//1 39//1 37//1
f 41//1 40//1 37//1
f 42//1 41//1 37//1
f 1//1 42//1 37//1
f 2//1 1//1 37//1
f 2//1 37//1 36//1
f 3//1 2//1 36//1
f 3//1 36//1 35//1
f 4//1 3//1 35//1
f 5//1 4//1 35//1
f 6//1 5//1 35//1
f 6//1 35//1 34//1
f 7//1 6//1 34//1
f 8//1 7//1 34//1
f 9//1 8//1 34//1
f 9//1 34//1 33//1
f 10//1 9//1 33//1
f 11//1 10//1 33//1
f 12//1 11//1 33//1
f 13//1 12//1 33//1
f 13//1 33//1 32//1
f 14//1 13//1 32//1
f 15//1 14//1 32//1
f 15//1 32//1 31//1
f 15//1 31//1 30//1
f 16//1 15//1 30//1
f 16//1 30//1 27//1
f 27//1 30//1 29//1
f 28//1 27//1 29//1
f 16//1 27//1 26//1
f 17//1 16//1 26//1
f 17//1 26//1 25//1
f 18//1 17//1 25//1
f 19//1 18//1 25//1
f 19//1 25//1 24//1
f 19//1 24//1 23//1
f 20//1 19//1 23//1
f 20//1 23//1 22//1
f 21//1 20//1 22//1
f 66//2 52//2 78//2
f 58//2 52//2 66//2
f 59//2 52//2 58//2
f 72//2 52//2 59//2
f 73//2 52//2 72//2
f 76//2 52//2 73//2
f 76//2 51//2 52//2
f 74//2 51//2 76//2
f 74//2 67//2 51//2
f 82//2 67//2 74//2
f 65//2 67//2 82//2
f 45//2 67//2 65//2
f 45//2 46//2 67//2
f 79//2 46//2 45//2
f 77//2 46//2 79//2
f 43//2 46//2 77//2
f 43//2 48//2 46//2
f 44//2 48//2 43//2
f 54//2 48//2 44//2
f 47//2 48//2 54//2
f 68//2 48//2 47//2
f 68//2 57//2 48//2
f 55//2 57//2 68//2
f 56//2 57//2 55//2
f 56//2 70//2 57//2
f 56//2 50//2 70//2
f 49//2 50//2 56//2
f 49//2 63//2 50//2
f 63//2 64//2 50//2
f 71//2 64//2 63//2
f 49//2 60//2 63//2
f 53//2 60//2 49//2
f 53//2 75//2 60//2
f 69//2 75//2 53//2
f 61//2 75//2 69//2
f 61//2 84//2 75//2
f 61//2 81//2 84//2
f 62//2 81//2 61//2
f 62//2 80//2 81//2
f 83//2 80//2 62//2
f 23//3 24//3 84//3 81//3
f 8//4 9//4 43//4 77//4
f 42//5 1//5 73//5 72//5
f 6//6 7//6 79//6 45//6
f 19//7 20//7 62//7 61//7
f 39//8 40//8 58//8 66//8
f 12//9 13//9 68//9 47//9
f 41//10 42//10 72//10 59//10
f 2//11 3//11 74//11 76//11
f 9//12 10//12 44//12 43//12
f 21//13 22//13 80//13 83//13
f 5//14 6//14 45//14 65//14
f 37//15 38//15 78//15 52//15
f 20//16 21//16 83//16 62//16
f 7//17 8//17 77//17 79//17
f 38//18 39//18 66//18 78//18
f 18//19 19//19 61//19 69//19
f 29//20 30//20 50//20 64//20
f 1//21 2//21 76//21 73//21
f 24//22 25//22 75//22 84//22
f 10//23 11//23 54//23 44//23
f 36//24 37//24 52//24 51//24
f 32//25 33//25 48//25 57//25
f 34//26 35//26 67//26 46//26
f 15//27 16//27 49//27 56//27
f 27//28 28//28 71//28 63//28
f 16//29 17//29 53//29 49//29
f 31//30 32//30 57//30 70//30
f 13//31 14//31 55//31 68//31
f 22//32 23//32 81//32 80//32
f 25//33 26//33 60//33 75//33
f 17//34 18//34 69//34 53//34
f 3//35 4//35 82//35 74//35
f 14//36 15//36 56//36 55//36
f 30//37 31//37 70//37 50//37
f 4//38 5//38 65//38 82//38
f 33//39 34//39 46//39 48//39
f 35//40 36//40 51//40 67//40
f 28//41 29//41 64//41 71//41
f 11//42 12//42 47//42 54//42
f 26//43 27//43 63//43 60//43
f 40//44 41//44 59//44 58//44
