# Blender v2.79 (sub 0) OBJ File: 'world_countrycodes_outlines2.blend'
# www.blender.org
mtllib LA_outline.mtl
o LA.001_CUCurve.1650
v 1.551326 0.000837 0.551122
v 1.560482 -0.001919 0.557899
v 1.559657 0.000128 0.555652
v 1.558707 0.001949 0.556398
v 1.556415 0.000772 0.557995
v 1.556988 -0.001403 0.557971
v 1.562294 0.002074 0.560630
v 1.561176 -0.000822 0.562145
v 1.564458 -0.000920 0.559814
v 1.565279 0.000777 0.563436
v 1.562426 -0.001933 0.569736
v 1.564766 -0.000659 0.569283
v 1.563662 0.001947 0.568450
v 1.560773 -0.000660 0.567016
v 1.561061 0.001362 0.567528
v 1.560678 0.000813 0.571076
v 1.554999 0.001959 0.567993
v 1.556622 0.001387 0.569864
v 1.556068 -0.001967 0.567551
v 1.556948 -0.000819 0.570308
v 1.553882 -0.000479 0.567143
v 1.553485 0.001256 0.569745
v 1.554212 -0.001971 0.571105
v 1.556299 -0.000849 0.572483
v 1.554476 0.001980 0.572569
v 1.553274 -0.001025 0.573862
v 1.554015 -0.000533 0.569154
v 1.551795 0.000799 0.572590
v 1.551033 -0.002018 0.568750
v 1.548013 -0.000697 0.570494
v 1.550071 0.001774 0.569234
v 1.549365 -0.000715 0.560989
v 1.549897 0.001408 0.560847
v 1.551649 0.001967 0.559873
v 1.553037 -0.000570 0.559155
v 1.552250 -0.001952 0.561134
v 1.549094 0.000880 0.555956
v 1.546154 0.001846 0.557382
v 1.548018 -0.001998 0.556680
v 1.545322 -0.000760 0.557816
v 1.548714 0.001956 0.551136
v 1.547162 -0.001966 0.551794
v 1.545845 0.000833 0.552240
v 1.549690 -0.000712 0.550541
v 1.543275 0.001858 0.545403
v 1.540268 -0.000762 0.547328
v 1.540055 0.001286 0.546908
v 1.542817 -0.000635 0.543754
v 1.537926 0.000921 0.544058
v 1.539249 -0.001942 0.544568
v 1.535852 0.001907 0.547473
v 1.535630 0.000110 0.545952
v 1.535534 -0.001909 0.547185
v 1.536917 -0.000778 0.549990
v 1.536447 0.001456 0.549531
v 1.532357 -0.000685 0.549098
v 1.532627 0.001950 0.547716
v 1.531569 0.000947 0.544939
v 1.530771 -0.001866 0.546305
v 1.525181 0.001920 0.552014
v 1.526482 -0.001919 0.551643
v 1.525808 0.000015 0.553042
v 1.525623 -0.001912 0.549500
v 1.522706 -0.000947 0.550223
v 1.525549 0.001913 0.549515
v 1.524529 0.001444 0.546856
v 1.524417 -0.000855 0.545938
v 1.527034 0.001193 0.548876
v 1.528212 -0.000775 0.546943
v 1.525245 -0.000707 0.540513
v 1.526407 0.001972 0.539368
v 1.528658 0.001450 0.539807
v 1.529155 -0.000678 0.539290
v 1.526870 0.000782 0.536536
v 1.526750 -0.001906 0.537594
v 1.522963 0.001935 0.539461
v 1.524585 0.000848 0.536731
v 1.523576 -0.002077 0.539147
v 1.521193 -0.000025 0.539516
v 1.521213 -0.001350 0.536328
v 1.521021 0.001230 0.535242
v 1.524690 0.000659 0.532950
v 1.523402 -0.001950 0.532744
v 1.518355 0.000152 0.531657
v 1.521567 -0.000816 0.530288
v 1.522169 0.001990 0.531705
v 1.525105 0.000767 0.524436
v 1.526430 0.000758 0.528522
v 1.526270 -0.001542 0.527771
v 1.526062 -0.001844 0.524865
v 1.527472 0.001475 0.524725
v 1.527156 0.000698 0.530551
v 1.528352 -0.001469 0.530630
v 1.529029 0.001281 0.527289
v 1.530506 0.001975 0.529679
v 1.532063 0.000041 0.529981
v 1.528696 -0.001228 0.527406
v 1.530538 -0.001939 0.529504
v 1.530595 -0.001432 0.523277
v 1.529188 -0.002020 0.521310
v 1.531402 0.001049 0.523444
v 1.531386 -0.000071 0.523812
v 1.527135 -0.000861 0.524499
v 1.527147 0.000976 0.522289
v 1.530017 0.001047 0.519792
v 1.529846 0.002018 0.521577
v 1.533005 -0.001896 0.523125
v 1.532071 -0.001778 0.520764
v 1.532983 0.000698 0.519255
v 1.536784 -0.000759 0.524276
v 1.536281 0.001963 0.525834
v 1.533964 -0.000171 0.527731
v 1.538802 -0.002029 0.531347
v 1.540141 -0.000804 0.529490
v 1.539861 0.001275 0.529997
v 1.536493 -0.000882 0.531837
v 1.537344 0.001881 0.531431
v 1.541346 0.000821 0.533628
v 1.544243 -0.001401 0.532359
v 1.544344 0.001940 0.529721
v 1.543805 0.000858 0.532815
v 1.545669 -0.002003 0.530300
v 1.546871 0.000685 0.529725
v 1.545959 -0.001338 0.536278
v 1.549654 0.000848 0.535928
v 1.545795 0.000887 0.536340
v 1.548919 -0.001866 0.537410
v 1.549039 -0.000032 0.539053
v 1.548194 0.001912 0.538236
v 1.545490 0.001000 0.539734
v 1.542930 0.000813 0.536873
v 1.542371 0.001923 0.539333
v 1.542720 -0.002045 0.539510
v 1.541261 0.001042 0.540353
v 1.542458 -0.000805 0.541953
v 1.550714 -0.001375 0.543838
v 1.550850 0.000744 0.543045
v 1.549729 0.001991 0.545104
v 1.547591 0.000841 0.545446
v 1.549238 -0.001948 0.546015
v 1.554546 0.000812 0.548994
vn -0.7561 0.3397 0.5593
vn 0.2087 0.9626 -0.1725
vn 0.0261 0.9993 -0.0248
vn 0.5240 -0.6852 -0.5058
vn 0.2266 -0.9437 -0.2409
vn -0.3328 -0.8958 0.2944
vn 0.7499 0.3781 -0.5428
vn -0.6844 0.4362 0.5842
vn -0.5380 -0.6883 0.4867
vn 0.8246 -0.3192 -0.4671
vn 0.7532 0.0991 -0.6503
vn -0.9593 0.0736 0.2727
vn 0.2038 -0.8454 0.4936
vn 0.9332 0.3425 -0.1082
vn 0.8209 -0.2516 0.5126
vn -0.5740 -0.5388 -0.6165
vn -0.3156 0.7678 -0.5575
vn 0.0901 0.9886 -0.1209
vn -0.2397 0.8264 -0.5095
vn 0.4411 0.8387 0.3193
vn 0.3038 0.8465 0.4371
vn 0.0885 0.3512 0.9321
vn 0.3895 -0.6425 0.6599
vn -0.0919 -0.8684 -0.4872
vn -0.6669 -0.1630 -0.7271
vn -0.0883 0.9745 -0.2062
vn 0.0834 -0.9918 0.0970
vn 0.7218 -0.3328 0.6068
vn 0.1970 0.8061 0.5580
vn -0.0704 -0.3867 0.9195
vn 0.9616 -0.2281 -0.1525
vn -0.6110 0.7915 0.0132
vn -0.3223 -0.9441 -0.0690
vn -0.4344 0.5403 0.7206
vn -0.9792 -0.1908 0.0681
vn -0.7757 -0.4876 0.4006
vn 0.4244 0.8829 -0.2011
vn 0.3208 -0.9434 -0.0839
vn 0.8647 -0.1572 -0.4771
vn 0.7991 0.5321 -0.2798
vn 0.1363 -0.9904 -0.0201
vn -0.5517 0.7956 0.2505
vn -0.5926 0.7580 0.2723
vn -0.8513 -0.3414 0.3983
vn 0.4956 0.8470 -0.1924
vn -0.1305 -0.9914 0.0051
vn -0.8263 0.4999 0.2592
vn 0.8753 -0.3188 -0.3636
vn 0.2864 0.8482 -0.4455
vn -0.1451 -0.8438 -0.5166
vn 0.3799 -0.2737 -0.8836
vn -0.1681 -0.5755 0.8003
vn 0.0959 0.6800 0.7269
vn -0.3437 0.3911 -0.8537
vn 0.0029 0.9864 -0.1641
vn -0.2726 0.0112 -0.9621
vn 0.2395 -0.4117 0.8793
vn 0.1350 0.6557 0.7429
vn -0.0591 -0.9848 -0.1633
vn 0.1483 -0.4337 0.8887
vn -0.0310 0.9747 0.2211
vn -0.1737 0.3353 -0.9259
vn -0.1952 -0.8133 -0.5481
vn -0.2734 0.7769 0.5671
vn 0.0390 -0.8371 0.5456
vn -0.0476 -0.0226 0.9986
vn -0.0090 0.1608 -0.9869
vn -0.1492 -0.9862 -0.0717
vn -0.9349 -0.2987 0.1915
vn -0.0433 0.9982 -0.0422
vn -0.7469 0.6512 -0.1340
vn -0.8812 -0.4350 -0.1850
vn 0.8961 -0.3563 0.2646
vn -0.0515 0.9977 -0.0443
vn 0.1892 -0.8184 -0.5425
vn -0.8035 -0.4035 0.4377
vn 0.7184 0.6825 -0.1343
vn 0.9071 -0.3493 -0.2347
vn 0.3191 0.3366 -0.8859
vn -0.2338 0.8257 0.5134
vn 0.6243 0.5836 -0.5192
vn -0.1064 -0.9342 0.3405
vn -0.7815 -0.0389 0.6226
vn -0.7327 -0.6662 0.1385
vn 0.2778 -0.9603 0.0256
vn -0.1673 0.9644 -0.2045
vn 0.9286 0.3394 0.1498
vn -0.7331 0.6426 0.2226
vn -0.9420 0.0101 -0.3355
vn -0.4629 0.3282 -0.8234
vn -0.6951 -0.4686 -0.5452
vn 0.1019 0.8649 0.4915
vn 0.4202 0.5809 -0.6971
vn 0.2009 -0.8436 -0.4979
vn -0.0252 -0.7275 -0.6856
vn 0.0869 -0.9509 0.2970
vn -0.5467 0.3927 0.7395
vn -0.1939 -0.5838 0.7884
vn 0.2666 0.8378 0.4764
vn 0.8330 0.0036 0.5533
vn -0.3847 -0.7933 -0.4718
vn 0.3894 -0.8587 0.3330
vn 0.0813 0.8693 0.4875
vn 0.2116 0.8702 -0.4450
vn -0.9127 -0.3794 0.1516
vn -0.8732 0.3747 -0.3115
vn -0.1390 0.9675 -0.2112
vn 0.3353 -0.8944 0.2959
vn 0.3547 -0.6305 0.6904
vn -0.3247 0.3278 -0.8872
vn 0.1611 -0.7970 -0.5821
vn -0.0198 -0.9879 0.1539
vn 0.3478 0.2246 -0.9102
vn 0.7783 -0.3406 -0.5274
vn 0.2626 0.9492 -0.1729
vn -0.8672 0.1116 0.4852
vn -0.6042 -0.3466 0.7174
vn -0.0512 -0.9431 0.3287
vn 0.3406 -0.4549 -0.8228
vn -0.0062 0.3097 0.9508
vn -0.3743 0.8013 0.4667
vn -0.2647 -0.8325 0.4867
vn 0.0640 0.7939 -0.6046
vn 0.1646 0.6987 -0.6962
vn -0.3581 0.6382 0.6814
vn 0.2993 -0.8013 -0.5180
vn 0.6362 0.2256 -0.7378
vn 0.5950 -0.7884 0.1559
vn 0.9279 0.3258 -0.1810
vn -0.4761 -0.8608 -0.1795
vn 0.3646 0.8670 0.3395
vn -0.6417 0.7505 -0.1575
vn 0.6863 -0.0537 0.7253
vn -0.4918 -0.8587 -0.1440
vn 0.6209 0.7351 0.2721
vn -0.5765 0.2653 -0.7729
vn -0.4043 0.9061 -0.1247
vn -0.9361 0.3097 0.1664
vn -0.7156 -0.3617 0.5976
vn 0.6526 0.3303 -0.6819
vn -0.6081 0.4047 0.6829
usemtl SVGMat.3781
s 1
f 1//1 4//2 138//3
f 136//4 2//5 140//6
f 141//7 2//5 136//4
f 140//6 5//8 1//1
f 2//5 6//9 140//6
f 4//2 9//10 3//11
f 6//9 8//12 5//8
f 2//5 8//12 6//9
f 9//10 11//13 2//5
f 10//14 12//15 9//10
f 11//13 14//16 8//12
f 14//16 15//17 7//18
f 15//17 17//19 13//20
f 17//19 18//21 16//22
f 16//22 20//23 11//13
f 11//13 19//24 14//16
f 18//21 20//23 16//22
f 14//16 17//19 15//17
f 19//24 21//25 14//16
f 21//25 22//26 17//19
f 19//24 23//27 21//25
f 20//23 23//27 19//24
f 18//21 24//28 20//23
f 25//29 26//30 24//28
f 23//27 27//31 22//26
f 22//26 31//32 25//29
f 26//30 29//33 23//27
f 28//34 30//35 26//30
f 31//32 32//36 29//33
f 22//26 34//37 31//32
f 29//33 36//38 27//31
f 35//39 34//37 22//26
f 35//39 37//40 34//37
f 32//36 39//41 36//38
f 34//37 38//42 33//43
f 37//40 38//42 34//37
f 38//42 40//44 32//36
f 37//40 41//45 38//42
f 40//44 42//46 39//41
f 38//42 43//47 40//44
f 41//45 43//47 38//42
f 39//41 44//48 37//40
f 42//46 44//48 39//41
f 44//48 45//49 41//45
f 50//50 48//51 44//48
f 43//47 46//52 42//46
f 45//49 47//53 43//47
f 48//51 49//54 45//49
f 49//54 51//55 45//49
f 50//50 49//54 48//51
f 50//50 52//56 49//54
f 47//53 54//57 46//52
f 51//55 55//58 47//53
f 46//52 53//59 50//50
f 55//58 56//60 54//57
f 51//55 57//61 55//58
f 52//56 58//62 51//55
f 53//59 58//62 52//56
f 56//60 59//63 53//59
f 58//62 60//64 57//61
f 56//60 61//65 59//63
f 60//64 62//66 56//60
f 59//63 68//67 58//62
f 61//65 63//68 59//63
f 62//66 64//69 61//65
f 60//64 64//69 62//66
f 64//69 63//68 61//65
f 65//70 66//71 60//64
f 66//71 67//72 64//69
f 63//68 69//73 68//67
f 68//67 71//74 65//70
f 67//72 75//75 63//68
f 66//71 70//76 67//72
f 69//73 72//77 68//67
f 75//75 73//78 69//73
f 73//78 74//79 72//77
f 74//79 76//80 71//74
f 75//75 77//81 74//79
f 70//76 78//82 75//75
f 76//80 79//83 70//76
f 79//83 80//84 78//82
f 80//84 83//85 78//82
f 77//81 86//86 76//80
f 78//82 82//87 77//81
f 81//88 84//89 80//84
f 86//86 84//89 81//88
f 86//86 87//90 85//91
f 83//85 88//92 82//87
f 88//92 91//93 86//86
f 91//93 97//94 90//95
f 89//96 92//97 88//92
f 90//95 93//98 89//96
f 92//97 95//99 91//93
f 93//98 96//100 92//97
f 97//94 100//101 98//102
f 96//100 101//103 95//99
f 94//104 103//105 97//94
f 95//99 104//106 94//104
f 101//103 106//107 95//99
f 99//108 102//109 96//100
f 104//106 100//101 103//105
f 106//107 105//110 104//106
f 105//110 108//111 100//101
f 100//101 107//112 99//108
f 106//107 109//113 105//110
f 109//113 110//114 108//111
f 106//107 111//115 109//113
f 101//103 111//115 106//107
f 107//112 112//116 102//109
f 107//112 116//117 112//116
f 110//114 113//118 107//112
f 111//115 114//119 110//114
f 116//117 118//120 117//121
f 113//118 119//122 116//117
f 117//121 120//123 115//124
f 119//122 121//125 118//120
f 121//125 120//123 117//121
f 114//119 122//126 113//118
f 120//123 123//127 114//119
f 123//127 127//128 122//126
f 120//123 125//129 123//127
f 122//126 124//130 119//122
f 121//125 129//131 120//123
f 124//130 126//132 121//125
f 128//133 133//134 127//128
f 129//131 130//135 128//133
f 124//130 131//136 126//132
f 131//136 132//137 129//131
f 133//134 134//138 131//136
f 133//134 135//139 134//138
f 130//135 136//4 133//134
f 132//137 137//140 130//135
f 134//138 138//3 132//137
f 133//134 140//6 135//139
f 136//4 140//6 133//134
f 138//3 141//7 137//140
f 140//6 1//1 139//141
f 138//3 4//2 141//7
f 141//7 3//11 2//5
f 141//7 4//2 3//11
f 1//1 5//8 4//2
f 140//6 6//9 5//8
f 3//11 9//10 2//5
f 4//2 7//18 9//10
f 5//8 7//18 4//2
f 5//8 8//12 7//18
f 7//18 10//14 9//10
f 2//5 11//13 8//12
f 7//18 13//20 10//14
f 10//14 13//20 12//15
f 9//10 12//15 11//13
f 8//12 14//16 7//18
f 7//18 15//17 13//20
f 13//20 16//22 12//15
f 12//15 16//22 11//13
f 13//20 17//19 16//22
f 11//13 20//23 19//24
f 14//16 21//25 17//19
f 17//19 25//29 18//21
f 17//19 22//26 25//29
f 21//25 23//27 22//26
f 20//23 24//28 23//27
f 18//21 25//29 24//28
f 24//28 26//30 23//27
f 25//29 28//34 26//30
f 25//29 31//32 28//34
f 23//27 29//33 27//31
f 28//34 31//32 30//35
f 26//30 30//35 29//33
f 30//35 31//32 29//33
f 31//32 33//43 32//36
f 31//32 34//37 33//43
f 27//31 35//39 22//26
f 27//31 36//38 35//39
f 29//33 32//36 36//38
f 36//38 39//41 35//39
f 33//43 38//42 32//36
f 35//39 39//41 37//40
f 32//36 40//44 39//41
f 40//44 43//47 42//46
f 37//40 44//48 41//45
f 42//46 50//50 44//48
f 41//45 45//49 43//47
f 43//47 47//53 46//52
f 42//46 46//52 50//50
f 44//48 48//51 45//49
f 45//49 51//55 47//53
f 49//54 52//56 51//55
f 50//50 53//59 52//56
f 47//53 55//58 54//57
f 46//52 54//57 53//59
f 55//58 57//61 56//60
f 54//57 56//60 53//59
f 51//55 58//62 57//61
f 53//59 59//63 58//62
f 57//61 60//64 56//60
f 56//60 62//66 61//65
f 58//62 65//70 60//64
f 58//62 68//67 65//70
f 59//63 63//68 68//67
f 60//64 66//71 64//69
f 64//69 67//72 63//68
f 65//70 71//74 66//71
f 63//68 75//75 69//73
f 66//71 71//74 70//76
f 68//67 72//77 71//74
f 69//73 73//78 72//77
f 67//72 70//76 75//75
f 72//77 74//79 71//74
f 73//78 75//75 74//79
f 71//74 76//80 70//76
f 74//79 77//81 76//80
f 75//75 78//82 77//81
f 70//76 79//83 78//82
f 76//80 81//88 79//83
f 79//83 81//88 80//84
f 76//80 86//86 81//88
f 77//81 82//87 86//86
f 78//82 83//85 82//87
f 80//84 84//89 83//85
f 84//89 86//86 85//91
f 84//89 85//91 83//85
f 85//91 90//95 83//85
f 85//91 87//90 90//95
f 82//87 88//92 86//86
f 83//85 89//96 88//92
f 86//86 91//93 87//90
f 83//85 90//95 89//96
f 87//90 91//93 90//95
f 88//92 92//97 91//93
f 89//96 93//98 92//97
f 90//95 98//102 93//98
f 90//95 97//94 98//102
f 91//93 94//104 97//94
f 91//93 95//99 94//104
f 92//97 96//100 95//99
f 93//98 98//102 96//100
f 98//102 99//108 96//100
f 98//102 100//101 99//108
f 94//104 104//106 103//105
f 95//99 106//107 104//106
f 96//100 102//109 101//103
f 97//94 103//105 100//101
f 104//106 105//110 100//101
f 99//108 107//112 102//109
f 100//101 108//111 107//112
f 105//110 109//113 108//111
f 109//113 111//115 110//114
f 108//111 110//114 107//112
f 102//109 112//116 101//103
f 101//103 112//116 111//115
f 107//112 113//118 116//117
f 111//115 115//124 114//119
f 110//114 114//119 113//118
f 112//116 117//121 111//115
f 112//116 116//117 117//121
f 111//115 117//121 115//124
f 116//117 119//122 118//120
f 115//124 120//123 114//119
f 118//120 121//125 117//121
f 113//118 122//126 119//122
f 114//119 123//127 122//126
f 119//122 124//130 121//125
f 123//127 125//129 127//128
f 120//123 129//131 125//129
f 121//125 126//132 129//131
f 122//126 127//128 124//130
f 125//129 128//133 127//128
f 125//129 129//131 128//133
f 128//133 130//135 133//134
f 126//132 131//136 129//131
f 129//131 132//137 130//135
f 127//128 133//134 124//130
f 124//130 133//134 131//136
f 131//136 134//138 132//137
f 130//135 137//140 136//4
f 135//139 139//141 134//138
f 132//137 138//3 137//140
f 134//138 139//141 138//3
f 135//139 140//6 139//141
f 137//140 141//7 136//4
f 139//141 1//1 138//3
