# Blender v2.79 (sub 0) OBJ File: 'world_countrycodes_outlines2.blend'
# www.blender.org
mtllib LB_outline.mtl
o LB.001_CUCurve.1669
v 1.154205 0.001360 0.453425
v 1.155197 -0.001913 0.453282
v 1.158726 -0.000993 0.451880
v 1.158773 -0.000838 0.443525
v 1.161677 0.001974 0.444256
v 1.162017 -0.002083 0.443058
v 1.160149 0.001155 0.441866
v 1.165181 0.001667 0.443564
v 1.162124 0.000626 0.446071
v 1.164579 -0.002179 0.445415
v 1.165945 0.000884 0.447406
v 1.159540 0.001172 0.456091
v 1.158241 0.001100 0.451642
v 1.159404 -0.001770 0.455009
vn -0.8198 0.4890 0.2978
vn -0.7070 -0.4278 -0.5631
vn -0.6133 -0.7396 0.2771
vn 0.0872 0.9957 0.0306
vn 0.0564 0.9965 0.0611
vn 0.0590 -0.9939 -0.0933
vn 0.1573 -0.8399 -0.5195
vn 0.6646 0.5311 -0.5255
vn -0.3023 0.3902 -0.8696
vn 0.4037 -0.9085 -0.1079
vn 0.2504 0.4480 0.8582
vn 0.2535 -0.7552 0.6044
vn 0.9130 0.2672 0.3081
vn -0.3924 0.8636 0.3164
usemtl SVGMat.3781
s 1
f 1//1 4//2 2//3
f 13//4 5//5 1//1
f 3//6 5//5 13//4
f 2//3 6//7 3//6
f 4//2 6//7 2//3
f 5//5 8//8 7//9
f 8//8 10//10 6//7
f 12//11 14//12 10//10
f 8//8 12//11 11//13
f 10//10 13//4 9//14
f 13//4 12//11 8//8
f 12//11 2//3 14//12
f 13//4 1//1 12//11
f 1//1 7//9 4//2
f 1//1 5//5 7//9
f 3//6 9//14 5//5
f 3//6 6//7 9//14
f 4//2 7//9 6//7
f 7//9 8//8 6//7
f 5//5 9//14 8//8
f 6//7 10//10 9//14
f 8//8 11//13 10//10
f 11//13 12//11 10//10
f 9//14 13//4 8//8
f 10//10 3//6 13//4
f 10//10 14//12 3//6
f 12//11 1//1 2//3
f 14//12 2//3 3//6
