# Blender v2.79 (sub 0) OBJ File: 'world_countrycodes_export2.blend'
# www.blender.org
mtllib LK.mtl
o LK.002_CUCurve.1741
v 1.413915 0.000000 0.596611
v 1.412997 0.000000 0.597695
v 1.412117 0.000000 0.601824
v 1.411343 0.000000 0.606731
v 1.412017 0.000000 0.613465
v 1.412778 0.000000 0.616174
v 1.414705 0.000000 0.618209
v 1.417286 0.000000 0.618285
v 1.421216 0.000000 0.615125
v 1.423223 0.000000 0.610912
v 1.422840 0.000000 0.607158
v 1.418820 0.000000 0.600887
v 1.415483 0.000000 0.597500
v 1.411343 0.050000 0.606731
v 1.412017 0.050000 0.613465
v 1.412117 0.050000 0.601824
v 1.422840 0.050000 0.607158
v 1.414705 0.050000 0.618209
v 1.417286 0.050000 0.618285
v 1.412778 0.050000 0.616174
v 1.412997 0.050000 0.597695
v 1.415483 0.050000 0.597500
v 1.418820 0.050000 0.600887
v 1.421216 0.050000 0.615125
v 1.423223 0.050000 0.610912
v 1.413915 0.050000 0.596611
vn 0.0000 -1.0000 0.0000
vn 0.0000 1.0000 0.0000
vn 0.9028 0.0000 0.4300
vn -0.9627 0.0000 0.2704
vn -0.0291 0.0000 0.9996
vn 0.9948 0.0000 -0.1014
vn -0.7631 0.0000 -0.6463
vn -0.9781 0.0000 -0.2083
vn 0.4931 0.0000 -0.8700
vn 0.8419 0.0000 -0.5396
vn 0.6267 0.0000 0.7793
vn 0.7123 0.0000 -0.7019
vn -0.7261 0.0000 0.6876
vn -0.9950 0.0000 0.0996
vn -0.9878 0.0000 -0.1558
usemtl SVGMat.3781
s off
f 2//1 1//1 13//1
f 2//1 13//1 12//1
f 3//1 2//1 12//1
f 3//1 12//1 11//1
f 4//1 3//1 11//1
f 4//1 11//1 10//1
f 5//1 4//1 10//1
f 5//1 10//1 9//1
f 6//1 5//1 9//1
f 6//1 9//1 8//1
f 7//1 6//1 8//1
f 21//2 22//2 26//2
f 21//2 23//2 22//2
f 16//2 23//2 21//2
f 16//2 17//2 23//2
f 14//2 17//2 16//2
f 14//2 25//2 17//2
f 15//2 25//2 14//2
f 15//2 24//2 25//2
f 20//2 24//2 15//2
f 20//2 19//2 24//2
f 18//2 19//2 20//2
f 9//3 10//3 25//3 24//3
f 5//4 6//4 20//4 15//4
f 7//5 8//5 19//5 18//5
f 10//6 11//6 17//6 25//6
f 1//7 2//7 21//7 26//7
f 2//8 3//8 16//8 21//8
f 13//9 1//9 26//9 22//9
f 11//10 12//10 23//10 17//10
f 8//11 9//11 24//11 19//11
f 12//12 13//12 22//12 23//12
f 6//13 7//13 18//13 20//13
f 4//14 5//14 15//14 14//14
f 3//15 4//15 14//15 16//15
