# Blender v2.79 (sub 0) OBJ File: 'world_countrycodes_outlines2.blend'
# www.blender.org
mtllib LK_outline.mtl
o LK.001_CUCurve.029
v 1.424853 -0.001729 0.611604
v 1.419454 0.001799 0.618723
v 1.420085 -0.000879 0.619091
v 1.416300 -0.000659 0.616794
v 1.414569 -0.001679 0.620034
v 1.415047 0.002066 0.618505
v 1.410543 0.001407 0.615532
v 1.413268 -0.000419 0.611430
v 1.411458 -0.001881 0.615773
v 1.409113 0.000061 0.605098
v 1.412962 0.001921 0.596109
v 1.411525 0.000039 0.595867
v 1.414636 0.000844 0.598808
v 1.413497 -0.002087 0.596021
v 1.415716 0.000837 0.594850
v 1.423916 -0.000819 0.604176
v 1.421817 -0.001021 0.607966
v 1.424366 0.001911 0.608787
v 1.421649 0.000704 0.610296
vn -0.6496 0.7386 -0.1802
vn 0.3653 0.7314 0.5758
vn 0.5999 0.8000 0.0093
vn 0.7769 -0.5815 0.2413
vn -0.1978 -0.6549 -0.7294
vn -0.7566 -0.5423 0.3654
vn 0.5329 -0.3967 0.7474
vn -0.1924 0.9007 0.3894
vn -0.2682 -0.5578 0.7854
vn -0.7249 0.6429 0.2472
vn 0.9987 0.0419 -0.0297
vn -0.9968 0.0000 -0.0803
vn -0.4857 -0.8428 0.2317
vn -0.1150 -0.8585 -0.4996
vn -0.7726 -0.0374 -0.6337
vn -0.2847 0.8542 -0.4349
vn 0.3937 0.2447 -0.8860
vn 0.8306 -0.2900 -0.4753
vn -0.1912 0.5334 0.8240
usemtl SVGMat.3781
s 1
f 19//1 2//2 18//3
f 1//4 4//5 17//6
f 2//2 3//7 1//4
f 19//1 6//8 2//2
f 4//5 6//8 19//1
f 3//7 5//9 1//4
f 2//2 5//9 3//7
f 6//8 7//10 5//9
f 4//5 8//11 6//8
f 5//9 8//11 4//5
f 7//10 10//12 9//13
f 10//12 14//14 9//13
f 12//15 14//14 10//12
f 11//16 15//17 12//15
f 15//17 16//18 14//14
f 13//19 18//3 11//16
f 14//14 17//6 13//19
f 17//6 19//1 13//19
f 16//18 1//4 14//14
f 18//3 1//4 16//18
f 18//3 2//2 1//4
f 17//6 4//5 19//1
f 1//4 5//9 4//5
f 2//2 6//8 5//9
f 5//9 7//10 9//13
f 6//8 8//11 7//10
f 5//9 9//13 8//11
f 8//11 11//16 7//10
f 7//10 11//16 10//12
f 9//13 14//14 8//11
f 8//11 13//19 11//16
f 10//12 11//16 12//15
f 8//11 14//14 13//19
f 12//15 15//17 14//14
f 11//16 18//3 15//17
f 15//17 18//3 16//18
f 13//19 19//1 18//3
f 14//14 1//4 17//6
