# Blender v2.79 (sub 0) OBJ File: 'world_countrycodes_outlines2.blend'
# www.blender.org
mtllib LT_outline.mtl
o LT.001_CUCurve.1629
v 1.076568 -0.000574 0.299029
v 1.075200 0.001479 0.296674
v 1.078555 0.001127 0.295641
v 1.078265 -0.001497 0.296216
v 1.074554 -0.000865 0.296662
v 1.079350 0.000108 0.296121
v 1.076621 0.000015 0.292408
v 1.077187 -0.001402 0.292677
v 1.080044 0.001401 0.290772
v 1.080019 -0.001377 0.290731
v 1.077453 0.001961 0.290110
v 1.080548 -0.000006 0.291075
v 1.077067 -0.002061 0.289438
v 1.074679 0.000700 0.287464
v 1.079512 0.000732 0.287267
v 1.083431 -0.000784 0.285634
v 1.083825 0.001436 0.286149
v 1.084200 0.001890 0.288420
v 1.084101 -0.000849 0.289515
v 1.080975 -0.001828 0.287793
v 1.099970 0.002023 0.288659
v 1.100074 -0.002021 0.288729
v 1.093201 0.000689 0.286576
v 1.093222 0.000853 0.290469
v 1.098580 -0.001389 0.289979
v 1.099311 -0.001490 0.287019
v 1.098197 0.000039 0.290243
v 1.099112 0.000771 0.286047
v 1.098852 0.001457 0.290027
v 1.101913 0.000012 0.287402
v 1.101782 0.001409 0.287973
v 1.101270 -0.001398 0.290903
v 1.101688 -0.001434 0.287960
v 1.101787 0.000670 0.291526
v 1.109806 0.001988 0.293893
v 1.111731 -0.000817 0.293543
v 1.106670 0.000697 0.294896
v 1.108184 -0.001982 0.294315
v 1.110650 -0.000894 0.295612
v 1.107273 -0.001408 0.297031
v 1.107243 0.001388 0.297028
v 1.106657 0.000025 0.296759
v 1.110750 0.000055 0.298823
v 1.109676 0.001501 0.298861
v 1.109850 -0.001522 0.298695
v 1.108282 0.002005 0.298081
v 1.108222 -0.002018 0.298127
v 1.108660 -0.000034 0.300225
v 1.105547 0.000802 0.302437
v 1.102598 -0.001467 0.300570
v 1.105135 -0.001400 0.302086
v 1.102039 0.000842 0.300592
v 1.102488 0.001975 0.304014
v 1.101429 0.000037 0.303149
v 1.102723 -0.001945 0.303910
v 1.104105 -0.001412 0.306084
v 1.104425 0.000844 0.306600
v 1.100589 0.000922 0.307476
v 1.097255 -0.001961 0.306742
v 1.098127 -0.001450 0.308834
v 1.096912 0.000767 0.305639
v 1.097939 0.000013 0.309627
v 1.096715 0.001989 0.308496
v 1.093136 0.000797 0.305272
v 1.092615 -0.001924 0.306351
v 1.091136 -0.001416 0.308349
v 1.090656 0.000940 0.308716
v 1.091017 0.001926 0.307087
v 1.089034 -0.000867 0.303182
v 1.085492 -0.000027 0.306074
v 1.085927 0.001446 0.305503
v 1.087875 0.001912 0.303686
v 1.086596 -0.001902 0.305378
v 1.085895 -0.001343 0.300548
v 1.086859 0.002002 0.299115
v 1.085501 0.000798 0.300906
v 1.089417 0.000691 0.299701
v 1.088238 -0.001866 0.299483
v 1.085607 0.001417 0.297421
v 1.086862 0.000003 0.297192
v 1.083147 -0.001431 0.297305
v 1.082368 -0.002015 0.298471
v 1.083262 -0.000046 0.296800
v 1.081382 -0.001347 0.299840
v 1.082552 0.000899 0.300675
v 1.080867 0.001992 0.297663
v 1.080962 0.001412 0.295802
v 1.079633 0.000725 0.299087
v 1.081237 -0.000823 0.295304
v 1.076814 0.001982 0.297678
v 1.077365 -0.002016 0.296521
vn -0.7790 0.6069 0.1572
vn -0.9152 -0.3811 0.1311
vn -0.4657 -0.2461 0.8500
vn 0.2451 -0.6965 -0.6744
vn 0.6098 0.1249 0.7826
vn 0.4017 0.9003 -0.1674
vn -0.9820 -0.1121 -0.1519
vn 0.4305 0.7992 0.4194
vn -0.1385 -0.9863 0.0896
vn 0.4231 -0.8568 0.2945
vn -0.2412 0.8627 0.4444
vn -0.2846 0.9574 -0.0487
vn 0.7566 0.0064 0.6539
vn -0.9485 -0.3068 -0.0782
vn -0.4112 -0.8990 -0.1504
vn -0.8264 0.1869 -0.5311
vn -0.1168 -0.9264 -0.3580
vn -0.2411 0.3749 -0.8951
vn 0.0542 0.9252 0.3754
vn -0.1343 -0.3894 -0.9112
vn -0.0802 0.6916 -0.7178
vn 0.1151 -0.4102 0.9047
vn 0.0212 -0.9992 -0.0330
vn 0.0750 0.3909 -0.9173
vn 0.0205 0.9980 -0.0592
vn -0.0389 0.3565 0.9335
vn -0.1375 -0.6739 0.7259
vn -0.1156 -0.0277 0.9929
vn 0.1112 0.3251 -0.9391
vn -0.1173 0.7289 0.6745
vn 0.3616 0.6962 -0.6200
vn 0.4860 -0.0203 -0.8737
vn 0.3319 -0.7111 -0.6198
vn 0.1168 -0.7054 -0.6991
vn -0.3501 -0.6160 0.7057
vn -0.4117 0.4040 0.8169
vn 0.9426 -0.2425 -0.2295
vn 0.4549 0.8583 -0.2372
vn -0.8078 0.4523 0.3779
vn -0.0940 -0.9955 0.0116
vn 0.8841 -0.4565 0.0998
vn -0.6109 -0.7306 -0.3049
vn -0.8799 -0.0556 -0.4718
vn 0.8943 0.0468 0.4451
vn -0.5250 0.8036 -0.2801
vn -0.0034 0.9988 0.0475
vn 0.5719 -0.7343 0.3655
vn 0.0358 -0.9991 0.0237
vn 0.5424 0.7293 0.4169
vn 0.5860 -0.0487 0.8088
vn 0.6429 -0.5633 0.5190
vn 0.7328 0.3689 0.5717
vn -0.6358 -0.6501 -0.4160
vn -0.7754 0.4125 -0.4780
vn -0.0893 0.9938 -0.0658
vn -0.1466 -0.9839 -0.1019
vn 0.5666 -0.6355 0.5244
vn 0.6279 0.3927 0.6718
vn -0.8177 -0.0376 -0.5744
vn -0.0947 -0.9392 -0.3300
vn 0.4025 0.5186 0.7543
vn 0.2266 -0.7107 0.6660
vn -0.2434 0.4037 -0.8819
vn 0.2804 0.0396 0.9590
vn -0.2265 -0.6607 0.7157
vn 0.1436 -0.9272 -0.3458
vn 0.3009 0.4022 -0.8647
vn -0.0582 0.9884 0.1399
vn 0.0437 0.9196 0.3902
vn -0.3456 0.3756 0.8599
vn -0.4127 -0.8618 0.2949
vn -0.8086 -0.0667 0.5846
vn 0.2098 0.9718 -0.1072
vn 0.7478 -0.5535 -0.3665
vn -0.3968 -0.8357 0.3795
vn 0.5045 -0.8069 -0.3070
vn -0.5948 0.7044 0.3873
vn -0.6865 0.5125 0.5158
vn 0.2027 0.9581 -0.2023
vn 0.9044 0.2905 -0.3125
vn 0.4411 -0.0674 -0.8949
vn 0.0080 -0.9998 0.0165
vn 0.2321 -0.7466 -0.6234
vn 0.3645 -0.1493 -0.9192
vn -0.2319 -0.5914 0.7722
vn -0.2213 0.3986 0.8900
vn 0.2384 0.6424 -0.7284
vn -0.0450 0.9951 0.0876
vn 0.1669 0.6441 -0.7465
vn -0.2084 0.5147 0.8316
vn 0.2478 -0.3710 -0.8949
usemtl SVGMat.3781
s 1
f 2//1 5//2 1//3
f 4//4 6//5 3//6
f 2//1 7//7 5//2
f 6//5 9//8 3//6
f 91//9 10//10 4//4
f 90//11 11//12 2//1
f 9//8 11//12 90//11
f 10//10 12//13 6//5
f 8//14 13//15 91//9
f 7//7 13//15 8//14
f 11//12 14//16 7//7
f 14//16 20//17 13//15
f 11//12 15//18 14//16
f 12//13 18//19 9//8
f 15//18 16//20 20//17
f 11//12 17//21 15//18
f 10//10 19//22 12//13
f 13//15 19//22 10//10
f 16//20 22//23 20//17
f 17//21 23//24 16//20
f 21//25 23//24 17//21
f 19//22 24//26 18//19
f 22//23 25//27 19//22
f 25//27 27//28 24//26
f 21//25 28//29 23//24
f 27//28 29//30 24//26
f 21//25 31//31 28//29
f 30//32 33//33 26//34
f 22//23 32//35 25//27
f 32//35 34//36 27//28
f 30//32 36//37 33//33
f 21//25 35//38 31//31
f 35//38 36//37 30//32
f 34//36 35//38 21//25
f 32//35 37//39 34//36
f 36//37 38//40 22//23
f 35//38 39//41 36//37
f 40//42 42//43 37//39
f 35//38 43//44 39//41
f 41//45 46//46 35//38
f 45//47 47//48 38//40
f 44//49 48//50 43//44
f 48//50 51//51 45//47
f 44//49 49//52 48//50
f 46//46 49//52 44//49
f 47//48 50//53 40//42
f 42//43 52//54 41//45
f 50//53 52//54 42//43
f 52//54 53//55 46//46
f 51//51 55//56 47//48
f 49//52 56//57 51//51
f 53//55 57//58 49//52
f 50//53 54//59 52//54
f 56//57 59//60 55//56
f 53//55 58//61 57//58
f 58//61 60//62 56//57
f 54//59 61//63 53//55
f 59//60 61//63 54//59
f 62//64 66//65 60//62
f 65//66 64//67 61//63
f 64//67 68//68 63//69
f 66//65 65//66 59//60
f 67//70 73//71 66//65
f 68//68 70//72 67//70
f 64//67 72//73 68//68
f 69//74 72//73 64//67
f 66//65 73//71 65//66
f 70//72 74//75 73//71
f 74//75 78//76 73//71
f 71//77 76//78 70//72
f 75//79 76//78 71//77
f 69//74 77//80 72//73
f 78//76 80//81 77//80
f 74//75 82//82 78//76
f 81//83 83//84 80//81
f 76//78 84//85 74//75
f 75//79 85//86 76//78
f 79//87 86//88 75//79
f 83//84 87//89 79//87
f 86//88 88//90 85//86
f 81//83 89//91 83//84
f 82//82 89//91 81//83
f 86//88 90//11 88//90
f 87//89 90//11 86//88
f 84//85 91//9 82//82
f 91//9 4//4 89//91
f 88//90 1//3 84//85
f 90//11 1//3 88//90
f 5//2 7//7 8//14
f 5//2 8//14 91//9
f 3//6 9//8 90//11
f 4//4 10//10 6//5
f 2//1 11//12 7//7
f 6//5 12//13 9//8
f 91//9 13//15 10//10
f 7//7 14//16 13//15
f 14//16 15//18 20//17
f 9//8 18//19 11//12
f 15//18 17//21 16//20
f 11//12 18//19 17//21
f 12//13 19//22 18//19
f 13//15 20//17 19//22
f 18//19 21//25 17//21
f 20//17 22//23 19//22
f 16//20 23//24 26//34
f 18//19 24//26 21//25
f 19//22 25//27 24//26
f 16//20 26//34 22//23
f 23//24 28//29 26//34
f 24//26 29//30 21//25
f 28//29 30//32 26//34
f 28//29 31//31 30//32
f 25//27 32//35 27//28
f 26//34 33//33 22//23
f 27//28 34//36 29//30
f 29//30 34//36 21//25
f 31//31 35//38 30//32
f 33//33 36//37 22//23
f 22//23 38//40 32//35
f 34//36 37//39 35//38
f 32//35 38//40 37//39
f 36//37 39//41 38//40
f 38//40 40//42 37//39
f 37//39 41//45 35//38
f 37//39 42//43 41//45
f 39//41 43//44 45//47
f 35//38 44//49 43//44
f 39//41 45//47 38//40
f 35//38 46//46 44//49
f 38//40 47//48 40//42
f 43//44 48//50 45//47
f 48//50 49//52 51//51
f 40//42 50//53 42//43
f 45//47 51//51 47//48
f 41//45 52//54 46//46
f 46//46 53//55 49//52
f 47//48 55//56 50//53
f 52//54 54//59 53//55
f 50//53 55//56 54//59
f 51//51 56//57 55//56
f 49//52 57//58 56//57
f 57//58 58//61 56//57
f 53//55 63//69 58//61
f 55//56 59//60 54//59
f 56//57 60//62 59//60
f 53//55 61//63 63//69
f 58//61 62//64 60//62
f 58//61 63//69 62//64
f 63//69 67//70 62//64
f 61//63 64//67 63//69
f 59//60 65//66 61//63
f 60//62 66//65 59//60
f 63//69 68//68 67//70
f 62//64 67//70 66//65
f 65//66 69//74 64//67
f 67//70 70//72 73//71
f 68//68 71//77 70//72
f 68//68 72//73 71//77
f 65//66 73//71 69//74
f 72//73 75//79 71//77
f 73//71 78//76 69//74
f 70//72 76//78 74//75
f 72//73 77//80 75//79
f 69//74 78//76 77//80
f 77//80 79//87 75//79
f 77//80 80//81 79//87
f 78//76 81//83 80//81
f 78//76 82//82 81//83
f 80//81 83//84 79//87
f 74//75 84//85 82//82
f 76//78 85//86 84//85
f 75//79 86//88 85//86
f 79//87 87//89 86//88
f 85//86 88//90 84//85
f 83//84 89//91 87//89
f 89//91 3//6 87//89
f 82//82 91//9 89//91
f 87//89 3//6 90//11
f 89//91 4//4 3//6
f 84//85 1//3 91//9
f 90//11 2//1 1//3
f 1//3 5//2 91//9
