# Blender v2.79 (sub 0) OBJ File: 'world_countrycodes_outlines2.blend'
# www.blender.org
mtllib LU_outline.mtl
o LU.001_CUCurve.1638
v 0.997622 0.000742 0.337622
v 0.994211 -0.001963 0.337960
v 0.996907 -0.001431 0.337525
v 0.994732 -0.000657 0.340353
v 0.995963 0.001946 0.341463
v 0.997798 -0.001971 0.343423
v 0.999067 0.000699 0.345070
v 0.991638 0.001312 0.343650
v 0.994124 0.001530 0.340142
v 0.994438 -0.001316 0.340254
v 0.992100 -0.001899 0.342838
v 0.991388 -0.000568 0.338283
v 0.993299 0.001805 0.337539
v 0.999276 -0.000003 0.331808
v 0.991407 -0.000677 0.342246
vn -0.2803 -0.9547 -0.0995
vn -0.8254 -0.3151 -0.4684
vn -0.4533 0.8559 -0.2488
vn 0.5861 -0.8063 -0.0797
vn 0.4381 -0.8151 0.3789
vn 0.8443 0.5336 -0.0482
vn 0.1076 0.9942 -0.0005
vn 0.6728 0.2209 0.7060
vn -0.6449 0.4606 0.6098
vn 0.3024 0.5878 -0.7504
vn 0.3493 -0.3464 -0.8706
vn -0.5165 -0.7277 0.4512
vn -0.8909 -0.2040 -0.4057
vn 0.5556 0.0138 -0.8313
vn 0.6644 0.1636 -0.7292
usemtl SVGMat.3781
s 1
f 2//1 4//2 13//3
f 3//4 6//5 2//1
f 1//6 6//5 3//4
f 5//7 7//8 1//6
f 5//7 8//9 7//8
f 4//2 9//10 5//7
f 6//5 10//11 4//2
f 8//9 11//12 6//5
f 9//10 8//9 5//7
f 9//10 13//3 8//9
f 12//13 2//1 11//12
f 13//3 14//14 12//13
f 10//11 15//15 4//2
f 2//1 15//15 10//11
f 13//3 1//6 14//14
f 15//15 13//3 9//10
f 13//3 4//2 5//7
f 13//3 5//7 1//6
f 2//1 6//5 4//2
f 1//6 7//8 6//5
f 7//8 8//9 6//5
f 6//5 11//12 10//11
f 8//9 12//13 11//12
f 8//9 13//3 12//13
f 11//12 2//1 10//11
f 4//2 15//15 9//10
f 12//13 14//14 2//1
f 14//14 1//6 3//4
f 15//15 2//1 13//3
f 14//14 3//4 2//1
