# Blender v2.79 (sub 0) OBJ File: 'world_countrycodes_outlines2.blend'
# www.blender.org
mtllib LV_outline.mtl
o LV.001_CUCurve.1630
v 1.080791 -0.000737 0.290986
v 1.078877 0.001929 0.290352
v 1.078463 0.000948 0.287247
v 1.077435 -0.001973 0.290097
v 1.078963 -0.000712 0.287289
v 1.076643 0.000691 0.291276
v 1.074730 0.000673 0.286548
v 1.075971 -0.001925 0.287225
v 1.079415 -0.001357 0.284918
v 1.076887 0.001909 0.284293
v 1.077051 -0.000877 0.282352
v 1.080484 0.001974 0.280494
v 1.079039 -0.001963 0.279933
v 1.080745 0.000736 0.284053
v 1.081519 -0.000806 0.281094
v 1.078497 0.000845 0.278501
v 1.085831 -0.001504 0.274685
v 1.086031 -0.000003 0.273966
v 1.086048 0.001850 0.275123
v 1.085267 0.000750 0.278456
v 1.085534 -0.001979 0.276942
v 1.089333 0.000834 0.284035
v 1.089601 -0.001441 0.283593
v 1.090925 -0.001963 0.281782
v 1.091399 -0.000034 0.280476
v 1.090755 0.001959 0.281601
v 1.096310 0.001900 0.282786
v 1.094986 -0.001961 0.281566
v 1.093929 0.000820 0.280590
v 1.095264 -0.000765 0.284295
v 1.097834 -0.000718 0.281827
v 1.094670 -0.001894 0.275537
v 1.093596 0.000577 0.275463
v 1.097021 0.001409 0.276068
v 1.097485 -0.000784 0.276493
v 1.095610 0.001916 0.274113
v 1.095392 -0.000632 0.272770
v 1.102409 0.001415 0.273001
v 1.102623 -0.000940 0.272574
v 1.101495 0.001904 0.275296
v 1.101728 -0.001938 0.275276
v 1.101515 0.000039 0.276586
v 1.107803 0.000845 0.276095
v 1.107169 0.002005 0.277940
v 1.106940 -0.001428 0.279384
v 1.107788 -0.001948 0.277359
v 1.106971 0.000798 0.279877
v 1.112186 0.000791 0.280064
v 1.112462 -0.001398 0.279576
v 1.114748 0.000747 0.276449
v 1.114599 0.002006 0.279334
v 1.114264 -0.001941 0.277670
v 1.117162 0.000534 0.280104
v 1.113498 0.000847 0.281704
v 1.114567 -0.001911 0.282240
v 1.117074 -0.001356 0.283509
v 1.117110 0.000787 0.283453
v 1.114294 0.001986 0.283936
v 1.113153 -0.000765 0.284116
v 1.115695 0.000011 0.288323
v 1.116354 -0.001321 0.288518
v 1.119041 0.000858 0.285840
v 1.116363 0.001351 0.288602
v 1.117671 -0.001990 0.290496
v 1.118803 0.002050 0.289744
v 1.120678 -0.000720 0.291078
v 1.117663 0.000840 0.291899
v 1.115339 0.001440 0.293855
v 1.113861 -0.000002 0.290577
v 1.114690 -0.002008 0.291772
v 1.114277 0.001984 0.291935
v 1.115728 -0.000726 0.294337
v 1.108973 0.001886 0.292856
v 1.110226 -0.001977 0.293750
v 1.111665 0.000813 0.294421
v 1.110904 0.000679 0.290507
v 1.108684 -0.000951 0.291715
v 1.109722 -0.000708 0.297043
v 1.109249 0.001934 0.295371
v 1.101581 0.000977 0.287631
v 1.101824 0.000625 0.291631
v 1.098507 0.001980 0.288091
v 1.104450 -0.000802 0.288598
v 1.100950 -0.001416 0.290930
v 1.100639 -0.001986 0.288714
v 1.098562 0.001419 0.289936
v 1.099337 -0.001430 0.286752
v 1.098233 -0.000879 0.290353
v 1.099308 0.000634 0.286178
v 1.093530 0.000634 0.290672
v 1.093585 -0.000787 0.286744
v 1.084194 0.000800 0.289531
v 1.083543 -0.000794 0.285641
v 1.083905 0.001943 0.286782
v 1.083485 -0.001959 0.288366
vn 0.5716 0.7487 -0.3356
vn -0.0013 0.8730 0.4877
vn 0.0120 0.8916 -0.4526
vn -0.2963 -0.8554 0.4248
vn 0.3298 -0.8129 -0.4801
vn -0.0771 -0.3570 -0.9309
vn -0.5489 0.2581 0.7950
vn 0.2383 -0.2922 0.9262
vn -0.5102 -0.8566 0.0771
vn -0.9590 0.2826 -0.0224
vn -0.4232 0.8878 -0.1804
vn 0.6173 -0.7176 0.3226
vn -0.8806 -0.2867 -0.3771
vn 0.2107 0.9722 0.1016
vn -0.3423 -0.8913 -0.2972
vn 0.8564 0.3144 0.4094
vn -0.6991 0.3178 -0.6404
vn 0.6990 -0.4613 0.5464
vn 0.1046 -0.6974 -0.7090
vn 0.1556 0.8315 -0.5332
vn -0.0395 0.5877 0.8081
vn -0.0175 -0.9934 0.1135
vn 0.1028 -0.9814 -0.1617
vn 0.1722 0.0200 -0.9849
vn 0.4157 -0.0581 -0.9076
vn -0.4452 0.4084 0.7968
vn 0.0219 0.9926 -0.1192
vn -0.3652 -0.6421 0.6740
vn 0.4371 0.7872 0.4349
vn 0.0233 -0.9995 -0.0189
vn -0.5016 0.5949 -0.6280
vn 0.3131 -0.3262 0.8919
vn 0.8992 -0.3247 0.2933
vn -0.4909 -0.8614 -0.1302
vn -0.3193 0.8398 -0.4390
vn -0.9489 0.2389 -0.2063
vn 0.4179 0.8446 0.3345
vn 0.5090 -0.5407 0.6697
vn -0.4317 -0.2729 -0.8597
vn 0.1898 0.6542 -0.7321
vn 0.2306 -0.4455 -0.8650
vn -0.0938 0.9485 0.3026
vn -0.0767 -0.9801 0.1828
vn -0.3423 0.0297 0.9391
vn 0.3480 0.3661 -0.8630
vn 0.1354 -0.9388 -0.3167
vn -0.0091 0.9952 0.0970
vn -0.2429 0.3600 0.9008
vn -0.2125 -0.6539 0.7261
vn -0.3679 0.3882 0.8449
vn -0.3117 -0.7871 0.5322
vn 0.4575 0.2755 -0.8454
vn 0.3000 -0.8203 -0.4868
vn 0.1497 0.9850 -0.0850
vn -0.9166 0.3459 0.2005
vn -0.3327 -0.9407 0.0658
vn 0.9289 0.2104 -0.3048
vn 0.6877 -0.6840 -0.2433
vn 0.7514 0.5972 -0.2805
vn -0.4457 0.8851 0.1340
vn -0.9335 -0.3099 0.1801
vn -0.7094 -0.7037 0.0399
vn 0.8202 0.3819 -0.4260
vn -0.9989 0.0440 -0.0135
vn -0.5799 0.8145 -0.0130
vn 0.4550 0.8827 0.1177
vn 0.2477 -0.9385 0.2404
vn 0.6438 0.2151 0.7343
vn 0.8441 -0.2504 0.4740
vn 0.2896 0.6600 0.6931
vn -0.0982 0.9794 -0.1765
vn -0.4446 -0.0457 -0.8945
vn -0.0962 -0.9892 -0.1103
vn 0.4212 -0.3520 0.8358
vn 0.1005 -0.9734 0.2061
vn 0.2989 0.4382 0.8477
vn 0.0065 0.9469 -0.3213
vn -0.2163 0.2356 -0.9474
vn 0.1635 -0.4294 -0.8882
vn 0.1796 -0.2795 0.9432
vn 0.4184 0.4418 -0.7935
vn -0.0271 0.9760 -0.2163
vn 0.0522 0.8462 0.5303
vn 0.1310 -0.9588 -0.2519
vn -0.4695 0.3323 0.8180
vn -0.2885 -0.7084 0.6441
vn 0.4793 -0.2848 -0.8301
vn -0.0782 0.7553 0.6507
vn -0.1269 -0.4602 0.8787
vn 0.2201 -0.6836 -0.6958
vn 0.1735 0.3281 -0.9285
vn -0.0728 0.3293 0.9414
vn 0.0660 -0.2515 -0.9656
vn 0.0764 -0.9733 0.2164
vn 0.1688 0.4276 0.8881
usemtl SVGMat.3781
s 1
f 3//1 2//2 94//3
f 4//4 5//5 93//6
f 2//2 6//7 1//8
f 6//7 8//9 4//4
f 2//2 7//10 6//7
f 3//1 10//11 2//2
f 8//9 9//12 5//5
f 9//12 3//1 5//5
f 7//10 11//13 8//9
f 10//11 11//13 7//10
f 3//1 12//14 10//11
f 11//13 13//15 8//9
f 9//12 14//16 3//1
f 12//14 16//17 10//11
f 9//12 15//18 14//16
f 13//15 15//18 9//12
f 16//17 17//19 13//15
f 12//14 19//20 16//17
f 15//18 20//21 12//14
f 13//15 21//22 15//18
f 17//19 21//22 13//15
f 17//19 24//23 21//22
f 18//24 24//23 17//19
f 19//20 25//25 18//24
f 22//26 26//27 19//20
f 23//28 22//26 20//21
f 22//26 27//29 26//27
f 25//25 28//30 24//23
f 26//27 29//31 25//25
f 27//29 29//31 26//27
f 23//28 30//32 22//26
f 28//30 30//32 23//28
f 28//30 31//33 30//32
f 29//31 32//34 28//30
f 36//35 33//36 29//31
f 31//33 34//37 27//29
f 32//34 35//38 31//33
f 33//36 37//39 32//34
f 36//35 37//39 33//36
f 38//40 39//41 37//39
f 34//37 40//42 36//35
f 35//38 40//42 34//37
f 32//34 41//43 35//38
f 39//41 41//43 32//34
f 41//43 42//44 35//38
f 38//40 43//45 39//41
f 39//41 46//46 41//43
f 44//47 43//45 38//40
f 42//44 47//48 40//42
f 45//49 47//48 42//44
f 45//49 48//50 47//48
f 46//46 49//51 45//49
f 50//52 52//53 46//46
f 44//47 50//52 43//45
f 48//50 51//54 44//47
f 49//51 54//55 48//50
f 52//53 55//56 49//51
f 51//54 53//57 50//52
f 53//57 56//58 52//53
f 51//54 57//59 53//57
f 54//55 58//60 51//54
f 56//58 55//56 52//53
f 55//56 59//61 54//55
f 55//56 61//62 59//61
f 58//60 62//63 57//59
f 60//64 63//65 58//60
f 63//65 65//66 58//60
f 56//58 64//67 55//56
f 65//66 67//68 66//69
f 65//66 68//70 67//68
f 60//64 71//71 63//65
f 61//62 69//72 60//64
f 64//67 70//73 61//62
f 72//74 74//75 70//73
f 68//70 75//76 72//74
f 73//77 75//76 68//70
f 69//72 76//78 71//71
f 70//73 76//78 69//72
f 74//75 77//79 70//73
f 75//76 78//80 74//75
f 77//79 80//81 73//77
f 80//81 82//82 79//83
f 78//80 85//84 74//75
f 81//85 84//86 78//80
f 85//84 83//87 77//79
f 82//82 86//88 81//85
f 86//88 88//89 81//85
f 87//90 89//91 80//81
f 86//88 90//92 88//89
f 87//90 91//93 89//91
f 85//84 91//93 87//90
f 82//82 90//92 86//88
f 90//92 95//94 88//89
f 82//82 92//95 90//92
f 85//84 93//6 91//93
f 93//6 94//3 82//82
f 92//95 1//8 95//94
f 94//3 2//2 92//95
f 93//6 3//1 94//3
f 93//6 5//5 3//1
f 1//8 6//7 4//4
f 6//7 7//10 8//9
f 2//2 10//11 7//10
f 4//4 8//9 5//5
f 8//9 13//15 9//12
f 3//1 14//16 12//14
f 10//11 16//17 11//13
f 14//16 15//18 12//14
f 11//13 16//17 13//15
f 16//17 18//24 17//19
f 16//17 19//20 18//24
f 12//14 20//21 19//20
f 15//18 21//22 20//21
f 20//21 22//26 19//20
f 21//22 23//28 20//21
f 21//22 24//23 23//28
f 18//24 25//25 24//23
f 19//20 26//27 25//25
f 24//23 28//30 23//28
f 25//25 29//31 28//30
f 22//26 30//32 27//29
f 30//32 31//33 27//29
f 27//29 36//35 29//31
f 28//30 32//34 31//33
f 29//31 33//36 32//34
f 27//29 34//37 36//35
f 31//33 35//38 34//37
f 36//35 38//40 37//39
f 37//39 39//41 32//34
f 36//35 40//42 38//40
f 35//38 42//44 40//42
f 39//41 43//45 46//46
f 40//42 44//47 38//40
f 41//43 45//49 42//44
f 41//43 46//46 45//49
f 40//42 47//48 44//47
f 47//48 48//50 44//47
f 45//49 49//51 48//50
f 43//45 50//52 46//46
f 44//47 51//54 50//52
f 46//46 52//53 49//51
f 50//52 53//57 52//53
f 48//50 54//55 51//54
f 49//51 55//56 54//55
f 53//57 57//59 56//58
f 51//54 58//60 57//59
f 54//55 59//61 58//60
f 59//61 60//64 58//60
f 59//61 61//62 60//64
f 57//59 62//63 56//58
f 62//63 66//69 56//58
f 58//60 65//66 62//63
f 55//56 64//67 61//62
f 62//63 65//66 66//69
f 56//58 66//69 64//67
f 66//69 67//68 64//67
f 67//68 72//74 64//67
f 67//68 68//70 72//74
f 63//65 71//71 65//66
f 60//64 69//72 71//71
f 61//62 70//73 69//72
f 65//66 71//71 68//70
f 64//67 72//74 70//73
f 71//71 73//77 68//70
f 72//74 75//76 74//75
f 71//71 76//78 73//77
f 70//73 77//79 76//78
f 76//78 77//79 73//77
f 73//77 79//83 75//76
f 75//76 79//83 78//80
f 73//77 80//81 79//83
f 79//83 81//85 78//80
f 79//83 82//82 81//85
f 77//79 83//87 80//81
f 74//75 85//84 77//79
f 78//80 84//86 85//84
f 83//87 85//84 80//81
f 81//85 88//89 84//86
f 85//84 87//90 80//81
f 84//86 88//89 85//84
f 80//81 89//91 82//82
f 89//91 91//93 82//82
f 90//92 92//95 95//94
f 91//93 93//6 82//82
f 88//89 95//94 85//84
f 82//82 94//3 92//95
f 85//84 95//94 93//6
f 92//95 2//2 1//8
f 95//94 4//4 93//6
f 95//94 1//8 4//4
