# Blender v2.79 (sub 0) OBJ File: 'world_countrycodes_export2.blend'
# www.blender.org
mtllib LY.mtl
o LY.002_CUCurve.1871
v 1.023300 0.000000 0.459659
v 1.018789 0.000000 0.464050
v 1.018396 0.000000 0.465308
v 1.018614 0.000000 0.466259
v 1.018611 0.000000 0.467822
v 1.017782 0.000000 0.470520
v 1.016688 0.000000 0.471842
v 1.014242 0.000000 0.473580
v 1.013957 0.000000 0.474201
v 1.014330 0.000000 0.475245
v 1.016616 0.000000 0.479191
v 1.016924 0.000000 0.481061
v 1.016171 0.000000 0.483843
v 1.016329 0.000000 0.484988
v 1.016919 0.000000 0.486405
v 1.016861 0.000000 0.487548
v 1.016501 0.000000 0.488446
v 1.015758 0.000000 0.489353
v 1.015635 0.000000 0.490597
v 1.016082 0.000000 0.493114
v 1.016957 0.000000 0.495015
v 1.014939 0.000000 0.496896
v 1.014356 0.000000 0.498060
v 1.014749 0.000000 0.498892
v 1.016846 0.000000 0.501433
v 1.017640 0.000000 0.503242
v 1.017475 0.000000 0.506053
v 1.018340 0.000000 0.507320
v 1.020241 0.000000 0.508138
v 1.022768 0.000000 0.508457
v 1.025078 0.000000 0.509420
v 1.026212 0.000000 0.509567
v 1.027159 0.000000 0.510546
v 1.028552 0.000000 0.514321
v 1.030977 0.000000 0.514416
v 1.034116 0.000000 0.514976
v 1.036827 0.000000 0.515923
v 1.038945 0.000000 0.517668
v 1.040381 0.000000 0.519526
v 1.049973 0.000000 0.514337
v 1.093266 0.000000 0.537615
v 1.093266 0.000000 0.534624
v 1.098516 0.000000 0.534624
v 1.098467 0.000000 0.477525
v 1.097692 0.000000 0.472985
v 1.098006 0.000000 0.471330
v 1.099093 0.000000 0.469609
v 1.099160 0.000000 0.468421
v 1.098739 0.000000 0.466034
v 1.099033 0.000000 0.464056
v 1.099810 0.000000 0.461950
v 1.099802 0.000000 0.461840
v 1.099620 0.000000 0.461895
v 1.098894 0.000000 0.461134
v 1.096885 0.000000 0.460597
v 1.091247 0.000000 0.459771
v 1.089170 0.000000 0.458912
v 1.087171 0.000000 0.456775
v 1.085935 0.000000 0.455962
v 1.083966 0.000000 0.455457
v 1.080621 0.000000 0.455537
v 1.076913 0.000000 0.456671
v 1.074292 0.000000 0.457997
v 1.072193 0.000000 0.459514
v 1.070892 0.000000 0.461011
v 1.070595 0.000000 0.462487
v 1.072022 0.000000 0.466614
v 1.071896 0.000000 0.468367
v 1.071349 0.000000 0.469336
v 1.070259 0.000000 0.470245
v 1.068390 0.000000 0.471059
v 1.066353 0.000000 0.471152
v 1.064518 0.000000 0.470652
v 1.063062 0.000000 0.469659
v 1.060762 0.000000 0.467856
v 1.057323 0.000000 0.466265
v 1.054079 0.000000 0.465576
v 1.051103 0.000000 0.465439
v 1.048787 0.000000 0.464741
v 1.047295 0.000000 0.463545
v 1.046539 0.000000 0.462251
v 1.046525 0.000000 0.460364
v 1.045893 0.000000 0.459358
v 1.044573 0.000000 0.458623
v 1.041920 0.000000 0.457950
v 1.037963 0.000000 0.456431
v 1.034807 0.000000 0.455924
v 1.031183 0.000000 0.456242
v 1.028850 0.000000 0.455983
v 1.025965 0.000000 0.454859
v 1.025983 0.000000 0.454756
v 1.025773 0.000000 0.458271
v 1.025526 0.000000 0.458882
v 1.024875 0.000000 0.459353
v 1.099033 0.050000 0.464056
v 1.070595 0.050000 0.462487
v 1.027159 0.050000 0.510546
v 1.028552 0.050000 0.514321
v 1.085935 0.050000 0.455962
v 1.080621 0.050000 0.455537
v 1.068390 0.050000 0.471059
v 1.066353 0.050000 0.471152
v 1.016616 0.050000 0.479191
v 1.016924 0.050000 0.481061
v 1.030977 0.050000 0.514416
v 1.049973 0.050000 0.514337
v 1.017475 0.050000 0.506053
v 1.099810 0.050000 0.461950
v 1.023300 0.050000 0.459659
v 1.046525 0.050000 0.460364
v 1.016846 0.050000 0.501433
v 1.017640 0.050000 0.503242
v 1.098006 0.050000 0.471330
v 1.099093 0.050000 0.469609
v 1.045893 0.050000 0.459358
v 1.099802 0.050000 0.461840
v 1.016688 0.050000 0.471842
v 1.089170 0.050000 0.458912
v 1.087171 0.050000 0.456775
v 1.018340 0.050000 0.507320
v 1.020241 0.050000 0.508138
v 1.076913 0.050000 0.456671
v 1.014356 0.050000 0.498060
v 1.098516 0.050000 0.534624
v 1.098739 0.050000 0.466034
v 1.070259 0.050000 0.470245
v 1.015758 0.050000 0.489353
v 1.099620 0.050000 0.461895
v 1.098894 0.050000 0.461134
v 1.034807 0.050000 0.455924
v 1.031183 0.050000 0.456242
v 1.044573 0.050000 0.458623
v 1.041920 0.050000 0.457950
v 1.016329 0.050000 0.484988
v 1.016919 0.050000 0.486405
v 1.025773 0.050000 0.458271
v 1.022768 0.050000 0.508457
v 1.018396 0.050000 0.465308
v 1.018614 0.050000 0.466259
v 1.054079 0.050000 0.465576
v 1.098467 0.050000 0.477525
v 1.097692 0.050000 0.472985
v 1.064518 0.050000 0.470652
v 1.017782 0.050000 0.470520
v 1.028850 0.050000 0.455983
v 1.025965 0.050000 0.454859
v 1.014939 0.050000 0.496896
v 1.024875 0.050000 0.459353
v 1.016171 0.050000 0.483843
v 1.018789 0.050000 0.464050
v 1.047295 0.050000 0.463545
v 1.071349 0.050000 0.469336
v 1.025078 0.050000 0.509420
v 1.037963 0.050000 0.456431
v 1.099160 0.050000 0.468421
v 1.072022 0.050000 0.466614
v 1.074292 0.050000 0.457997
v 1.014749 0.050000 0.498892
v 1.025526 0.050000 0.458882
v 1.016957 0.050000 0.495015
v 1.048787 0.050000 0.464741
v 1.091247 0.050000 0.459771
v 1.072193 0.050000 0.459514
v 1.018611 0.050000 0.467822
v 1.057323 0.050000 0.466265
v 1.096885 0.050000 0.460597
v 1.070892 0.050000 0.461011
v 1.016501 0.050000 0.488446
v 1.016082 0.050000 0.493114
v 1.063062 0.050000 0.469659
v 1.026212 0.050000 0.509567
v 1.014330 0.050000 0.475245
v 1.071896 0.050000 0.468367
v 1.060762 0.050000 0.467856
v 1.051103 0.050000 0.465439
v 1.034116 0.050000 0.514976
v 1.014242 0.050000 0.473580
v 1.016861 0.050000 0.487548
v 1.015635 0.050000 0.490597
v 1.025983 0.050000 0.454756
v 1.036827 0.050000 0.515923
v 1.038945 0.050000 0.517668
v 1.046539 0.050000 0.462251
v 1.093266 0.050000 0.534624
v 1.013957 0.050000 0.474201
v 1.093266 0.050000 0.537615
v 1.040381 0.050000 0.519526
v 1.083966 0.050000 0.455457
vn 0.0000 -1.0000 0.0000
vn 0.0000 1.0000 0.0000
vn 0.0000 1.0000 -0.0001
vn 0.7305 0.0000 -0.6829
vn 0.0000 0.0000 1.0000
vn -0.3954 0.0000 0.9185
vn -0.9846 0.0000 0.1749
vn 0.2585 0.0000 -0.9660
vn -0.8710 0.0000 -0.4913
vn 0.4864 0.0000 -0.8738
vn -0.9653 0.0000 -0.2612
vn -0.3850 0.0000 0.9229
vn -0.9090 0.0000 -0.4169
vn 0.9382 0.0000 0.3460
vn 0.2887 0.0000 -0.9574
vn 1.0000 0.0000 0.0000
vn -0.7185 0.0000 0.6955
vn 0.5632 0.0000 -0.8264
vn 0.9841 0.0000 0.1775
vn -0.9044 0.0000 0.4267
vn -0.3298 0.0000 0.9440
vn 0.9891 0.0000 0.1471
vn -0.6360 0.0000 0.7717
vn -0.1287 0.0000 0.9917
vn -0.7547 0.0000 -0.6561
vn -0.3992 0.0000 -0.9169
vn -0.4736 0.0000 0.8808
vn -0.8653 0.0000 0.5012
vn -0.8940 0.0000 -0.4481
vn 0.7233 0.0000 -0.6905
vn -0.9984 0.0000 -0.0560
vn 0.9984 0.0000 0.0567
vn -0.9450 0.0000 0.3269
vn 1.0000 0.0000 -0.0070
vn -0.0873 0.0000 -0.9962
vn -0.9417 0.0000 0.3364
vn -0.9974 0.0000 -0.0720
vn -0.6819 0.0000 -0.7315
vn 0.1586 0.0000 -0.9873
vn 0.3582 0.0000 -0.9336
vn 0.2462 0.0000 -0.9692
vn -0.8258 0.0000 0.5640
vn -0.9271 0.0000 -0.3748
vn -0.2926 0.0000 -0.9562
vn 0.9826 0.0000 0.1859
vn -0.9381 0.0000 0.3462
vn -1.0000 0.0000 -0.0019
vn 0.6170 0.0000 -0.7870
vn 1.0000 0.0000 -0.0009
vn -0.0392 0.0000 0.9992
vn -0.9234 0.0000 0.3839
vn -0.9983 0.0000 -0.0583
vn -0.0458 0.0000 -0.9990
vn 0.8632 0.0000 -0.5048
vn 0.6254 0.0000 -0.7803
vn 0.1104 0.0000 -0.9939
vn -0.9867 0.0000 0.1627
vn -0.5794 0.0000 -0.8151
vn -0.1756 0.0000 0.9845
vn -0.9987 0.0000 -0.0503
vn -0.6407 0.0000 -0.7678
vn -0.5864 0.0000 -0.8100
vn -0.9748 0.0000 0.2229
vn -0.1252 0.0000 0.9921
vn -0.7734 0.0000 -0.6340
vn 0.0458 0.0000 -0.9990
vn 0.1449 0.0000 -0.9894
vn 0.9857 0.0000 -0.1683
vn -0.4512 0.0000 -0.8924
vn 0.3819 0.0000 -0.9242
vn 0.2079 0.0000 -0.9782
vn 0.2632 0.0000 -0.9647
vn -0.9951 0.0000 -0.0986
vn -0.7712 0.0000 0.6365
vn 0.4759 0.0000 0.8795
vn -0.7702 0.0000 -0.6378
vn -0.9157 0.0000 0.4018
vn -0.9282 0.0000 -0.3722
vn -0.9084 0.0000 0.4181
vn 0.9848 0.0000 -0.1737
vn 0.3628 0.0000 -0.9319
vn -0.9560 0.0000 -0.2935
vn 0.8454 0.0000 0.5341
vn -0.0239 0.0000 -0.9997
vn -0.2894 0.0000 -0.9572
vn 0.8468 0.0000 -0.5319
vn -0.5860 0.0000 -0.8103
vn 0.2484 0.0000 -0.9687
vn -0.1905 0.0000 -0.9817
vn -0.7912 0.0000 0.6116
vn 0.9976 0.0000 -0.0690
vn -0.6975 0.0000 -0.7166
vn 0.4199 0.0000 -0.9076
vn -0.9545 0.0000 -0.2982
vn -0.9906 0.0000 0.1367
vn 0.5496 0.0000 -0.8354
vn -0.9803 0.0000 -0.1976
usemtl SVGMat.3781
s off
f 61//1 60//1 59//1
f 92//1 90//1 89//1
f 62//1 61//1 59//1
f 88//1 87//1 86//1
f 92//1 89//1 88//1
f 62//1 59//1 58//1
f 92//1 88//1 86//1
f 63//1 62//1 58//1
f 92//1 86//1 85//1
f 63//1 58//1 57//1
f 92//1 85//1 84//1
f 64//1 63//1 57//1
f 93//1 92//1 84//1
f 93//1 84//1 83//1
f 94//1 93//1 83//1
f 64//1 57//1 56//1
f 1//1 94//1 83//1
f 1//1 83//1 82//1
f 65//1 64//1 56//1
f 65//1 56//1 55//1
f 65//1 55//1 54//1
f 1//1 82//1 81//1
f 66//1 65//1 54//1
f 66//1 54//1 53//1
f 53//1 52//1 51//1
f 66//1 53//1 51//1
f 2//1 1//1 81//1
f 2//1 81//1 80//1
f 66//1 51//1 50//1
f 2//1 80//1 79//1
f 67//1 66//1 50//1
f 67//1 50//1 49//1
f 3//1 2//1 79//1
f 3//1 79//1 78//1
f 3//1 78//1 77//1
f 3//1 77//1 76//1
f 4//1 3//1 76//1
f 5//1 4//1 76//1
f 5//1 76//1 75//1
f 67//1 49//1 48//1
f 68//1 67//1 48//1
f 68//1 48//1 47//1
f 69//1 68//1 47//1
f 5//1 75//1 74//1
f 6//1 5//1 74//1
f 70//1 69//1 47//1
f 6//1 74//1 73//1
f 70//1 47//1 46//1
f 71//1 70//1 46//1
f 6//1 73//1 72//1
f 7//1 6//1 72//1
f 72//1 71//1 46//1
f 7//1 72//1 46//1
f 7//1 46//1 45//1
f 8//1 7//1 45//1
f 9//1 8//1 45//1
f 10//1 9//1 45//1
f 10//1 45//1 44//1
f 11//1 10//1 44//1
f 11//1 44//1 43//1
f 12//1 11//1 43//1
f 13//1 12//1 43//1
f 14//1 13//1 43//1
f 15//1 14//1 43//1
f 16//1 15//1 43//1
f 17//1 16//1 43//1
f 18//1 17//1 43//1
f 19//1 18//1 43//1
f 20//1 19//1 43//1
f 21//1 20//1 43//1
f 22//1 21//1 43//1
f 23//1 22//1 43//1
f 24//1 23//1 43//1
f 25//1 24//1 40//1
f 40//1 24//1 43//1
f 26//1 25//1 40//1
f 27//1 26//1 40//1
f 28//1 27//1 40//1
f 30//1 28//1 40//1
f 29//1 28//1 30//1
f 31//1 30//1 32//1
f 32//1 30//1 40//1
f 33//1 32//1 40//1
f 34//1 33//1 40//1
f 35//1 34//1 40//1
f 41//1 40//1 42//1
f 42//1 40//1 43//1
f 36//1 35//1 40//1
f 37//1 36//1 40//1
f 38//1 37//1 40//1
f 39//1 38//1 40//1
f 100//2 99//2 188//2
f 136//2 145//2 146//2
f 122//2 99//2 100//2
f 131//2 154//2 130//2
f 136//2 131//2 145//2
f 122//2 119//2 99//2
f 136//2 154//2 131//2
f 157//2 119//2 122//2
f 136//2 133//2 154//2
f 157//2 118//2 119//2
f 136//2 132//2 133//2
f 163//2 118//2 157//2
f 159//2 132//2 136//2
f 159//2 115//2 132//2
f 148//2 115//2 159//2
f 163//2 162//2 118//2
f 109//2 115//2 148//2
f 109//2 110//2 115//2
f 167//2 162//2 163//2
f 167//2 166//2 162//2
f 167//2 129//2 166//2
f 109//2 183//2 110//2
f 96//2 129//2 167//2
f 96//2 128//2 129//2
f 128//2 108//2 116//2
f 96//3 108//3 128//3
f 150//2 183//2 109//2
f 150//2 151//2 183//2
f 96//2 95//2 108//2
f 150//2 161//2 151//2
f 156//2 95//2 96//2
f 156//2 125//2 95//2
f 138//2 161//2 150//2
f 138//2 175//2 161//2
f 138//2 140//2 175//2
f 138//2 165//2 140//2
f 139//2 165//2 138//2
f 164//2 165//2 139//2
f 164//2 174//2 165//2
f 156//2 155//2 125//2
f 173//2 155//2 156//2
f 173//2 114//2 155//2
f 152//2 114//2 173//2
f 164//2 170//2 174//2
f 144//2 170//2 164//2
f 126//2 114//2 152//2
f 144//2 143//2 170//2
f 126//2 113//2 114//2
f 101//2 113//2 126//2
f 144//2 102//2 143//2
f 117//2 102//2 144//2
f 102//2 113//2 101//2
f 117//2 113//2 102//2
f 117//2 142//2 113//2
f 177//2 142//2 117//2
f 185//2 142//2 177//2
f 172//2 142//2 185//2
f 172//2 141//2 142//2
f 103//2 141//2 172//2
f 103//2 124//2 141//2
f 104//2 124//2 103//2
f 149//2 124//2 104//2
f 134//2 124//2 149//2
f 135//2 124//2 134//2
f 178//2 124//2 135//2
f 168//2 124//2 178//2
f 127//2 124//2 168//2
f 179//2 124//2 127//2
f 169//2 124//2 179//2
f 160//2 124//2 169//2
f 147//2 124//2 160//2
f 123//2 124//2 147//2
f 158//2 124//2 123//2
f 111//2 106//2 158//2
f 106//2 124//2 158//2
f 112//2 106//2 111//2
f 107//2 106//2 112//2
f 120//2 106//2 107//2
f 137//2 106//2 120//2
f 121//2 137//2 120//2
f 153//2 171//2 137//2
f 171//2 106//2 137//2
f 97//2 106//2 171//2
f 98//2 106//2 97//2
f 105//2 106//2 98//2
f 186//2 184//2 106//2
f 184//2 124//2 106//2
f 176//2 106//2 105//2
f 181//2 106//2 176//2
f 182//2 106//2 181//2
f 187//2 106//2 182//2
f 57//4 58//4 119//4 118//4
f 42//5 43//5 124//5 184//5
f 28//6 29//6 121//6 120//6
f 19//7 20//7 169//7 179//7
f 54//8 55//8 166//8 129//8
f 68//9 69//9 152//9 173//9
f 83//10 84//10 132//10 115//10
f 12//11 13//11 149//11 104//11
f 30//12 31//12 153//12 137//12
f 8//13 9//13 185//13 177//13
f 50//14 51//14 108//14 95//14
f 78//15 79//15 161//15 175//15
f 41//16 42//16 184//16 186//16
f 32//17 33//17 97//17 171//17
f 73//18 74//18 170//18 143//18
f 90//19 91//19 180//19 146//19
f 23//20 24//20 158//20 123//20
f 36//21 37//21 181//21 176//21
f 49//22 50//22 95//22 125//22
f 37//23 38//23 182//23 181//23
f 31//24 32//24 171//24 153//24
f 64//25 65//25 167//25 163//25
f 70//26 71//26 101//26 126//26
f 40//27 41//27 186//27 106//27
f 10//28 11//28 103//28 172//28
f 22//29 23//29 123//29 147//29
f 53//30 54//30 129//30 128//30
f 90//31 92//31 136//31 146//31
f 47//32 48//32 155//32 114//32
f 66//33 67//33 156//33 96//33
f 81//34 82//34 110//34 183//34
f 87//35 88//35 131//35 130//35
f 9//36 10//36 172//36 185//36
f 67//37 68//37 173//37 156//37
f 21//38 22//38 147//38 160//38
f 86//39 87//39 130//39 154//39
f 85//40 86//40 154//40 133//40
f 84//41 85//41 133//41 132//41
f 27//42 28//42 120//42 107//42
f 92//43 93//43 159//43 136//43
f 61//44 62//44 122//44 100//44
f 45//45 46//45 113//45 142//45
f 33//46 34//46 98//46 97//46
f 4//47 5//47 164//47 139//47
f 74//48 75//48 174//48 170//48
f 43//49 44//49 141//49 124//49
f 34//50 35//50 105//50 98//50
f 14//51 15//51 135//51 134//51
f 26//52 27//52 107//52 112//52
f 71//53 72//53 102//53 101//53
f 80//54 81//54 183//54 151//54
f 79//55 80//55 151//55 161//55
f 88//56 89//56 145//56 131//56
f 11//57 12//57 104//57 103//57
f 7//58 8//58 177//58 117//58
f 35//59 36//59 176//59 105//59
f 15//60 16//60 178//60 135//60
f 69//61 70//61 126//61 152//61
f 93//62 94//62 148//62 159//62
f 3//63 4//63 139//63 138//63
f 29//64 30//64 137//64 121//64
f 17//65 18//65 127//65 168//65
f 77//66 78//66 175//66 140//66
f 55//67 56//67 162//67 166//67
f 44//68 45//68 142//68 141//68
f 62//69 63//69 157//69 122//69
f 56//70 57//70 118//70 162//70
f 76//71 77//71 140//71 165//71
f 72//72 73//72 143//72 102//72
f 18//73 19//73 179//73 127//73
f 24//74 25//74 111//74 158//74
f 39//75 40//75 106//75 187//75
f 6//76 7//76 117//76 144//76
f 25//77 26//77 112//77 111//77
f 16//78 17//78 168//78 178//78
f 20//79 21//79 160//79 169//79
f 48//80 49//80 125//80 155//80
f 89//81 90//81 146//81 145//81
f 5//82 6//82 144//82 164//82
f 46//83 47//83 114//83 113//83
f 60//84 61//84 100//84 188//84
f 52//85 53//85 128//85 116//85
f 82//86 83//86 115//86 110//86
f 63//87 64//87 163//87 157//87
f 59//88 60//88 188//88 99//88
f 94//89 1//89 109//89 148//89
f 38//90 39//90 187//90 182//90
f 51//91 52//91 116//91 108//91
f 1//92 2//92 150//92 109//92
f 75//93 76//93 165//93 174//93
f 2//94 3//94 138//94 150//94
f 13//95 14//95 134//95 149//95
f 58//96 59//96 99//96 119//96
f 65//97 66//97 96//97 167//97
