# Blender v2.79 (sub 0) OBJ File: 'world_countrycodes_outlines2.blend'
# www.blender.org
mtllib LY_outline.mtl
o LY.001_CUCurve.1697
v 1.027340 -0.002000 0.454924
v 1.026867 0.001935 0.456623
v 1.024223 0.000003 0.451215
v 1.029431 0.000654 0.454204
v 1.035615 -0.000136 0.458049
v 1.036616 0.000810 0.454054
v 1.036454 0.001940 0.456822
v 1.034881 -0.002210 0.455778
v 1.047795 -0.000795 0.457960
v 1.047069 0.001931 0.458861
v 1.044548 0.000796 0.460797
v 1.045596 -0.001958 0.459895
v 1.048905 -0.000762 0.462738
v 1.048695 0.001323 0.463235
v 1.045950 0.001913 0.463606
v 1.044744 -0.000751 0.463111
v 1.047768 0.000733 0.466686
v 1.048013 -0.001950 0.465550
v 1.058259 -0.000784 0.464267
v 1.058866 0.001930 0.465663
v 1.057423 0.000798 0.468117
v 1.056484 -0.001951 0.466726
v 1.064108 -0.001960 0.471251
v 1.065763 0.001957 0.470489
v 1.066772 -0.000784 0.469605
v 1.064917 0.000921 0.473111
v 1.068233 -0.000922 0.473171
v 1.070565 0.001357 0.468248
v 1.072118 0.001940 0.470026
v 1.072964 -0.001938 0.468705
v 1.070185 -0.000867 0.467749
v 1.074307 0.000576 0.469051
v 1.069023 0.001432 0.460850
v 1.071359 -0.001929 0.461569
v 1.071416 0.001945 0.461518
v 1.072593 -0.000039 0.461937
v 1.068543 -0.000831 0.460711
v 1.078534 0.000667 0.453622
v 1.076007 0.001961 0.456070
v 1.079433 0.000350 0.457691
v 1.075088 -0.001878 0.456402
v 1.084444 -0.001341 0.456701
v 1.087273 -0.001921 0.455604
v 1.085276 -0.000916 0.453359
v 1.086996 0.001937 0.455453
v 1.085331 0.000830 0.457748
v 1.089847 0.001941 0.458504
v 1.088839 0.000697 0.461166
v 1.089257 -0.001947 0.459976
v 1.090641 -0.000787 0.457537
v 1.100538 0.001906 0.460928
v 1.097537 0.000850 0.462637
v 1.098790 -0.001973 0.461824
v 1.099998 -0.000692 0.459361
v 1.100608 0.001125 0.467620
v 1.101524 -0.000990 0.461504
v 1.098099 0.001981 0.469634
v 1.098596 -0.001966 0.471676
v 1.096920 -0.000646 0.468462
v 1.101215 -0.000696 0.469558
v 1.099799 0.000793 0.472363
v 1.095776 0.000701 0.471694
v 1.096421 -0.001457 0.471981
v 1.100426 0.000697 0.536607
v 1.097882 0.001992 0.533991
v 1.096508 -0.000746 0.532650
v 1.099424 -0.001937 0.535283
v 1.095230 0.000811 0.536538
v 1.091540 0.001528 0.534161
v 1.091303 -0.000811 0.532710
v 1.095249 -0.000697 0.540848
v 1.093925 0.001937 0.539003
v 1.093096 -0.001953 0.535965
v 1.049740 -0.001683 0.516039
v 1.050240 0.001937 0.515228
v 1.049906 0.000153 0.511856
v 1.040676 -0.001985 0.518249
v 1.039889 -0.000744 0.521976
v 1.039918 0.001933 0.520518
v 1.040985 0.000975 0.517120
v 1.035931 0.001374 0.516836
v 1.036932 0.001973 0.515077
v 1.037011 -0.000599 0.513534
v 1.035169 -0.000763 0.517118
v 1.029875 -0.001825 0.513237
v 1.028194 0.002279 0.513773
v 1.027152 -0.000820 0.516102
v 1.025532 0.000824 0.511560
v 1.027403 0.001948 0.509249
v 1.026269 -0.001983 0.510420
v 1.027950 -0.000703 0.508162
v 1.021552 -0.000973 0.510134
v 1.019631 0.000758 0.505803
v 1.018595 -0.001955 0.506725
v 1.018403 0.000858 0.509635
v 1.016655 0.001904 0.506872
v 1.015894 -0.000914 0.507672
v 1.015607 -0.000782 0.503128
v 1.016981 0.001928 0.503333
v 1.019487 0.000829 0.502226
v 1.018147 -0.001955 0.501937
v 1.016565 0.000023 0.497950
v 1.014926 0.002038 0.497720
v 1.013899 -0.002140 0.498163
v 1.012117 0.000680 0.497941
v 1.015209 -0.001440 0.494747
v 1.014652 0.000800 0.494771
v 1.017822 0.001935 0.495389
v 1.018995 -0.000027 0.495473
v 1.017754 -0.001959 0.495220
v 1.016339 -0.002033 0.487993
v 1.013670 0.000824 0.489648
v 1.017493 0.000894 0.490193
v 1.014596 -0.001015 0.487537
v 1.016201 0.001970 0.487173
v 1.019056 0.000645 0.487678
v 1.018397 -0.001285 0.485639
v 1.013963 0.000298 0.484407
v 1.017123 0.001838 0.483175
v 1.014991 0.000767 0.480505
v 1.018997 0.000769 0.479804
v 1.016859 -0.002217 0.479569
v 1.012743 0.001814 0.473834
v 1.015984 0.000873 0.474525
v 1.014652 -0.002006 0.474276
v 1.011775 -0.000748 0.473546
v 1.016125 -0.000787 0.469640
v 1.017595 0.001915 0.469618
v 1.020058 0.000704 0.471106
v 1.019013 -0.001876 0.470657
v 1.016506 -0.000782 0.464177
v 1.019174 -0.001965 0.464896
v 1.020394 0.000808 0.465183
v 1.017807 0.001981 0.464168
v 1.024144 0.001362 0.457656
v 1.023759 -0.000800 0.457343
v 1.026078 0.000732 0.460945
v 1.024307 -0.001002 0.461414
v 1.026552 0.001980 0.458862
v 1.026538 -0.001955 0.458712
v 1.027768 -0.000758 0.457860
vn 0.6099 -0.3509 0.7105
vn 0.1041 0.9943 0.0234
vn 0.5108 0.8367 0.1974
vn -0.5408 0.7706 -0.3373
vn -0.4451 0.0148 -0.8954
vn -0.7356 -0.5605 -0.3804
vn 0.1468 0.3768 -0.9146
vn 0.0307 -0.9806 -0.1934
vn 0.0480 -0.9465 -0.3190
vn 0.1354 0.2793 -0.9506
vn -0.1319 -0.1372 0.9817
vn -0.0740 0.9706 0.2289
vn 0.7002 -0.3215 -0.6375
vn 0.4417 0.8166 -0.3716
vn -0.7195 0.4961 0.4860
vn 0.6525 -0.5042 -0.5656
vn -0.4901 0.8211 0.2926
vn -0.2274 -0.8607 0.4554
vn -0.1181 -0.9922 0.0379
vn -0.8824 -0.3232 0.3418
vn 0.3765 0.7081 -0.5974
vn 0.3204 -0.3670 -0.8733
vn 0.2017 0.8818 -0.4263
vn -0.3924 0.3145 0.8643
vn -0.3395 0.4519 0.8249
vn -0.0839 -0.9485 0.3054
vn 0.0218 0.9782 -0.2065
vn -0.2116 -0.9036 0.3723
vn -0.0889 -0.3352 -0.9379
vn -0.2608 0.3736 0.8902
vn 0.3572 0.8242 0.4394
vn 0.2315 -0.3417 0.9108
vn 0.4946 -0.8508 0.1775
vn -0.5586 0.7918 -0.2470
vn -0.7170 -0.6253 -0.3080
vn -0.7380 0.6177 -0.2716
vn -0.8716 -0.3890 -0.2981
vn 0.9379 0.1792 0.2970
vn 0.1699 0.9829 0.0713
vn 0.0787 -0.9944 0.0699
vn 0.9143 -0.0541 0.4013
vn -0.2252 0.2048 -0.9525
vn -0.2144 0.9112 -0.3517
vn 0.1736 0.1634 0.9712
vn -0.2372 -0.8631 -0.4458
vn 0.2025 -0.2847 -0.9369
vn -0.1289 -0.7227 0.6790
vn 0.2727 0.8552 -0.4408
vn 0.2647 -0.8883 -0.3753
vn -0.3940 0.5597 0.7290
vn 0.4646 -0.3919 -0.7941
vn 0.1286 0.9714 -0.1995
vn -0.3978 0.3223 0.8590
vn 0.5057 0.7859 -0.3558
vn -0.0646 -0.9977 -0.0227
vn -0.1668 -0.8837 0.4372
vn 0.4465 -0.2902 -0.8464
vn -0.6511 0.6030 0.4609
vn 0.8748 -0.4202 -0.2409
vn 0.7285 0.6788 0.0923
vn -0.2187 0.9735 -0.0666
vn 0.2722 -0.9595 0.0718
vn -0.9419 -0.2900 -0.1697
vn 0.9296 -0.2889 0.2286
vn 0.9200 0.3536 0.1691
vn -0.9235 0.3545 -0.1462
vn -0.6765 -0.7283 -0.1091
vn 0.4462 -0.8312 0.3316
vn -0.0114 0.9999 -0.0064
vn -0.6052 -0.5321 -0.5920
vn 0.6872 0.2637 0.6769
vn 0.0456 -0.9978 0.0468
vn 0.4931 0.6552 0.5723
vn 0.0547 0.7837 -0.6186
vn -0.7234 -0.2871 -0.6278
vn 0.5039 -0.2653 0.8220
vn 0.1745 0.8516 0.4943
vn 0.1195 -0.9098 0.3973
vn -0.0035 0.9861 0.1660
vn 0.0135 -0.0137 -0.9998
vn 0.0084 -0.9883 -0.1523
vn -0.1429 -0.2936 0.9452
vn 0.1450 0.6360 -0.7579
vn -0.0961 0.8224 0.5607
vn 0.1841 0.8867 -0.4240
vn -0.3401 0.7451 0.5736
vn -0.3814 -0.3976 0.8345
vn 0.3651 -0.2510 -0.8965
vn 0.3064 -0.8768 -0.3706
vn -0.0902 0.9877 0.1274
vn -0.5665 -0.2677 0.7793
vn -0.6334 0.4859 0.6023
vn -0.1135 -0.9889 0.0961
vn 0.4276 0.8334 -0.3502
vn 0.6428 -0.2739 -0.7154
vn -0.2552 -0.5840 0.7706
vn -0.4003 0.3602 0.8426
vn 0.6297 0.4743 -0.6152
vn -0.5245 0.8318 0.1818
vn -0.8050 -0.4052 0.4332
vn -0.2119 0.9731 0.0897
vn -0.8363 -0.4300 0.3400
vn 0.4523 -0.8767 -0.1637
vn 0.0676 -0.9964 -0.0510
vn 0.9057 0.3403 -0.2526
vn 0.9868 -0.1469 0.0672
vn -0.0504 0.9969 -0.0595
vn -0.9708 0.2367 -0.0378
vn -0.6130 -0.7641 -0.2006
vn -0.4174 -0.9086 0.0133
vn -0.7984 0.5329 -0.2803
vn 0.4664 0.8664 0.1782
vn 0.9602 -0.0358 0.2770
vn 0.4921 -0.8453 0.2080
vn 0.0960 -0.9934 0.0619
vn -0.8614 -0.4810 -0.1630
vn 0.9641 0.2568 -0.0668
vn -0.1840 0.9829 -0.0075
vn -0.9564 0.2895 -0.0387
vn 0.9485 0.2094 0.2378
vn -0.9916 0.1236 -0.0367
vn 0.2475 0.9685 0.0254
vn -0.9636 0.1740 0.2029
vn 0.8452 -0.5336 0.0295
vn 0.9301 0.3007 -0.2111
vn -0.9213 -0.3251 -0.2133
vn 0.1377 -0.9862 -0.0912
vn -0.5943 0.7925 -0.1364
vn 0.0673 -0.9971 -0.0347
vn 0.7783 0.6107 0.1455
vn -0.1698 0.9828 -0.0717
vn 0.4694 -0.8494 0.2412
vn -0.7786 -0.4638 -0.4227
vn 0.8540 0.3121 0.4162
vn -0.8757 -0.3184 -0.3630
vn -0.4563 0.8612 -0.2238
vn 0.1668 -0.9835 0.0692
vn 0.7662 0.4608 0.4478
vn 0.5612 -0.4576 0.6896
vn 0.3675 -0.8874 0.2781
vn 0.6824 0.2180 0.6977
usemtl SVGMat.3781
s 1
f 141//1 2//2 139//3
f 135//4 3//5 136//6
f 2//2 3//5 135//4
f 2//2 4//7 3//5
f 4//7 8//8 1//9
f 2//2 6//10 4//7
f 5//11 7//12 2//2
f 1//9 8//8 141//1
f 6//10 9//13 8//8
f 7//12 10//14 6//10
f 5//11 11//15 7//12
f 8//8 11//15 5//11
f 10//14 13//16 9//13
f 11//15 15//17 10//14
f 9//13 18//18 12//19
f 12//19 16//20 11//15
f 18//18 16//20 12//19
f 14//21 19//22 13//16
f 15//17 20//23 14//21
f 17//24 20//23 15//17
f 18//18 21//25 17//24
f 13//16 22//26 18//18
f 21//25 24//27 20//23
f 19//22 23//28 22//26
f 20//23 25//29 19//22
f 23//28 26//30 21//25
f 26//30 29//31 24//27
f 27//32 29//31 26//30
f 25//29 30//33 23//28
f 28//34 31//35 25//29
f 29//31 33//36 28//34
f 33//36 37//37 31//35
f 32//38 35//39 29//31
f 34//40 36//41 32//38
f 31//35 34//40 30//33
f 36//41 35//39 32//38
f 33//36 38//42 37//37
f 35//39 39//43 33//36
f 36//41 40//44 35//39
f 34//40 40//44 36//41
f 37//37 41//45 34//40
f 38//42 44//46 41//45
f 41//45 42//47 40//44
f 40//44 45//48 39//43
f 44//46 43//49 41//45
f 42//47 46//50 40//44
f 45//48 50//51 44//46
f 46//50 47//52 45//48
f 42//47 48//53 46//50
f 48//53 51//54 47//52
f 50//51 53//55 49//56
f 51//54 54//57 50//51
f 53//55 52//58 48//53
f 51//54 56//59 54//57
f 51//54 55//60 56//59
f 52//58 57//61 51//54
f 56//59 58//62 53//55
f 53//55 59//63 52//58
f 59//63 57//61 52//58
f 58//62 59//63 53//55
f 55//60 60//64 56//59
f 55//60 61//65 60//64
f 57//61 61//65 55//60
f 59//63 62//66 57//61
f 58//62 63//67 59//63
f 61//65 67//68 58//62
f 65//69 61//65 57//61
f 65//69 57//61 62//66
f 63//67 66//70 62//66
f 58//62 66//70 63//67
f 64//71 73//72 67//68
f 65//69 68//73 64//71
f 66//70 69//74 65//69
f 67//68 70//75 66//70
f 68//73 71//76 73//72
f 69//74 72//77 68//73
f 72//77 74//78 71//76
f 69//74 75//79 72//77
f 76//80 69//74 73//72
f 74//78 73//72 71//76
f 74//78 77//81 76//80
f 75//79 78//82 74//78
f 77//81 80//83 76//80
f 76//80 79//84 75//79
f 80//83 82//85 79//84
f 81//86 84//87 78//82
f 77//81 83//88 80//83
f 83//88 82//85 80//83
f 84//87 85//89 77//81
f 83//88 86//90 82//85
f 81//86 87//91 84//87
f 86//90 88//92 87//91
f 87//91 90//93 85//89
f 85//89 89//94 86//90
f 90//93 91//95 85//89
f 88//92 90//93 87//91
f 88//92 92//96 90//93
f 89//94 95//97 88//92
f 91//95 93//98 89//94
f 93//98 96//99 89//94
f 95//97 97//100 92//96
f 96//99 97//100 95//97
f 93//98 99//101 96//99
f 98//102 101//103 94//104
f 96//99 98//102 97//100
f 94//104 100//105 93//98
f 101//103 102//106 100//105
f 100//105 103//107 99//101
f 103//107 105//108 99//101
f 102//106 103//107 100//105
f 105//108 106//109 104//110
f 103//107 107//111 105//108
f 102//106 108//112 103//107
f 104//110 109//113 102//106
f 106//109 110//114 104//110
f 106//109 111//115 110//114
f 107//111 114//116 106//109
f 109//113 113//117 108//112
f 111//115 113//117 109//113
f 115//118 112//119 107//111
f 111//115 116//120 113//117
f 114//116 118//121 111//115
f 115//118 118//121 114//116
f 119//122 120//123 118//121
f 117//124 121//125 119//122
f 120//123 126//126 122//127
f 119//122 123//128 120//123
f 121//125 123//128 119//122
f 123//128 126//126 120//123
f 125//129 124//130 121//125
f 124//130 128//131 123//128
f 126//126 130//132 125//129
f 123//128 127//133 126//126
f 125//129 129//134 124//130
f 128//131 131//135 127//133
f 129//134 134//136 128//131
f 127//133 132//137 130//132
f 132//137 133//138 129//134
f 135//4 136//6 131//135
f 132//137 138//139 133//138
f 136//6 140//140 132//137
f 137//141 139//3 134//136
f 140//140 141//1 137//141
f 136//6 1//9 140//140
f 139//3 2//2 135//4
f 136//6 3//5 1//9
f 3//5 4//7 1//9
f 141//1 5//11 2//2
f 4//7 6//10 8//8
f 2//2 7//12 6//10
f 141//1 8//8 5//11
f 6//10 10//14 9//13
f 7//12 11//15 10//14
f 8//8 12//19 11//15
f 8//8 9//13 12//19
f 10//14 14//21 13//16
f 10//14 15//17 14//21
f 9//13 13//16 18//18
f 11//15 16//20 15//17
f 16//20 17//24 15//17
f 16//20 18//18 17//24
f 14//21 20//23 19//22
f 17//24 21//25 20//23
f 18//18 22//26 21//25
f 13//16 19//22 22//26
f 22//26 23//28 21//25
f 20//23 24//27 25//29
f 19//22 25//29 23//28
f 21//25 26//30 24//27
f 23//28 27//32 26//30
f 24//27 28//34 25//29
f 24//27 29//31 28//34
f 23//28 30//33 27//32
f 27//32 32//38 29//31
f 27//32 30//33 32//38
f 25//29 31//35 30//33
f 28//34 33//36 31//35
f 30//33 34//40 32//38
f 29//31 35//39 33//36
f 31//35 37//37 34//40
f 37//37 38//42 41//45
f 33//36 39//43 38//42
f 35//39 40//44 39//43
f 34//40 41//45 40//44
f 39//43 45//48 38//42
f 41//45 43//49 42//47
f 38//42 45//48 44//46
f 40//44 46//50 45//48
f 44//46 50//51 43//49
f 45//48 47//52 50//51
f 43//49 49//56 42//47
f 46//50 48//53 47//52
f 42//47 49//56 48//53
f 43//49 50//51 49//56
f 47//52 51//54 50//51
f 48//53 52//58 51//54
f 49//56 53//55 48//53
f 50//51 54//57 53//55
f 54//57 56//59 53//55
f 51//54 57//61 55//60
f 56//59 60//64 58//62
f 60//64 61//65 58//62
f 59//63 63//67 62//66
f 61//65 64//71 67//68
f 65//69 64//71 61//65
f 66//70 65//69 62//66
f 58//62 67//68 66//70
f 64//71 68//73 73//72
f 65//69 69//74 68//73
f 66//70 70//75 69//74
f 67//68 73//72 70//75
f 68//73 72//77 71//76
f 70//75 73//72 69//74
f 72//77 75//79 74//78
f 69//74 76//80 75//79
f 74//78 76//80 73//72
f 74//78 78//82 77//81
f 75//79 79//84 78//82
f 76//80 80//83 79//84
f 79//84 81//86 78//82
f 79//84 82//85 81//86
f 78//82 84//87 77//81
f 77//81 85//89 83//88
f 82//85 86//90 81//86
f 83//88 85//89 86//90
f 81//86 86//90 87//91
f 84//87 87//91 85//89
f 86//90 89//94 88//92
f 85//89 91//95 89//94
f 90//93 94//104 91//95
f 88//92 95//97 92//96
f 91//95 94//104 93//98
f 90//93 92//96 94//104
f 89//94 96//99 95//97
f 92//96 97//100 94//104
f 97//100 98//102 94//104
f 96//99 99//101 98//102
f 93//98 100//105 99//101
f 94//104 101//103 100//105
f 98//102 104//110 101//103
f 99//101 105//108 98//102
f 101//103 104//110 102//106
f 98//102 105//108 104//110
f 105//108 107//111 106//109
f 103//107 108//112 107//111
f 102//106 109//113 108//112
f 104//110 110//114 109//113
f 108//112 115//118 107//111
f 110//114 111//115 109//113
f 107//111 112//119 114//116
f 108//112 113//117 115//118
f 106//109 114//116 111//115
f 112//119 115//118 114//116
f 113//117 116//120 115//118
f 111//115 117//124 116//120
f 116//120 119//122 115//118
f 116//120 117//124 119//122
f 118//121 122//127 111//115
f 115//118 119//122 118//121
f 111//115 122//127 117//124
f 118//121 120//123 122//127
f 117//124 122//127 121//125
f 121//125 124//130 123//128
f 122//127 125//129 121//125
f 122//127 126//126 125//129
f 123//128 128//131 127//133
f 124//130 129//134 128//131
f 125//129 130//132 129//134
f 126//126 127//133 130//132
f 127//133 131//135 132//137
f 130//132 132//137 129//134
f 129//134 133//138 134//136
f 128//131 134//136 131//135
f 134//136 135//4 131//135
f 131//135 136//6 132//137
f 133//138 137//141 134//136
f 133//138 138//139 137//141
f 132//137 140//140 138//139
f 134//136 139//3 135//4
f 138//139 140//140 137//141
f 137//141 141//1 139//3
f 140//140 1//9 141//1
