# Blender v2.79 (sub 0) OBJ File: 'world_countrycodes4.blend'
# www.blender.org
mtllib ME.mtl
o ME.002_CUCurve.1713
v 1.065485 0.000000 0.386078
v 1.064534 0.000000 0.387364
v 1.063879 0.000000 0.388591
v 1.063329 0.000000 0.390206
v 1.063262 0.000000 0.391270
v 1.063064 0.000000 0.392095
v 1.065361 0.000000 0.393888
v 1.066877 0.000000 0.394899
v 1.067333 0.000000 0.395173
v 1.067386 0.000000 0.395205
v 1.067609 0.000000 0.394297
v 1.068092 0.000000 0.393167
v 1.068565 0.000000 0.392380
v 1.069082 0.000000 0.391750
v 1.069605 0.000000 0.391330
v 1.069961 0.000000 0.391196
v 1.066923 0.000000 0.387631
v 1.063064 0.050000 0.392095
v 1.068092 0.050000 0.393167
v 1.067609 0.050000 0.394297
v 1.063329 0.050000 0.390206
v 1.063262 0.050000 0.391270
v 1.065361 0.050000 0.393888
v 1.063879 0.050000 0.388591
v 1.069961 0.050000 0.391196
v 1.064534 0.050000 0.387364
v 1.066923 0.050000 0.387631
v 1.069605 0.050000 0.391330
v 1.069082 0.050000 0.391750
v 1.065485 0.050000 0.386078
v 1.068565 0.050000 0.392380
v 1.066877 0.050000 0.394899
v 1.067386 0.050000 0.395205
v 1.067333 0.050000 0.395173
vn 0.0000 -1.0000 0.0000
vn 0.0000 1.0000 0.0000
vn -0.9467 0.0000 -0.3221
vn 0.7337 0.0000 -0.6795
vn -0.9726 0.0000 -0.2325
vn -0.5547 0.0000 0.8320
vn -0.5154 0.0000 0.8569
vn -0.5136 0.0000 0.8580
vn -0.8819 0.0000 -0.4714
vn 0.7734 0.0000 0.6339
vn 0.3534 0.0000 0.9355
vn 0.7611 0.0000 -0.6487
vn 0.9193 0.0000 0.3935
vn -0.6154 0.0000 0.7882
vn 0.6255 0.0000 0.7803
vn 0.8573 0.0000 0.5148
vn -0.9980 0.0000 -0.0635
vn 0.9712 0.0000 0.2381
vn -0.8044 0.0000 -0.5941
usemtl SVGMat.3781
s off
f 2//1 1//1 17//1
f 3//1 2//1 17//1
f 3//1 17//1 16//1
f 4//1 3//1 16//1
f 5//1 4//1 16//1
f 5//1 16//1 15//1
f 5//1 15//1 14//1
f 6//1 5//1 14//1
f 6//1 14//1 13//1
f 6//1 13//1 12//1
f 7//1 6//1 12//1
f 7//1 12//1 11//1
f 8//1 7//1 11//1
f 8//1 11//1 10//1
f 26//2 27//2 30//2
f 24//2 27//2 26//2
f 24//2 25//2 27//2
f 21//2 25//2 24//2
f 22//2 25//2 21//2
f 22//2 28//2 25//2
f 22//2 29//2 28//2
f 18//2 29//2 22//2
f 18//2 31//2 29//2
f 18//2 19//2 31//2
f 23//2 19//2 18//2
f 23//2 20//2 19//2
f 32//2 20//2 23//2
f 32//2 33//2 20//2
f 3//3 4//3 21//3 24//3
f 17//4 1//4 30//4 27//4
f 5//5 6//5 18//5 22//5
f 7//6 8//6 32//6 23//6
f 8//7 10//7 33//7 32//7
f 9//8 10//8 33//8 34//8
f 2//9 3//9 24//9 26//9
f 13//10 14//10 29//10 31//10
f 15//11 16//11 25//11 28//11
f 16//12 17//12 27//12 25//12
f 11//13 12//13 19//13 20//13
f 6//14 7//14 23//14 18//14
f 14//15 15//15 28//15 29//15
f 12//16 13//16 31//16 19//16
f 4//17 5//17 22//17 21//17
f 10//18 11//18 20//18 33//18
f 1//19 2//19 26//19 30//19
