# Blender v2.79 (sub 0) OBJ File: 'world_countrycodes_outlines2.blend'
# www.blender.org
mtllib ME_outline.mtl
o ME.001_CUCurve.001
v 1.070076 0.000814 0.393361
v 1.068792 0.001957 0.390831
v 1.067275 -0.000040 0.390387
v 1.069381 -0.002137 0.391221
v 1.066240 -0.000783 0.392243
v 1.066670 0.001838 0.393529
v 1.067896 -0.001851 0.396841
v 1.068653 0.000696 0.398311
v 1.060775 0.000019 0.393026
v 1.062245 0.001919 0.392671
v 1.062154 -0.001942 0.392132
v 1.065201 -0.000784 0.391254
v 1.065508 0.000718 0.389440
v 1.062232 0.001406 0.388389
v 1.061709 -0.000606 0.388232
v 1.065715 -0.001920 0.387018
v 1.065446 -0.000823 0.383124
v 1.065708 0.001950 0.384866
v 1.073593 -0.000000 0.392213
vn -0.8866 -0.0730 0.4567
vn 0.0613 0.9962 -0.0618
vn 0.0204 0.9997 0.0122
vn 0.1717 -0.9844 0.0367
vn -0.0877 -0.7120 -0.6966
vn 0.6945 0.4703 0.5445
vn 0.1773 -0.8001 0.5730
vn 0.3637 0.2710 0.8912
vn -0.4584 0.8687 0.1876
vn -0.9323 0.0146 0.3614
vn -0.4067 -0.9035 0.1351
vn 0.7234 -0.6785 -0.1276
vn 0.4097 0.7494 0.5200
vn -0.8645 -0.3352 -0.3745
vn 0.0289 0.8113 -0.5839
vn -0.0306 -0.9964 -0.0785
vn -0.7242 0.6344 -0.2701
vn -0.0531 -0.2858 -0.9568
vn 0.9580 -0.0099 0.2865
usemtl SVGMat.3781
s 1
f 3//1 6//2 2//3
f 4//4 5//5 3//1
f 1//6 7//7 4//4
f 6//2 8//8 1//6
f 6//2 10//9 8//8
f 9//10 11//11 7//7
f 12//12 13//13 6//2
f 11//11 12//12 5//5
f 10//9 15//14 9//10
f 13//13 18//15 10//9
f 11//11 16//16 12//12
f 15//14 16//16 11//11
f 14//17 17//18 15//14
f 4//4 3//1 13//13
f 17//18 4//4 16//16
f 18//15 19//19 17//18
f 2//3 19//19 18//15
f 2//3 1//6 19//19
f 3//1 5//5 6//2
f 2//3 6//2 1//6
f 4//4 7//7 5//5
f 1//6 8//8 7//7
f 8//8 9//10 7//7
f 8//8 10//9 9//10
f 7//7 11//11 5//5
f 5//5 12//12 6//2
f 6//2 13//13 10//9
f 9//10 15//14 11//11
f 10//9 14//17 15//14
f 10//9 18//15 14//17
f 12//12 16//16 13//13
f 14//17 18//15 17//18
f 15//14 17//18 16//16
f 16//16 4//4 13//13
f 13//13 2//3 18//15
f 13//13 3//1 2//3
f 17//18 19//19 4//4
f 19//19 1//6 4//4
