# Blender v2.79 (sub 0) OBJ File: 'world_countrycodes4.blend'
# www.blender.org
mtllib MG.mtl
o MG.002_CUCurve.1740
v 1.235186 0.000000 0.719365
v 1.233849 0.000000 0.721860
v 1.232786 0.000000 0.724582
v 1.232832 0.000000 0.726817
v 1.231611 0.000000 0.728112
v 1.230101 0.000000 0.728677
v 1.228152 0.000000 0.728766
v 1.226823 0.000000 0.729569
v 1.226521 0.000000 0.730618
v 1.226883 0.000000 0.732262
v 1.226225 0.000000 0.733408
v 1.226722 0.000000 0.734828
v 1.225592 0.000000 0.736609
v 1.222280 0.000000 0.737758
v 1.220475 0.000000 0.738396
v 1.215722 0.000000 0.741715
v 1.212430 0.000000 0.741876
v 1.208878 0.000000 0.743032
v 1.206786 0.000000 0.743132
v 1.206063 0.000000 0.743708
v 1.205543 0.000000 0.749063
v 1.204079 0.000000 0.752519
v 1.203998 0.000000 0.755792
v 1.204856 0.000000 0.759132
v 1.206551 0.000000 0.763565
v 1.206979 0.000000 0.766790
v 1.205874 0.000000 0.770112
v 1.203268 0.000000 0.773606
v 1.201574 0.000000 0.776864
v 1.200953 0.000000 0.780742
v 1.201338 0.000000 0.784218
v 1.202668 0.000000 0.787781
v 1.204052 0.000000 0.793623
v 1.205404 0.000000 0.796537
v 1.207446 0.000000 0.798139
v 1.210442 0.000000 0.799526
v 1.214679 0.000000 0.800016
v 1.216913 0.000000 0.798520
v 1.219934 0.000000 0.798344
v 1.222036 0.000000 0.796793
v 1.224858 0.000000 0.789519
v 1.229198 0.000000 0.775402
v 1.235885 0.000000 0.753881
v 1.236063 0.000000 0.749927
v 1.237440 0.000000 0.746264
v 1.236756 0.000000 0.743545
v 1.236950 0.000000 0.741359
v 1.237937 0.000000 0.740477
v 1.239404 0.000000 0.742389
v 1.240800 0.000000 0.742732
v 1.241943 0.000000 0.740883
v 1.241867 0.000000 0.738199
v 1.240047 0.000000 0.732093
v 1.239583 0.000000 0.728287
v 1.238351 0.000000 0.725249
v 1.235976 0.000000 0.721207
v 1.204079 0.050000 0.752519
v 1.235885 0.050000 0.753881
v 1.210442 0.050000 0.799526
v 1.214679 0.050000 0.800016
v 1.216913 0.050000 0.798520
v 1.226883 0.050000 0.732262
v 1.226225 0.050000 0.733408
v 1.212430 0.050000 0.741876
v 1.236756 0.050000 0.743545
v 1.240047 0.050000 0.732093
v 1.203998 0.050000 0.755792
v 1.236950 0.050000 0.741359
v 1.237937 0.050000 0.740477
v 1.222280 0.050000 0.737758
v 1.241867 0.050000 0.738199
v 1.222036 0.050000 0.796793
v 1.224858 0.050000 0.789519
v 1.232786 0.050000 0.724582
v 1.238351 0.050000 0.725249
v 1.204052 0.050000 0.793623
v 1.215722 0.050000 0.741715
v 1.220475 0.050000 0.738396
v 1.235976 0.050000 0.721207
v 1.235186 0.050000 0.719365
v 1.201574 0.050000 0.776864
v 1.229198 0.050000 0.775402
v 1.232832 0.050000 0.726817
v 1.239583 0.050000 0.728287
v 1.200953 0.050000 0.780742
v 1.226722 0.050000 0.734828
v 1.225592 0.050000 0.736609
v 1.237440 0.050000 0.746264
v 1.241943 0.050000 0.740883
v 1.226823 0.050000 0.729569
v 1.233849 0.050000 0.721860
v 1.239404 0.050000 0.742389
v 1.240800 0.050000 0.742732
v 1.205404 0.050000 0.796537
v 1.207446 0.050000 0.798139
v 1.208878 0.050000 0.743032
v 1.206786 0.050000 0.743132
v 1.219934 0.050000 0.798344
v 1.205543 0.050000 0.749063
v 1.204856 0.050000 0.759132
v 1.230101 0.050000 0.728677
v 1.206551 0.050000 0.763565
v 1.206979 0.050000 0.766790
v 1.231611 0.050000 0.728112
v 1.226521 0.050000 0.730618
v 1.236063 0.050000 0.749927
v 1.201338 0.050000 0.784218
v 1.202668 0.050000 0.787781
v 1.228152 0.050000 0.728766
v 1.206063 0.050000 0.743708
v 1.205874 0.050000 0.770112
v 1.203268 0.050000 0.773606
vn 0.0000 -1.0000 0.0000
vn 0.0000 1.0000 -0.0000
vn -0.9953 0.0000 -0.0967
vn -0.9686 0.0000 0.2487
vn 0.6662 0.0000 0.7458
vn -0.9939 0.0000 0.1103
vn -0.9997 0.0000 -0.0248
vn -0.9913 0.0000 0.1315
vn 0.9323 0.0000 0.3617
vn -0.9340 0.0000 0.3572
vn -0.8016 0.0000 -0.5978
vn 0.9990 0.0000 0.0451
vn -0.3505 0.0000 -0.9366
vn -0.0487 0.0000 -0.9988
vn 0.9961 0.0000 0.0884
vn 0.9267 0.0000 -0.3758
vn -0.9766 0.0000 0.2149
vn -0.7274 0.0000 -0.6862
vn 0.8506 0.0000 0.5259
vn 0.9192 0.0000 -0.3937
vn 0.8622 0.0000 -0.5066
vn 0.5565 0.0000 0.8309
vn 0.9361 0.0000 0.3518
vn 0.9996 0.0000 -0.0282
vn -0.3333 0.0000 -0.9428
vn 0.9926 0.0000 -0.1211
vn -0.9731 0.0000 0.2305
vn -0.3278 0.0000 -0.9447
vn -0.8445 0.0000 -0.5356
vn -0.6233 0.0000 -0.7820
vn -0.9368 0.0000 0.3498
vn -0.9998 0.0000 0.0206
vn -0.9874 0.0000 -0.1581
vn -0.0453 0.0000 -0.9990
vn 0.9698 0.0000 -0.2439
vn -0.8872 0.0000 -0.4614
vn -0.9439 0.0000 0.3301
vn -0.5176 0.0000 -0.8556
vn 0.9550 0.0000 0.2967
vn -0.9316 0.0000 -0.3635
vn -0.9489 0.0000 -0.3156
vn 0.9558 0.0000 0.2939
vn -0.2384 0.0000 0.9712
vn -0.9610 0.0000 -0.2765
vn -0.6171 0.0000 0.7869
vn -0.7934 0.0000 0.6086
vn -0.4201 0.0000 0.9075
vn -0.0478 0.0000 -0.9989
vn -0.1150 0.0000 0.9934
vn 0.5938 0.0000 0.8046
vn -0.9072 0.0000 0.4208
vn -0.5725 0.0000 -0.8199
vn -0.8813 0.0000 -0.4725
vn 0.9583 0.0000 -0.2857
vn -0.8674 0.0000 -0.4977
vn -0.3095 0.0000 -0.9509
vn 0.0581 0.0000 0.9983
vn -0.9209 0.0000 -0.3899
usemtl SVGMat.3781
s off
f 2//1 1//1 56//1
f 2//1 56//1 55//1
f 3//1 2//1 55//1
f 4//1 3//1 55//1
f 4//1 55//1 54//1
f 5//1 4//1 54//1
f 6//1 5//1 54//1
f 7//1 6//1 54//1
f 8//1 7//1 54//1
f 8//1 54//1 53//1
f 9//1 8//1 53//1
f 10//1 9//1 53//1
f 11//1 10//1 53//1
f 12//1 11//1 53//1
f 12//1 53//1 52//1
f 13//1 12//1 52//1
f 14//1 13//1 52//1
f 15//1 14//1 52//1
f 15//1 52//1 51//1
f 16//1 15//1 48//1
f 48//1 15//1 51//1
f 16//1 48//1 47//1
f 49//1 48//1 51//1
f 49//1 51//1 50//1
f 17//1 16//1 47//1
f 17//1 47//1 46//1
f 18//1 17//1 46//1
f 19//1 18//1 46//1
f 20//1 19//1 46//1
f 20//1 46//1 45//1
f 21//1 20//1 45//1
f 21//1 45//1 44//1
f 22//1 21//1 44//1
f 22//1 44//1 43//1
f 23//1 22//1 43//1
f 24//1 23//1 43//1
f 25//1 24//1 43//1
f 25//1 43//1 42//1
f 26//1 25//1 42//1
f 27//1 26//1 42//1
f 28//1 27//1 42//1
f 29//1 28//1 42//1
f 30//1 29//1 42//1
f 30//1 42//1 41//1
f 31//1 30//1 41//1
f 32//1 31//1 41//1
f 33//1 32//1 41//1
f 33//1 41//1 40//1
f 34//1 33//1 40//1
f 35//1 34//1 40//1
f 35//1 40//1 39//1
f 36//1 35//1 38//1
f 38//1 35//1 39//1
f 36//1 38//1 37//1
f 91//2 79//2 80//2
f 91//2 75//2 79//2
f 74//2 75//2 91//2
f 83//2 75//2 74//2
f 83//2 84//2 75//2
f 104//2 84//2 83//2
f 101//2 84//2 104//2
f 109//2 84//2 101//2
f 90//2 84//2 109//2
f 90//2 66//2 84//2
f 105//2 66//2 90//2
f 62//2 66//2 105//2
f 63//2 66//2 62//2
f 86//2 66//2 63//2
f 86//2 71//2 66//2
f 87//2 71//2 86//2
f 70//2 71//2 87//2
f 78//2 71//2 70//2
f 78//2 89//2 71//2
f 77//2 69//2 78//2
f 69//2 89//2 78//2
f 77//2 68//2 69//2
f 92//2 89//2 69//2
f 92//2 93//2 89//2
f 64//2 68//2 77//2
f 64//2 65//2 68//2
f 96//2 65//2 64//2
f 97//2 65//2 96//2
f 110//2 65//2 97//2
f 110//2 88//2 65//2
f 99//2 88//2 110//2
f 99//2 106//2 88//2
f 57//2 106//2 99//2
f 57//2 58//2 106//2
f 67//2 58//2 57//2
f 100//2 58//2 67//2
f 102//2 58//2 100//2
f 102//2 82//2 58//2
f 103//2 82//2 102//2
f 111//2 82//2 103//2
f 112//2 82//2 111//2
f 81//2 82//2 112//2
f 85//2 82//2 81//2
f 85//2 73//2 82//2
f 107//2 73//2 85//2
f 108//2 73//2 107//2
f 76//2 73//2 108//2
f 76//2 72//2 73//2
f 94//2 72//2 76//2
f 95//2 72//2 94//2
f 95//2 98//2 72//2
f 59//2 61//2 95//2
f 61//2 98//2 95//2
f 59//2 60//2 61//2
f 20//3 21//3 99//3 110//3
f 23//4 24//4 100//4 67//4
f 47//5 48//5 69//5 68//5
f 30//6 31//6 107//6 85//6
f 22//7 23//7 67//7 57//7
f 25//8 26//8 103//8 102//8
f 40//9 41//9 73//9 72//9
f 24//10 25//10 102//10 100//10
f 27//11 28//11 112//11 111//11
f 43//12 44//12 106//12 58//12
f 5//13 6//13 101//13 104//13
f 16//14 17//14 64//14 77//14
f 46//15 47//15 68//15 65//15
f 54//16 55//16 75//16 84//16
f 9//17 10//17 62//17 105//17
f 4//18 5//18 104//18 83//18
f 50//19 51//19 89//19 93//19
f 56//20 1//20 80//20 79//20
f 55//21 56//21 79//21 75//21
f 37//22 38//22 61//22 60//22
f 44//23 45//23 88//23 106//23
f 51//24 52//24 71//24 89//24
f 14//25 15//25 78//25 70//25
f 53//26 54//26 84//26 66//26
f 32//27 33//27 76//27 108//27
f 13//28 14//28 70//28 87//28
f 12//29 13//29 87//29 86//29
f 19//30 20//30 110//30 97//30
f 31//31 32//31 108//31 107//31
f 3//32 4//32 83//32 74//32
f 29//33 30//33 85//33 81//33
f 6//34 7//34 109//34 101//34
f 45//35 46//35 65//35 88//35
f 28//36 29//36 81//36 112//36
f 11//37 12//37 86//37 63//37
f 7//38 8//38 90//38 109//38
f 42//39 43//39 58//39 82//39
f 2//40 3//40 74//40 91//40
f 26//41 27//41 111//41 103//41
f 41//42 42//42 82//42 73//42
f 49//43 50//43 93//43 92//43
f 8//44 9//44 105//44 90//44
f 34//45 35//45 95//45 94//45
f 48//46 49//46 92//46 69//46
f 35//47 36//47 59//47 95//47
f 18//48 19//48 97//48 96//48
f 36//49 37//49 60//49 59//49
f 39//50 40//50 72//50 98//50
f 33//51 34//51 94//51 76//51
f 15//52 16//52 77//52 78//52
f 1//53 2//53 91//53 80//53
f 52//54 53//54 66//54 71//54
f 10//55 11//55 63//55 62//55
f 17//56 18//56 96//56 64//56
f 38//57 39//57 98//57 61//57
f 21//58 22//58 57//58 99//58
