# Blender v2.79 (sub 0) OBJ File: 'world_countrycodes_outlines2.blend'
# www.blender.org
mtllib MG_outline.mtl
o MG.001_CUCurve.028
v 1.237413 0.000808 0.727956
v 1.237895 -0.001391 0.727978
v 1.239995 -0.001893 0.726528
v 1.243072 -0.001922 0.739772
v 1.243810 0.001469 0.740651
v 1.240211 -0.000763 0.740529
v 1.240807 0.000152 0.745067
v 1.241040 0.001997 0.743195
v 1.241254 -0.001862 0.743646
v 1.237493 0.001953 0.741664
v 1.238239 -0.001042 0.742828
v 1.237694 -0.002006 0.739528
v 1.238403 0.000795 0.738536
v 1.234904 0.000780 0.740390
v 1.235345 -0.001490 0.741168
v 1.235396 -0.001079 0.747360
v 1.239055 0.000977 0.747501
v 1.236693 0.001976 0.747289
v 1.238060 -0.001995 0.746347
v 1.234221 0.000770 0.751204
v 1.238052 -0.000946 0.751982
v 1.222993 -0.001987 0.796998
v 1.223223 -0.000378 0.799378
v 1.223031 0.001963 0.797147
v 1.220459 -0.000764 0.796026
v 1.220609 0.001447 0.796374
v 1.217130 0.001986 0.799657
v 1.216074 -0.000593 0.796695
v 1.213715 0.000790 0.798184
v 1.214404 -0.001944 0.799331
v 1.214147 0.000758 0.802167
v 1.215706 -0.001381 0.801035
v 1.204947 0.001802 0.798441
v 1.206981 0.000740 0.795676
v 1.206108 -0.001950 0.796465
v 1.203847 -0.000924 0.798113
v 1.199037 -0.000791 0.782878
v 1.199751 0.001939 0.780814
v 1.201995 0.001293 0.779808
v 1.202872 -0.000826 0.782195
v 1.200182 -0.001982 0.777959
v 1.200193 0.000629 0.774717
v 1.203713 -0.000768 0.776566
v 1.205217 -0.000756 0.766915
v 1.206622 0.002070 0.768413
v 1.208485 -0.001781 0.767967
v 1.209090 0.000769 0.766006
v 1.201564 -0.000069 0.754732
v 1.205638 -0.000741 0.754600
v 1.202841 -0.001895 0.754137
v 1.202739 0.001795 0.753218
v 1.205166 0.001375 0.754570
v 1.206784 0.002011 0.744089
v 1.207362 -0.001949 0.744219
v 1.208210 0.000623 0.745095
v 1.205148 0.000960 0.741691
v 1.204756 -0.001048 0.742126
v 1.215072 0.001651 0.740052
v 1.216016 0.000674 0.743494
v 1.216047 -0.001392 0.743001
v 1.226143 -0.000729 0.738565
v 1.217706 -0.001987 0.740150
v 1.219908 -0.000138 0.736054
v 1.222274 0.001915 0.738637
v 1.224625 0.000807 0.734969
v 1.227435 0.001943 0.735138
v 1.226049 -0.001984 0.735094
v 1.228649 -0.000703 0.733858
v 1.225604 0.001932 0.731026
v 1.224621 -0.000841 0.732395
v 1.228548 0.000929 0.730599
v 1.225895 -0.001913 0.728755
v 1.224862 0.000678 0.728475
v 1.230706 0.000857 0.726476
v 1.232493 0.002017 0.728777
v 1.231738 -0.001993 0.727372
v 1.230476 -0.000611 0.730757
v 1.234618 -0.000738 0.727702
v 1.235878 0.000698 0.721607
v 1.234856 -0.001880 0.720820
v 1.231000 -0.000755 0.723336
v 1.235116 0.001777 0.717657
v 1.233386 -0.000703 0.718158
v 1.234847 0.002001 0.720433
v 1.236200 -0.000756 0.717380
v 1.234078 0.000016 0.721545
v 1.241157 0.000117 0.726715
v 1.239998 0.001925 0.726949
vn 0.9410 0.0486 -0.3349
vn 0.5608 -0.8249 0.0696
vn 0.4499 -0.8785 -0.1603
vn -0.8147 0.4865 0.3154
vn 0.8437 0.5162 0.1472
vn 0.3374 0.9355 -0.1046
vn -0.6546 -0.7234 0.2194
vn -0.0885 -0.8717 -0.4820
vn 0.3066 -0.8049 0.5080
vn 0.1144 0.0593 0.9916
vn 0.6046 -0.6715 0.4285
vn -0.0638 0.9948 -0.0796
vn -0.0477 -0.7843 -0.6185
vn 0.1632 0.3514 -0.9219
vn 0.1611 0.9004 0.4040
vn -0.8054 0.3620 -0.4693
vn -0.6960 -0.6797 -0.2313
vn -0.8691 -0.4761 -0.1341
vn 0.9143 0.4007 0.0591
vn 0.4677 -0.8838 -0.0040
vn -0.8688 0.4099 -0.2778
vn -0.2746 0.9614 -0.0159
vn 0.4438 0.8542 0.2711
vn 0.8880 -0.3890 0.2452
vn 0.3175 -0.9323 0.1729
vn 0.6179 -0.1171 0.7775
vn -0.5166 -0.5514 -0.6550
vn -0.3932 0.7915 -0.4678
vn 0.1072 0.9181 0.3815
vn -0.1011 -0.9815 -0.1623
vn 0.2110 -0.6254 0.7512
vn -0.3392 -0.2775 -0.8989
vn -0.0380 0.3668 -0.9295
vn 0.0375 0.2493 0.9677
vn -0.7050 -0.4123 0.5770
vn -0.4194 0.7601 0.4963
vn 0.6467 0.5235 -0.5546
vn 0.1509 -0.9828 -0.1065
vn -0.9280 -0.3319 0.1692
vn 0.8976 -0.3912 -0.2028
vn 0.6425 0.7589 0.1059
vn -0.5666 0.8239 -0.0063
vn -0.4916 -0.8635 -0.1131
vn -0.8750 0.2716 -0.4006
vn 0.8304 -0.4102 0.3769
vn -0.8719 -0.4877 -0.0425
vn 0.1737 0.9694 0.1732
vn 0.6985 -0.6645 0.2655
vn 0.9274 0.3732 0.0248
vn -0.9892 -0.0271 -0.1438
vn -0.6393 0.7597 -0.1185
vn 0.8615 -0.5074 -0.0162
vn -0.4764 -0.8728 -0.1060
vn 0.6173 0.7866 0.0135
vn -0.0044 1.0000 0.0017
vn 0.1487 -0.9785 0.1423
vn 0.6457 0.2838 0.7088
vn -0.5588 0.4552 -0.6931
vn -0.6503 -0.5035 -0.5687
vn -0.1586 -0.9592 -0.2338
vn 0.2699 0.4621 0.8447
vn 0.2369 -0.6575 0.7152
vn -0.2062 0.7679 -0.6064
vn -0.4715 0.0224 -0.8816
vn 0.6257 -0.2503 0.7388
vn 0.1359 0.9752 0.1745
vn -0.6520 0.5723 -0.4973
vn 0.0115 -0.9994 0.0335
vn 0.4919 0.8261 0.2749
vn 0.8883 -0.2644 0.3756
vn -0.4544 0.8879 -0.0717
vn -0.9469 -0.3215 -0.0027
vn 0.4643 0.6579 0.5929
vn 0.5498 -0.3475 0.7596
vn -0.4145 -0.7886 -0.4541
vn -0.7467 0.3112 -0.5878
vn -0.6548 0.5476 -0.5210
vn -0.0778 -0.9966 0.0245
vn 0.3632 0.8300 0.4232
vn 0.8232 -0.2965 0.4841
vn 0.9260 0.1278 -0.3552
vn -0.0647 -0.9850 -0.1601
vn -0.9058 -0.2824 -0.3159
vn -0.0209 0.6944 -0.7193
vn -0.6742 -0.3410 -0.6551
vn -0.1417 0.9866 -0.0811
vn 0.4157 -0.3798 -0.8264
vn -0.9555 -0.0016 -0.2949
usemtl SVGMat.3781
s 1
f 87//1 4//2 3//3
f 1//4 5//5 88//6
f 88//6 5//5 87//1
f 2//7 6//8 1//4
f 4//2 6//8 2//7
f 5//5 9//9 4//2
f 7//10 11//11 9//9
f 10//12 11//11 7//10
f 9//9 12//13 6//8
f 11//11 12//13 9//9
f 6//8 13//14 8//15
f 12//13 13//14 6//8
f 12//13 14//16 13//14
f 15//17 16//18 14//16
f 12//13 16//18 15//17
f 10//12 17//19 11//11
f 11//11 19//20 12//13
f 16//18 20//21 18//22
f 20//21 24//23 18//22
f 21//24 22//25 19//20
f 17//19 23//26 21//24
f 22//25 25//27 16//18
f 23//26 22//25 21//24
f 25//27 26//28 20//21
f 26//28 27//29 24//23
f 23//26 30//30 22//25
f 27//29 32//31 23//26
f 30//30 28//32 25//27
f 28//32 29//33 26//28
f 27//29 31//34 32//31
f 31//34 36//35 32//31
f 27//29 33//36 31//34
f 29//33 33//36 27//29
f 30//30 34//37 29//33
f 32//31 35//38 30//30
f 33//36 37//39 36//35
f 35//38 40//40 34//37
f 39//41 38//42 33//36
f 37//39 41//43 35//38
f 38//42 42//44 37//39
f 41//43 43//45 40//40
f 42//44 44//46 41//43
f 38//42 45//47 42//44
f 39//41 45//47 38//42
f 43//45 45//47 39//41
f 41//43 46//48 43//45
f 46//48 47//49 45//47
f 45//47 48//50 44//46
f 47//49 51//51 45//47
f 46//48 49//52 47//49
f 44//46 50//53 46//48
f 48//50 50//53 44//46
f 49//52 52//54 47//49
f 50//53 49//52 46//48
f 52//54 53//55 51//51
f 50//53 54//56 49//52
f 49//52 55//57 52//54
f 54//56 55//57 49//52
f 53//55 56//58 51//51
f 51//51 57//59 50//53
f 56//58 57//59 51//51
f 57//59 62//60 54//56
f 56//58 62//60 57//59
f 55//57 59//61 53//55
f 54//56 59//61 55//57
f 62//60 60//62 54//56
f 58//63 63//64 62//60
f 60//62 61//65 59//61
f 64//66 65//67 63//64
f 65//67 67//68 63//64
f 61//65 66//69 64//66
f 67//68 68//70 61//65
f 66//69 69//71 65//67
f 69//71 70//72 65//67
f 68//70 71//73 66//69
f 67//68 77//74 68//70
f 70//72 72//75 67//68
f 69//71 73//76 70//72
f 69//71 74//77 73//76
f 74//77 76//78 72//75
f 71//73 75//79 69//71
f 76//78 78//80 77//74
f 78//80 79//81 75//79
f 76//78 80//82 78//80
f 74//77 81//83 76//78
f 80//82 79//81 78//80
f 81//83 80//82 76//78
f 75//79 82//84 74//77
f 82//84 83//85 81//83
f 79//81 84//86 75//79
f 82//84 85//87 83//85
f 80//82 86//88 79//81
f 82//84 87//1 85//87
f 84//86 88//6 82//84
f 86//88 1//4 84//86
f 80//82 1//4 86//88
f 85//87 3//3 80//82
f 3//3 4//2 2//7
f 87//1 5//5 4//2
f 1//4 8//15 5//5
f 1//4 6//8 8//15
f 5//5 7//10 9//9
f 5//5 8//15 7//10
f 4//2 9//9 6//8
f 8//15 10//12 7//10
f 8//15 13//14 10//12
f 13//14 14//16 10//12
f 12//13 15//17 14//16
f 14//16 18//22 10//12
f 14//16 16//18 18//22
f 11//11 17//19 19//20
f 10//12 18//22 17//19
f 12//13 19//20 16//18
f 17//19 21//24 19//20
f 18//22 24//23 17//19
f 19//20 22//25 16//18
f 17//19 24//23 23//26
f 16//18 25//27 20//21
f 20//21 26//28 24//23
f 24//23 27//29 23//26
f 22//25 30//30 25//27
f 25//27 28//32 26//28
f 23//26 32//31 30//30
f 26//28 29//33 27//29
f 28//32 30//30 29//33
f 31//34 33//36 36//35
f 29//33 34//37 33//36
f 30//30 35//38 34//37
f 32//31 36//35 35//38
f 33//36 38//42 37//39
f 34//37 39//41 33//36
f 34//37 40//40 39//41
f 36//35 37//39 35//38
f 35//38 41//43 40//40
f 37//39 42//44 41//43
f 40//40 43//45 39//41
f 42//44 45//47 44//46
f 43//45 46//48 45//47
f 41//43 44//46 46//48
f 45//47 51//51 48//50
f 47//49 52//54 51//51
f 48//50 51//51 50//53
f 52//54 55//57 53//55
f 50//53 57//59 54//56
f 53//55 58//63 56//58
f 56//58 58//63 62//60
f 53//55 59//61 58//63
f 54//56 60//62 59//61
f 59//61 64//66 58//63
f 59//61 61//65 64//66
f 60//62 62//60 61//65
f 58//63 64//66 63//64
f 63//64 67//68 62//60
f 64//66 66//69 65//67
f 62//60 67//68 61//65
f 61//65 68//70 66//69
f 65//67 70//72 67//68
f 66//69 71//73 69//71
f 68//70 77//74 71//73
f 67//68 72//75 77//74
f 70//72 73//76 72//75
f 73//76 74//77 72//75
f 69//71 75//79 74//77
f 72//75 76//78 77//74
f 71//73 77//74 75//79
f 77//74 78//80 75//79
f 74//77 82//84 81//83
f 75//79 84//86 82//84
f 81//83 83//85 80//82
f 79//81 86//88 84//86
f 83//85 85//87 80//82
f 85//87 87//1 3//3
f 82//84 88//6 87//1
f 84//86 1//4 88//6
f 80//82 2//7 1//4
f 80//82 3//3 2//7
