# Blender v2.79 (sub 0) OBJ File: 'world_countrycodes_outlines2.blend'
# www.blender.org
mtllib MK_outline.mtl
o MK.001_CUCurve.1633
v 1.075414 0.001940 0.395459
v 1.076303 -0.000677 0.396761
v 1.074662 -0.001977 0.393443
v 1.073611 0.000779 0.392002
v 1.085361 -0.002133 0.393330
v 1.083432 0.000669 0.394936
v 1.086862 -0.000679 0.390417
v 1.085984 0.001821 0.391754
v 1.088482 -0.001961 0.399245
v 1.091455 -0.000059 0.398318
v 1.086933 -0.000021 0.398908
v 1.090810 0.001477 0.398634
v 1.088464 0.001931 0.399199
v 1.091027 -0.001505 0.399132
v 1.090034 0.000876 0.401323
v 1.082661 0.001926 0.401506
v 1.084133 -0.001718 0.403062
v 1.084022 0.000940 0.403909
v 1.082633 -0.000779 0.399965
v 1.080061 -0.000971 0.401984
v 1.082224 -0.000944 0.405094
v 1.076959 0.000805 0.400675
v 1.077306 -0.001864 0.404249
v 1.076774 0.001926 0.404399
v 1.072515 0.000748 0.401360
v 1.075191 -0.001953 0.400298
v 1.072632 -0.001464 0.400206
vn 0.7509 0.3512 -0.5593
vn -0.0187 0.9973 0.0703
vn -0.2796 0.6895 0.6681
vn 0.2123 -0.9731 -0.0897
vn 0.7941 -0.4911 0.3580
vn -0.6519 0.2812 -0.7042
vn -0.8370 0.3778 0.3959
vn -0.7728 -0.6109 0.1720
vn -0.3695 -0.8567 -0.3598
vn 0.4224 0.7555 -0.5007
vn 0.7574 -0.2143 -0.6167
vn 0.2435 -0.9672 -0.0726
vn -0.0448 -0.9980 0.0431
vn -0.9413 0.0315 -0.3361
vn -0.1413 0.4595 0.8769
vn 0.9759 -0.0292 -0.2162
vn 0.7330 -0.6648 0.1440
vn 0.6851 0.7282 -0.0173
vn 0.5953 0.3320 0.7317
vn -0.0420 0.9943 0.0974
vn 0.2389 -0.8619 0.4473
vn -0.1038 0.9232 -0.3698
vn 0.3698 0.5130 0.7747
vn 0.0008 -0.7088 -0.7054
vn -0.4491 -0.2745 -0.8502
vn 0.2365 -0.3133 0.9197
vn -0.2097 -0.7469 0.6310
usemtl SVGMat.3781
s 1
f 22//1 1//2 24//3
f 26//4 2//5 22//1
f 1//2 4//6 25//7
f 27//8 3//9 26//4
f 3//9 2//5 26//4
f 4//6 3//9 27//8
f 1//2 8//10 4//6
f 8//10 7//11 4//6
f 3//9 5//12 2//5
f 9//13 11//14 6//15
f 10//16 14//17 5//12
f 12//18 15//19 10//16
f 13//20 15//19 12//18
f 15//19 17//21 14//17
f 11//14 16//22 13//20
f 16//22 18//23 15//19
f 9//13 20//24 19//25
f 18//23 21//26 17//21
f 21//26 23//27 17//21
f 18//23 24//3 21//26
f 25//7 27//8 23//27
f 24//3 1//2 25//7
f 22//1 2//5 1//2
f 25//7 4//6 27//8
f 2//5 6//15 1//2
f 4//6 7//11 3//9
f 2//5 5//12 6//15
f 1//2 6//15 8//10
f 3//9 7//11 5//12
f 7//11 8//10 5//12
f 5//12 9//13 6//15
f 8//10 10//16 5//12
f 6//15 13//20 8//10
f 6//15 11//14 13//20
f 8//10 12//18 10//16
f 8//10 13//20 12//18
f 5//12 14//17 9//13
f 10//16 15//19 14//17
f 13//20 16//22 15//19
f 14//17 17//21 9//13
f 15//19 18//23 17//21
f 9//13 19//25 11//14
f 11//14 19//25 16//22
f 19//25 20//24 16//22
f 9//13 17//21 20//24
f 20//24 22//1 16//22
f 16//22 24//3 18//23
f 16//22 22//1 24//3
f 17//21 23//27 20//24
f 21//26 24//3 23//27
f 24//3 25//7 23//27
f 23//27 26//4 20//24
f 20//24 26//4 22//1
f 23//27 27//8 26//4
