# Blender v2.79 (sub 0) OBJ File: 'world_countrycodes_export2.blend'
# www.blender.org
mtllib ML.mtl
o ML.002_CUCurve.1855
v 0.979127 0.000000 0.539597
v 0.978395 0.000000 0.537748
v 0.977082 0.000000 0.536106
v 0.973763 0.000000 0.534656
v 0.970202 0.000000 0.533829
v 0.969000 0.000000 0.531831
v 0.966695 0.000000 0.528762
v 0.961910 0.000000 0.525337
v 0.931666 0.000000 0.505110
v 0.922067 0.000000 0.505110
v 0.927401 0.000000 0.555223
v 0.929184 0.000000 0.557006
v 0.929155 0.000000 0.560019
v 0.928518 0.000000 0.561881
v 0.920866 0.000000 0.562180
v 0.906286 0.000000 0.562110
v 0.904855 0.000000 0.562724
v 0.902448 0.000000 0.563155
v 0.899788 0.000000 0.562577
v 0.898988 0.000000 0.562722
v 0.898241 0.000000 0.564250
v 0.897251 0.000000 0.564411
v 0.894751 0.000000 0.562523
v 0.893392 0.000000 0.562407
v 0.892652 0.000000 0.563559
v 0.892485 0.000000 0.565266
v 0.891874 0.000000 0.566035
v 0.890667 0.000000 0.566405
v 0.889533 0.000000 0.566482
v 0.890035 0.000000 0.567819
v 0.891045 0.000000 0.569324
v 0.891080 0.000000 0.570714
v 0.891740 0.000000 0.572648
v 0.893698 0.000000 0.574711
v 0.894973 0.000000 0.576581
v 0.894940 0.000000 0.581324
v 0.895653 0.000000 0.582720
v 0.896174 0.000000 0.582967
v 0.897266 0.000000 0.582139
v 0.899113 0.000000 0.582738
v 0.899614 0.000000 0.582420
v 0.900156 0.000000 0.581532
v 0.901189 0.000000 0.581470
v 0.903391 0.000000 0.582427
v 0.904202 0.000000 0.582258
v 0.906701 0.000000 0.580100
v 0.907569 0.000000 0.579563
v 0.908364 0.000000 0.580336
v 0.909484 0.000000 0.582238
v 0.910000 0.000000 0.584406
v 0.912050 0.000000 0.586129
v 0.912043 0.000000 0.586395
v 0.911455 0.000000 0.586728
v 0.911045 0.000000 0.587518
v 0.911296 0.000000 0.588336
v 0.912219 0.000000 0.588551
v 0.912627 0.000000 0.589096
v 0.913036 0.000000 0.591493
v 0.914224 0.000000 0.592679
v 0.915301 0.000000 0.592805
v 0.916230 0.000000 0.591473
v 0.917092 0.000000 0.591361
v 0.918185 0.000000 0.592166
v 0.919100 0.000000 0.593254
v 0.920562 0.000000 0.592947
v 0.921621 0.000000 0.591983
v 0.922138 0.000000 0.590848
v 0.923377 0.000000 0.590121
v 0.924322 0.000000 0.590192
v 0.924715 0.000000 0.590601
v 0.924707 0.000000 0.592071
v 0.925380 0.000000 0.592449
v 0.927007 0.000000 0.591527
v 0.927802 0.000000 0.591313
v 0.928361 0.000000 0.591369
v 0.928940 0.000000 0.589518
v 0.930096 0.000000 0.586540
v 0.929330 0.000000 0.583858
v 0.929572 0.000000 0.583268
v 0.931876 0.000000 0.583066
v 0.933239 0.000000 0.582539
v 0.933967 0.000000 0.581661
v 0.934962 0.000000 0.579296
v 0.935974 0.000000 0.577771
v 0.936300 0.000000 0.575386
v 0.936953 0.000000 0.573726
v 0.937587 0.000000 0.573460
v 0.939699 0.000000 0.574601
v 0.940593 0.000000 0.574796
v 0.941173 0.000000 0.574497
v 0.941535 0.000000 0.572938
v 0.942061 0.000000 0.572482
v 0.943494 0.000000 0.571876
v 0.944158 0.000000 0.570235
v 0.944813 0.000000 0.569589
v 0.945762 0.000000 0.569516
v 0.947225 0.000000 0.569839
v 0.948181 0.000000 0.569703
v 0.948758 0.000000 0.569127
v 0.948885 0.000000 0.568352
v 0.949272 0.000000 0.567995
v 0.952791 0.000000 0.567159
v 0.955884 0.000000 0.564967
v 0.957152 0.000000 0.564381
v 0.957841 0.000000 0.564616
v 0.959386 0.000000 0.565053
v 0.961805 0.000000 0.565314
v 0.965023 0.000000 0.565082
v 0.966879 0.000000 0.564037
v 0.968530 0.000000 0.563495
v 0.974139 0.000000 0.563243
v 0.979599 0.000000 0.562535
v 0.980903 0.000000 0.561609
v 0.982373 0.000000 0.559765
v 0.983546 0.000000 0.556441
v 0.983937 0.000000 0.555950
v 0.984430 0.000000 0.548416
v 0.984303 0.000000 0.540859
v 0.979427 0.000000 0.541846
v 0.929572 0.050000 0.583268
v 0.931876 0.050000 0.583066
v 0.913036 0.050000 0.591493
v 0.914224 0.050000 0.592679
v 0.900156 0.050000 0.581532
v 0.906701 0.050000 0.580100
v 0.931666 0.050000 0.505110
v 0.927401 0.050000 0.555223
v 0.902448 0.050000 0.563155
v 0.974139 0.050000 0.563243
v 0.917092 0.050000 0.591361
v 0.921621 0.050000 0.591983
v 0.891874 0.050000 0.566035
v 0.890667 0.050000 0.566405
v 0.923377 0.050000 0.590121
v 0.928940 0.050000 0.589518
v 0.892485 0.050000 0.565266
v 0.957152 0.050000 0.564381
v 0.920866 0.050000 0.562180
v 0.979599 0.050000 0.562535
v 0.894973 0.050000 0.576581
v 0.935974 0.050000 0.577771
v 0.890035 0.050000 0.567819
v 0.952791 0.050000 0.567159
v 0.970202 0.050000 0.533829
v 0.969000 0.050000 0.531831
v 0.966695 0.050000 0.528762
v 0.924715 0.050000 0.590601
v 0.927802 0.050000 0.591313
v 0.897251 0.050000 0.564411
v 0.894751 0.050000 0.562523
v 0.920562 0.050000 0.592947
v 0.937587 0.050000 0.573460
v 0.941535 0.050000 0.572938
v 0.922138 0.050000 0.590848
v 0.911455 0.050000 0.586728
v 0.930096 0.050000 0.586540
v 0.924322 0.050000 0.590192
v 0.907569 0.050000 0.579563
v 0.934962 0.050000 0.579296
v 0.929155 0.050000 0.560019
v 0.928518 0.050000 0.561881
v 0.979127 0.050000 0.539597
v 0.945762 0.050000 0.569516
v 0.948758 0.050000 0.569127
v 0.904855 0.050000 0.562724
v 0.936953 0.050000 0.573726
v 0.916230 0.050000 0.591473
v 0.894940 0.050000 0.581324
v 0.977082 0.050000 0.536106
v 0.973763 0.050000 0.534656
v 0.906286 0.050000 0.562110
v 0.941173 0.050000 0.574497
v 0.891740 0.050000 0.572648
v 0.929184 0.050000 0.557006
v 0.983546 0.050000 0.556441
v 0.924707 0.050000 0.592071
v 0.984430 0.050000 0.548416
v 0.898241 0.050000 0.564250
v 0.968530 0.050000 0.563495
v 0.940593 0.050000 0.574796
v 0.901189 0.050000 0.581470
v 0.903391 0.050000 0.582427
v 0.984303 0.050000 0.540859
v 0.979427 0.050000 0.541846
v 0.893698 0.050000 0.574711
v 0.918185 0.050000 0.592166
v 0.912050 0.050000 0.586129
v 0.891045 0.050000 0.569324
v 0.911045 0.050000 0.587518
v 0.983937 0.050000 0.555950
v 0.933239 0.050000 0.582539
v 0.912043 0.050000 0.586395
v 0.897266 0.050000 0.582139
v 0.891080 0.050000 0.570714
v 0.910000 0.050000 0.584406
v 0.961910 0.050000 0.525337
v 0.925380 0.050000 0.592449
v 0.927007 0.050000 0.591527
v 0.955884 0.050000 0.564967
v 0.961805 0.050000 0.565314
v 0.965023 0.050000 0.565082
v 0.889533 0.050000 0.566482
v 0.929330 0.050000 0.583858
v 0.947225 0.050000 0.569839
v 0.933967 0.050000 0.581661
v 0.908364 0.050000 0.580336
v 0.912627 0.050000 0.589096
v 0.922067 0.050000 0.505110
v 0.911296 0.050000 0.588336
v 0.912219 0.050000 0.588551
v 0.893392 0.050000 0.562407
v 0.892652 0.050000 0.563559
v 0.982373 0.050000 0.559765
v 0.943494 0.050000 0.571876
v 0.944158 0.050000 0.570235
v 0.899113 0.050000 0.582738
v 0.899614 0.050000 0.582420
v 0.919100 0.050000 0.593254
v 0.966879 0.050000 0.564037
v 0.942061 0.050000 0.572482
v 0.936300 0.050000 0.575386
v 0.904202 0.050000 0.582258
v 0.915301 0.050000 0.592805
v 0.896174 0.050000 0.582967
v 0.948885 0.050000 0.568352
v 0.949272 0.050000 0.567995
v 0.944813 0.050000 0.569589
v 0.980903 0.050000 0.561609
v 0.939699 0.050000 0.574601
v 0.948181 0.050000 0.569703
v 0.957841 0.050000 0.564616
v 0.978395 0.050000 0.537748
v 0.909484 0.050000 0.582238
v 0.899788 0.050000 0.562577
v 0.898988 0.050000 0.562722
v 0.895653 0.050000 0.582720
v 0.959386 0.050000 0.565053
v 0.928361 0.050000 0.591369
vn 0.0000 -1.0000 0.0000
vn 0.0000 1.0000 0.0000
vn 0.0000 1.0000 -0.0002
vn -0.7072 0.0000 0.7070
vn 0.4576 0.0000 0.8892
vn 0.8332 0.0000 0.5530
vn -0.3986 0.0000 0.9171
vn -0.3224 0.0000 0.9466
vn -0.1982 0.0000 -0.9802
vn -0.4899 0.0000 0.8718
vn 0.9616 0.0000 -0.2746
vn -0.8262 0.0000 0.5634
vn 0.9979 0.0000 0.0653
vn -0.2133 0.0000 0.9770
vn 0.1287 0.0000 0.9917
vn -0.8873 0.0000 -0.4611
vn 0.3896 0.0000 0.9210
vn 0.2313 0.0000 0.9729
vn 0.9908 0.0000 0.1353
vn 0.5821 0.0000 -0.8131
vn 0.6550 0.0000 0.7556
vn 0.3118 0.0000 0.9501
vn 0.7824 0.0000 0.6228
vn 0.7820 0.0000 0.6233
vn 0.3604 0.0000 0.9328
vn 0.9099 0.0000 0.4147
vn 0.0873 0.0000 0.9962
vn -0.6968 0.0000 0.7173
vn -0.9729 0.0000 0.2314
vn -0.1781 0.0000 -0.9840
vn -0.7064 0.0000 0.7078
vn 0.5063 0.0000 0.8623
vn 0.0000 0.0000 -1.0000
vn -1.0000 0.0000 -0.0069
vn 0.6536 0.0000 0.7569
vn -0.9464 0.0000 0.3229
vn -0.8904 0.0000 0.4551
vn -0.6434 0.0000 0.7656
vn -0.1076 0.0000 0.9942
vn 0.9869 0.0000 0.1614
vn -0.2930 0.0000 -0.9561
vn 0.2043 0.0000 0.9789
vn 0.4930 0.0000 0.8701
vn 0.0722 0.0000 0.9974
vn -0.8304 0.0000 0.5572
vn -0.9997 0.0000 -0.0260
vn -0.0679 0.0000 -0.9977
vn 0.8568 0.0000 -0.5156
vn 0.9218 0.0000 0.3878
vn 0.7023 0.0000 0.7119
vn -0.1763 0.0000 -0.9843
vn -0.3944 0.0000 -0.9190
vn 0.5782 0.0000 0.8159
vn 0.8535 0.0000 0.5212
vn -0.2717 0.0000 0.9624
vn -0.5929 0.0000 0.8052
vn 0.7996 0.0000 -0.6006
vn -0.2150 0.0000 0.9766
vn 0.7064 0.0000 0.7079
vn -0.7253 0.0000 0.6884
vn 0.7808 0.0000 -0.6247
vn 0.6026 0.0000 -0.7980
vn 0.6041 0.0000 0.7969
vn 0.7699 0.0000 0.6382
vn -0.8985 0.0000 -0.4389
vn 0.6730 0.0000 0.7396
vn -1.0000 0.0000 -0.0096
vn 0.9304 0.0000 0.3665
vn 0.4906 0.0000 0.8714
vn -0.9362 0.0000 0.3514
vn 0.9741 0.0000 0.2261
vn -0.9997 0.0000 0.0249
vn 0.5559 0.0000 -0.8312
vn -0.3083 0.0000 0.9513
vn 0.9999 0.0000 -0.0168
vn -0.9944 0.0000 0.1058
vn 0.2264 0.0000 -0.9740
vn -0.7201 0.0000 0.6939
vn -0.9952 0.0000 -0.0976
vn -0.2271 0.0000 0.9739
vn -0.1165 0.0000 0.9932
vn 0.6767 0.0000 0.7363
vn -0.9462 0.0000 -0.3237
vn 0.5257 0.0000 0.8507
vn 0.0766 0.0000 0.9971
vn -0.7654 0.0000 0.6436
vn 0.2595 0.0000 0.9657
vn -0.8002 0.0000 0.5997
vn -0.9559 0.0000 0.2938
vn -0.8416 0.0000 -0.5402
vn -0.0755 0.0000 0.9971
vn 0.1286 0.0000 0.9917
vn 0.9430 0.0000 0.3328
vn -0.9858 0.0000 0.1680
vn 0.5789 0.0000 0.8154
vn 0.1410 0.0000 0.9900
vn 0.9256 0.0000 0.3786
vn -0.0987 0.0000 0.9951
vn -0.4927 0.0000 -0.8702
vn 0.3882 0.0000 0.9216
vn -0.4753 0.0000 0.8798
vn 0.9270 0.0000 0.3751
vn -0.4281 0.0000 0.9037
vn 0.0848 0.0000 -0.9964
vn 0.4003 0.0000 -0.9164
vn 0.9544 0.0000 0.2986
vn 0.0048 0.0000 -1.0000
vn -0.7827 0.0000 -0.6223
vn 0.9912 0.0000 -0.1321
vn 0.9322 0.0000 0.3620
vn 0.5356 0.0000 0.8445
vn -0.1597 0.0000 -0.9872
vn 0.4192 0.0000 0.9079
vn 0.0600 0.0000 0.9982
vn -0.0390 0.0000 -0.9992
vn 0.9299 0.0000 -0.3679
vn 0.0449 0.0000 0.9990
vn 0.8202 0.0000 0.5721
vn -1.0000 0.0000 -0.0055
vn -0.8616 0.0000 0.5075
vn 0.2058 0.0000 0.9786
vn 0.2123 0.0000 -0.9772
usemtl SVGMat.3781
s off
f 11//1 10//1 9//1
f 11//1 9//1 8//1
f 11//1 8//1 7//1
f 11//1 7//1 6//1
f 11//1 6//1 5//1
f 11//1 5//1 4//1
f 11//1 4//1 3//1
f 11//1 3//1 2//1
f 11//1 2//1 1//1
f 11//1 1//1 119//1
f 11//1 119//1 118//1
f 11//1 118//1 117//1
f 11//1 117//1 116//1
f 12//1 11//1 116//1
f 12//1 116//1 115//1
f 13//1 12//1 115//1
f 13//1 115//1 114//1
f 13//1 114//1 113//1
f 14//1 13//1 113//1
f 14//1 113//1 112//1
f 15//1 14//1 112//1
f 17//1 16//1 15//1
f 17//1 15//1 112//1
f 17//1 112//1 111//1
f 20//1 19//1 18//1
f 25//1 24//1 23//1
f 18//1 17//1 111//1
f 21//1 20//1 18//1
f 21//1 18//1 111//1
f 25//1 23//1 22//1
f 21//1 111//1 110//1
f 21//1 110//1 109//1
f 26//1 25//1 22//1
f 21//1 109//1 104//1
f 22//1 21//1 104//1
f 105//1 104//1 109//1
f 26//1 22//1 104//1
f 26//1 104//1 103//1
f 105//1 109//1 108//1
f 106//1 105//1 108//1
f 107//1 106//1 108//1
f 27//1 26//1 103//1
f 27//1 103//1 102//1
f 28//1 27//1 102//1
f 29//1 28//1 102//1
f 30//1 29//1 102//1
f 30//1 102//1 101//1
f 30//1 101//1 100//1
f 30//1 100//1 99//1
f 31//1 30//1 99//1
f 31//1 99//1 96//1
f 96//1 99//1 98//1
f 31//1 96//1 95//1
f 32//1 31//1 95//1
f 97//1 96//1 98//1
f 32//1 95//1 94//1
f 32//1 94//1 93//1
f 33//1 32//1 93//1
f 33//1 93//1 92//1
f 33//1 92//1 91//1
f 33//1 91//1 87//1
f 87//1 91//1 90//1
f 33//1 87//1 86//1
f 88//1 87//1 90//1
f 34//1 33//1 86//1
f 34//1 86//1 85//1
f 88//1 90//1 89//1
f 35//1 34//1 85//1
f 35//1 85//1 84//1
f 35//1 84//1 83//1
f 35//1 83//1 47//1
f 48//1 47//1 83//1
f 35//1 47//1 46//1
f 36//1 35//1 46//1
f 48//1 83//1 82//1
f 49//1 48//1 82//1
f 36//1 46//1 42//1
f 42//1 46//1 43//1
f 43//1 46//1 45//1
f 44//1 43//1 45//1
f 49//1 82//1 81//1
f 39//1 36//1 42//1
f 39//1 42//1 41//1
f 37//1 36//1 39//1
f 37//1 39//1 38//1
f 40//1 39//1 41//1
f 49//1 81//1 80//1
f 49//1 80//1 79//1
f 50//1 49//1 79//1
f 50//1 79//1 78//1
f 50//1 78//1 77//1
f 51//1 50//1 77//1
f 52//1 51//1 77//1
f 53//1 52//1 77//1
f 54//1 53//1 77//1
f 54//1 77//1 76//1
f 55//1 54//1 76//1
f 56//1 55//1 76//1
f 57//1 56//1 76//1
f 57//1 76//1 68//1
f 58//1 57//1 68//1
f 69//1 68//1 76//1
f 70//1 69//1 76//1
f 58//1 68//1 67//1
f 70//1 76//1 74//1
f 74//1 76//1 75//1
f 71//1 70//1 74//1
f 62//1 58//1 67//1
f 58//1 62//1 61//1
f 62//1 67//1 66//1
f 71//1 74//1 73//1
f 63//1 62//1 66//1
f 71//1 73//1 72//1
f 58//1 61//1 60//1
f 59//1 58//1 60//1
f 63//1 66//1 65//1
f 64//1 63//1 65//1
f 127//2 126//2 208//2
f 127//2 196//2 126//2
f 127//2 146//2 196//2
f 127//2 145//2 146//2
f 127//2 144//2 145//2
f 127//2 170//2 144//2
f 127//2 169//2 170//2
f 127//2 232//2 169//2
f 127//2 162//2 232//2
f 127//2 184//2 162//2
f 127//2 183//2 184//2
f 127//2 177//2 183//2
f 127//2 190//2 177//2
f 174//2 190//2 127//2
f 174//2 175//2 190//2
f 160//2 175//2 174//2
f 160//2 213//2 175//2
f 160//2 228//2 213//2
f 161//2 228//2 160//2
f 161//2 139//2 228//2
f 138//2 139//2 161//2
f 165//2 138//2 171//2
f 165//2 139//2 138//2
f 165//2 129//2 139//2
f 235//2 128//2 234//2
f 212//2 150//2 211//2
f 128//2 129//2 165//2
f 178//2 128//2 235//2
f 178//2 129//2 128//2
f 212//2 149//2 150//2
f 178//2 179//2 129//2
f 178//2 219//2 179//2
f 136//2 149//2 212//2
f 178//2 137//2 219//2
f 149//2 137//2 178//2
f 231//2 219//2 137//2
f 136//2 137//2 149//2
f 136//2 199//2 137//2
f 231//2 201//2 219//2
f 237//2 201//2 231//2
f 200//2 201//2 237//2
f 132//2 199//2 136//2
f 132//2 143//2 199//2
f 133//2 143//2 132//2
f 202//2 143//2 133//2
f 142//2 143//2 202//2
f 142//2 226//2 143//2
f 142//2 225//2 226//2
f 142//2 164//2 225//2
f 188//2 164//2 142//2
f 188//2 163//2 164//2
f 163//2 230//2 164//2
f 188//2 227//2 163//2
f 194//2 227//2 188//2
f 204//2 230//2 163//2
f 194//2 215//2 227//2
f 194//2 214//2 215//2
f 173//2 214//2 194//2
f 173//2 220//2 214//2
f 173//2 153//2 220//2
f 173//2 152//2 153//2
f 152//2 172//2 153//2
f 173//2 166//2 152//2
f 229//2 172//2 152//2
f 185//2 166//2 173//2
f 185//2 221//2 166//2
f 229//2 180//2 172//2
f 140//2 221//2 185//2
f 140//2 141//2 221//2
f 140//2 159//2 141//2
f 140//2 158//2 159//2
f 206//2 159//2 158//2
f 140//2 125//2 158//2
f 168//2 125//2 140//2
f 206//2 205//2 159//2
f 233//2 205//2 206//2
f 168//2 124//2 125//2
f 124//2 181//2 125//2
f 181//2 222//2 125//2
f 182//2 222//2 181//2
f 233//2 191//2 205//2
f 193//2 124//2 168//2
f 193//2 217//2 124//2
f 236//2 193//2 168//2
f 236//2 224//2 193//2
f 216//2 217//2 193//2
f 233//2 121//2 191//2
f 233//2 120//2 121//2
f 195//2 120//2 233//2
f 195//2 203//2 120//2
f 195//2 156//2 203//2
f 187//2 156//2 195//2
f 192//2 156//2 187//2
f 155//2 156//2 192//2
f 189//2 156//2 155//2
f 189//2 135//2 156//2
f 209//2 135//2 189//2
f 210//2 135//2 209//2
f 207//2 135//2 210//2
f 207//2 134//2 135//2
f 122//2 134//2 207//2
f 157//2 135//2 134//2
f 147//2 135//2 157//2
f 122//2 154//2 134//2
f 147//2 148//2 135//2
f 148//2 238//2 135//2
f 176//2 148//2 147//2
f 130//2 154//2 122//2
f 122//2 167//2 130//2
f 130//2 131//2 154//2
f 176//3 198//3 148//3
f 186//2 131//2 130//2
f 176//2 197//2 198//2
f 122//2 223//2 167//2
f 123//2 223//2 122//2
f 186//2 151//2 131//2
f 218//2 151//2 186//2
f 11//4 12//4 174//4 127//4
f 89//5 90//5 172//5 180//5
f 83//6 84//6 141//6 159//6
f 43//7 44//7 182//7 181//7
f 104//8 105//8 231//8 137//8
f 118//9 119//9 184//9 183//9
f 71//10 72//10 197//10 176//10
f 77//11 78//11 203//11 156//11
f 34//12 35//12 140//12 185//12
f 116//13 117//13 177//13 190//13
f 88//14 89//14 180//14 229//14
f 61//15 62//15 130//15 167//15
f 53//16 54//16 189//16 155//16
f 92//17 93//17 214//17 220//17
f 101//18 102//18 143//18 226//18
f 84//19 85//19 221//19 141//19
f 7//20 8//20 196//20 146//20
f 91//21 92//21 220//21 153//21
f 109//22 110//22 179//22 219//22
f 115//23 116//23 190//23 175//23
f 113//24 114//24 213//24 228//24
f 80//25 81//25 191//25 121//25
f 66//26 67//26 154//26 131//26
f 79//27 80//27 121//27 120//27
f 47//28 48//28 206//28 158//28
f 49//29 50//29 195//29 233//29
f 19//30 20//30 235//30 234//30
f 58//31 59//31 123//31 122//31
f 67//32 68//32 134//32 154//32
f 9//33 10//33 208//33 126//33
f 35//34 36//34 168//34 140//34
f 45//35 46//35 125//35 222//35
f 32//36 33//36 173//36 194//36
f 36//37 37//37 236//37 168//37
f 50//38 51//38 187//38 195//38
f 106//39 107//39 200//39 237//39
f 99//40 100//40 225//40 164//40
f 27//41 28//41 133//41 132//41
f 44//42 45//42 222//42 182//42
f 72//43 73//43 198//43 197//43
f 107//44 108//44 201//44 200//44
f 30//45 31//45 188//45 142//45
f 51//46 52//46 192//46 187//46
f 28//47 29//47 202//47 133//47
f 5//48 6//48 145//48 144//48
f 82//49 83//49 159//49 205//49
f 94//50 95//50 227//50 215//50
f 17//51 18//51 128//51 165//51
f 16//52 17//52 165//52 171//52
f 102//53 103//53 199//53 143//53
f 41//54 42//54 124//54 217//54
f 105//55 106//55 237//55 231//55
f 62//56 63//56 186//56 130//56
f 6//57 7//57 146//57 145//57
f 96//58 97//58 204//58 163//58
f 98//59 99//59 164//59 230//59
f 33//60 34//60 185//60 173//60
f 2//61 3//61 169//61 232//61
f 22//62 23//62 150//62 149//62
f 38//63 39//63 193//63 224//63
f 81//64 82//64 205//64 191//64
f 20//65 21//65 178//65 235//65
f 65//66 66//66 131//66 151//66
f 12//67 13//67 160//67 174//67
f 85//68 86//68 166//68 221//68
f 108//69 109//69 219//69 201//69
f 29//70 30//70 142//70 202//70
f 90//71 91//71 153//71 172//71
f 31//72 32//72 194//72 188//72
f 8//73 9//73 126//73 196//73
f 39//74 40//74 216//74 193//74
f 117//75 118//75 183//75 177//75
f 10//76 11//76 127//76 208//76
f 4//77 5//77 144//77 170//77
f 69//78 70//78 147//78 157//78
f 25//79 26//79 136//79 212//79
f 55//80 56//80 210//80 209//80
f 59//81 60//81 223//81 123//81
f 100//82 101//82 226//82 225//82
f 13//83 14//83 161//83 160//83
f 46//84 47//84 158//84 125//84
f 95//85 96//85 163//85 227//85
f 63//86 64//86 218//86 186//86
f 73//87 74//87 148//87 198//87
f 56//88 57//88 207//88 210//88
f 54//89 55//89 209//89 189//89
f 24//90 25//90 212//90 211//90
f 68//91 69//91 157//91 134//91
f 111//92 112//92 139//92 129//92
f 114//93 115//93 175//93 213//93
f 57//94 58//94 122//94 207//94
f 112//95 113//95 228//95 139//95
f 97//96 98//96 230//96 204//96
f 78//97 79//97 120//97 203//97
f 74//98 75//98 238//98 148//98
f 52//99 53//99 155//99 192//99
f 86//100 87//100 152//100 166//100
f 87//101 88//101 229//101 152//101
f 93//102 94//102 215//102 214//102
f 37//103 38//103 224//103 236//103
f 23//104 24//104 211//104 150//104
f 3//105 4//105 170//105 169//105
f 75//106 76//106 135//106 238//106
f 15//107 16//107 171//107 138//107
f 26//108 27//108 132//108 136//108
f 119//109 1//109 162//109 184//109
f 76//110 77//110 156//110 135//110
f 40//111 41//111 217//111 216//111
f 21//112 22//112 149//112 178//112
f 103//113 104//113 137//113 199//113
f 42//114 43//114 181//114 124//114
f 14//115 15//115 138//115 161//115
f 1//116 2//116 232//116 162//116
f 110//117 111//117 129//117 179//117
f 60//118 61//118 167//118 223//118
f 70//119 71//119 176//119 147//119
f 48//120 49//120 233//120 206//120
f 64//121 65//121 151//121 218//121
f 18//122 19//122 234//122 128//122
