# Blender v2.79 (sub 0) OBJ File: 'world_countrycodes_export2.blend'
# www.blender.org
mtllib MM.mtl
o MM.002_CUCurve.1828
v 1.516602 0.000000 0.580060
v 1.515132 0.000000 0.578011
v 1.515159 0.000000 0.575438
v 1.514600 0.000000 0.573159
v 1.513536 0.000000 0.571139
v 1.511849 0.000000 0.569306
v 1.510571 0.000000 0.567208
v 1.510317 0.000000 0.565021
v 1.511269 0.000000 0.563845
v 1.511592 0.000000 0.562656
v 1.511548 0.000000 0.560309
v 1.512066 0.000000 0.560238
v 1.512619 0.000000 0.559412
v 1.512574 0.000000 0.558112
v 1.511536 0.000000 0.557247
v 1.511320 0.000000 0.556232
v 1.511307 0.000000 0.554136
v 1.509100 0.000000 0.552393
v 1.507236 0.000000 0.549917
v 1.506574 0.000000 0.548488
v 1.507839 0.000000 0.539046
v 1.509751 0.000000 0.537952
v 1.512898 0.000000 0.537868
v 1.514604 0.000000 0.537177
v 1.515560 0.000000 0.535969
v 1.517018 0.000000 0.535222
v 1.519928 0.000000 0.534173
v 1.520653 0.000000 0.533220
v 1.522855 0.000000 0.532025
v 1.523177 0.000000 0.530784
v 1.524044 0.000000 0.529056
v 1.525920 0.000000 0.526552
v 1.525922 0.000000 0.526554
v 1.525922 0.000000 0.526554
v 1.525922 0.000000 0.526554
v 1.525922 0.000000 0.526554
v 1.525922 0.000000 0.526554
v 1.525922 0.000000 0.526554
v 1.525922 0.000000 0.526554
v 1.525922 0.000000 0.526554
v 1.525922 0.000000 0.526554
v 1.525922 0.000000 0.526554
v 1.525922 0.000000 0.526554
v 1.525922 0.000000 0.526554
v 1.525539 0.000000 0.526244
v 1.522775 0.000000 0.527328
v 1.521495 0.000000 0.527431
v 1.520566 0.000000 0.527117
v 1.519859 0.000000 0.526148
v 1.519863 0.000000 0.524604
v 1.519010 0.000000 0.523858
v 1.516495 0.000000 0.523690
v 1.516068 0.000000 0.523389
v 1.516013 0.000000 0.522180
v 1.516882 0.000000 0.519351
v 1.516587 0.000000 0.518247
v 1.515570 0.000000 0.517574
v 1.514115 0.000000 0.517313
v 1.513398 0.000000 0.516631
v 1.512747 0.000000 0.515213
v 1.512591 0.000000 0.513348
v 1.512883 0.000000 0.512375
v 1.511959 0.000000 0.511769
v 1.510186 0.000000 0.511374
v 1.508354 0.000000 0.511494
v 1.507113 0.000000 0.511944
v 1.506690 0.000000 0.511708
v 1.506793 0.000000 0.509593
v 1.506551 0.000000 0.508329
v 1.507922 0.000000 0.505129
v 1.511972 0.000000 0.500216
v 1.512638 0.000000 0.498809
v 1.512923 0.000000 0.496801
v 1.512628 0.000000 0.491592
v 1.512108 0.000000 0.490366
v 1.511234 0.000000 0.489918
v 1.510004 0.000000 0.489814
v 1.509431 0.000000 0.489111
v 1.509118 0.000000 0.486629
v 1.508711 0.000000 0.485667
v 1.507570 0.000000 0.484855
v 1.506092 0.000000 0.484734
v 1.504417 0.000000 0.485669
v 1.504416 0.000000 0.485640
v 1.504416 0.000000 0.485640
v 1.504416 0.000000 0.485640
v 1.504416 0.000000 0.485640
v 1.504416 0.000000 0.485640
v 1.504416 0.000000 0.485640
v 1.504416 0.000000 0.485640
v 1.504416 0.000000 0.485640
v 1.504416 0.000000 0.485640
v 1.504416 0.000000 0.485640
v 1.504416 0.000000 0.485640
v 1.504416 0.000000 0.485640
v 1.503958 0.000000 0.487193
v 1.503354 0.000000 0.488135
v 1.502714 0.000000 0.488608
v 1.502442 0.000000 0.489434
v 1.502808 0.000000 0.490911
v 1.503833 0.000000 0.492735
v 1.503702 0.000000 0.493206
v 1.502875 0.000000 0.493331
v 1.501407 0.000000 0.492622
v 1.500792 0.000000 0.491787
v 1.499209 0.000000 0.492113
v 1.495873 0.000000 0.494531
v 1.493826 0.000000 0.495974
v 1.492675 0.000000 0.497442
v 1.492380 0.000000 0.500073
v 1.490925 0.000000 0.504230
v 1.491047 0.000000 0.506267
v 1.490651 0.000000 0.507995
v 1.489027 0.000000 0.511822
v 1.488945 0.000000 0.512811
v 1.487951 0.000000 0.513010
v 1.484399 0.000000 0.512280
v 1.484114 0.000000 0.513403
v 1.483685 0.000000 0.517219
v 1.483017 0.000000 0.518764
v 1.482930 0.000000 0.522434
v 1.482647 0.000000 0.523777
v 1.481801 0.000000 0.524064
v 1.480805 0.000000 0.525327
v 1.479776 0.000000 0.528180
v 1.477726 0.000000 0.529835
v 1.479243 0.000000 0.532419
v 1.481775 0.000000 0.534751
v 1.484195 0.000000 0.536152
v 1.485610 0.000000 0.537709
v 1.487080 0.000000 0.540206
v 1.488656 0.000000 0.544098
v 1.489948 0.000000 0.548613
v 1.490005 0.000000 0.551636
v 1.489471 0.000000 0.554319
v 1.488234 0.000000 0.557182
v 1.488717 0.000000 0.558116
v 1.492008 0.000000 0.559681
v 1.493837 0.000000 0.560075
v 1.495799 0.000000 0.559511
v 1.497482 0.000000 0.557617
v 1.500320 0.000000 0.555019
v 1.501243 0.000000 0.553667
v 1.501736 0.000000 0.552193
v 1.502389 0.000000 0.552408
v 1.503893 0.000000 0.554659
v 1.504996 0.000000 0.556095
v 1.506380 0.000000 0.559346
v 1.507193 0.000000 0.568116
v 1.508457 0.000000 0.572449
v 1.510288 0.000000 0.574877
v 1.511586 0.000000 0.577921
v 1.511822 0.000000 0.581275
v 1.511380 0.000000 0.583811
v 1.512499 0.000000 0.588513
v 1.511980 0.000000 0.590945
v 1.512734 0.000000 0.590771
v 1.513906 0.000000 0.589356
v 1.515368 0.000000 0.586300
v 1.516943 0.000000 0.581523
v 1.497482 0.050000 0.557617
v 1.500320 0.050000 0.555019
v 1.511592 0.050000 0.562656
v 1.506380 0.050000 0.559346
v 1.520566 0.050000 0.527117
v 1.519859 0.050000 0.526148
v 1.512638 0.050000 0.498809
v 1.492675 0.050000 0.497442
v 1.515368 0.050000 0.586300
v 1.516943 0.050000 0.581523
v 1.525539 0.050000 0.526244
v 1.522775 0.050000 0.527328
v 1.483685 0.050000 0.517219
v 1.483017 0.050000 0.518764
v 1.511380 0.050000 0.583811
v 1.490651 0.050000 0.507995
v 1.489027 0.050000 0.511822
v 1.501407 0.050000 0.492622
v 1.499209 0.050000 0.492113
v 1.480805 0.050000 0.525327
v 1.515132 0.050000 0.578011
v 1.511586 0.050000 0.577921
v 1.512923 0.050000 0.496801
v 1.503702 0.050000 0.493206
v 1.517018 0.050000 0.535222
v 1.481775 0.050000 0.534751
v 1.516882 0.050000 0.519351
v 1.516587 0.050000 0.518247
v 1.512108 0.050000 0.490366
v 1.502808 0.050000 0.490911
v 1.511548 0.050000 0.560309
v 1.512883 0.050000 0.512375
v 1.511959 0.050000 0.511769
v 1.512066 0.050000 0.560238
v 1.512619 0.050000 0.559412
v 1.512574 0.050000 0.558112
v 1.501243 0.050000 0.553667
v 1.516013 0.050000 0.522180
v 1.482930 0.050000 0.522434
v 1.510317 0.050000 0.565021
v 1.507193 0.050000 0.568116
v 1.507113 0.050000 0.511944
v 1.506690 0.050000 0.511708
v 1.511320 0.050000 0.556232
v 1.504996 0.050000 0.556095
v 1.508457 0.050000 0.572449
v 1.510288 0.050000 0.574877
v 1.525920 0.050000 0.526552
v 1.492380 0.050000 0.500073
v 1.512747 0.050000 0.515213
v 1.484114 0.050000 0.513403
v 1.503833 0.050000 0.492735
v 1.500792 0.050000 0.491787
v 1.521495 0.050000 0.527431
v 1.512499 0.050000 0.588513
v 1.519928 0.050000 0.534173
v 1.520653 0.050000 0.533220
v 1.509431 0.050000 0.489111
v 1.509118 0.050000 0.486629
v 1.502389 0.050000 0.552408
v 1.503893 0.050000 0.554659
v 1.509751 0.050000 0.537952
v 1.512898 0.050000 0.537868
v 1.513906 0.050000 0.589356
v 1.511269 0.050000 0.563845
v 1.523177 0.050000 0.530784
v 1.477726 0.050000 0.529835
v 1.507570 0.050000 0.484855
v 1.506092 0.050000 0.484734
v 1.511536 0.050000 0.557247
v 1.502875 0.050000 0.493331
v 1.493837 0.050000 0.560075
v 1.495799 0.050000 0.559511
v 1.512591 0.050000 0.513348
v 1.487951 0.050000 0.513010
v 1.514604 0.050000 0.537177
v 1.516602 0.050000 0.580060
v 1.511822 0.050000 0.581275
v 1.511307 0.050000 0.554136
v 1.516068 0.050000 0.523389
v 1.524044 0.050000 0.529056
v 1.485610 0.050000 0.537709
v 1.487080 0.050000 0.540206
v 1.479243 0.050000 0.532419
v 1.507922 0.050000 0.505129
v 1.491047 0.050000 0.506267
v 1.502442 0.050000 0.489434
v 1.506793 0.050000 0.509593
v 1.513398 0.050000 0.516631
v 1.490925 0.050000 0.504230
v 1.512628 0.050000 0.491592
v 1.515570 0.050000 0.517574
v 1.513536 0.050000 0.571139
v 1.506574 0.050000 0.548488
v 1.507839 0.050000 0.539046
v 1.519863 0.050000 0.524604
v 1.514600 0.050000 0.573159
v 1.511972 0.050000 0.500216
v 1.509100 0.050000 0.552393
v 1.515560 0.050000 0.535969
v 1.484195 0.050000 0.536152
v 1.482647 0.050000 0.523777
v 1.501736 0.050000 0.552193
v 1.511234 0.050000 0.489918
v 1.515159 0.050000 0.575438
v 1.492008 0.050000 0.559681
v 1.489471 0.050000 0.554319
v 1.490005 0.050000 0.551636
v 1.493826 0.050000 0.495974
v 1.516495 0.050000 0.523690
v 1.508711 0.050000 0.485667
v 1.511849 0.050000 0.569306
v 1.507236 0.050000 0.549917
v 1.512734 0.050000 0.590771
v 1.503354 0.050000 0.488135
v 1.489948 0.050000 0.548613
v 1.522855 0.050000 0.532025
v 1.510186 0.050000 0.511374
v 1.508354 0.050000 0.511494
v 1.479776 0.050000 0.528180
v 1.488945 0.050000 0.512811
v 1.504417 0.050000 0.485669
v 1.488656 0.050000 0.544098
v 1.519010 0.050000 0.523858
v 1.506551 0.050000 0.508329
v 1.484399 0.050000 0.512280
v 1.510571 0.050000 0.567208
v 1.495873 0.050000 0.494531
v 1.503958 0.050000 0.487193
v 1.502714 0.050000 0.488608
v 1.514115 0.050000 0.517313
v 1.511980 0.050000 0.590945
v 1.488234 0.050000 0.557182
v 1.488717 0.050000 0.558116
v 1.510004 0.050000 0.489814
v 1.481801 0.050000 0.524064
vn 0.0000 -1.0000 0.0000
vn 0.0000 1.0000 0.0000
vn -0.9808 0.0000 -0.1952
vn 0.8003 0.0000 0.5996
vn 0.0810 0.0000 -0.9967
vn -0.6775 0.0000 0.7355
vn 0.6403 0.0000 -0.7681
vn -0.8624 0.0000 0.5062
vn -0.7868 0.0000 -0.6172
vn 0.4562 0.0000 0.8899
vn 0.4345 0.0000 -0.9007
vn 0.9088 0.0000 -0.4173
vn -0.9748 0.0000 -0.2230
vn 0.2759 0.0000 0.9612
vn 0.5757 0.0000 -0.8176
vn 0.0840 0.0000 -0.9965
vn 0.9966 0.0000 -0.0829
vn 0.9984 0.0000 -0.0566
vn 0.5800 0.0000 -0.8146
vn 0.9072 0.0000 -0.4208
vn 0.3757 0.0000 0.9267
vn 0.7356 0.0000 -0.6774
vn -0.9575 0.0000 -0.2884
vn 0.9484 0.0000 0.3170
vn -0.7851 0.0000 -0.6193
vn -0.9632 0.0000 -0.2689
vn 0.7702 0.0000 0.6378
vn 0.7716 0.0000 0.6361
vn -0.8716 0.0000 0.4902
vn -0.9957 0.0000 0.0922
vn 0.9990 0.0000 -0.0453
vn -0.5009 0.0000 0.8655
vn 0.6752 0.0000 0.7376
vn 0.8938 0.0000 0.4485
vn -0.9201 0.0000 0.3918
vn -0.6281 0.0000 -0.7781
vn -0.8617 0.0000 0.5074
vn -0.5945 0.0000 -0.8041
vn 0.8077 0.0000 -0.5896
vn -0.9600 0.0000 0.2800
vn -0.5867 0.0000 -0.8098
vn 0.9040 0.0000 0.4275
vn 0.3206 0.0000 -0.9472
vn 0.1770 0.0000 -0.9842
vn 0.9497 0.0000 0.3130
vn 0.9191 0.0000 0.3939
vn -0.3653 0.0000 -0.9309
vn 1.0000 0.0000 -0.0066
vn -0.9179 0.0000 -0.3969
vn -0.9998 0.0000 0.0191
vn 0.9933 0.0000 -0.1155
vn 0.0669 0.0000 -0.9978
vn 0.7754 0.0000 -0.6315
vn 0.9994 0.0000 -0.0348
vn 0.9020 0.0000 0.4317
vn -0.8417 0.0000 -0.5399
vn 0.7839 0.0000 0.6209
vn -0.9205 0.0000 -0.3907
vn 0.9680 0.0000 0.2508
vn 0.2252 0.0000 0.9743
vn 0.9651 0.0000 0.2619
vn 0.9559 0.0000 0.2937
vn -0.5763 0.0000 -0.8173
vn 0.2013 0.0000 -0.9795
vn -0.0653 0.0000 -0.9979
vn 0.9205 0.0000 -0.3907
vn 0.9901 0.0000 0.1406
vn -0.8881 0.0000 0.4597
vn -0.9982 0.0000 0.0596
vn -0.9780 0.0000 -0.2086
vn 0.9660 0.0000 -0.2586
vn -0.2105 0.0000 0.9776
vn 0.2175 0.0000 -0.9761
vn 0.4970 0.0000 0.8677
vn 0.9911 0.0000 0.1329
vn -0.9407 0.0000 -0.3393
vn 0.9739 0.0000 -0.2268
vn 0.8054 0.0000 -0.5927
vn 0.5483 0.0000 -0.8363
vn -0.9966 0.0000 -0.0822
vn 0.6885 0.0000 -0.7252
vn 0.7476 0.0000 0.6641
vn 0.8309 0.0000 0.5564
vn 1.0000 0.0000 0.0027
vn -0.9785 0.0000 -0.2060
vn -0.7400 0.0000 0.6726
vn 0.9988 0.0000 0.0488
vn 0.9712 0.0000 -0.2381
vn 0.8259 0.0000 0.5638
vn -0.7929 0.0000 0.6093
vn -0.9179 0.0000 -0.3967
vn -0.4873 0.0000 -0.8732
vn -0.3413 0.0000 -0.9400
vn 0.8849 0.0000 -0.4658
vn 0.4565 0.0000 -0.8897
vn -0.9707 0.0000 0.2402
vn 0.4878 0.0000 -0.8730
vn 0.9999 0.0000 0.0103
vn -0.9975 0.0000 0.0702
vn -0.9269 0.0000 0.3753
vn -0.7985 0.0000 0.6020
vn 0.7770 0.0000 0.6295
vn 0.5519 0.0000 -0.8339
vn 0.6286 0.0000 -0.7777
vn 0.6579 0.0000 -0.7531
vn -0.9938 0.0000 -0.1111
vn 0.6197 0.0000 -0.7848
vn -0.9438 0.0000 -0.3305
vn -0.4293 0.0000 0.9032
vn 0.3389 0.0000 0.9408
vn -0.3211 0.0000 -0.9470
vn -0.2016 0.0000 -0.9795
vn -0.0802 0.0000 -0.9968
vn -0.9728 0.0000 0.2316
vn 0.9821 0.0000 -0.1884
vn -0.9198 0.0000 0.3923
vn 0.7959 0.0000 0.6054
vn -0.9851 0.0000 -0.1717
vn 0.9922 0.0000 -0.1250
vn -0.9693 0.0000 -0.2459
vn -0.9938 0.0000 -0.1116
vn -0.3128 0.0000 0.9498
vn -0.8315 0.0000 0.5555
vn 0.8541 0.0000 -0.5202
vn 0.7990 0.0000 -0.6013
vn 0.9210 0.0000 -0.3897
vn 0.0265 0.0000 0.9996
vn -0.1956 0.0000 -0.9807
vn -0.9614 0.0000 0.2751
vn 0.8125 0.0000 -0.5830
vn -0.9499 0.0000 -0.3125
vn 0.1359 0.0000 0.9907
vn 0.4770 0.0000 0.8789
vn 0.9782 0.0000 -0.2079
vn 0.9580 0.0000 0.2869
vn -0.9997 0.0000 -0.0239
vn 0.9998 0.0000 -0.0185
vn -0.1488 0.0000 -0.9889
usemtl SVGMat.3781
s off
f 83//1 82//1 81//1
f 83//1 81//1 80//1
f 96//1 83//1 80//1
f 96//1 80//1 79//1
f 97//1 96//1 79//1
f 97//1 79//1 78//1
f 98//1 97//1 78//1
f 99//1 98//1 78//1
f 99//1 78//1 77//1
f 99//1 77//1 76//1
f 100//1 99//1 76//1
f 100//1 76//1 75//1
f 100//1 75//1 74//1
f 101//1 100//1 74//1
f 106//1 105//1 104//1
f 101//1 74//1 73//1
f 106//1 104//1 103//1
f 102//1 101//1 73//1
f 107//1 106//1 103//1
f 103//1 102//1 73//1
f 107//1 103//1 73//1
f 108//1 107//1 73//1
f 109//1 108//1 73//1
f 109//1 73//1 72//1
f 110//1 109//1 72//1
f 110//1 72//1 71//1
f 111//1 110//1 71//1
f 111//1 71//1 70//1
f 112//1 111//1 70//1
f 113//1 112//1 70//1
f 113//1 70//1 69//1
f 113//1 69//1 68//1
f 114//1 113//1 68//1
f 114//1 68//1 67//1
f 65//1 64//1 63//1
f 66//1 65//1 63//1
f 66//1 63//1 62//1
f 114//1 67//1 66//1
f 114//1 66//1 62//1
f 115//1 114//1 62//1
f 118//1 117//1 116//1
f 115//1 62//1 61//1
f 116//1 115//1 61//1
f 118//1 116//1 61//1
f 118//1 61//1 60//1
f 119//1 118//1 60//1
f 119//1 60//1 59//1
f 119//1 59//1 58//1
f 119//1 58//1 57//1
f 120//1 119//1 57//1
f 120//1 57//1 56//1
f 120//1 56//1 55//1
f 120//1 55//1 54//1
f 121//1 120//1 54//1
f 122//1 121//1 54//1
f 122//1 54//1 53//1
f 122//1 53//1 52//1
f 122//1 52//1 51//1
f 123//1 122//1 51//1
f 123//1 51//1 50//1
f 124//1 123//1 50//1
f 124//1 50//1 49//1
f 124//1 49//1 48//1
f 46//1 45//1 32//1
f 125//1 124//1 48//1
f 46//1 32//1 31//1
f 125//1 48//1 47//1
f 47//1 46//1 31//1
f 125//1 47//1 31//1
f 126//1 125//1 31//1
f 126//1 31//1 30//1
f 127//1 126//1 30//1
f 127//1 30//1 29//1
f 127//1 29//1 28//1
f 127//1 28//1 27//1
f 128//1 127//1 27//1
f 128//1 27//1 26//1
f 128//1 26//1 25//1
f 129//1 128//1 25//1
f 129//1 25//1 24//1
f 130//1 129//1 24//1
f 130//1 24//1 23//1
f 130//1 23//1 22//1
f 131//1 130//1 22//1
f 131//1 22//1 21//1
f 132//1 131//1 21//1
f 132//1 21//1 20//1
f 133//1 132//1 20//1
f 133//1 20//1 19//1
f 134//1 133//1 19//1
f 134//1 19//1 18//1
f 134//1 18//1 144//1
f 145//1 144//1 18//1
f 135//1 134//1 144//1
f 135//1 144//1 143//1
f 145//1 18//1 17//1
f 146//1 145//1 17//1
f 135//1 143//1 142//1
f 147//1 146//1 17//1
f 147//1 17//1 16//1
f 136//1 135//1 142//1
f 136//1 142//1 141//1
f 147//1 16//1 15//1
f 148//1 147//1 15//1
f 148//1 15//1 14//1
f 137//1 136//1 141//1
f 137//1 141//1 140//1
f 138//1 137//1 140//1
f 148//1 14//1 13//1
f 148//1 13//1 12//1
f 139//1 138//1 140//1
f 148//1 12//1 11//1
f 148//1 11//1 10//1
f 148//1 10//1 9//1
f 149//1 148//1 9//1
f 149//1 9//1 8//1
f 149//1 8//1 7//1
f 149//1 7//1 6//1
f 149//1 6//1 5//1
f 150//1 149//1 5//1
f 150//1 5//1 4//1
f 151//1 150//1 4//1
f 151//1 4//1 3//1
f 152//1 151//1 3//1
f 152//1 3//1 2//1
f 152//1 2//1 1//1
f 153//1 152//1 1//1
f 153//1 1//1 160//1
f 154//1 153//1 160//1
f 154//1 160//1 159//1
f 155//1 154//1 159//1
f 155//1 159//1 158//1
f 155//1 158//1 157//1
f 156//1 155//1 157//1
f 282//2 228//2 229//2
f 282//2 271//2 228//2
f 289//2 271//2 282//2
f 289//2 219//2 271//2
f 275//2 219//2 289//2
f 275//2 218//2 219//2
f 290//2 218//2 275//2
f 247//2 218//2 290//2
f 247//2 295//2 218//2
f 247//2 264//2 295//2
f 190//2 264//2 247//2
f 190//2 189//2 264//2
f 190//2 251//2 189//2
f 212//2 251//2 190//2
f 179//2 178//2 213//2
f 212//2 183//2 251//2
f 179//2 231//2 178//2
f 184//2 183//2 212//2
f 288//2 231//2 179//2
f 231//2 183//2 184//2
f 288//2 183//2 231//2
f 269//2 183//2 288//2
f 168//2 183//2 269//2
f 168//2 167//2 183//2
f 209//2 167//2 168//2
f 209//2 258//2 167//2
f 250//2 258//2 209//2
f 250//2 245//2 258//2
f 246//2 245//2 250//2
f 176//2 245//2 246//2
f 176//2 285//2 245//2
f 176//2 248//2 285//2
f 177//2 248//2 176//2
f 177//2 203//2 248//2
f 279//2 193//2 278//2
f 202//2 193//2 279//2
f 202//2 192//2 193//2
f 177//2 202//2 203//2
f 177//2 192//2 202//2
f 281//2 192//2 177//2
f 211//2 235//2 286//2
f 281//2 234//2 192//2
f 235//2 234//2 281//2
f 211//2 234//2 235//2
f 211//2 210//2 234//2
f 173//2 210//2 211//2
f 173//2 249//2 210//2
f 173//2 291//2 249//2
f 173//2 252//2 291//2
f 174//2 252//2 173//2
f 174//2 188//2 252//2
f 174//2 187//2 188//2
f 174//2 198//2 187//2
f 199//2 198//2 174//2
f 262//2 198//2 199//2
f 262//2 240//2 198//2
f 262//2 270//2 240//2
f 262//2 284//2 270//2
f 296//2 284//2 262//2
f 296//2 256//2 284//2
f 180//2 256//2 296//2
f 180//2 166//2 256//2
f 180//2 165//2 166//2
f 172//2 208//2 171//2
f 280//2 165//2 180//2
f 172//2 241//2 208//2
f 280//2 214//2 165//2
f 214//2 241//2 172//2
f 280//2 241//2 214//2
f 227//2 241//2 280//2
f 227//2 226//2 241//2
f 244//2 226//2 227//2
f 244//2 277//2 226//2
f 244//2 217//2 277//2
f 244//2 216//2 217//2
f 186//2 216//2 244//2
f 186//2 185//2 216//2
f 186//2 260//2 185//2
f 261//2 260//2 186//2
f 261//2 236//2 260//2
f 242//2 236//2 261//2
f 242//2 223//2 236//2
f 242//2 222//2 223//2
f 243//2 222//2 242//2
f 243//2 255//2 222//2
f 283//2 255//2 243//2
f 283//2 254//2 255//2
f 276//2 254//2 283//2
f 276//2 273//2 254//2
f 268//2 273//2 276//2
f 268//2 259//2 273//2
f 268//2 263//2 259//2
f 220//2 259//2 263//2
f 267//2 263//2 268//2
f 267//2 197//2 263//2
f 220//2 239//2 259//2
f 221//2 239//2 220//2
f 267//2 162//2 197//2
f 205//2 239//2 221//2
f 205//2 204//2 239//2
f 293//2 162//2 267//2
f 293//2 161//2 162//2
f 205//2 230//2 204//2
f 164//2 230//2 205//2
f 164//2 196//2 230//2
f 294//2 161//2 293//2
f 294//2 233//2 161//2
f 266//2 233//2 294//2
f 164//2 195//2 196//2
f 164//2 194//2 195//2
f 232//2 233//2 266//2
f 164//2 191//2 194//2
f 164//2 163//2 191//2
f 164//2 225//2 163//2
f 201//2 225//2 164//2
f 201//2 200//2 225//2
f 201//2 287//2 200//2
f 201//2 272//2 287//2
f 201//2 253//2 272//2
f 206//2 253//2 201//2
f 206//2 257//2 253//2
f 207//2 257//2 206//2
f 207//2 265//2 257//2
f 182//2 265//2 207//2
f 182//2 181//2 265//2
f 182//2 237//2 181//2
f 238//2 237//2 182//2
f 238//2 170//2 237//2
f 175//2 170//2 238//2
f 175//2 169//2 170//2
f 215//2 169//2 175//2
f 215//2 224//2 169//2
f 215//2 274//2 224//2
f 292//2 274//2 215//2
f 134//3 135//3 267//3 268//3
f 31//4 32//4 208//4 241//4
f 81//5 82//5 229//5 228//5
f 127//6 128//6 186//6 244//6
f 14//7 15//7 230//7 196//7
f 126//8 127//8 244//8 227//8
f 108//9 109//9 168//9 269//9
f 25//10 26//10 185//10 260//10
f 103//11 104//11 178//11 231//11
f 59//12 60//12 210//12 249//12
f 112//13 113//13 176//13 246//13
f 139//14 140//14 233//14 232//14
f 52//15 53//15 240//15 270//15
f 76//16 77//16 295//16 264//16
f 60//17 61//17 234//17 210//17
f 73//18 74//18 251//18 183//18
f 80//19 81//19 228//19 271//19
f 19//20 20//20 254//20 273//20
f 23//21 24//21 236//21 223//21
f 5//22 6//22 272//22 253//22
f 83//23 96//23 289//23 282//23
f 143//24 144//24 263//24 197//24
f 123//25 124//25 180//25 296//25
f 101//26 102//26 184//26 212//26
f 157//27 158//27 224//27 274//27
f 70//28 71//28 258//28 245//28
f 100//29 101//29 212//29 190//29
f 148//30 149//30 201//30 164//30
f 53//31 54//31 198//31 240//31
f 128//32 129//32 261//32 186//32
f 141//33 142//33 162//33 161//33
f 30//34 31//34 241//34 226//34
f 147//35 148//35 164//35 205//35
f 125//36 126//36 227//36 280//36
f 130//37 131//37 243//37 242//37
f 97//38 98//38 290//38 275//38
f 48//39 49//39 166//39 165//39
f 149//40 150//40 206//40 201//40
f 106//41 107//41 288//41 179//41
f 71//42 72//42 167//42 258//42
f 47//43 48//43 165//43 214//43
f 57//44 58//44 291//44 252//44
f 159//45 160//45 170//45 169//45
f 69//46 70//46 245//46 285//46
f 45//47 46//47 172//47 171//47
f 16//48 17//48 239//48 204//48
f 119//49 120//49 174//49 173//49
f 133//50 134//50 268//50 276//50
f 7//51 8//51 200//51 287//51
f 51//52 52//52 270//52 284//52
f 77//53 78//53 218//53 295//53
f 13//54 14//54 196//54 195//54
f 158//55 159//55 169//55 224//55
f 96//56 97//56 275//56 289//56
f 24//57 25//57 260//57 236//57
f 113//58 114//58 177//58 176//58
f 29//59 30//59 226//59 277//59
f 156//60 157//60 274//60 292//60
f 9//61 10//61 163//61 225//61
f 54//62 55//62 187//62 198//62
f 107//63 108//63 269//63 288//63
f 116//64 117//64 286//64 235//64
f 64//65 65//65 279//65 278//65
f 74//66 75//66 189//66 251//66
f 72//67 73//67 183//67 167//67
f 136//68 137//68 294//68 293//68
f 111//69 112//69 246//69 250//69
f 155//70 156//70 292//70 215//70
f 55//71 56//71 188//71 187//71
f 138//72 139//72 232//72 266//72
f 63//73 64//73 278//73 193//73
f 21//74 22//74 222//74 255//74
f 20//75 21//75 255//75 254//75
f 124//76 125//76 280//76 180//76
f 160//77 1//77 237//77 170//77
f 104//78 105//78 213//78 178//78
f 62//79 63//79 193//79 192//79
f 114//80 115//80 281//80 177//80
f 58//81 59//81 249//81 291//81
f 140//82 141//82 161//82 233//82
f 12//83 13//83 195//83 194//83
f 49//84 50//84 256//84 166//84
f 121//85 122//85 262//85 199//85
f 129//86 130//86 242//86 261//86
f 67//87 68//87 248//87 203//87
f 3//88 4//88 257//88 265//88
f 142//89 143//89 197//89 162//89
f 146//90 147//90 205//90 221//90
f 135//91 136//91 293//91 267//91
f 82//92 83//92 282//92 229//92
f 65//93 66//93 202//93 279//93
f 4//94 5//94 253//94 257//94
f 75//95 76//95 264//95 189//95
f 99//96 100//96 190//96 247//96
f 66//97 67//97 203//97 202//97
f 2//98 3//98 265//98 181//98
f 152//99 153//99 238//99 182//99
f 131//100 132//100 283//100 243//100
f 150//101 151//101 207//101 206//101
f 8//102 9//102 225//102 200//102
f 56//103 57//103 252//103 188//103
f 32//104 45//104 171//104 208//104
f 50//105 51//105 284//105 256//105
f 109//106 110//106 209//106 168//106
f 17//107 18//107 259//107 239//107
f 110//108 111//108 250//108 209//108
f 137//109 138//109 266//109 294//109
f 26//110 27//110 216//110 185//110
f 122//111 123//111 296//111 262//111
f 105//112 106//112 179//112 213//112
f 46//113 47//113 214//113 172//113
f 154//114 155//114 215//114 175//114
f 68//115 69//115 285//115 248//115
f 151//116 152//116 182//116 207//116
f 27//117 28//117 217//117 216//117
f 153//118 154//118 175//118 238//118
f 78//119 79//119 219//119 218//119
f 117//120 118//120 211//120 286//120
f 118//121 119//121 173//121 211//121
f 144//122 145//122 220//122 263//122
f 145//123 146//123 221//123 220//123
f 6//124 7//124 287//124 272//124
f 18//125 19//125 273//125 259//125
f 79//126 80//126 271//126 219//126
f 22//127 23//127 223//127 222//127
f 115//128 116//128 235//128 281//128
f 132//129 133//129 276//129 283//129
f 1//130 2//130 181//130 237//130
f 98//131 99//131 247//131 290//131
f 11//132 12//132 194//132 191//132
f 28//133 29//133 277//133 217//133
f 15//134 16//134 204//134 230//134
f 61//135 62//135 192//135 234//135
f 120//136 121//136 199//136 174//136
f 10//137 11//137 191//137 163//137
f 102//138 103//138 231//138 184//138
