# Blender v2.79 (sub 0) OBJ File: 'world_countrycodes_outlines2.blend'
# www.blender.org
mtllib MM_outline.mtl
o MM.001_CUCurve.1654
v 1.509743 0.000540 0.586357
v 1.514495 0.000751 0.588547
v 1.510802 -0.001809 0.586551
v 1.513389 0.000753 0.583772
v 1.512620 -0.001927 0.581193
v 1.510991 0.001848 0.578653
v 1.513651 0.001085 0.577847
v 1.509749 -0.000781 0.577976
v 1.508813 0.002012 0.572515
v 1.512557 -0.000848 0.574821
v 1.505922 0.000736 0.571910
v 1.509543 0.000839 0.570415
v 1.508634 -0.001961 0.571232
v 1.506330 -0.001394 0.571635
v 1.508003 0.000026 0.557350
v 1.506675 -0.001931 0.557229
v 1.504630 0.001398 0.558333
v 1.506715 0.001910 0.557367
v 1.504152 -0.000744 0.558514
v 1.501940 0.001968 0.551228
v 1.501704 -0.002007 0.552870
v 1.502334 0.001175 0.554427
v 1.502572 -0.000722 0.550091
v 1.503214 -0.000761 0.554152
v 1.500175 -0.000766 0.551262
v 1.495358 0.000542 0.562360
v 1.494269 -0.001385 0.558787
v 1.494154 0.000729 0.558193
v 1.495678 -0.001891 0.560766
v 1.493528 0.001930 0.561026
v 1.488862 0.002021 0.557325
v 1.487475 -0.001886 0.558817
v 1.486147 0.000681 0.558375
v 1.490339 -0.000728 0.556933
v 1.488504 -0.000757 0.550397
v 1.489012 0.001391 0.550188
v 1.490719 0.001946 0.553102
v 1.491376 -0.001888 0.549776
v 1.492497 0.000576 0.550199
v 1.486235 0.001971 0.536926
v 1.484136 0.001387 0.537941
v 1.486871 -0.000042 0.535719
v 1.485683 -0.001952 0.536212
v 1.483845 -0.000823 0.538366
v 1.479080 0.000767 0.535170
v 1.478433 0.001918 0.530550
v 1.479784 -0.001215 0.530779
v 1.477476 -0.001940 0.532110
v 1.476521 0.001587 0.529958
v 1.475610 -0.000592 0.529736
v 1.480331 0.000474 0.530736
v 1.482239 -0.001934 0.524687
v 1.480595 0.000788 0.522502
v 1.480962 -0.001400 0.522546
v 1.482329 0.001926 0.524445
v 1.483491 0.001121 0.525372
v 1.484631 -0.000727 0.524412
v 1.481470 0.000846 0.517595
v 1.484746 0.001959 0.513245
v 1.485215 0.000785 0.518567
v 1.483903 -0.001992 0.511496
v 1.482959 0.000841 0.510654
v 1.485735 -0.001116 0.514037
v 1.487366 -0.000049 0.511137
v 1.488096 0.001992 0.512299
v 1.489725 -0.001540 0.514241
v 1.488195 -0.001984 0.512303
v 1.490157 0.000732 0.514876
v 1.489004 0.000787 0.505481
v 1.492948 -0.000819 0.506217
v 1.491833 0.001936 0.506540
v 1.490149 -0.001860 0.505234
v 1.494811 -0.000087 0.497888
v 1.493728 -0.001929 0.497265
v 1.493810 0.001953 0.497173
v 1.491664 0.001409 0.496131
v 1.491155 -0.000750 0.495874
v 1.500238 -0.000091 0.489237
v 1.499483 0.001935 0.490954
v 1.499993 0.001413 0.493337
v 1.499963 -0.000649 0.494050
v 1.500049 -0.001918 0.490640
v 1.502645 0.000947 0.491238
v 1.502509 -0.001644 0.492301
v 1.504779 0.001977 0.493811
v 1.503971 -0.000687 0.495322
v 1.506028 -0.000155 0.493446
v 1.504619 -0.001969 0.493429
v 1.501684 0.000852 0.492960
v 1.502797 -0.002010 0.488436
v 1.503008 0.001969 0.489669
v 1.504582 0.000063 0.489733
v 1.500472 -0.000711 0.488598
v 1.502186 0.001722 0.486975
v 1.502728 -0.000749 0.484873
v 1.506748 -0.001183 0.486120
v 1.506756 0.000766 0.486570
v 1.505837 -0.000882 0.482776
v 1.507506 0.001932 0.483619
v 1.509344 -0.001970 0.484790
v 1.510228 0.000682 0.483911
v 1.510096 0.001990 0.488893
v 1.507978 0.000616 0.490999
v 1.510132 -0.001666 0.491052
v 1.511392 -0.000664 0.487929
v 1.510720 0.000852 0.491840
v 1.513140 0.001888 0.489875
v 1.513886 -0.001602 0.490030
v 1.514579 0.000830 0.499647
v 1.511890 0.001964 0.498833
v 1.510768 -0.000001 0.498110
v 1.512024 -0.001961 0.498393
v 1.514133 -0.001404 0.499492
v 1.508646 -0.000025 0.507433
v 1.507426 0.001951 0.507386
v 1.504652 0.000786 0.507166
v 1.505235 -0.001444 0.507026
v 1.507366 -0.001967 0.507559
v 1.507875 0.001519 0.510487
v 1.508202 -0.000901 0.509920
v 1.506185 0.001793 0.513247
v 1.505811 -0.001983 0.511769
v 1.505421 -0.000870 0.513551
v 1.510779 0.000861 0.513135
v 1.510992 -0.001311 0.512974
v 1.513070 -0.000500 0.509695
v 1.512976 0.001933 0.511049
v 1.513597 -0.001941 0.511625
v 1.514668 0.000817 0.514790
v 1.513160 0.001958 0.517765
v 1.511573 0.000573 0.518165
v 1.514511 -0.001407 0.515764
v 1.513557 -0.001889 0.518146
v 1.514902 0.000949 0.519435
v 1.517597 -0.001918 0.517983
v 1.518562 0.000598 0.517067
v 1.517641 0.001928 0.519006
v 1.517838 -0.000963 0.522087
v 1.516601 0.001991 0.522902
v 1.514294 -0.000637 0.520168
v 1.514841 0.000907 0.525092
v 1.515515 -0.001900 0.524323
v 1.517942 0.000770 0.525642
v 1.519422 -0.002279 0.523814
v 1.520571 0.001306 0.522562
v 1.521915 0.000862 0.525486
v 1.519733 0.001946 0.527620
v 1.520812 -0.001958 0.526727
v 1.519625 -0.001015 0.529039
v 1.521893 0.000551 0.529511
v 1.524992 -0.000833 0.528253
v 1.525065 0.001958 0.527044
v 1.526948 -0.001996 0.526523
v 1.526053 -0.000693 0.524211
v 1.527691 0.001485 0.525729
v 1.523549 -0.000928 0.526470
v 1.521516 -0.001974 0.533772
v 1.523383 0.001993 0.532419
v 1.524615 -0.000857 0.532541
v 1.521046 0.001380 0.531551
v 1.520814 -0.000784 0.531017
v 1.521507 0.000599 0.535360
v 1.515870 -0.000853 0.538567
v 1.514788 0.001978 0.537925
v 1.513691 -0.001907 0.536439
v 1.512940 0.000761 0.535534
v 1.507633 0.002174 0.538890
v 1.509702 -0.000689 0.540069
v 1.506930 0.000006 0.536686
v 1.507095 -0.001936 0.538468
v 1.504599 0.000054 0.550133
v 1.508867 -0.000341 0.548698
v 1.505812 0.001910 0.549773
v 1.505740 -0.001948 0.549368
v 1.513055 0.000717 0.553373
v 1.509407 -0.000899 0.554969
v 1.511460 0.002036 0.555839
v 1.512197 -0.001785 0.553542
v 1.512428 -0.002022 0.557660
v 1.514290 0.000962 0.557472
v 1.510585 0.001331 0.558805
v 1.510096 -0.000747 0.558664
v 1.514763 -0.000852 0.558601
v 1.513447 0.000932 0.561890
v 1.512516 0.001899 0.560902
v 1.512442 -0.001914 0.561006
v 1.509169 0.000231 0.562949
v 1.512487 -0.000769 0.565936
v 1.510847 0.001929 0.565961
v 1.509266 -0.001955 0.565620
v 1.508233 0.000268 0.567593
v 1.516384 0.000022 0.571786
v 1.512885 0.000765 0.573739
v 1.513474 -0.001388 0.573682
v 1.514965 0.001947 0.571797
v 1.514830 -0.001949 0.571387
v 1.516341 0.001999 0.578624
v 1.513255 -0.000579 0.578640
v 1.514926 0.001142 0.581491
v 1.518903 0.000885 0.580603
v 1.516209 -0.001967 0.580486
v 1.517654 -0.001358 0.579229
v 1.514333 0.001463 0.591561
v 1.513237 -0.001971 0.589632
v 1.515022 -0.000733 0.591783
v 1.511998 0.000817 0.588899
v 1.509487 -0.000697 0.593400
v 1.511738 0.002002 0.591513
vn 0.9067 0.2730 0.3215
vn -0.3035 0.9481 0.0949
vn -0.2266 0.8735 0.4308
vn 0.1113 -0.9745 0.1946
vn 0.9451 0.3066 -0.1131
vn -0.5446 -0.8386 -0.0002
vn 0.4722 -0.8805 -0.0424
vn 0.8899 0.4422 -0.1116
vn -0.9674 0.2528 0.0097
vn -0.8697 -0.3837 0.3105
vn 0.0286 0.9988 -0.0388
vn 0.3049 -0.9443 -0.1233
vn -0.8679 0.3997 0.2950
vn 0.8233 -0.4153 -0.3869
vn 0.9205 0.2575 -0.2937
vn 0.9368 0.0111 -0.3496
vn -0.6320 0.7444 0.2154
vn 0.4155 0.8864 -0.2041
vn -0.6912 -0.6785 0.2489
vn 0.3814 -0.9103 -0.1609
vn -0.8371 -0.4637 0.2902
vn -0.0356 -0.9808 -0.1916
vn -0.2155 0.8580 0.4661
vn 0.0218 0.7975 -0.6029
vn 0.2362 -0.2726 -0.9327
vn 0.9802 -0.1726 -0.0973
vn -0.5785 -0.3194 -0.7505
vn 0.2474 0.1885 0.9504
vn -0.1247 -0.8383 -0.5307
vn -0.5039 -0.7552 0.4193
vn 0.1922 -0.8362 0.5136
vn -0.2840 0.4959 -0.8206
vn -0.0276 0.9996 0.0044
vn -0.0855 0.8819 0.4636
vn -0.8951 0.2799 0.3469
vn 0.7160 -0.5908 -0.3718
vn -0.8538 -0.5205 -0.0100
vn -0.7392 0.6687 0.0805
vn 0.4628 0.8745 0.1450
vn 0.4900 -0.8697 -0.0592
vn 0.9645 0.2583 -0.0546
vn 0.3712 0.8921 -0.2574
vn 0.3201 -0.9121 -0.2561
vn -0.6608 -0.5246 0.5369
vn -0.5040 0.7691 0.3930
vn 0.7886 -0.0178 -0.6146
vn -0.6386 0.3786 0.6699
vn 0.0267 0.9984 0.0498
vn 0.9058 0.3556 -0.2303
vn -0.5088 -0.8052 0.3046
vn -0.6802 0.7330 0.0041
vn 0.6042 -0.7958 -0.0410
vn 0.7519 0.4482 0.4835
vn 0.2778 -0.9356 0.2177
vn -0.8117 0.4917 -0.3152
vn -0.9630 -0.2595 -0.0721
vn -0.6751 -0.6944 -0.2491
vn 0.0882 0.9953 0.0389
vn -0.8949 0.3984 -0.2012
vn -0.0189 0.9973 0.0710
vn 0.8095 -0.3189 0.4930
vn 0.8902 0.4416 0.1121
vn 0.3796 -0.7165 0.5853
vn -0.3412 -0.7872 -0.5137
vn -0.5893 0.3071 -0.7472
vn -0.0199 0.9989 -0.0411
vn 0.3939 -0.6830 0.6150
vn -0.5330 -0.0555 -0.8443
vn -0.0551 -0.9929 -0.1054
vn -0.3940 -0.9159 -0.0771
vn -0.8766 0.4084 -0.2543
vn 0.8826 -0.4105 0.2291
vn 0.5001 0.3342 0.7988
vn 0.2024 0.9620 0.1831
vn 0.4368 0.8963 0.0761
vn 0.1384 -0.9872 0.0793
vn -0.6239 0.6715 -0.3999
vn 0.0495 -0.0109 -0.9987
vn -0.7716 -0.3873 -0.5046
vn -0.1317 0.8666 -0.4812
vn 0.8249 -0.0102 0.5652
vn 0.1260 0.7952 0.5931
vn 0.2295 -0.4712 0.8516
vn 0.0018 -0.8843 -0.4668
vn 0.3054 -0.6994 -0.6461
vn 0.4424 0.8006 0.4041
vn 0.4071 -0.8865 0.2198
vn 0.1236 -0.2086 0.9702
vn -0.3855 0.2466 0.8891
vn 0.8277 0.2105 -0.5201
vn -0.0624 -0.9972 -0.0407
vn 0.9936 -0.0043 0.1126
vn 0.9832 -0.0492 0.1758
vn 0.0359 0.9984 0.0433
vn -0.9652 -0.2351 -0.1138
vn -0.5038 0.8022 -0.3202
vn -0.6217 -0.3134 -0.7178
vn -0.1886 0.8259 0.5314
vn 0.1834 -0.4624 0.8675
vn -0.2642 -0.3584 -0.8954
vn -0.0040 0.8167 -0.5770
vn 0.3634 -0.8470 -0.3879
vn 0.7116 0.2513 -0.6561
vn 0.0916 0.9953 -0.0316
vn -0.7042 0.2363 0.6695
vn -0.4294 -0.8734 0.2295
vn 0.7883 -0.3630 -0.4967
vn -0.6188 0.7105 0.3350
vn 0.5332 0.7625 -0.3665
vn 0.7002 -0.5815 -0.4142
vn 0.8715 0.4099 0.2691
vn -0.1683 0.9839 -0.0605
vn -0.9746 0.0189 -0.2232
vn -0.2286 -0.9723 -0.0489
vn 0.1751 0.9836 0.0425
vn 0.9222 -0.0051 0.3866
vn 0.2745 -0.9581 0.0811
vn 0.7324 -0.6406 0.2305
vn -0.8978 0.3862 -0.2119
vn -0.7364 -0.6399 -0.2195
vn 0.5764 -0.6843 -0.4465
vn 0.3482 0.9055 -0.2423
vn -0.3982 0.6964 0.5970
vn -0.4548 -0.8767 0.1565
vn -0.6142 -0.3013 0.7293
vn -0.3798 0.6517 0.6565
vn -0.3095 -0.7938 0.5235
vn 0.4879 -0.1510 -0.8597
vn 0.4190 0.8063 -0.4175
vn 0.5619 -0.7683 -0.3063
vn 0.7927 0.4678 -0.3907
vn -0.2217 0.9383 0.2653
vn -0.7922 0.1257 0.5971
vn 0.5584 -0.7574 -0.3385
vn 0.8329 0.2419 -0.4978
vn -0.5855 0.6839 0.4353
vn -0.3629 -0.8357 0.4121
vn 0.5166 -0.8250 -0.2289
vn 0.6833 -0.5857 -0.4358
vn 0.4905 0.8713 -0.0154
vn 0.0040 0.9999 0.0117
vn -0.4353 -0.7777 0.4534
vn -0.9411 -0.3092 0.1366
vn -0.6639 0.3623 0.6542
vn -0.5649 0.4864 0.6666
vn 0.5618 0.4778 -0.6753
vn 0.2523 -0.9395 -0.2315
vn 0.3048 0.5427 -0.7826
vn 0.0752 -0.9971 -0.0106
vn -0.3898 0.8534 0.3461
vn -0.5102 -0.4235 0.7485
vn 0.0553 0.2554 0.9652
vn 0.7774 -0.2745 0.5659
vn 0.2378 -0.2279 -0.9442
vn 0.0533 0.9810 -0.1867
vn 0.7775 0.5396 -0.3229
vn 0.6524 -0.7531 -0.0845
vn -0.3018 -0.2783 -0.9118
vn -0.4501 0.7439 -0.4938
vn 0.2080 -0.9310 0.2998
vn -0.6438 -0.4478 -0.6205
vn 0.3922 0.8618 0.3215
vn 0.5669 0.1823 0.8033
vn 0.7567 -0.2951 0.5834
vn 0.3164 -0.3986 0.8608
vn 0.1312 0.8834 0.4498
vn -0.1541 -0.9494 -0.2738
vn 0.6153 -0.4130 0.6714
vn -0.3047 0.4089 -0.8602
vn -0.2931 0.9515 -0.0932
vn -0.4714 -0.8532 -0.2230
vn -0.6619 0.0479 -0.7480
vn -0.9518 0.0161 0.3061
vn 0.9043 -0.0973 -0.4156
vn -0.3670 0.9252 0.0965
vn -0.4178 -0.9055 0.0739
vn 0.8319 0.3381 -0.4400
vn -0.1345 0.9906 -0.0254
vn 0.5291 -0.8182 -0.2246
vn 0.1815 -0.9754 -0.1248
vn -0.7431 -0.5017 0.4428
vn -0.7212 0.6924 -0.0216
vn -0.8812 -0.4705 0.0455
vn 0.8839 0.4032 -0.2368
vn 0.9164 -0.3783 -0.1305
vn 0.2547 0.9654 0.0558
vn 0.9072 0.3176 0.2757
vn 0.0102 0.9999 -0.0060
vn -0.9666 0.0978 -0.2368
vn 0.2298 -0.9603 0.1579
vn 0.8950 -0.4065 -0.1834
vn -0.5227 -0.8502 -0.0632
vn -0.9456 0.1910 0.2632
vn 0.9305 0.0331 -0.3646
vn -0.6209 -0.7567 0.2045
vn 0.3879 -0.9045 -0.1771
vn -0.8107 0.5036 0.2985
vn 0.3198 0.9347 -0.1551
vn 0.8150 -0.5573 -0.1587
vn 0.2878 0.9471 -0.1420
vn -0.9125 -0.2706 0.3068
vn -0.1008 -0.9836 0.1497
vn -0.9726 0.1921 -0.1305
vn 0.9524 0.2832 -0.1124
vn 0.4858 0.6573 0.5761
vn -0.9659 -0.1997 0.1648
vn -0.6229 -0.1949 0.7577
vn 0.6519 -0.3698 0.6620
usemtl SVGMat.3781
s 1
f 2//1 6//2 208//3
f 204//4 4//5 2//1
f 3//6 5//7 204//4
f 5//7 7//8 4//5
f 1//9 8//10 3//6
f 6//2 8//10 1//9
f 7//8 9//11 6//2
f 8//10 13//12 5//7
f 6//2 11//13 8//10
f 9//11 11//13 6//2
f 10//14 12//15 7//8
f 13//12 15//16 12//15
f 9//11 17//17 11//13
f 12//15 18//18 9//11
f 15//16 18//18 12//15
f 14//19 16//20 13//12
f 19//21 21//22 16//20
f 17//17 22//23 19//21
f 20//24 22//23 17//17
f 15//16 20//24 18//18
f 16//20 23//25 15//16
f 21//22 23//25 16//20
f 22//23 24//26 21//22
f 21//22 25//27 23//25
f 22//23 26//28 24//26
f 20//24 26//28 22//23
f 21//22 27//29 25//27
f 26//28 32//30 29//31
f 28//32 31//33 30//34
f 30//34 33//35 26//28
f 31//33 33//35 30//34
f 27//29 34//36 28//32
f 32//30 34//36 27//29
f 33//35 35//37 32//30
f 31//33 36//38 33//35
f 34//36 37//39 31//33
f 32//30 38//40 34//36
f 35//37 38//40 32//30
f 39//41 40//42 37//39
f 35//37 43//43 38//40
f 36//38 44//44 35//37
f 40//42 41//45 36//38
f 38//40 42//46 39//41
f 41//45 45//47 44//44
f 40//42 45//47 41//45
f 42//46 46//48 40//42
f 43//43 51//49 42//46
f 44//44 48//50 43//43
f 46//48 49//51 45//47
f 47//52 56//53 51//49
f 48//50 52//54 47//52
f 49//51 53//55 50//56
f 46//48 53//55 49//51
f 54//57 52//54 48//50
f 55//58 58//59 53//55
f 56//53 59//60 55//58
f 57//61 60//62 56//53
f 52//54 63//63 57//61
f 54//57 61//64 52//54
f 58//59 61//64 54//57
f 59//60 62//65 58//59
f 59//60 65//66 62//65
f 61//64 66//67 63//63
f 64//68 67//69 61//64
f 64//68 72//70 67//69
f 65//66 69//71 64//68
f 66//67 70//72 68//73
f 67//69 70//72 66//67
f 70//72 75//74 71//75
f 72//70 74//76 70//72
f 75//74 76//77 69//71
f 76//77 78//78 77//79
f 75//74 79//80 76//77
f 73//81 80//82 75//74
f 74//76 81//83 73//81
f 78//78 82//84 77//79
f 80//82 79//80 75//74
f 78//78 84//85 82//84
f 80//82 85//86 79//80
f 84//85 88//87 82//84
f 81//83 85//86 80//82
f 88//87 86//88 81//83
f 85//86 89//89 83//90
f 90//91 92//92 87//93
f 92//92 91//94 85//86
f 89//89 93//95 84//85
f 91//94 94//96 89//89
f 84//85 90//91 88//87
f 94//96 95//97 93//95
f 92//92 97//98 91//94
f 97//98 94//96 91//94
f 96//99 97//98 92//92
f 94//96 98//100 95//97
f 97//98 99//101 94//96
f 95//97 100//102 90//91
f 99//101 101//103 98//100
f 101//103 100//102 98//100
f 99//101 102//104 101//103
f 96//99 103//105 97//98
f 100//102 104//106 96//99
f 103//105 102//104 99//101
f 105//107 104//106 100//102
f 104//106 106//108 103//105
f 106//108 107//109 102//104
f 105//107 108//110 104//106
f 107//109 108//110 105//107
f 107//109 109//111 108//110
f 106//108 110//112 107//109
f 104//106 111//113 106//108
f 108//110 112//114 104//106
f 110//112 115//115 109//111
f 114//116 118//117 113//118
f 111//113 116//119 110//112
f 113//118 118//117 112//114
f 117//120 116//119 111//113
f 114//116 120//121 118//117
f 119//122 120//121 114//116
f 116//119 121//123 115//115
f 118//117 122//124 117//120
f 120//121 122//124 118//117
f 122//124 123//125 116//119
f 123//125 124//126 121//123
f 122//124 125//127 123//125
f 119//122 126//128 120//121
f 121//123 127//129 119//122
f 124//126 127//129 121//123
f 120//121 128//130 122//124
f 127//129 129//131 126//128
f 124//126 130//132 127//129
f 125//127 131//133 124//126
f 129//131 132//134 128//130
f 130//132 136//135 129//131
f 131//133 134//136 130//132
f 133//137 134//136 131//133
f 132//134 135//138 133//137
f 136//135 135//138 132//134
f 136//135 138//139 135//138
f 137//140 138//139 136//135
f 134//136 139//141 137//140
f 138//139 142//142 135//138
f 140//143 141//144 134//136
f 142//142 141//144 140//143
f 142//142 143//145 141//144
f 143//145 145//146 139//141
f 138//139 144//147 142//142
f 145//146 144//147 138//139
f 146//148 148//149 144//147
f 143//145 147//150 145//146
f 144//147 149//151 143//145
f 148//149 149//151 144//147
f 149//151 150//152 147//150
f 149//151 151//153 150//152
f 148//149 151//153 149//151
f 146//148 154//154 148//149
f 152//155 155//156 146//148
f 153//157 156//158 151//153
f 156//158 160//159 152//155
f 157//160 161//161 156//158
f 158//162 162//163 159//164
f 162//163 157//160 159//164
f 162//163 163//165 157//160
f 158//162 164//166 162//163
f 160//159 164//166 158//162
f 157//160 165//167 161//161
f 164//166 168//168 163//165
f 166//169 167//170 164//166
f 168//168 170//171 165//167
f 165//167 169//172 166//169
f 169//172 167//170 166//169
f 170//171 171//173 169//172
f 167//170 172//174 168//168
f 171//173 173//175 167//170
f 173//175 172//174 167//170
f 172//174 174//176 170//171
f 173//175 175//177 172//174
f 171//173 177//178 173//175
f 172//174 178//179 174//176
f 175//177 178//179 172//174
f 175//177 179//180 178//179
f 176//181 181//182 177//178
f 179//180 182//183 176//181
f 180//184 183//185 179//180
f 181//182 185//186 177//178
f 180//184 184//187 183//185
f 181//182 189//188 185//186
f 182//183 187//189 181//182
f 186//190 187//189 182//183
f 184//187 188//191 186//190
f 186//190 190//192 187//189
f 188//191 190//192 186//190
f 190//192 191//193 187//189
f 189//188 192//194 188//191
f 190//192 194//195 191//193
f 192//194 196//196 188//191
f 193//197 195//198 189//188
f 188//191 196//196 190//192
f 192//194 202//199 196//196
f 193//197 197//200 195//198
f 194//195 198//201 193//197
f 197//200 202//199 192//194
f 202//199 201//202 196//196
f 198//201 199//203 193//197
f 201//202 198//201 194//195
f 197//200 200//204 202//199
f 197//200 203//205 200//204
f 199//203 208//3 197//200
f 201//202 206//206 199//203
f 202//199 204//4 201//202
f 203//205 207//207 205//208
f 204//4 2//1 206//206
f 208//3 1//9 207//207
f 208//3 6//2 1//9
f 2//1 4//5 6//2
f 204//4 5//7 4//5
f 4//5 7//8 6//2
f 3//6 8//10 5//7
f 5//7 10//14 7//8
f 5//7 13//12 10//14
f 8//10 11//13 14//19
f 7//8 12//15 9//11
f 10//14 13//12 12//15
f 8//10 14//19 13//12
f 11//13 19//21 14//19
f 13//12 16//20 15//16
f 11//13 17//17 19//21
f 9//11 18//18 17//17
f 14//19 19//21 16//20
f 18//18 20//24 17//17
f 19//21 22//23 21//22
f 15//16 23//25 20//24
f 23//25 25//27 20//24
f 24//26 26//28 29//31
f 25//27 28//32 20//24
f 25//27 27//29 28//32
f 24//26 29//31 21//22
f 20//24 30//34 26//28
f 20//24 28//32 30//34
f 21//22 29//31 27//29
f 29//31 32//30 27//29
f 26//28 33//35 32//30
f 28//32 34//36 31//33
f 33//35 36//38 35//37
f 31//33 37//39 36//38
f 34//36 39//41 37//39
f 34//36 38//40 39//41
f 37//39 40//42 36//38
f 36//38 41//45 44//44
f 39//41 42//46 40//42
f 38//40 43//43 42//46
f 35//37 44//44 43//43
f 44//44 45//47 48//50
f 40//42 46//48 45//47
f 42//46 51//49 46//48
f 43//43 47//52 51//49
f 43//43 48//50 47//52
f 45//47 50//56 48//50
f 45//47 49//51 50//56
f 51//49 55//58 46//48
f 51//49 56//53 55//58
f 47//52 52//54 56//53
f 50//56 53//55 54//57
f 50//56 54//57 48//50
f 46//48 55//58 53//55
f 52//54 57//61 56//53
f 53//55 58//59 54//57
f 55//58 59//60 58//59
f 56//53 60//62 59//60
f 57//61 63//63 60//62
f 52//54 61//64 63//63
f 58//59 62//65 61//64
f 60//62 63//63 59//60
f 62//65 64//68 61//64
f 62//65 65//66 64//68
f 63//63 68//73 59//60
f 63//63 66//67 68//73
f 61//64 67//69 66//67
f 59//60 68//73 65//66
f 64//68 69//71 72//70
f 68//73 71//75 65//66
f 68//73 70//72 71//75
f 65//66 71//75 69//71
f 67//69 72//70 70//72
f 70//72 73//81 75//74
f 70//72 74//76 73//81
f 71//75 75//74 69//71
f 69//71 77//79 72//70
f 69//71 76//77 77//79
f 72//70 77//79 74//76
f 76//77 79//80 78//78
f 73//81 81//83 80//82
f 77//79 82//84 74//76
f 74//76 82//84 81//83
f 79//80 83//90 78//78
f 78//78 83//90 84//85
f 79//80 85//86 83//90
f 82//84 88//87 81//83
f 81//83 86//88 85//86
f 86//88 87//93 85//86
f 86//88 88//87 87//93
f 83//90 89//89 84//85
f 88//87 90//91 87//93
f 85//86 91//94 89//89
f 87//93 92//92 85//86
f 89//89 94//96 93//95
f 84//85 93//95 90//91
f 93//95 95//97 90//91
f 90//91 96//99 92//92
f 94//96 99//101 98//100
f 90//91 100//102 96//99
f 95//97 98//100 100//102
f 101//103 105//107 100//102
f 101//103 102//104 105//107
f 97//98 103//105 99//101
f 96//99 104//106 103//105
f 103//105 106//108 102//104
f 102//104 107//109 105//107
f 108//110 109//111 113//118
f 107//109 110//112 109//111
f 106//108 111//113 110//112
f 104//106 112//114 111//113
f 108//110 113//118 112//114
f 109//111 114//116 113//118
f 109//111 115//115 114//116
f 110//112 116//119 115//115
f 112//114 117//120 111//113
f 112//114 118//117 117//120
f 115//115 119//122 114//116
f 115//115 121//123 119//122
f 117//120 122//124 116//119
f 116//119 123//125 121//123
f 123//125 125//127 124//126
f 119//122 127//129 126//128
f 122//124 128//130 125//127
f 120//121 126//128 128//130
f 126//128 129//131 128//130
f 127//129 130//132 129//131
f 124//126 131//133 130//132
f 128//130 133//137 125//127
f 128//130 132//134 133//137
f 125//127 133//137 131//133
f 130//132 137//140 136//135
f 130//132 134//136 137//140
f 133//137 140//143 134//136
f 133//137 135//138 140//143
f 129//131 136//135 132//134
f 137//140 139//141 138//139
f 135//138 142//142 140//143
f 134//136 141//144 139//141
f 139//141 145//146 138//139
f 141//144 143//145 139//141
f 142//142 144//147 143//145
f 145//146 146//148 144//147
f 145//146 147//150 146//148
f 143//145 149//151 147//150
f 150//152 152//155 147//150
f 150//152 151//153 152//155
f 147//150 152//155 146//148
f 148//149 153//157 151//153
f 146//148 155//156 154//154
f 148//149 154//154 153//157
f 154//154 155//156 153//157
f 151//153 156//158 152//155
f 155//156 159//164 153//157
f 152//155 158//162 155//156
f 153//157 157//160 156//158
f 155//156 158//162 159//164
f 153//157 159//164 157//160
f 152//155 160//159 158//162
f 156//158 161//161 160//159
f 162//163 164//166 163//165
f 161//161 166//169 160//159
f 161//161 165//167 166//169
f 157//160 163//165 165//167
f 160//159 166//169 164//166
f 164//166 167//170 168//168
f 163//165 168//168 165//167
f 165//167 170//171 169//172
f 169//172 171//173 167//170
f 168//168 172//174 170//171
f 170//171 174//176 171//173
f 174//176 176//181 171//173
f 171//173 176//181 177//178
f 173//175 177//178 175//177
f 174//176 178//179 176//181
f 178//179 179//180 176//181
f 175//177 180//184 179//180
f 175//177 177//178 180//184
f 176//181 182//183 181//182
f 177//178 185//186 180//184
f 183//185 184//187 186//190
f 180//184 185//186 184//187
f 183//185 186//190 179//180
f 179//180 186//190 182//183
f 185//186 189//188 184//187
f 181//182 187//189 189//188
f 184//187 189//188 188//191
f 187//189 191//193 189//188
f 191//193 193//197 189//188
f 191//193 194//195 193//197
f 189//188 195//198 192//194
f 190//192 196//196 194//195
f 195//198 197//200 192//194
f 196//196 201//202 194//195
f 193//197 199//203 197//200
f 198//201 201//202 199//203
f 200//204 205//208 202//199
f 200//204 203//205 205//208
f 197//200 208//3 203//205
f 201//202 204//4 206//206
f 202//199 205//208 204//4
f 199//203 206//206 208//3
f 203//205 208//3 207//207
f 206//206 2//1 208//3
f 205//208 207//207 204//4
f 207//207 1//9 3//6
f 207//207 3//6 204//4
