# Blender v2.79 (sub 0) OBJ File: 'world_countrycodes_export2.blend'
# www.blender.org
mtllib MO.mtl
o MO.002_CUCurve.1874
v 0.910438 0.000000 0.490970
v 0.910383 0.000000 0.483259
v 0.916382 0.000000 0.479095
v 0.920087 0.000000 0.477074
v 0.922920 0.000000 0.476966
v 0.923349 0.000000 0.475702
v 0.924469 0.000000 0.475276
v 0.928033 0.000000 0.475191
v 0.929594 0.000000 0.474580
v 0.930805 0.000000 0.473150
v 0.931091 0.000000 0.471331
v 0.932006 0.000000 0.470533
v 0.936027 0.000000 0.470185
v 0.937325 0.000000 0.468750
v 0.938509 0.000000 0.468427
v 0.938573 0.000000 0.465274
v 0.938930 0.000000 0.463639
v 0.941498 0.000000 0.463541
v 0.943317 0.000000 0.462706
v 0.943894 0.000000 0.461353
v 0.946220 0.000000 0.460929
v 0.952456 0.000000 0.461233
v 0.953252 0.000000 0.460536
v 0.953473 0.000000 0.459040
v 0.952061 0.000000 0.455623
v 0.950810 0.000000 0.454970
v 0.950552 0.000000 0.453763
v 0.950877 0.000000 0.449472
v 0.950282 0.000000 0.445925
v 0.948182 0.000000 0.442340
v 0.946561 0.000000 0.442063
v 0.942190 0.000000 0.440712
v 0.935514 0.000000 0.441250
v 0.932687 0.000000 0.440377
v 0.930624 0.000000 0.438301
v 0.928877 0.000000 0.437164
v 0.927525 0.000000 0.437027
v 0.926133 0.000000 0.437699
v 0.920886 0.000000 0.448388
v 0.919033 0.000000 0.450290
v 0.915112 0.000000 0.452473
v 0.911186 0.000000 0.453087
v 0.910062 0.000000 0.453965
v 0.908356 0.000000 0.457045
v 0.906789 0.000000 0.458666
v 0.905519 0.000000 0.462031
v 0.903827 0.000000 0.463835
v 0.903153 0.000000 0.466002
v 0.903507 0.000000 0.469599
v 0.904539 0.000000 0.472237
v 0.904263 0.000000 0.473947
v 0.902186 0.000000 0.477025
v 0.899345 0.000000 0.480022
v 0.896443 0.000000 0.482057
v 0.893580 0.000000 0.484911
v 0.891360 0.000000 0.486297
v 0.888464 0.000000 0.487013
v 0.886474 0.000000 0.487856
v 0.885265 0.000000 0.488828
v 0.885547 0.000000 0.488828
v 0.886345 0.000000 0.488828
v 0.887586 0.000000 0.488828
v 0.889195 0.000000 0.488828
v 0.891099 0.000000 0.488828
v 0.893223 0.000000 0.488828
v 0.895496 0.000000 0.488828
v 0.897842 0.000000 0.488828
v 0.900187 0.000000 0.488828
v 0.902460 0.000000 0.488828
v 0.904584 0.000000 0.488828
v 0.906488 0.000000 0.488828
v 0.908759 0.000000 0.488936
v 0.909930 0.000000 0.489510
v 0.900187 0.050000 0.488828
v 0.902460 0.050000 0.488828
v 0.952061 0.050000 0.455623
v 0.950810 0.050000 0.454970
v 0.930624 0.050000 0.438301
v 0.926133 0.050000 0.437699
v 0.885547 0.050000 0.488828
v 0.886345 0.050000 0.488828
v 0.930805 0.050000 0.473150
v 0.904539 0.050000 0.472237
v 0.910383 0.050000 0.483259
v 0.893580 0.050000 0.484911
v 0.932006 0.050000 0.470533
v 0.950877 0.050000 0.449472
v 0.950282 0.050000 0.445925
v 0.932687 0.050000 0.440377
v 0.886474 0.050000 0.487856
v 0.908759 0.050000 0.488936
v 0.910438 0.050000 0.490970
v 0.909930 0.050000 0.489510
v 0.938930 0.050000 0.463639
v 0.903827 0.050000 0.463835
v 0.942190 0.050000 0.440712
v 0.920886 0.050000 0.448388
v 0.888464 0.050000 0.487013
v 0.920087 0.050000 0.477074
v 0.902186 0.050000 0.477025
v 0.904263 0.050000 0.473947
v 0.916382 0.050000 0.479095
v 0.938573 0.050000 0.465274
v 0.903153 0.050000 0.466002
v 0.906789 0.050000 0.458666
v 0.905519 0.050000 0.462031
v 0.943317 0.050000 0.462706
v 0.897842 0.050000 0.488828
v 0.885265 0.050000 0.488828
v 0.896443 0.050000 0.482057
v 0.903507 0.050000 0.469599
v 0.946220 0.050000 0.460929
v 0.908356 0.050000 0.457045
v 0.891360 0.050000 0.486297
v 0.910062 0.050000 0.453965
v 0.943894 0.050000 0.461353
v 0.923349 0.050000 0.475702
v 0.924469 0.050000 0.475276
v 0.891099 0.050000 0.488828
v 0.906488 0.050000 0.488828
v 0.928877 0.050000 0.437164
v 0.927525 0.050000 0.437027
v 0.919033 0.050000 0.450290
v 0.895496 0.050000 0.488828
v 0.935514 0.050000 0.441250
v 0.931091 0.050000 0.471331
v 0.941498 0.050000 0.463541
v 0.899345 0.050000 0.480022
v 0.950552 0.050000 0.453763
v 0.915112 0.050000 0.452473
v 0.946561 0.050000 0.442063
v 0.904584 0.050000 0.488828
v 0.936027 0.050000 0.470185
v 0.887586 0.050000 0.488828
v 0.893223 0.050000 0.488828
v 0.948182 0.050000 0.442340
v 0.929594 0.050000 0.474580
v 0.911186 0.050000 0.453087
v 0.938509 0.050000 0.468427
v 0.952456 0.050000 0.461233
v 0.953252 0.050000 0.460536
v 0.953473 0.050000 0.459040
v 0.937325 0.050000 0.468750
v 0.922920 0.050000 0.476966
v 0.889195 0.050000 0.488828
v 0.928033 0.050000 0.475191
vn 0.0000 -1.0000 0.0000
vn 0.0000 0.0000 1.0000
vn 0.0000 1.0000 0.0000
vn 0.0000 0.0000 -1.0000
vn -0.8290 0.0000 -0.5593
vn 0.2629 0.0000 0.9648
vn 0.5702 0.0000 0.8215
vn -0.6158 0.0000 -0.7879
vn 0.1685 0.0000 -0.9857
vn -0.0802 0.0000 -0.9968
vn -0.9356 0.0000 -0.3531
vn -0.7293 0.0000 -0.6842
vn -0.0472 0.0000 0.9989
vn -0.6265 0.0000 -0.7794
vn 1.0000 0.0000 -0.0070
vn 0.0239 0.0000 0.9997
vn 0.9878 0.0000 0.1555
vn 0.9199 0.0000 0.3922
vn 0.4172 0.0000 0.9088
vn -0.8747 0.0000 -0.4846
vn 0.9470 0.0000 0.3214
vn 0.9779 0.0000 -0.2090
vn 0.2952 0.0000 -0.9554
vn 0.3645 0.0000 0.9312
vn -0.7256 0.0000 -0.6881
vn 0.7632 0.0000 0.6462
vn 0.9771 0.0000 0.2128
vn -0.7190 0.0000 -0.6950
vn 0.6588 0.0000 0.7523
vn -0.1544 0.0000 -0.9880
vn -0.9952 0.0000 0.0979
vn -0.5294 0.0000 -0.8484
vn 0.4634 0.0000 -0.8862
vn -0.3903 0.0000 -0.9207
vn 0.5454 0.0000 -0.8382
vn 0.2951 0.0000 -0.9555
vn -0.7059 0.0000 -0.7083
vn 0.1793 0.0000 0.9838
vn 0.9892 0.0000 0.1463
vn -0.9313 0.0000 0.3643
vn -0.9873 0.0000 -0.1591
vn 0.0863 0.0000 0.9963
vn 0.7416 0.0000 0.6709
vn 0.3550 0.0000 0.9349
vn 0.9862 0.0000 -0.1653
vn -0.4865 0.0000 -0.8737
vn 0.0380 0.0000 0.9993
vn -0.4402 0.0000 0.8979
vn 0.6574 0.0000 0.7536
vn -0.9549 0.0000 -0.2969
vn 0.9998 0.0000 0.0204
vn -0.4348 0.0000 -0.9005
vn -0.9446 0.0000 0.3282
vn 0.4790 0.0000 0.8778
vn 0.0382 0.0000 0.9993
vn -0.5743 0.0000 -0.8186
vn 0.1007 0.0000 -0.9949
vn -0.2399 0.0000 -0.9708
vn 0.9241 0.0000 -0.3821
vn 0.7093 0.0000 -0.7049
vn -0.0488 0.0000 0.9988
vn -0.7162 0.0000 -0.6979
vn 0.9972 0.0000 0.0754
vn 0.8628 0.0000 -0.5056
vn -0.8977 0.0000 -0.4406
usemtl SVGMat.3781
s off
f 38//1 37//1 36//1
f 38//1 36//1 35//1
f 38//1 35//1 34//1
f 39//1 38//1 34//1
f 39//1 34//1 33//1
f 39//1 33//1 32//1
f 39//1 32//1 31//1
f 39//1 31//1 30//1
f 39//1 30//1 29//1
f 39//1 29//1 28//1
f 40//1 39//1 28//1
f 41//1 40//1 28//1
f 41//1 28//1 27//1
f 42//1 41//1 27//1
f 43//1 42//1 27//1
f 43//1 27//1 26//1
f 43//1 26//1 25//1
f 44//1 43//1 25//1
f 44//1 25//1 24//1
f 45//1 44//1 24//1
f 45//1 24//1 23//1
f 46//1 45//1 23//1
f 46//1 23//1 21//1
f 21//1 23//1 22//1
f 46//1 21//1 20//1
f 46//1 20//1 19//1
f 47//1 46//1 19//1
f 47//1 19//1 18//1
f 47//1 18//1 17//1
f 47//1 17//1 16//1
f 48//1 47//1 16//1
f 48//1 16//1 15//1
f 49//1 48//1 15//1
f 49//1 15//1 14//1
f 49//1 14//1 13//1
f 49//1 13//1 12//1
f 50//1 49//1 12//1
f 50//1 12//1 11//1
f 50//1 11//1 10//1
f 51//1 50//1 10//1
f 51//1 10//1 9//1
f 51//1 9//1 8//1
f 51//1 8//1 7//1
f 51//1 7//1 6//1
f 52//1 51//1 6//1
f 52//1 6//1 5//1
f 52//1 5//1 4//1
f 52//1 4//1 3//1
f 53//1 52//1 3//1
f 53//1 3//1 2//1
f 54//1 53//1 2//1
f 55//1 54//1 2//1
f 56//1 55//1 2//1
f 57//1 56//1 2//1
f 58//1 57//1 2//1
f 58//1 2//1 72//1
f 71//1 58//1 72//1
f 59//1 58//1 71//1
f 60//2 59//2 71//2
f 61//2 60//2 71//2
f 62//2 61//2 71//2
f 63//2 62//2 71//2
f 64//2 63//2 71//2
f 65//2 64//2 71//2
f 66//2 65//2 71//2
f 67//2 66//2 71//2
f 68//2 67//2 71//2
f 69//2 68//2 71//2
f 70//2 69//2 71//2
f 73//1 72//1 2//1
f 73//1 2//1 1//1
f 79//3 121//3 122//3
f 79//3 78//3 121//3
f 79//3 89//3 78//3
f 97//3 89//3 79//3
f 97//3 125//3 89//3
f 97//3 96//3 125//3
f 97//3 131//3 96//3
f 97//3 136//3 131//3
f 97//3 88//3 136//3
f 97//3 87//3 88//3
f 123//3 87//3 97//3
f 130//3 87//3 123//3
f 130//3 129//3 87//3
f 138//3 129//3 130//3
f 115//3 129//3 138//3
f 115//3 77//3 129//3
f 115//3 76//3 77//3
f 113//3 76//3 115//3
f 113//3 142//3 76//3
f 105//3 142//3 113//3
f 105//3 141//3 142//3
f 106//3 141//3 105//3
f 106//3 112//3 141//3
f 112//3 140//3 141//3
f 106//3 116//3 112//3
f 106//3 107//3 116//3
f 95//3 107//3 106//3
f 95//3 127//3 107//3
f 95//3 94//3 127//3
f 95//3 103//3 94//3
f 104//3 103//3 95//3
f 104//3 139//3 103//3
f 111//3 139//3 104//3
f 111//3 143//3 139//3
f 111//3 133//3 143//3
f 111//3 86//3 133//3
f 83//3 86//3 111//3
f 83//3 126//3 86//3
f 83//3 82//3 126//3
f 101//3 82//3 83//3
f 101//3 137//3 82//3
f 101//3 146//3 137//3
f 101//3 118//3 146//3
f 101//3 117//3 118//3
f 100//3 117//3 101//3
f 100//3 144//3 117//3
f 100//3 99//3 144//3
f 100//3 102//3 99//3
f 128//3 102//3 100//3
f 128//3 84//3 102//3
f 110//3 84//3 128//3
f 85//3 84//3 110//3
f 114//3 84//3 85//3
f 98//3 84//3 114//3
f 90//3 84//3 98//3
f 90//3 91//3 84//3
f 120//3 91//3 90//3
f 109//3 120//3 90//3
f 80//2 120//2 109//2
f 81//2 120//2 80//2
f 134//2 120//2 81//2
f 145//4 120//4 134//4
f 119//2 120//2 145//2
f 135//2 120//2 119//2
f 124//2 120//2 135//2
f 108//2 120//2 124//2
f 74//4 120//4 108//4
f 75//2 120//2 74//2
f 132//2 120//2 75//2
f 93//3 84//3 91//3
f 93//3 92//3 84//3
f 51//5 52//5 100//5 101//5
f 14//6 15//6 139//6 143//6
f 2//7 3//7 102//7 84//7
f 42//8 43//8 115//8 138//8
f 66//2 67//2 108//2 124//2
f 30//9 31//9 131//9 136//9
f 32//10 33//10 125//10 96//10
f 45//11 46//11 106//11 105//11
f 46//12 47//12 95//12 106//12
f 71//13 72//13 91//13 120//13
f 58//14 59//14 109//14 90//14
f 1//15 2//15 84//15 92//15
f 7//16 8//16 146//16 118//16
f 10//17 11//17 126//17 82//17
f 19//18 20//18 116//18 107//18
f 64//2 65//2 135//2 119//2
f 18//19 19//19 107//19 127//19
f 67//2 68//2 74//2 108//2
f 43//20 44//20 113//20 115//20
f 5//21 6//21 117//21 144//21
f 26//22 27//22 129//22 77//22
f 59//2 60//2 80//2 109//2
f 31//23 32//23 96//23 131//23
f 65//2 66//2 124//2 135//2
f 8//24 9//24 137//24 146//24
f 52//25 53//25 128//25 100//25
f 9//26 10//26 82//26 137//26
f 16//27 17//27 94//27 103//27
f 44//28 45//28 105//28 113//28
f 22//29 23//29 141//29 140//29
f 41//30 42//30 138//30 130//30
f 68//2 69//2 75//2 74//2
f 48//31 49//31 111//31 104//31
f 55//32 56//32 114//32 85//32
f 25//33 26//33 77//33 76//33
f 57//34 58//34 90//34 98//34
f 35//35 36//35 121//35 78//35
f 33//36 34//36 89//36 125//36
f 54//37 55//37 85//37 110//37
f 60//2 61//2 81//2 80//2
f 69//2 70//2 132//2 75//2
f 20//38 21//38 112//38 116//38
f 23//39 24//39 142//39 141//39
f 49//40 50//40 83//40 111//40
f 62//2 63//2 145//2 134//2
f 50//41 51//41 101//41 83//41
f 12//42 13//42 133//42 86//42
f 13//43 14//43 143//43 133//43
f 61//2 62//2 134//2 81//2
f 6//44 7//44 118//44 117//44
f 28//45 29//45 88//45 87//45
f 40//46 41//46 130//46 123//46
f 4//47 5//47 144//47 99//47
f 72//48 73//48 93//48 91//48
f 11//49 12//49 86//49 126//49
f 47//50 48//50 104//50 95//50
f 15//51 16//51 103//51 139//51
f 37//52 38//52 79//52 122//52
f 73//53 1//53 92//53 93//53
f 63//2 64//2 119//2 145//2
f 3//54 4//54 99//54 102//54
f 17//55 18//55 127//55 94//55
f 53//56 54//56 110//56 128//56
f 36//57 37//57 122//57 121//57
f 56//58 57//58 98//58 114//58
f 24//59 25//59 76//59 142//59
f 34//60 35//60 78//60 89//60
f 21//61 22//61 140//61 112//61
f 39//62 40//62 123//62 97//62
f 70//2 71//2 120//2 132//2
f 27//63 28//63 87//63 129//63
f 29//64 30//64 136//64 88//64
f 38//65 39//65 97//65 79//65
