# Blender v2.79 (sub 0) OBJ File: 'world_countrycodes_export2.blend'
# www.blender.org
mtllib MR.mtl
o MR.002_CUCurve.1856
v 0.872904 0.000000 0.556320
v 0.875260 0.000000 0.555607
v 0.877593 0.000000 0.555778
v 0.879490 0.000000 0.557086
v 0.880926 0.000000 0.558637
v 0.881081 0.000000 0.558637
v 0.881233 0.000000 0.558637
v 0.881413 0.000000 0.558637
v 0.881613 0.000000 0.558637
v 0.881828 0.000000 0.558637
v 0.882049 0.000000 0.558637
v 0.882271 0.000000 0.558637
v 0.882485 0.000000 0.558637
v 0.882686 0.000000 0.558637
v 0.882866 0.000000 0.558637
v 0.883744 0.000000 0.560691
v 0.885807 0.000000 0.563276
v 0.888092 0.000000 0.564429
v 0.889781 0.000000 0.566591
v 0.892490 0.000000 0.565616
v 0.892791 0.000000 0.563732
v 0.893410 0.000000 0.562659
v 0.894659 0.000000 0.562431
v 0.897392 0.000000 0.564439
v 0.898359 0.000000 0.564293
v 0.899274 0.000000 0.562551
v 0.902793 0.000000 0.563210
v 0.906440 0.000000 0.562198
v 0.928630 0.000000 0.561949
v 0.929296 0.000000 0.560047
v 0.929325 0.000000 0.557033
v 0.927542 0.000000 0.555251
v 0.922208 0.000000 0.505138
v 0.931786 0.000000 0.505138
v 0.911068 0.000000 0.491597
v 0.910664 0.000000 0.491151
v 0.910633 0.000000 0.499192
v 0.906008 0.000000 0.499382
v 0.891530 0.000000 0.499185
v 0.891489 0.000000 0.514846
v 0.885633 0.000000 0.518134
v 0.885603 0.000000 0.527457
v 0.863189 0.000000 0.527465
v 0.863430 0.000000 0.530089
v 0.864545 0.000000 0.531977
v 0.866754 0.000000 0.534268
v 0.866983 0.000000 0.535985
v 0.866523 0.000000 0.539581
v 0.866919 0.000000 0.541737
v 0.868510 0.000000 0.544549
v 0.868318 0.000000 0.549068
v 0.865599 0.000000 0.554761
v 0.864924 0.000000 0.557755
v 0.864859 0.000000 0.559230
v 0.864863 0.000000 0.559230
v 0.864874 0.000000 0.559230
v 0.864890 0.000000 0.559230
v 0.864912 0.000000 0.559230
v 0.864937 0.000000 0.559230
v 0.864965 0.000000 0.559230
v 0.864995 0.000000 0.559230
v 0.865027 0.000000 0.559230
v 0.865058 0.000000 0.559230
v 0.865088 0.000000 0.559230
v 0.865116 0.000000 0.559230
v 0.865142 0.000000 0.559230
v 0.865745 0.000000 0.558758
v 0.866732 0.000000 0.556644
v 0.867481 0.000000 0.556188
v 0.888092 0.050000 0.564429
v 0.889781 0.050000 0.566591
v 0.864965 0.050000 0.559230
v 0.864995 0.050000 0.559230
v 0.897392 0.050000 0.564439
v 0.898359 0.050000 0.564293
v 0.882485 0.050000 0.558637
v 0.882686 0.050000 0.558637
v 0.880926 0.050000 0.558637
v 0.881081 0.050000 0.558637
v 0.910633 0.050000 0.499192
v 0.906008 0.050000 0.499382
v 0.877593 0.050000 0.555778
v 0.879490 0.050000 0.557086
v 0.866754 0.050000 0.534268
v 0.866983 0.050000 0.535985
v 0.927542 0.050000 0.555251
v 0.863430 0.050000 0.530089
v 0.891530 0.050000 0.499185
v 0.865599 0.050000 0.554761
v 0.866732 0.050000 0.556644
v 0.929325 0.050000 0.557033
v 0.885807 0.050000 0.563276
v 0.893410 0.050000 0.562659
v 0.867481 0.050000 0.556188
v 0.928630 0.050000 0.561949
v 0.929296 0.050000 0.560047
v 0.865027 0.050000 0.559230
v 0.865142 0.050000 0.559230
v 0.882866 0.050000 0.558637
v 0.922208 0.050000 0.505138
v 0.864937 0.050000 0.559230
v 0.866523 0.050000 0.539581
v 0.883744 0.050000 0.560691
v 0.906440 0.050000 0.562198
v 0.931786 0.050000 0.505138
v 0.881828 0.050000 0.558637
v 0.894659 0.050000 0.562431
v 0.899274 0.050000 0.562551
v 0.864863 0.050000 0.559230
v 0.881233 0.050000 0.558637
v 0.875260 0.050000 0.555607
v 0.866919 0.050000 0.541737
v 0.868510 0.050000 0.544549
v 0.891489 0.050000 0.514846
v 0.864924 0.050000 0.557755
v 0.864859 0.050000 0.559230
v 0.864545 0.050000 0.531977
v 0.863189 0.050000 0.527465
v 0.911068 0.050000 0.491597
v 0.892791 0.050000 0.563732
v 0.865745 0.050000 0.558758
v 0.902793 0.050000 0.563210
v 0.882049 0.050000 0.558637
v 0.882271 0.050000 0.558637
v 0.885633 0.050000 0.518134
v 0.885603 0.050000 0.527457
v 0.865058 0.050000 0.559230
v 0.881613 0.050000 0.558637
v 0.864874 0.050000 0.559230
v 0.881413 0.050000 0.558637
v 0.892490 0.050000 0.565616
v 0.864890 0.050000 0.559230
v 0.865088 0.050000 0.559230
v 0.865116 0.050000 0.559230
v 0.872904 0.050000 0.556320
v 0.864912 0.050000 0.559230
v 0.868318 0.050000 0.549068
v 0.910664 0.050000 0.491151
vn 0.0000 -1.0000 0.0000
vn 0.0000 0.0000 1.0000
vn 0.0000 1.0000 0.0000
vn 0.0000 0.0000 -1.0000
vn 0.8659 0.0000 0.5002
vn 1.0000 0.0000 0.0095
vn 0.6156 0.0000 0.7880
vn 0.2674 0.0000 0.9636
vn 0.9944 0.0000 -0.1058
vn 0.8853 0.0000 0.4651
vn -0.4507 0.0000 0.8927
vn -0.9991 0.0000 -0.0423
vn -0.8612 0.0000 0.5083
vn -0.1840 0.0000 0.9829
vn -1.0000 0.0000 -0.0038
vn -0.4895 0.0000 -0.8720
vn -0.9755 0.0000 -0.2200
vn -1.0000 0.0000 -0.0032
vn 0.7414 0.0000 -0.6711
vn 0.3389 0.0000 0.9408
vn -0.0729 0.0000 0.9973
vn 0.5471 0.0000 -0.8371
vn -0.9024 0.0000 -0.4310
vn -0.7879 0.0000 0.6158
vn 0.9875 0.0000 0.1579
vn -0.0243 0.0000 0.9997
vn 0.2894 0.0000 0.9572
vn 0.1493 0.0000 0.9888
vn -0.9194 0.0000 0.3933
vn -0.0409 0.0000 -0.9992
vn -0.7816 0.0000 0.6237
vn -0.7336 0.0000 0.6795
vn -0.5677 0.0000 0.8232
vn 0.9061 0.0000 0.4230
vn -0.8705 0.0000 0.4922
vn -0.9912 0.0000 0.1321
vn -0.9919 0.0000 -0.1269
vn 0.1796 0.0000 0.9837
vn 0.0136 0.0000 -0.9999
vn -0.9990 0.0000 -0.0438
vn -0.7197 0.0000 0.6943
vn 0.7070 0.0000 -0.7072
vn -1.0000 0.0000 -0.0026
vn -0.9835 0.0000 0.1807
vn -0.9958 0.0000 0.0916
vn 0.0112 0.0000 0.9999
vn 0.5210 0.0000 0.8536
vn -0.0004 0.0000 -1.0000
vn 0.9438 0.0000 0.3305
vn -0.5920 0.0000 0.8059
usemtl SVGMat.3781
s off
f 37//1 36//1 35//1
f 37//1 35//1 34//1
f 38//1 37//1 34//1
f 39//1 38//1 34//1
f 33//1 39//1 34//1
f 39//1 33//1 32//1
f 40//1 39//1 32//1
f 41//1 40//1 32//1
f 42//1 41//1 32//1
f 43//1 42//1 32//1
f 44//1 43//1 32//1
f 45//1 44//1 32//1
f 46//1 45//1 32//1
f 47//1 46//1 32//1
f 48//1 47//1 32//1
f 49//1 48//1 32//1
f 50//1 49//1 32//1
f 51//1 50//1 32//1
f 52//1 51//1 32//1
f 2//1 52//1 32//1
f 3//1 2//1 32//1
f 4//1 3//1 32//1
f 69//1 52//1 2//1
f 69//1 2//1 1//1
f 52//1 69//1 68//1
f 53//1 52//1 68//1
f 4//1 32//1 31//1
f 53//1 68//1 67//1
f 4//1 31//1 30//1
f 5//1 4//1 6//1
f 6//1 4//1 15//1
f 15//1 4//1 30//1
f 7//2 6//2 15//2
f 8//2 7//2 15//2
f 9//2 8//2 15//2
f 10//2 9//2 15//2
f 11//2 10//2 15//2
f 12//2 11//2 15//2
f 13//2 12//2 15//2
f 14//2 13//2 15//2
f 16//1 15//1 30//1
f 54//1 53//1 67//1
f 54//1 67//1 66//1
f 55//2 54//2 66//2
f 56//2 55//2 66//2
f 57//2 56//2 66//2
f 58//2 57//2 66//2
f 59//2 58//2 66//2
f 60//2 59//2 66//2
f 61//2 60//2 66//2
f 62//2 61//2 66//2
f 63//2 62//2 66//2
f 64//2 63//2 66//2
f 65//2 64//2 66//2
f 16//1 30//1 29//1
f 17//1 16//1 23//1
f 23//1 16//1 28//1
f 28//1 16//1 29//1
f 17//1 23//1 22//1
f 23//1 28//1 26//1
f 26//1 28//1 27//1
f 17//1 22//1 21//1
f 23//1 26//1 25//1
f 24//1 23//1 25//1
f 18//1 17//1 21//1
f 18//1 21//1 20//1
f 19//1 18//1 20//1
f 80//3 119//3 138//3
f 80//3 105//3 119//3
f 81//3 105//3 80//3
f 88//3 105//3 81//3
f 100//3 105//3 88//3
f 88//3 86//3 100//3
f 114//3 86//3 88//3
f 125//3 86//3 114//3
f 126//3 86//3 125//3
f 118//3 86//3 126//3
f 87//3 86//3 118//3
f 117//3 86//3 87//3
f 84//3 86//3 117//3
f 85//3 86//3 84//3
f 102//3 86//3 85//3
f 112//3 86//3 102//3
f 113//3 86//3 112//3
f 137//3 86//3 113//3
f 89//3 86//3 137//3
f 111//3 86//3 89//3
f 82//3 86//3 111//3
f 83//3 86//3 82//3
f 94//3 111//3 89//3
f 94//3 135//3 111//3
f 89//3 90//3 94//3
f 115//3 90//3 89//3
f 83//3 91//3 86//3
f 115//3 121//3 90//3
f 83//3 96//3 91//3
f 78//3 79//3 83//3
f 79//3 99//3 83//3
f 99//3 96//3 83//3
f 110//2 99//2 79//2
f 130//2 99//2 110//2
f 128//2 99//2 130//2
f 106//2 99//2 128//2
f 123//2 99//2 106//2
f 124//2 99//2 123//2
f 76//4 99//4 124//4
f 77//2 99//2 76//2
f 103//3 96//3 99//3
f 116//3 121//3 115//3
f 116//3 98//3 121//3
f 109//4 98//4 116//4
f 129//2 98//2 109//2
f 132//2 98//2 129//2
f 136//2 98//2 132//2
f 101//2 98//2 136//2
f 72//2 98//2 101//2
f 73//2 98//2 72//2
f 97//2 98//2 73//2
f 127//2 98//2 97//2
f 133//2 98//2 127//2
f 134//2 98//2 133//2
f 103//3 95//3 96//3
f 92//3 107//3 103//3
f 107//3 104//3 103//3
f 104//3 95//3 103//3
f 92//3 93//3 107//3
f 107//3 108//3 104//3
f 108//3 122//3 104//3
f 92//3 120//3 93//3
f 107//3 75//3 108//3
f 74//3 75//3 107//3
f 70//3 120//3 92//3
f 70//3 131//3 120//3
f 71//3 131//3 70//3
f 21//5 22//5 93//5 120//5
f 30//6 31//6 91//6 96//6
f 55//2 56//2 129//2 109//2
f 66//7 67//7 121//7 98//7
f 65//2 66//2 98//2 134//2
f 27//8 28//8 104//8 122//8
f 32//9 33//9 100//9 86//9
f 25//10 26//10 108//10 75//10
f 17//11 18//11 70//11 92//11
f 56//2 57//2 132//2 129//2
f 59//2 60//2 72//2 101//2
f 50//12 51//12 137//12 113//12
f 64//2 65//2 134//2 133//2
f 11//2 12//2 124//2 123//2
f 44//13 45//13 117//13 87//13
f 26//14 27//14 122//14 108//14
f 12//2 13//2 76//2 124//2
f 9//2 10//2 106//2 128//2
f 54//2 55//2 109//2 116//2
f 36//15 37//15 80//15 138//15
f 40//16 41//16 125//16 114//16
f 52//17 53//17 115//17 89//17
f 41//18 42//18 126//18 125//18
f 35//19 36//19 138//19 119//19
f 33//2 34//2 105//2 100//2
f 19//20 20//20 131//20 71//20
f 2//21 3//21 82//21 111//21
f 58//2 59//2 101//2 136//2
f 34//22 35//22 119//22 105//22
f 51//23 52//23 89//23 137//23
f 18//24 19//24 71//24 70//24
f 62//2 63//2 127//2 97//2
f 60//2 61//2 73//2 72//2
f 20//25 21//25 120//25 131//25
f 69//26 1//26 135//26 94//26
f 61//2 62//2 97//2 73//2
f 14//2 15//2 99//2 77//2
f 1//27 2//27 111//27 135//27
f 24//28 25//28 75//28 74//28
f 13//2 14//2 77//2 76//2
f 7//2 8//2 130//2 110//2
f 6//2 7//2 110//2 79//2
f 5//2 6//2 79//2 78//2
f 15//29 16//29 103//29 99//29
f 37//30 38//30 81//30 80//30
f 16//31 17//31 92//31 103//31
f 4//32 5//32 78//32 83//32
f 3//33 4//33 83//33 82//33
f 67//34 68//34 90//34 121//34
f 49//35 50//35 113//35 112//35
f 46//36 47//36 85//36 84//36
f 47//37 48//37 102//37 85//37
f 22//38 23//38 107//38 93//38
f 38//39 39//39 88//39 81//39
f 57//2 58//2 136//2 132//2
f 8//2 9//2 128//2 130//2
f 53//40 54//40 116//40 115//40
f 45//41 46//41 84//41 117//41
f 31//42 32//42 86//42 91//42
f 39//43 40//43 114//43 88//43
f 63//2 64//2 133//2 127//2
f 48//44 49//44 112//44 102//44
f 43//45 44//45 87//45 118//45
f 28//46 29//46 95//46 104//46
f 68//47 69//47 94//47 90//47
f 42//48 43//48 118//48 126//48
f 29//49 30//49 96//49 95//49
f 10//2 11//2 123//2 106//2
f 23//50 24//50 74//50 107//50
