# Blender v2.79 (sub 0) OBJ File: 'world_countrycodes_export2.blend'
# www.blender.org
mtllib MW.mtl
o MW.002_CUCurve.1725
v 1.159042 0.000000 0.734996
v 1.156910 0.000000 0.732686
v 1.155307 0.000000 0.731325
v 1.155147 0.000000 0.732100
v 1.154462 0.000000 0.732635
v 1.153349 0.000000 0.732206
v 1.152010 0.000000 0.730772
v 1.150059 0.000000 0.727471
v 1.148976 0.000000 0.723995
v 1.148894 0.000000 0.721332
v 1.150183 0.000000 0.716454
v 1.149832 0.000000 0.714219
v 1.148132 0.000000 0.709777
v 1.147730 0.000000 0.707262
v 1.148187 0.000000 0.706066
v 1.144406 0.000000 0.706086
v 1.145482 0.000000 0.708115
v 1.146702 0.000000 0.711869
v 1.146332 0.000000 0.712237
v 1.145235 0.000000 0.712211
v 1.144502 0.000000 0.713012
v 1.144068 0.000000 0.717243
v 1.144380 0.000000 0.721261
v 1.145154 0.000000 0.722635
v 1.144716 0.000000 0.722878
v 1.143018 0.000000 0.723097
v 1.142621 0.000000 0.723448
v 1.142053 0.000000 0.728707
v 1.141448 0.000000 0.729630
v 1.142744 0.000000 0.731729
v 1.142713 0.000000 0.731776
v 1.142713 0.000000 0.731776
v 1.142713 0.000000 0.731776
v 1.142713 0.000000 0.731776
v 1.142713 0.000000 0.731776
v 1.142713 0.000000 0.731776
v 1.142713 0.000000 0.731776
v 1.142713 0.000000 0.731776
v 1.142713 0.000000 0.731776
v 1.142713 0.000000 0.731776
v 1.142713 0.000000 0.731776
v 1.142713 0.000000 0.731776
v 1.145450 0.000000 0.734046
v 1.146493 0.000000 0.734480
v 1.148910 0.000000 0.733841
v 1.150382 0.000000 0.734015
v 1.151016 0.000000 0.734806
v 1.151184 0.000000 0.736840
v 1.149780 0.000000 0.742349
v 1.152307 0.000000 0.746382
v 1.154812 0.000000 0.749459
v 1.155218 0.000000 0.749324
v 1.154876 0.000000 0.746457
v 1.155081 0.000000 0.744902
v 1.156012 0.000000 0.743849
v 1.158087 0.000000 0.743282
v 1.158768 0.000000 0.742120
v 1.158844 0.000000 0.738479
v 1.159383 0.000000 0.736046
v 1.156910 0.050000 0.732686
v 1.155147 0.050000 0.732100
v 1.148910 0.050000 0.733841
v 1.150382 0.050000 0.734015
v 1.148894 0.050000 0.721332
v 1.144068 0.050000 0.717243
v 1.144716 0.050000 0.722878
v 1.143018 0.050000 0.723097
v 1.150183 0.050000 0.716454
v 1.149832 0.050000 0.714219
v 1.156012 0.050000 0.743849
v 1.158087 0.050000 0.743282
v 1.148132 0.050000 0.709777
v 1.147730 0.050000 0.707262
v 1.149780 0.050000 0.742349
v 1.158768 0.050000 0.742120
v 1.153349 0.050000 0.732206
v 1.142744 0.050000 0.731729
v 1.152307 0.050000 0.746382
v 1.159042 0.050000 0.734996
v 1.154462 0.050000 0.732635
v 1.150059 0.050000 0.727471
v 1.141448 0.050000 0.729630
v 1.145482 0.050000 0.708115
v 1.148187 0.050000 0.706066
v 1.144406 0.050000 0.706086
v 1.151016 0.050000 0.734806
v 1.151184 0.050000 0.736840
v 1.144380 0.050000 0.721261
v 1.145154 0.050000 0.722635
v 1.144502 0.050000 0.713012
v 1.145235 0.050000 0.712211
v 1.159383 0.050000 0.736046
v 1.142053 0.050000 0.728707
v 1.142621 0.050000 0.723448
v 1.158844 0.050000 0.738479
v 1.146702 0.050000 0.711869
v 1.146332 0.050000 0.712237
v 1.148976 0.050000 0.723995
v 1.152010 0.050000 0.730772
v 1.154812 0.050000 0.749459
v 1.154876 0.050000 0.746457
v 1.146493 0.050000 0.734480
v 1.155218 0.050000 0.749324
v 1.145450 0.050000 0.734046
v 1.155081 0.050000 0.744902
v 1.155307 0.050000 0.731325
vn 0.0000 -1.0000 0.0000
vn 0.0000 1.0000 0.0000
vn 0.8627 0.0000 0.5057
vn 0.2633 0.0000 0.9647
vn 0.9339 0.0000 -0.3575
vn -0.9942 0.0000 -0.1073
vn 0.7348 0.0000 -0.6782
vn 0.6472 0.0000 -0.7623
vn 0.9875 0.0000 -0.1577
vn 0.2555 0.0000 0.9668
vn 0.9341 0.0000 0.3569
vn 0.0233 0.0000 -0.9997
vn 0.9914 0.0000 0.1307
vn 0.7308 0.0000 -0.6826
vn 0.9998 0.0000 0.0210
vn -0.8474 0.0000 0.5309
vn -0.8835 0.0000 0.4685
vn -0.7046 0.0000 -0.7096
vn -0.9690 0.0000 -0.2471
vn -0.9510 0.0000 0.3092
vn -0.7376 0.0000 -0.6752
vn -0.6160 0.0000 -0.7878
vn -0.7810 0.0000 0.6245
vn -0.8509 0.0000 0.5253
vn -0.9793 0.0000 -0.2024
vn -0.6503 0.0000 0.7597
vn 0.9995 0.0000 -0.0310
vn -0.6618 0.0000 -0.7497
vn 0.3596 0.0000 -0.9331
vn -0.9970 0.0000 0.0774
vn -0.8365 0.0000 -0.5480
vn 0.9511 0.0000 -0.3088
vn -0.0053 0.0000 -1.0000
vn 0.3159 0.0000 0.9488
vn -0.1168 0.0000 0.9932
vn -0.9966 0.0000 0.0828
vn 0.9668 0.0000 0.2555
vn -0.4862 0.0000 -0.8738
vn 0.9764 0.0000 0.2162
vn 0.7493 0.0000 0.6622
vn -0.3847 0.0000 0.9230
vn -0.8713 0.0000 0.4908
vn 0.9930 0.0000 -0.1183
vn -0.1279 0.0000 -0.9918
vn 0.9547 0.0000 -0.2975
vn -0.9948 0.0000 -0.1019
vn 0.9879 0.0000 -0.1550
vn 0.8610 0.0000 -0.5086
vn -0.7754 0.0000 0.6314
usemtl SVGMat.3781
s off
f 16//1 15//1 14//1
f 17//1 16//1 14//1
f 17//1 14//1 13//1
f 18//1 17//1 13//1
f 18//1 13//1 12//1
f 19//1 18//1 12//1
f 20//1 19//1 12//1
f 21//1 20//1 12//1
f 21//1 12//1 11//1
f 22//1 21//1 11//1
f 22//1 11//1 10//1
f 23//1 22//1 10//1
f 24//1 23//1 10//1
f 24//1 10//1 9//1
f 25//1 24//1 9//1
f 26//1 25//1 9//1
f 27//1 26//1 9//1
f 27//1 9//1 8//1
f 28//1 27//1 8//1
f 29//1 28//1 8//1
f 29//1 8//1 7//1
f 30//1 29//1 7//1
f 30//1 7//1 6//1
f 4//1 3//1 2//1
f 5//1 4//1 2//1
f 30//1 6//1 5//1
f 43//1 30//1 5//1
f 43//1 5//1 2//1
f 43//1 2//1 45//1
f 46//1 45//1 2//1
f 46//1 2//1 1//1
f 43//1 45//1 44//1
f 47//1 46//1 1//1
f 48//1 47//1 1//1
f 48//1 1//1 59//1
f 48//1 59//1 58//1
f 49//1 48//1 58//1
f 49//1 58//1 57//1
f 49//1 57//1 56//1
f 49//1 56//1 55//1
f 50//1 49//1 55//1
f 50//1 55//1 54//1
f 50//1 54//1 53//1
f 51//1 50//1 53//1
f 51//1 53//1 52//1
f 85//2 73//2 84//2
f 83//2 73//2 85//2
f 83//2 72//2 73//2
f 96//2 72//2 83//2
f 96//2 69//2 72//2
f 97//2 69//2 96//2
f 91//2 69//2 97//2
f 90//2 69//2 91//2
f 90//2 68//2 69//2
f 65//2 68//2 90//2
f 65//2 64//2 68//2
f 88//2 64//2 65//2
f 89//2 64//2 88//2
f 89//2 98//2 64//2
f 66//2 98//2 89//2
f 67//2 98//2 66//2
f 94//2 98//2 67//2
f 94//2 81//2 98//2
f 93//2 81//2 94//2
f 82//2 81//2 93//2
f 82//2 99//2 81//2
f 77//2 99//2 82//2
f 77//2 76//2 99//2
f 61//2 60//2 106//2
f 80//2 60//2 61//2
f 77//2 80//2 76//2
f 104//2 80//2 77//2
f 104//2 60//2 80//2
f 104//2 62//2 60//2
f 63//2 60//2 62//2
f 63//2 79//2 60//2
f 104//2 102//2 62//2
f 86//2 79//2 63//2
f 87//2 79//2 86//2
f 87//2 92//2 79//2
f 87//2 95//2 92//2
f 74//2 95//2 87//2
f 74//2 75//2 95//2
f 74//2 71//2 75//2
f 74//2 70//2 71//2
f 78//2 70//2 74//2
f 78//2 105//2 70//2
f 78//2 101//2 105//2
f 100//2 101//2 78//2
f 100//2 103//2 101//2
f 56//3 57//3 75//3 71//3
f 55//4 56//4 71//4 70//4
f 12//5 13//5 72//5 69//5
f 27//6 28//6 93//6 94//6
f 1//7 2//7 60//7 79//7
f 2//8 3//8 106//8 60//8
f 13//9 14//9 73//9 72//9
f 44//10 45//10 62//10 102//10
f 14//11 15//11 84//11 73//11
f 19//12 20//12 91//12 97//12
f 53//13 54//13 105//13 101//13
f 6//14 7//14 99//14 76//14
f 57//15 58//15 95//15 75//15
f 49//16 50//16 78//16 74//16
f 16//17 17//17 83//17 85//17
f 18//18 19//18 97//18 96//18
f 48//19 49//19 74//19 87//19
f 17//20 18//20 96//20 83//20
f 20//21 21//21 90//21 91//21
f 4//22 5//22 80//22 61//22
f 46//23 47//23 86//23 63//23
f 29//24 30//24 77//24 82//24
f 3//25 4//25 61//25 106//25
f 30//26 43//26 104//26 77//26
f 9//27 10//27 64//27 98//27
f 26//28 27//28 94//28 67//28
f 5//29 6//29 76//29 80//29
f 22//30 23//30 88//30 65//30
f 28//31 29//31 82//31 93//31
f 59//32 1//32 79//32 92//32
f 15//33 16//33 85//33 84//33
f 51//34 52//34 103//34 100//34
f 45//35 46//35 63//35 62//35
f 47//36 48//36 87//36 86//36
f 10//37 11//37 68//37 64//37
f 24//38 25//38 66//38 89//38
f 58//39 59//39 92//39 95//39
f 54//40 55//40 70//40 105//40
f 43//41 44//41 102//41 104//41
f 23//42 24//42 89//42 88//42
f 52//43 53//43 101//43 103//43
f 25//44 26//44 67//44 66//44
f 8//45 9//45 98//45 81//45
f 21//46 22//46 65//46 90//46
f 11//47 12//47 69//47 68//47
f 7//48 8//48 81//48 99//48
f 50//49 51//49 100//49 78//49
