# Blender v2.79 (sub 0) OBJ File: 'world_countrycodes_outlines2.blend'
# www.blender.org
mtllib MW_outline.mtl
o MW.001_CUCurve.013
v 1.160244 0.000956 0.743972
v 1.156786 0.001428 0.741699
v 1.159114 -0.002187 0.742889
v 1.156939 0.000655 0.745889
v 1.153362 0.001630 0.744656
v 1.155224 -0.002173 0.744258
v 1.157002 0.000788 0.750755
v 1.153279 -0.000886 0.748028
v 1.154022 -0.000720 0.751617
v 1.154141 0.002129 0.749482
v 1.156020 -0.001809 0.748488
v 1.148099 0.001456 0.742351
v 1.152049 -0.000320 0.742081
v 1.148922 -0.001920 0.742588
v 1.149327 -0.000873 0.735844
v 1.153257 0.000892 0.734567
v 1.151990 -0.001974 0.734415
v 1.150474 0.001907 0.734619
v 1.151011 -0.000858 0.732018
v 1.147270 0.000845 0.732057
v 1.146032 0.002215 0.734865
v 1.146463 -0.002030 0.733865
v 1.145784 -0.000627 0.736526
v 1.141550 0.000829 0.733343
v 1.143081 -0.001396 0.729806
v 1.143610 0.000777 0.729685
v 1.140704 -0.001976 0.731138
v 1.139436 -0.000003 0.729834
v 1.140826 0.002011 0.729866
v 1.144243 -0.000803 0.724706
v 1.143180 0.001706 0.721954
v 1.141042 -0.001643 0.722875
v 1.142648 0.000037 0.721500
v 1.144301 0.001913 0.723267
v 1.146991 0.000938 0.723862
v 1.146241 -0.001577 0.723246
v 1.144005 -0.001944 0.722249
v 1.146234 0.000661 0.720503
v 1.142626 -0.000766 0.711662
v 1.143372 0.001557 0.711759
v 1.146934 -0.000652 0.714174
v 1.145563 -0.001920 0.711941
v 1.146686 0.001976 0.713002
v 1.144675 0.000825 0.710954
v 1.148335 -0.001680 0.711728
v 1.146598 0.001531 0.707399
v 1.141401 -0.001247 0.704372
v 1.143249 0.001952 0.705287
v 1.148974 0.002010 0.705459
v 1.148416 -0.001978 0.706905
v 1.152001 -0.000702 0.704345
v 1.145616 -0.001144 0.707261
v 1.149612 0.000709 0.707568
v 1.148633 0.001568 0.715881
v 1.152506 0.000142 0.715674
v 1.149416 -0.001966 0.715380
v 1.148695 0.002002 0.725067
v 1.150923 -0.000149 0.722923
v 1.146716 0.000744 0.724112
v 1.147955 -0.001956 0.724836
v 1.153901 0.000600 0.730434
v 1.152597 -0.000680 0.734372
v 1.154001 0.001936 0.733663
v 1.157034 -0.000591 0.734808
v 1.154786 -0.002059 0.731930
v 1.155228 0.000885 0.728739
v 1.161290 0.000786 0.734639
v 1.158429 0.001960 0.735743
v 1.160201 -0.001913 0.735047
vn 0.7587 0.4682 0.4529
vn -0.2828 -0.9070 -0.3119
vn 0.3036 -0.9291 0.2110
vn -0.7225 0.5867 -0.3657
vn 0.7588 0.3915 0.5205
vn -0.6473 0.6991 -0.3039
vn 0.5468 -0.8130 0.2001
vn 0.7541 0.2839 0.5922
vn -0.2599 -0.3081 0.9151
vn -0.1115 0.9211 0.3729
vn -0.7379 0.6590 0.1455
vn 0.9675 0.0270 -0.2514
vn -0.5586 -0.8169 0.1439
vn -0.5557 -0.6604 0.5050
vn 0.5111 -0.8423 -0.1711
vn 0.8763 0.4093 -0.2540
vn 0.0926 0.9884 -0.1201
vn 0.3585 -0.2198 -0.9073
vn 0.2390 0.3754 -0.8955
vn -0.2032 -0.2462 0.9477
vn -0.0634 0.9163 0.3952
vn 0.0390 -0.9958 -0.0826
vn -0.6889 0.3171 0.6518
vn 0.8208 0.4988 -0.2783
vn 0.5456 -0.8049 -0.2332
vn 0.5732 -0.6445 0.5059
vn -0.5333 -0.8039 0.2630
vn -0.4334 0.9011 0.0163
vn -0.7204 -0.5482 -0.4248
vn -0.9951 0.0648 0.0738
vn 0.2673 0.9463 0.1815
vn -0.5713 0.8105 -0.1292
vn -0.9336 -0.0255 -0.3573
vn -0.1818 -0.9829 0.0274
vn 0.7870 0.3974 0.4718
vn 0.6228 -0.7003 0.3487
vn 0.8990 0.4343 0.0558
vn -0.7581 -0.3710 -0.5362
vn -0.5424 0.7009 -0.4632
vn 0.9199 -0.3307 0.2105
vn -0.1393 -0.9895 -0.0370
vn 0.5438 0.8383 0.0399
vn -0.8011 0.5405 -0.2569
vn 0.8454 -0.5258 0.0939
vn 0.0111 0.9999 0.0056
vn -0.1039 -0.9945 -0.0105
vn -0.4703 0.7809 -0.4111
vn -0.7896 -0.3393 -0.5112
vn 0.2810 0.8519 -0.4418
vn 0.8788 -0.1854 -0.4396
vn 0.9932 -0.0939 -0.0690
vn 0.9962 0.0863 -0.0037
vn -0.5739 0.8178 0.0413
vn 0.2577 -0.9652 -0.0438
vn -0.4865 -0.8690 0.0898
vn -0.2229 -0.9714 0.0819
vn -0.1249 0.9874 0.0972
vn 0.9869 -0.1514 -0.0549
vn -0.9618 0.2482 0.1151
vn 0.1964 0.6528 -0.7316
vn 0.1767 -0.9789 -0.1021
vn -0.5291 -0.2783 0.8016
vn -0.2397 0.8603 0.4498
vn -0.0108 0.2127 -0.9770
vn 0.8678 0.3159 -0.3836
vn 0.4791 -0.8296 -0.2865
vn -0.5744 -0.5311 0.6229
vn -0.1413 0.9882 -0.0597
vn -0.8021 -0.4657 0.3738
usemtl SVGMat.3781
s 1
f 4//1 6//2 3//3
f 5//4 4//1 1//5
f 6//2 5//4 2//6
f 4//1 11//7 6//2
f 5//4 7//8 4//1
f 7//8 9//9 11//7
f 10//10 12//11 9//9
f 11//7 13//12 10//10
f 9//9 14//13 11//7
f 12//11 15//14 14//13
f 14//13 17//15 13//12
f 16//16 18//17 12//11
f 15//14 17//15 14//13
f 17//15 19//18 16//16
f 19//18 20//19 16//16
f 18//17 23//20 15//14
f 20//19 21//21 18//17
f 17//15 22//22 19//18
f 15//14 22//22 17//15
f 21//21 24//23 23//20
f 22//22 26//24 20//19
f 25//25 30//26 26//24
f 27//27 30//26 25//25
f 29//28 32//29 28//30
f 34//31 31//32 29//28
f 31//32 33//33 32//29
f 33//33 37//34 32//29
f 30//26 35//35 34//31
f 32//29 36//36 30//26
f 36//36 38//37 35//35
f 33//33 39//38 37//34
f 31//32 39//38 33//33
f 34//31 40//39 31//32
f 36//36 41//40 38//37
f 37//34 42//41 36//36
f 38//37 43//42 34//31
f 41//40 43//42 38//37
f 39//38 42//41 37//34
f 40//39 44//43 39//38
f 43//42 44//43 40//39
f 45//44 46//45 43//42
f 52//46 46//45 45//44
f 46//45 48//47 43//42
f 42//41 47//48 45//44
f 44//43 47//48 42//41
f 46//45 49//49 48//47
f 49//49 51//50 47//48
f 49//49 53//51 51//50
f 49//49 55//52 53//51
f 46//45 54//53 49//49
f 53//51 55//52 50//54
f 52//46 54//53 46//45
f 55//52 60//55 56//56
f 57//57 58//58 55//52
f 56//56 59//59 54//53
f 57//57 61//60 58//58
f 61//60 65//61 58//58
f 60//55 62//62 59//59
f 63//63 66//64 61//60
f 63//63 67//65 66//64
f 67//65 69//66 65//61
f 64//67 68//68 63//63
f 67//65 3//3 69//66
f 68//68 1//5 67//65
f 69//66 3//3 64//67
f 1//5 4//1 3//3
f 2//6 5//4 1//5
f 3//3 6//2 2//6
f 6//2 8//69 5//4
f 4//1 7//8 11//7
f 5//4 10//10 7//8
f 5//4 8//69 10//10
f 6//2 11//7 8//69
f 7//8 10//10 9//9
f 8//69 11//7 10//10
f 9//9 12//11 14//13
f 10//10 13//12 12//11
f 11//7 14//13 13//12
f 13//12 16//16 12//11
f 13//12 17//15 16//16
f 12//11 18//17 15//14
f 16//16 20//19 18//17
f 18//17 21//21 23//20
f 19//18 22//22 20//19
f 15//14 23//20 22//22
f 23//20 24//23 27//27
f 20//19 26//24 21//21
f 22//22 25//25 26//24
f 23//20 27//27 22//22
f 21//21 29//28 24//23
f 21//21 26//24 29//28
f 22//22 27//27 25//25
f 24//23 28//30 27//27
f 24//23 29//28 28//30
f 26//24 34//31 29//28
f 26//24 30//26 34//31
f 28//30 32//29 27//27
f 29//28 31//32 32//29
f 27//27 32//29 30//26
f 30//26 36//36 35//35
f 32//29 37//34 36//36
f 35//35 38//37 34//31
f 31//32 40//39 39//38
f 36//36 42//41 41//40
f 34//31 43//42 40//39
f 39//38 44//43 42//41
f 42//41 45//44 41//40
f 41//40 45//44 43//42
f 43//42 48//47 44//43
f 45//44 47//48 52//46
f 44//43 48//47 47//48
f 48//47 49//49 47//48
f 47//48 50//54 52//46
f 47//48 51//50 50//54
f 51//50 53//51 50//54
f 49//49 54//53 55//52
f 50//54 56//56 52//46
f 52//46 56//56 54//53
f 50//54 55//52 56//56
f 54//53 57//57 55//52
f 54//53 59//59 57//57
f 56//56 60//55 59//59
f 55//52 58//58 60//55
f 59//59 63//63 57//57
f 59//59 62//62 63//63
f 58//58 65//61 60//55
f 57//57 63//63 61//60
f 60//55 65//61 62//62
f 62//62 64//67 63//63
f 62//62 65//61 64//67
f 61//60 66//64 65//61
f 66//64 67//65 65//61
f 63//63 68//68 67//65
f 65//61 69//66 64//67
f 64//67 2//6 68//68
f 67//65 1//5 3//3
f 68//68 2//6 1//5
f 64//67 3//3 2//6
