# Blender v2.79 (sub 0) OBJ File: 'world_countrycodes_outlines2.blend'
# www.blender.org
mtllib MY_outline.mtl
o MY.001_CUCurve.1621
v 1.542594 0.001419 0.643617
v 1.542149 -0.000934 0.643098
v 1.545788 -0.001535 0.644525
v 1.544879 0.001930 0.644939
v 1.543827 0.000770 0.646909
v 1.542978 -0.001882 0.646212
v 1.537559 0.000744 0.644695
v 1.526601 -0.000740 0.636941
v 1.527399 0.001913 0.636134
v 1.529657 0.000792 0.634408
v 1.528983 -0.001971 0.635392
v 1.519578 0.000084 0.625646
v 1.523139 0.001512 0.624191
v 1.522532 -0.001945 0.624838
v 1.523069 0.000632 0.616386
v 1.517753 0.000175 0.612667
v 1.519558 0.002029 0.614788
v 1.522933 -0.000966 0.616107
v 1.519263 -0.001979 0.613807
v 1.524443 0.000674 0.612669
v 1.525328 -0.001857 0.613932
v 1.526088 0.001928 0.615239
v 1.527871 0.000614 0.616642
v 1.525783 0.001350 0.620276
v 1.528335 -0.001669 0.617943
v 1.524712 -0.000995 0.619722
v 1.531596 0.001912 0.617559
v 1.529103 0.000911 0.616484
v 1.531941 -0.000278 0.620445
v 1.532051 -0.002045 0.616669
v 1.533149 0.000711 0.613705
v 1.535668 -0.000723 0.616982
v 1.535061 0.001973 0.618179
v 1.532287 0.000849 0.619017
v 1.533245 -0.000693 0.620292
v 1.541861 -0.000488 0.623297
v 1.539995 0.001933 0.623005
v 1.537864 0.000809 0.624933
v 1.538931 -0.001923 0.624407
v 1.540984 0.000762 0.634474
v 1.538016 0.001900 0.635274
v 1.536950 -0.000013 0.635715
v 1.538172 -0.001895 0.635902
v 1.540396 -0.001424 0.634704
v 1.631023 -0.000955 0.624649
v 1.629963 0.001949 0.623945
v 1.626412 0.000994 0.626120
v 1.625034 -0.001958 0.624998
v 1.624268 0.002131 0.625230
v 1.622717 -0.000002 0.622583
v 1.622133 -0.000684 0.625746
v 1.626282 -0.000867 0.627171
v 1.620867 0.001951 0.627047
v 1.620634 -0.002027 0.628801
v 1.620564 0.000806 0.630091
v 1.611655 0.000736 0.629641
v 1.610580 -0.000617 0.625742
v 1.608696 0.001750 0.627636
v 1.609411 -0.002058 0.628882
v 1.607298 -0.000816 0.632232
v 1.610791 0.000840 0.634051
v 1.606462 0.001947 0.634618
v 1.608557 -0.001714 0.635256
v 1.608070 0.000674 0.636457
v 1.604387 0.000701 0.633945
v 1.604903 -0.001781 0.635315
v 1.606240 0.000756 0.640435
v 1.602335 -0.000673 0.639406
v 1.602256 0.000968 0.641671
v 1.605759 -0.000813 0.644316
v 1.604854 0.001893 0.643777
v 1.603600 -0.002012 0.642648
v 1.597011 0.000720 0.647508
v 1.597595 -0.000745 0.642975
v 1.597530 -0.001941 0.646290
v 1.593652 -0.000699 0.645481
v 1.596073 0.001944 0.644091
v 1.589183 0.001700 0.643806
v 1.591432 -0.000758 0.642001
v 1.589046 -0.001358 0.647749
v 1.587949 0.001916 0.647208
v 1.588677 -0.001802 0.644907
v 1.580265 0.000932 0.648862
v 1.580231 -0.000842 0.644784
v 1.579964 0.001970 0.645990
v 1.579056 -0.001617 0.648329
v 1.574198 -0.000135 0.645675
v 1.574777 0.001922 0.644614
v 1.577129 0.001226 0.643480
v 1.577110 -0.001200 0.642969
v 1.574986 -0.001882 0.644801
v 1.573114 -0.001912 0.639381
v 1.572228 0.001377 0.638207
v 1.582993 0.002117 0.643533
v 1.583394 0.000639 0.645906
v 1.583164 -0.001895 0.644610
v 1.581337 -0.000873 0.641731
v 1.581799 -0.000664 0.636495
v 1.583807 0.002186 0.636870
v 1.585628 -0.000775 0.637875
v 1.584572 -0.001997 0.635235
v 1.584948 0.000672 0.633934
v 1.592079 0.000734 0.633390
v 1.594227 0.001891 0.636043
v 1.595133 -0.000744 0.636866
v 1.593363 -0.001915 0.634403
v 1.598926 -0.001889 0.626416
v 1.599420 0.000816 0.627664
v 1.597461 -0.000918 0.624279
v 1.599817 0.001944 0.624202
v 1.600777 -0.000750 0.623030
v 1.602013 0.001930 0.630087
v 1.601974 -0.001509 0.631003
v 1.603394 0.000260 0.626921
v 1.608473 0.000949 0.629291
v 1.606670 -0.000854 0.629987
v 1.605387 -0.000877 0.626318
v 1.607209 0.002135 0.627042
v 1.608585 -0.001465 0.626058
v 1.607630 0.002028 0.625040
v 1.607788 -0.001992 0.622474
v 1.604059 0.000000 0.623331
v 1.605906 0.000775 0.622967
v 1.609842 -0.000821 0.622932
v 1.606356 -0.000800 0.620673
v 1.609320 0.001885 0.621795
v 1.608225 0.001168 0.619553
v 1.612366 -0.000223 0.620876
v 1.615065 0.000786 0.615443
v 1.610755 0.000645 0.614561
v 1.613517 -0.001583 0.612238
v 1.615141 -0.001905 0.614213
v 1.616501 0.000600 0.611166
v 1.615406 0.001934 0.612575
v 1.618560 -0.000922 0.617869
v 1.621292 -0.002027 0.618417
v 1.622623 -0.000975 0.617112
v 1.622131 0.001799 0.617984
v 1.620532 0.001879 0.619776
v 1.620060 -0.000967 0.620798
v 1.628115 0.000551 0.617372
v 1.628583 -0.001919 0.618653
v 1.627347 0.000461 0.621690
v 1.629135 -0.001930 0.622363
v 1.631545 0.000763 0.620969
vn -0.9723 -0.0119 0.2334
vn 0.0089 0.8502 -0.5263
vn -0.4285 0.8983 0.0969
vn -0.4702 -0.8711 0.1418
vn -0.1053 -0.9814 -0.1600
vn 0.5802 -0.7998 -0.1535
vn 0.8314 -0.5474 0.0954
vn 0.8483 0.5027 -0.1661
vn 0.6056 0.7719 0.1933
vn 0.2221 0.3277 0.9183
vn -0.4569 0.3292 0.8263
vn -0.3377 0.8890 0.3091
vn -0.6922 -0.3493 0.6316
vn 0.0232 -0.7964 0.6043
vn -0.9312 0.0896 0.3531
vn 0.6481 0.4113 -0.6409
vn 0.5748 0.8108 -0.1107
vn 0.1853 -0.9591 -0.2137
vn 0.2656 -0.9633 -0.0395
vn 0.0806 0.8800 0.4680
vn -0.3548 -0.8593 -0.3682
vn -0.7498 0.0878 -0.6558
vn 0.3629 -0.7728 -0.5206
vn -0.3143 0.9370 -0.1523
vn 0.2962 0.2823 -0.9124
vn 0.3850 0.8837 -0.2663
vn 0.4856 0.4905 -0.7236
vn 0.0857 -0.9888 -0.1220
vn -0.2906 0.6179 0.7306
vn -0.5289 -0.5186 0.6717
vn 0.0826 -0.9661 0.2445
vn 0.5544 -0.1307 0.8219
vn -0.0672 0.9954 0.0677
vn -0.3890 0.4360 -0.8115
vn -0.1733 0.6672 0.7244
vn -0.1050 -0.9434 -0.3146
vn 0.1261 0.1688 -0.9775
vn 0.6916 -0.3706 -0.6199
vn 0.2810 0.9389 -0.1987
vn 0.9216 -0.2263 -0.3153
vn -0.7229 -0.3570 0.5915
vn -0.8563 0.4518 0.2501
vn -0.1302 -0.9881 0.0822
vn 0.3872 0.8934 -0.2276
vn 0.4266 0.8413 0.3319
vn 0.4534 0.4345 0.7782
vn 0.7356 -0.3824 0.5591
vn -0.9566 -0.2130 0.1988
vn -0.1747 0.9838 -0.0402
vn 0.0675 -0.9930 -0.0965
vn -0.7256 0.0049 -0.6880
vn 0.0054 -0.9998 -0.0168
vn -0.5489 -0.3931 -0.7377
vn 0.8257 -0.3452 0.4461
vn 0.0916 -0.9055 0.4143
vn -0.0128 0.9587 -0.2840
vn 0.1753 0.3682 0.9131
vn -0.3440 -0.9285 -0.1398
vn 0.3701 0.5415 0.7548
vn -0.3260 -0.2530 -0.9109
vn -0.5914 0.6501 -0.4769
vn -0.7417 -0.5300 -0.4111
vn 0.5177 -0.8239 0.2305
vn 0.8665 0.3164 0.3861
vn -0.2566 0.9591 -0.1194
vn 0.7220 0.4936 0.4849
vn -0.9010 0.3900 -0.1899
vn -0.6142 -0.7032 -0.3580
vn 0.8632 0.4539 0.2212
vn -0.0631 -0.9980 0.0054
vn 0.7080 -0.3113 0.6338
vn -0.9413 -0.2144 -0.2607
vn -0.5514 0.6045 -0.5749
vn 0.4382 0.8062 0.3974
vn -0.1493 0.3467 0.9260
vn -0.0133 -0.8677 0.4968
vn -0.1367 0.9500 -0.2805
vn 0.0062 0.0769 0.9970
vn -0.1697 -0.4679 -0.8673
vn -0.1915 0.6771 -0.7105
vn -0.1140 -0.2540 -0.9604
vn -0.1373 -0.9131 -0.3840
vn 0.2419 -0.5655 0.7884
vn 0.1588 0.7855 0.5980
vn -0.1298 0.4494 0.8838
vn 0.2147 -0.5634 -0.7978
vn -0.7828 -0.0261 0.6217
vn -0.1912 -0.7264 0.6601
vn 0.0374 0.9689 -0.2444
vn -0.4167 0.8711 0.2599
vn 0.0757 0.9943 -0.0750
vn 0.0410 -0.9846 0.1701
vn -0.6046 0.4023 -0.6874
vn -0.4773 -0.7337 -0.4835
vn -0.3616 -0.8976 0.2519
vn -0.2888 -0.6027 -0.7438
vn 0.3417 0.9343 0.1011
vn 0.4185 0.2205 0.8810
vn 0.3311 -0.7887 0.5179
vn -0.9015 -0.1910 -0.3882
vn -0.2523 0.9660 -0.0568
vn 0.6631 -0.3768 0.6467
vn -0.2058 -0.8682 -0.4515
vn -0.3132 0.2965 -0.9022
vn -0.1016 -0.9917 -0.0783
vn -0.4406 0.4642 -0.7684
vn 0.2811 0.8338 0.4751
vn 0.5418 -0.3156 0.7790
vn 0.0366 -0.9993 -0.0027
vn 0.0961 0.6676 0.7383
vn -0.6207 -0.3237 -0.7141
vn -0.0054 0.8181 -0.5750
vn 0.3407 -0.3303 -0.8802
vn -0.2304 0.7840 0.5763
vn -0.2496 -0.5867 0.7703
vn 0.7873 0.3219 0.5258
vn 0.2836 0.9564 -0.0697
vn 0.1852 0.0635 -0.9806
vn -0.6397 -0.6995 -0.3185
vn 0.7110 -0.6600 0.2427
vn 0.3049 0.9477 0.0942
vn -0.1589 -0.9786 -0.1304
vn -0.9246 0.0203 -0.3804
vn -0.6005 0.6324 -0.4893
vn 0.2691 0.9386 0.2157
vn 0.7931 -0.3682 0.4852
vn -0.6462 -0.4606 -0.6084
vn -0.6694 0.5096 -0.5405
vn 0.7662 -0.0849 0.6370
vn -0.3232 -0.5839 -0.7447
vn -0.8104 0.2466 -0.5314
vn 0.2839 0.6126 0.7376
vn -0.1116 0.9008 -0.4196
vn 0.1090 -0.9908 0.0804
vn 0.2442 0.0907 -0.9655
vn 0.2966 -0.4096 -0.8626
vn 0.2002 0.9091 -0.3652
vn -0.6113 -0.4516 0.6498
vn -0.0335 -0.9993 0.0126
vn -0.3311 0.7978 0.5040
vn -0.5172 -0.3585 0.7771
vn 0.3903 0.3609 -0.8469
vn 0.3389 -0.8587 -0.3844
vn 0.9066 0.2855 -0.3107
vn 0.3765 -0.5054 0.7764
usemtl SVGMat.3781
s 1
f 42//1 1//2 41//3
f 43//4 2//5 42//1
f 44//6 3//7 43//4
f 40//8 3//7 44//6
f 4//9 5//10 3//7
f 4//9 7//11 5//10
f 1//2 9//12 4//9
f 7//11 8//13 6//14
f 9//12 12//15 8//13
f 10//16 13//17 9//12
f 11//18 13//17 10//16
f 8//13 14//19 11//18
f 14//19 15//20 13//17
f 12//15 19//21 14//19
f 16//22 21//23 19//21
f 17//24 20//25 16//22
f 15//20 22//26 17//24
f 22//26 23//27 20//25
f 23//27 25//28 21//23
f 15//20 24//29 22//26
f 21//23 26//30 18//31
f 25//28 29//32 26//30
f 27//33 28//34 23//27
f 34//35 27//33 29//32
f 28//34 30//36 25//28
f 27//33 31//37 28//34
f 31//37 32//38 30//36
f 27//33 33//39 31//37
f 33//39 36//40 32//38
f 35//41 38//42 34//35
f 30//36 39//43 35//41
f 38//42 37//44 33//39
f 36//40 39//43 30//36
f 36//40 43//4 39//43
f 37//44 40//8 36//40
f 38//42 41//3 37//44
f 39//43 42//1 38//42
f 46//45 47//46 45//47
f 143//48 49//49 46//45
f 144//50 50//51 143//48
f 45//47 48//52 144//50
f 47//46 48//52 45//47
f 48//52 50//51 144//50
f 48//52 51//53 50//51
f 47//46 52//54 48//52
f 52//54 54//55 48//52
f 51//53 53//56 49//49
f 47//46 55//57 52//54
f 53//56 55//57 47//46
f 55//57 59//58 54//55
f 53//56 56//59 55//57
f 54//55 57//60 51//53
f 57//60 58//61 53//56
f 59//58 58//61 57//60
f 59//58 60//62 58//61
f 56//59 63//63 59//58
f 58//61 61//64 56//59
f 62//65 64//66 61//64
f 60//62 65//67 62//65
f 63//63 66//68 60//62
f 62//65 67//69 64//66
f 63//63 72//70 66//68
f 67//69 70//71 63//63
f 72//70 68//72 66//68
f 68//72 69//73 62//65
f 62//65 71//74 67//69
f 69//73 71//74 62//65
f 71//74 73//75 70//71
f 73//75 75//76 70//71
f 69//73 77//77 71//74
f 73//75 76//78 75//76
f 74//79 78//80 77//77
f 75//76 79//81 74//79
f 76//78 82//82 75//76
f 77//77 80//83 76//78
f 78//80 81//84 77//77
f 76//78 80//83 82//82
f 81//84 83//85 80//83
f 82//82 84//86 78//80
f 80//83 84//86 82//82
f 83//85 87//87 86//88
f 85//89 88//90 83//85
f 84//86 89//91 85//89
f 86//88 90//92 84//86
f 89//91 93//93 88//90
f 87//87 92//94 91//95
f 88//90 93//93 87//87
f 93//93 97//96 92//94
f 89//91 94//97 93//93
f 90//92 95//98 89//91
f 92//94 96//99 90//92
f 94//97 97//96 93//93
f 94//97 98//100 97//96
f 95//98 99//101 94//97
f 96//99 100//102 95//98
f 97//96 101//103 96//99
f 99//101 102//104 98//100
f 102//104 106//105 101//103
f 99//101 103//106 102//104
f 100//102 104//107 99//101
f 101//103 105//108 100//102
f 106//105 107//109 105//108
f 107//109 108//110 105//108
f 103//106 109//111 106//105
f 110//112 111//113 109//111
f 108//110 112//114 110//112
f 111//113 113//115 107//109
f 107//109 113//115 108//110
f 113//115 115//116 112//114
f 112//114 118//117 114//118
f 115//116 118//117 112//114
f 117//119 119//120 113//115
f 119//120 120//121 118//117
f 117//119 121//122 119//120
f 118//117 122//123 117//119
f 120//121 122//123 118//117
f 120//121 123//124 122//123
f 119//120 126//125 120//121
f 121//122 124//126 119//120
f 123//124 125//127 121//122
f 120//121 127//128 123//124
f 124//126 128//129 126//125
f 121//122 128//129 124//126
f 127//128 131//130 121//122
f 126//125 130//131 127//128
f 129//132 134//133 126//125
f 121//122 132//134 128//129
f 131//130 132//134 121//122
f 133//135 137//136 131//130
f 129//132 138//137 134//133
f 132//134 135//138 129//132
f 131//130 136//139 132//134
f 136//139 135//138 132//134
f 135//138 139//140 129//132
f 136//139 140//141 135//138
f 138//137 141//142 137//136
f 137//136 142//143 136//139
f 142//143 143//48 140//141
f 141//142 142//143 137//136
f 143//48 46//45 138//137
f 142//143 144//50 143//48
f 46//45 145//144 141//142
f 145//144 45//47 142//143
f 41//3 4//9 40//8
f 41//3 1//2 4//9
f 42//1 2//5 1//2
f 43//4 3//7 2//5
f 40//8 4//9 3//7
f 3//7 5//10 6//14
f 3//7 6//14 2//5
f 5//10 7//11 6//14
f 4//9 9//12 7//11
f 7//11 9//12 8//13
f 2//5 10//16 1//2
f 6//14 11//18 2//5
f 6//14 8//13 11//18
f 1//2 10//16 9//12
f 2//5 11//18 10//16
f 9//12 13//17 12//15
f 11//18 14//19 13//17
f 8//13 12//15 14//19
f 13//17 17//24 12//15
f 13//17 15//20 17//24
f 12//15 17//24 16//22
f 14//19 18//31 15//20
f 14//19 19//21 18//31
f 12//15 16//22 19//21
f 16//22 20//25 21//23
f 17//24 22//26 20//25
f 19//21 21//23 18//31
f 20//25 23//27 21//23
f 22//26 24//29 23//27
f 18//31 26//30 15//20
f 21//23 25//28 26//30
f 15//20 26//30 24//29
f 24//29 27//33 23//27
f 26//30 29//32 24//29
f 25//28 30//36 29//32
f 23//27 28//34 25//28
f 24//29 29//32 27//33
f 29//32 30//36 34//35
f 28//34 31//37 30//36
f 31//37 33//39 32//38
f 30//36 35//41 34//35
f 27//33 34//35 33//39
f 33//39 37//44 36//40
f 34//35 38//42 33//39
f 35//41 39//43 38//42
f 32//38 36//40 30//36
f 36//40 40//8 44//6
f 37//44 41//3 40//8
f 38//42 42//1 41//3
f 39//43 43//4 42//1
f 36//40 44//6 43//4
f 46//45 49//49 47//46
f 143//48 50//51 49//49
f 50//51 51//53 49//49
f 49//49 53//56 47//46
f 48//52 54//55 51//53
f 52//54 55//57 54//55
f 55//57 56//59 59//58
f 51//53 57//60 53//56
f 53//56 58//61 56//59
f 54//55 59//58 57//60
f 58//61 60//62 62//65
f 56//59 61//64 63//63
f 58//61 62//65 61//64
f 59//58 63//63 60//62
f 61//64 64//66 63//63
f 60//62 66//68 65//67
f 65//67 66//68 62//65
f 64//66 67//69 63//63
f 66//68 68//72 62//65
f 63//63 70//71 72//70
f 67//69 71//74 70//71
f 68//72 72//70 69//73
f 72//70 74//79 69//73
f 70//71 75//76 72//70
f 71//74 77//77 73//75
f 69//73 74//79 77//77
f 72//70 75//76 74//79
f 73//75 77//77 76//78
f 74//79 79//81 78//80
f 75//76 82//82 79//81
f 77//77 81//84 80//83
f 79//81 82//82 78//80
f 78//80 85//89 81//84
f 80//83 83//85 86//88
f 78//80 84//86 85//89
f 81//84 85//89 83//85
f 80//83 86//88 84//86
f 86//88 87//87 91//95
f 83//85 88//90 87//87
f 85//89 89//91 88//90
f 84//86 90//92 89//91
f 86//88 91//95 90//92
f 91//95 92//94 90//92
f 87//87 93//93 92//94
f 89//91 95//98 94//97
f 90//92 96//99 95//98
f 92//94 97//96 96//99
f 94//97 99//101 98//100
f 95//98 100//102 99//101
f 96//99 101//103 100//102
f 97//96 98//100 101//103
f 98//100 102//104 101//103
f 102//104 103//106 106//105
f 99//101 104//107 103//106
f 100//102 105//108 104//107
f 101//103 106//105 105//108
f 105//108 108//110 104//107
f 106//105 109//111 107//109
f 104//107 110//112 103//106
f 104//107 108//110 110//112
f 103//106 110//112 109//111
f 109//111 111//113 107//109
f 110//112 114//118 111//113
f 110//112 112//114 114//118
f 108//110 113//115 112//114
f 111//113 114//118 113//115
f 113//115 116//145 115//116
f 114//118 118//117 117//119
f 114//118 117//119 113//115
f 113//115 119//120 116//145
f 116//145 119//120 115//116
f 115//116 119//120 118//117
f 117//119 122//123 121//122
f 122//123 123//124 121//122
f 119//120 124//126 126//125
f 123//124 127//128 125//127
f 120//121 126//125 127//128
f 125//127 127//128 121//122
f 128//129 129//132 126//125
f 127//128 130//131 131//130
f 126//125 134//133 130//131
f 128//129 132//134 129//132
f 130//131 133//135 131//130
f 130//131 134//133 133//135
f 134//133 138//137 133//135
f 131//130 137//136 136//139
f 133//135 138//137 137//136
f 129//132 139//140 138//137
f 135//138 140//141 139//140
f 140//141 143//48 139//140
f 136//139 142//143 140//141
f 139//140 143//48 138//137
f 138//137 46//45 141//142
f 141//142 145//144 142//143
f 142//143 45//47 144//50
f 145//144 46//45 45//47
