# Blender v2.79 (sub 0) OBJ File: 'world_countrycodes_export2.blend'
# www.blender.org
mtllib NA.mtl
o NA.002_CUCurve.1884
v 1.053319 0.000000 0.817807
v 1.053949 0.000000 0.816715
v 1.054946 0.000000 0.816045
v 1.055815 0.000000 0.816016
v 1.056698 0.000000 0.816971
v 1.057632 0.000000 0.819599
v 1.058582 0.000000 0.820510
v 1.064319 0.000000 0.820946
v 1.066331 0.000000 0.820754
v 1.067092 0.000000 0.819989
v 1.069226 0.000000 0.818594
v 1.070267 0.000000 0.817404
v 1.070357 0.000000 0.779096
v 1.071435 0.000000 0.778699
v 1.074204 0.000000 0.778470
v 1.075448 0.000000 0.778088
v 1.075988 0.000000 0.777443
v 1.075994 0.000000 0.757711
v 1.078911 0.000000 0.757421
v 1.081479 0.000000 0.757006
v 1.085605 0.000000 0.755343
v 1.087299 0.000000 0.755057
v 1.087927 0.000000 0.755300
v 1.089497 0.000000 0.756989
v 1.090215 0.000000 0.757536
v 1.090648 0.000000 0.757486
v 1.091534 0.000000 0.756438
v 1.092765 0.000000 0.755548
v 1.094230 0.000000 0.754944
v 1.096539 0.000000 0.754618
v 1.098573 0.000000 0.754137
v 1.098049 0.000000 0.752637
v 1.097160 0.000000 0.752304
v 1.094980 0.000000 0.752294
v 1.090927 0.000000 0.752728
v 1.086918 0.000000 0.753476
v 1.084061 0.000000 0.754236
v 1.080749 0.000000 0.754537
v 1.077758 0.000000 0.754310
v 1.076614 0.000000 0.754010
v 1.072506 0.000000 0.753829
v 1.064927 0.000000 0.754232
v 1.062955 0.000000 0.752233
v 1.042496 0.000000 0.752245
v 1.040911 0.000000 0.752019
v 1.039134 0.000000 0.751347
v 1.037109 0.000000 0.750222
v 1.035487 0.000000 0.749902
v 1.033734 0.000000 0.750154
v 1.032351 0.000000 0.750739
v 1.031619 0.000000 0.750639
v 1.030966 0.000000 0.749572
v 1.029866 0.000000 0.749458
v 1.028867 0.000000 0.750024
v 1.028306 0.000000 0.750825
v 1.026576 0.000000 0.751302
v 1.026722 0.000000 0.752321
v 1.027227 0.000000 0.754304
v 1.028365 0.000000 0.756782
v 1.030008 0.000000 0.759053
v 1.032292 0.000000 0.762855
v 1.034345 0.000000 0.767243
v 1.035974 0.000000 0.771887
v 1.037538 0.000000 0.774980
v 1.040165 0.000000 0.779643
v 1.041117 0.000000 0.781828
v 1.041472 0.000000 0.783557
v 1.041438 0.000000 0.785878
v 1.041118 0.000000 0.789850
v 1.041270 0.000000 0.791143
v 1.042167 0.000000 0.793848
v 1.043144 0.000000 0.798079
v 1.044129 0.000000 0.806110
v 1.044890 0.000000 0.809667
v 1.045756 0.000000 0.812050
v 1.046738 0.000000 0.813661
v 1.048609 0.000000 0.815734
v 1.049792 0.000000 0.817247
v 1.050896 0.000000 0.818900
v 1.052892 0.000000 0.818857
v 1.053208 0.000000 0.818535
v 1.075994 0.050000 0.757711
v 1.030008 0.050000 0.759053
v 1.080749 0.050000 0.754537
v 1.077758 0.050000 0.754310
v 1.031619 0.050000 0.750639
v 1.028306 0.050000 0.750825
v 1.091534 0.050000 0.756438
v 1.092765 0.050000 0.755548
v 1.053949 0.050000 0.816715
v 1.049792 0.050000 0.817247
v 1.087299 0.050000 0.755057
v 1.094230 0.050000 0.754944
v 1.039134 0.050000 0.751347
v 1.037109 0.050000 0.750222
v 1.032351 0.050000 0.750739
v 1.037538 0.050000 0.774980
v 1.040165 0.050000 0.779643
v 1.085605 0.050000 0.755343
v 1.053208 0.050000 0.818535
v 1.053319 0.050000 0.817807
v 1.069226 0.050000 0.818594
v 1.070267 0.050000 0.817404
v 1.048609 0.050000 0.815734
v 1.096539 0.050000 0.754618
v 1.084061 0.050000 0.754236
v 1.028867 0.050000 0.750024
v 1.027227 0.050000 0.754304
v 1.043144 0.050000 0.798079
v 1.044129 0.050000 0.806110
v 1.076614 0.050000 0.754010
v 1.072506 0.050000 0.753829
v 1.032292 0.050000 0.762855
v 1.034345 0.050000 0.767243
v 1.056698 0.050000 0.816971
v 1.057632 0.050000 0.819599
v 1.090648 0.050000 0.757486
v 1.064927 0.050000 0.754232
v 1.062955 0.050000 0.752233
v 1.098573 0.050000 0.754137
v 1.086918 0.050000 0.753476
v 1.041118 0.050000 0.789850
v 1.041270 0.050000 0.791143
v 1.067092 0.050000 0.819989
v 1.040911 0.050000 0.752019
v 1.026722 0.050000 0.752321
v 1.042496 0.050000 0.752245
v 1.070357 0.050000 0.779096
v 1.050896 0.050000 0.818900
v 1.035487 0.050000 0.749902
v 1.090927 0.050000 0.752728
v 1.064319 0.050000 0.820946
v 1.066331 0.050000 0.820754
v 1.041438 0.050000 0.785878
v 1.052892 0.050000 0.818857
v 1.026576 0.050000 0.751302
v 1.035974 0.050000 0.771887
v 1.074204 0.050000 0.778470
v 1.075448 0.050000 0.778088
v 1.087927 0.050000 0.755300
v 1.046738 0.050000 0.813661
v 1.033734 0.050000 0.750154
v 1.078911 0.050000 0.757421
v 1.028365 0.050000 0.756782
v 1.081479 0.050000 0.757006
v 1.097160 0.050000 0.752304
v 1.094980 0.050000 0.752294
v 1.089497 0.050000 0.756989
v 1.090215 0.050000 0.757536
v 1.041472 0.050000 0.783557
v 1.075988 0.050000 0.777443
v 1.055815 0.050000 0.816016
v 1.030966 0.050000 0.749572
v 1.029866 0.050000 0.749458
v 1.042167 0.050000 0.793848
v 1.058582 0.050000 0.820510
v 1.098049 0.050000 0.752637
v 1.044890 0.050000 0.809667
v 1.054946 0.050000 0.816045
v 1.071435 0.050000 0.778699
v 1.045756 0.050000 0.812050
v 1.041117 0.050000 0.781828
vn 0.0000 -1.0000 0.0000
vn 0.0000 1.0000 0.0000
vn 0.0000 1.0000 -0.0001
vn 0.0000 1.0000 -0.0002
vn -0.9399 0.0000 0.3414
vn 1.0000 0.0000 0.0003
vn 0.2535 0.0000 -0.9673
vn 0.5470 0.0000 0.8371
vn 0.1598 0.0000 0.9872
vn -0.9926 0.0000 0.1217
vn -0.7323 0.0000 0.6810
vn -0.0531 0.0000 -0.9986
vn 0.0440 0.0000 -0.9990
vn -0.9168 0.0000 0.3994
vn 0.1030 0.0000 -0.9947
vn -0.9057 0.0000 0.4238
vn -0.4938 0.0000 -0.8696
vn -0.1065 0.0000 -0.9943
vn -0.9424 0.0000 0.3346
vn -0.9491 0.0000 0.3148
vn -0.8572 0.0000 0.5149
vn 0.7641 0.0000 0.6451
vn 0.3534 0.0000 -0.9355
vn 0.2932 0.0000 0.9561
vn 0.7120 0.0000 -0.7022
vn 0.9441 0.0000 -0.3297
vn -0.8540 0.0000 0.5204
vn -0.9932 0.0000 0.1168
vn -0.0758 0.0000 0.9971
vn 0.3816 0.0000 0.9243
vn -0.1422 0.0000 -0.9898
vn -0.9795 0.0000 0.2014
vn 0.0332 0.0000 0.9994
vn -0.7421 0.0000 0.6703
vn 0.1397 0.0000 0.9902
vn 0.5583 0.0000 0.8296
vn 0.0826 0.0000 0.9966
vn -0.8188 0.0000 -0.5740
vn 0.0211 0.0000 0.9998
vn -0.9436 0.0000 0.3310
vn -0.3900 0.0000 -0.9208
vn 0.3455 0.0000 0.9384
vn 0.1410 0.0000 -0.9900
vn -0.7340 0.0000 0.6792
vn 0.0758 0.0000 -0.9971
vn 0.8529 0.0000 -0.5220
vn 0.5856 0.0000 0.8106
vn 0.0987 0.0000 0.9951
vn -0.8317 0.0000 0.5553
vn 1.0000 0.0000 0.0023
vn -0.8103 0.0000 0.5860
vn -0.9743 0.0000 0.2250
vn 0.1936 0.0000 -0.9811
vn 0.7094 0.0000 0.7048
vn -0.9691 0.0000 0.2468
vn 0.4856 0.0000 -0.8742
vn -0.2571 0.0000 -0.9664
vn -0.1834 0.0000 -0.9830
vn 0.1364 0.0000 -0.9907
vn 0.3510 0.0000 -0.9364
vn 0.8659 0.0000 0.5003
vn -0.8713 0.0000 0.4908
vn -0.9899 0.0000 0.1416
vn 0.3738 0.0000 0.9275
vn -0.9778 0.0000 0.2094
vn 0.1664 0.0000 0.9861
vn 0.0044 0.0000 -1.0000
vn 0.9886 0.0000 0.1509
vn -0.6921 0.0000 0.7218
vn -0.2657 0.0000 -0.9641
vn 0.0953 0.0000 0.9955
vn -0.0006 0.0000 -1.0000
vn 0.7528 0.0000 0.6583
vn -0.6061 0.0000 0.7954
vn -0.9968 0.0000 -0.0805
vn -0.7879 0.0000 0.6158
vn -0.9999 0.0000 -0.0145
vn 0.7150 0.0000 0.6991
vn -0.3603 0.0000 0.9328
vn 0.1130 0.0000 0.9936
vn 0.7668 0.0000 0.6419
vn -0.0906 0.0000 -0.9959
vn 0.2300 0.0000 0.9732
vn -0.9087 0.0000 0.4174
vn -0.8924 0.0000 0.4512
usemtl SVGMat.3781
s off
f 54//1 53//1 52//1
f 49//1 48//1 47//1
f 54//1 52//1 51//1
f 55//1 54//1 51//1
f 50//1 49//1 47//1
f 50//1 47//1 46//1
f 55//1 51//1 50//1
f 55//1 50//1 46//1
f 56//1 55//1 46//1
f 57//1 56//1 46//1
f 57//1 46//1 45//1
f 57//1 45//1 44//1
f 57//1 44//1 43//1
f 34//1 33//1 32//1
f 35//1 34//1 32//1
f 58//1 57//1 43//1
f 36//1 35//1 32//1
f 36//1 32//1 31//1
f 37//1 36//1 31//1
f 42//1 41//1 40//1
f 42//1 40//1 39//1
f 58//1 43//1 42//1
f 58//1 42//1 39//1
f 37//1 31//1 30//1
f 38//1 37//1 30//1
f 58//1 39//1 38//1
f 58//1 38//1 30//1
f 58//1 30//1 29//1
f 58//1 29//1 22//1
f 58//1 22//1 21//1
f 23//1 22//1 29//1
f 23//1 29//1 28//1
f 59//1 58//1 21//1
f 23//1 28//1 27//1
f 24//1 23//1 27//1
f 59//1 21//1 20//1
f 24//1 27//1 26//1
f 59//1 20//1 19//1
f 25//1 24//1 26//1
f 59//1 19//1 18//1
f 60//1 59//1 18//1
f 61//1 60//1 18//1
f 62//1 61//1 18//1
f 62//1 18//1 17//1
f 63//1 62//1 17//1
f 64//1 63//1 17//1
f 65//1 64//1 17//1
f 65//1 17//1 16//1
f 65//1 16//1 15//1
f 65//1 15//1 14//1
f 65//1 14//1 13//1
f 66//1 65//1 13//1
f 67//1 66//1 13//1
f 68//1 67//1 13//1
f 69//1 68//1 13//1
f 70//1 69//1 13//1
f 71//1 70//1 13//1
f 72//1 71//1 13//1
f 73//1 72//1 13//1
f 74//1 73//1 13//1
f 75//1 74//1 13//1
f 76//1 75//1 13//1
f 77//1 76//1 13//1
f 4//1 77//1 13//1
f 77//1 4//1 3//1
f 78//1 77//1 3//1
f 78//1 3//1 2//1
f 4//1 13//1 12//1
f 5//1 4//1 12//1
f 78//1 2//1 1//1
f 6//1 5//1 12//1
f 78//1 1//1 81//1
f 6//1 12//1 11//1
f 79//1 78//1 81//1
f 79//1 81//1 80//1
f 6//1 11//1 10//1
f 7//1 6//1 10//1
f 7//1 10//1 9//1
f 8//1 7//1 9//1
f 107//2 153//2 154//2
f 142//2 95//2 130//2
f 107//2 86//2 153//2
f 87//2 86//2 107//2
f 96//2 95//2 142//2
f 96//2 94//2 95//2
f 87//2 96//2 86//2
f 87//2 94//2 96//2
f 136//2 94//2 87//2
f 126//2 94//2 136//2
f 126//2 125//2 94//2
f 126//2 127//2 125//2
f 126//2 119//2 127//2
f 147//2 157//2 146//2
f 131//2 157//2 147//2
f 108//2 119//2 126//2
f 121//2 157//2 131//2
f 121//2 120//2 157//2
f 106//2 120//2 121//2
f 118//2 111//2 112//2
f 118//2 85//2 111//2
f 108//2 118//2 119//2
f 108//3 85//3 118//3
f 106//2 105//2 120//2
f 84//2 105//2 106//2
f 108//2 84//2 85//2
f 108//4 105//4 84//4
f 108//2 93//2 105//2
f 108//2 92//2 93//2
f 108//2 99//2 92//2
f 140//2 93//2 92//2
f 140//2 89//2 93//2
f 144//2 99//2 108//2
f 140//2 88//2 89//2
f 148//2 88//2 140//2
f 144//2 145//2 99//2
f 148//2 117//2 88//2
f 144//2 143//2 145//2
f 149//2 117//2 148//2
f 144//2 82//2 143//2
f 83//2 82//2 144//2
f 113//2 82//2 83//2
f 114//2 82//2 113//2
f 114//2 151//2 82//2
f 137//2 151//2 114//2
f 97//2 151//2 137//2
f 98//2 151//2 97//2
f 98//2 139//2 151//2
f 98//2 138//2 139//2
f 98//2 160//2 138//2
f 98//2 128//2 160//2
f 162//2 128//2 98//2
f 150//2 128//2 162//2
f 134//2 128//2 150//2
f 122//2 128//2 134//2
f 123//2 128//2 122//2
f 155//2 128//2 123//2
f 109//2 128//2 155//2
f 110//2 128//2 109//2
f 158//2 128//2 110//2
f 161//2 128//2 158//2
f 141//2 128//2 161//2
f 104//2 128//2 141//2
f 152//2 128//2 104//2
f 104//2 159//2 152//2
f 91//2 159//2 104//2
f 91//2 90//2 159//2
f 152//2 103//2 128//2
f 115//2 103//2 152//2
f 91//2 101//2 90//2
f 116//2 103//2 115//2
f 91//2 100//2 101//2
f 116//2 102//2 103//2
f 129//2 100//2 91//2
f 129//2 135//2 100//2
f 116//2 124//2 102//2
f 156//2 124//2 116//2
f 156//2 133//2 124//2
f 132//2 133//2 156//2
f 74//5 75//5 161//5 158//5
f 17//6 18//6 82//6 151//6
f 39//7 40//7 111//7 85//7
f 10//8 11//8 102//8 124//8
f 19//9 20//9 145//9 143//9
f 72//10 73//10 110//10 109//10
f 23//11 24//11 148//11 140//11
f 41//12 42//12 118//12 112//12
f 40//13 41//13 112//13 111//13
f 65//14 66//14 162//14 98//14
f 52//15 53//15 154//15 153//15
f 61//16 62//16 114//16 113//16
f 53//17 54//17 107//17 154//17
f 34//18 35//18 131//18 147//18
f 5//19 6//19 116//19 115//19
f 70//20 71//20 155//20 123//20
f 60//21 61//21 113//21 83//21
f 26//22 27//22 88//22 117//22
f 45//23 46//23 94//23 125//23
f 15//24 16//24 139//24 138//24
f 42//25 43//25 119//25 118//25
f 31//26 32//26 157//26 120//26
f 75//27 76//27 141//27 161//27
f 69//28 70//28 123//28 122//28
f 7//29 8//29 132//29 156//29
f 28//30 29//30 93//30 89//30
f 48//31 49//31 142//31 130//31
f 66//32 67//32 150//32 162//32
f 3//33 4//33 152//33 159//33
f 76//34 77//34 104//34 141//34
f 29//35 30//35 105//35 93//35
f 2//36 3//36 159//36 90//36
f 14//37 15//37 138//37 160//37
f 54//38 55//38 87//38 107//38
f 79//39 80//39 135//39 129//39
f 62//40 63//40 137//40 114//40
f 49//41 50//41 96//41 142//41
f 13//42 14//42 160//42 128//42
f 44//43 45//43 125//43 127//43
f 4//44 5//44 115//44 152//44
f 38//45 39//45 85//45 84//45
f 51//46 52//46 153//46 86//46
f 27//47 28//47 89//47 88//47
f 18//48 19//48 143//48 82//48
f 78//49 79//49 129//49 91//49
f 12//50 13//50 128//50 103//50
f 59//51 60//51 83//51 144//51
f 71//52 72//52 109//52 155//52
f 47//53 48//53 130//53 95//53
f 9//54 10//54 124//54 133//54
f 57//55 58//55 108//55 126//55
f 46//56 47//56 95//56 94//56
f 36//57 37//57 106//57 121//57
f 35//58 36//58 121//58 131//58
f 50//59 51//59 86//59 96//59
f 32//60 33//60 146//60 157//60
f 1//61 2//61 90//61 101//61
f 64//62 65//62 98//62 97//62
f 56//63 57//63 126//63 136//63
f 20//64 21//64 99//64 145//64
f 73//65 74//65 158//65 110//65
f 21//66 22//66 92//66 99//66
f 33//67 34//67 147//67 146//67
f 81//68 1//68 101//68 100//68
f 6//69 7//69 156//69 116//69
f 55//70 56//70 136//70 87//70
f 8//71 9//71 133//71 132//71
f 43//72 44//72 127//72 119//72
f 11//73 12//73 103//73 102//73
f 24//74 25//74 149//74 148//74
f 68//75 69//75 122//75 134//75
f 77//76 78//76 91//76 104//76
f 67//77 68//77 134//77 150//77
f 80//78 81//78 100//78 135//78
f 22//79 23//79 140//79 92//79
f 25//80 26//80 117//80 149//80
f 16//81 17//81 151//81 139//81
f 37//82 38//82 84//82 106//82
f 30//83 31//83 120//83 105//83
f 58//84 59//84 144//84 108//84
f 63//85 64//85 97//85 137//85
