# Blender v2.79 (sub 0) OBJ File: 'world_countrycodes_outlines2.blend'
# www.blender.org
mtllib NA_outline.mtl
o NA.001_CUCurve.1710
v 1.049887 -0.000716 0.820686
v 1.050131 0.001430 0.820138
v 1.043881 0.001424 0.811956
v 1.046081 0.001890 0.811135
v 1.046134 -0.001933 0.811428
v 1.047101 -0.000083 0.810604
v 1.043452 -0.000852 0.812188
v 1.042293 0.001978 0.790620
v 1.039433 -0.000801 0.790794
v 1.039847 0.001387 0.790453
v 1.043340 -0.000087 0.789990
v 1.042273 -0.001914 0.790527
v 1.039533 0.000746 0.782990
v 1.042408 0.001913 0.782667
v 1.040000 -0.001459 0.783081
v 1.043400 -0.000008 0.781912
v 1.042093 -0.001926 0.781602
v 1.036437 0.001958 0.770671
v 1.032049 -0.001966 0.763853
v 1.032276 0.000728 0.767628
v 1.036684 -0.000197 0.767954
v 1.033024 -0.001466 0.761162
v 1.028151 0.001347 0.752689
v 1.028633 -0.000710 0.752978
v 1.025471 0.001936 0.753077
v 1.025790 -0.001999 0.751079
v 1.025944 -0.000826 0.756595
v 1.024157 0.000491 0.749924
v 1.028824 0.000789 0.747876
v 1.030459 0.001994 0.750267
v 1.029987 -0.000782 0.751565
v 1.031914 -0.001968 0.749692
v 1.030093 -0.001442 0.747818
v 1.032445 -0.000003 0.748307
v 1.032345 0.001420 0.749050
v 1.031529 0.001419 0.752225
v 1.031919 -0.000769 0.752842
v 1.035567 0.000782 0.751740
v 1.035650 -0.001397 0.751176
v 1.036250 0.002045 0.750210
v 1.036915 -0.001964 0.749205
v 1.036491 0.000787 0.747921
v 1.041133 0.000715 0.750110
v 1.040816 -0.001990 0.751302
v 1.040241 0.001398 0.753462
v 1.040096 -0.000769 0.753916
v 1.063862 0.000695 0.750324
v 1.064452 0.002037 0.754806
v 1.062288 0.000811 0.754226
v 1.062898 -0.002027 0.753196
v 1.064860 -0.001365 0.752123
v 1.064192 -0.000679 0.756117
v 1.065664 0.000693 0.752253
v 1.076196 0.000803 0.751997
v 1.077244 0.001936 0.754934
v 1.080904 -0.001966 0.753842
v 1.075364 -0.000821 0.755802
v 1.082473 -0.000632 0.756453
v 1.082761 0.000906 0.752480
v 1.084649 0.001446 0.755355
v 1.097003 -0.001687 0.753349
v 1.094756 -0.000900 0.750290
v 1.098915 -0.001847 0.751960
v 1.098638 0.001849 0.751494
v 1.096107 0.000018 0.753697
v 1.099446 0.000084 0.750818
v 1.097206 0.001807 0.753608
v 1.100994 -0.000998 0.755010
v 1.100135 0.001533 0.754836
v 1.093495 0.001404 0.756650
v 1.093823 -0.000638 0.757128
v 1.090237 0.001993 0.756722
v 1.092437 0.000801 0.753421
v 1.090513 -0.001482 0.759183
v 1.090312 -0.001125 0.755027
v 1.090404 -0.001978 0.756704
v 1.090080 0.000760 0.759786
v 1.086835 -0.000823 0.756990
v 1.087478 0.001952 0.755673
v 1.087619 0.000690 0.752819
v 1.087439 -0.001911 0.754011
v 1.074369 0.000963 0.756401
v 1.078130 -0.000658 0.759827
v 1.076943 0.001960 0.758705
v 1.080733 -0.000658 0.755167
v 1.075298 -0.002032 0.757199
v 1.076939 0.001477 0.779107
v 1.075109 0.002002 0.777714
v 1.074076 -0.000006 0.776518
v 1.075270 -0.002001 0.777508
v 1.077361 -0.000868 0.779472
v 1.071037 -0.002031 0.779519
v 1.072141 -0.000036 0.780488
v 1.071285 0.001983 0.779357
v 1.069269 0.001442 0.777916
v 1.068865 -0.000807 0.777561
v 1.072010 -0.000818 0.818653
v 1.068333 -0.000016 0.816714
v 1.071358 0.001450 0.818591
v 1.069703 -0.001930 0.816988
v 1.069670 0.001935 0.817064
v 1.065676 0.001938 0.820050
v 1.066784 0.000674 0.822783
v 1.065277 -0.000023 0.818923
v 1.065806 -0.001937 0.820037
v 1.066474 -0.001430 0.822294
v 1.057597 0.002076 0.820716
v 1.059376 -0.000001 0.818572
v 1.058456 -0.001999 0.819973
v 1.056810 -0.000725 0.821980
v 1.056300 -0.001853 0.814768
v 1.055288 0.000809 0.818066
v 1.056900 0.000712 0.813855
v 1.055220 -0.001339 0.817478
v 1.055481 0.001911 0.814954
v 1.051720 0.000394 0.816479
v 1.051865 -0.001404 0.817501
v 1.053323 -0.001968 0.819565
v 1.051947 0.001944 0.818580
v 1.054180 0.000809 0.820607
vn 0.2182 0.2368 -0.9467
vn 0.2953 0.9449 -0.1411
vn 0.0743 0.9957 0.0551
vn -0.4303 -0.3802 0.8187
vn 0.1949 -0.9772 -0.0837
vn 0.2804 -0.8289 0.4840
vn -0.6767 0.6736 0.2971
vn -0.3466 0.6711 0.6553
vn 0.9181 -0.0394 -0.3944
vn -0.8210 -0.4405 0.3631
vn 0.2849 -0.9581 -0.0301
vn -0.8807 -0.4641 0.0947
vn 0.3649 0.9294 -0.0547
vn -0.7215 0.6908 0.0457
vn 0.9967 -0.0313 -0.0743
vn -0.8341 0.5206 0.1822
vn 0.4479 -0.8870 -0.1120
vn 0.4023 0.9127 -0.0714
vn 0.9746 -0.0065 -0.2239
vn -0.6235 -0.7672 0.1504
vn -0.1984 -0.9583 0.2058
vn 0.2348 0.9653 -0.1139
vn -0.8514 0.2817 0.4424
vn 0.8853 -0.1350 -0.4448
vn 0.7025 -0.6236 -0.3429
vn 0.5734 0.7806 0.2485
vn 0.8570 -0.5139 -0.0380
vn -0.5566 0.8238 0.1073
vn -0.4337 -0.8774 -0.2049
vn -0.8462 0.1629 -0.5074
vn -0.8553 -0.3416 0.3895
vn -0.2664 0.4140 -0.8704
vn -0.0222 -0.5654 -0.8245
vn -0.0433 0.9971 0.0624
vn 0.0923 -0.5354 0.8395
vn 0.0032 0.7563 -0.6541
vn 0.1284 -0.0697 -0.9893
vn 0.0860 -0.9830 -0.1618
vn -0.2211 0.6738 0.7050
vn -0.1337 -0.3996 0.9068
vn -0.1080 0.4232 0.8996
vn -0.0550 -0.7877 0.6136
vn -0.0068 0.9999 -0.0121
vn 0.1578 0.2879 -0.9445
vn 0.1081 -0.8500 -0.5155
vn 0.2214 0.1455 -0.9642
vn 0.0916 -0.9614 -0.2592
vn -0.1957 -0.4148 0.8886
vn 0.1426 -0.6406 -0.7545
vn -0.0994 0.9054 0.4127
vn -0.3026 -0.1403 0.9427
vn -0.1304 0.6897 0.7122
vn -0.1345 -0.9767 0.1670
vn -0.3116 -0.3005 0.9014
vn 0.2584 0.5846 -0.7690
vn 0.2814 0.2665 -0.9218
vn 0.0592 0.3540 -0.9333
vn -0.0277 0.9167 0.3985
vn -0.0149 -0.3921 0.9198
vn -0.0109 -0.9615 -0.2745
vn 0.0236 -0.2973 0.9545
vn -0.1188 0.3526 -0.9282
vn 0.0956 0.7158 0.6917
vn 0.0714 -0.9758 0.2067
vn -0.0519 -0.3032 -0.9515
vn 0.3414 0.7937 -0.5034
vn 0.3655 -0.8606 -0.3545
vn 0.9778 0.1932 0.0803
vn 0.0351 0.9967 0.0730
vn 0.6278 0.0431 -0.7772
vn 0.8295 -0.3836 0.4059
vn 0.6563 0.6637 0.3588
vn 0.4411 -0.4148 0.7958
vn 0.3138 0.7168 0.6226
vn -0.3451 0.3070 -0.8870
vn 0.0285 -0.9994 -0.0172
vn -0.1936 -0.5862 -0.7867
vn 0.0143 0.9992 -0.0376
vn -0.0753 0.3674 0.9270
vn 0.0687 -0.6717 0.7376
vn 0.1344 -0.8388 -0.5276
vn -0.2161 -0.5047 0.8358
vn 0.1896 0.2919 -0.9375
vn 0.1003 0.9930 0.0616
vn -0.0966 0.9906 0.0963
vn -0.4681 -0.8097 -0.3537
vn 0.7201 -0.4805 0.5005
vn -0.7275 0.3545 -0.5873
vn -0.2424 -0.3534 -0.9035
vn -0.0601 0.9949 -0.0812
vn -0.7627 -0.0077 -0.6467
vn 0.7128 -0.3756 0.5922
vn 0.0435 -0.9974 -0.0575
vn 0.6016 0.6181 0.5058
vn -0.0394 -0.9982 0.0439
vn 0.7683 -0.0215 0.6397
vn -0.6087 0.6207 -0.4942
vn -0.7205 -0.3659 -0.5890
vn 0.8370 -0.3887 0.3852
vn 0.0702 0.9916 0.1081
vn -0.8664 0.0016 -0.4993
vn -0.1812 0.9789 -0.0949
vn -0.0923 -0.9946 -0.0473
vn -0.0515 -0.9663 -0.2521
vn 0.6630 0.6648 0.3441
vn 0.2684 0.3768 0.8865
vn -0.0617 0.9824 -0.1765
vn -0.2727 -0.0062 -0.9620
vn -0.2455 0.9021 0.3548
vn 0.5242 0.1249 -0.8423
vn 0.2090 -0.6806 0.7022
vn -0.0357 -0.9993 -0.0096
vn -0.2014 0.7626 0.6147
vn -0.5590 -0.2737 0.7826
vn 0.3713 0.2399 -0.8970
vn 0.1421 -0.7589 -0.6355
vn -0.0847 0.8529 -0.5151
vn 0.2898 -0.8143 0.5029
vn 0.5715 0.3119 0.7590
vn 0.3162 -0.6715 -0.6701
usemtl SVGMat.3781
s 1
f 116//1 4//2 119//3
f 1//4 5//5 118//6
f 119//3 3//7 2//8
f 5//5 6//9 116//1
f 3//7 7//10 1//4
f 7//10 12//11 5//5
f 3//7 9//12 7//10
f 8//13 10//14 3//7
f 6//9 8//13 4//2
f 5//5 11//15 6//9
f 10//14 13//16 9//12
f 8//13 13//16 10//14
f 9//12 17//17 12//11
f 11//15 14//18 8//13
f 12//11 16//19 11//15
f 15//20 19//21 17//17
f 18//22 20//23 13//16
f 16//19 18//22 14//18
f 17//17 21//24 16//19
f 19//21 21//24 17//17
f 20//23 19//21 15//20
f 19//21 22//25 21//24
f 21//24 23//26 18//22
f 22//25 24//27 21//24
f 18//22 25//28 20//23
f 23//26 25//28 18//22
f 26//29 24//27 22//25
f 25//28 28//30 27//31
f 28//30 26//29 27//31
f 25//28 29//32 28//30
f 29//32 33//33 26//29
f 23//26 30//34 25//28
f 24//27 30//34 23//26
f 26//29 31//35 24//27
f 30//34 35//36 29//32
f 34//37 32//38 33//33
f 31//35 36//39 30//34
f 32//38 37//40 31//35
f 37//40 38//41 36//39
f 32//38 39//42 37//40
f 38//41 40//43 30//34
f 39//42 38//41 37//40
f 35//36 42//44 34//37
f 42//44 41//45 32//38
f 40//43 42//44 35//36
f 43//46 44//47 41//45
f 40//43 43//46 42//44
f 39//42 46//48 38//41
f 44//47 46//48 39//42
f 43//46 51//49 44//47
f 48//50 43//46 40//43
f 49//51 40//43 45//52
f 49//51 45//52 46//48
f 44//47 50//53 46//48
f 50//53 52//54 49//51
f 48//50 53//55 47//56
f 48//50 54//57 53//55
f 52//54 55//58 48//50
f 50//53 57//59 52//54
f 51//49 56//60 50//53
f 54//57 56//60 51//49
f 56//60 58//61 57//59
f 55//58 59//62 54//57
f 58//61 60//63 55//58
f 56//60 61//64 58//61
f 59//62 62//65 56//60
f 60//63 64//66 55//58
f 62//65 63//67 56//60
f 61//64 65//68 58//61
f 65//68 67//69 60//63
f 64//66 66//70 62//65
f 66//70 63//67 62//65
f 66//70 68//71 63//67
f 64//66 68//71 66//70
f 67//69 69//72 64//66
f 69//72 71//73 68//71
f 67//69 70//74 69//72
f 61//64 73//75 65//68
f 71//73 76//76 61//64
f 75//77 72//78 73//75
f 72//78 77//79 70//74
f 74//80 81//81 76//76
f 77//79 78//82 74//80
f 75//77 80//83 72//78
f 76//76 80//83 75//77
f 80//83 84//84 79//85
f 78//82 86//86 81//81
f 79//85 83//87 78//82
f 86//86 82//88 85//89
f 82//88 88//90 84//84
f 86//86 89//91 82//88
f 91//92 90//93 86//86
f 87//94 91//92 83//87
f 91//92 92//95 90//93
f 87//94 93//96 91//92
f 89//91 95//97 88//90
f 90//93 96//98 89//91
f 92//95 96//98 90//93
f 93//96 97//99 92//95
f 94//100 97//99 93//96
f 98//101 101//102 95//97
f 92//95 100//103 96//98
f 97//99 100//103 92//95
f 97//99 105//104 100//103
f 99//105 103//106 97//99
f 102//107 103//106 99//105
f 98//101 102//107 101//102
f 100//103 104//108 98//101
f 102//107 107//109 103//106
f 105//104 108//110 104//108
f 106//111 109//112 105//104
f 108//110 107//109 102//107
f 107//109 112//113 110//114
f 108//110 113//115 107//109
f 111//116 113//115 108//110
f 110//114 111//116 109//112
f 113//115 115//117 107//109
f 113//115 116//1 115//117
f 111//116 116//1 113//115
f 114//118 118//6 111//116
f 116//1 119//3 115//117
f 112//113 118//6 114//118
f 119//3 120//119 112//113
f 120//119 1//4 118//6
f 119//3 2//8 120//119
f 118//6 5//5 117//120
f 2//8 3//7 1//4
f 1//4 7//10 5//5
f 119//3 4//2 3//7
f 117//120 5//5 116//1
f 116//1 6//9 4//2
f 4//2 8//13 3//7
f 3//7 10//14 9//12
f 6//9 11//15 8//13
f 5//5 12//11 11//15
f 7//10 9//12 12//11
f 9//12 13//16 15//20
f 8//13 14//18 13//16
f 9//12 15//20 17//17
f 11//15 16//19 14//18
f 12//11 17//17 16//19
f 14//18 18//22 13//16
f 13//16 20//23 15//20
f 16//19 21//24 18//22
f 21//24 24//27 23//26
f 20//23 27//31 19//21
f 20//23 25//28 27//31
f 19//21 26//29 22//25
f 19//21 27//31 26//29
f 28//30 29//32 26//29
f 25//28 30//34 29//32
f 24//27 31//35 30//34
f 26//29 32//38 31//35
f 26//29 33//33 32//38
f 29//32 34//37 33//33
f 29//32 35//36 34//37
f 31//35 37//40 36//39
f 36//39 38//41 30//34
f 30//34 40//43 35//36
f 32//38 41//45 39//42
f 34//37 42//44 32//38
f 42//44 43//46 41//45
f 41//45 44//47 39//42
f 38//41 45//52 40//43
f 38//41 46//48 45//52
f 43//46 47//56 51//49
f 48//50 47//56 43//46
f 49//51 48//50 40//43
f 46//48 50//53 49//51
f 44//47 51//49 50//53
f 49//51 52//54 48//50
f 47//56 53//55 51//49
f 53//55 54//57 51//49
f 48//50 55//58 54//57
f 50//53 56//60 57//59
f 52//54 57//59 55//58
f 57//59 58//61 55//58
f 54//57 59//62 56//60
f 55//58 64//66 59//62
f 56//60 63//67 61//64
f 59//62 64//66 62//65
f 58//61 65//68 60//63
f 60//63 67//69 64//66
f 64//66 69//72 68//71
f 63//67 68//71 61//64
f 69//72 70//74 71//73
f 65//68 73//75 67//69
f 61//64 75//77 73//75
f 68//71 71//73 61//64
f 67//69 72//78 70//74
f 61//64 76//76 75//77
f 67//69 73//75 72//78
f 71//73 74//80 76//76
f 70//74 77//79 71//73
f 71//73 77//79 74//80
f 72//78 79//85 77//79
f 77//79 79//85 78//82
f 72//78 80//83 79//85
f 76//76 81//81 80//83
f 74//80 78//82 81//81
f 80//83 82//88 84//84
f 81//81 85//89 80//83
f 81//81 86//86 85//89
f 78//82 83//87 86//86
f 79//85 84//84 83//87
f 80//83 85//89 82//88
f 84//84 87//94 83//87
f 84//84 88//90 87//94
f 83//87 91//92 86//86
f 82//88 89//91 88//90
f 86//86 90//93 89//91
f 88//90 94//100 87//94
f 91//92 93//96 92//95
f 87//94 94//100 93//96
f 88//90 95//97 94//100
f 89//91 96//98 95//97
f 96//98 98//101 95//97
f 95//97 101//102 94//100
f 94//100 99//105 97//99
f 96//98 100//103 98//101
f 94//100 101//102 99//105
f 101//102 102//107 99//105
f 97//99 103//106 106//111
f 98//101 104//108 102//107
f 100//103 105//104 104//108
f 97//99 106//111 105//104
f 103//106 110//114 106//111
f 103//106 107//109 110//114
f 104//108 108//110 102//107
f 105//104 109//112 108//110
f 106//111 110//114 109//112
f 109//112 111//116 108//110
f 110//114 112//113 114//118
f 110//114 114//118 111//116
f 107//109 115//117 112//113
f 111//116 117//120 116//1
f 111//116 118//6 117//120
f 115//117 119//3 112//113
f 112//113 120//119 118//6
f 120//119 2//8 1//4
