# Blender v2.79 (sub 0) OBJ File: 'world_countrycodes_export2.blend'
# www.blender.org
mtllib NE.mtl
o NE.002_CUCurve.1853
v 1.045326 0.000000 0.524722
v 1.044949 0.000000 0.517074
v 1.040438 0.000000 0.519526
v 1.039001 0.000000 0.517668
v 1.036730 0.000000 0.515819
v 1.033055 0.000000 0.514740
v 1.030191 0.000000 0.514358
v 1.028382 0.000000 0.514337
v 1.004139 0.000000 0.529574
v 0.993757 0.000000 0.538056
v 0.985599 0.000000 0.540747
v 0.984257 0.000000 0.540999
v 0.984354 0.000000 0.548558
v 0.983892 0.000000 0.556078
v 0.983490 0.000000 0.556582
v 0.982317 0.000000 0.559906
v 0.980847 0.000000 0.561750
v 0.979537 0.000000 0.562679
v 0.974453 0.000000 0.563353
v 0.969074 0.000000 0.563633
v 0.967300 0.000000 0.563930
v 0.965109 0.000000 0.565155
v 0.963085 0.000000 0.565439
v 0.961366 0.000000 0.565440
v 0.961204 0.000000 0.568221
v 0.961522 0.000000 0.568662
v 0.962227 0.000000 0.570296
v 0.962922 0.000000 0.571453
v 0.964360 0.000000 0.572576
v 0.965420 0.000000 0.573582
v 0.965868 0.000000 0.574427
v 0.965921 0.000000 0.575519
v 0.966124 0.000000 0.576399
v 0.966530 0.000000 0.576826
v 0.967241 0.000000 0.576950
v 0.968140 0.000000 0.577950
v 0.968975 0.000000 0.578844
v 0.969885 0.000000 0.579035
v 0.971829 0.000000 0.578433
v 0.972037 0.000000 0.578594
v 0.972070 0.000000 0.581002
v 0.972245 0.000000 0.581652
v 0.973707 0.000000 0.582034
v 0.974656 0.000000 0.582684
v 0.974633 0.000000 0.581462
v 0.975252 0.000000 0.580292
v 0.976101 0.000000 0.579993
v 0.976891 0.000000 0.580146
v 0.977515 0.000000 0.580661
v 0.977807 0.000000 0.582194
v 0.978322 0.000000 0.582781
v 0.979436 0.000000 0.583239
v 0.980289 0.000000 0.583087
v 0.980791 0.000000 0.582513
v 0.980923 0.000000 0.581564
v 0.981445 0.000000 0.580437
v 0.982640 0.000000 0.578730
v 0.983572 0.000000 0.577621
v 0.984053 0.000000 0.574723
v 0.984440 0.000000 0.573695
v 0.985068 0.000000 0.573106
v 0.987222 0.000000 0.572932
v 0.990290 0.000000 0.573360
v 0.992061 0.000000 0.571948
v 0.992858 0.000000 0.571862
v 0.994181 0.000000 0.572677
v 0.996853 0.000000 0.572923
v 0.997896 0.000000 0.573534
v 0.999089 0.000000 0.575724
v 0.999560 0.000000 0.576357
v 1.000112 0.000000 0.576700
v 1.000651 0.000000 0.576659
v 1.002691 0.000000 0.575728
v 1.004284 0.000000 0.575314
v 1.005890 0.000000 0.575167
v 1.007032 0.000000 0.575673
v 1.009719 0.000000 0.577386
v 1.011227 0.000000 0.577790
v 1.012888 0.000000 0.577919
v 1.014549 0.000000 0.577790
v 1.015893 0.000000 0.577437
v 1.018125 0.000000 0.575546
v 1.019343 0.000000 0.574862
v 1.023230 0.000000 0.574761
v 1.027046 0.000000 0.574998
v 1.029378 0.000000 0.576011
v 1.031646 0.000000 0.576235
v 1.032345 0.000000 0.575935
v 1.033051 0.000000 0.575328
v 1.035148 0.000000 0.572879
v 1.036172 0.000000 0.572413
v 1.036651 0.000000 0.572490
v 1.036653 0.000000 0.569929
v 1.036843 0.000000 0.568669
v 1.037406 0.000000 0.567465
v 1.037807 0.000000 0.565852
v 1.038208 0.000000 0.564646
v 1.040331 0.000000 0.561462
v 1.044822 0.000000 0.556459
v 1.047012 0.000000 0.554352
v 1.047433 0.000000 0.548444
v 1.047570 0.000000 0.539445
v 1.048029 0.000000 0.536348
v 1.048652 0.000000 0.534023
v 1.048649 0.000000 0.532833
v 1.047590 0.000000 0.531081
v 1.047515 0.000000 0.529258
v 1.047063 0.000000 0.527902
v 1.045748 0.000000 0.525669
v 0.980791 0.050000 0.582513
v 0.980923 0.050000 0.581564
v 1.036172 0.050000 0.572413
v 1.036653 0.050000 0.569929
v 1.044822 0.050000 0.556459
v 1.047012 0.050000 0.554352
v 1.015893 0.050000 0.577437
v 1.018125 0.050000 0.575546
v 0.977515 0.050000 0.580661
v 0.999560 0.050000 0.576357
v 1.000112 0.050000 0.576700
v 0.972070 0.050000 0.581002
v 0.972245 0.050000 0.581652
v 0.975252 0.050000 0.580292
v 0.972037 0.050000 0.578594
v 0.976101 0.050000 0.579993
v 0.984354 0.050000 0.548558
v 1.047433 0.050000 0.548444
v 0.967241 0.050000 0.576950
v 0.983572 0.050000 0.577621
v 1.048652 0.050000 0.534023
v 1.048649 0.050000 0.532833
v 0.961522 0.050000 0.568662
v 1.036843 0.050000 0.568669
v 1.037406 0.050000 0.567465
v 0.961204 0.050000 0.568221
v 1.009719 0.050000 0.577386
v 1.011227 0.050000 0.577790
v 0.980847 0.050000 0.561750
v 1.040331 0.050000 0.561462
v 0.977807 0.050000 0.582194
v 0.976891 0.050000 0.580146
v 0.965109 0.050000 0.565155
v 1.037807 0.050000 0.565852
v 0.993757 0.050000 0.538056
v 0.999089 0.050000 0.575724
v 1.002691 0.050000 0.575728
v 1.035148 0.050000 0.572879
v 0.965420 0.050000 0.573582
v 0.985068 0.050000 0.573106
v 0.961366 0.050000 0.565440
v 0.978322 0.050000 0.582781
v 0.979436 0.050000 0.583239
v 0.994181 0.050000 0.572677
v 0.979537 0.050000 0.562679
v 0.974453 0.050000 0.563353
v 0.992061 0.050000 0.571948
v 0.992858 0.050000 0.571862
v 1.004139 0.050000 0.529574
v 0.984257 0.050000 0.540999
v 0.984440 0.050000 0.573695
v 0.996853 0.050000 0.572923
v 0.997896 0.050000 0.573534
v 1.039001 0.050000 0.517668
v 1.036730 0.050000 0.515819
v 0.983490 0.050000 0.556582
v 1.000651 0.050000 0.576659
v 1.019343 0.050000 0.574862
v 1.023230 0.050000 0.574761
v 0.965921 0.050000 0.575519
v 0.984053 0.050000 0.574723
v 0.987222 0.050000 0.572932
v 1.044949 0.050000 0.517074
v 1.040438 0.050000 0.519526
v 0.982317 0.050000 0.559906
v 0.966530 0.050000 0.576826
v 1.045748 0.050000 0.525669
v 1.045326 0.050000 0.524722
v 0.968140 0.050000 0.577950
v 0.971829 0.050000 0.578433
v 1.033051 0.050000 0.575328
v 0.962227 0.050000 0.570296
v 0.965868 0.050000 0.574427
v 0.967300 0.050000 0.563930
v 1.047570 0.050000 0.539445
v 0.980289 0.050000 0.583087
v 0.973707 0.050000 0.582034
v 0.974633 0.050000 0.581462
v 0.962922 0.050000 0.571453
v 1.047590 0.050000 0.531081
v 0.981445 0.050000 0.580437
v 1.030191 0.050000 0.514358
v 1.028382 0.050000 0.514337
v 1.005890 0.050000 0.575167
v 1.038208 0.050000 0.564646
v 0.964360 0.050000 0.572576
v 0.985599 0.050000 0.540747
v 0.990290 0.050000 0.573360
v 1.012888 0.050000 0.577919
v 0.974656 0.050000 0.582684
v 0.968975 0.050000 0.578844
v 0.969885 0.050000 0.579035
v 0.966124 0.050000 0.576399
v 1.007032 0.050000 0.575673
v 0.963085 0.050000 0.565439
v 0.969074 0.050000 0.563633
v 1.027046 0.050000 0.574998
v 0.983892 0.050000 0.556078
v 1.033055 0.050000 0.514740
v 1.047515 0.050000 0.529258
v 1.029378 0.050000 0.576011
v 1.032345 0.050000 0.575935
v 0.982640 0.050000 0.578730
v 1.014549 0.050000 0.577790
v 1.047063 0.050000 0.527902
v 1.004284 0.050000 0.575314
v 1.048029 0.050000 0.536348
v 1.031646 0.050000 0.576235
v 1.036651 0.050000 0.572490
vn 0.0000 -1.0000 0.0000
vn 0.0000 1.0000 0.0000
vn 0.0000 1.0000 -0.0007
vn 0.0000 1.0000 -0.0001
vn 0.0000 1.0000 0.0001
vn -0.0006 0.0000 -1.0000
vn 0.8617 0.0000 -0.5075
vn -0.4776 0.0000 -0.8786
vn 0.0775 0.0000 0.9970
vn -0.9430 0.0000 -0.3328
vn 0.0908 0.0000 0.9959
vn -0.7437 0.0000 0.6685
vn -0.1723 0.0000 0.9850
vn 0.9135 0.0000 -0.4069
vn 0.9358 0.0000 0.3527
vn 0.7658 0.0000 0.6431
vn -0.8023 0.0000 0.5969
vn -0.1648 0.0000 -0.9863
vn -0.9988 0.0000 0.0480
vn -0.5375 0.0000 0.8432
vn -0.1387 0.0000 -0.9903
vn 0.7595 0.0000 0.6505
vn 0.9486 0.0000 -0.3164
vn 0.9075 0.0000 0.4201
vn -0.5246 0.0000 0.8514
vn -0.9981 0.0000 -0.0614
vn -0.9999 0.0000 0.0138
vn -0.8830 0.0000 0.4694
vn -0.3984 0.0000 0.9172
vn 0.9905 0.0000 0.1379
vn -0.4883 0.0000 -0.8727
vn -0.9744 0.0000 0.2249
vn -0.9180 0.0000 0.3966
vn 0.9999 0.0000 0.0152
vn 0.6932 0.0000 0.7207
vn 0.6465 0.0000 0.7629
vn -0.0519 0.0000 -0.9987
vn -0.9983 0.0000 -0.0581
vn 0.9892 0.0000 0.1465
vn -0.6156 0.0000 0.7881
vn -0.5273 0.0000 0.8497
vn 0.3948 0.0000 0.9188
vn 0.4894 0.0000 0.8720
vn 0.9491 0.0000 0.3151
vn -0.9657 0.0000 0.2598
vn 0.9889 0.0000 0.1486
vn 0.9998 0.0000 -0.0192
vn -0.8572 0.0000 0.5150
vn 0.7911 0.0000 -0.6116
vn 0.8557 0.0000 -0.5175
vn -0.1898 0.0000 0.9818
vn -0.7519 0.0000 0.6593
vn 0.0117 0.0000 -0.9999
vn -0.8115 0.0000 0.5844
vn 1.0000 0.0000 -0.0021
vn 0.2817 0.0000 -0.9595
vn -0.9824 0.0000 0.1869
vn 0.8189 0.0000 0.5739
vn 0.6841 0.0000 0.7294
vn -0.7820 0.0000 -0.6233
vn 0.9056 0.0000 0.4242
vn -0.5786 0.0000 -0.8156
vn -0.0985 0.0000 0.9951
vn -0.2585 0.0000 0.9660
vn 0.1323 0.0000 -0.9912
vn 0.9992 0.0000 -0.0409
vn 0.9660 0.0000 0.2587
vn -0.0619 0.0000 0.9981
vn -0.6368 0.0000 0.7711
vn 0.9705 0.0000 0.2411
vn -0.8782 0.0000 0.4782
vn -0.1845 0.0000 -0.9828
vn 0.6236 0.0000 0.7818
vn 0.0759 0.0000 0.9971
vn -0.6887 0.0000 0.7250
vn 0.2958 0.0000 0.9553
vn 0.4146 0.0000 0.9100
vn 0.8319 0.0000 0.5549
vn -0.0775 0.0000 0.9970
vn 1.0000 0.0000 0.0007
vn -0.1598 0.0000 0.9871
vn -0.5649 0.0000 0.8252
vn -0.3798 0.0000 0.9250
vn 0.2539 0.0000 0.9672
vn -0.2045 0.0000 0.9789
vn -0.1315 0.0000 -0.9913
vn -0.7310 0.0000 0.6824
vn -0.0915 0.0000 0.9958
vn 0.9975 0.0000 0.0712
vn 0.7442 0.0000 0.6679
vn 0.1071 0.0000 0.9943
vn -0.5321 0.0000 -0.8467
vn -0.6327 0.0000 -0.7744
vn 0.6523 0.0000 0.7579
vn -0.7245 0.0000 0.6892
vn 0.9988 0.0000 -0.0492
vn -0.9999 0.0000 0.0129
vn -0.2530 0.0000 0.9675
vn -0.4051 0.0000 0.9143
vn -0.5056 0.0000 0.8628
vn 0.7532 0.0000 0.6578
vn 0.6313 0.0000 -0.7755
vn 0.1748 0.0000 0.9846
vn 0.3316 0.0000 0.9434
vn 0.4151 0.0000 0.9098
vn 0.0260 0.0000 0.9997
vn -0.1383 0.0000 0.9904
vn -0.3133 0.0000 -0.9497
vn -0.6141 0.0000 0.7892
vn 0.8842 0.0000 0.4672
vn 0.9865 0.0000 0.1638
vn 0.2517 0.0000 0.9678
vn 0.0809 0.0000 0.9967
usemtl SVGMat.3781
s off
f 8//1 7//1 6//1
f 8//1 6//1 5//1
f 8//1 5//1 4//1
f 9//1 8//1 4//1
f 3//1 2//1 1//1
f 9//1 4//1 3//1
f 9//1 3//1 1//1
f 9//1 1//1 109//1
f 9//1 109//1 108//1
f 9//1 108//1 107//1
f 9//1 107//1 106//1
f 10//1 9//1 106//1
f 10//1 106//1 105//1
f 10//1 105//1 104//1
f 10//1 104//1 103//1
f 10//1 103//1 102//1
f 11//1 10//1 102//1
f 12//1 11//1 102//1
f 12//1 102//1 101//1
f 13//1 12//1 101//1
f 13//1 101//1 100//1
f 14//1 13//1 100//1
f 14//1 100//1 99//1
f 15//1 14//1 99//1
f 15//1 99//1 98//1
f 16//1 15//1 98//1
f 17//1 16//1 98//1
f 18//1 17//1 98//1
f 19//1 18//1 98//1
f 19//1 98//1 97//1
f 20//1 19//1 97//1
f 21//1 20//1 97//1
f 22//1 21//1 97//1
f 22//1 97//1 96//1
f 23//1 22//1 96//1
f 24//1 23//1 96//1
f 24//1 96//1 95//1
f 25//1 24//1 95//1
f 25//1 95//1 94//1
f 26//1 25//1 94//1
f 26//1 94//1 93//1
f 27//1 26//1 93//1
f 28//1 27//1 93//1
f 29//1 28//1 65//1
f 65//1 28//1 93//1
f 29//1 65//1 64//1
f 66//1 65//1 93//1
f 66//1 93//1 91//1
f 91//1 93//1 92//1
f 66//1 91//1 90//1
f 67//1 66//1 90//1
f 29//1 64//1 62//1
f 62//1 64//1 63//1
f 30//1 29//1 62//1
f 30//1 62//1 61//1
f 68//1 67//1 90//1
f 30//1 61//1 60//1
f 31//1 30//1 60//1
f 31//1 60//1 59//1
f 84//1 68//1 90//1
f 84//1 90//1 89//1
f 32//1 31//1 59//1
f 68//1 84//1 83//1
f 85//1 84//1 89//1
f 69//1 68//1 75//1
f 75//1 68//1 83//1
f 75//1 83//1 82//1
f 69//1 75//1 74//1
f 76//1 75//1 82//1
f 85//1 89//1 88//1
f 69//1 74//1 73//1
f 86//1 85//1 88//1
f 32//1 59//1 58//1
f 33//1 32//1 58//1
f 70//1 69//1 73//1
f 70//1 73//1 72//1
f 86//1 88//1 87//1
f 76//1 82//1 81//1
f 77//1 76//1 81//1
f 71//1 70//1 72//1
f 34//1 33//1 58//1
f 35//1 34//1 58//1
f 36//1 35//1 58//1
f 78//1 77//1 81//1
f 78//1 81//1 80//1
f 79//1 78//1 80//1
f 36//1 58//1 57//1
f 36//1 57//1 39//1
f 37//1 36//1 39//1
f 40//1 39//1 57//1
f 37//1 39//1 38//1
f 40//1 57//1 56//1
f 41//1 40//1 47//1
f 47//1 40//1 56//1
f 48//1 47//1 56//1
f 41//1 47//1 46//1
f 49//1 48//1 56//1
f 41//1 46//1 45//1
f 49//1 56//1 55//1
f 42//1 41//1 45//1
f 50//1 49//1 55//1
f 43//1 42//1 45//1
f 50//1 55//1 54//1
f 43//1 45//1 44//1
f 51//1 50//1 54//1
f 51//1 54//1 53//1
f 52//1 51//1 53//1
f 192//2 208//2 191//2
f 192//2 164//2 208//2
f 192//2 163//2 164//2
f 158//2 163//2 192//2
f 173//2 177//2 172//2
f 158//2 173//2 163//2
f 158//2 177//2 173//2
f 158//2 176//2 177//2
f 158//2 214//2 176//2
f 158//2 209//2 214//2
f 158//2 189//2 209//2
f 144//2 189//2 158//2
f 144//2 131//2 189//2
f 144//2 130//2 131//2
f 144//2 216//2 130//2
f 144//2 184//2 216//2
f 196//2 184//2 144//2
f 159//2 184//2 196//2
f 159//2 127//2 184//2
f 126//2 127//2 159//2
f 126//2 115//2 127//2
f 207//2 115//2 126//2
f 207//2 114//2 115//2
f 165//2 114//2 207//2
f 165//2 139//2 114//2
f 174//2 139//2 165//2
f 138//2 139//2 174//2
f 154//2 139//2 138//2
f 155//2 139//2 154//2
f 155//2 194//2 139//2
f 205//2 194//2 155//2
f 183//2 194//2 205//2
f 142//2 194//2 183//2
f 142//2 143//2 194//2
f 204//2 143//2 142//2
f 150//2 143//2 204//2
f 150//2 134//2 143//2
f 135//2 134//2 150//2
f 135//2 133//2 134//2
f 132//2 133//2 135//2
f 132//2 113//2 133//2
f 181//2 113//2 132//2
f 188//2 113//2 181//2
f 195//2 157//2 188//2
f 157//2 113//2 188//2
f 195//2 156//2 157//2
f 153//2 113//2 157//2
f 153//2 112//2 113//2
f 112//2 218//2 113//2
f 153//2 147//2 112//2
f 161//2 147//2 153//2
f 195//2 171//2 156//2
f 171//2 197//2 156//2
f 148//2 171//2 195//2
f 148//2 149//2 171//2
f 162//2 147//2 161//2
f 148//2 160//2 149//2
f 182//2 160//2 148//2
f 182//2 170//2 160//2
f 168//2 147//2 162//2
f 168//2 180//2 147//2
f 169//2 170//2 182//2
f 162//2 167//2 168//2
f 206//3 180//3 168//3
f 145//2 193//2 162//2
f 193//2 167//2 162//2
f 193//2 117//2 167//2
f 145//4 215//4 193//4
f 203//2 117//2 193//2
f 206//2 211//2 180//2
f 145//2 146//2 215//2
f 210//2 211//2 206//2
f 169//2 129//2 170//2
f 202//2 129//2 169//2
f 119//2 146//2 145//2
f 119//2 166//2 146//2
f 210//2 217//2 211//2
f 203//2 116//2 117//2
f 136//2 116//2 203//2
f 120//2 166//2 119//2
f 175//2 129//2 202//2
f 128//5 129//5 175//5
f 178//2 129//2 128//2
f 137//2 116//2 136//2
f 137//2 213//2 116//2
f 198//2 213//2 137//2
f 178//2 212//2 129//2
f 178//2 179//2 212//2
f 200//2 179//2 178//2
f 124//2 212//2 179//2
f 200//2 201//2 179//2
f 124//2 190//2 212//2
f 121//2 125//2 124//2
f 125//2 190//2 124//2
f 141//2 190//2 125//2
f 121//2 123//2 125//2
f 118//2 190//2 141//2
f 121//2 187//2 123//2
f 118//2 111//2 190//2
f 122//2 187//2 121//2
f 140//2 111//2 118//2
f 186//2 187//2 122//2
f 140//2 110//2 111//2
f 186//2 199//2 187//2
f 151//2 110//2 140//2
f 151//2 185//2 110//2
f 152//2 185//2 151//2
f 23//6 24//6 150//6 204//6
f 108//7 109//7 176//7 214//7
f 2//8 3//8 173//8 172//8
f 79//9 80//9 213//9 198//9
f 15//10 16//10 174//10 165//10
f 74//11 75//11 193//11 215//11
f 35//12 36//12 178//12 128//12
f 34//13 35//13 128//13 175//13
f 109//14 1//14 177//14 176//14
f 59//15 60//15 160//15 170//15
f 57//16 58//16 129//16 212//16
f 69//17 70//17 119//17 145//17
f 20//18 21//18 183//18 205//18
f 31//19 32//19 169//19 182//19
f 76//20 77//20 136//20 203//20
f 22//21 23//21 204//21 142//21
f 89//22 90//22 147//22 180//22
f 107//23 108//23 214//23 209//23
f 55//24 56//24 190//24 111//24
f 65//25 66//25 153//25 157//25
f 13//26 14//26 207//26 126//26
f 40//27 41//27 121//27 124//27
f 30//28 31//28 182//28 148//28
f 85//29 86//29 210//29 206//29
f 54//30 55//30 111//30 110//30
f 21//31 22//31 142//31 183//31
f 32//32 33//32 202//32 169//32
f 26//33 27//33 181//33 132//33
f 101//34 102//34 184//34 127//34
f 99//35 100//35 115//35 114//35
f 81//36 82//36 117//36 116//36
f 19//37 20//37 205//37 155//37
f 24//38 25//38 135//38 150//38
f 102//39 103//39 216//39 184//39
f 28//40 29//40 195//40 188//40
f 70//41 71//41 120//41 119//41
f 87//42 88//42 211//42 217//42
f 82//43 83//43 167//43 117//43
f 96//44 97//44 194//44 143//44
f 41//45 42//45 122//45 121//45
f 93//46 94//46 133//46 113//46
f 44//47 45//47 187//47 199//47
f 27//48 28//48 188//48 181//48
f 3//49 4//49 163//49 173//49
f 105//50 106//50 189//50 131//50
f 47//51 48//51 141//51 125//51
f 50//52 51//52 151//52 140//52
f 7//53 8//53 192//53 191//53
f 25//54 26//54 132//54 135//54
f 104//55 105//55 131//55 130//55
f 5//56 6//56 208//56 164//56
f 49//57 50//57 140//57 118//57
f 56//58 57//58 212//58 190//58
f 60//59 61//59 149//59 160//59
f 16//60 17//60 138//60 174//60
f 94//61 95//61 134//61 133//61
f 17//62 18//62 154//62 138//62
f 86//63 87//63 217//63 210//63
f 77//64 78//64 137//64 136//64
f 6//65 7//65 191//65 208//65
f 106//66 107//66 209//66 189//66
f 103//67 104//67 130//67 216//67
f 84//68 85//68 206//68 168//68
f 48//69 49//69 118//69 141//69
f 95//70 96//70 143//70 134//70
f 68//71 69//71 145//71 162//71
f 11//72 12//72 159//72 196//72
f 63//73 64//73 156//73 197//73
f 71//74 72//74 166//74 120//74
f 29//75 30//75 148//75 195//75
f 38//76 39//76 179//76 201//76
f 90//77 91//77 112//77 147//77
f 97//78 98//78 139//78 194//78
f 78//79 79//79 198//79 137//79
f 92//80 93//80 113//80 218//80
f 91//81 92//81 218//81 112//81
f 43//82 44//82 199//82 186//82
f 51//83 52//83 152//83 151//83
f 80//84 81//84 116//84 213//84
f 37//85 38//85 201//85 200//85
f 18//86 19//86 155//86 154//86
f 14//60 15//60 165//60 207//60
f 36//87 37//87 200//87 178//87
f 66//88 67//88 161//88 153//88
f 100//89 101//89 127//89 115//89
f 98//90 99//90 114//90 139//90
f 64//91 65//91 157//91 156//91
f 8//92 9//92 158//92 192//92
f 9//93 10//93 144//93 158//93
f 88//94 89//94 180//94 211//94
f 33//95 34//95 175//95 202//95
f 1//96 2//96 172//96 177//96
f 12//97 13//97 126//97 159//97
f 42//98 43//98 186//98 122//98
f 75//99 76//99 203//99 193//99
f 67//100 68//100 162//100 161//100
f 53//101 54//101 110//101 185//101
f 4//102 5//102 164//102 163//102
f 52//103 53//103 185//103 152//103
f 46//104 47//104 125//104 123//104
f 72//105 73//105 146//105 166//105
f 83//106 84//106 168//106 167//106
f 62//107 63//107 197//107 171//107
f 10//108 11//108 196//108 144//108
f 39//109 40//109 124//109 179//109
f 45//110 46//110 123//110 187//110
f 58//111 59//111 170//111 129//111
f 73//112 74//112 215//112 146//112
f 61//113 62//113 171//113 149//113
