# Blender v2.79 (sub 0) OBJ File: 'world_countrycodes_outlines2.blend'
# www.blender.org
mtllib NE_outline.mtl
o NE.001_CUCurve.1679
v 1.046827 0.001362 0.533146
v 1.046333 -0.000042 0.533295
v 1.046932 -0.001408 0.533176
v 1.048434 -0.002010 0.532346
v 1.049904 -0.001424 0.532907
v 1.050464 0.000830 0.533180
v 1.048994 0.000732 0.554887
v 1.046442 0.001967 0.553710
v 1.045223 0.000041 0.553001
v 1.046391 -0.001947 0.553722
v 1.048380 -0.001384 0.554733
v 1.040378 0.000793 0.564433
v 1.037682 0.001934 0.563669
v 1.036463 -0.000834 0.563553
v 1.038142 -0.001963 0.566590
v 1.034929 -0.001389 0.571007
v 1.038710 0.000784 0.569411
v 1.034430 0.000641 0.570657
v 1.037343 -0.002023 0.572692
v 1.038124 0.000169 0.574186
v 1.036286 0.001973 0.573011
v 1.032905 -0.000632 0.578108
v 1.031815 0.001945 0.577224
v 1.030877 0.000789 0.574466
v 1.032090 -0.001947 0.575521
v 1.028065 -0.001384 0.577094
v 1.026419 0.000591 0.577021
v 1.027822 -0.001973 0.574504
v 1.027400 0.000648 0.572899
v 1.019786 -0.001418 0.576150
v 1.019067 0.001970 0.574023
v 1.019959 0.000867 0.576639
v 1.018369 -0.000857 0.573069
v 1.013361 0.000824 0.576273
v 1.013877 -0.001927 0.577687
v 1.016603 0.000683 0.579332
v 1.014956 -0.000943 0.579868
v 1.011148 0.001930 0.578917
v 1.011476 -0.000867 0.576034
v 1.009331 -0.000697 0.579389
v 1.005157 -0.000003 0.577014
v 1.006147 -0.000750 0.573080
v 1.005700 -0.001976 0.575759
v 1.005722 0.001976 0.575752
v 1.005501 0.001450 0.573543
v 1.000044 -0.001990 0.575845
v 1.000546 0.000032 0.574537
v 0.999464 0.001470 0.578249
v 0.999959 0.002005 0.576012
v 0.999272 -0.000823 0.578767
v 0.996343 -0.000826 0.574791
v 0.998777 0.000683 0.571485
v 0.998007 -0.001891 0.572291
v 0.997377 0.002024 0.573694
v 0.992464 -0.000985 0.574169
v 0.992340 0.001957 0.572855
v 0.992150 0.001390 0.570473
v 0.993104 0.000114 0.569861
v 0.992900 -0.001985 0.571122
v 0.989863 -0.000820 0.571211
v 0.990930 0.000747 0.575219
v 0.984813 0.001854 0.574165
v 0.983578 0.001952 0.573166
v 0.984611 -0.001966 0.573521
v 0.984763 0.000659 0.570954
v 0.986060 -0.000795 0.574868
v 0.983198 -0.001075 0.571859
v 0.984857 0.001413 0.578215
v 0.981703 -0.000004 0.576680
v 0.985294 -0.000705 0.578536
v 0.979169 0.000921 0.580992
v 0.979256 -0.001361 0.581583
v 0.979670 -0.001942 0.584364
v 0.982735 -0.000777 0.582464
v 0.981123 0.001924 0.583384
v 0.979564 0.000005 0.585591
v 0.977931 0.001491 0.584499
v 0.977211 0.002037 0.580583
v 0.975916 -0.000977 0.582367
v 0.979028 0.000746 0.579204
v 0.977454 -0.001824 0.578931
v 0.976327 0.001104 0.581945
v 0.975596 0.000729 0.577938
v 0.973911 0.001862 0.581121
v 0.973506 -0.001878 0.580946
v 0.972920 0.000887 0.579894
v 0.977759 -0.000003 0.588091
v 0.970576 -0.000746 0.582883
v 0.971508 0.001822 0.582378
v 0.973932 -0.000030 0.580028
v 0.970302 0.001375 0.580456
v 0.972845 0.001896 0.577643
v 0.970486 -0.000825 0.580449
v 0.973582 0.000037 0.576579
v 0.972709 -0.001870 0.577457
v 0.969281 0.002005 0.578354
v 0.969978 0.000043 0.576938
v 0.969611 -0.002029 0.578494
v 0.968736 -0.000719 0.581050
v 0.965612 0.001921 0.577192
v 0.967705 0.001430 0.575305
v 0.967389 -0.001718 0.575547
v 0.965401 -0.000925 0.578304
v 0.965412 -0.001877 0.575407
v 0.968093 0.000071 0.575100
v 0.963682 0.000021 0.574883
v 0.965072 0.001961 0.574359
v 0.959453 0.000493 0.570044
v 0.964559 -0.000417 0.569946
v 0.960618 -0.001865 0.570014
v 0.960137 0.001830 0.568273
v 0.962627 0.001382 0.567225
v 0.963372 -0.000737 0.567642
v 0.959632 -0.000698 0.563463
v 0.960838 0.001929 0.564494
v 0.963274 -0.001988 0.564746
v 0.965298 0.001175 0.563012
v 0.967716 0.001945 0.564653
v 0.967528 -0.000662 0.561723
v 0.968379 -0.000845 0.565606
v 0.979442 -0.000791 0.560690
v 0.980177 0.000882 0.564566
v 0.980027 0.001944 0.561757
v 0.981128 -0.001952 0.562863
v 0.983636 -0.000037 0.561781
v 0.984843 0.001422 0.557745
v 0.983043 0.001920 0.555737
v 0.982298 -0.000920 0.554617
v 0.985579 -0.000952 0.557128
v 0.986383 0.000764 0.542627
v 0.985935 -0.001403 0.542138
v 0.982343 -0.000012 0.539527
v 0.983644 -0.001942 0.540276
v 0.983617 0.001890 0.540213
v 0.993891 0.001969 0.537059
v 0.994692 0.000780 0.539727
v 0.994121 -0.001772 0.538780
v 1.003038 0.000780 0.528041
v 1.005522 0.000748 0.531036
v 0.992869 -0.001533 0.536443
v 1.027986 0.001935 0.513486
v 1.029232 0.000856 0.516111
v 1.028628 -0.000967 0.512209
v 1.028798 -0.001934 0.515153
v 1.036334 0.001871 0.516443
v 1.037784 -0.001944 0.515414
v 1.037007 0.001045 0.513758
v 1.036211 -0.000661 0.517679
v 1.040151 -0.001405 0.521153
v 1.041064 0.000001 0.516896
v 1.040600 -0.001991 0.518571
v 1.040433 0.001984 0.518688
v 1.039781 0.000810 0.522062
v 1.043315 -0.000775 0.520190
v 1.044052 0.001861 0.518470
v 1.045683 -0.001916 0.515696
v 1.046544 0.000814 0.514066
v 1.044559 0.001916 0.525228
v 1.047200 0.000703 0.524183
v 1.043419 -0.000648 0.525396
v 1.049589 -0.000682 0.529690
v 1.048629 0.001980 0.530761
v 1.045581 0.000810 0.529381
v 1.046170 -0.002030 0.526957
vn -0.6798 0.7328 0.0293
vn -0.1190 0.9916 -0.0502
vn 0.3415 0.9266 -0.1573
vn -0.6843 -0.7277 0.0450
vn -0.9362 0.0187 -0.3510
vn -0.9962 -0.0530 0.0680
vn 0.7552 -0.6521 -0.0663
vn -0.2157 -0.9701 -0.1111
vn 0.1081 -0.9929 -0.0497
vn 0.8549 0.3750 0.3586
vn 0.9237 0.3788 -0.0566
vn 0.6861 -0.6671 0.2902
vn 0.7154 0.4969 0.4911
vn -0.3821 0.8933 -0.2367
vn 0.2928 -0.9512 0.0974
vn -0.5631 -0.7678 -0.3056
vn -0.8165 -0.3698 -0.4433
vn 0.9237 0.3452 0.1662
vn -0.8136 0.4256 -0.3960
vn 0.1847 0.9698 0.1591
vn 0.4728 -0.8525 0.2228
vn 0.8084 0.0946 0.5809
vn 0.1223 0.8465 0.5181
vn -0.0180 -0.9976 -0.0672
vn 0.3502 -0.2792 0.8941
vn -0.1392 0.5061 -0.8512
vn -0.0929 0.0110 0.9956
vn -0.1067 -0.6677 0.7367
vn 0.1183 -0.8910 -0.4383
vn 0.2137 0.2841 -0.9347
vn 0.2478 -0.0524 0.9674
vn 0.1949 0.5267 0.8274
vn -0.1243 0.8740 -0.4698
vn -0.0380 -0.9937 -0.1049
vn -0.2653 -0.3916 -0.8811
vn -0.1773 0.3490 -0.9202
vn 0.1470 -0.4343 0.8887
vn 0.4393 0.3898 0.8094
vn -0.0790 0.8440 0.5305
vn -0.2920 -0.3284 0.8982
vn 0.1006 -0.3829 -0.9183
vn 0.4479 -0.3254 -0.8327
vn -0.0454 0.0176 0.9988
vn 0.0100 0.9760 0.2177
vn -0.0274 -0.9917 0.1253
vn 0.0233 0.6522 -0.7577
vn -0.0776 -0.9940 -0.0767
vn 0.3366 -0.0144 -0.9415
vn -0.3148 -0.3837 0.8681
vn 0.0346 0.9941 -0.1023
vn -0.2665 0.6210 0.7371
vn -0.4638 -0.4614 0.7563
vn 0.5866 0.2831 -0.7588
vn 0.3350 -0.8522 -0.4019
vn -0.1051 0.9902 0.0920
vn 0.1435 -0.5359 0.8320
vn 0.0068 -0.0203 -0.9998
vn -0.0855 0.6681 -0.7391
vn 0.0938 0.9526 0.2892
vn -0.0093 -0.9051 -0.4250
vn -0.1663 -0.4331 -0.8859
vn 0.2767 0.2817 0.9187
vn 0.0750 0.9530 0.2934
vn -0.5314 0.8206 -0.2105
vn -0.1104 -0.9909 -0.0769
vn -0.3069 0.2714 -0.9122
vn -0.6581 -0.4539 -0.6006
vn 0.7143 0.6481 0.2639
vn 0.8501 -0.3835 0.3609
vn 0.4922 -0.4907 0.7190
vn -0.8731 0.0560 -0.4843
vn 0.2511 0.7912 -0.5576
vn 0.4090 0.8126 0.4150
vn 0.0463 -0.8296 0.5565
vn 0.7624 -0.3143 0.5656
vn 0.1494 -0.9048 -0.3987
vn 0.0749 -0.0085 0.9971
vn 0.0635 0.9868 -0.1492
vn 0.1133 -0.9589 0.2600
vn -0.4380 0.5975 0.6717
vn -0.0983 0.9214 0.3760
vn 0.2167 -0.7702 -0.5998
vn 0.7378 0.3225 -0.5929
vn -0.1877 0.2649 -0.9458
vn 0.1014 0.9947 0.0190
vn -0.0078 -0.9999 -0.0016
vn -0.9830 0.1623 -0.0861
vn 0.5433 -0.0194 0.8393
vn -0.4357 0.8081 0.3964
vn 0.8925 0.0801 0.4438
vn 0.3481 0.8026 -0.4843
vn -0.7555 -0.4082 0.5124
vn 0.2807 -0.8332 -0.4762
vn -0.4591 0.7741 0.4359
vn -0.2919 -0.8214 0.4899
vn 0.6158 0.0403 -0.7868
vn 0.0790 0.9924 -0.0940
vn 0.3574 0.0284 -0.9335
vn 0.0701 -0.9975 0.0014
vn -0.2866 -0.2445 0.9263
vn -0.6829 -0.3646 0.6330
vn -0.4709 0.8008 0.3701
vn 0.5105 0.7430 -0.4328
vn -0.3193 -0.9342 0.1589
vn 0.4371 -0.8077 -0.3957
vn 0.7624 -0.0553 -0.6447
vn -0.8339 0.0429 0.5503
vn -0.1909 0.9798 0.0591
vn 0.8030 -0.1893 -0.5651
vn -0.4521 -0.8654 0.2160
vn -0.9155 0.1723 0.3636
vn -0.4677 0.8828 0.0437
vn 0.7575 -0.5609 0.3339
vn 0.3468 0.8759 0.3355
vn -0.4095 0.8288 -0.3812
vn -0.6886 -0.2831 -0.6675
vn -0.2028 0.5142 -0.8333
vn 0.0958 0.9299 0.3550
vn -0.1860 -0.2654 -0.9460
vn -0.0119 -0.9579 -0.2867
vn 0.1673 -0.3117 0.9353
vn -0.5157 -0.4673 -0.7181
vn 0.2502 -0.8640 0.4368
vn 0.7995 0.0563 0.5979
vn 0.3437 0.3459 0.8730
vn 0.6863 0.6980 0.2041
vn -0.3660 0.9210 -0.1329
vn -0.0663 0.9879 -0.1402
vn -0.9684 0.2047 -0.1426
vn 0.8631 -0.4718 0.1799
vn 0.6543 0.6105 0.4462
vn 0.4196 -0.8454 0.3306
vn -0.8138 0.0029 -0.5811
vn -0.3658 0.8750 -0.3171
vn -0.3996 -0.8647 -0.3043
vn -0.3410 -0.6243 -0.7028
vn -0.1612 0.9466 -0.2792
vn 0.2753 -0.8294 0.4860
vn 0.4514 0.3440 0.8233
vn -0.5447 0.2731 -0.7929
vn 0.5182 0.3452 0.7824
vn -0.1668 0.8444 -0.5091
vn -0.1610 -0.3786 -0.9114
vn 0.0784 0.4865 0.8701
vn 0.0160 -0.9614 0.2747
vn -0.1488 0.9579 0.2453
vn 0.2343 -0.8779 -0.4176
vn 0.3650 0.3995 -0.8409
vn -0.1208 -0.7136 0.6901
vn -0.4793 -0.4207 0.7702
vn 0.0615 0.0064 -0.9981
vn 0.0229 -0.9956 -0.0904
vn -0.1914 0.3283 0.9250
vn -0.2962 -0.7432 0.6000
vn 0.3277 -0.8071 -0.4911
vn 0.0729 0.9955 0.0611
vn 0.0053 0.9990 -0.0441
vn 0.4884 0.2718 -0.8292
vn -0.0432 -0.9988 0.0217
vn -0.4296 0.8997 0.0769
vn 0.9121 0.3486 -0.2158
vn -0.9217 -0.3080 0.2358
vn 0.8889 -0.2944 -0.3508
vn -0.8816 0.3479 0.3189
usemtl SVGMat.3781
s 1
f 1//1 8//2 162//3
f 3//4 9//5 2//6
f 5//7 10//8 4//9
f 8//2 7//10 6//11
f 9//5 8//2 1//1
f 7//10 11//12 5//7
f 8//2 12//13 7//10
f 9//5 13//14 8//2
f 12//13 15//15 11//12
f 11//12 15//15 10//8
f 15//15 16//16 14//17
f 13//14 17//18 12//13
f 16//16 18//19 14//17
f 18//19 21//20 13//14
f 17//18 19//21 15//15
f 21//20 20//22 17//18
f 18//19 23//23 21//20
f 20//22 25//24 19//21
f 21//20 22//25 20//22
f 16//16 24//26 18//19
f 23//23 27//27 22//25
f 26//28 28//29 25//24
f 28//29 29//30 24//26
f 27//27 30//31 26//28
f 23//23 32//32 27//27
f 29//30 31//33 23//23
f 30//31 35//34 28//29
f 33//35 34//36 31//33
f 32//32 37//37 30//31
f 31//33 36//38 32//32
f 34//36 38//39 31//33
f 35//34 34//36 33//35
f 38//39 40//40 37//37
f 35//34 42//41 39//42
f 38//39 41//43 40//40
f 34//36 44//44 38//39
f 40//40 43//45 35//34
f 41//43 43//45 40//40
f 42//41 45//46 34//36
f 43//45 46//47 42//41
f 46//47 47//48 42//41
f 41//43 50//49 43//45
f 45//46 49//50 44//44
f 47//48 49//50 45//46
f 48//51 50//49 41//43
f 48//51 51//52 50//49
f 47//48 52//53 49//50
f 46//47 52//53 47//48
f 50//49 53//54 46//47
f 54//55 55//56 51//52
f 53//54 58//57 52//53
f 57//58 56//59 54//55
f 55//56 59//60 53//54
f 59//60 60//61 58//57
f 56//59 61//62 55//56
f 56//59 62//63 61//62
f 57//58 63//64 56//59
f 55//56 64//65 59//60
f 60//61 65//66 57//58
f 64//65 67//67 60//61
f 68//68 70//69 66//70
f 69//71 62//63 63//64
f 69//71 71//72 62//63
f 71//72 75//73 62//63
f 70//69 73//74 64//65
f 68//68 74//75 70//69
f 72//76 71//72 69//71
f 75//73 76//77 74//75
f 71//72 78//78 75//73
f 76//77 79//79 73//74
f 77//80 79//79 76//77
f 78//78 82//81 77//80
f 79//79 81//82 73//74
f 72//76 80//83 71//72
f 81//82 83//84 80//83
f 83//84 84//85 78//78
f 79//79 85//86 81//82
f 85//86 86//87 83//84
f 82//81 87//88 79//79
f 84//85 87//88 82//81
f 84//85 89//89 87//88
f 85//86 90//90 86//87
f 84//85 92//91 89//89
f 88//92 95//93 85//86
f 91//94 93//95 88//92
f 90//90 92//91 84//85
f 85//86 94//96 90//90
f 94//96 96//97 92//91
f 95//93 97//98 94//96
f 93//95 98//99 95//93
f 91//94 99//100 93//95
f 91//94 103//101 99//100
f 96//97 100//102 91//94
f 97//98 101//103 96//97
f 101//103 100//102 96//97
f 103//101 104//104 98//99
f 102//105 105//106 97//98
f 100//102 106//107 103//101
f 106//107 104//104 103//101
f 101//103 107//108 100//102
f 102//105 109//109 105//106
f 106//107 110//110 104//104
f 107//108 108//111 106//107
f 101//103 111//112 107//108
f 104//104 110//110 102//105
f 110//110 113//113 109//109
f 112//114 115//115 111//112
f 108//111 114//116 110//110
f 111//112 114//116 108//111
f 115//115 117//117 114//116
f 112//114 118//118 115//115
f 117//117 119//119 116//120
f 113//113 118//118 112//114
f 116//120 120//121 113//113
f 117//117 121//122 119//119
f 121//122 124//123 116//120
f 124//123 125//124 122//125
f 125//124 126//126 122//125
f 126//126 127//127 123//128
f 127//127 128//129 121//122
f 129//130 130//131 126//126
f 124//123 131//132 129//130
f 131//132 130//131 129//130
f 127//127 132//133 128//129
f 130//131 134//134 127//127
f 128//129 133//135 124//123
f 132//133 133//135 128//129
f 132//133 140//136 133//135
f 130//131 135//137 134//134
f 140//136 137//138 133//135
f 135//137 140//136 132//133
f 137//138 136//139 130//131
f 138//140 140//136 135//137
f 139//141 135//137 136//139
f 137//138 139//141 136//139
f 135//137 141//142 138//140
f 141//142 143//143 138//140
f 142//144 141//142 135//137
f 140//136 144//145 137//138
f 143//143 144//145 140//136
f 144//145 142//144 139//141
f 142//144 145//146 141//142
f 143//143 146//147 144//145
f 147//148 146//147 143//143
f 146//147 149//149 148//150
f 150//151 151//152 146//147
f 148//150 153//153 145//146
f 149//149 153//153 148//150
f 149//149 154//154 153//153
f 150//151 156//155 151//152
f 153//153 155//156 152//157
f 154//154 155//156 153//153
f 156//155 154//154 149//149
f 157//158 164//159 156//155
f 158//160 159//161 157//158
f 164//159 160//162 154//154
f 160//162 158//160 155//156
f 159//161 161//163 164//159
f 158//160 162//3 159//161
f 160//162 163//164 158//160
f 163//164 162//3 158//160
f 164//159 2//6 163//164
f 4//9 3//4 164//159
f 162//3 6//11 161//163
f 161//163 5//7 4//9
f 161//163 6//11 5//7
f 6//11 7//10 5//7
f 162//3 8//2 6//11
f 2//6 9//5 1//1
f 4//9 10//8 3//4
f 3//4 10//8 9//5
f 5//7 11//12 10//8
f 7//10 12//13 11//12
f 10//8 14//17 9//5
f 8//2 13//14 12//13
f 9//5 14//17 13//14
f 10//8 15//15 14//17
f 12//13 17//18 15//15
f 14//17 18//19 13//14
f 13//14 21//20 17//18
f 15//15 19//21 16//16
f 17//18 20//22 19//21
f 19//21 25//24 16//16
f 21//20 23//23 22//25
f 18//19 24//26 23//23
f 16//16 25//24 24//26
f 20//22 22//25 25//24
f 22//25 26//28 25//24
f 22//25 27//27 26//28
f 25//24 28//29 24//26
f 24//26 29//30 23//23
f 26//28 30//31 28//29
f 28//29 33//35 29//30
f 23//23 31//33 32//32
f 27//27 32//32 30//31
f 29//30 33//35 31//33
f 28//29 35//34 33//35
f 32//32 36//38 37//37
f 31//33 38//39 36//38
f 30//31 37//37 35//34
f 36//38 38//39 37//37
f 35//34 39//42 34//36
f 37//37 40//40 35//34
f 39//42 42//41 34//36
f 35//34 43//45 42//41
f 38//39 44//44 41//43
f 34//36 45//46 44//44
f 42//41 47//48 45//46
f 44//44 48//51 41//43
f 44//44 49//50 48//51
f 43//45 50//49 46//47
f 49//50 54//55 48//51
f 49//50 52//53 54//55
f 46//47 53//54 52//53
f 50//49 51//52 53//54
f 48//51 54//55 51//52
f 54//55 56//59 55//56
f 52//53 57//58 54//55
f 52//53 58//57 57//58
f 53//54 59//60 58//57
f 51//52 55//56 53//54
f 58//57 60//61 57//58
f 61//62 66//70 55//56
f 61//62 62//63 66//70
f 56//59 63//64 62//63
f 59//60 64//65 60//61
f 57//58 65//66 63//64
f 60//61 67//67 65//66
f 55//56 66//70 64//65
f 65//66 67//67 63//64
f 62//63 68//68 66//70
f 67//67 69//71 63//64
f 67//67 64//65 69//71
f 66//70 70//69 64//65
f 64//65 72//76 69//71
f 62//63 75//73 68//68
f 64//65 73//74 72//76
f 68//68 75//73 74//75
f 70//69 74//75 73//74
f 74//75 76//77 73//74
f 75//73 77//80 76//77
f 75//73 78//78 77//80
f 77//80 82//81 79//79
f 73//74 81//82 72//76
f 71//72 80//83 78//78
f 72//76 81//82 80//83
f 80//83 83//84 78//78
f 78//78 84//85 82//81
f 81//82 85//86 83//84
f 83//84 86//87 84//85
f 79//79 87//88 85//86
f 87//88 89//89 88//92
f 86//87 90//90 84//85
f 87//88 88//92 85//86
f 89//89 91//94 88//92
f 89//89 92//91 91//94
f 90//90 94//96 92//91
f 85//86 95//93 94//96
f 88//92 93//95 95//93
f 92//91 96//97 91//94
f 94//96 97//98 96//97
f 95//93 98//99 97//98
f 93//95 99//100 98//99
f 91//94 100//102 103//101
f 98//99 102//105 97//98
f 99//100 103//101 98//99
f 98//99 104//104 102//105
f 97//98 105//106 101//103
f 100//102 107//108 106//107
f 105//106 109//109 101//103
f 106//107 108//111 110//110
f 107//108 111//112 108//111
f 101//103 109//109 111//112
f 102//105 110//110 109//109
f 109//109 112//114 111//112
f 109//109 113//113 112//114
f 111//112 115//115 114//116
f 110//110 116//120 113//113
f 110//110 114//116 116//120
f 114//116 117//117 116//120
f 115//115 118//118 117//117
f 113//113 120//121 118//118
f 120//121 122//125 118//118
f 119//119 121//122 116//120
f 118//118 123//128 117//117
f 116//120 124//123 120//121
f 118//118 122//125 123//128
f 117//117 123//128 121//122
f 120//121 124//123 122//125
f 122//125 126//126 123//128
f 124//123 129//130 125//124
f 121//122 128//129 124//123
f 123//128 127//127 121//122
f 125//124 129//130 126//126
f 126//126 130//131 127//127
f 124//123 133//135 131//132
f 127//127 134//134 132//133
f 133//135 137//138 131//132
f 134//134 135//137 132//133
f 130//131 136//139 135//137
f 131//132 137//138 130//131
f 139//141 142//144 135//137
f 138//140 143//143 140//136
f 137//138 144//145 139//141
f 141//142 147//148 143//143
f 144//145 148//150 142//144
f 141//142 145//146 147//148
f 144//145 146//147 148//150
f 142//144 148//150 145//146
f 147//148 150//151 146//147
f 145//146 152//157 147//148
f 146//147 151//152 149//149
f 147//148 152//157 150//151
f 145//146 153//153 152//157
f 152//157 157//158 150//151
f 152//157 155//156 157//158
f 151//152 156//155 149//149
f 150//151 157//158 156//155
f 155//156 158//160 157//158
f 156//155 164//159 154//154
f 157//158 159//161 164//159
f 154//154 160//162 155//156
f 159//161 162//3 161//163
f 160//162 164//159 163//164
f 164//159 161//163 4//9
f 163//164 1//1 162//3
f 163//164 2//6 1//1
f 164//159 3//4 2//6
