# Blender v2.79 (sub 0) OBJ File: 'world_countrycodes_export2.blend'
# www.blender.org
mtllib NG.mtl
o NG.002_CUCurve.1866
v 1.017095 0.000000 0.611569
v 1.018822 0.000000 0.611608
v 1.019878 0.000000 0.611412
v 1.020841 0.000000 0.610898
v 1.021707 0.000000 0.610984
v 1.022980 0.000000 0.611679
v 1.024204 0.000000 0.613125
v 1.024643 0.000000 0.614380
v 1.024954 0.000000 0.614464
v 1.025590 0.000000 0.613693
v 1.026791 0.000000 0.611470
v 1.028454 0.000000 0.608611
v 1.030299 0.000000 0.604576
v 1.031057 0.000000 0.602427
v 1.031470 0.000000 0.601627
v 1.033280 0.000000 0.600122
v 1.033816 0.000000 0.599504
v 1.033825 0.000000 0.597507
v 1.034178 0.000000 0.596462
v 1.034904 0.000000 0.596039
v 1.035739 0.000000 0.594088
v 1.035840 0.000000 0.592559
v 1.037399 0.000000 0.589109
v 1.039365 0.000000 0.586200
v 1.041197 0.000000 0.585746
v 1.042107 0.000000 0.585360
v 1.042506 0.000000 0.584810
v 1.042850 0.000000 0.582253
v 1.042558 0.000000 0.581227
v 1.041718 0.000000 0.580828
v 1.040461 0.000000 0.579889
v 1.039867 0.000000 0.578864
v 1.039931 0.000000 0.577409
v 1.040084 0.000000 0.576258
v 1.040197 0.000000 0.575640
v 1.039220 0.000000 0.575193
v 1.038294 0.000000 0.573638
v 1.037025 0.000000 0.572173
v 1.036237 0.000000 0.572080
v 1.035356 0.000000 0.572508
v 1.033149 0.000000 0.575072
v 1.032025 0.000000 0.575850
v 1.030325 0.000000 0.575829
v 1.028548 0.000000 0.575345
v 1.027262 0.000000 0.574661
v 1.023672 0.000000 0.574423
v 1.019427 0.000000 0.574521
v 1.018212 0.000000 0.575198
v 1.016044 0.000000 0.577093
v 1.013985 0.000000 0.577573
v 1.011368 0.000000 0.577451
v 1.009860 0.000000 0.577047
v 1.007174 0.000000 0.575335
v 1.006031 0.000000 0.574829
v 1.003613 0.000000 0.575119
v 1.000792 0.000000 0.576320
v 1.000257 0.000000 0.576358
v 0.999498 0.000000 0.575813
v 0.998034 0.000000 0.573193
v 0.996982 0.000000 0.572598
v 0.994310 0.000000 0.572342
v 0.993007 0.000000 0.571523
v 0.992207 0.000000 0.571608
v 0.990976 0.000000 0.572673
v 0.990340 0.000000 0.573021
v 0.988062 0.000000 0.572675
v 0.985996 0.000000 0.572587
v 0.984779 0.000000 0.573045
v 0.984208 0.000000 0.574395
v 0.983722 0.000000 0.577250
v 0.982278 0.000000 0.578944
v 0.981123 0.000000 0.580961
v 0.981012 0.000000 0.581924
v 0.980735 0.000000 0.582462
v 0.980490 0.000000 0.582677
v 0.981108 0.000000 0.586790
v 0.981276 0.000000 0.591196
v 0.980833 0.000000 0.594011
v 0.979122 0.000000 0.596206
v 0.978282 0.000000 0.597805
v 0.977516 0.000000 0.598489
v 0.976566 0.000000 0.599828
v 0.975959 0.000000 0.601462
v 0.975792 0.000000 0.604200
v 0.976028 0.000000 0.608931
v 0.976336 0.000000 0.610053
v 0.977413 0.000000 0.612152
v 0.977843 0.000000 0.613203
v 0.977779 0.000000 0.613095
v 0.977779 0.000000 0.613095
v 0.977779 0.000000 0.613095
v 0.977779 0.000000 0.613095
v 0.977779 0.000000 0.613095
v 0.977779 0.000000 0.613095
v 0.977779 0.000000 0.613095
v 0.977779 0.000000 0.613095
v 0.977779 0.000000 0.613095
v 0.977779 0.000000 0.613095
v 0.977779 0.000000 0.613095
v 0.977779 0.000000 0.613095
v 0.978763 0.000000 0.613785
v 0.980728 0.000000 0.614374
v 0.986130 0.000000 0.615250
v 0.987787 0.000000 0.615979
v 0.989260 0.000000 0.617103
v 0.990381 0.000000 0.618363
v 0.991413 0.000000 0.620278
v 0.991888 0.000000 0.622134
v 0.992751 0.000000 0.623882
v 0.994370 0.000000 0.625654
v 0.995124 0.000000 0.625940
v 0.996425 0.000000 0.625785
v 0.999929 0.000000 0.624571
v 1.004525 0.000000 0.624459
v 1.007365 0.000000 0.624025
v 1.008120 0.000000 0.623593
v 1.008556 0.000000 0.623516
v 1.008881 0.000000 0.623702
v 1.009491 0.000000 0.621972
v 1.010598 0.000000 0.617581
v 1.013183 0.000000 0.615027
v 1.030299 0.050000 0.604576
v 1.031057 0.050000 0.602427
v 0.999498 0.050000 0.575813
v 0.998034 0.050000 0.573193
v 1.021707 0.050000 0.610984
v 1.022980 0.050000 0.611679
v 0.991413 0.050000 0.620278
v 1.009491 0.050000 0.621972
v 0.990381 0.050000 0.618363
v 1.026791 0.050000 0.611470
v 1.008881 0.050000 0.623702
v 0.975792 0.050000 0.604200
v 1.000257 0.050000 0.576358
v 0.990340 0.050000 0.573021
v 0.992751 0.050000 0.623882
v 0.999929 0.050000 0.624571
v 0.987787 0.050000 0.615979
v 1.013183 0.050000 0.615027
v 1.033825 0.050000 0.597507
v 0.979122 0.050000 0.596206
v 1.034178 0.050000 0.596462
v 1.034904 0.050000 0.596039
v 1.037025 0.050000 0.572173
v 1.036237 0.050000 0.572080
v 1.042506 0.050000 0.584810
v 0.980490 0.050000 0.582677
v 0.977843 0.050000 0.613203
v 1.017095 0.050000 0.611569
v 1.025590 0.050000 0.613693
v 0.977516 0.050000 0.598489
v 0.976566 0.050000 0.599828
v 1.008120 0.050000 0.623593
v 1.031470 0.050000 0.601627
v 0.976028 0.050000 0.608931
v 0.976336 0.050000 0.610053
v 0.984779 0.050000 0.573045
v 0.984208 0.050000 0.574395
v 1.040084 0.050000 0.576258
v 1.040197 0.050000 0.575640
v 1.020841 0.050000 0.610898
v 1.035739 0.050000 0.594088
v 1.035840 0.050000 0.592559
v 1.041197 0.050000 0.585746
v 1.042107 0.050000 0.585360
v 1.032025 0.050000 0.575850
v 1.007174 0.050000 0.575335
v 1.006031 0.050000 0.574829
v 0.981108 0.050000 0.586790
v 0.981276 0.050000 0.591196
v 0.983722 0.050000 0.577250
v 1.028548 0.050000 0.575345
v 1.027262 0.050000 0.574661
v 0.977413 0.050000 0.612152
v 1.010598 0.050000 0.617581
v 0.994370 0.050000 0.625654
v 0.996425 0.050000 0.625785
v 1.040461 0.050000 0.579889
v 0.982278 0.050000 0.578944
v 1.023672 0.050000 0.574423
v 1.019427 0.050000 0.574521
v 0.991888 0.050000 0.622134
v 1.009860 0.050000 0.577047
v 1.011368 0.050000 0.577451
v 1.000792 0.050000 0.576320
v 1.024204 0.050000 0.613125
v 1.003613 0.050000 0.575119
v 1.039220 0.050000 0.575193
v 1.042558 0.050000 0.581227
v 1.041718 0.050000 0.580828
v 1.018212 0.050000 0.575198
v 1.042850 0.050000 0.582253
v 1.030325 0.050000 0.575829
v 1.039365 0.050000 0.586200
v 0.996982 0.050000 0.572598
v 0.994310 0.050000 0.572342
v 0.981123 0.050000 0.580961
v 1.016044 0.050000 0.577093
v 0.988062 0.050000 0.572675
v 0.975959 0.050000 0.601462
v 1.039867 0.050000 0.578864
v 0.980735 0.050000 0.582462
v 0.995124 0.050000 0.625940
v 1.018822 0.050000 0.611608
v 0.980833 0.050000 0.594011
v 1.037399 0.050000 0.589109
v 1.033816 0.050000 0.599504
v 1.039931 0.050000 0.577409
v 1.008556 0.050000 0.623516
v 0.990976 0.050000 0.572673
v 1.038294 0.050000 0.573638
v 1.033149 0.050000 0.575072
v 1.024954 0.050000 0.614464
v 1.033280 0.050000 0.600122
v 0.978282 0.050000 0.597805
v 0.989260 0.050000 0.617103
v 0.993007 0.050000 0.571523
v 1.007365 0.050000 0.624025
v 1.035356 0.050000 0.572508
v 1.019878 0.050000 0.611412
v 1.024643 0.050000 0.614380
v 1.013985 0.050000 0.577573
v 1.028454 0.050000 0.608611
v 0.978763 0.050000 0.613785
v 0.980728 0.050000 0.614374
v 0.981012 0.050000 0.581924
v 1.004525 0.050000 0.624459
v 0.986130 0.050000 0.615250
v 0.992207 0.050000 0.571608
v 0.985996 0.050000 0.572587
vn 0.0000 -1.0000 0.0000
vn 0.0000 1.0000 0.0000
vn -0.8897 0.0000 0.4565
vn 0.9094 0.0000 0.4159
vn -0.1046 0.0000 -0.9945
vn -0.1191 0.0000 -0.9929
vn 0.0660 0.0000 -0.9978
vn 0.4160 0.0000 -0.9094
vn -0.6581 0.0000 -0.7529
vn -0.7610 0.0000 -0.6488
vn -0.2270 0.0000 -0.9739
vn 0.4291 0.0000 -0.9033
vn -0.7633 0.0000 0.6460
vn 0.9619 0.0000 -0.2736
vn -0.9889 0.0000 0.1487
vn 0.8285 0.0000 0.5600
vn 0.9991 0.0000 0.0436
vn 0.0245 0.0000 0.9997
vn 0.9911 0.0000 0.1333
vn 0.2630 0.0000 -0.9648
vn 0.1830 0.0000 0.9831
vn 0.9431 0.0000 0.3324
vn -0.9878 0.0000 -0.1556
vn 0.0956 0.0000 -0.9954
vn 0.8730 0.0000 -0.4878
vn -0.8679 0.0000 -0.4967
vn -0.4791 0.0000 0.8778
vn -0.7578 0.0000 -0.6525
vn -0.9439 0.0000 0.3302
vn 0.9697 0.0000 0.2444
vn -0.8803 0.0000 0.4744
vn 0.0464 0.0000 -0.9989
vn -0.5348 0.0000 0.8450
vn 0.8644 0.0000 0.5028
vn 0.1505 0.0000 -0.9886
vn 0.9431 0.0000 0.3326
vn 0.5984 0.0000 -0.8012
vn 0.4959 0.0000 0.8684
vn -0.6545 0.0000 -0.7561
vn 0.8654 0.0000 -0.5011
vn 0.5838 0.0000 -0.8119
vn -0.4798 0.0000 -0.8774
vn -0.7384 0.0000 0.6744
vn 0.9472 0.0000 0.3208
vn -0.9981 0.0000 -0.0611
vn -0.3549 0.0000 0.9349
vn -0.0226 0.0000 0.9997
vn -0.2872 0.0000 0.9579
vn -0.7887 0.0000 -0.6147
vn 0.5038 0.0000 0.8638
vn 0.3272 0.0000 0.9450
vn 0.1175 0.0000 -0.9931
vn -0.9255 0.0000 0.3788
vn -0.9934 0.0000 -0.1147
vn -0.9688 0.0000 0.2480
vn 0.1511 0.0000 0.9885
vn -0.9374 0.0000 -0.3481
vn -0.5690 0.0000 -0.8224
vn 0.8799 0.0000 0.4752
vn -0.8154 0.0000 -0.5790
vn 0.5376 0.0000 -0.8432
vn 0.2586 0.0000 -0.9660
vn 0.1187 0.0000 0.9929
vn -0.9858 0.0000 -0.1678
vn 0.8883 0.0000 0.4592
vn -0.9988 0.0000 0.0498
vn 0.9112 0.0000 0.4119
vn 0.9194 0.0000 0.3933
vn -0.9641 0.0000 0.2654
vn -0.8966 0.0000 0.4429
vn 1.0000 0.0000 0.0044
vn -0.9209 0.0000 -0.3898
vn -0.8854 0.0000 -0.4649
vn 0.9913 0.0000 0.1316
vn 0.4703 0.0000 0.8825
vn 0.9835 0.0000 0.1810
vn 0.1749 0.0000 0.9846
vn -0.0985 0.0000 0.9951
vn -0.3525 0.0000 -0.9358
vn -0.6600 0.0000 -0.7513
vn 0.9978 0.0000 0.0659
vn 0.7028 0.0000 0.7114
vn 0.3899 0.0000 0.9209
vn 0.6623 0.0000 0.7493
vn 0.7713 0.0000 0.6364
vn 0.7558 0.0000 -0.6548
vn -0.3918 0.0000 -0.9200
vn 0.8096 0.0000 0.5870
vn 0.4051 0.0000 -0.9143
vn -0.1601 0.0000 0.9871
vn -0.6662 0.0000 -0.7458
vn -0.9993 0.0000 0.0380
vn 0.6393 0.0000 0.7690
vn 0.0426 0.0000 -0.9991
vn -0.4970 0.0000 0.8678
vn 0.4695 0.0000 -0.8829
vn -0.4027 0.0000 0.9153
vn -0.8892 0.0000 -0.4575
vn -0.6064 0.0000 0.7952
vn -0.2595 0.0000 0.9657
vn 0.7553 0.0000 0.6553
vn -0.4864 0.0000 -0.8737
vn 0.8593 0.0000 -0.5114
vn 0.0123 0.0000 -0.9999
vn 0.4919 0.0000 -0.8707
vn -0.0718 0.0000 -0.9974
vn -0.0231 0.0000 -0.9997
vn 0.2409 0.0000 0.9705
vn 0.5318 0.0000 -0.8469
vn -0.4380 0.0000 -0.8990
vn -0.7474 0.0000 0.6644
usemtl SVGMat.3781
s off
f 63//1 62//1 61//1
f 40//1 39//1 38//1
f 64//1 63//1 61//1
f 64//1 61//1 60//1
f 68//1 67//1 66//1
f 65//1 64//1 60//1
f 65//1 60//1 59//1
f 68//1 66//1 65//1
f 68//1 65//1 59//1
f 40//1 38//1 37//1
f 41//1 40//1 37//1
f 69//1 68//1 59//1
f 41//1 37//1 36//1
f 69//1 59//1 58//1
f 47//1 46//1 45//1
f 48//1 47//1 45//1
f 48//1 45//1 44//1
f 55//1 54//1 53//1
f 70//1 69//1 58//1
f 42//1 41//1 36//1
f 42//1 36//1 35//1
f 48//1 44//1 43//1
f 56//1 55//1 53//1
f 42//1 35//1 34//1
f 49//1 48//1 43//1
f 43//1 42//1 34//1
f 49//1 43//1 34//1
f 56//1 53//1 52//1
f 70//1 58//1 57//1
f 57//1 56//1 52//1
f 70//1 57//1 52//1
f 49//1 34//1 33//1
f 70//1 52//1 51//1
f 50//1 49//1 33//1
f 71//1 70//1 51//1
f 71//1 51//1 50//1
f 71//1 50//1 33//1
f 71//1 33//1 32//1
f 71//1 32//1 31//1
f 72//1 71//1 31//1
f 72//1 31//1 30//1
f 72//1 30//1 29//1
f 73//1 72//1 29//1
f 73//1 29//1 28//1
f 74//1 73//1 28//1
f 75//1 74//1 28//1
f 75//1 28//1 27//1
f 76//1 75//1 27//1
f 76//1 27//1 26//1
f 76//1 26//1 25//1
f 76//1 25//1 24//1
f 76//1 24//1 23//1
f 77//1 76//1 23//1
f 77//1 23//1 22//1
f 78//1 77//1 22//1
f 78//1 22//1 21//1
f 79//1 78//1 21//1
f 79//1 21//1 20//1
f 79//1 20//1 19//1
f 79//1 19//1 18//1
f 80//1 79//1 18//1
f 81//1 80//1 18//1
f 81//1 18//1 17//1
f 82//1 81//1 17//1
f 82//1 17//1 16//1
f 83//1 82//1 16//1
f 83//1 16//1 15//1
f 84//1 83//1 15//1
f 84//1 15//1 14//1
f 84//1 14//1 13//1
f 84//1 13//1 12//1
f 85//1 84//1 12//1
f 86//1 85//1 12//1
f 86//1 12//1 4//1
f 4//1 12//1 11//1
f 87//1 86//1 4//1
f 5//1 4//1 11//1
f 6//1 5//1 11//1
f 87//1 4//1 3//1
f 87//1 3//1 1//1
f 1//1 3//1 2//1
f 7//1 6//1 11//1
f 7//1 11//1 10//1
f 88//1 87//1 1//1
f 101//1 88//1 1//1
f 8//1 7//1 10//1
f 101//1 1//1 121//1
f 102//1 101//1 121//1
f 8//1 10//1 9//1
f 103//1 102//1 121//1
f 104//1 103//1 121//1
f 104//1 121//1 120//1
f 105//1 104//1 120//1
f 106//1 105//1 120//1
f 107//1 106//1 120//1
f 107//1 120//1 119//1
f 108//1 107//1 119//1
f 109//1 108//1 119//1
f 109//1 119//1 117//1
f 117//1 119//1 118//1
f 109//1 117//1 116//1
f 109//1 116//1 115//1
f 109//1 115//1 114//1
f 110//1 109//1 113//1
f 113//1 109//1 114//1
f 110//1 113//1 112//1
f 111//1 110//1 112//1
f 229//2 196//2 217//2
f 219//2 144//2 145//2
f 210//2 196//2 229//2
f 210//2 195//2 196//2
f 157//2 199//2 230//2
f 135//2 195//2 210//2
f 135//2 125//2 195//2
f 157//2 135//2 199//2
f 157//2 125//2 135//2
f 219//2 211//2 144//2
f 212//2 211//2 219//2
f 158//2 125//2 157//2
f 212//2 188//2 211//2
f 158//2 124//2 125//2
f 181//2 173//2 180//2
f 191//2 173//2 181//2
f 191//2 172//2 173//2
f 187//2 167//2 168//2
f 171//2 124//2 158//2
f 166//2 188//2 212//2
f 166//2 160//2 188//2
f 191//2 193//2 172//2
f 185//2 167//2 187//2
f 166//2 159//2 160//2
f 198//2 193//2 191//2
f 193//2 159//2 166//2
f 198//2 159//2 193//2
f 185//2 183//2 167//2
f 171//2 134//2 124//2
f 134//2 183//2 185//2
f 171//2 183//2 134//2
f 198//2 208//2 159//2
f 171//2 184//2 183//2
f 222//2 208//2 198//2
f 179//2 184//2 171//2
f 179//2 222//2 184//2
f 179//2 208//2 222//2
f 179//2 201//2 208//2
f 179//2 178//2 201//2
f 197//2 178//2 179//2
f 197//2 190//2 178//2
f 197//2 189//2 190//2
f 226//2 189//2 197//2
f 226//2 192//2 189//2
f 202//2 192//2 226//2
f 147//2 192//2 202//2
f 147//2 146//2 192//2
f 169//2 146//2 147//2
f 169//2 165//2 146//2
f 169//2 164//2 165//2
f 169//2 194//2 164//2
f 169//2 206//2 194//2
f 170//2 206//2 169//2
f 170//2 163//2 206//2
f 205//2 163//2 170//2
f 205//2 162//2 163//2
f 141//2 162//2 205//2
f 141//2 143//2 162//2
f 141//2 142//2 143//2
f 141//2 140//2 142//2
f 215//2 140//2 141//2
f 151//2 140//2 215//2
f 151//2 207//2 140//2
f 152//2 207//2 151//2
f 152//2 214//2 207//2
f 200//2 214//2 152//2
f 200//2 154//2 214//2
f 133//2 154//2 200//2
f 133//2 123//2 154//2
f 133//2 122//2 123//2
f 133//2 223//2 122//2
f 155//2 223//2 133//2
f 156//2 223//2 155//2
f 156//2 161//2 223//2
f 161//2 131//2 223//2
f 174//2 161//2 156//2
f 126//2 131//2 161//2
f 127//2 131//2 126//2
f 174//2 220//2 161//2
f 174//2 149//2 220//2
f 149//2 204//2 220//2
f 186//2 131//2 127//2
f 186//2 150//2 131//2
f 148//2 149//2 174//2
f 224//2 149//2 148//2
f 221//2 150//2 186//2
f 224//2 139//2 149//2
f 225//2 139//2 224//2
f 221//2 213//2 150//2
f 228//2 139//2 225//2
f 138//2 139//2 228//2
f 138//2 175//2 139//2
f 216//2 175//2 138//2
f 130//2 175//2 216//2
f 128//2 175//2 130//2
f 128//2 129//2 175//2
f 182//2 129//2 128//2
f 136//2 129//2 182//2
f 136//2 209//2 129//2
f 209//2 132//2 129//2
f 136//2 153//2 209//2
f 136//2 218//2 153//2
f 136//2 227//2 218//2
f 176//2 137//2 136//2
f 137//2 227//2 136//2
f 176//2 177//2 137//2
f 203//2 177//2 176//2
f 86//3 87//3 174//3 156//3
f 12//4 13//4 122//4 223//4
f 62//5 63//5 229//5 217//5
f 54//6 55//6 187//6 168//6
f 45//7 46//7 180//7 173//7
f 35//8 36//8 188//8 160//8
f 48//9 49//9 198//9 191//9
f 70//10 71//10 179//10 171//10
f 49//11 50//11 222//11 198//11
f 29//12 30//12 190//12 189//12
f 6//13 7//13 186//13 127//13
f 28//14 29//14 189//14 192//14
f 75//15 76//15 169//15 147//15
f 23//16 24//16 194//16 206//16
f 32//17 33//17 208//17 201//17
f 113//18 114//18 227//18 137//18
f 27//19 28//19 192//19 146//19
f 43//20 44//20 172//20 193//20
f 2//21 3//21 220//21 204//21
f 13//22 14//22 123//22 122//22
f 77//23 78//23 205//23 170//23
f 60//24 61//24 196//24 195//24
f 58//25 59//25 125//25 124//25
f 71//26 72//26 197//26 179//26
f 5//27 6//27 127//27 126//27
f 40//28 41//28 212//28 219//28
f 7//29 8//29 221//29 186//29
f 119//30 120//30 175//30 129//30
f 106//31 107//31 128//31 130//31
f 50//32 51//32 184//32 222//32
f 88//33 101//33 224//33 148//33
f 11//34 12//34 223//34 131//34
f 65//35 66//35 199//35 135//35
f 118//36 119//36 129//36 132//36
f 30//37 31//37 178//37 190//37
f 115//38 116//38 153//38 218//38
f 63//39 64//39 210//39 229//39
f 31//40 32//40 201//40 178//40
f 57//41 58//41 124//41 134//41
f 64//42 65//42 135//42 210//42
f 109//43 110//43 176//43 136//43
f 18//44 19//44 142//44 140//44
f 83//45 84//45 133//45 200//45
f 110//46 111//46 203//46 176//46
f 1//47 2//47 204//47 149//47
f 101//48 102//48 225//48 224//48
f 78//49 79//49 141//49 205//49
f 19//50 20//50 143//50 142//50
f 112//51 113//51 137//51 177//51
f 38//52 39//52 145//52 144//52
f 87//53 88//53 148//53 174//53
f 72//54 73//54 226//54 197//54
f 107//55 108//55 182//55 128//55
f 114//56 115//56 218//56 227//56
f 82//57 83//57 200//57 152//57
f 41//58 42//58 166//58 212//58
f 10//59 11//59 131//59 150//59
f 81//60 82//60 152//60 151//60
f 52//61 53//61 167//61 183//61
f 51//62 52//62 183//62 184//62
f 111//63 112//63 177//63 203//63
f 69//64 70//64 171//64 158//64
f 14//65 15//65 154//65 123//65
f 84//66 85//66 155//66 133//66
f 22//67 23//67 206//67 163//67
f 20//68 21//68 162//68 143//68
f 85//69 86//69 156//69 155//69
f 108//70 109//70 136//70 182//70
f 17//71 18//71 140//71 207//71
f 68//72 69//72 158//72 157//72
f 79//73 80//73 215//73 141//73
f 33//74 34//74 159//74 208//74
f 3//75 4//75 161//75 220//75
f 34//76 35//76 160//76 159//76
f 116//77 117//77 209//77 153//77
f 4//78 5//78 126//78 161//78
f 67//79 68//79 157//79 230//79
f 74//80 75//80 147//80 202//80
f 21//81 22//81 163//81 162//81
f 120//82 121//82 139//82 175//82
f 25//83 26//83 165//83 164//83
f 121//84 1//84 149//84 139//84
f 9//85 10//85 150//85 213//85
f 37//86 38//86 144//86 211//86
f 55//87 56//87 185//87 187//87
f 26//88 27//88 146//88 165//88
f 53//89 54//89 168//89 167//89
f 102//90 103//90 228//90 225//90
f 80//91 81//91 151//91 215//91
f 76//92 77//92 170//92 169//92
f 15//93 16//93 214//93 154//93
f 66//94 67//94 230//94 199//94
f 117//95 118//95 132//95 209//95
f 44//96 45//96 173//96 172//96
f 103//97 104//97 138//97 228//97
f 73//98 74//98 202//98 226//98
f 104//99 105//99 216//99 138//99
f 8//100 9//100 213//100 221//100
f 16//101 17//101 207//101 214//101
f 47//102 48//102 191//102 181//102
f 36//103 37//103 211//103 188//103
f 42//104 43//104 193//104 166//104
f 59//105 60//105 195//105 125//105
f 56//106 57//106 134//106 185//106
f 46//107 47//107 181//107 180//107
f 24//108 25//108 164//108 194//108
f 61//109 62//109 217//109 196//109
f 39//110 40//110 219//110 145//110
f 105//111 106//111 130//111 216//111
