# Blender v2.79 (sub 0) OBJ File: 'world_countrycodes_outlines2.blend'
# www.blender.org
mtllib NG_outline.mtl
o NG.001_CUCurve.1692
v 1.007844 -0.001390 0.622581
v 1.007449 0.000895 0.622145
v 1.009598 -0.001903 0.624556
v 1.009255 0.001947 0.624594
v 1.010096 -0.000005 0.625682
v 0.994753 0.001429 0.627294
v 0.994942 -0.002026 0.625855
v 1.000163 -0.000965 0.626438
v 0.994594 -0.001306 0.624212
v 0.999381 0.000695 0.622707
v 0.994804 -0.000744 0.628049
v 0.995414 0.000914 0.624040
v 0.992517 0.001859 0.625775
v 0.991396 -0.000838 0.625459
v 0.993928 0.000920 0.622028
v 0.989099 -0.001772 0.617871
v 0.989001 0.000055 0.619773
v 0.990649 0.001861 0.620700
v 0.989301 0.001972 0.615706
v 0.991030 -0.001985 0.617499
v 0.990058 -0.000579 0.614605
v 0.986395 0.000813 0.617347
v 0.976775 -0.000004 0.615334
v 0.978367 0.001035 0.611686
v 0.979539 -0.000718 0.612063
v 0.977135 0.001892 0.614130
v 0.977147 -0.001896 0.614138
v 0.977358 -0.001403 0.608809
v 0.974035 0.000818 0.609306
v 0.974480 -0.001417 0.609129
v 0.977879 -0.000013 0.601450
v 0.975546 -0.001928 0.599969
v 0.974297 0.000040 0.599737
v 0.977800 -0.001411 0.600506
v 0.975656 0.001964 0.599712
v 0.977777 0.001410 0.600615
v 0.980198 0.001914 0.593246
v 0.980389 -0.001887 0.592853
v 0.979334 -0.000016 0.592283
v 0.982533 0.001424 0.593765
v 0.983342 -0.000700 0.593197
v 0.980084 -0.001951 0.580820
v 0.979796 0.001942 0.581801
v 0.982475 0.000852 0.582470
v 0.981987 -0.001399 0.582054
v 0.978486 0.000030 0.581638
v 0.985517 -0.000010 0.578167
v 0.984460 0.001909 0.577836
v 0.981722 0.000339 0.576231
v 0.984457 -0.001909 0.577845
v 0.983557 0.000035 0.570918
v 0.984080 0.001498 0.571431
v 0.985429 0.001949 0.573265
v 0.983966 -0.001895 0.572206
v 0.986156 -0.000887 0.574485
v 0.989863 -0.000840 0.570935
v 0.991535 0.002031 0.572144
v 0.992397 -0.001995 0.571845
v 0.991112 0.000815 0.574860
v 0.992563 0.001467 0.569997
v 0.992658 -0.001027 0.573804
v 0.993281 -0.000756 0.569599
v 0.998346 0.001857 0.572026
v 0.998807 -0.000864 0.571143
v 0.996640 0.000897 0.574557
v 0.997151 -0.001985 0.573178
v 1.000708 -0.000787 0.574057
v 1.000072 0.002019 0.575676
v 0.999446 0.000747 0.578507
v 0.999889 -0.001833 0.577477
v 1.005295 0.000760 0.576672
v 1.005329 -0.001383 0.576096
v 1.006659 -0.001885 0.573898
v 1.005794 0.001888 0.573682
v 1.006741 0.000041 0.572865
v 1.010757 0.000046 0.579622
v 1.011083 0.000806 0.575443
v 1.011002 0.001937 0.578429
v 1.011485 -0.001927 0.578578
v 1.014706 0.000761 0.575563
v 1.016093 0.001933 0.578098
v 1.016773 -0.000695 0.578989
v 1.014385 -0.001804 0.576749
v 1.018694 0.001435 0.573215
v 1.019725 -0.000803 0.576496
v 1.019526 0.001881 0.575371
v 1.018466 -0.000745 0.572647
v 1.027733 0.000757 0.572656
v 1.027228 -0.001368 0.576354
v 1.027018 0.000869 0.576827
v 1.031076 -0.000924 0.574120
v 1.031529 0.001942 0.575314
v 1.032934 -0.002011 0.576212
v 1.032934 0.000672 0.577772
v 1.034538 0.000019 0.570559
v 1.035429 0.001891 0.571264
v 1.036389 0.001408 0.573511
v 1.036297 -0.000842 0.574123
v 1.036065 -0.001868 0.570787
v 1.037584 0.000694 0.570132
v 1.041327 -0.001482 0.574935
v 1.040599 0.000865 0.573670
v 1.039176 0.001953 0.576256
v 1.038020 0.000001 0.577012
v 1.039407 -0.001969 0.576327
v 1.042527 0.000704 0.574163
v 1.041722 0.000912 0.578491
v 1.039159 0.001927 0.579883
v 1.038116 -0.000818 0.580035
v 1.040703 -0.001958 0.579134
v 1.042213 -0.001966 0.582112
v 1.044693 0.000600 0.580421
v 1.042299 0.002025 0.582022
v 1.044088 -0.001431 0.580724
v 1.043426 0.001436 0.586303
v 1.041088 0.000388 0.583106
v 1.041725 -0.002032 0.584822
v 1.043788 -0.000788 0.586667
v 1.040435 -0.000726 0.587983
v 1.040549 0.001911 0.586259
v 1.037721 0.000811 0.584822
v 1.038259 -0.001832 0.585674
v 1.034597 0.001948 0.595018
v 1.037949 -0.000820 0.592292
v 1.035911 0.001430 0.597046
v 1.033602 0.000006 0.594239
v 1.034629 -0.001961 0.595382
v 1.036436 -0.000728 0.597359
v 1.032193 -0.000862 0.595801
v 1.031926 -0.000687 0.598694
v 1.035660 -0.000698 0.600359
v 1.033564 0.001444 0.601609
v 1.032566 0.001951 0.599396
v 1.032638 -0.001974 0.601544
v 1.033236 -0.000107 0.603049
v 1.030342 0.001402 0.601050
v 1.029644 -0.000731 0.600928
v 1.024239 0.000036 0.612360
v 1.025960 0.000641 0.616494
v 1.025088 0.001968 0.613377
v 1.024997 -0.001663 0.616282
v 1.025019 -0.001992 0.613426
v 1.023175 0.000693 0.615844
v 1.025589 -0.000578 0.611564
v 1.021676 0.000801 0.612987
v 1.021899 -0.001336 0.612499
v 1.021971 0.001449 0.609343
v 1.017262 0.001997 0.610617
v 1.020919 -0.000767 0.608948
v 1.018192 -0.001992 0.611907
v 1.017745 0.000717 0.613681
v 1.016334 -0.000885 0.609713
v 1.009782 0.001992 0.617233
v 1.008790 -0.000008 0.616467
v 1.011938 0.001418 0.618250
v 1.012534 -0.000690 0.618465
v 1.009608 -0.001965 0.617661
vn -0.8398 -0.0145 -0.5426
vn -0.5583 0.6127 -0.5594
vn -0.3725 0.8910 -0.2595
vn 0.7303 -0.4340 0.5275
vn 0.3682 -0.8379 0.4029
vn -0.3559 -0.9152 -0.1891
vn -0.3823 -0.8386 -0.3880
vn 0.3295 0.8720 0.3619
vn 0.6240 0.0286 0.7808
vn -0.1339 0.3286 -0.9349
vn 0.1027 -0.4581 0.8829
vn -0.4403 0.7841 0.4375
vn -0.0642 -0.9843 0.1646
vn -0.1410 0.6375 0.7574
vn 0.4084 -0.6665 -0.6237
vn -0.1525 -0.2915 0.9443
vn 0.0617 0.5252 -0.8487
vn -0.7374 -0.3797 0.5586
vn -0.2638 0.9495 0.1698
vn 0.7688 0.4491 -0.4552
vn -0.3145 -0.8607 0.4003
vn -0.8294 -0.0963 0.5503
vn 0.2954 0.8702 -0.3943
vn 0.4901 -0.8309 -0.2633
vn 0.5538 -0.2297 -0.8003
vn -0.3251 0.5076 0.7979
vn 0.5644 0.7119 -0.4178
vn 0.4209 -0.5690 -0.7064
vn -0.6019 0.0016 0.7985
vn -0.3381 -0.8750 0.3465
vn -0.3468 0.8668 0.3582
vn 0.7457 -0.6605 -0.0877
vn -0.7429 -0.6554 0.1359
vn -0.8955 0.4120 0.1685
vn 0.9794 -0.0368 0.1984
vn -0.4126 0.8941 -0.1743
vn -0.4270 -0.8891 -0.1647
vn 0.5688 -0.7870 0.2390
vn 0.5862 0.7793 0.2213
vn -0.9494 0.0102 -0.3138
vn -0.1778 -0.9821 -0.0609
vn -0.2820 0.9540 -0.1012
vn -0.9763 -0.0257 -0.2149
vn 0.6902 0.6832 0.2381
vn 0.9039 -0.3792 0.1980
vn -0.3986 0.9125 -0.0916
vn 0.8210 0.5163 0.2435
vn -0.4362 -0.8792 -0.1916
vn 0.5920 -0.7776 0.2118
vn -0.9807 -0.0086 -0.1952
vn 0.9230 0.0038 0.3847
vn 0.3612 0.9235 0.1292
vn -0.3776 0.7188 -0.5836
vn -0.9067 0.1317 -0.4007
vn 0.0497 0.9875 0.1498
vn -0.5733 -0.0438 -0.8181
vn -0.1559 -0.2470 -0.9564
vn -0.3855 -0.8542 -0.3488
vn -0.0721 0.9972 -0.0185
vn 0.0338 -0.4726 0.8806
vn 0.5422 -0.6161 0.5714
vn -0.0479 -0.9942 -0.0962
vn 0.3435 0.3495 0.8717
vn -0.1740 0.6160 -0.7682
vn 0.0211 -0.3747 -0.9269
vn 0.3703 0.8166 -0.4427
vn 0.5530 -0.3568 -0.7529
vn -0.4530 0.4755 0.7541
vn -0.0174 -0.9877 0.1553
vn 0.0154 0.9998 -0.0056
vn -0.2128 -0.7970 0.5653
vn 0.3141 -0.5270 -0.7897
vn -0.3102 0.2975 0.9029
vn -0.0282 0.8553 -0.5172
vn 0.1005 -0.8413 -0.5311
vn -0.0205 -0.7710 0.6364
vn -0.1218 0.5309 0.8386
vn 0.2015 -0.0087 -0.9794
vn -0.2003 0.0169 0.9796
vn -0.0583 0.9165 0.3957
vn 0.3055 0.5149 -0.8009
vn 0.0222 -0.9503 -0.3103
vn -0.3486 0.4759 -0.8074
vn 0.1737 0.8705 0.4605
vn -0.0614 -0.8471 0.5278
vn 0.4074 -0.3511 0.8430
vn -0.2256 0.6982 -0.6794
vn 0.0857 0.9445 0.3170
vn 0.1802 0.1227 0.9760
vn 0.1582 0.2577 -0.9532
vn -0.2593 -0.4346 -0.8625
vn -0.0210 -0.1131 0.9933
vn 0.1693 -0.8795 0.4446
vn -0.0291 0.9969 -0.0721
vn -0.1733 -0.5485 -0.8180
vn 0.2872 0.2697 0.9191
vn -0.0588 0.3873 0.9200
vn -0.5000 0.0268 -0.8656
vn -0.0489 -0.6654 0.7448
vn -0.2120 0.7913 0.5734
vn -0.1631 0.8642 -0.4759
vn 0.3897 0.2698 -0.8806
vn 0.6485 -0.7112 -0.2714
vn 0.0003 -0.7927 -0.6095
vn 0.5186 0.5446 -0.6591
vn -0.2044 0.9770 0.0610
vn -0.2314 -0.9702 0.0717
vn 0.8189 0.2398 -0.5214
vn 0.7582 0.5520 -0.3470
vn 0.1713 -0.9809 -0.0924
vn -0.9761 0.0364 0.2140
vn -0.4910 0.8447 0.2130
vn -0.1647 -0.9792 0.1185
vn -0.8646 -0.3482 0.3622
vn -0.9922 0.1137 -0.0502
vn 0.0373 0.9992 -0.0144
vn 0.8518 0.2968 -0.4316
vn 0.6760 -0.6475 -0.3516
vn 0.7079 -0.3815 0.5943
vn 0.5780 0.6440 0.5011
vn -0.0782 -0.9956 -0.0509
vn 0.5647 -0.4743 0.6753
vn -0.6295 0.3498 -0.6938
vn -0.3790 -0.8260 -0.4171
vn -0.3451 0.9286 -0.1360
vn 0.0464 0.9849 0.1664
vn 0.7935 -0.5157 0.3231
vn -0.1017 -0.9872 -0.1231
vn 0.6521 0.7169 0.2467
vn -0.8712 0.0302 -0.4899
vn 0.8801 -0.4013 0.2536
vn -0.8658 -0.3147 -0.3889
vn -0.3039 0.9286 -0.2131
vn -0.8423 -0.3880 -0.3740
vn 0.8530 -0.2846 0.4374
vn 0.5618 0.7530 0.3424
vn 0.1494 -0.9817 0.1179
vn 0.8284 -0.1541 0.5385
vn -0.6399 0.6166 -0.4585
vn -0.7491 -0.3851 -0.5390
vn 0.0483 -0.6742 0.7369
vn 0.4370 0.3534 0.8271
vn 0.0508 0.9911 0.1225
vn -0.8863 -0.1157 0.4485
vn -0.5994 0.3675 0.7111
vn -0.0394 -0.9991 -0.0133
vn 0.9524 -0.1704 -0.2528
vn -0.3411 -0.1437 0.9290
vn -0.3771 0.3944 0.8380
vn 0.2422 0.5827 -0.7757
vn -0.2094 0.8763 -0.4338
vn 0.0759 -0.4302 -0.8995
vn 0.0663 -0.9859 0.1536
vn 0.4390 0.4339 0.7867
vn -0.4043 -0.3467 -0.8463
vn 0.5508 0.7683 0.3262
vn 0.3189 -0.9380 0.1361
usemtl SVGMat.3781
s 1
f 154//1 2//2 153//3
f 156//4 3//5 157//6
f 1//7 2//2 154//1
f 4//8 5//9 156//4
f 1//7 10//10 2//2
f 5//9 8//11 3//5
f 2//2 13//12 4//8
f 8//11 7//13 3//5
f 6//14 8//11 5//9
f 7//13 9//15 1//7
f 6//14 11//16 8//11
f 9//15 12//17 10//10
f 6//14 14//18 11//16
f 12//17 18//19 13//12
f 9//15 15//20 12//17
f 14//18 16//21 7//13
f 13//12 17//22 14//18
f 17//22 16//21 14//18
f 15//20 19//23 18//19
f 16//21 20//24 9//15
f 20//24 21//25 15//20
f 21//25 19//23 15//20
f 19//23 22//26 18//19
f 21//25 24//27 19//23
f 20//24 25//28 21//25
f 23//29 27//30 16//21
f 19//23 26//31 22//26
f 24//27 26//31 19//23
f 16//21 27//30 20//24
f 27//30 28//32 25//28
f 23//29 30//33 27//30
f 26//31 29//34 23//29
f 28//32 24//27 25//28
f 28//32 31//35 24//27
f 24//27 35//36 26//31
f 30//33 32//37 27//30
f 32//37 34//38 28//32
f 31//35 36//39 24//27
f 33//40 32//37 30//33
f 33//40 38//41 32//37
f 37//42 39//43 33//40
f 36//39 37//42 35//36
f 31//35 40//44 36//39
f 34//38 41//45 31//35
f 38//41 41//45 34//38
f 40//44 43//46 37//42
f 41//45 44//47 40//44
f 42//48 45//49 41//45
f 43//46 46//50 39//43
f 45//49 44//47 41//45
f 46//50 42//48 38//41
f 45//49 47//51 44//47
f 44//47 48//52 43//46
f 47//51 48//52 44//47
f 48//52 52//53 49//54
f 47//51 53//55 48//52
f 51//56 56//57 54//58
f 52//53 56//57 51//56
f 53//55 57//59 52//53
f 54//58 61//60 55//61
f 56//57 58//62 54//58
f 55//61 59//63 53//55
f 61//60 59//63 55//61
f 61//60 57//59 59//63
f 60//64 62//65 56//57
f 57//59 63//66 60//64
f 63//66 64//67 62//65
f 61//60 65//68 57//59
f 58//62 66//69 61//60
f 64//67 66//69 58//62
f 65//68 68//70 63//66
f 64//67 70//71 66//69
f 63//66 67//72 64//67
f 66//69 69//73 65//68
f 69//73 74//74 68//70
f 67//72 73//75 70//71
f 72//76 71//77 69//73
f 74//74 75//78 67//72
f 72//76 76//79 71//77
f 71//77 78//80 74//74
f 77//81 83//82 73//75
f 76//79 78//80 71//77
f 78//80 80//83 77//81
f 76//79 81//84 78//80
f 79//85 82//86 76//79
f 81//84 84//87 80//83
f 82//86 86//88 81//84
f 83//82 85//89 82//86
f 84//87 88//90 87//91
f 83//82 89//92 85//89
f 87//91 93//93 83//82
f 92//94 88//90 84//87
f 88//90 91//95 87//91
f 89//92 94//96 90//97
f 92//94 95//98 91//95
f 93//93 98//99 94//96
f 97//100 96//101 92//94
f 96//101 100//102 95//98
f 100//102 101//103 99//104
f 96//101 102//105 100//102
f 97//100 103//106 96//101
f 101//103 105//107 99//104
f 98//99 103//106 97//100
f 103//106 106//108 102//105
f 103//106 107//109 106//108
f 107//109 110//110 101//103
f 104//111 108//112 103//106
f 110//110 111//113 109//114
f 116//115 113//116 108//112
f 113//116 112//117 107//109
f 112//117 114//118 110//110
f 112//117 118//119 114//118
f 113//116 115//120 112//117
f 114//118 117//121 111//113
f 115//120 118//119 112//117
f 115//120 119//122 118//119
f 117//121 121//123 116//115
f 119//122 122//124 117//121
f 121//123 123//125 120//126
f 120//126 124//127 119//122
f 124//127 127//128 122//124
f 123//125 125//129 120//126
f 122//124 126//130 121//123
f 126//130 123//125 121//123
f 125//129 128//131 124//127
f 129//132 133//133 123//125
f 127//128 130//134 129//132
f 125//129 131//135 128//131
f 123//125 132//136 125//129
f 128//131 134//137 127//128
f 132//136 135//138 131//135
f 130//134 136//139 133//133
f 134//137 137//140 130//134
f 135//138 141//141 134//137
f 132//136 139//142 135//138
f 136//139 140//143 133//133
f 140//143 139//142 132//136
f 138//144 140//143 136//139
f 140//143 143//145 139//142
f 142//146 144//147 138//144
f 143//145 146//148 141//141
f 140//143 145//149 143//145
f 144//147 147//150 140//143
f 147//150 148//151 140//143
f 142//146 149//152 144//147
f 146//148 150//153 142//146
f 148//151 151//154 145//149
f 151//154 150//153 146//148
f 149//152 148//151 147//150
f 150//153 152//155 149//152
f 151//154 156//4 150//153
f 153//3 155//156 151//154
f 155//156 156//4 151//154
f 154//1 153//3 148//151
f 153//3 4//8 155//156
f 153//3 2//2 4//8
f 157//6 3//5 1//7
f 155//156 4//8 156//4
f 156//4 5//9 3//5
f 4//8 6//14 5//9
f 4//8 13//12 6//14
f 3//5 7//13 1//7
f 1//7 9//15 10//10
f 2//2 10//10 13//12
f 10//10 12//17 13//12
f 8//11 11//16 7//13
f 6//14 13//12 14//18
f 11//16 14//18 7//13
f 12//17 15//20 18//19
f 7//13 16//21 9//15
f 13//12 18//19 17//22
f 9//15 20//24 15//20
f 18//19 22//26 17//22
f 17//22 22//26 16//21
f 22//26 23//29 16//21
f 21//25 25//28 24//27
f 22//26 26//31 23//29
f 20//24 27//30 25//28
f 23//29 29//34 30//33
f 26//31 35//36 29//34
f 27//30 32//37 28//32
f 29//34 33//40 30//33
f 28//32 34//38 31//35
f 29//34 35//36 33//40
f 24//27 36//39 35//36
f 35//36 37//42 33//40
f 32//37 38//41 34//38
f 33//40 39//43 38//41
f 36//39 40//44 37//42
f 31//35 41//45 40//44
f 38//41 42//48 41//45
f 37//42 43//46 39//43
f 40//44 44//47 43//46
f 39//43 46//50 38//41
f 43//46 49//54 46//50
f 46//50 49//54 42//48
f 43//46 48//52 49//54
f 42//48 50//157 45//49
f 42//48 49//54 50//157
f 45//49 50//157 47//51
f 49//54 51//56 54//58
f 49//54 52//53 51//56
f 49//54 54//58 50//157
f 50//157 55//61 47//51
f 48//52 53//55 52//53
f 50//157 54//58 55//61
f 47//51 55//61 53//55
f 52//53 57//59 56//57
f 54//58 58//62 61//60
f 53//55 59//63 57//59
f 57//59 60//64 56//57
f 56//57 62//65 58//62
f 60//64 63//66 62//65
f 62//65 64//67 58//62
f 57//59 65//68 63//66
f 61//60 66//69 65//68
f 63//66 68//70 67//72
f 65//68 69//73 68//70
f 66//69 70//71 69//73
f 64//67 67//72 70//71
f 69//73 71//77 74//74
f 70//71 72//76 69//73
f 70//71 73//75 72//76
f 68//70 74//74 67//72
f 67//72 75//78 73//75
f 74//74 77//81 75//78
f 75//78 77//81 73//75
f 74//74 78//80 77//81
f 73//75 79//85 72//76
f 72//76 79//85 76//79
f 73//75 83//82 79//85
f 77//81 80//83 83//82
f 78//80 81//84 80//83
f 76//79 82//86 81//84
f 79//85 83//82 82//86
f 80//83 87//91 83//82
f 80//83 84//87 87//91
f 82//86 85//89 86//88
f 81//84 86//88 84//87
f 85//89 90//97 86//88
f 86//88 92//94 84//87
f 85//89 89//92 90//97
f 83//82 93//93 89//92
f 86//88 90//97 92//94
f 87//91 91//95 93//93
f 88//90 92//94 91//95
f 89//92 93//93 94//96
f 90//97 94//96 92//94
f 91//95 95//98 99//104
f 92//94 96//101 95//98
f 94//96 97//100 92//94
f 94//96 98//99 97//100
f 91//95 99//104 93//93
f 93//93 99//104 98//99
f 95//98 100//102 99//104
f 100//102 102//105 101//103
f 96//101 103//106 102//105
f 99//104 105//107 98//99
f 98//99 104//111 103//106
f 98//99 105//107 104//111
f 102//105 106//108 101//103
f 106//108 107//109 101//103
f 103//106 108//112 107//109
f 101//103 110//110 105//107
f 105//107 109//114 104//111
f 104//111 109//114 108//112
f 105//107 110//110 109//114
f 109//114 116//115 108//112
f 109//114 111//113 116//115
f 107//109 112//117 110//110
f 108//112 113//116 107//109
f 110//110 114//118 111//113
f 113//116 120//126 115//120
f 113//116 116//115 120//126
f 111//113 117//121 116//115
f 114//118 118//119 117//121
f 115//120 120//126 119//122
f 116//115 121//123 120//126
f 117//121 122//124 121//123
f 118//119 119//122 117//121
f 119//122 124//127 122//124
f 120//126 125//129 124//127
f 122//124 127//128 126//130
f 124//127 128//131 127//128
f 127//128 129//132 126//130
f 126//130 129//132 123//125
f 129//132 130//134 133//133
f 125//129 132//136 131//135
f 123//125 133//133 132//136
f 127//128 134//137 130//134
f 128//131 131//135 134//137
f 131//135 135//138 134//137
f 130//134 137//140 136//139
f 137//140 138//144 136//139
f 135//138 139//142 141//141
f 133//133 140//143 132//136
f 134//137 142//146 137//140
f 134//137 141//141 142//146
f 137//140 142//146 138//144
f 139//142 143//145 141//141
f 138//144 144//147 140//143
f 143//145 145//149 146//148
f 141//141 146//148 142//146
f 140//143 148//151 145//149
f 144//147 149//152 147//150
f 142//146 150//153 149//152
f 145//149 151//154 146//148
f 149//152 152//155 148//151
f 150//153 157//6 152//155
f 148//151 153//3 151//154
f 152//155 154//1 148//151
f 150//153 156//4 157//6
f 152//155 157//6 154//1
f 157//6 1//7 154//1
