# Blender v2.79 (sub 0) OBJ File: 'world_countrycodes_outlines2.blend'
# www.blender.org
mtllib NI_outline.mtl
o NI.001_CUCurve.1609
v 0.467095 0.000784 0.588032
v 0.468716 -0.001442 0.589166
v 0.458555 0.001915 0.578200
v 0.461493 0.001304 0.578044
v 0.461662 -0.000963 0.577516
v 0.458868 -0.001989 0.576678
v 0.457591 -0.000760 0.578848
v 0.458238 0.000811 0.575234
v 0.464325 0.001932 0.575340
v 0.462943 -0.000570 0.578142
v 0.461431 0.000803 0.574396
v 0.461834 -0.001388 0.574699
v 0.464436 -0.001926 0.575195
v 0.465461 0.000460 0.573594
v 0.463845 -0.002018 0.572400
v 0.461860 -0.000656 0.570450
v 0.462807 0.001882 0.571078
v 0.469156 0.000822 0.568842
v 0.471462 -0.000764 0.572210
v 0.470480 0.001936 0.571425
v 0.470119 -0.001931 0.569687
v 0.473354 -0.000826 0.569316
v 0.472594 0.001985 0.568235
v 0.471534 -0.001891 0.566821
v 0.471260 0.000673 0.565700
v 0.476575 0.000819 0.565555
v 0.477566 -0.000704 0.569420
v 0.476848 0.001928 0.568464
v 0.477438 -0.001827 0.565902
v 0.481265 0.000816 0.563149
v 0.481526 -0.000800 0.567108
v 0.482694 0.001925 0.565711
v 0.484462 -0.002000 0.563932
v 0.485653 0.000778 0.562775
v 0.484981 0.000653 0.570855
v 0.480755 -0.001152 0.570440
v 0.483674 -0.001382 0.571982
v 0.482111 0.001969 0.570802
v 0.483663 0.000895 0.572643
v 0.479885 0.000868 0.571788
v 0.483738 -0.000558 0.580375
v 0.482554 0.001987 0.580513
v 0.479774 0.000646 0.579953
v 0.481683 -0.001976 0.574285
v 0.481746 -0.000801 0.587051
v 0.480642 0.001943 0.588925
v 0.478393 0.001448 0.587923
v 0.478389 -0.001451 0.587884
v 0.477790 0.000030 0.587273
v 0.479774 -0.001996 0.590410
v 0.484526 0.000003 0.590938
v 0.478811 0.000756 0.591469
v 0.469549 0.002004 0.587813
v 0.471170 0.000803 0.589972
v 0.470398 0.001416 0.586494
v 0.470631 -0.000006 0.585908
v 0.470041 -0.001966 0.587069
v 0.468057 0.000692 0.590176
vn -0.0616 0.9897 0.1291
vn -0.5564 0.8188 0.1411
vn -0.6867 0.4209 0.5927
vn 0.4549 -0.0786 -0.8871
vn 0.4359 0.8913 0.1249
vn 0.2821 0.7621 -0.5827
vn 0.1179 -0.9607 -0.2511
vn 0.3766 -0.9210 0.0998
vn -0.3295 -0.7114 0.6208
vn -0.4512 -0.8516 -0.2666
vn -0.6871 0.2996 -0.6619
vn -0.8990 -0.2888 0.3292
vn 0.5454 0.7975 0.2578
vn 0.3573 -0.2915 0.8873
vn 0.5984 -0.7602 0.2529
vn -0.4504 -0.7791 -0.4360
vn -0.6074 0.5623 -0.5611
vn 0.6841 0.3184 0.6562
vn -0.4044 0.8187 -0.4076
vn -0.0318 -0.9984 -0.0464
vn -0.4626 0.4707 -0.7513
vn -0.7077 -0.2851 -0.6464
vn 0.5694 -0.3179 0.7581
vn 0.0584 0.9915 0.1159
vn 0.2955 0.8607 0.4146
vn -0.0851 -0.9823 -0.1668
vn 0.3940 -0.5092 0.7651
vn -0.3267 -0.8377 -0.4376
vn -0.4677 0.3089 -0.8281
vn -0.1053 -0.9071 -0.4075
vn -0.1864 0.5225 -0.8320
vn 0.0818 0.8744 0.4781
vn 0.2293 -0.3716 0.8996
vn -0.2535 0.3398 -0.9057
vn 0.0325 0.9993 -0.0165
vn -0.4710 -0.7504 0.4637
vn 0.3869 -0.8138 -0.4335
vn 0.6799 0.2841 -0.6760
vn 0.9142 0.3040 0.2678
vn 0.7384 -0.6500 0.1794
vn -0.2028 0.9685 -0.1445
vn -0.8485 -0.4579 -0.2653
vn -0.2329 -0.9714 0.0447
vn 0.8409 0.5154 0.1649
vn -0.8882 0.3570 -0.2892
vn 0.9273 -0.3328 0.1713
vn 0.3956 0.9149 0.0795
vn -0.8930 0.4178 -0.1670
vn 0.9172 -0.3983 -0.0106
vn -0.1828 0.8539 -0.4873
vn 0.3001 0.9488 0.0983
vn -0.2562 -0.8981 -0.3575
vn -0.4755 0.0108 -0.8796
vn 0.1063 -0.8603 0.4986
vn 0.9260 0.0158 0.3773
vn -0.0282 0.3625 0.9315
vn -0.1195 0.4162 0.9013
vn -0.5051 0.2348 0.8305
usemtl SVGMat.3781
s 1
f 53//1 3//2 1//3
f 56//4 4//5 55//6
f 57//7 5//8 56//4
f 4//5 3//2 53//1
f 2//9 6//10 57//7
f 3//2 8//11 7//12
f 4//5 9//13 3//2
f 5//8 10//14 4//5
f 13//15 10//14 5//8
f 8//11 12//16 6//10
f 9//13 11//17 8//11
f 10//14 9//13 4//5
f 13//15 14//18 10//14
f 14//18 17//19 9//13
f 12//16 15//20 13//15
f 17//19 18//21 16//22
f 15//20 19//23 14//18
f 19//23 23//24 20//25
f 21//26 22//27 19//23
f 18//21 24//28 21//26
f 23//24 25//29 18//21
f 25//29 29//30 24//28
f 23//24 26//31 25//29
f 22//27 28//32 23//24
f 24//28 27//33 22//27
f 28//32 30//34 26//31
f 27//33 32//35 28//32
f 29//30 31//36 27//33
f 30//34 33//37 29//30
f 32//35 34//38 30//34
f 32//35 35//39 34//38
f 35//39 37//40 33//37
f 31//36 38//41 32//35
f 33//37 36//42 31//36
f 37//40 44//43 33//37
f 38//41 39//44 35//39
f 36//42 40//45 38//41
f 39//44 41//46 37//40
f 38//41 42//47 39//44
f 40//45 42//47 38//41
f 36//42 43//48 40//45
f 42//47 45//49 41//46
f 47//50 46//51 42//47
f 48//52 49//53 43//48
f 45//49 50//54 44//43
f 46//51 51//55 45//49
f 46//51 52//56 51//55
f 47//50 53//1 46//51
f 52//56 2//9 50//54
f 53//1 54//57 52//56
f 49//53 55//6 47//50
f 48//52 56//4 49//53
f 53//1 58//58 54//57
f 53//1 1//3 58//58
f 1//3 7//12 2//9
f 1//3 3//2 7//12
f 55//6 4//5 53//1
f 56//4 5//8 4//5
f 57//7 6//10 5//8
f 2//9 7//12 6//10
f 7//12 8//11 6//10
f 3//2 9//13 8//11
f 6//10 13//15 5//8
f 8//11 11//17 12//16
f 6//10 12//16 13//15
f 10//14 14//18 9//13
f 13//15 15//20 14//18
f 9//13 17//19 11//17
f 11//17 16//22 12//16
f 11//17 17//19 16//22
f 12//16 16//22 15//20
f 16//22 18//21 21//26
f 14//18 20//25 17//19
f 14//18 19//23 20//25
f 16//22 21//26 15//20
f 17//19 20//25 18//21
f 15//20 21//26 19//23
f 19//23 22//27 23//24
f 20//25 23//24 18//21
f 21//26 24//28 22//27
f 18//21 25//29 24//28
f 25//29 26//31 29//30
f 22//27 27//33 28//32
f 23//24 28//32 26//31
f 24//28 29//30 27//33
f 26//31 30//34 29//30
f 27//33 31//36 32//35
f 28//32 32//35 30//34
f 29//30 33//37 31//36
f 30//34 34//38 33//37
f 34//38 35//39 33//37
f 31//36 36//42 38//41
f 32//35 38//41 35//39
f 33//37 44//43 36//42
f 35//39 39//44 37//40
f 39//44 42//47 41//46
f 40//45 43//48 42//47
f 36//42 44//43 43//48
f 37//40 41//46 44//43
f 42//47 46//51 45//49
f 43//48 47//50 42//47
f 44//43 48//52 43//48
f 41//46 45//49 44//43
f 43//48 49//53 47//50
f 44//43 50//54 48//52
f 45//49 51//55 50//54
f 51//55 52//56 50//54
f 46//51 53//1 52//56
f 50//54 57//7 48//52
f 52//56 54//57 2//9
f 47//50 55//6 53//1
f 49//53 56//4 55//6
f 48//52 57//7 56//4
f 50//54 2//9 57//7
f 54//57 58//58 2//9
f 58//58 1//3 2//9
