# Blender v2.79 (sub 0) OBJ File: 'world_countrycodes_export2.blend'
# www.blender.org
mtllib NL.mtl
o NL.002_CUCurve.1813
v 0.985997 0.000000 0.327238
v 0.987268 0.000000 0.326981
v 0.988630 0.000000 0.327387
v 0.989745 0.000000 0.328442
v 0.992392 0.000000 0.329961
v 0.994023 0.000000 0.331424
v 0.994663 0.000000 0.331920
v 0.994938 0.000000 0.329389
v 0.995507 0.000000 0.326905
v 0.995305 0.000000 0.325166
v 0.995532 0.000000 0.324929
v 0.997675 0.000000 0.324754
v 0.998778 0.000000 0.323973
v 0.998991 0.000000 0.322475
v 0.999783 0.000000 0.321901
v 1.000111 0.000000 0.321427
v 1.000069 0.000000 0.320881
v 0.999454 0.000000 0.319933
v 0.998113 0.000000 0.318463
v 0.998367 0.000000 0.318143
v 1.000234 0.000000 0.316843
v 1.001043 0.000000 0.315791
v 1.001296 0.000000 0.313924
v 1.000855 0.000000 0.312024
v 1.000497 0.000000 0.312604
v 0.999920 0.000000 0.312803
v 0.998782 0.000000 0.312295
v 0.997119 0.000000 0.312157
v 0.993459 0.000000 0.312822
v 0.992027 0.000000 0.313547
v 0.991069 0.000000 0.315107
v 0.991147 0.000000 0.316247
v 0.991610 0.000000 0.317142
v 0.990771 0.000000 0.317712
v 0.989521 0.000000 0.317625
v 0.988925 0.000000 0.317282
v 0.988511 0.000000 0.316400
v 0.987437 0.000000 0.316272
v 0.986366 0.000000 0.317083
v 0.986126 0.000000 0.318287
v 0.985843 0.000000 0.319337
v 0.984298 0.000000 0.320881
v 0.983576 0.000000 0.321982
v 0.983462 0.000000 0.323833
v 0.982729 0.000000 0.325127
v 0.981470 0.000000 0.326424
v 0.978132 0.000000 0.328621
v 0.979183 0.000000 0.329110
v 0.980141 0.000000 0.329347
v 0.981345 0.000000 0.329255
v 0.982969 0.000000 0.328853
v 0.984505 0.000000 0.328190
v 0.998778 0.050000 0.323973
v 0.998991 0.050000 0.322475
v 0.991147 0.050000 0.316247
v 0.991610 0.050000 0.317142
v 0.990771 0.050000 0.317712
v 0.989521 0.050000 0.317625
v 1.001043 0.050000 0.315791
v 1.001296 0.050000 0.313924
v 0.986126 0.050000 0.318287
v 0.983462 0.050000 0.323833
v 0.983576 0.050000 0.321982
v 0.988511 0.050000 0.316400
v 0.987437 0.050000 0.316272
v 0.999783 0.050000 0.321901
v 1.000234 0.050000 0.316843
v 1.000855 0.050000 0.312024
v 1.000497 0.050000 0.312604
v 0.995532 0.050000 0.324929
v 0.982729 0.050000 0.325127
v 0.998367 0.050000 0.318143
v 0.997675 0.050000 0.324754
v 0.986366 0.050000 0.317083
v 1.000111 0.050000 0.321427
v 0.981345 0.050000 0.329255
v 0.982969 0.050000 0.328853
v 0.998782 0.050000 0.312295
v 0.993459 0.050000 0.312822
v 0.995305 0.050000 0.325166
v 0.992027 0.050000 0.313547
v 0.991069 0.050000 0.315107
v 0.988925 0.050000 0.317282
v 0.985997 0.050000 0.327238
v 0.984505 0.050000 0.328190
v 1.000069 0.050000 0.320881
v 0.999454 0.050000 0.319933
v 0.997119 0.050000 0.312157
v 0.984298 0.050000 0.320881
v 0.981470 0.050000 0.326424
v 0.994663 0.050000 0.331920
v 0.994938 0.050000 0.329389
v 0.992392 0.050000 0.329961
v 0.988630 0.050000 0.327387
v 0.989745 0.050000 0.328442
v 0.985843 0.050000 0.319337
v 0.987268 0.050000 0.326981
v 0.980141 0.050000 0.329347
v 0.999920 0.050000 0.312803
v 0.995507 0.050000 0.326905
v 0.998113 0.050000 0.318463
v 0.978132 0.050000 0.328621
v 0.979183 0.050000 0.329110
v 0.994023 0.050000 0.331424
vn 0.0000 -1.0000 0.0000
vn 0.0000 1.0000 0.0000
vn -0.3249 0.0000 -0.9457
vn 0.9933 0.0000 -0.1157
vn 0.4072 0.0000 -0.9133
vn 0.7925 0.0000 0.6098
vn -0.6677 0.0000 0.7444
vn 0.9970 0.0000 -0.0778
vn 0.2400 0.0000 0.9708
vn -0.9981 0.0000 -0.0610
vn -0.6123 0.0000 0.7906
vn -0.8362 0.0000 -0.5484
vn -0.9807 0.0000 -0.1955
vn 0.9748 0.0000 0.2231
vn -0.8522 0.0000 -0.5232
vn -0.4978 0.0000 0.8673
vn 0.7208 0.0000 0.6931
vn -0.9977 0.0000 0.0681
vn 0.4990 0.0000 -0.8666
vn 0.0816 0.0000 0.9967
vn 0.5380 0.0000 0.8430
vn 0.7389 0.0000 -0.6738
vn -0.4220 0.0000 0.9066
vn 0.8389 0.0000 -0.5443
vn 0.9900 0.0000 0.1410
vn -0.2403 0.0000 0.9707
vn -0.1787 0.0000 -0.9839
vn -0.8883 0.0000 0.4592
vn -0.4518 0.0000 -0.8921
vn 0.9741 0.0000 -0.2259
vn 0.0696 0.0000 -0.9976
vn -0.5496 0.0000 -0.8354
vn -0.5625 0.0000 -0.8268
vn 0.9910 0.0000 0.1338
vn 0.5776 0.0000 0.8163
vn -0.7178 0.0000 -0.6962
vn 0.9941 0.0000 0.1082
vn -0.6041 0.0000 -0.7969
vn 0.9053 0.0000 -0.4247
vn 0.1183 0.0000 -0.9930
vn 0.7838 0.0000 0.6210
vn 0.5867 0.0000 0.8098
vn -0.7068 0.0000 -0.7074
vn 0.0826 0.0000 -0.9966
vn -0.6875 0.0000 0.7262
vn -0.8509 0.0000 -0.5254
vn -0.8698 0.0000 -0.4933
vn -0.9654 0.0000 -0.2607
vn -0.2855 0.0000 0.9584
vn 0.5714 0.0000 0.8206
vn 0.3962 0.0000 0.9182
vn 0.1982 0.0000 0.9802
vn 0.0765 0.0000 0.9971
vn 0.8225 0.0000 0.5688
usemtl SVGMat.3781
s off
f 29//1 28//1 27//1
f 29//1 27//1 26//1
f 25//1 24//1 23//1
f 26//1 25//1 23//1
f 29//1 26//1 23//1
f 30//1 29//1 23//1
f 31//1 30//1 23//1
f 31//1 23//1 22//1
f 32//1 31//1 22//1
f 32//1 22//1 21//1
f 33//1 32//1 21//1
f 39//1 38//1 37//1
f 39//1 37//1 36//1
f 33//1 21//1 20//1
f 34//1 33//1 20//1
f 39//1 36//1 35//1
f 40//1 39//1 35//1
f 40//1 35//1 34//1
f 40//1 34//1 20//1
f 40//1 20//1 19//1
f 41//1 40//1 19//1
f 41//1 19//1 18//1
f 42//1 41//1 18//1
f 42//1 18//1 17//1
f 43//1 42//1 17//1
f 43//1 17//1 16//1
f 43//1 16//1 15//1
f 43//1 15//1 14//1
f 44//1 43//1 14//1
f 44//1 14//1 13//1
f 44//1 13//1 12//1
f 45//1 44//1 12//1
f 45//1 12//1 11//1
f 45//1 11//1 10//1
f 46//1 45//1 10//1
f 46//1 10//1 9//1
f 2//1 46//1 9//1
f 46//1 2//1 1//1
f 3//1 2//1 9//1
f 47//1 46//1 1//1
f 47//1 1//1 52//1
f 4//1 3//1 9//1
f 4//1 9//1 8//1
f 47//1 52//1 51//1
f 48//1 47//1 51//1
f 48//1 51//1 50//1
f 5//1 4//1 8//1
f 49//1 48//1 50//1
f 5//1 8//1 7//1
f 6//1 5//1 7//1
f 79//2 78//2 88//2
f 79//2 99//2 78//2
f 69//2 60//2 68//2
f 99//2 60//2 69//2
f 79//2 60//2 99//2
f 81//2 60//2 79//2
f 82//2 60//2 81//2
f 82//2 59//2 60//2
f 55//2 59//2 82//2
f 55//2 67//2 59//2
f 56//2 67//2 55//2
f 74//2 64//2 65//2
f 74//2 83//2 64//2
f 56//2 72//2 67//2
f 57//2 72//2 56//2
f 74//2 58//2 83//2
f 61//2 58//2 74//2
f 61//2 57//2 58//2
f 61//2 72//2 57//2
f 61//2 101//2 72//2
f 96//2 101//2 61//2
f 96//2 87//2 101//2
f 89//2 87//2 96//2
f 89//2 86//2 87//2
f 63//2 86//2 89//2
f 63//2 75//2 86//2
f 63//2 66//2 75//2
f 63//2 54//2 66//2
f 62//2 54//2 63//2
f 62//2 53//2 54//2
f 62//2 73//2 53//2
f 71//2 73//2 62//2
f 71//2 70//2 73//2
f 71//2 80//2 70//2
f 90//2 80//2 71//2
f 90//2 100//2 80//2
f 97//2 100//2 90//2
f 90//2 84//2 97//2
f 94//2 100//2 97//2
f 102//2 84//2 90//2
f 102//2 85//2 84//2
f 95//2 100//2 94//2
f 95//2 92//2 100//2
f 102//2 77//2 85//2
f 103//2 77//2 102//2
f 103//2 76//2 77//2
f 93//2 92//2 95//2
f 98//2 76//2 103//2
f 93//2 91//2 92//2
f 104//2 91//2 93//2
f 25//3 26//3 99//3 69//3
f 9//4 10//4 80//4 100//4
f 26//5 27//5 78//5 99//5
f 21//6 22//6 59//6 67//6
f 5//7 6//7 104//7 93//7
f 16//8 17//8 86//8 75//8
f 50//9 51//9 77//9 76//9
f 43//10 44//10 62//10 63//10
f 6//11 7//11 91//11 104//11
f 42//12 43//12 63//12 89//12
f 39//13 40//13 61//13 74//13
f 8//14 9//14 100//14 92//14
f 30//15 31//15 82//15 81//15
f 4//16 5//16 93//16 95//16
f 10//17 11//17 70//17 80//17
f 31//18 32//18 55//18 82//18
f 35//19 36//19 83//19 58//19
f 11//20 12//20 73//20 70//20
f 52//21 1//21 84//21 85//21
f 18//22 19//22 101//22 87//22
f 47//23 48//23 103//23 102//23
f 17//24 18//24 87//24 86//24
f 13//25 14//25 54//25 53//25
f 48//26 49//26 98//26 103//26
f 28//27 29//27 79//27 88//27
f 32//28 33//28 56//28 55//28
f 29//29 30//29 81//29 79//29
f 23//30 24//30 68//30 60//30
f 34//31 35//31 58//31 57//31
f 46//32 47//32 102//32 90//32
f 33//33 34//33 57//33 56//33
f 22//34 23//34 60//34 59//34
f 12//35 13//35 53//35 73//35
f 45//36 46//36 90//36 71//36
f 7//37 8//37 92//37 91//37
f 38//38 39//38 74//38 65//38
f 36//39 37//39 64//39 83//39
f 37//40 38//40 65//40 64//40
f 19//41 20//41 72//41 101//41
f 14//42 15//42 66//42 54//42
f 41//43 42//43 89//43 96//43
f 27//44 28//44 88//44 78//44
f 3//45 4//45 95//45 94//45
f 24//46 25//46 69//46 68//46
f 44//47 45//47 71//47 62//47
f 40//48 41//48 96//48 61//48
f 2//49 3//49 94//49 97//49
f 20//50 21//50 67//50 72//50
f 51//51 52//51 85//51 77//51
f 1//52 2//52 97//52 84//52
f 49//53 50//53 76//53 98//53
f 15//54 16//54 75//54 66//54
