# Blender v2.79 (sub 0) OBJ File: 'world_countrycodes_outlines2.blend'
# www.blender.org
mtllib NL_outline.mtl
o NL.001_CUCurve.1639
v 0.974165 -0.000708 0.328706
v 0.976643 0.001991 0.328549
v 0.982201 0.000056 0.328549
v 0.981273 0.000868 0.323655
v 0.982629 0.001953 0.324052
v 0.984717 0.001441 0.324674
v 0.982636 -0.001924 0.324135
v 0.985571 -0.000827 0.323330
v 0.981949 -0.000748 0.320768
v 0.984145 -0.000816 0.318051
v 0.985138 0.001383 0.316206
v 0.987791 0.000762 0.319983
v 0.987417 0.001928 0.316964
v 0.987662 -0.002007 0.315477
v 0.987757 -0.001028 0.318448
v 0.985326 -0.000765 0.315225
v 0.988852 0.000775 0.314271
v 0.989804 0.001187 0.315860
v 0.990739 0.001485 0.319320
v 0.991292 -0.000685 0.319909
v 0.992486 0.001954 0.317315
v 0.989369 -0.001017 0.316106
v 0.993722 -0.000005 0.317244
v 0.992540 -0.001928 0.317156
v 0.993036 0.000813 0.315211
v 0.992608 -0.001345 0.314901
v 0.991202 -0.001968 0.313011
v 0.990736 -0.000034 0.311809
v 0.991523 0.001960 0.312708
v 0.997142 -0.000808 0.310167
v 0.998093 0.001407 0.313641
v 0.998364 -0.000524 0.314316
v 1.000260 -0.001986 0.311934
v 0.999528 0.001036 0.310680
v 1.000499 -0.001529 0.314510
v 1.001740 0.000768 0.314246
v 1.000855 0.000008 0.305912
v 1.000879 0.000688 0.317513
v 1.003228 -0.000664 0.313034
v 1.001801 0.001993 0.312666
v 0.999448 0.000793 0.314849
v 1.001626 -0.001939 0.316823
v 1.002562 0.000850 0.317235
v 0.999132 -0.001994 0.318364
v 1.000541 0.000013 0.318522
v 0.999151 0.001967 0.318351
v 0.996517 0.001491 0.318226
v 0.995939 -0.000786 0.318175
v 0.997743 -0.000009 0.320987
v 0.999281 -0.001949 0.320890
v 0.999237 0.001935 0.320973
v 1.001728 -0.001464 0.321125
v 1.002216 0.000878 0.320896
v 0.999303 0.001813 0.324829
v 1.000734 -0.000099 0.324072
v 0.996805 0.000003 0.322675
v 0.999325 -0.001840 0.324773
v 0.997318 0.000055 0.326721
v 0.993703 -0.000760 0.323574
v 0.996785 0.001439 0.325953
v 0.994831 0.001927 0.324094
v 0.996178 -0.001951 0.325715
v 0.993061 -0.000698 0.328122
v 0.994050 0.001875 0.330163
v 0.995430 -0.001955 0.332820
v 0.996147 0.000821 0.335333
v 0.987737 -0.001372 0.328489
v 0.987344 0.000828 0.329019
v 0.986530 0.001919 0.326042
v 0.987867 0.000562 0.324645
v 0.987483 -0.001915 0.325797
v 0.980535 -0.001913 0.328692
v 0.980704 0.000953 0.327651
v 0.979912 -0.000719 0.331441
v 0.979431 0.001905 0.330278
vn -0.0543 0.9985 0.0078
vn -0.5026 0.8626 0.0574
vn -0.0902 0.8415 0.5327
vn -0.9684 -0.2327 0.0898
vn -0.0774 -0.3293 0.9410
vn -0.0627 -0.9838 0.1679
vn 0.4148 0.2141 0.8843
vn -0.7502 0.3073 -0.5854
vn 0.6386 0.6443 0.4208
vn -0.1118 0.9910 -0.0738
vn 0.7248 -0.5299 0.4402
vn -0.1416 -0.9841 -0.1067
vn -0.8446 -0.2265 -0.4850
vn -0.7799 -0.4696 -0.4137
vn -0.5707 0.6393 -0.5154
vn 0.8930 0.3241 0.3121
vn 0.4029 -0.7240 0.5598
vn 0.0379 0.9985 -0.0387
vn 0.0398 -0.8677 -0.4954
vn -0.6187 -0.3298 -0.7130
vn 0.3469 0.2840 -0.8938
vn 0.0673 -0.4710 -0.8795
vn -0.1529 0.8674 -0.4735
vn 0.0557 0.6332 0.7720
vn 0.2127 -0.3267 0.9209
vn 0.4905 0.8405 0.2298
vn 0.4922 -0.8549 0.1637
vn 0.9851 -0.0392 0.1672
vn 0.7603 0.5480 0.3487
vn -0.3225 0.8625 -0.3898
vn -0.3692 -0.8682 -0.3317
vn -0.6485 0.0105 -0.7611
vn -0.0457 -0.2868 -0.9569
vn 0.6113 -0.7635 0.2081
vn -0.0043 -0.3312 0.9435
vn 0.0435 0.6779 0.7338
vn 0.4313 0.9002 -0.0596
vn 0.0469 -0.9755 -0.2149
vn -0.6835 -0.7151 0.1463
vn -0.8972 0.3231 0.3012
vn -0.3057 0.6522 -0.6936
vn -0.0156 -0.0106 -0.9998
vn -0.0935 -0.1175 -0.9886
vn -0.3136 0.2307 -0.9211
vn 0.9477 -0.2896 -0.1344
vn 0.4956 -0.8065 0.3224
vn 0.7992 0.3416 0.4944
vn 0.1046 0.9925 -0.0623
vn 0.9783 -0.0681 0.1958
vn 0.0212 -0.9993 -0.0298
vn -0.9234 -0.3712 -0.0974
vn -0.2225 -0.9726 0.0677
vn 0.7745 -0.6314 -0.0372
vn -0.7508 0.6540 -0.0918
vn -0.1459 0.9858 0.0824
vn -0.9944 -0.0111 0.1046
vn 0.3702 0.8192 0.4380
vn 0.9130 0.3988 -0.0862
vn 0.8023 -0.0263 0.5963
vn 0.3323 -0.8330 0.4424
vn -0.5646 -0.0417 -0.8243
vn 0.8424 -0.0520 0.5363
vn 0.0576 -0.9980 0.0275
vn -0.7227 -0.3378 -0.6030
vn -0.0261 0.9996 0.0121
vn -0.4028 0.8068 -0.4322
vn 0.2748 -0.8534 0.4429
vn -0.1791 -0.6482 -0.7400
vn 0.3119 0.8909 0.3301
vn 0.3631 0.2282 0.9033
vn -0.1302 -0.8034 0.5810
vn -0.0947 0.5612 0.8222
vn 0.1260 0.1836 -0.9749
vn -0.0020 -0.8189 -0.5739
vn -0.0654 0.9212 -0.3834
usemtl SVGMat.3781
s 1
f 73//1 2//2 75//3
f 75//3 1//4 74//5
f 72//6 3//7 73//1
f 2//2 4//8 1//4
f 3//7 6//9 73//1
f 6//9 5//10 2//2
f 72//6 8//11 3//7
f 7//12 8//11 72//6
f 4//8 9//13 7//12
f 4//8 10//14 9//13
f 5//10 11//15 4//8
f 8//11 12//16 6//9
f 7//12 15//17 8//11
f 12//16 13//18 5//10
f 10//14 14//19 7//12
f 11//15 16//20 10//14
f 11//15 17//21 16//20
f 13//18 17//21 11//15
f 17//21 22//22 14//19
f 13//18 18//23 17//21
f 15//17 19//24 13//18
f 14//19 20//25 15//17
f 19//24 21//26 13//18
f 22//22 24//27 14//19
f 20//25 21//26 19//24
f 23//28 25//29 21//26
f 24//27 25//29 23//28
f 25//29 29//30 21//26
f 22//22 27//31 24//27
f 18//23 28//32 22//22
f 28//32 30//33 27//31
f 29//30 30//33 28//32
f 26//34 32//35 25//29
f 27//31 32//35 26//34
f 31//36 40//37 29//30
f 30//33 33//38 27//31
f 33//38 35//39 32//35
f 32//35 36//40 31//36
f 35//39 36//40 32//35
f 34//41 37//42 33//38
f 40//37 37//42 34//41
f 35//39 38//43 36//40
f 35//39 41//44 38//43
f 39//45 42//46 33//38
f 40//37 43//47 39//45
f 41//44 46//48 40//37
f 45//49 44//50 42//46
f 35//39 48//51 41//44
f 44//50 48//51 35//39
f 44//50 50//52 48//51
f 45//49 52//53 44//50
f 47//54 51//55 46//48
f 49//56 51//55 47//54
f 51//55 54//57 53//58
f 54//57 55//59 53//58
f 55//59 57//60 52//53
f 49//56 56//61 51//55
f 56//61 54//57 51//55
f 54//57 58//62 55//59
f 58//62 62//63 57//60
f 57//60 59//64 56//61
f 59//64 64//65 61//66
f 58//62 65//67 62//63
f 62//63 63//68 59//64
f 60//69 66//70 58//62
f 64//65 66//70 60//69
f 66//70 67//71 65//67
f 64//65 68//72 66//70
f 63//68 70//73 64//65
f 65//67 71//74 63//68
f 67//71 71//74 65//67
f 71//74 73//1 70//73
f 67//71 72//6 71//74
f 75//3 2//2 1//4
f 74//5 1//4 72//6
f 1//4 4//8 7//12
f 2//2 5//10 4//8
f 1//4 7//12 72//6
f 73//1 6//9 2//2
f 3//7 8//11 6//9
f 4//8 11//15 10//14
f 6//9 12//16 5//10
f 8//11 15//17 12//16
f 9//13 10//14 7//12
f 5//10 13//18 11//15
f 7//12 14//19 15//17
f 12//16 15//17 13//18
f 10//14 16//20 14//19
f 16//20 17//21 14//19
f 17//21 18//23 22//22
f 15//17 20//25 19//24
f 13//18 21//26 18//23
f 14//19 24//27 20//25
f 20//25 23//28 21//26
f 20//25 24//27 23//28
f 24//27 26//34 25//29
f 21//26 29//30 18//23
f 24//27 27//31 26//34
f 22//22 28//32 27//31
f 18//23 29//30 28//32
f 29//30 34//41 30//33
f 25//29 31//36 29//30
f 25//29 32//35 31//36
f 29//30 40//37 34//41
f 27//31 33//38 32//35
f 30//33 34//41 33//38
f 31//36 36//40 40//37
f 36//40 38//43 40//37
f 37//42 40//37 39//45
f 38//43 41//44 40//37
f 37//42 39//45 33//38
f 33//38 42//46 35//39
f 39//45 43//47 42//46
f 40//37 46//48 43//47
f 42//46 44//50 35//39
f 43//47 45//49 42//46
f 43//47 46//48 45//49
f 41//44 47//54 46//48
f 41//44 48//51 47//54
f 46//48 53//58 45//49
f 48//51 49//56 47//54
f 48//51 50//52 49//56
f 46//48 51//55 53//58
f 44//50 52//53 50//52
f 45//49 53//58 52//53
f 53//58 55//59 52//53
f 52//53 57//60 50//52
f 50//52 56//61 49//56
f 50//52 57//60 56//61
f 55//59 58//62 57//60
f 56//61 61//66 54//57
f 56//61 59//64 61//66
f 54//57 60//69 58//62
f 54//57 61//66 60//69
f 57//60 62//63 59//64
f 59//64 63//68 64//65
f 61//66 64//65 60//69
f 62//63 65//67 63//68
f 58//62 66//70 65//67
f 66//70 68//72 67//71
f 64//65 69//75 68//72
f 64//65 70//73 69//75
f 63//68 71//74 70//73
f 69//75 75//3 68//72
f 70//73 73//1 69//75
f 71//74 72//6 73//1
f 69//75 73//1 75//3
f 68//72 74//5 67//71
f 68//72 75//3 74//5
f 67//71 74//5 72//6
