# Blender v2.79 (sub 0) OBJ File: 'world_countrycodes_outlines2.blend'
# www.blender.org
mtllib NP_outline.mtl
o NP.001_CUCurve.1655
v 1.456381 0.001997 0.495342
v 1.457112 -0.001957 0.496520
v 1.459265 -0.000754 0.494515
v 1.458240 0.001465 0.496431
v 1.455296 -0.000796 0.494397
v 1.457080 0.000051 0.498092
v 1.448285 0.001482 0.498591
v 1.448208 -0.001899 0.496247
v 1.447564 -0.000811 0.499007
v 1.447972 0.001911 0.496180
v 1.448291 0.000005 0.495003
v 1.438079 0.001288 0.495351
v 1.441133 0.000860 0.492680
v 1.440871 -0.001374 0.493053
v 1.439136 -0.001872 0.495083
v 1.436624 -0.001388 0.492119
v 1.436873 0.001931 0.489761
v 1.436314 0.000922 0.492542
v 1.436997 0.000019 0.488575
v 1.436459 -0.001918 0.489635
v 1.431112 0.001860 0.492522
v 1.431795 0.000722 0.489587
v 1.431854 -0.002012 0.491266
v 1.430852 -0.000683 0.493739
v 1.426706 -0.000832 0.491078
v 1.423242 0.001899 0.486692
v 1.422738 -0.001993 0.487278
v 1.426641 -0.000951 0.487063
v 1.421688 -0.000784 0.489240
v 1.423085 -0.000693 0.484943
v 1.420942 0.001201 0.488189
v 1.416533 0.000746 0.486201
v 1.416687 0.000809 0.481690
v 1.415426 -0.001970 0.482195
v 1.413375 -0.001452 0.483597
v 1.412436 0.000069 0.483357
v 1.413621 0.001943 0.482563
v 1.417444 -0.001323 0.476806
v 1.413795 0.000799 0.476372
v 1.415077 -0.001892 0.476083
v 1.417728 0.000796 0.477154
v 1.416900 0.001908 0.474157
v 1.416928 -0.000734 0.472857
v 1.419894 0.000865 0.472332
v 1.422940 0.002025 0.472689
v 1.423144 0.000750 0.474972
v 1.422457 -0.001965 0.473396
v 1.421144 -0.000851 0.471211
v 1.424637 -0.001947 0.472373
v 1.424908 0.000883 0.471258
v 1.440289 0.000812 0.487015
v 1.440633 -0.001403 0.486624
v 1.442205 0.000671 0.483543
v 1.443642 0.002004 0.486371
v 1.443584 -0.001977 0.485689
v 1.451308 -0.001395 0.486424
v 1.452025 0.000755 0.486031
v 1.454986 0.001386 0.489917
v 1.449025 -0.000767 0.489266
v 1.454390 -0.000047 0.490570
v 1.455733 -0.001898 0.489694
v 1.460645 -0.000815 0.486703
v 1.457799 0.002013 0.488719
v 1.458706 -0.000823 0.490084
vn -0.7194 -0.0391 0.6935
vn -0.1098 0.9939 -0.0058
vn -0.3498 0.8628 0.3650
vn 0.8680 -0.4833 0.1137
vn 0.3162 -0.8797 0.3552
vn -0.0650 -0.9941 0.0867
vn 0.4188 0.8844 -0.2060
vn 0.9418 -0.3161 0.1140
vn 0.6550 0.6175 0.4354
vn -0.7288 -0.5403 -0.4205
vn 0.4363 0.0171 0.8996
vn -0.0580 0.6831 0.7280
vn 0.0285 -0.9732 -0.2280
vn -0.1250 -0.4253 0.8964
vn 0.0439 0.9432 -0.3293
vn 0.1420 0.0129 -0.9897
vn -0.5303 0.5547 0.6412
vn 0.4113 0.6123 -0.6752
vn 0.3481 -0.7478 -0.5654
vn -0.3218 -0.7701 0.5508
vn -0.3563 -0.7896 0.4995
vn 0.1746 0.8775 -0.4465
vn 0.0956 -0.8411 -0.5323
vn 0.2696 -0.0144 -0.9629
vn -0.1162 0.8660 0.4863
vn -0.3553 0.5824 0.7311
vn 0.1118 0.3974 -0.9108
vn -0.0062 -0.9949 -0.1007
vn -0.2191 -0.2773 0.9355
vn -0.3457 -0.4639 0.8156
vn 0.1834 0.9218 -0.3416
vn 0.0134 -0.9998 0.0141
vn -0.4159 -0.3652 0.8328
vn -0.3911 0.6908 0.6081
vn 0.5034 -0.2569 -0.8249
vn 0.3903 -0.3659 -0.8448
vn -0.6074 -0.6979 0.3794
vn -0.4046 0.2684 0.8742
vn 0.7420 0.5536 -0.3780
vn 0.1609 -0.9841 -0.0751
vn -0.4415 0.8863 0.1396
vn -0.9385 0.0402 0.3430
vn -0.4801 -0.8334 -0.2735
vn -0.2867 0.8704 -0.4002
vn 0.4782 -0.7574 0.4446
vn 0.7044 0.5065 0.4972
vn -0.4345 -0.3203 -0.8418
vn -0.8691 0.2989 -0.3940
vn -0.2808 0.2803 -0.9179
vn -0.0446 0.9673 -0.2498
vn -0.1667 0.3818 0.9091
vn -0.5295 -0.4129 -0.7411
vn -0.1534 -0.9804 0.1238
vn 0.3066 0.3296 -0.8929
vn 0.2141 -0.8034 -0.5555
vn -0.3199 -0.6750 0.6648
vn -0.4140 0.3902 0.8224
vn -0.0233 0.9939 0.1073
vn 0.4733 0.2517 -0.8441
vn 0.0872 -0.9714 -0.2208
vn 0.1399 -0.7061 -0.6941
vn 0.1413 0.3818 -0.9133
vn -0.2239 -0.3454 0.9113
vn 0.8737 -0.1837 -0.4505
usemtl SVGMat.3781
s 1
f 60//1 1//2 58//3
f 64//4 2//5 61//6
f 63//7 3//8 64//4
f 1//2 4//9 63//7
f 61//6 5//10 60//1
f 2//5 5//10 61//6
f 4//9 6//11 3//8
f 1//2 7//12 4//9
f 2//5 8//13 5//10
f 6//11 9//14 2//5
f 5//10 10//15 1//2
f 7//12 9//14 6//11
f 8//13 11//16 5//10
f 9//14 8//13 2//5
f 7//12 12//17 9//14
f 10//15 12//17 7//12
f 11//16 13//18 10//15
f 13//18 12//17 10//15
f 14//19 13//18 11//16
f 12//17 16//20 15//21
f 13//18 17//22 12//17
f 16//20 20//23 15//21
f 14//19 19//24 13//18
f 17//22 21//25 18//26
f 19//24 22//27 17//22
f 20//23 22//27 19//24
f 16//20 23//28 20//23
f 21//25 24//29 18//26
f 21//25 25//30 24//29
f 22//27 26//31 21//25
f 25//30 27//32 23//28
f 21//25 29//33 25//30
f 26//31 31//34 21//25
f 27//32 30//35 28//36
f 31//34 35//37 29//33
f 26//31 32//38 31//34
f 30//35 33//39 26//31
f 27//32 34//40 30//35
f 33//39 37//41 26//31
f 35//37 34//40 27//32
f 36//42 40//43 35//37
f 33//39 42//44 37//41
f 38//45 41//46 33//39
f 42//44 43//47 39//48
f 42//44 44//49 43//47
f 41//46 45//50 42//44
f 38//45 46//51 41//46
f 44//49 48//52 47//53
f 45//50 50//54 44//49
f 48//52 49//55 47//53
f 49//55 52//56 47//53
f 51//57 54//58 45//50
f 52//56 51//57 46//51
f 53//59 55//60 49//55
f 54//58 53//59 50//54
f 53//59 56//61 55//60
f 54//58 57//62 53//59
f 52//56 59//63 51//57
f 55//60 59//63 52//56
f 55//60 61//6 59//63
f 58//3 63//7 54//58
f 56//61 61//6 55//60
f 57//62 62//64 56//61
f 63//7 64//4 62//64
f 58//3 1//2 63//7
f 63//7 4//9 3//8
f 60//1 5//10 1//2
f 64//4 3//8 2//5
f 3//8 6//11 2//5
f 4//9 7//12 6//11
f 1//2 10//15 7//12
f 5//10 11//16 10//15
f 9//14 12//17 15//21
f 8//13 14//19 11//16
f 9//14 15//21 8//13
f 8//13 15//21 14//19
f 12//17 17//22 18//26
f 15//21 20//23 14//19
f 12//17 18//26 16//20
f 13//18 19//24 17//22
f 14//19 20//23 19//24
f 17//22 22//27 21//25
f 20//23 23//28 22//27
f 18//26 24//29 16//20
f 16//20 24//29 23//28
f 23//28 28//36 22//27
f 24//29 25//30 23//28
f 23//28 27//32 28//36
f 22//27 28//36 26//31
f 21//25 31//34 29//33
f 25//30 29//33 27//32
f 28//36 30//35 26//31
f 31//34 32//38 35//37
f 30//35 34//40 33//39
f 29//33 35//37 27//32
f 26//31 37//41 32//38
f 32//38 36//42 35//37
f 32//38 37//41 36//42
f 37//41 39//48 36//42
f 34//40 38//45 33//39
f 35//37 40//43 34//40
f 36//42 39//48 40//43
f 37//41 42//44 39//48
f 34//40 40//43 38//45
f 33//39 41//46 42//44
f 39//48 43//47 40//43
f 43//47 44//49 47//53
f 43//47 47//53 40//43
f 42//44 45//50 44//49
f 40//43 47//53 38//45
f 41//46 46//51 45//50
f 38//45 47//53 46//51
f 44//49 50//54 48//52
f 48//52 50//54 49//55
f 46//51 51//57 45//50
f 47//53 52//56 46//51
f 50//54 53//59 49//55
f 45//50 54//58 50//54
f 49//55 55//60 52//56
f 53//59 57//62 56//61
f 51//57 58//3 54//58
f 51//57 59//63 58//3
f 59//63 60//1 58//3
f 59//63 61//6 60//1
f 54//58 63//7 57//62
f 57//62 63//7 62//64
f 56//61 62//64 61//6
f 62//64 64//4 61//6
