# Blender v2.79 (sub 0) OBJ File: 'world_countrycodes_export2.blend'
# www.blender.org
mtllib NZ.mtl
o NZ.002_CUCurve.1735
v 1.905679 0.000000 0.944858
v 1.907239 0.000000 0.944932
v 1.908585 0.000000 0.944143
v 1.908658 0.000000 0.943161
v 1.907601 0.000000 0.941855
v 1.905919 0.000000 0.942444
v 1.905298 0.000000 0.943858
v 1.941792 0.000000 0.901151
v 1.940485 0.000000 0.901259
v 1.937845 0.000000 0.903034
v 1.936672 0.000000 0.902812
v 1.934101 0.000000 0.900304
v 1.932456 0.000000 0.900470
v 1.931043 0.000000 0.902025
v 1.930603 0.000000 0.904346
v 1.928027 0.000000 0.907048
v 1.926543 0.000000 0.910437
v 1.924160 0.000000 0.914471
v 1.919818 0.000000 0.917736
v 1.911376 0.000000 0.921980
v 1.909525 0.000000 0.923410
v 1.907556 0.000000 0.925669
v 1.902962 0.000000 0.929014
v 1.902129 0.000000 0.930148
v 1.901792 0.000000 0.931494
v 1.900015 0.000000 0.934228
v 1.900182 0.000000 0.936386
v 1.901867 0.000000 0.937909
v 1.904770 0.000000 0.938347
v 1.906432 0.000000 0.939626
v 1.909129 0.000000 0.940073
v 1.910299 0.000000 0.941284
v 1.914158 0.000000 0.941381
v 1.918608 0.000000 0.939576
v 1.921453 0.000000 0.936960
v 1.922771 0.000000 0.934846
v 1.923341 0.000000 0.932210
v 1.924984 0.000000 0.930779
v 1.927033 0.000000 0.924915
v 1.929126 0.000000 0.922644
v 1.931732 0.000000 0.921854
v 1.935627 0.000000 0.921673
v 1.935776 0.000000 0.921124
v 1.934863 0.000000 0.919023
v 1.935340 0.000000 0.917586
v 1.938304 0.000000 0.915213
v 1.938987 0.000000 0.912263
v 1.943009 0.000000 0.907930
v 1.943285 0.000000 0.906670
v 1.942734 0.000000 0.905273
v 1.943184 0.000000 0.902433
v 1.962516 0.000000 0.881818
v 1.961426 0.000000 0.882049
v 1.958389 0.000000 0.880919
v 1.956500 0.000000 0.880754
v 1.955183 0.000000 0.880148
v 1.954382 0.000000 0.879249
v 1.953953 0.000000 0.878129
v 1.953472 0.000000 0.874309
v 1.952266 0.000000 0.872974
v 1.951103 0.000000 0.872880
v 1.950544 0.000000 0.873322
v 1.951510 0.000000 0.875410
v 1.951016 0.000000 0.876346
v 1.949583 0.000000 0.874960
v 1.948390 0.000000 0.874679
v 1.947381 0.000000 0.873342
v 1.946815 0.000000 0.869743
v 1.945079 0.000000 0.867468
v 1.944669 0.000000 0.864648
v 1.942760 0.000000 0.862431
v 1.939473 0.000000 0.860877
v 1.937379 0.000000 0.860699
v 1.936736 0.000000 0.861386
v 1.937619 0.000000 0.863911
v 1.939792 0.000000 0.867035
v 1.943252 0.000000 0.869906
v 1.943981 0.000000 0.872336
v 1.945425 0.000000 0.874297
v 1.947285 0.000000 0.875562
v 1.947241 0.000000 0.877226
v 1.946123 0.000000 0.881745
v 1.945878 0.000000 0.884810
v 1.945084 0.000000 0.886286
v 1.942267 0.000000 0.887912
v 1.941051 0.000000 0.889277
v 1.941085 0.000000 0.890257
v 1.942515 0.000000 0.891813
v 1.949045 0.000000 0.895717
v 1.949751 0.000000 0.897645
v 1.949026 0.000000 0.900167
v 1.947167 0.000000 0.904041
v 1.947274 0.000000 0.904841
v 1.948230 0.000000 0.905473
v 1.950129 0.000000 0.905826
v 1.952958 0.000000 0.905366
v 1.954958 0.000000 0.903226
v 1.957766 0.000000 0.897769
v 1.959285 0.000000 0.896067
v 1.959854 0.000000 0.894691
v 1.960055 0.000000 0.891595
v 1.960642 0.000000 0.890497
v 1.962040 0.000000 0.889607
v 1.964752 0.000000 0.889450
v 1.965751 0.000000 0.886354
v 1.967149 0.000000 0.886021
v 1.967692 0.000000 0.885390
v 1.968105 0.000000 0.882373
v 1.968639 0.000000 0.880349
v 1.968057 0.000000 0.879667
v 1.966287 0.000000 0.879497
v 1.963689 0.000000 0.880510
v 1.907556 0.050000 0.925669
v 1.902962 0.050000 0.929014
v 1.960055 0.050000 0.891595
v 1.960642 0.050000 0.890497
v 1.948230 0.050000 0.905473
v 1.950129 0.050000 0.905826
v 1.952266 0.050000 0.872974
v 1.950544 0.050000 0.873322
v 1.904770 0.050000 0.938347
v 1.918608 0.050000 0.939576
v 1.942734 0.050000 0.905273
v 1.943184 0.050000 0.902433
v 1.951016 0.050000 0.876346
v 1.949583 0.050000 0.874960
v 1.946815 0.050000 0.869743
v 1.943981 0.050000 0.872336
v 1.945084 0.050000 0.886286
v 1.942267 0.050000 0.887912
v 1.967149 0.050000 0.886021
v 1.967692 0.050000 0.885390
v 1.900015 0.050000 0.934228
v 1.900182 0.050000 0.936386
v 1.924160 0.050000 0.914471
v 1.938987 0.050000 0.912263
v 1.937845 0.050000 0.903034
v 1.954958 0.050000 0.903226
v 1.957766 0.050000 0.897769
v 1.948390 0.050000 0.874679
v 1.945425 0.050000 0.874297
v 1.947167 0.050000 0.904041
v 1.952958 0.050000 0.905366
v 1.947381 0.050000 0.873342
v 1.911376 0.050000 0.921980
v 1.934863 0.050000 0.919023
v 1.965751 0.050000 0.886354
v 1.908585 0.050000 0.944143
v 1.905298 0.050000 0.943858
v 1.968057 0.050000 0.879667
v 1.966287 0.050000 0.879497
v 1.961426 0.050000 0.882049
v 1.958389 0.050000 0.880919
v 1.909129 0.050000 0.940073
v 1.936672 0.050000 0.902812
v 1.931043 0.050000 0.902025
v 1.947285 0.050000 0.875562
v 1.947241 0.050000 0.877226
v 1.901867 0.050000 0.937909
v 1.921453 0.050000 0.936960
v 1.949026 0.050000 0.900167
v 1.919818 0.050000 0.917736
v 1.938304 0.050000 0.915213
v 1.935340 0.050000 0.917586
v 1.930603 0.050000 0.904346
v 1.928027 0.050000 0.907048
v 1.905679 0.050000 0.944858
v 1.907239 0.050000 0.944932
v 1.927033 0.050000 0.924915
v 1.929126 0.050000 0.922644
v 1.909525 0.050000 0.923410
v 1.945079 0.050000 0.867468
v 1.944669 0.050000 0.864648
v 1.942515 0.050000 0.891813
v 1.941085 0.050000 0.890257
v 1.962040 0.050000 0.889607
v 1.956500 0.050000 0.880754
v 1.946123 0.050000 0.881745
v 1.953472 0.050000 0.874309
v 1.932456 0.050000 0.900470
v 1.953953 0.050000 0.878129
v 1.945878 0.050000 0.884810
v 1.968105 0.050000 0.882373
v 1.949751 0.050000 0.897645
v 1.943009 0.050000 0.907930
v 1.943285 0.050000 0.906670
v 1.934101 0.050000 0.900304
v 1.926543 0.050000 0.910437
v 1.941792 0.050000 0.901151
v 1.964752 0.050000 0.889450
v 1.959854 0.050000 0.894691
v 1.939792 0.050000 0.867035
v 1.955183 0.050000 0.880148
v 1.954382 0.050000 0.879249
v 1.937379 0.050000 0.860699
v 1.936736 0.050000 0.861386
v 1.959285 0.050000 0.896067
v 1.906432 0.050000 0.939626
v 1.940485 0.050000 0.901259
v 1.905919 0.050000 0.942444
v 1.931732 0.050000 0.921854
v 1.947274 0.050000 0.904841
v 1.908658 0.050000 0.943161
v 1.924984 0.050000 0.930779
v 1.939473 0.050000 0.860877
v 1.951510 0.050000 0.875410
v 1.943252 0.050000 0.869906
v 1.937619 0.050000 0.863911
v 1.907601 0.050000 0.941855
v 1.902129 0.050000 0.930148
v 1.962516 0.050000 0.881818
v 1.968639 0.050000 0.880349
v 1.922771 0.050000 0.934846
v 1.901792 0.050000 0.931494
v 1.942760 0.050000 0.862431
v 1.951103 0.050000 0.872880
v 1.949045 0.050000 0.895717
v 1.935627 0.050000 0.921673
v 1.935776 0.050000 0.921124
v 1.923341 0.050000 0.932210
v 1.941051 0.050000 0.889277
v 1.963689 0.050000 0.880510
v 1.914158 0.050000 0.941381
v 1.910299 0.050000 0.941284
vn 0.0000 -1.0000 0.0000
vn 0.0000 1.0000 0.0000
vn 0.2296 0.0000 -0.9733
vn 0.1606 0.0000 0.9870
vn 0.7466 0.0000 -0.6652
vn 0.7772 0.0000 -0.6293
vn -0.7298 0.0000 -0.6837
vn -0.7366 0.0000 0.6763
vn -0.7466 0.0000 -0.6653
vn 0.0955 0.0000 -0.9954
vn -0.6197 0.0000 -0.7849
vn 0.6566 0.0000 0.7542
vn 0.3486 0.0000 -0.9373
vn 0.7459 0.0000 0.6661
vn -0.9968 0.0000 -0.0799
vn -0.6102 0.0000 0.7923
vn 0.6250 0.0000 0.7807
vn 0.6982 0.0000 -0.7159
vn -0.9997 0.0000 -0.0264
vn -0.6705 0.0000 0.7419
vn -0.8806 0.0000 -0.4739
vn 0.9440 0.0000 0.3299
vn 0.6768 0.0000 0.7361
vn 0.4274 0.0000 -0.9040
vn -0.9156 0.0000 -0.4021
vn 0.9517 0.0000 0.3070
vn -0.5131 0.0000 0.8583
vn 0.3759 0.0000 0.9267
vn 0.0871 0.0000 -0.9962
vn 0.9492 0.0000 0.3148
vn -0.5517 0.0000 0.8340
vn 0.7577 0.0000 -0.6526
vn -0.7237 0.0000 -0.6901
vn 0.9651 0.0000 0.2620
vn -0.0473 0.0000 0.9989
vn 0.9775 0.0000 0.2110
vn -0.0827 0.0000 -0.9966
vn 0.7354 0.0000 0.6776
vn 0.9922 0.0000 -0.1250
vn 0.1864 0.0000 -0.9825
vn 0.4179 0.0000 -0.9085
vn -0.9391 0.0000 0.3435
vn -0.6009 0.0000 -0.7993
vn 0.0847 0.0000 -0.9964
vn 0.9302 0.0000 -0.3670
vn 0.9896 0.0000 -0.1440
vn -0.8844 0.0000 -0.4667
vn -0.9075 0.0000 0.4200
vn 0.7950 0.0000 -0.6066
vn 0.5369 0.0000 0.8436
vn -0.1491 0.0000 0.9888
vn -0.9707 0.0000 -0.2401
vn 0.9973 0.0000 0.0738
vn -0.0252 0.0000 0.9997
vn 0.7609 0.0000 -0.6489
vn 0.9879 0.0000 -0.1554
vn -0.5624 0.0000 0.8269
vn -0.9345 0.0000 0.3560
vn -0.7539 0.0000 -0.6570
vn -0.7401 0.0000 -0.6725
vn -0.6386 0.0000 0.7695
vn -0.8061 0.0000 -0.5917
vn 0.9171 0.0000 -0.3987
vn -0.9825 0.0000 -0.1863
vn 0.2899 0.0000 0.9570
vn -0.6114 0.0000 -0.7914
vn -0.9701 0.0000 -0.2426
vn -0.3303 0.0000 -0.9439
vn 0.2318 0.0000 0.9728
vn 0.9769 0.0000 0.2139
vn -0.8611 0.0000 -0.5085
vn -0.9611 0.0000 -0.2762
vn 0.0466 0.0000 0.9989
vn -0.4492 0.0000 -0.8934
vn -0.7445 0.0000 -0.6676
vn 0.0805 0.0000 -0.9968
vn 0.7329 0.0000 0.6804
vn -0.8210 0.0000 0.5710
vn -0.5885 0.0000 -0.8085
vn -0.7191 0.0000 0.6949
vn 0.8821 0.0000 0.4711
vn -0.9578 0.0000 0.2874
vn -0.1827 0.0000 0.9832
vn -0.1002 0.0000 -0.9950
vn -0.8384 0.0000 -0.5451
vn -0.9994 0.0000 0.0348
vn 0.9243 0.0000 0.3817
vn 0.8485 0.0000 0.5292
vn -0.9911 0.0000 0.1334
vn 0.9877 0.0000 0.1566
vn 0.7305 0.0000 0.6829
vn 0.5054 0.0000 0.8629
vn -0.8052 0.0000 0.5930
vn -0.2068 0.0000 -0.9784
vn 0.6951 0.0000 -0.7190
vn 0.9669 0.0000 0.2551
vn -0.1632 0.0000 0.9866
vn -0.9160 0.0000 -0.4012
vn 0.9339 0.0000 -0.3575
vn 0.6773 0.0000 -0.7357
vn -0.5001 0.0000 -0.8660
vn -0.9439 0.0000 0.3302
vn 0.9742 0.0000 0.2256
vn 0.0577 0.0000 0.9983
vn 0.7583 0.0000 0.6519
vn -0.9970 0.0000 0.0769
vn 0.7419 0.0000 -0.6705
vn -0.3631 0.0000 -0.9318
vn 0.7982 0.0000 -0.6024
vn -0.9016 0.0000 -0.4326
vn 0.9979 0.0000 0.0650
vn 0.8892 0.0000 0.4575
vn -0.5579 0.0000 -0.8299
vn 0.9908 0.0000 0.1356
usemtl SVGMat.3781
s off
f 74//1 73//1 72//1
f 74//1 72//1 71//1
f 75//1 74//1 71//1
f 75//1 71//1 70//1
f 76//1 75//1 70//1
f 76//1 70//1 69//1
f 77//1 76//1 69//1
f 77//1 69//1 68//1
f 78//1 77//1 68//1
f 78//1 68//1 67//1
f 62//1 61//1 60//1
f 79//1 78//1 67//1
f 62//1 60//1 59//1
f 79//1 67//1 66//1
f 63//1 62//1 59//1
f 79//1 66//1 65//1
f 80//1 79//1 65//1
f 80//1 65//1 64//1
f 64//1 63//1 59//1
f 64//1 59//1 58//1
f 80//1 64//1 58//1
f 81//1 80//1 58//1
f 82//1 81//1 58//1
f 82//1 58//1 57//1
f 82//1 57//1 56//1
f 111//1 110//1 109//1
f 112//1 111//1 109//1
f 82//1 56//1 55//1
f 82//1 55//1 54//1
f 52//1 112//1 109//1
f 52//1 109//1 108//1
f 82//1 54//1 53//1
f 53//1 52//1 108//1
f 82//1 53//1 108//1
f 83//1 82//1 108//1
f 83//1 108//1 107//1
f 84//1 83//1 107//1
f 84//1 107//1 106//1
f 84//1 106//1 105//1
f 85//1 84//1 105//1
f 85//1 105//1 104//1
f 86//1 85//1 104//1
f 86//1 104//1 103//1
f 87//1 86//1 103//1
f 87//1 103//1 102//1
f 88//1 87//1 102//1
f 88//1 102//1 101//1
f 88//1 101//1 100//1
f 89//1 88//1 100//1
f 89//1 100//1 99//1
f 90//1 89//1 99//1
f 90//1 99//1 98//1
f 91//1 90//1 98//1
f 91//1 98//1 97//1
f 14//1 13//1 12//1
f 14//1 12//1 11//1
f 92//1 91//1 97//1
f 9//1 8//1 51//1
f 10//1 9//1 51//1
f 14//1 11//1 10//1
f 15//1 14//1 10//1
f 15//1 10//1 51//1
f 92//1 97//1 96//1
f 15//1 51//1 50//1
f 93//1 92//1 96//1
f 94//1 93//1 96//1
f 16//1 15//1 50//1
f 95//1 94//1 96//1
f 16//1 50//1 49//1
f 16//1 49//1 48//1
f 17//1 16//1 48//1
f 17//1 48//1 47//1
f 18//1 17//1 47//1
f 18//1 47//1 46//1
f 19//1 18//1 46//1
f 19//1 46//1 45//1
f 19//1 45//1 44//1
f 20//1 19//1 44//1
f 20//1 44//1 43//1
f 20//1 43//1 42//1
f 41//1 20//1 42//1
f 20//1 41//1 40//1
f 21//1 20//1 40//1
f 21//1 40//1 39//1
f 22//1 21//1 39//1
f 23//1 22//1 39//1
f 23//1 39//1 38//1
f 24//1 23//1 38//1
f 25//1 24//1 38//1
f 25//1 38//1 37//1
f 26//1 25//1 37//1
f 26//1 37//1 36//1
f 27//1 26//1 36//1
f 27//1 36//1 35//1
f 28//1 27//1 35//1
f 28//1 35//1 34//1
f 29//1 28//1 34//1
f 30//1 29//1 34//1
f 31//1 30//1 34//1
f 32//1 31//1 34//1
f 32//1 34//1 33//1
f 6//1 5//1 4//1
f 7//1 6//1 4//1
f 7//1 4//1 3//1
f 1//1 7//1 3//1
f 1//1 3//1 2//1
f 196//2 205//2 195//2
f 196//2 215//2 205//2
f 208//2 215//2 196//2
f 208//2 173//2 215//2
f 192//2 173//2 208//2
f 192//2 172//2 173//2
f 207//2 172//2 192//2
f 207//2 127//2 172//2
f 128//2 127//2 207//2
f 128//2 144//2 127//2
f 120//2 119//2 216//2
f 141//2 144//2 128//2
f 120//2 179//2 119//2
f 141//2 140//2 144//2
f 206//2 179//2 120//2
f 141//2 126//2 140//2
f 157//2 126//2 141//2
f 157//2 125//2 126//2
f 125//2 179//2 206//2
f 125//2 181//2 179//2
f 157//2 181//2 125//2
f 158//2 181//2 157//2
f 178//2 181//2 158//2
f 178//2 194//2 181//2
f 178//2 193//2 194//2
f 151//2 212//2 150//2
f 222//2 212//2 151//2
f 178//2 177//2 193//2
f 178//2 153//2 177//2
f 211//2 212//2 222//2
f 211//2 183//2 212//2
f 178//2 152//2 153//2
f 152//2 183//2 211//2
f 178//2 183//2 152//2
f 182//2 183//2 178//2
f 182//2 132//2 183//2
f 129//2 132//2 182//2
f 129//2 131//2 132//2
f 129//2 147//2 131//2
f 130//2 147//2 129//2
f 130//2 190//2 147//2
f 221//2 190//2 130//2
f 221//2 176//2 190//2
f 175//2 176//2 221//2
f 175//2 116//2 176//2
f 174//2 116//2 175//2
f 174//2 115//2 116//2
f 174//2 191//2 115//2
f 217//2 191//2 174//2
f 217//2 197//2 191//2
f 184//2 197//2 217//2
f 184//2 139//2 197//2
f 161//2 139//2 184//2
f 161//2 138//2 139//2
f 156//2 187//2 180//2
f 156//2 155//2 187//2
f 142//2 138//2 161//2
f 199//2 124//2 189//2
f 137//2 124//2 199//2
f 156//2 137//2 155//2
f 165//2 137//2 156//2
f 165//2 124//2 137//2
f 142//2 143//2 138//2
f 165//2 123//2 124//2
f 202//2 143//2 142//2
f 117//2 143//2 202//2
f 166//2 123//2 165//2
f 118//2 143//2 117//2
f 166//2 186//2 123//2
f 166//2 185//2 186//2
f 188//2 185//2 166//2
f 188//2 136//2 185//2
f 135//2 136//2 188//2
f 135//2 163//2 136//2
f 162//2 163//2 135//2
f 162//2 164//2 163//2
f 162//2 146//2 164//2
f 145//2 146//2 162//2
f 145//2 219//2 146//2
f 145//2 218//2 219//2
f 201//2 218//2 145//2
f 145//2 170//2 201//2
f 171//2 170//2 145//2
f 171//2 169//2 170//2
f 113//2 169//2 171//2
f 114//2 169//2 113//2
f 114//2 204//2 169//2
f 210//2 204//2 114//2
f 214//2 204//2 210//2
f 214//2 220//2 204//2
f 133//2 220//2 214//2
f 133//2 213//2 220//2
f 134//2 213//2 133//2
f 134//2 160//2 213//2
f 159//2 160//2 134//2
f 159//2 122//2 160//2
f 121//2 122//2 159//2
f 198//2 122//2 121//2
f 154//2 122//2 198//2
f 224//2 122//2 154//2
f 224//2 223//2 122//2
f 200//2 203//2 209//2
f 149//2 203//2 200//2
f 149//2 148//2 203//2
f 167//2 148//2 149//2
f 167//2 168//2 148//2
f 65//3 66//3 140//3 126//3
f 95//4 96//4 143//4 118//4
f 56//5 57//5 194//5 193//5
f 4//6 5//6 209//6 203//6
f 73//7 74//7 196//7 195//7
f 87//8 88//8 174//8 175//8
f 85//9 86//9 221//9 130//9
f 110//10 111//10 151//10 150//10
f 61//11 62//11 120//11 216//11
f 37//12 38//12 204//12 220//12
f 53//13 54//13 153//13 152//13
f 98//14 99//14 197//14 139//14
f 82//15 83//15 182//15 178//15
f 29//16 30//16 198//16 121//16
f 45//17 46//17 163//17 164//17
f 11//18 12//18 187//18 155//18
f 80//19 81//19 158//19 157//19
f 27//20 28//20 159//20 134//20
f 83//21 84//21 129//21 182//21
f 38//22 39//22 169//22 204//22
f 34//23 35//23 160//23 122//23
f 71//24 72//24 205//24 215//24
f 6//25 7//25 149//25 200//25
f 104//26 105//26 147//26 190//26
f 88//27 89//27 217//27 174//27
f 33//28 34//28 122//28 223//28
f 54//29 55//29 177//29 153//29
f 44//30 45//30 164//30 146//30
f 93//31 94//31 117//31 202//31
f 70//32 71//32 215//32 173//32
f 15//33 16//33 166//33 165//33
f 42//34 43//34 219//34 218//34
f 1//35 2//35 168//35 167//35
f 36//36 37//36 220//36 213//36
f 8//37 9//37 199//37 189//37
f 39//38 40//38 170//38 169//38
f 58//39 59//39 179//39 181//39
f 10//40 11//40 155//40 137//40
f 55//41 56//41 193//41 177//41
f 89//42 90//42 184//42 217//42
f 18//43 19//43 162//43 135//43
f 72//44 73//44 195//44 205//44
f 49//45 50//45 123//45 186//45
f 69//46 70//46 173//46 172//46
f 63//47 64//47 125//47 206//47
f 62//48 63//48 206//48 120//48
f 68//49 69//49 172//49 127//49
f 102//50 103//50 176//50 116//50
f 28//51 29//51 121//51 159//51
f 81//52 82//52 178//52 158//52
f 3//53 4//53 203//53 148//53
f 32//54 33//54 223//54 224//54
f 109//55 110//55 150//55 212//55
f 67//56 68//56 127//56 144//56
f 79//57 80//57 157//57 141//57
f 7//58 1//58 167//58 149//58
f 21//59 22//59 113//59 171//59
f 13//60 14//60 156//60 180//60
f 76//61 77//61 207//61 192//61
f 23//62 24//62 210//62 114//62
f 43//63 44//63 146//63 219//63
f 14//64 15//64 165//64 156//64
f 40//65 41//65 201//65 170//65
f 20//66 21//66 171//66 145//66
f 24//67 25//67 214//67 210//67
f 5//68 6//68 200//68 209//68
f 105//69 106//69 131//69 147//69
f 48//70 49//70 186//70 185//70
f 17//71 18//71 135//71 188//71
f 90//72 91//72 161//72 184//72
f 41//73 42//73 218//73 201//73
f 19//74 20//74 145//74 162//74
f 112//75 52//75 211//75 222//75
f 60//76 61//76 216//76 119//76
f 47//77 48//77 185//77 136//77
f 75//78 76//78 192//78 208//78
f 22//79 23//79 114//79 113//79
f 31//80 32//80 224//80 154//80
f 101//81 102//81 116//81 115//81
f 77//82 78//82 128//82 207//82
f 94//83 95//83 118//83 117//83
f 12//84 13//84 180//84 187//84
f 25//85 26//85 133//85 214//85
f 86//86 87//86 175//86 221//86
f 99//87 100//87 191//87 197//87
f 35//88 36//88 213//88 160//88
f 92//89 93//89 202//89 142//89
f 50//90 51//90 124//90 123//90
f 96//91 97//91 138//91 143//91
f 2//92 3//92 148//92 168//92
f 78//93 79//93 141//93 128//93
f 52//94 53//94 152//94 211//94
f 64//95 65//95 126//95 125//95
f 108//96 109//96 212//96 183//96
f 30//97 31//97 154//97 198//97
f 16//98 17//98 188//98 166//98
f 57//99 58//99 181//99 194//99
f 51//100 8//100 189//100 124//100
f 84//101 85//101 130//101 129//101
f 74//102 75//102 208//102 196//102
f 46//103 47//103 136//103 163//103
f 103//104 104//104 190//104 176//104
f 106//105 107//105 132//105 131//105
f 26//106 27//106 134//106 133//106
f 59//107 60//107 119//107 179//107
f 111//108 112//108 222//108 151//108
f 66//109 67//109 144//109 140//109
f 91//110 92//110 142//110 161//110
f 100//111 101//111 115//111 191//111
f 97//112 98//112 139//112 138//112
f 9//113 10//113 137//113 199//113
f 107//114 108//114 183//114 132//114
