# Blender v2.79 (sub 0) OBJ File: 'world_countrycodes_export2.blend'
# www.blender.org
mtllib OM.mtl
o OM.002_CUCurve.1798
v 1.274683 0.000000 0.505787
v 1.274683 0.000000 0.510104
v 1.271099 0.000000 0.514619
v 1.269189 0.000000 0.519438
v 1.270510 0.000000 0.519415
v 1.271487 0.000000 0.519903
v 1.272666 0.000000 0.521622
v 1.273208 0.000000 0.523532
v 1.271216 0.000000 0.530485
v 1.269282 0.000000 0.535307
v 1.266618 0.000000 0.536377
v 1.251875 0.000000 0.541197
v 1.258868 0.000000 0.555526
v 1.260683 0.000000 0.554560
v 1.263288 0.000000 0.553699
v 1.267841 0.000000 0.553479
v 1.269696 0.000000 0.553186
v 1.270642 0.000000 0.552421
v 1.270699 0.000000 0.550147
v 1.271809 0.000000 0.548588
v 1.274185 0.000000 0.547824
v 1.277543 0.000000 0.547938
v 1.278361 0.000000 0.547326
v 1.279992 0.000000 0.544140
v 1.280966 0.000000 0.542942
v 1.281975 0.000000 0.542406
v 1.284536 0.000000 0.541888
v 1.285190 0.000000 0.541325
v 1.285103 0.000000 0.539735
v 1.285325 0.000000 0.536652
v 1.286084 0.000000 0.534016
v 1.286799 0.000000 0.533212
v 1.289301 0.000000 0.532266
v 1.291481 0.000000 0.530480
v 1.293751 0.000000 0.526783
v 1.296548 0.000000 0.523093
v 1.297269 0.000000 0.521300
v 1.296854 0.000000 0.520453
v 1.295528 0.000000 0.520027
v 1.293650 0.000000 0.518209
v 1.291052 0.000000 0.513969
v 1.289829 0.000000 0.513542
v 1.285819 0.000000 0.512770
v 1.282164 0.000000 0.511121
v 1.280441 0.000000 0.509162
v 1.279241 0.000000 0.506886
v 1.278681 0.000000 0.504664
v 1.276715 0.000000 0.505787
v 1.258868 0.050000 0.555526
v 1.260683 0.050000 0.554560
v 1.263288 0.050000 0.553699
v 1.266618 0.050000 0.536377
v 1.285325 0.050000 0.536652
v 1.274185 0.050000 0.547824
v 1.277543 0.050000 0.547938
v 1.271216 0.050000 0.530485
v 1.291481 0.050000 0.530480
v 1.285190 0.050000 0.541325
v 1.285103 0.050000 0.539735
v 1.280966 0.050000 0.542942
v 1.281975 0.050000 0.542406
v 1.251875 0.050000 0.541197
v 1.270510 0.050000 0.519415
v 1.271487 0.050000 0.519903
v 1.272666 0.050000 0.521622
v 1.273208 0.050000 0.523532
v 1.296548 0.050000 0.523093
v 1.274683 0.050000 0.505787
v 1.274683 0.050000 0.510104
v 1.271809 0.050000 0.548588
v 1.286084 0.050000 0.534016
v 1.278361 0.050000 0.547326
v 1.279992 0.050000 0.544140
v 1.269189 0.050000 0.519438
v 1.293650 0.050000 0.518209
v 1.271099 0.050000 0.514619
v 1.282164 0.050000 0.511121
v 1.293751 0.050000 0.526783
v 1.295528 0.050000 0.520027
v 1.286799 0.050000 0.533212
v 1.269282 0.050000 0.535307
v 1.279241 0.050000 0.506886
v 1.278681 0.050000 0.504664
v 1.289301 0.050000 0.532266
v 1.270699 0.050000 0.550147
v 1.289829 0.050000 0.513542
v 1.297269 0.050000 0.521300
v 1.296854 0.050000 0.520453
v 1.280441 0.050000 0.509162
v 1.285819 0.050000 0.512770
v 1.291052 0.050000 0.513969
v 1.269696 0.050000 0.553186
v 1.270642 0.050000 0.552421
v 1.284536 0.050000 0.541888
v 1.276715 0.050000 0.505787
v 1.267841 0.050000 0.553479
vn 0.0000 -1.0000 0.0000
vn 0.0000 1.0000 -0.0000
vn -0.9281 0.0000 -0.3724
vn 0.6337 0.0000 0.7736
vn 0.1563 0.0000 0.9877
vn 0.6285 0.0000 0.7778
vn 0.7759 0.0000 0.6309
vn 0.9697 0.0000 -0.2444
vn 0.9974 0.0000 0.0718
vn -1.0000 0.0000 0.0000
vn 0.5990 0.0000 0.8008
vn 0.9997 0.0000 0.0252
vn 0.4696 0.0000 0.8829
vn 0.9609 0.0000 0.2769
vn -0.3729 0.0000 -0.9279
vn 0.3139 0.0000 0.9494
vn 0.8902 0.0000 0.4556
vn 0.1986 0.0000 0.9801
vn 0.6518 0.0000 0.7584
vn -0.0341 0.0000 0.9994
vn 0.8980 0.0000 -0.4399
vn 0.0176 0.0000 0.9998
vn 0.3060 0.0000 -0.9520
vn -0.4961 0.0000 -0.8683
vn 0.3537 0.0000 0.9354
vn 0.3063 0.0000 0.9519
vn 0.3295 0.0000 -0.9441
vn 0.9985 0.0000 -0.0547
vn 0.8146 0.0000 0.5800
vn -0.9613 0.0000 -0.2754
vn -0.8245 0.0000 0.5659
vn 0.4689 0.0000 0.8833
vn 0.0482 0.0000 0.9988
vn -0.3107 0.0000 -0.9505
vn 0.7509 0.0000 -0.6605
vn 0.9277 0.0000 0.3733
vn 0.8847 0.0000 -0.4662
vn 0.6955 0.0000 -0.7185
vn 0.7970 0.0000 0.6040
vn 0.0000 0.0000 -1.0000
vn -0.8987 0.0000 0.4386
vn 0.1891 0.0000 -0.9820
vn 0.4112 0.0000 -0.9115
vn 0.7476 0.0000 0.6642
vn 0.8522 0.0000 0.5232
vn -0.4474 0.0000 0.8943
vn 0.8526 0.0000 -0.5225
vn -0.9297 0.0000 -0.3684
vn -0.9621 0.0000 0.2728
vn -0.7832 0.0000 -0.6218
usemtl SVGMat.3781
s off
f 48//1 47//1 46//1
f 2//1 1//1 48//1
f 2//1 48//1 46//1
f 2//1 46//1 45//1
f 2//1 45//1 44//1
f 3//1 2//1 44//1
f 3//1 44//1 43//1
f 3//1 43//1 42//1
f 3//1 42//1 41//1
f 4//1 3//1 41//1
f 4//1 41//1 40//1
f 4//1 40//1 5//1
f 5//1 40//1 39//1
f 6//1 5//1 39//1
f 6//1 39//1 38//1
f 7//1 6//1 38//1
f 7//1 38//1 37//1
f 7//1 37//1 36//1
f 8//1 7//1 36//1
f 8//1 36//1 35//1
f 9//1 8//1 35//1
f 9//1 35//1 34//1
f 9//1 34//1 33//1
f 10//1 9//1 33//1
f 10//1 33//1 32//1
f 10//1 32//1 31//1
f 10//1 31//1 30//1
f 11//1 10//1 30//1
f 11//1 30//1 29//1
f 12//1 11//1 29//1
f 12//1 29//1 28//1
f 12//1 28//1 27//1
f 12//1 27//1 26//1
f 12//1 26//1 25//1
f 12//1 25//1 24//1
f 12//1 24//1 23//1
f 12//1 23//1 21//1
f 21//1 23//1 22//1
f 12//1 21//1 20//1
f 12//1 20//1 19//1
f 12//1 19//1 18//1
f 12//1 18//1 17//1
f 12//1 17//1 15//1
f 15//1 17//1 16//1
f 12//1 15//1 14//1
f 13//1 12//1 14//1
f 95//2 82//2 83//2
f 69//2 95//2 68//2
f 69//2 82//2 95//2
f 69//2 89//2 82//2
f 69//2 77//2 89//2
f 76//2 77//2 69//2
f 76//2 90//2 77//2
f 76//2 86//2 90//2
f 76//2 91//2 86//2
f 74//2 91//2 76//2
f 74//2 75//2 91//2
f 74//2 63//2 75//2
f 63//2 79//2 75//2
f 64//2 79//2 63//2
f 64//2 88//2 79//2
f 65//2 88//2 64//2
f 65//2 87//2 88//2
f 65//2 67//2 87//2
f 66//2 67//2 65//2
f 66//2 78//2 67//2
f 56//2 78//2 66//2
f 56//2 57//2 78//2
f 56//2 84//2 57//2
f 81//2 84//2 56//2
f 81//2 80//2 84//2
f 81//2 71//2 80//2
f 81//2 53//2 71//2
f 52//2 53//2 81//2
f 52//2 59//2 53//2
f 62//2 59//2 52//2
f 62//2 58//2 59//2
f 62//2 94//2 58//2
f 62//2 61//2 94//2
f 62//2 60//2 61//2
f 62//2 73//2 60//2
f 62//2 72//2 73//2
f 62//2 54//2 72//2
f 54//2 55//2 72//2
f 62//2 70//2 54//2
f 62//2 85//2 70//2
f 62//2 93//2 85//2
f 62//2 92//2 93//2
f 62//2 51//2 92//2
f 51//2 96//2 92//2
f 62//2 50//2 51//2
f 49//2 50//2 62//2
f 9//3 10//3 81//3 56//3
f 33//4 34//4 57//4 84//4
f 16//5 17//5 92//5 96//5
f 17//6 18//6 93//6 92//6
f 24//7 25//7 60//7 73//7
f 46//8 47//8 83//8 82//8
f 29//9 30//9 53//9 59//9
f 1//10 2//10 69//10 68//10
f 22//11 23//11 72//11 55//11
f 18//12 19//12 85//12 93//12
f 13//13 14//13 50//13 49//13
f 30//14 31//14 71//14 53//14
f 10//15 11//15 52//15 81//15
f 14//16 15//16 51//16 50//16
f 23//17 24//17 73//17 72//17
f 26//18 27//18 94//18 61//18
f 27//19 28//19 58//19 94//19
f 21//20 22//20 55//20 54//20
f 37//21 38//21 88//21 87//21
f 4//22 5//22 63//22 74//22
f 38//23 39//23 79//23 88//23
f 47//24 48//24 95//24 83//24
f 32//25 33//25 84//25 80//25
f 20//26 21//26 54//26 70//26
f 41//27 42//27 86//27 91//27
f 28//28 29//28 59//28 58//28
f 19//29 20//29 70//29 85//29
f 8//30 9//30 56//30 66//30
f 6//31 7//31 65//31 64//31
f 25//32 26//32 61//32 60//32
f 15//33 16//33 96//33 51//33
f 11//34 12//34 62//34 52//34
f 44//35 45//35 89//35 77//35
f 36//36 37//36 87//36 67//36
f 45//37 46//37 82//37 89//37
f 39//38 40//38 75//38 79//38
f 35//39 36//39 67//39 78//39
f 48//40 1//40 68//40 95//40
f 12//41 13//41 49//41 62//41
f 42//42 43//42 90//42 86//42
f 43//43 44//43 77//43 90//43
f 31//44 32//44 80//44 71//44
f 34//45 35//45 78//45 57//45
f 5//46 6//46 64//46 63//46
f 40//47 41//47 91//47 75//47
f 3//48 4//48 74//48 76//48
f 7//49 8//49 66//49 65//49
f 2//50 3//50 76//50 69//50
