# Blender v2.79 (sub 0) OBJ File: 'world_countrycodes_outlines2.blend'
# www.blender.org
mtllib OM_outline.mtl
o OM.001_CUCurve.1624
v 1.277276 -0.001147 0.507428
v 1.278362 -0.002022 0.504412
v 1.279607 0.000819 0.501934
v 1.278096 0.001892 0.506381
v 1.282781 0.000773 0.509540
v 1.281067 -0.000572 0.513085
v 1.281516 0.001895 0.512046
v 1.282287 -0.001856 0.510505
v 1.290760 -0.002351 0.513853
v 1.292030 0.001360 0.512477
v 1.289899 0.001018 0.515552
v 1.296880 0.000657 0.518411
v 1.295416 -0.001375 0.521851
v 1.294759 0.000644 0.521987
v 1.298085 -0.001922 0.520986
v 1.299417 0.000082 0.522025
v 1.298078 0.001979 0.521747
v 1.289336 0.000880 0.530009
v 1.291698 -0.001425 0.532474
v 1.290276 -0.001942 0.530711
v 1.292220 0.000813 0.532679
v 1.287171 0.001898 0.534137
v 1.284847 0.001449 0.532447
v 1.287668 -0.000779 0.535101
v 1.285707 -0.001947 0.532912
v 1.286801 0.000786 0.542916
v 1.283201 -0.000848 0.540298
v 1.284188 0.001967 0.541203
v 1.286018 -0.001851 0.542148
v 1.282246 0.000815 0.544344
v 1.280633 0.001909 0.541900
v 1.279612 -0.000821 0.541300
v 1.281458 -0.001936 0.543481
v 1.277470 0.002049 0.547378
v 1.278503 -0.001803 0.548800
v 1.278891 0.000701 0.549700
v 1.276990 -0.000826 0.545965
v 1.270782 0.001924 0.547772
v 1.273148 0.000003 0.550344
v 1.272416 -0.000761 0.546107
v 1.269629 -0.001705 0.548625
v 1.271628 0.001472 0.554264
v 1.268600 0.000148 0.551205
v 1.271219 -0.001830 0.553763
v 1.257940 0.001754 0.556678
v 1.259552 -0.001425 0.553276
v 1.259913 0.000641 0.552574
v 1.258747 -0.001974 0.556293
v 1.262794 -0.000441 0.555839
v 1.250631 0.001907 0.540736
v 1.249168 -0.000757 0.540021
v 1.254892 -0.000705 0.542413
v 1.269375 0.002216 0.535315
v 1.269612 -0.001963 0.536274
v 1.271288 -0.000011 0.536648
v 1.267895 -0.000762 0.533874
v 1.275624 0.000073 0.524091
v 1.272244 0.001886 0.521544
v 1.271976 -0.001901 0.520995
v 1.270894 -0.000740 0.521988
v 1.272541 0.000599 0.517679
v 1.271272 -0.001720 0.517581
v 1.268080 0.000702 0.520997
v 1.268994 0.000001 0.513694
v 1.272769 -0.000811 0.509356
v 1.273227 0.001886 0.511728
v 1.277098 0.000625 0.508553
v 1.273662 0.001671 0.504742
v 1.274114 -0.001619 0.504586
vn -0.6303 0.6284 -0.4558
vn 0.4055 0.2290 -0.8849
vn -0.5587 -0.6885 -0.4624
vn 0.1229 -0.9785 -0.1657
vn 0.1599 -0.9222 -0.3521
vn -0.0034 0.9867 0.1627
vn 0.6021 0.4765 -0.6406
vn -0.5733 -0.3009 0.7620
vn -0.0166 -0.8816 0.4716
vn -0.3404 0.8664 0.3653
vn 0.0987 -0.9788 -0.1797
vn 0.4776 0.4927 -0.7274
vn -0.4515 0.5499 0.7026
vn 0.5734 -0.8014 -0.1702
vn -0.8520 0.5236 0.0021
vn 0.4667 0.8839 -0.0304
vn 0.9986 -0.0070 0.0522
vn 0.4870 -0.6758 0.5533
vn -0.2689 -0.9254 -0.2670
vn -0.6684 0.2782 -0.6897
vn 0.1840 0.9589 0.2158
vn -0.6818 0.4979 -0.5358
vn -0.4480 -0.8036 -0.3917
vn 0.7112 0.3440 0.6131
vn 0.7431 -0.5066 0.4371
vn 0.4385 -0.8062 0.3971
vn 0.1439 -0.9745 0.1719
vn -0.6266 -0.5601 -0.5419
vn -0.2870 0.8472 -0.4471
vn -0.0762 0.9958 -0.0510
vn -0.5947 -0.3487 -0.7244
vn 0.5604 0.4681 0.6832
vn 0.3262 -0.8218 0.4671
vn -0.0794 0.9951 -0.0593
vn 0.4818 0.3276 0.8127
vn -0.4771 -0.5116 -0.7146
vn 0.6281 0.0305 0.7776
vn -0.4066 0.8036 -0.4345
vn -0.6182 -0.7027 -0.3521
vn -0.2258 -0.2928 -0.9291
vn 0.4984 0.6137 0.6123
vn 0.4165 -0.7847 0.4591
vn 0.2190 -0.8786 -0.4244
vn -0.7906 0.2378 -0.5642
vn -0.3935 0.6138 0.6843
vn -0.8530 -0.3539 -0.3836
vn -0.2727 -0.7156 0.6431
vn -0.4764 0.8549 -0.2052
vn 0.7307 -0.5529 0.4004
vn 0.3100 0.6733 -0.6712
vn 0.2573 -0.8975 0.3580
vn 0.7442 0.0625 0.6651
vn 0.0587 0.9877 0.1448
vn -0.7282 -0.3645 -0.5804
vn 1.0000 0.0031 0.0051
vn 0.0226 0.9996 0.0146
vn -0.9049 -0.3460 0.2475
vn 0.0005 -0.9989 -0.0457
vn -0.0144 -0.9998 0.0144
vn -0.9061 0.1816 0.3820
vn -0.9297 -0.0287 -0.3672
vn 0.9893 -0.1428 0.0293
vn -0.1096 0.9905 -0.0827
vn 0.7736 0.4453 0.4508
vn -0.7457 -0.6637 -0.0582
vn 0.7824 0.1659 -0.6003
vn -0.5716 -0.8205 -0.0111
vn 0.6234 0.4189 0.6602
vn 0.1818 -0.1143 0.9767
usemtl SVGMat.3781
s 1
f 68//1 3//2 69//3
f 3//2 8//4 2//5
f 4//6 5//7 3//2
f 2//5 6//8 1//9
f 1//9 7//10 4//6
f 8//4 9//11 6//8
f 5//7 9//11 8//4
f 7//10 10//12 5//7
f 6//8 11//13 7//10
f 9//11 11//13 6//8
f 11//13 10//12 7//10
f 10//12 15//14 9//11
f 9//11 14//15 11//13
f 11//13 17//16 10//12
f 16//17 19//18 15//14
f 19//18 20//19 15//14
f 18//20 22//21 17//16
f 20//19 18//20 14//15
f 20//19 23//22 18//20
f 19//18 25//23 20//19
f 22//21 26//24 24//25
f 26//24 29//26 24//25
f 23//22 26//24 22//21
f 24//25 29//26 25//23
f 26//24 33//27 29//26
f 27//28 31//29 28//30
f 29//26 32//31 27//28
f 31//29 30//32 26//24
f 30//32 35//33 33//27
f 34//34 36//35 30//32
f 32//31 34//34 31//29
f 35//33 37//36 32//31
f 34//34 39//37 36//35
f 36//35 39//37 35//33
f 37//36 38//38 34//34
f 41//39 40//40 37//36
f 38//38 42//41 39//37
f 39//37 44//42 41//39
f 44//42 46//43 43//44
f 43//44 45//45 42//41
f 45//45 51//46 48//47
f 50//48 51//46 45//45
f 46//43 52//49 47//50
f 48//47 52//49 46//43
f 52//49 50//48 45//45
f 51//46 52//49 48//47
f 51//46 54//51 52//49
f 54//51 55//52 52//49
f 55//52 53//53 52//49
f 53//53 56//54 51//46
f 55//52 57//55 53//53
f 57//55 58//56 53//53
f 58//56 60//57 56//54
f 59//58 62//59 57//55
f 58//56 63//60 60//57
f 63//60 64//61 59//58
f 58//56 64//61 63//60
f 61//62 66//63 58//56
f 61//62 67//64 66//63
f 62//59 67//64 61//62
f 64//61 1//9 62//59
f 66//63 68//1 65//65
f 67//64 68//1 66//63
f 65//65 69//3 1//9
f 69//3 3//2 2//5
f 68//1 4//6 3//2
f 3//2 5//7 8//4
f 1//9 6//8 7//10
f 4//6 7//10 5//7
f 2//5 8//4 6//8
f 5//7 10//12 9//11
f 10//12 12//66 15//14
f 9//11 13//67 14//15
f 10//12 17//16 12//66
f 11//13 14//15 17//16
f 9//11 15//14 13//67
f 12//66 16//17 15//14
f 12//66 17//16 16//17
f 17//16 21//68 16//17
f 14//15 18//20 17//16
f 15//14 20//19 13//67
f 13//67 20//19 14//15
f 16//17 21//68 19//18
f 17//16 22//21 21//68
f 21//68 24//25 19//18
f 18//20 23//22 22//21
f 21//68 22//21 24//25
f 19//18 24//25 25//23
f 20//19 25//23 23//22
f 25//23 27//28 23//22
f 23//22 27//28 28//30
f 23//22 28//30 26//24
f 25//23 29//26 27//28
f 26//24 30//32 33//27
f 28//30 31//29 26//24
f 27//28 32//31 31//29
f 29//26 33//27 32//31
f 31//29 34//34 30//32
f 33//27 35//33 32//31
f 30//32 36//35 35//33
f 32//31 37//36 34//34
f 34//34 38//38 39//37
f 35//33 41//39 37//36
f 37//36 40//40 38//38
f 35//33 39//37 41//39
f 40//40 41//39 38//38
f 41//39 43//44 38//38
f 39//37 42//41 44//42
f 38//38 43//44 42//41
f 41//39 44//42 43//44
f 42//41 49//69 44//42
f 42//41 45//45 49//69
f 43//44 46//43 47//50
f 43//44 47//50 45//45
f 44//42 48//47 46//43
f 44//42 49//69 48//47
f 49//69 45//45 48//47
f 47//50 52//49 45//45
f 50//48 53//53 51//46
f 51//46 56//54 54//51
f 52//49 53//53 50//48
f 54//51 57//55 55//52
f 53//53 58//56 56//54
f 56//54 59//58 54//51
f 54//51 59//58 57//55
f 56//54 60//57 59//58
f 57//55 61//62 58//56
f 57//55 62//59 61//62
f 60//57 63//60 59//58
f 58//56 66//63 64//61
f 59//58 64//61 62//59
f 64//61 66//63 65//65
f 62//59 1//9 67//64
f 64//61 65//65 1//9
f 65//65 68//1 69//3
f 67//64 4//6 68//1
f 67//64 1//9 4//6
f 69//3 2//5 1//9
