# Blender v2.79 (sub 0) OBJ File: 'world_countrycodes_export2.blend'
# www.blender.org
mtllib PA.mtl
o PA.002_CUCurve.1776
v 0.514274 0.000000 0.599875
v 0.513062 0.000000 0.598621
v 0.511116 0.000000 0.597582
v 0.507451 0.000000 0.596655
v 0.505532 0.000000 0.596018
v 0.503173 0.000000 0.596288
v 0.500364 0.000000 0.597780
v 0.497548 0.000000 0.600087
v 0.495472 0.000000 0.600803
v 0.493461 0.000000 0.600694
v 0.491345 0.000000 0.600065
v 0.488410 0.000000 0.598383
v 0.486534 0.000000 0.596470
v 0.485626 0.000000 0.598992
v 0.485763 0.000000 0.600431
v 0.485630 0.000000 0.601205
v 0.484974 0.000000 0.603205
v 0.487988 0.000000 0.603818
v 0.490989 0.000000 0.605416
v 0.493387 0.000000 0.607587
v 0.495639 0.000000 0.608325
v 0.496857 0.000000 0.609911
v 0.498059 0.000000 0.610296
v 0.499855 0.000000 0.609423
v 0.500976 0.000000 0.607988
v 0.500798 0.000000 0.607158
v 0.499473 0.000000 0.605784
v 0.499178 0.000000 0.604883
v 0.499446 0.000000 0.604328
v 0.501666 0.000000 0.603281
v 0.502672 0.000000 0.601342
v 0.505172 0.000000 0.600115
v 0.507810 0.000000 0.599976
v 0.510169 0.000000 0.601149
v 0.510883 0.000000 0.602469
v 0.510651 0.000000 0.603432
v 0.509788 0.000000 0.604734
v 0.510425 0.000000 0.606780
v 0.513445 0.000000 0.610023
v 0.517630 0.000000 0.605996
v 0.518100 0.000000 0.604568
v 0.516517 0.000000 0.603066
v 0.514274 0.050000 0.599875
v 0.507810 0.050000 0.599976
v 0.490989 0.050000 0.605416
v 0.499473 0.050000 0.605784
v 0.509788 0.050000 0.604734
v 0.510425 0.050000 0.606780
v 0.485630 0.050000 0.601205
v 0.484974 0.050000 0.603205
v 0.510169 0.050000 0.601149
v 0.499855 0.050000 0.609423
v 0.500976 0.050000 0.607988
v 0.496857 0.050000 0.609911
v 0.498059 0.050000 0.610296
v 0.500798 0.050000 0.607158
v 0.517630 0.050000 0.605996
v 0.510883 0.050000 0.602469
v 0.516517 0.050000 0.603066
v 0.488410 0.050000 0.598383
v 0.486534 0.050000 0.596470
v 0.491345 0.050000 0.600065
v 0.485626 0.050000 0.598992
v 0.511116 0.050000 0.597582
v 0.507451 0.050000 0.596655
v 0.493387 0.050000 0.607587
v 0.500364 0.050000 0.597780
v 0.518100 0.050000 0.604568
v 0.497548 0.050000 0.600087
v 0.485763 0.050000 0.600431
v 0.495472 0.050000 0.600803
v 0.505172 0.050000 0.600115
v 0.493461 0.050000 0.600694
v 0.513062 0.050000 0.598621
v 0.510651 0.050000 0.603432
v 0.487988 0.050000 0.603818
v 0.501666 0.050000 0.603281
v 0.502672 0.050000 0.601342
v 0.495639 0.050000 0.608325
v 0.499178 0.050000 0.604883
v 0.499446 0.050000 0.604328
v 0.513445 0.050000 0.610023
v 0.503173 0.050000 0.596288
v 0.505532 0.050000 0.596018
vn 0.0000 -1.0000 0.0000
vn 0.0000 1.0000 0.0000
vn 0.0000 1.0000 -0.0002
vn 0.0000 1.0000 0.0001
vn -0.3048 0.0000 0.9524
vn -0.3114 0.0000 0.9503
vn -0.9855 0.0000 -0.1698
vn 0.8181 0.0000 -0.5751
vn -0.4451 0.0000 0.8955
vn 0.7199 0.0000 -0.6941
vn -0.1992 0.0000 0.9799
vn 0.4972 0.0000 -0.8677
vn -0.6336 0.0000 -0.7736
vn -0.4692 0.0000 -0.8831
vn 0.2851 0.0000 -0.9585
vn 0.0525 0.0000 0.9986
vn 0.4406 0.0000 0.8977
vn 0.7140 0.0000 -0.7001
vn 0.9004 0.0000 0.4350
vn -0.1136 0.0000 -0.9935
vn 0.4264 0.0000 0.9045
vn 0.3152 0.0000 -0.9490
vn -0.9723 0.0000 -0.2339
vn 0.2450 0.0000 -0.9695
vn 0.7192 0.0000 -0.6948
vn -0.4699 0.0000 0.8827
vn 0.0539 0.0000 -0.9985
vn -0.6711 0.0000 0.7414
vn 0.9778 0.0000 -0.2094
vn 0.4710 0.0000 -0.8821
vn -0.9409 0.0000 -0.3386
vn 0.6935 0.0000 0.7205
vn 0.4373 0.0000 0.8993
vn -0.7317 0.0000 0.6816
vn 0.9499 0.0000 0.3125
vn -0.8337 0.0000 -0.5522
vn -0.9549 0.0000 0.2970
vn -0.9955 0.0000 0.0949
vn -0.7933 0.0000 0.6089
vn -0.8795 0.0000 0.4759
vn -0.9503 0.0000 -0.3114
vn 0.6883 0.0000 -0.7254
vn 0.9502 0.0000 -0.3115
vn 0.8876 0.0000 0.4607
vn -0.3260 0.0000 -0.9454
vn 0.7881 0.0000 0.6156
usemtl SVGMat.3781
s off
f 6//1 5//1 4//1
f 7//1 6//1 4//1
f 7//1 4//1 3//1
f 14//1 13//1 12//1
f 7//1 3//1 2//1
f 8//1 7//1 2//1
f 8//1 2//1 1//1
f 14//1 12//1 11//1
f 8//1 1//1 33//1
f 8//1 33//1 32//1
f 15//1 14//1 11//1
f 34//1 33//1 1//1
f 9//1 8//1 32//1
f 15//1 11//1 10//1
f 9//1 32//1 31//1
f 16//1 15//1 10//1
f 16//1 10//1 9//1
f 16//1 9//1 31//1
f 34//1 1//1 42//1
f 35//1 34//1 42//1
f 17//1 16//1 31//1
f 17//1 31//1 30//1
f 36//1 35//1 42//1
f 18//1 17//1 30//1
f 37//1 36//1 42//1
f 18//1 30//1 29//1
f 37//1 42//1 41//1
f 18//1 29//1 28//1
f 19//1 18//1 28//1
f 37//1 41//1 40//1
f 19//1 28//1 27//1
f 38//1 37//1 40//1
f 20//1 19//1 27//1
f 20//1 27//1 26//1
f 38//1 40//1 39//1
f 20//1 26//1 25//1
f 21//1 20//1 25//1
f 21//1 25//1 24//1
f 22//1 21//1 24//1
f 22//1 24//1 23//1
f 83//2 65//2 84//2
f 67//2 65//2 83//2
f 67//2 64//2 65//2
f 63//2 60//2 61//2
f 67//2 74//2 64//2
f 69//2 74//2 67//2
f 69//2 43//2 74//2
f 63//2 62//2 60//2
f 69//3 44//3 43//3
f 69//4 72//4 44//4
f 70//2 62//2 63//2
f 51//2 43//2 44//2
f 71//2 72//2 69//2
f 70//2 73//2 62//2
f 71//2 78//2 72//2
f 49//2 73//2 70//2
f 49//2 71//2 73//2
f 49//2 78//2 71//2
f 51//2 59//2 43//2
f 58//2 59//2 51//2
f 50//2 78//2 49//2
f 50//2 77//2 78//2
f 75//2 59//2 58//2
f 76//2 77//2 50//2
f 47//2 59//2 75//2
f 76//2 81//2 77//2
f 47//2 68//2 59//2
f 76//2 80//2 81//2
f 45//2 80//2 76//2
f 47//2 57//2 68//2
f 45//2 46//2 80//2
f 48//2 57//2 47//2
f 66//2 46//2 45//2
f 66//2 56//2 46//2
f 48//2 82//2 57//2
f 66//2 53//2 56//2
f 79//2 53//2 66//2
f 79//2 52//2 53//2
f 54//2 52//2 79//2
f 54//2 55//2 52//2
f 22//5 23//5 55//5 54//5
f 20//6 21//6 79//6 66//6
f 15//7 16//7 49//7 70//7
f 42//8 1//8 43//8 59//8
f 33//9 34//9 51//9 44//9
f 26//10 27//10 46//10 56//10
f 17//11 18//11 76//11 50//11
f 11//12 12//12 60//12 62//12
f 7//13 8//13 69//13 67//13
f 6//14 7//14 67//14 83//14
f 10//15 11//15 62//15 73//15
f 32//16 33//16 44//16 72//16
f 31//17 32//17 72//17 78//17
f 12//18 13//18 61//18 60//18
f 28//19 29//19 81//19 80//19
f 5//20 6//20 83//20 84//20
f 29//21 30//21 77//21 81//21
f 4//22 5//22 84//22 65//22
f 35//23 36//23 75//23 58//23
f 3//24 4//24 65//24 64//24
f 1//25 2//25 74//25 43//25
f 18//26 19//26 45//26 76//26
f 9//27 10//27 73//27 71//27
f 19//28 20//28 66//28 45//28
f 25//29 26//29 56//29 53//29
f 2//30 3//30 64//30 74//30
f 13//31 14//31 63//31 61//31
f 39//32 40//32 57//32 82//32
f 23//33 24//33 52//33 55//33
f 38//34 39//34 82//34 48//34
f 40//35 41//35 68//35 57//35
f 36//36 37//36 47//36 75//36
f 37//37 38//37 48//37 47//37
f 14//38 15//38 70//38 63//38
f 21//39 22//39 54//39 79//39
f 34//40 35//40 58//40 51//40
f 16//41 17//41 50//41 49//41
f 41//42 42//42 59//42 68//42
f 27//43 28//43 80//43 46//43
f 30//44 31//44 78//44 77//44
f 8//45 9//45 71//45 69//45
f 24//46 25//46 53//46 52//46
