# Blender v2.79 (sub 0) OBJ File: 'world_countrycodes_outlines2.blend'
# www.blender.org
mtllib PA_outline.mtl
o PA.001_CUCurve.1602
v 0.520457 -0.000636 0.604623
v 0.519238 0.001911 0.604942
v 0.513281 0.001984 0.608960
v 0.513483 -0.000687 0.607284
v 0.513305 -0.001938 0.611386
v 0.513502 0.000519 0.612831
v 0.508580 0.000787 0.607607
v 0.511993 -0.000666 0.605240
v 0.509005 -0.001918 0.605807
v 0.508341 0.000597 0.602671
v 0.509945 0.002152 0.604896
v 0.509176 -0.001259 0.602152
v 0.510985 0.001929 0.600185
v 0.511925 -0.001890 0.602059
v 0.511751 0.000030 0.599290
v 0.508602 -0.001936 0.599137
v 0.502407 0.000744 0.598863
v 0.502375 -0.001483 0.599615
v 0.505291 -0.000777 0.601944
v 0.505014 0.000814 0.601957
v 0.499274 0.000465 0.602134
v 0.499371 -0.001977 0.603700
v 0.500426 0.001955 0.604815
v 0.501723 -0.000818 0.605146
v 0.498077 0.001919 0.604352
v 0.497174 -0.000767 0.605714
v 0.501950 0.001933 0.607388
v 0.498407 0.000800 0.607930
v 0.498601 -0.000737 0.607969
v 0.501741 -0.001960 0.608603
v 0.502326 0.000762 0.609882
v 0.498062 0.000782 0.612312
v 0.497083 0.002004 0.609906
v 0.497039 -0.001790 0.611319
v 0.494142 0.000822 0.610143
v 0.494841 -0.001990 0.607223
v 0.494330 0.000748 0.605628
v 0.487230 -0.001391 0.601580
v 0.487612 0.000837 0.601552
v 0.484840 0.002016 0.603413
v 0.485445 -0.001903 0.603913
v 0.482562 -0.000192 0.604502
v 0.486572 0.001953 0.598247
v 0.483853 -0.000822 0.598118
v 0.487200 -0.000785 0.599789
v 0.485878 0.001768 0.594693
v 0.486846 -0.001993 0.596245
v 0.486347 -0.000699 0.593302
v 0.489926 0.000759 0.597154
v 0.495191 0.000759 0.599016
v 0.492714 0.000891 0.602614
v 0.495405 -0.001905 0.600137
v 0.497161 0.002005 0.601198
v 0.496529 -0.000916 0.602811
v 0.503426 -0.000787 0.593756
v 0.503428 0.001445 0.594468
v 0.503798 0.001897 0.596741
v 0.503915 0.000011 0.597987
v 0.503661 -0.001965 0.596749
v 0.512417 -0.001960 0.598954
v 0.514266 0.000875 0.596877
v 0.511930 0.001459 0.599715
v 0.513858 -0.001399 0.597193
v 0.515857 0.000841 0.605179
v 0.518100 -0.002090 0.606056
vn -0.8608 0.4734 -0.1866
vn -0.0351 0.9991 0.0207
vn 0.5906 0.8045 0.0627
vn 0.2470 -0.9449 0.2148
vn 0.0343 -0.5977 -0.8009
vn 0.0195 0.2407 0.9704
vn 0.9696 -0.2432 -0.0268
vn -0.0394 -0.8159 0.5768
vn -0.8483 0.3049 0.4329
vn -0.0324 0.9988 -0.0365
vn 0.9304 -0.3093 -0.1966
vn -0.5428 -0.8302 0.1267
vn -0.6887 0.5192 0.5061
vn -0.3922 -0.8937 0.2180
vn 0.6673 -0.7406 -0.0786
vn 0.4271 0.8355 -0.3456
vn 0.7124 0.0201 -0.7015
vn 0.2947 -0.1650 0.9412
vn 0.0703 -0.7796 -0.6223
vn -0.3606 0.4184 -0.8336
vn 0.2600 0.9606 -0.0981
vn 0.2334 -0.4766 0.8476
vn -0.3713 -0.8985 -0.2341
vn -0.3512 -0.6698 -0.6542
vn -0.7165 0.2733 -0.6417
vn 0.8844 -0.4460 0.1375
vn -0.9241 -0.3795 0.0434
vn -0.6053 0.7492 -0.2689
vn 0.6413 0.7649 -0.0608
vn -0.3804 0.8086 -0.4489
vn -0.3291 -0.9113 -0.2474
vn 0.5487 -0.8083 0.2135
vn 0.7977 0.2498 0.5488
vn -0.0654 -0.7668 0.6385
vn 0.0902 0.2920 0.9521
vn -0.0322 0.9895 0.1405
vn -0.4669 0.3505 0.8118
vn 0.2862 -0.8585 -0.4255
vn 0.4842 0.3725 -0.7917
vn -0.3506 0.9274 0.1304
vn -0.2468 -0.9391 0.2388
vn 0.3319 -0.8236 -0.4599
vn 0.7168 0.5739 -0.3958
vn 0.1380 0.9896 0.0396
vn 0.5893 -0.6950 0.4120
vn -0.2871 0.7455 -0.6015
vn -0.9266 -0.3081 -0.2156
vn 0.0678 -0.9561 -0.2849
vn -0.0658 -0.2862 -0.9559
vn 0.4500 0.4441 -0.7747
vn -0.1066 -0.9782 -0.1782
vn -0.0648 0.4011 -0.9137
vn 0.2056 -0.3808 0.9015
vn -0.2362 0.3230 0.9164
vn 0.2077 0.8821 0.4227
vn -0.1198 -0.3745 -0.9194
vn -0.1060 0.6951 -0.7110
vn 0.0447 0.9704 0.2374
vn 0.0760 -0.9851 0.1539
vn 0.4825 0.4950 -0.7226
vn -0.3613 0.7543 0.5481
vn 0.1910 -0.0054 0.9815
vn -0.2303 -0.9241 0.3049
vn 0.4037 -0.6574 -0.6363
vn -0.9052 -0.0616 0.4203
usemtl SVGMat.3781
s 1
f 64//1 3//2 2//3
f 65//4 4//5 64//1
f 2//3 6//6 1//7
f 5//8 4//5 65//4
f 3//2 6//6 2//3
f 6//6 5//8 65//4
f 3//2 7//9 6//6
f 4//5 11//10 3//2
f 5//8 8//11 4//5
f 7//9 9//12 5//8
f 10//13 12//14 9//12
f 9//12 14//15 8//11
f 12//14 14//15 9//12
f 8//11 13//16 11//10
f 14//15 15//17 8//11
f 13//16 20//18 10//13
f 12//14 16//19 14//15
f 15//17 17//20 13//16
f 16//19 17//20 15//17
f 17//20 23//21 13//16
f 19//22 22//23 16//19
f 18//24 21//25 17//20
f 23//21 24//26 19//22
f 22//23 26//27 21//25
f 25//28 27//29 23//21
f 26//27 28//30 25//28
f 22//23 29//31 26//27
f 24//26 30//32 22//23
f 27//29 31//33 24//26
f 31//33 34//34 30//32
f 27//29 32//35 31//33
f 28//30 33//36 27//29
f 33//36 35//37 32//35
f 34//34 36//38 29//31
f 36//38 37//39 28//30
f 37//39 40//40 33//36
f 35//37 41//41 34//34
f 38//42 39//43 37//39
f 39//43 43//44 40//40
f 38//42 45//45 39//43
f 43//44 46//46 40//40
f 45//45 43//44 39//43
f 41//41 45//45 38//42
f 44//47 47//48 41//41
f 46//46 48//49 44//47
f 46//46 49//50 48//49
f 43//44 49//50 46//46
f 49//50 52//51 47//48
f 43//44 50//52 49//50
f 47//48 54//53 45//45
f 51//54 53//55 43//44
f 54//53 53//55 51//54
f 50//52 55//56 52//51
f 53//55 56//57 50//52
f 54//53 57//58 53//55
f 52//51 59//59 54//53
f 57//58 61//60 56//57
f 59//59 62//61 58//62
f 55//56 60//63 59//59
f 63//64 65//4 60//63
f 65//4 64//1 62//61
f 64//1 4//5 3//2
f 1//7 6//6 65//4
f 6//6 7//9 5//8
f 3//2 11//10 7//9
f 4//5 8//11 11//10
f 5//8 9//12 8//11
f 7//9 10//13 9//12
f 7//9 11//10 10//13
f 11//10 13//16 10//13
f 8//11 15//17 13//16
f 14//15 16//19 15//17
f 10//13 19//22 12//14
f 10//13 20//18 19//22
f 16//19 18//24 17//20
f 12//14 19//22 16//19
f 13//16 23//21 20//18
f 16//19 22//23 18//24
f 17//20 21//25 23//21
f 18//24 22//23 21//25
f 20//18 23//21 19//22
f 19//22 24//26 22//23
f 21//25 25//28 23//21
f 21//25 26//27 25//28
f 23//21 27//29 24//26
f 25//28 28//30 27//29
f 26//27 29//31 28//30
f 22//23 30//32 29//31
f 24//26 31//33 30//32
f 31//33 32//35 34//34
f 27//29 33//36 32//35
f 30//32 34//34 29//31
f 32//35 35//37 34//34
f 29//31 36//38 28//30
f 28//30 37//39 33//36
f 36//38 38//42 37//39
f 33//36 40//40 35//37
f 37//39 39//43 40//40
f 34//34 41//41 36//38
f 35//37 42//65 41//41
f 35//37 40//40 42//65
f 36//38 41//41 38//42
f 42//65 40//40 44//47
f 42//65 44//47 41//41
f 40//40 46//46 44//47
f 41//41 47//48 45//45
f 44//47 48//49 47//48
f 48//49 49//50 47//48
f 45//45 51//54 43//44
f 49//50 50//52 52//51
f 45//45 54//53 51//54
f 47//48 52//51 54//53
f 43//44 53//55 50//52
f 50//52 56//57 55//56
f 53//55 57//58 56//57
f 54//53 58//62 57//58
f 54//53 59//59 58//62
f 52//51 55//56 59//59
f 56//57 61//60 55//56
f 58//62 62//61 57//58
f 59//59 60//63 62//61
f 55//56 61//60 63//64
f 57//58 62//61 61//60
f 55//56 63//64 60//63
f 61//60 1//7 63//64
f 62//61 2//3 61//60
f 61//60 2//3 1//7
f 62//61 64//1 2//3
f 60//63 65//4 62//61
f 63//64 1//7 65//4
