# Blender v2.79 (sub 0) OBJ File: 'world_countrycodes_export2.blend'
# www.blender.org
mtllib PE.mtl
o PE.002_CUCurve.1773
v 0.560916 0.000000 0.752931
v 0.561061 0.000000 0.752833
v 0.561145 0.000000 0.750873
v 0.562960 0.000000 0.749255
v 0.564249 0.000000 0.747072
v 0.564600 0.000000 0.745746
v 0.564146 0.000000 0.745158
v 0.562762 0.000000 0.744248
v 0.562397 0.000000 0.743475
v 0.562541 0.000000 0.742447
v 0.563898 0.000000 0.739655
v 0.563986 0.000000 0.738733
v 0.563482 0.000000 0.737953
v 0.563964 0.000000 0.736534
v 0.565131 0.000000 0.733976
v 0.564478 0.000000 0.729013
v 0.564436 0.000000 0.725825
v 0.565940 0.000000 0.724578
v 0.566295 0.000000 0.723358
v 0.565514 0.000000 0.721282
v 0.562164 0.000000 0.714667
v 0.559663 0.000000 0.714455
v 0.556334 0.000000 0.714985
v 0.555862 0.000000 0.714680
v 0.555295 0.000000 0.712620
v 0.555286 0.000000 0.706713
v 0.554673 0.000000 0.706308
v 0.553531 0.000000 0.706946
v 0.552521 0.000000 0.708571
v 0.550928 0.000000 0.709054
v 0.546111 0.000000 0.708835
v 0.545192 0.000000 0.708072
v 0.544664 0.000000 0.706251
v 0.544235 0.000000 0.705745
v 0.542052 0.000000 0.705536
v 0.541319 0.000000 0.704993
v 0.540954 0.000000 0.704245
v 0.540967 0.000000 0.702592
v 0.540298 0.000000 0.701103
v 0.537771 0.000000 0.697395
v 0.536761 0.000000 0.695239
v 0.536835 0.000000 0.694215
v 0.537483 0.000000 0.693106
v 0.537244 0.000000 0.691128
v 0.538412 0.000000 0.689626
v 0.540338 0.000000 0.688515
v 0.540574 0.000000 0.687758
v 0.540360 0.000000 0.686290
v 0.540778 0.000000 0.685059
v 0.542051 0.000000 0.682886
v 0.542429 0.000000 0.681074
v 0.543196 0.000000 0.680239
v 0.546170 0.000000 0.679143
v 0.548257 0.000000 0.677712
v 0.549895 0.000000 0.677203
v 0.553101 0.000000 0.676584
v 0.555154 0.000000 0.675226
v 0.556463 0.000000 0.675029
v 0.558789 0.000000 0.675597
v 0.558227 0.000000 0.674893
v 0.556090 0.000000 0.673466
v 0.555369 0.000000 0.672651
v 0.555566 0.000000 0.671556
v 0.558291 0.000000 0.668197
v 0.558492 0.000000 0.667358
v 0.557256 0.000000 0.666096
v 0.553775 0.000000 0.664432
v 0.551141 0.000000 0.665018
v 0.550063 0.000000 0.664655
v 0.548601 0.000000 0.664541
v 0.546883 0.000000 0.665338
v 0.544638 0.000000 0.665721
v 0.541385 0.000000 0.665431
v 0.540648 0.000000 0.664771
v 0.540547 0.000000 0.663669
v 0.539955 0.000000 0.662816
v 0.538472 0.000000 0.661421
v 0.538423 0.000000 0.660253
v 0.537728 0.000000 0.658884
v 0.536114 0.000000 0.657603
v 0.534256 0.000000 0.657167
v 0.533390 0.000000 0.656275
v 0.532242 0.000000 0.653280
v 0.531407 0.000000 0.652507
v 0.529272 0.000000 0.652279
v 0.526614 0.000000 0.652679
v 0.528571 0.000000 0.655221
v 0.528446 0.000000 0.656303
v 0.527241 0.000000 0.657508
v 0.526730 0.000000 0.659340
v 0.525020 0.000000 0.662266
v 0.522266 0.000000 0.664919
v 0.518050 0.000000 0.667153
v 0.513062 0.000000 0.668627
v 0.511831 0.000000 0.669576
v 0.510401 0.000000 0.672085
v 0.508193 0.000000 0.678161
v 0.506879 0.000000 0.679689
v 0.505827 0.000000 0.679428
v 0.504103 0.000000 0.677468
v 0.503212 0.000000 0.676896
v 0.501252 0.000000 0.677205
v 0.500339 0.000000 0.676852
v 0.499192 0.000000 0.675716
v 0.499055 0.000000 0.675015
v 0.500190 0.000000 0.673612
v 0.500169 0.000000 0.672641
v 0.499586 0.000000 0.671614
v 0.498920 0.000000 0.670951
v 0.497406 0.000000 0.671678
v 0.495675 0.000000 0.673492
v 0.494153 0.000000 0.676028
v 0.494092 0.000000 0.677798
v 0.496414 0.000000 0.683724
v 0.496293 0.000000 0.684440
v 0.495058 0.000000 0.684537
v 0.494649 0.000000 0.685068
v 0.494745 0.000000 0.685882
v 0.496282 0.000000 0.687315
v 0.500980 0.000000 0.690218
v 0.502698 0.000000 0.692300
v 0.505437 0.000000 0.696705
v 0.507195 0.000000 0.698861
v 0.508198 0.000000 0.700709
v 0.511765 0.000000 0.709865
v 0.515534 0.000000 0.717291
v 0.518972 0.000000 0.722926
v 0.520898 0.000000 0.725511
v 0.522474 0.000000 0.728372
v 0.522841 0.000000 0.730080
v 0.522510 0.000000 0.731349
v 0.522793 0.000000 0.733348
v 0.523822 0.000000 0.735051
v 0.528306 0.000000 0.738729
v 0.532684 0.000000 0.741522
v 0.544734 0.000000 0.747992
v 0.549115 0.000000 0.751022
v 0.551823 0.000000 0.753968
v 0.554664 0.000000 0.756151
v 0.557050 0.000000 0.757380
v 0.557219 0.000000 0.758311
v 0.559117 0.000000 0.757075
v 0.560042 0.000000 0.755607
v 0.564249 0.050000 0.747072
v 0.564600 0.050000 0.745746
v 0.558789 0.050000 0.675597
v 0.558227 0.050000 0.674893
v 0.548257 0.050000 0.677712
v 0.549895 0.050000 0.677203
v 0.555154 0.050000 0.675226
v 0.508193 0.050000 0.678161
v 0.537244 0.050000 0.691128
v 0.502698 0.050000 0.692300
v 0.515534 0.050000 0.717291
v 0.518972 0.050000 0.722926
v 0.545192 0.050000 0.708072
v 0.544664 0.050000 0.706251
v 0.500339 0.050000 0.676852
v 0.499192 0.050000 0.675716
v 0.562960 0.050000 0.749255
v 0.544734 0.050000 0.747992
v 0.555862 0.050000 0.714680
v 0.537483 0.050000 0.693106
v 0.539955 0.050000 0.662816
v 0.538472 0.050000 0.661421
v 0.494745 0.050000 0.685882
v 0.496282 0.050000 0.687315
v 0.537728 0.050000 0.658884
v 0.527241 0.050000 0.657508
v 0.563986 0.050000 0.738733
v 0.563482 0.050000 0.737953
v 0.556090 0.050000 0.673466
v 0.531407 0.050000 0.652507
v 0.526614 0.050000 0.652679
v 0.557219 0.050000 0.758311
v 0.559117 0.050000 0.757075
v 0.546883 0.050000 0.665338
v 0.544638 0.050000 0.665721
v 0.544235 0.050000 0.705745
v 0.511765 0.050000 0.709865
v 0.532242 0.050000 0.653280
v 0.528571 0.050000 0.655221
v 0.529272 0.050000 0.652279
v 0.538412 0.050000 0.689626
v 0.540338 0.050000 0.688515
v 0.551823 0.050000 0.753968
v 0.554664 0.050000 0.756151
v 0.522474 0.050000 0.728372
v 0.522841 0.050000 0.730080
v 0.562164 0.050000 0.714667
v 0.559663 0.050000 0.714455
v 0.508198 0.050000 0.700709
v 0.552521 0.050000 0.708571
v 0.550928 0.050000 0.709054
v 0.562397 0.050000 0.743475
v 0.562541 0.050000 0.742447
v 0.553101 0.050000 0.676584
v 0.536761 0.050000 0.695239
v 0.505437 0.050000 0.696705
v 0.497406 0.050000 0.671678
v 0.495675 0.050000 0.673492
v 0.555566 0.050000 0.671556
v 0.511831 0.050000 0.669576
v 0.546170 0.050000 0.679143
v 0.500980 0.050000 0.690218
v 0.528446 0.050000 0.656303
v 0.555295 0.050000 0.712620
v 0.555286 0.050000 0.706713
v 0.513062 0.050000 0.668627
v 0.565940 0.050000 0.724578
v 0.520898 0.050000 0.725511
v 0.557256 0.050000 0.666096
v 0.518050 0.050000 0.667153
v 0.541319 0.050000 0.704993
v 0.540954 0.050000 0.704245
v 0.522266 0.050000 0.664919
v 0.556334 0.050000 0.714985
v 0.526730 0.050000 0.659340
v 0.525020 0.050000 0.662266
v 0.540574 0.050000 0.687758
v 0.563964 0.050000 0.736534
v 0.528306 0.050000 0.738729
v 0.543196 0.050000 0.680239
v 0.506879 0.050000 0.679689
v 0.500169 0.050000 0.672641
v 0.499586 0.050000 0.671614
v 0.564146 0.050000 0.745158
v 0.536114 0.050000 0.657603
v 0.534256 0.050000 0.657167
v 0.496414 0.050000 0.683724
v 0.566295 0.050000 0.723358
v 0.564478 0.050000 0.729013
v 0.557050 0.050000 0.757380
v 0.537771 0.050000 0.697395
v 0.546111 0.050000 0.708835
v 0.561061 0.050000 0.752833
v 0.561145 0.050000 0.750873
v 0.494092 0.050000 0.677798
v 0.522510 0.050000 0.731349
v 0.522793 0.050000 0.733348
v 0.532684 0.050000 0.741522
v 0.507195 0.050000 0.698861
v 0.549115 0.050000 0.751022
v 0.542052 0.050000 0.705536
v 0.560916 0.050000 0.752931
v 0.540648 0.050000 0.664771
v 0.542051 0.050000 0.682886
v 0.542429 0.050000 0.681074
v 0.541385 0.050000 0.665431
v 0.504103 0.050000 0.677468
v 0.498920 0.050000 0.670951
v 0.505827 0.050000 0.679428
v 0.499055 0.050000 0.675015
v 0.494153 0.050000 0.676028
v 0.540298 0.050000 0.701103
v 0.540547 0.050000 0.663669
v 0.556463 0.050000 0.675029
v 0.564436 0.050000 0.725825
v 0.553531 0.050000 0.706946
v 0.540778 0.050000 0.685059
v 0.500190 0.050000 0.673612
v 0.538423 0.050000 0.660253
v 0.565514 0.050000 0.721282
v 0.565131 0.050000 0.733976
v 0.496293 0.050000 0.684440
v 0.523822 0.050000 0.735051
v 0.510401 0.050000 0.672085
v 0.540967 0.050000 0.702592
v 0.558291 0.050000 0.668197
v 0.558492 0.050000 0.667358
v 0.540360 0.050000 0.686290
v 0.563898 0.050000 0.739655
v 0.494649 0.050000 0.685068
v 0.495058 0.050000 0.684537
v 0.536835 0.050000 0.694215
v 0.550063 0.050000 0.664655
v 0.548601 0.050000 0.664541
v 0.555369 0.050000 0.672651
v 0.501252 0.050000 0.677205
v 0.560042 0.050000 0.755607
v 0.533390 0.050000 0.656275
v 0.503212 0.050000 0.676896
v 0.553775 0.050000 0.664432
v 0.562762 0.050000 0.744248
v 0.554673 0.050000 0.706308
v 0.551141 0.050000 0.665018
vn 0.0000 -1.0000 0.0000
vn 0.0000 1.0000 0.0000
vn 0.0000 1.0000 -0.0001
vn 0.8262 0.0000 -0.5633
vn -0.0780 0.0000 -0.9969
vn 0.8461 0.0000 0.5330
vn 0.7057 0.0000 -0.7085
vn 0.8986 0.0000 -0.4388
vn 0.9896 0.0000 -0.1441
vn 0.6796 0.0000 -0.7336
vn -0.1555 0.0000 -0.9878
vn -0.4682 0.0000 -0.8836
vn 0.5494 0.0000 -0.8356
vn 0.8213 0.0000 -0.5705
vn 0.9928 0.0000 -0.1198
vn 0.9974 0.0000 0.0718
vn 0.9468 0.0000 0.3218
vn -0.2373 0.0000 0.9714
vn 0.6673 0.0000 -0.7448
vn 0.5517 0.0000 0.8340
vn 0.6385 0.0000 0.7696
vn 0.0772 0.0000 -0.9970
vn -0.8493 0.0000 -0.5280
vn -0.5378 0.0000 0.8431
vn 0.9842 0.0000 0.1769
vn -0.9859 0.0000 -0.1672
vn 0.5508 0.0000 -0.8346
vn 0.7772 0.0000 0.6293
vn -0.9632 0.0000 -0.2687
vn 0.9549 0.0000 0.2968
vn 0.9667 0.0000 0.2558
vn 0.8921 0.0000 -0.4518
vn 0.8636 0.0000 0.5043
vn 0.7816 0.0000 -0.6237
vn 0.9914 0.0000 -0.1306
vn 0.9954 0.0000 0.0958
vn -0.9839 0.0000 0.1786
vn 0.2966 0.0000 0.9550
vn -0.2835 0.0000 -0.9590
vn -0.8788 0.0000 0.4771
vn 0.8693 0.0000 -0.4942
vn 0.7510 0.0000 -0.6603
vn 0.7920 0.0000 -0.6106
vn -0.8917 0.0000 0.4526
vn -0.8537 0.0000 0.5208
vn 0.3190 0.0000 -0.9477
vn 0.2287 0.0000 -0.9735
vn 0.9604 0.0000 -0.2786
vn -0.6342 0.0000 0.7731
vn 0.7035 0.0000 -0.7107
vn -0.4576 0.0000 0.8892
vn 0.3608 0.0000 -0.9326
vn 0.9601 0.0000 0.2797
vn 0.7173 0.0000 -0.6967
vn 0.0454 0.0000 -0.9990
vn -0.7713 0.0000 0.6365
vn 0.6854 0.0000 -0.7281
vn 0.9506 0.0000 0.3103
vn -0.4208 0.0000 -0.9072
vn 0.7144 0.0000 -0.6997
vn -0.6820 0.0000 0.7313
vn 0.6216 0.0000 -0.7833
vn 0.7623 0.0000 -0.6472
vn -0.9931 0.0000 0.1176
vn -0.8493 0.0000 0.5280
vn 0.8396 0.0000 -0.5432
vn -0.8634 0.0000 -0.5045
vn -0.9676 0.0000 -0.2525
vn 0.6391 0.0000 -0.7691
vn 0.5552 0.0000 -0.8317
vn 1.0000 0.0000 0.0080
vn 0.9999 0.0000 -0.0130
vn -0.8760 0.0000 0.4824
vn 0.7766 0.0000 0.6300
vn 0.5657 0.0000 0.8246
vn 0.9991 0.0000 0.0431
vn 0.5457 0.0000 0.8380
vn 0.9097 0.0000 0.4152
vn -0.9311 0.0000 0.3648
vn -0.8688 0.0000 -0.4952
vn -0.1682 0.0000 -0.9858
vn 0.7360 0.0000 0.6770
vn -0.9901 0.0000 0.1402
vn 0.9337 0.0000 -0.3580
vn -0.7923 0.0000 -0.6101
vn -0.4730 0.0000 0.8810
vn 0.9642 0.0000 -0.2653
vn 0.8629 0.0000 0.5053
vn -0.7749 0.0000 0.6321
vn 0.9959 0.0000 -0.0909
vn 0.1065 0.0000 -0.9943
vn -0.8018 0.0000 0.5976
vn 0.7894 0.0000 0.6139
vn 0.5398 0.0000 -0.8418
vn 0.4993 0.0000 0.8664
vn -0.7582 0.0000 -0.6520
vn -0.1488 0.0000 -0.9889
vn -0.7924 0.0000 0.6100
vn 0.9998 0.0000 -0.0216
vn -0.6094 0.0000 0.7929
vn -0.9777 0.0000 0.2100
vn 0.9724 0.0000 0.2334
vn 0.9468 0.0000 0.3219
vn 0.5951 0.0000 -0.8036
vn 0.8918 0.0000 -0.4524
vn 0.9360 0.0000 -0.3520
vn 0.0845 0.0000 -0.9964
vn 0.7495 0.0000 -0.6620
vn -0.9318 0.0000 0.3629
vn -0.9994 0.0000 -0.0342
vn 0.5576 0.0000 0.8301
vn 0.4311 0.0000 -0.9023
vn -0.2900 0.0000 -0.9570
vn -0.7363 0.0000 0.6766
vn 0.9903 0.0000 0.1388
vn 0.8995 0.0000 0.4369
vn 0.1897 0.0000 0.9819
vn -0.8557 0.0000 0.5175
vn -0.5688 0.0000 0.8225
vn -0.9934 0.0000 -0.1144
vn 0.9790 0.0000 0.2041
vn 0.9044 0.0000 -0.4268
vn -0.7233 0.0000 -0.6905
vn 0.9057 0.0000 -0.4239
vn -0.1573 0.0000 -0.9875
vn 0.3458 0.0000 0.9383
vn 0.0887 0.0000 -0.9961
vn -0.2169 0.0000 -0.9762
vn -0.5257 0.0000 0.8507
vn 0.9122 0.0000 -0.4097
vn -0.7073 0.0000 -0.7069
vn 0.9991 0.0000 -0.0425
vn -0.4334 0.0000 -0.9012
vn 0.1486 0.0000 0.9889
vn 1.0000 0.0000 -0.0016
vn 0.5435 0.0000 -0.8394
vn 0.2405 0.0000 -0.9706
vn -0.4877 0.0000 -0.8730
vn -0.6105 0.0000 -0.7920
vn 0.6653 0.0000 0.7466
vn -0.8575 0.0000 -0.5145
vn 0.9815 0.0000 -0.1914
vn -0.9399 0.0000 -0.3415
vn 0.8612 0.0000 0.5083
vn 0.0951 0.0000 -0.9955
vn -0.6936 0.0000 -0.7204
usemtl SVGMat.3781
s off
f 86//1 85//1 84//1
f 86//1 84//1 83//1
f 87//1 86//1 83//1
f 87//1 83//1 82//1
f 88//1 87//1 82//1
f 88//1 82//1 81//1
f 89//1 88//1 81//1
f 89//1 81//1 80//1
f 89//1 80//1 79//1
f 90//1 89//1 79//1
f 90//1 79//1 78//1
f 91//1 90//1 78//1
f 91//1 78//1 77//1
f 91//1 77//1 76//1
f 91//1 76//1 75//1
f 92//1 91//1 75//1
f 92//1 75//1 74//1
f 70//1 69//1 68//1
f 92//1 74//1 73//1
f 71//1 70//1 68//1
f 68//1 67//1 66//1
f 71//1 68//1 66//1
f 72//1 71//1 66//1
f 93//1 92//1 73//1
f 93//1 73//1 72//1
f 93//1 72//1 66//1
f 93//1 66//1 65//1
f 93//1 65//1 64//1
f 94//1 93//1 64//1
f 95//1 94//1 64//1
f 95//1 64//1 63//1
f 96//1 95//1 63//1
f 110//1 109//1 108//1
f 110//1 108//1 107//1
f 96//1 63//1 62//1
f 111//1 110//1 107//1
f 111//1 107//1 106//1
f 96//1 62//1 61//1
f 96//1 61//1 60//1
f 111//1 106//1 105//1
f 112//1 111//1 105//1
f 97//1 96//1 60//1
f 97//1 60//1 58//1
f 97//1 58//1 57//1
f 58//1 60//1 59//1
f 112//1 105//1 104//1
f 97//1 57//1 56//1
f 112//1 104//1 103//1
f 113//1 112//1 103//1
f 113//1 103//1 102//1
f 97//1 56//1 55//1
f 102//1 101//1 100//1
f 113//1 102//1 100//1
f 97//1 55//1 54//1
f 97//1 54//1 53//1
f 113//1 100//1 99//1
f 98//1 97//1 53//1
f 114//1 113//1 99//1
f 114//1 99//1 98//1
f 98//1 53//1 52//1
f 114//1 98//1 52//1
f 114//1 52//1 51//1
f 114//1 51//1 50//1
f 115//1 114//1 50//1
f 115//1 50//1 49//1
f 116//1 115//1 49//1
f 117//1 116//1 49//1
f 118//1 117//1 49//1
f 118//1 49//1 48//1
f 119//1 118//1 48//1
f 119//1 48//1 47//1
f 119//1 47//1 46//1
f 120//1 119//1 46//1
f 120//1 46//1 45//1
f 120//1 45//1 44//1
f 121//1 120//1 44//1
f 121//1 44//1 43//1
f 121//1 43//1 42//1
f 122//1 121//1 42//1
f 122//1 42//1 41//1
f 122//1 41//1 40//1
f 123//1 122//1 40//1
f 124//1 123//1 40//1
f 124//1 40//1 39//1
f 124//1 39//1 38//1
f 124//1 38//1 37//1
f 125//1 124//1 37//1
f 125//1 37//1 36//1
f 125//1 36//1 35//1
f 125//1 35//1 34//1
f 125//1 34//1 33//1
f 28//1 27//1 26//1
f 125//1 33//1 32//1
f 28//1 26//1 25//1
f 29//1 28//1 25//1
f 125//1 32//1 31//1
f 30//1 29//1 25//1
f 125//1 31//1 30//1
f 125//1 30//1 25//1
f 126//1 125//1 25//1
f 126//1 25//1 24//1
f 23//1 22//1 21//1
f 126//1 24//1 23//1
f 126//1 23//1 21//1
f 126//1 21//1 20//1
f 127//1 126//1 20//1
f 127//1 20//1 19//1
f 128//1 127//1 19//1
f 128//1 19//1 18//1
f 128//1 18//1 17//1
f 129//1 128//1 17//1
f 129//1 17//1 16//1
f 130//1 129//1 16//1
f 131//1 130//1 16//1
f 131//1 16//1 15//1
f 132//1 131//1 15//1
f 133//1 132//1 15//1
f 133//1 15//1 14//1
f 134//1 133//1 14//1
f 134//1 14//1 13//1
f 134//1 13//1 12//1
f 134//1 12//1 11//1
f 135//1 134//1 11//1
f 135//1 11//1 10//1
f 135//1 10//1 9//1
f 135//1 9//1 8//1
f 135//1 8//1 7//1
f 135//1 7//1 6//1
f 136//1 135//1 6//1
f 136//1 6//1 5//1
f 136//1 5//1 4//1
f 137//1 136//1 4//1
f 137//1 4//1 3//1
f 137//1 3//1 2//1
f 138//1 137//1 2//1
f 138//1 2//1 1//1
f 138//1 1//1 143//1
f 139//1 138//1 143//1
f 139//1 143//1 142//1
f 140//1 139//1 142//1
f 140//1 142//1 141//1
f 174//2 173//2 183//2
f 174//2 181//2 173//2
f 182//2 181//2 174//2
f 182//2 281//2 181//2
f 206//2 281//2 182//2
f 206//2 229//2 281//2
f 169//2 229//2 206//2
f 169//2 228//2 229//2
f 169//2 168//2 228//2
f 218//2 168//2 169//2
f 218//2 262//2 168//2
f 219//2 262//2 218//2
f 219//2 165//2 262//2
f 219//2 164//2 165//2
f 219//2 256//2 164//2
f 216//2 256//2 219//2
f 216//2 246//2 256//2
f 277//2 286//2 276//2
f 216//2 249//2 246//2
f 177//2 286//2 277//2
f 286//2 212//2 283//2
f 177//2 212//2 286//2
f 178//2 212//2 177//2
f 213//2 249//2 216//2
f 213//2 178//2 249//2
f 213//2 212//2 178//2
f 213//2 270//2 212//2
f 213//2 269//2 270//2
f 209//2 269//2 213//2
f 203//2 269//2 209//2
f 203//2 202//2 269//2
f 267//2 202//2 203//2
f 200//2 226//2 251//2
f 200//2 225//2 226//2
f 267//2 278//2 202//2
f 201//2 225//2 200//2
f 201//2 261//2 225//2
f 267//2 172//2 278//2
f 267//2 147//2 172//2
f 201//2 253//2 261//2
f 254//2 253//2 201//2
f 151//2 147//2 267//2
f 151//3 257//3 147//3
f 151//2 150//2 257//2
f 257//2 146//2 147//2
f 254//2 159//2 253//2
f 151//2 197//2 150//2
f 254//2 158//2 159//2
f 238//2 158//2 254//2
f 238//2 279//2 158//2
f 151//2 149//2 197//2
f 279//2 250//2 282//2
f 238//2 250//2 279//2
f 151//2 148//2 149//2
f 151//2 204//2 148//2
f 238//2 252//2 250//2
f 224//2 204//2 151//2
f 230//2 252//2 238//2
f 230//2 224//2 252//2
f 224//2 223//2 204//2
f 230//2 223//2 224//2
f 230//2 248//2 223//2
f 230//2 247//2 248//2
f 265//2 247//2 230//2
f 265//2 260//2 247//2
f 274//2 260//2 265//2
f 273//2 260//2 274//2
f 166//2 260//2 273//2
f 166//2 271//2 260//2
f 167//2 271//2 166//2
f 167//2 220//2 271//2
f 167//2 185//2 220//2
f 205//2 185//2 167//2
f 205//2 184//2 185//2
f 205//2 152//2 184//2
f 153//2 152//2 205//2
f 153//2 163//2 152//2
f 153//2 275//2 163//2
f 199//2 275//2 153//2
f 199//2 198//2 275//2
f 199//2 234//2 198//2
f 242//2 234//2 199//2
f 192//2 234//2 242//2
f 192//2 255//2 234//2
f 192//2 268//2 255//2
f 192//2 215//2 268//2
f 180//2 215//2 192//2
f 180//2 214//2 215//2
f 180//2 244//2 214//2
f 180//2 179//2 244//2
f 180//2 157//2 179//2
f 259//2 208//2 285//2
f 180//2 156//2 157//2
f 259//2 207//2 208//2
f 193//2 207//2 259//2
f 180//2 235//2 156//2
f 194//2 207//2 193//2
f 180//2 194//2 235//2
f 180//2 207//2 194//2
f 154//2 207//2 180//2
f 154//2 162//2 207//2
f 217//2 190//2 191//2
f 154//2 217//2 162//2
f 154//3 190//3 217//3
f 154//2 263//2 190//2
f 155//2 263//2 154//2
f 155//2 231//2 263//2
f 211//2 231//2 155//2
f 211//2 210//2 231//2
f 211//2 258//2 210//2
f 188//2 258//2 211//2
f 188//2 232//2 258//2
f 189//2 232//2 188//2
f 239//2 232//2 189//2
f 239//2 264//2 232//2
f 240//2 264//2 239//2
f 266//2 264//2 240//2
f 266//2 221//2 264//2
f 222//2 221//2 266//2
f 222//2 171//2 221//2
f 222//2 170//2 171//2
f 222//2 272//2 170//2
f 241//2 272//2 222//2
f 241//2 196//2 272//2
f 241//2 195//2 196//2
f 241//2 284//2 195//2
f 241//2 227//2 284//2
f 241//2 145//2 227//2
f 161//2 145//2 241//2
f 161//2 144//2 145//2
f 161//2 160//2 144//2
f 243//2 160//2 161//2
f 243//2 237//2 160//2
f 243//2 236//2 237//2
f 186//2 236//2 243//2
f 186//2 245//2 236//2
f 186//2 280//2 245//2
f 187//2 280//2 186//2
f 187//2 176//2 280//2
f 233//2 176//2 187//2
f 233//2 175//2 176//2
f 39//4 40//4 234//4 255//4
f 115//5 116//5 274//5 265//5
f 142//6 143//6 280//6 176//6
f 108//7 109//7 251//7 226//7
f 36//8 37//8 215//8 214//8
f 47//9 48//9 271//9 220//9
f 83//10 84//10 173//10 181//10
f 101//11 102//11 279//11 282//11
f 92//12 93//12 213//12 216//12
f 7//13 8//13 284//13 227//13
f 75//14 76//14 164//14 256//14
f 43//15 44//15 152//15 163//15
f 41//16 42//16 275//16 198//16
f 13//17 14//17 221//17 171//17
f 58//18 59//18 146//18 257//18
f 73//19 74//19 246//19 249//19
f 56//20 57//20 150//20 197//20
f 17//21 18//21 210//21 258//21
f 69//22 70//22 277//22 276//22
f 28//23 29//23 193//23 259//23
f 134//24 135//24 241//24 222//24
f 62//25 63//25 202//25 278//25
f 114//26 115//26 265//26 230//26
f 26//27 27//27 285//27 208//27
f 105//28 106//28 261//28 253//28
f 89//29 90//29 218//29 169//29
f 46//30 47//30 220//30 185//30
f 5//31 6//31 145//31 144//31
f 20//32 21//32 190//32 263//32
f 42//33 43//33 163//33 275//33
f 59//34 60//34 147//34 146//34
f 15//35 16//35 232//35 264//35
f 11//36 12//36 170//36 272//36
f 140//37 141//37 175//37 233//37
f 54//38 55//38 149//38 148//38
f 93//39 94//39 209//39 213//39
f 123//40 124//40 192//40 242//40
f 107//41 108//41 226//41 225//41
f 99//42 100//42 250//42 252//42
f 6//43 7//43 227//43 145//43
f 125//44 126//44 154//44 180//44
f 126//45 127//45 155//45 154//45
f 68//46 69//46 276//46 286//46
f 80//47 81//47 229//47 228//47
f 32//48 33//48 157//48 156//48
f 133//49 134//49 222//49 266//49
f 103//50 104//50 159//50 158//50
f 139//51 140//51 233//51 187//51
f 102//52 103//52 158//52 279//52
f 18//53 19//53 231//53 210//53
f 81//54 82//54 281//54 229//54
f 30//55 31//55 235//55 194//55
f 120//56 121//56 153//56 205//56
f 76//57 77//57 165//57 164//57
f 143//58 1//58 245//58 280//58
f 70//59 71//59 177//59 277//59
f 65//60 66//60 212//60 270//60
f 118//61 119//61 167//61 166//61
f 79//62 80//62 228//62 168//62
f 33//63 34//63 179//63 157//63
f 117//64 118//64 166//64 273//64
f 121//65 122//65 199//65 153//65
f 12//66 13//66 171//66 170//66
f 90//67 91//67 219//67 218//67
f 130//68 131//68 239//68 189//68
f 31//69 32//69 156//69 235//69
f 60//70 61//70 172//70 147//70
f 37//71 38//71 268//71 215//71
f 16//72 17//72 258//72 232//72
f 128//73 129//73 188//73 211//73
f 63//74 64//74 269//74 202//74
f 53//75 54//75 148//75 204//75
f 2//76 3//76 237//76 236//76
f 141//77 142//77 176//77 175//77
f 14//78 15//78 264//78 221//78
f 113//79 114//79 230//79 238//79
f 95//80 96//80 267//80 203//80
f 71//81 72//81 178//81 177//81
f 51//82 52//82 223//82 248//82
f 131//83 132//83 240//83 239//83
f 82//84 83//84 181//84 281//84
f 116//85 117//85 273//85 274//85
f 135//86 136//86 161//86 241//86
f 24//87 25//87 207//87 162//87
f 49//88 50//88 247//88 260//88
f 122//89 123//89 242//89 199//89
f 74//90 75//90 256//90 246//90
f 84//91 85//91 183//91 173//91
f 127//92 128//92 211//92 155//92
f 44//93 45//93 184//93 152//93
f 100//94 101//94 282//94 250//94
f 45//95 46//95 185//95 184//95
f 97//96 98//96 224//96 151//96
f 85//97 86//97 174//97 183//97
f 86//98 87//98 182//98 174//98
f 106//99 107//99 225//99 261//99
f 138//100 139//100 187//100 186//100
f 129//101 130//101 189//101 188//101
f 64//102 65//102 270//102 269//102
f 48//103 49//103 260//103 271//103
f 35//104 36//104 214//104 244//104
f 78//105 79//105 168//105 262//105
f 19//106 20//106 263//106 231//106
f 21//107 22//107 191//107 190//107
f 61//108 62//108 278//108 172//108
f 124//109 125//109 180//109 192//109
f 112//110 113//110 238//110 254//110
f 1//111 2//111 236//111 245//111
f 66//112 67//112 283//112 212//112
f 29//113 30//113 194//113 193//113
f 137//114 138//114 186//114 243//114
f 9//115 10//115 196//115 195//115
f 10//116 11//116 272//116 196//116
f 55//117 56//117 197//117 149//117
f 132//118 133//118 266//118 240//118
f 136//119 137//119 243//119 161//119
f 87//120 88//120 206//120 182//120
f 50//121 51//121 248//121 247//121
f 8//122 9//122 195//122 284//122
f 110//123 111//123 201//123 200//123
f 40//124 41//124 198//124 234//124
f 22//125 23//125 217//125 191//125
f 52//126 53//126 204//126 223//126
f 72//127 73//127 249//127 178//127
f 67//128 68//128 286//128 283//128
f 119//129 120//129 205//129 167//129
f 38//130 39//130 255//130 268//130
f 88//131 89//131 169//131 206//131
f 77//132 78//132 262//132 165//132
f 109//133 110//133 200//133 251//133
f 57//134 58//134 257//134 150//134
f 25//135 26//135 208//135 207//135
f 23//136 24//136 162//136 217//136
f 98//137 99//137 252//137 224//137
f 27//138 28//138 259//138 285//138
f 94//139 95//139 203//139 209//139
f 3//140 4//140 160//140 237//140
f 111//141 112//141 254//141 201//141
f 104//142 105//142 253//142 159//142
f 96//143 97//143 151//143 267//143
f 4//144 5//144 144//144 160//144
f 34//145 35//145 244//145 179//145
f 91//146 92//146 216//146 219//146
