# Blender v2.79 (sub 0) OBJ File: 'world_countrycodes_outlines2.blend'
# www.blender.org
mtllib PE_outline.mtl
o PE.001_CUCurve.061
v 0.555422 -0.000708 0.761387
v 0.556302 0.001587 0.758997
v 0.554996 -0.000852 0.758992
v 0.551515 0.001931 0.752645
v 0.550721 -0.001706 0.750989
v 0.547330 0.001416 0.751423
v 0.546933 -0.000756 0.751667
v 0.549466 0.000927 0.748688
v 0.529286 -0.000746 0.741839
v 0.529157 0.001395 0.741154
v 0.524300 -0.001327 0.734060
v 0.522010 -0.001949 0.734364
v 0.531308 0.000663 0.738473
v 0.524488 0.000796 0.732693
v 0.520604 0.000075 0.734342
v 0.521923 0.001922 0.734267
v 0.521964 0.001920 0.729121
v 0.520731 -0.000709 0.729300
v 0.523821 -0.001907 0.728673
v 0.524622 0.000773 0.727908
v 0.515445 0.000783 0.713209
v 0.508730 -0.001973 0.702652
v 0.506506 0.001943 0.700084
v 0.505839 -0.000923 0.701089
v 0.505727 0.001729 0.693895
v 0.509223 -0.000735 0.698443
v 0.499993 -0.000805 0.691905
v 0.500338 0.001393 0.691530
v 0.502389 -0.001365 0.689080
v 0.494042 -0.001931 0.686596
v 0.493743 0.000810 0.687763
v 0.496673 -0.000946 0.685908
v 0.493647 0.001946 0.684834
v 0.492543 -0.000705 0.684378
v 0.494799 0.001006 0.682796
v 0.496803 0.001680 0.685352
v 0.498639 0.000011 0.684922
v 0.497403 -0.002007 0.684154
v 0.494585 -0.001142 0.683463
v 0.491871 -0.000793 0.676930
v 0.492990 0.001931 0.676588
v 0.495873 0.000777 0.676875
v 0.494699 -0.001919 0.676979
v 0.495712 0.000531 0.670304
v 0.497126 -0.001963 0.670614
v 0.498338 0.000853 0.673244
v 0.498617 -0.001268 0.672784
v 0.499008 0.001894 0.669810
v 0.499415 -0.000688 0.668767
v 0.501975 0.000817 0.671640
v 0.501352 -0.001888 0.672653
v 0.500606 0.001688 0.675441
v 0.497956 0.001930 0.675349
v 0.496770 -0.000002 0.675330
v 0.497881 -0.001863 0.675480
v 0.501433 -0.000596 0.675160
v 0.501674 0.001052 0.679117
v 0.499849 -0.000958 0.678793
v 0.503297 -0.002195 0.676674
v 0.503112 0.002049 0.677482
v 0.504375 0.000713 0.675093
v 0.506395 0.000896 0.677570
v 0.506141 0.001899 0.680606
v 0.505016 0.000019 0.681418
v 0.507276 -0.001903 0.681013
v 0.506573 -0.001401 0.678204
v 0.508612 0.000814 0.681177
v 0.510378 0.000684 0.667841
v 0.512464 0.001993 0.669690
v 0.511280 -0.001928 0.668670
v 0.513244 -0.000756 0.670773
v 0.519732 -0.000733 0.664351
v 0.522880 0.001935 0.665973
v 0.523556 -0.000822 0.666799
v 0.523326 -0.001917 0.663677
v 0.523018 0.000943 0.662433
v 0.530444 -0.000662 0.656653
v 0.529803 0.001452 0.656266
v 0.528528 -0.001979 0.656894
v 0.526342 -0.000760 0.655509
v 0.527866 0.002003 0.655667
v 0.530086 -0.000753 0.653971
v 0.529146 0.001776 0.653175
v 0.525130 -0.001963 0.651994
v 0.523396 0.000935 0.651380
v 0.532922 -0.000080 0.650740
v 0.532471 0.001864 0.651798
v 0.532205 -0.001934 0.651912
v 0.534966 -0.001525 0.655423
v 0.533136 0.002143 0.656977
v 0.532449 -0.000683 0.658487
v 0.536300 0.001048 0.660097
v 0.537267 -0.001945 0.659255
v 0.537465 0.001969 0.657439
v 0.539482 -0.000966 0.657932
v 0.540383 0.000827 0.660560
v 0.536707 -0.000808 0.662253
v 0.542687 0.000634 0.663529
v 0.539298 -0.000970 0.666171
v 0.540031 0.001933 0.664993
v 0.541646 -0.002007 0.664472
v 0.541676 0.000656 0.667598
v 0.548623 -0.001399 0.666268
v 0.546976 -0.001945 0.664458
v 0.549084 0.001390 0.666204
v 0.549318 -0.000457 0.666823
v 0.547456 0.000827 0.662962
v 0.550895 0.001997 0.664251
v 0.554109 0.000690 0.662487
v 0.553656 0.000694 0.666460
v 0.556661 -0.001779 0.666572
v 0.551521 -0.001189 0.663010
v 0.559464 0.000890 0.665268
v 0.556382 0.000773 0.667835
v 0.559702 -0.001865 0.666894
v 0.560699 -0.000007 0.667901
v 0.559456 0.001902 0.667882
v 0.553591 0.001510 0.672610
v 0.553059 -0.001074 0.672428
v 0.555479 0.001791 0.673788
v 0.556032 -0.001986 0.672224
v 0.557590 0.000833 0.671939
v 0.553708 0.000007 0.673363
v 0.555902 -0.001852 0.674165
v 0.563039 -0.000694 0.677547
v 0.560530 0.001977 0.676479
v 0.556184 -0.000689 0.677343
v 0.555841 0.001947 0.676070
v 0.552446 0.000763 0.674669
v 0.543907 0.001946 0.680661
v 0.547671 -0.001454 0.676579
v 0.549203 -0.000869 0.679566
v 0.546990 0.000763 0.676315
v 0.544318 -0.000840 0.682019
v 0.541116 0.000671 0.679307
v 0.542091 -0.001943 0.680153
v 0.542488 0.000533 0.686553
v 0.538710 0.001357 0.687305
v 0.538352 -0.000795 0.687016
v 0.541229 -0.001954 0.686787
v 0.541074 0.002015 0.688939
v 0.542051 -0.000767 0.689570
v 0.539138 0.000966 0.691467
v 0.535872 0.001657 0.691935
v 0.535392 -0.000679 0.689996
v 0.537320 -0.002050 0.691530
v 0.538941 0.000800 0.694933
v 0.535975 0.002016 0.695097
v 0.537618 -0.001951 0.695038
v 0.534772 -0.000789 0.695806
v 0.539010 -0.000771 0.702830
v 0.541583 -0.002031 0.705106
v 0.540703 0.001903 0.705380
v 0.542734 0.001311 0.703605
v 0.543266 -0.000732 0.703474
v 0.539298 -0.000773 0.705654
v 0.542910 -0.000795 0.707690
v 0.545085 -0.001846 0.704890
v 0.545684 0.000734 0.704183
v 0.546886 -0.000000 0.706892
v 0.544391 0.001981 0.707166
v 0.544762 0.000827 0.710446
v 0.545864 -0.002075 0.709312
v 0.552701 0.001903 0.709700
v 0.551073 0.000822 0.707051
v 0.552942 -0.000039 0.710787
v 0.552817 -0.001942 0.709513
v 0.551357 -0.001451 0.707476
v 0.554137 -0.000867 0.708414
v 0.554430 0.001987 0.706932
v 0.555624 -0.001944 0.705388
v 0.554113 0.000777 0.704168
v 0.557017 0.000892 0.705733
v 0.557241 0.000774 0.712889
v 0.555554 0.001930 0.715770
v 0.554922 -0.001940 0.715483
v 0.554013 0.000735 0.716287
v 0.556819 -0.001431 0.713551
v 0.560769 0.000730 0.716384
v 0.561633 -0.001858 0.715420
v 0.563303 -0.000826 0.712672
v 0.562520 0.001949 0.713858
v 0.564441 0.001007 0.723417
v 0.565667 -0.001982 0.723738
v 0.567325 0.001914 0.723288
v 0.568446 -0.000848 0.724264
v 0.565773 0.001416 0.726667
v 0.563390 0.001920 0.725648
v 0.566242 -0.000819 0.726843
v 0.562352 -0.000016 0.725283
v 0.563424 -0.001937 0.725852
v 0.563111 -0.000640 0.733821
v 0.564915 -0.001938 0.737426
v 0.567093 0.000701 0.734531
v 0.563901 0.001996 0.736586
v 0.565880 0.000741 0.738548
v 0.561948 0.001347 0.738347
v 0.561465 -0.000739 0.738562
v 0.561339 0.001922 0.743532
v 0.564941 -0.000399 0.742984
v 0.560396 -0.000870 0.742913
v 0.562267 -0.000062 0.746667
v 0.562838 -0.001752 0.745776
v 0.566894 0.000871 0.745440
v 0.563878 0.001856 0.746260
v 0.565754 -0.001832 0.745385
v 0.563135 -0.000786 0.752390
v 0.560430 -0.001948 0.750703
v 0.562021 0.001937 0.751837
v 0.559320 0.000790 0.750255
v 0.561005 -0.000729 0.758125
v 0.560437 0.001432 0.757895
v 0.558002 0.001894 0.756905
v 0.558305 -0.000045 0.755602
v 0.557868 -0.001960 0.757100
vn 0.5578 0.6702 0.4895
vn -0.4335 -0.1839 0.8822
vn 0.7313 -0.3887 0.5604
vn -0.0041 0.9958 -0.0909
vn -0.2026 0.8267 0.5248
vn -0.7316 -0.4976 0.4660
vn -0.5716 -0.1004 -0.8144
vn 0.2752 0.8954 -0.3499
vn -0.4360 0.6310 0.6416
vn 0.3992 -0.8148 -0.4205
vn 0.0501 -0.9987 0.0096
vn -0.4877 -0.5117 0.7073
vn -0.4895 -0.4393 0.7532
vn -0.4223 0.6754 0.6045
vn 0.5013 0.2775 -0.8195
vn 0.5878 0.3178 -0.7439
vn -0.3941 0.8943 0.2120
vn -0.4268 -0.8663 0.2595
vn 0.5148 -0.7843 -0.3461
vn 0.8038 0.5248 -0.2801
vn -0.9297 0.0270 0.3674
vn -0.8959 -0.4112 0.1682
vn -0.2447 0.9682 0.0514
vn 0.5119 -0.8485 -0.1339
vn 0.8957 0.3664 -0.2519
vn -0.3846 0.8860 0.2588
vn 0.0775 -0.9967 0.0220
vn 0.8306 0.2306 -0.5069
vn -0.8157 -0.3280 0.4764
vn 0.8436 -0.3261 -0.4266
vn -0.5534 -0.5866 0.5912
vn 0.5562 -0.5962 -0.5788
vn -0.4740 -0.8397 0.2649
vn -0.4546 0.7296 0.5109
vn -0.7255 0.3272 0.6054
vn -0.5343 0.8298 -0.1608
vn 0.4190 0.8867 -0.1953
vn 0.5394 0.7310 -0.4178
vn 0.5976 -0.8008 0.0391
vn -0.8975 -0.3108 -0.3128
vn 0.4961 -0.8664 0.0566
vn -0.7569 0.6526 -0.0333
vn -0.5704 -0.8029 -0.1731
vn 0.1865 -0.9817 0.0385
vn -0.9424 -0.3321 -0.0409
vn 0.9429 0.0904 0.3205
vn 0.8668 0.4750 0.1513
vn -0.5358 0.8426 -0.0537
vn -0.6650 0.2253 -0.7120
vn 0.0934 0.8163 -0.5700
vn -0.2804 -0.8565 -0.4332
vn -0.0327 0.9884 0.1481
vn -0.0958 -0.9869 0.1294
vn 0.2338 -0.2839 -0.9299
vn 0.8924 0.3515 -0.2829
vn 0.2418 0.9093 -0.3386
vn -0.5202 0.8523 0.0541
vn -0.9943 0.0406 0.0987
vn -0.3218 0.3871 0.8640
vn -0.5383 -0.8367 0.1002
vn -0.3540 -0.3588 0.8636
vn 0.6063 -0.5249 -0.5973
vn 0.1079 -0.9688 -0.2229
vn 0.0554 0.9983 0.0201
vn 0.4330 0.2475 -0.8667
vn -0.0415 -0.9048 -0.4237
vn -0.1801 0.7472 -0.6397
vn -0.4364 -0.0538 0.8981
vn -0.0967 0.8711 0.4815
vn 0.5988 0.3105 0.7382
vn 0.1841 -0.7565 0.6275
vn 0.1040 0.9878 0.1156
vn -0.3406 -0.8694 -0.3578
vn -0.6770 0.2972 -0.6733
vn 0.6438 -0.4436 0.6235
vn -0.3449 -0.4126 -0.8430
vn -0.6961 0.4280 -0.5765
vn 0.3377 0.8497 0.4049
vn 0.5637 -0.3536 0.7465
vn 0.9385 -0.2644 0.2221
vn 0.7315 0.6632 0.1584
vn -0.1218 -0.9780 -0.1691
vn 0.2170 -0.9735 0.0710
vn -0.9284 -0.3168 0.1943
vn 0.1045 -0.9095 0.4024
vn -0.0001 0.9999 0.0088
vn -0.5004 -0.7985 -0.3345
vn -0.2026 0.9790 0.0202
vn -0.8625 0.3072 -0.4022
vn 0.3986 0.7839 -0.4760
vn 0.5255 -0.0125 -0.8507
vn 0.1831 -0.9059 -0.3818
vn 0.4877 -0.7175 -0.4973
vn -0.2203 0.9555 0.1961
vn -0.6660 -0.3472 0.6601
vn -0.6286 0.5542 0.5457
vn -0.1721 -0.9805 0.0948
vn 0.3034 0.8122 -0.4983
vn 0.6791 -0.3597 -0.6399
vn -0.8533 -0.3291 0.4045
vn 0.3183 0.3020 -0.8986
vn 0.7349 0.4068 -0.5427
vn -0.3316 0.8939 0.3018
vn 0.1154 -0.9920 -0.0514
vn -0.6085 -0.4096 0.6796
vn -0.1913 0.2356 0.9528
vn -0.0401 -0.9296 -0.3664
vn -0.0723 0.2443 -0.9670
vn 0.0175 0.9491 -0.3145
vn 0.6173 -0.7713 0.1549
vn 0.0514 -0.2659 0.9626
vn 0.0057 -0.5322 -0.8466
vn -0.2312 -0.9674 0.1027
vn 0.1968 0.2413 -0.9503
vn -0.2056 0.3063 0.9294
vn 0.0368 0.7523 0.6578
vn 0.5805 -0.7845 -0.2180
vn 0.6256 0.3434 -0.7005
vn -0.7295 0.6483 0.2179
vn 0.4740 0.8786 0.0578
vn 0.9889 -0.0251 0.1462
vn 0.1042 -0.9913 -0.0805
vn -0.8966 -0.4399 0.0499
vn -0.7438 0.6612 0.0979
vn -0.1388 0.9891 -0.0481
vn -0.1018 -0.9885 0.1117
vn -0.9579 -0.1142 0.2636
vn 0.9254 0.3611 0.1153
vn 0.8861 -0.2228 0.4063
vn 0.4527 0.8524 0.2616
vn 0.1433 -0.4115 0.9001
vn -0.0159 0.9161 0.4006
vn -0.3965 0.4624 -0.7930
vn 0.1414 0.9817 0.1272
vn 0.3027 -0.4219 0.8546
vn -0.3554 -0.8738 -0.3318
vn -0.2922 -0.6188 -0.7292
vn -0.3284 0.4582 -0.8259
vn 0.7076 -0.4659 0.5313
vn -0.7144 0.3169 -0.6238
vn 0.9536 0.0495 0.2969
vn 0.4365 0.8567 0.2748
vn -0.7497 -0.4704 -0.4654
vn 0.3026 -0.9508 0.0661
vn 0.8128 -0.3094 0.4935
vn 0.6435 0.4484 0.6203
vn -0.5574 0.7502 -0.3556
vn -0.6744 0.7284 -0.1208
vn -0.1172 -0.9872 0.1080
vn -0.9396 -0.2820 -0.1939
vn 0.8696 0.4202 -0.2592
vn 0.2717 -0.9603 -0.0625
vn -0.9272 -0.3407 0.1557
vn -0.4170 0.8290 0.3725
vn -0.4190 0.9070 0.0425
vn -0.8349 -0.4245 0.3502
vn 0.4029 0.7973 -0.4494
vn -0.1061 -0.9845 0.1394
vn -0.8366 -0.2484 0.4882
vn -0.6017 -0.4107 0.6850
vn -0.1404 0.9821 0.1257
vn 0.6619 0.3716 -0.6509
vn 0.5286 -0.4546 -0.7168
vn 0.4085 -0.8186 -0.4038
vn 0.4677 -0.2128 -0.8579
vn -0.1576 -0.9048 0.3955
vn -0.4754 0.3160 0.8211
vn 0.3498 0.8297 0.4350
vn -0.2105 -0.7744 -0.5966
vn -0.2352 0.5314 -0.8137
vn 0.4780 -0.0073 0.8783
vn 0.2902 -0.8444 0.4503
vn 0.0341 -0.7619 0.6467
vn -0.0059 0.9927 -0.1203
vn 0.3386 -0.7739 -0.5351
vn -0.1621 0.2865 -0.9442
vn 0.8275 0.3408 -0.4461
vn -0.4197 -0.7776 0.4682
vn 0.5629 0.5918 -0.5770
vn 0.3372 -0.8880 -0.3127
vn -0.1622 0.8855 0.4354
vn -0.7134 0.1833 0.6763
vn 0.5128 -0.3233 -0.7953
vn -0.3931 0.4478 0.8030
vn -0.0927 -0.9867 0.1332
vn -0.7878 0.5577 -0.2611
vn 0.5865 0.8081 -0.0547
vn 0.2969 0.8494 -0.4363
vn -0.0785 -0.9968 -0.0127
vn 0.9291 -0.3364 0.1536
vn -0.5017 0.8549 -0.1319
vn -0.4283 -0.8888 -0.1632
vn 0.5725 0.7935 0.2065
vn 0.7908 -0.5651 0.2351
vn -0.9344 -0.0318 -0.3548
vn -0.9559 -0.2921 -0.0288
vn 0.3500 -0.9355 0.0486
vn 0.9606 0.2664 0.0785
vn -0.1216 0.9877 -0.0983
vn 0.8944 0.3776 0.2395
vn -0.7743 0.5822 -0.2478
vn -0.8620 -0.4490 -0.2352
vn 0.9733 -0.0654 -0.2201
vn -0.5267 0.8420 0.1164
vn -0.9174 -0.3957 0.0401
vn -0.3839 -0.9223 -0.0429
vn -0.9791 0.1356 -0.1515
vn -0.0372 0.9991 -0.0168
vn 0.9179 0.3765 -0.1252
vn 0.5698 -0.8077 -0.1513
vn 0.8137 -0.4007 0.4209
vn -0.4260 -0.8891 -0.1672
vn -0.8455 0.3365 -0.4147
vn 0.3331 0.9303 0.1534
vn 0.6051 -0.7938 -0.0612
usemtl SVGMat.3781
s 1
f 212//1 1//2 211//3
f 213//4 2//5 212//1
f 2//5 3//6 1//2
f 214//7 4//8 213//4
f 4//8 6//9 2//5
f 3//6 5//10 215//11
f 6//9 7//12 3//6
f 6//9 9//13 7//12
f 4//8 10//14 6//9
f 5//10 13//15 8//16
f 8//16 16//17 4//8
f 9//13 12//18 5//10
f 11//19 14//20 13//15
f 10//14 15//21 9//13
f 15//21 18//22 12//18
f 17//23 18//22 15//21
f 14//20 17//23 16//17
f 18//22 19//24 12//18
f 19//24 20//25 14//20
f 20//25 23//26 17//23
f 22//27 21//28 20//25
f 18//22 22//27 19//24
f 23//26 24//29 18//22
f 22//27 26//30 21//28
f 24//29 27//31 22//27
f 23//26 27//31 24//29
f 22//27 29//32 26//30
f 27//31 29//32 22//27
f 27//31 30//33 29//32
f 28//34 31//35 27//31
f 33//36 31//35 28//34
f 29//32 36//37 25//38
f 30//33 32//39 29//32
f 34//40 38//41 30//33
f 33//36 35//42 34//40
f 35//42 39//43 34//40
f 39//43 43//44 38//41
f 35//42 40//45 39//43
f 37//46 42//47 36//37
f 38//41 42//47 37//46
f 41//48 44//49 40//45
f 42//47 48//50 41//48
f 40//45 45//51 43//44
f 43//44 46//52 42//47
f 45//51 47//53 43//44
f 44//49 49//54 45//51
f 48//50 49//54 44//49
f 48//50 50//55 49//54
f 46//52 52//56 48//50
f 46//52 53//57 52//56
f 47//53 54//58 46//52
f 54//58 57//59 53//57
f 55//60 58//61 54//58
f 56//62 59//63 55//60
f 57//59 60//64 53//57
f 52//56 61//65 56//62
f 60//64 61//65 52//56
f 61//65 66//66 59//63
f 60//64 62//67 61//65
f 59//63 64//68 57//59
f 64//68 63//69 60//64
f 64//68 67//70 63//69
f 65//71 67//70 64//68
f 67//70 69//72 63//69
f 66//66 70//73 65//71
f 68//74 70//73 66//66
f 69//72 68//74 62//67
f 65//71 71//75 67//70
f 70//73 71//75 65//71
f 68//74 72//76 70//73
f 69//72 76//77 68//74
f 71//75 73//78 69//72
f 70//73 74//79 71//75
f 77//80 78//81 73//78
f 75//82 79//83 74//79
f 76//77 80//84 75//82
f 82//85 83//86 78//81
f 79//83 82//85 77//80
f 80//84 84//87 79//83
f 81//88 85//89 80//84
f 83//86 85//89 81//88
f 83//86 87//90 85//89
f 86//91 88//92 84//87
f 86//91 89//93 88//92
f 87//90 89//93 86//91
f 82//85 90//94 83//86
f 88//92 91//95 82//85
f 91//95 92//96 90//94
f 89//93 93//97 91//95
f 92//96 94//98 90//94
f 94//98 95//99 89//93
f 93//97 97//100 92//96
f 94//98 98//101 96//102
f 92//96 100//103 94//98
f 95//99 101//104 93//97
f 98//101 101//104 95//99
f 99//105 100//103 92//96
f 101//104 99//105 97//100
f 99//105 102//106 100//103
f 98//101 104//107 101//104
f 100//103 107//108 98//101
f 102//106 108//109 100//103
f 101//104 103//110 99//105
f 103//110 106//111 102//106
f 107//108 112//112 104//107
f 104//107 106//111 103//110
f 112//112 111//113 104//107
f 108//109 109//114 112//112
f 106//111 110//115 105//116
f 109//114 115//117 112//112
f 108//109 113//118 109//114
f 111//113 114//119 110//115
f 112//112 115//117 111//113
f 114//119 117//120 108//109
f 116//121 121//122 115//117
f 111//113 119//123 114//119
f 115//117 119//123 111//113
f 118//124 120//125 117//120
f 121//122 124//126 119//123
f 123//127 120//125 118//124
f 122//128 125//129 121//122
f 126//130 127//131 125//129
f 120//125 128//132 126//130
f 124//126 129//133 123//127
f 130//134 132//135 127//131
f 129//133 130//134 128//132
f 127//131 136//136 124//126
f 131//137 133//138 129//133
f 130//134 134//139 132//135
f 131//137 135//140 133//138
f 130//134 137//141 134//139
f 135//140 141//142 130//134
f 136//136 139//143 135//140
f 134//139 140//144 136//136
f 137//141 142//145 140//144
f 141//142 142//145 137//141
f 141//142 143//146 142//145
f 138//147 144//148 141//142
f 142//145 146//149 140//144
f 146//149 145//150 139//143
f 145//150 144//148 138//147
f 144//148 147//151 143//146
f 146//149 144//148 145//150
f 147//151 149//152 146//149
f 149//152 150//153 146//149
f 150//153 153//154 148//155
f 149//152 151//156 150//153
f 153//154 154//157 147//151
f 152//158 156//159 151//156
f 152//158 157//160 156//159
f 161//161 159//162 154//157
f 157//160 161//161 153//154
f 155//163 158//164 152//158
f 160//165 163//166 158//164
f 157//160 162//167 161//161
f 162//167 164//168 161//161
f 160//165 168//169 163//166
f 161//161 165//170 160//165
f 164//168 165//170 161//161
f 163//166 166//171 162//167
f 167//172 169//173 166//171
f 169//173 170//174 164//168
f 168//169 171//175 167//172
f 170//174 172//176 165//170
f 172//176 171//175 168//169
f 170//174 173//177 172//176
f 171//175 176//178 169//173
f 174//179 178//180 171//175
f 175//181 174//179 173//177
f 169//173 177//182 170//174
f 176//178 177//182 169//173
f 174//179 181//183 178//180
f 177//182 179//184 175//181
f 176//178 179//184 177//182
f 181//183 180//185 176//178
f 183//186 185//187 182//188
f 181//183 184//189 180//185
f 185//187 186//190 181//183
f 184//189 183//186 179//184
f 183//186 188//191 185//187
f 186//190 191//192 184//189
f 187//193 189//194 186//190
f 184//189 190//195 183//186
f 191//192 192//196 190//195
f 189//194 193//197 191//192
f 187//193 194//198 189//194
f 188//191 194//198 187//193
f 192//196 195//199 188//191
f 193//197 192//196 191//192
f 195//199 196//200 194//198
f 192//196 197//201 195//199
f 193//197 198//202 192//196
f 196//200 200//203 193//197
f 197//201 199//204 195//199
f 193//197 201//205 198//202
f 200//203 203//206 193//197
f 199//204 200//203 196//200
f 198//202 199//204 197//201
f 202//207 205//208 199//204
f 199//204 204//209 200//203
f 200//203 206//210 203//206
f 204//209 207//211 206//210
f 206//210 208//212 203//206
f 202//207 210//213 205//208
f 208//212 210//213 202//207
f 209//214 211//3 207//211
f 210//213 213//4 209//214
f 208//212 214//7 210//213
f 207//211 215//11 208//212
f 212//1 2//5 1//2
f 211//3 1//2 215//11
f 1//2 3//6 215//11
f 215//11 5//10 214//7
f 213//4 4//8 2//5
f 214//7 5//10 4//8
f 2//5 6//9 3//6
f 5//10 8//16 4//8
f 3//6 7//12 5//10
f 6//9 10//14 9//13
f 5//10 11//19 13//15
f 7//12 9//13 5//10
f 4//8 16//17 10//14
f 5//10 12//18 11//19
f 8//16 13//15 16//17
f 13//15 14//20 16//17
f 9//13 15//21 12//18
f 10//14 16//17 15//21
f 16//17 17//23 15//21
f 12//18 19//24 11//19
f 11//19 19//24 14//20
f 14//20 20//25 17//23
f 20//25 21//28 23//26
f 19//24 22//27 20//25
f 17//23 23//26 18//22
f 18//22 24//29 22//27
f 21//28 25//38 23//26
f 21//28 26//30 25//38
f 23//26 28//34 27//31
f 26//30 29//32 25//38
f 23//26 25//38 28//34
f 25//38 33//36 28//34
f 27//31 31//35 30//33
f 25//38 36//37 33//36
f 29//32 32//39 36//37
f 31//35 34//40 30//33
f 31//35 33//36 34//40
f 30//33 38//41 32//39
f 34//40 39//43 38//41
f 33//36 36//37 35//42
f 32//39 37//46 36//37
f 32//39 38//41 37//46
f 36//37 41//48 35//42
f 35//42 41//48 40//45
f 36//37 42//47 41//48
f 38//41 43//44 42//47
f 39//43 40//45 43//44
f 40//45 44//49 45//51
f 41//48 48//50 44//49
f 42//47 46//52 48//50
f 43//44 47//53 46//52
f 49//54 50//55 51//215
f 49//54 51//215 45//51
f 48//50 52//56 50//55
f 45//51 51//215 47//53
f 50//55 56//62 51//215
f 50//55 52//56 56//62
f 51//215 55//60 47//53
f 46//52 54//58 53//57
f 47//53 55//60 54//58
f 51//215 56//62 55//60
f 54//58 58//61 57//59
f 55//60 59//63 58//61
f 58//61 59//63 57//59
f 53//57 60//64 52//56
f 56//62 61//65 59//63
f 61//65 62//67 66//66
f 60//64 63//69 62//67
f 57//59 64//68 60//64
f 59//63 65//71 64//68
f 59//63 66//66 65//71
f 62//67 68//74 66//66
f 63//69 69//72 62//67
f 67//70 71//75 69//72
f 68//74 76//77 72//76
f 69//72 73//78 76//77
f 71//75 74//79 73//78
f 70//73 75//82 74//79
f 70//73 72//76 75//82
f 72//76 76//77 75//82
f 74//79 77//80 73//78
f 73//78 81//88 76//77
f 73//78 78//81 81//88
f 74//79 79//83 77//80
f 76//77 81//88 80//84
f 75//82 80//84 79//83
f 77//80 82//85 78//81
f 78//81 83//86 81//88
f 79//83 84//87 82//85
f 80//84 85//89 84//87
f 85//89 86//91 84//87
f 85//89 87//90 86//91
f 84//87 88//92 82//85
f 87//90 90//94 89//93
f 83//86 90//94 87//90
f 82//85 91//95 90//94
f 88//92 89//93 91//95
f 91//95 93//97 92//96
f 90//94 94//98 89//93
f 89//93 95//99 93//97
f 94//98 96//102 95//99
f 96//102 98//101 95//99
f 97//100 99//105 92//96
f 94//98 100//103 98//101
f 93//97 101//104 97//100
f 100//103 108//109 107//108
f 99//105 103//110 102//106
f 101//104 104//107 103//110
f 102//106 105//116 108//109
f 102//106 106//111 105//116
f 98//101 107//108 104//107
f 107//108 108//109 112//112
f 104//107 111//113 106//111
f 105//116 110//115 108//109
f 106//111 111//113 110//115
f 109//114 113//118 115//117
f 110//115 114//119 108//109
f 108//109 117//120 113//118
f 113//118 116//121 115//117
f 113//118 117//120 116//121
f 117//120 122//128 116//121
f 114//119 118//124 117//120
f 114//119 119//123 118//124
f 117//120 120//125 122//128
f 115//117 121//122 119//123
f 116//121 122//128 121//122
f 119//123 123//127 118//124
f 119//123 124//126 123//127
f 120//125 126//130 122//128
f 122//128 126//130 125//129
f 121//122 125//129 124//126
f 126//130 128//132 127//131
f 125//129 127//131 124//126
f 123//127 129//133 120//125
f 120//125 129//133 128//132
f 128//132 130//134 127//131
f 124//126 131//137 129//133
f 124//126 136//136 131//137
f 127//131 132//135 136//136
f 129//133 133//138 130//134
f 133//138 135//140 130//134
f 131//137 136//136 135//140
f 132//135 134//139 136//136
f 134//139 137//141 140//144
f 130//134 141//142 137//141
f 135//140 138//147 141//142
f 135//140 139//143 138//147
f 136//136 140//144 139//143
f 142//145 143//146 146//149
f 141//142 144//148 143//146
f 140//144 146//149 139//143
f 139//143 145//150 138//147
f 143//146 147//151 146//149
f 144//148 148//155 147//151
f 146//149 150//153 144//148
f 144//148 150//153 148//155
f 147//151 155//163 149//152
f 150//153 151//156 153//154
f 149//152 152//158 151//156
f 148//155 153//154 147//151
f 147//151 154//157 155//163
f 149//152 155//163 152//158
f 151//156 156//159 153//154
f 156//159 157//160 153//154
f 153//154 161//161 154//157
f 154//157 159//162 155//163
f 152//158 158//164 157//160
f 155//163 159//162 158//164
f 159//162 160//165 158//164
f 159//162 161//161 160//165
f 158//164 163//166 157//160
f 157//160 163//166 162//167
f 160//165 165//170 168//169
f 162//167 166//171 164//168
f 163//166 167//172 166//171
f 163//166 168//169 167//172
f 166//171 169//173 164//168
f 164//168 170//174 165//170
f 167//172 171//175 169//173
f 165//170 172//176 168//169
f 172//176 173//177 171//175
f 173//177 174//179 171//175
f 170//174 175//181 173//177
f 170//174 177//182 175//181
f 171//175 178//180 176//178
f 175//181 182//188 174//179
f 175//181 179//184 182//188
f 176//178 180//185 179//184
f 178//180 181//183 176//178
f 174//179 182//188 181//183
f 179//184 183//186 182//188
f 180//185 184//189 179//184
f 182//188 185//187 181//183
f 181//183 186//190 184//189
f 185//187 187//193 186//190
f 185//187 188//191 187//193
f 183//186 190//195 188//191
f 184//189 191//192 190//195
f 186//190 189//194 191//192
f 190//195 192//196 188//191
f 189//194 194//198 193//197
f 188//191 195//199 194//198
f 194//198 196//200 193//197
f 192//196 198//202 197//201
f 195//199 199//204 196//200
f 193//197 203//206 201//205
f 198//202 201//205 199//204
f 201//205 202//207 199//204
f 201//205 203//206 202//207
f 200//203 204//209 206//210
f 199//204 205//208 204//209
f 205//208 209//214 204//209
f 203//206 208//212 202//207
f 206//210 207//211 208//212
f 204//209 209//214 207//211
f 205//208 210//213 209//214
f 209//214 212//1 211//3
f 209//214 213//4 212//1
f 210//213 214//7 213//4
f 208//212 215//11 214//7
f 207//211 211//3 215//11
