# Blender v2.79 (sub 0) OBJ File: 'world_countrycodes_export2.blend'
# www.blender.org
mtllib PH.mtl
o PH.002_CUCurve.1743
v 1.648985 0.000000 0.573863
v 1.651969 0.000000 0.575259
v 1.654431 0.000000 0.578071
v 1.654120 0.000000 0.579756
v 1.654376 0.000000 0.582771
v 1.655420 0.000000 0.584214
v 1.657194 0.000000 0.583350
v 1.658731 0.000000 0.584320
v 1.658760 0.000000 0.585633
v 1.657993 0.000000 0.587134
v 1.658229 0.000000 0.588602
v 1.660698 0.000000 0.592110
v 1.661646 0.000000 0.594766
v 1.662708 0.000000 0.594146
v 1.663087 0.000000 0.592591
v 1.662997 0.000000 0.590362
v 1.666207 0.000000 0.588145
v 1.666340 0.000000 0.586246
v 1.663730 0.000000 0.581265
v 1.662506 0.000000 0.580186
v 1.659219 0.000000 0.579049
v 1.657827 0.000000 0.578147
v 1.657232 0.000000 0.575550
v 1.654105 0.000000 0.572916
v 1.653479 0.000000 0.571433
v 1.650427 0.000000 0.570145
v 1.647364 0.000000 0.570200
v 1.644877 0.000000 0.571274
v 1.644308 0.000000 0.570567
v 1.643926 0.000000 0.567013
v 1.642486 0.000000 0.564657
v 1.643208 0.000000 0.561916
v 1.647668 0.000000 0.556685
v 1.647781 0.000000 0.553645
v 1.646576 0.000000 0.549086
v 1.646787 0.000000 0.546693
v 1.646463 0.000000 0.545986
v 1.645010 0.000000 0.546561
v 1.640159 0.000000 0.545384
v 1.637746 0.000000 0.545445
v 1.636813 0.000000 0.546417
v 1.636303 0.000000 0.549539
v 1.636459 0.000000 0.558806
v 1.635386 0.000000 0.559044
v 1.633704 0.000000 0.557884
v 1.633399 0.000000 0.560143
v 1.633924 0.000000 0.564169
v 1.634641 0.000000 0.565777
v 1.635661 0.000000 0.566082
v 1.636568 0.000000 0.566909
v 1.636900 0.000000 0.568736
v 1.636372 0.000000 0.571392
v 1.637441 0.000000 0.572616
v 1.640165 0.000000 0.572758
v 1.643824 0.000000 0.571844
v 1.645918 0.000000 0.573850
v 1.636683 0.000000 0.575016
v 1.637731 0.000000 0.578909
v 1.639528 0.000000 0.581278
v 1.641756 0.000000 0.581540
v 1.642920 0.000000 0.580786
v 1.642652 0.000000 0.579482
v 1.640338 0.000000 0.576980
v 1.647911 0.000000 0.591393
v 1.648908 0.000000 0.590652
v 1.649230 0.000000 0.589613
v 1.649704 0.000000 0.590023
v 1.650275 0.000000 0.593441
v 1.648996 0.000000 0.595331
v 1.648528 0.000000 0.597651
v 1.649311 0.000000 0.600066
v 1.650778 0.000000 0.600759
v 1.652582 0.000000 0.599787
v 1.655630 0.000000 0.595200
v 1.656629 0.000000 0.591724
v 1.655771 0.000000 0.591060
v 1.654247 0.000000 0.591446
v 1.654389 0.000000 0.589848
v 1.651857 0.000000 0.586765
v 1.647445 0.000000 0.584037
v 1.645155 0.000000 0.584182
v 1.644260 0.000000 0.587538
v 1.645197 0.000000 0.591402
v 1.646095 0.000000 0.591620
v 1.656866 0.000000 0.598767
v 1.659488 0.000000 0.597917
v 1.660763 0.000000 0.596082
v 1.659446 0.000000 0.594919
v 1.657324 0.000000 0.595856
v 1.656264 0.000000 0.597253
v 1.656141 0.000000 0.598166
v 1.671176 0.000000 0.611589
v 1.671942 0.000000 0.610173
v 1.671715 0.000000 0.607111
v 1.670076 0.000000 0.600277
v 1.669739 0.000000 0.597288
v 1.667704 0.000000 0.596067
v 1.666023 0.000000 0.596729
v 1.665624 0.000000 0.597705
v 1.666339 0.000000 0.599676
v 1.663204 0.000000 0.600438
v 1.662213 0.000000 0.602713
v 1.659622 0.000000 0.603155
v 1.659318 0.000000 0.604687
v 1.657788 0.000000 0.604761
v 1.654095 0.000000 0.602693
v 1.652939 0.000000 0.602833
v 1.649194 0.000000 0.606106
v 1.646653 0.000000 0.607293
v 1.644999 0.000000 0.610397
v 1.645139 0.000000 0.612508
v 1.646546 0.000000 0.612328
v 1.649409 0.000000 0.610100
v 1.651627 0.000000 0.609830
v 1.652938 0.000000 0.608571
v 1.654424 0.000000 0.608271
v 1.655683 0.000000 0.608813
v 1.656419 0.000000 0.610476
v 1.657558 0.000000 0.616482
v 1.658877 0.000000 0.617893
v 1.661938 0.000000 0.618816
v 1.664539 0.000000 0.620955
v 1.666083 0.000000 0.620961
v 1.665836 0.000000 0.617477
v 1.665279 0.000000 0.613744
v 1.665928 0.000000 0.613028
v 1.669426 0.000000 0.612547
v 1.619664 0.000000 0.602349
v 1.619045 0.000000 0.604102
v 1.619586 0.000000 0.604481
v 1.621505 0.000000 0.603166
v 1.628769 0.000000 0.594994
v 1.630285 0.000000 0.594077
v 1.631403 0.000000 0.592575
v 1.631675 0.000000 0.590820
v 1.631309 0.000000 0.589324
v 1.630449 0.000000 0.588171
v 1.629770 0.000000 0.588533
v 1.626456 0.000000 0.594806
v 1.660698 0.050000 0.592110
v 1.661646 0.050000 0.594766
v 1.662506 0.050000 0.580186
v 1.659219 0.050000 0.579049
v 1.648985 0.050000 0.573863
v 1.654105 0.050000 0.572916
v 1.654431 0.050000 0.578071
v 1.657558 0.050000 0.616482
v 1.665836 0.050000 0.617477
v 1.653479 0.050000 0.571433
v 1.643824 0.050000 0.571844
v 1.647911 0.050000 0.591393
v 1.645197 0.050000 0.591402
v 1.657993 0.050000 0.587134
v 1.666340 0.050000 0.586246
v 1.657788 0.050000 0.604761
v 1.649194 0.050000 0.606106
v 1.631675 0.050000 0.590820
v 1.629770 0.050000 0.588533
v 1.636372 0.050000 0.571392
v 1.637441 0.050000 0.572616
v 1.659318 0.050000 0.604687
v 1.655683 0.050000 0.608813
v 1.656419 0.050000 0.610476
v 1.645918 0.050000 0.573850
v 1.630285 0.050000 0.594077
v 1.631403 0.050000 0.592575
v 1.642920 0.050000 0.580786
v 1.642652 0.050000 0.579482
v 1.619045 0.050000 0.604102
v 1.621505 0.050000 0.603166
v 1.665928 0.050000 0.613028
v 1.663204 0.050000 0.600438
v 1.662213 0.050000 0.602713
v 1.659488 0.050000 0.597917
v 1.656264 0.050000 0.597253
v 1.631309 0.050000 0.589324
v 1.630449 0.050000 0.588171
v 1.671942 0.050000 0.610173
v 1.671715 0.050000 0.607111
v 1.646095 0.050000 0.591620
v 1.656629 0.050000 0.591724
v 1.654247 0.050000 0.591446
v 1.654120 0.050000 0.579756
v 1.654376 0.050000 0.582771
v 1.655420 0.050000 0.584214
v 1.657194 0.050000 0.583350
v 1.633704 0.050000 0.557884
v 1.633399 0.050000 0.560143
v 1.663087 0.050000 0.592591
v 1.662997 0.050000 0.590362
v 1.661938 0.050000 0.618816
v 1.656141 0.050000 0.598166
v 1.643926 0.050000 0.567013
v 1.634641 0.050000 0.565777
v 1.649311 0.050000 0.600066
v 1.652582 0.050000 0.599787
v 1.658731 0.050000 0.584320
v 1.658760 0.050000 0.585633
v 1.651969 0.050000 0.575259
v 1.657232 0.050000 0.575550
v 1.643208 0.050000 0.561916
v 1.636459 0.050000 0.558806
v 1.647781 0.050000 0.553645
v 1.636303 0.050000 0.549539
v 1.665624 0.050000 0.597705
v 1.666339 0.050000 0.599676
v 1.644308 0.050000 0.570567
v 1.654424 0.050000 0.608271
v 1.646576 0.050000 0.549086
v 1.646787 0.050000 0.546693
v 1.666083 0.050000 0.620961
v 1.664539 0.050000 0.620955
v 1.658877 0.050000 0.617893
v 1.639528 0.050000 0.581278
v 1.660763 0.050000 0.596082
v 1.657324 0.050000 0.595856
v 1.635661 0.050000 0.566082
v 1.650427 0.050000 0.570145
v 1.647364 0.050000 0.570200
v 1.648908 0.050000 0.590652
v 1.649230 0.050000 0.589613
v 1.647668 0.050000 0.556685
v 1.646463 0.050000 0.545986
v 1.645010 0.050000 0.546561
v 1.670076 0.050000 0.600277
v 1.644877 0.050000 0.571274
v 1.666207 0.050000 0.588145
v 1.648996 0.050000 0.595331
v 1.648528 0.050000 0.597651
v 1.619664 0.050000 0.602349
v 1.626456 0.050000 0.594806
v 1.636568 0.050000 0.566909
v 1.645139 0.050000 0.612508
v 1.646546 0.050000 0.612328
v 1.637731 0.050000 0.578909
v 1.640338 0.050000 0.576980
v 1.649704 0.050000 0.590023
v 1.658229 0.050000 0.588602
v 1.644999 0.050000 0.610397
v 1.636900 0.050000 0.568736
v 1.649409 0.050000 0.610100
v 1.651857 0.050000 0.586765
v 1.647445 0.050000 0.584037
v 1.650275 0.050000 0.593441
v 1.646653 0.050000 0.607293
v 1.671176 0.050000 0.611589
v 1.662708 0.050000 0.594146
v 1.669739 0.050000 0.597288
v 1.667704 0.050000 0.596067
v 1.652939 0.050000 0.602833
v 1.644260 0.050000 0.587538
v 1.640159 0.050000 0.545384
v 1.637746 0.050000 0.545445
v 1.636813 0.050000 0.546417
v 1.663730 0.050000 0.581265
v 1.633924 0.050000 0.564169
v 1.654095 0.050000 0.602693
v 1.655630 0.050000 0.595200
v 1.666023 0.050000 0.596729
v 1.635386 0.050000 0.559044
v 1.654389 0.050000 0.589848
v 1.636683 0.050000 0.575016
v 1.665279 0.050000 0.613744
v 1.628769 0.050000 0.594994
v 1.656866 0.050000 0.598767
v 1.642486 0.050000 0.564657
v 1.669426 0.050000 0.612547
v 1.640165 0.050000 0.572758
v 1.619586 0.050000 0.604481
v 1.651627 0.050000 0.609830
v 1.652938 0.050000 0.608571
v 1.650778 0.050000 0.600759
v 1.641756 0.050000 0.581540
v 1.645155 0.050000 0.584182
v 1.659446 0.050000 0.594919
v 1.657827 0.050000 0.578147
v 1.659622 0.050000 0.603155
v 1.655771 0.050000 0.591060
vn 0.0000 -1.0000 0.0000
vn 0.0000 1.0000 -0.0000
vn 0.0000 1.0000 -0.0001
vn 0.9795 0.0000 -0.2012
vn 0.1269 0.0000 0.9919
vn -0.9656 0.0000 0.2600
vn 0.9715 0.0000 0.2372
vn -0.9916 0.0000 0.1293
vn 0.9668 0.0000 -0.2555
vn -0.9167 0.0000 -0.3996
vn -0.6917 0.0000 0.7222
vn 0.6927 0.0000 0.7212
vn 0.6141 0.0000 0.7893
vn -0.2453 0.0000 -0.9695
vn -0.8904 0.0000 -0.4552
vn -0.8177 0.0000 0.5757
vn 0.8016 0.0000 -0.5979
vn 0.8212 0.0000 0.5706
vn 0.5177 0.0000 0.8556
vn 0.9973 0.0000 -0.0739
vn -0.9663 0.0000 -0.2576
vn -0.6382 0.0000 0.7699
vn 0.1236 0.0000 0.9923
vn -0.9978 0.0000 0.0662
vn 0.9669 0.0000 0.2550
vn 0.9713 0.0000 -0.2379
vn 0.6617 0.0000 -0.7497
vn -0.9964 0.0000 0.0845
vn -0.1165 0.0000 0.9932
vn 0.4375 0.0000 0.8992
vn 0.7729 0.0000 -0.6345
vn -0.4272 0.0000 0.9042
vn 0.9882 0.0000 0.1532
vn 0.3084 0.0000 0.9513
vn 0.5259 0.0000 -0.8506
vn -0.7214 0.0000 -0.6925
vn -0.9910 0.0000 -0.1339
vn 0.9976 0.0000 0.0699
vn -0.9910 0.0000 -0.1335
vn 0.9992 0.0000 -0.0407
vn 0.7474 0.0000 0.6644
vn -0.2363 0.0000 -0.9717
vn 0.5440 0.0000 0.8391
vn -0.8283 0.0000 -0.5603
vn 0.4803 0.0000 0.8771
vn -0.4233 0.0000 -0.9060
vn 0.1363 0.0000 0.9907
vn 0.4733 0.0000 -0.8809
vn -0.9834 0.0000 -0.1814
vn 0.9611 0.0000 0.2761
vn -0.2167 0.0000 -0.9762
vn -0.0521 0.0000 0.9986
vn -0.9839 0.0000 0.1785
vn -0.2356 0.0000 0.9718
vn 0.6610 0.0000 -0.7503
vn -0.9998 0.0000 0.0223
vn 0.4887 0.0000 -0.8724
vn 0.9993 0.0000 0.0371
vn -0.9825 0.0000 0.1864
vn -0.9254 0.0000 -0.3790
vn 0.8793 0.0000 0.4762
vn -0.7307 0.0000 0.6827
vn 0.9213 0.0000 -0.3888
vn 0.5044 0.0000 0.8635
vn -0.9399 0.0000 0.3414
vn -0.9869 0.0000 -0.1614
vn -0.5744 0.0000 0.8186
vn -0.8842 0.0000 -0.4671
vn -0.4040 0.0000 -0.9148
vn 0.9943 0.0000 -0.1068
vn -0.8100 0.0000 0.5865
vn -0.3957 0.0000 0.9184
vn 0.2422 0.0000 0.9702
vn 0.9961 0.0000 0.0878
vn 0.2359 0.0000 -0.9718
vn -0.2887 0.0000 0.9574
vn 0.9975 0.0000 -0.0707
vn -0.9133 0.0000 0.4073
vn 0.7403 0.0000 0.6722
vn 0.5144 0.0000 -0.8575
vn -0.0037 0.0000 1.0000
vn 0.5653 0.0000 0.8249
vn 0.9724 0.0000 -0.2333
vn -0.6580 0.0000 -0.7530
vn -0.7432 0.0000 -0.6691
vn -0.4240 0.0000 0.9057
vn 0.9748 0.0000 -0.2233
vn -0.6351 0.0000 0.7724
vn -0.9999 0.0000 0.0168
vn 0.5681 0.0000 0.8229
vn -0.0252 0.0000 -0.9997
vn -0.9809 0.0000 -0.1943
vn -0.0178 0.0000 -0.9998
vn 0.9937 0.0000 -0.1119
vn 0.8531 0.0000 -0.5217
vn 0.3887 0.0000 -0.9214
vn 0.9961 0.0000 0.0884
vn 0.9552 0.0000 0.2959
vn 0.6118 0.0000 -0.7910
vn 0.5968 0.0000 0.8024
vn 0.1209 0.0000 0.9927
vn -0.7523 0.0000 0.6588
vn 0.7788 0.0000 -0.6273
vn -0.9419 0.0000 0.3360
vn -0.6537 0.0000 0.7567
vn -0.3682 0.0000 -0.9297
vn 0.8858 0.0000 -0.4641
vn 0.3270 0.0000 -0.9450
vn 0.5437 0.0000 -0.8393
vn -0.7968 0.0000 0.6043
vn -0.2871 0.0000 0.9579
vn -0.7966 0.0000 -0.6045
vn 0.5678 0.0000 -0.8232
vn 0.1976 0.0000 0.9803
vn 0.9890 0.0000 -0.1477
vn 0.6443 0.0000 -0.7648
vn 0.7342 0.0000 -0.6790
vn -0.1208 0.0000 -0.9927
vn -0.9808 0.0000 -0.1948
vn -0.9802 0.0000 -0.1978
vn -0.9874 0.0000 0.1583
vn 0.7610 0.0000 0.6488
vn -0.5335 0.0000 0.8458
vn -0.8825 0.0000 -0.4703
vn 0.4744 0.0000 0.8803
vn -0.3965 0.0000 -0.9180
vn -0.7533 0.0000 0.6577
vn -0.9513 0.0000 0.3081
vn -0.9429 0.0000 -0.3331
vn -0.0485 0.0000 -0.9988
vn 0.8329 0.0000 0.5534
vn -0.4704 0.0000 -0.8825
vn -0.9719 0.0000 0.2356
vn -0.9146 0.0000 0.4043
vn -0.6733 0.0000 0.7394
vn -0.0042 0.0000 1.0000
vn -0.3665 0.0000 -0.9304
vn -0.0636 0.0000 -0.9980
vn -0.9864 0.0000 0.1646
vn 0.8019 0.0000 0.5974
vn -0.1683 0.0000 -0.9857
vn 0.9089 0.0000 -0.4170
usemtl SVGMat.3781
s off
f 138//1 137//1 136//1
f 138//1 136//1 135//1
f 139//1 138//1 135//1
f 139//1 135//1 134//1
f 139//1 134//1 133//1
f 139//1 133//1 132//1
f 128//1 139//1 132//1
f 128//1 132//1 131//1
f 129//1 128//1 131//1
f 129//1 131//1 130//1
f 41//1 40//1 39//1
f 41//1 39//1 38//1
f 38//1 37//1 36//1
f 41//1 38//1 36//1
f 42//1 41//1 36//1
f 42//1 36//1 35//1
f 42//1 35//1 34//1
f 43//1 42//1 34//1
f 43//1 34//1 33//1
f 43//1 33//1 32//1
f 46//1 45//1 44//1
f 44//1 43//1 32//1
f 46//1 44//1 32//1
f 47//1 46//1 32//1
f 47//1 32//1 31//1
f 48//1 47//1 31//1
f 48//1 31//1 30//1
f 49//1 48//1 30//1
f 50//1 49//1 30//1
f 51//1 50//1 30//1
f 51//1 30//1 29//1
f 52//1 51//1 29//1
f 28//1 27//1 26//1
f 28//1 26//1 25//1
f 52//1 29//1 28//1
f 52//1 28//1 25//1
f 52//1 25//1 55//1
f 53//1 52//1 55//1
f 53//1 55//1 54//1
f 55//1 25//1 24//1
f 56//1 55//1 24//1
f 1//1 56//1 24//1
f 1//1 24//1 23//1
f 2//1 1//1 23//1
f 3//1 2//1 23//1
f 3//1 23//1 22//1
f 58//1 57//1 63//1
f 58//1 63//1 62//1
f 3//1 22//1 21//1
f 4//1 3//1 21//1
f 4//1 21//1 20//1
f 59//1 58//1 62//1
f 59//1 62//1 61//1
f 5//1 4//1 20//1
f 5//1 20//1 19//1
f 59//1 61//1 60//1
f 5//1 19//1 7//1
f 6//1 5//1 7//1
f 8//1 7//1 19//1
f 8//1 19//1 18//1
f 9//1 8//1 18//1
f 81//1 80//1 79//1
f 82//1 81//1 79//1
f 10//1 9//1 18//1
f 10//1 18//1 17//1
f 11//1 10//1 17//1
f 82//1 79//1 78//1
f 83//1 82//1 66//1
f 66//1 82//1 78//1
f 11//1 17//1 16//1
f 67//1 66//1 78//1
f 12//1 11//1 16//1
f 83//1 66//1 65//1
f 67//1 78//1 77//1
f 83//1 65//1 64//1
f 68//1 67//1 77//1
f 77//1 76//1 75//1
f 68//1 77//1 75//1
f 12//1 16//1 15//1
f 83//1 64//1 84//1
f 13//1 12//1 15//1
f 68//1 75//1 74//1
f 13//1 15//1 14//1
f 69//1 68//1 74//1
f 89//1 88//1 87//1
f 70//1 69//1 74//1
f 98//1 97//1 96//1
f 90//1 89//1 87//1
f 90//1 87//1 86//1
f 99//1 98//1 96//1
f 70//1 74//1 73//1
f 91//1 90//1 86//1
f 85//1 91//1 86//1
f 100//1 99//1 96//1
f 71//1 70//1 73//1
f 100//1 96//1 95//1
f 101//1 100//1 95//1
f 71//1 73//1 72//1
f 101//1 95//1 94//1
f 102//1 101//1 94//1
f 103//1 102//1 94//1
f 107//1 106//1 105//1
f 104//1 103//1 94//1
f 108//1 107//1 105//1
f 105//1 104//1 94//1
f 108//1 105//1 94//1
f 109//1 108//1 94//1
f 116//1 109//1 94//1
f 116//1 94//1 93//1
f 109//1 116//1 115//1
f 117//1 116//1 93//1
f 110//1 109//1 115//1
f 110//1 115//1 114//1
f 118//1 117//1 93//1
f 110//1 114//1 113//1
f 118//1 93//1 92//1
f 110//1 113//1 112//1
f 111//1 110//1 112//1
f 118//1 92//1 127//1
f 118//1 127//1 126//1
f 119//1 118//1 126//1
f 119//1 126//1 125//1
f 119//1 125//1 124//1
f 120//1 119//1 124//1
f 121//1 120//1 124//1
f 121//1 124//1 123//1
f 122//1 121//1 123//1
f 158//2 176//2 177//2
f 158//2 157//2 176//2
f 231//2 157//2 158//2
f 231//2 166//2 157//2
f 231//2 165//2 166//2
f 231//2 264//2 165//2
f 230//2 264//2 231//2
f 230//2 170//2 264//2
f 169//2 170//2 230//2
f 169//2 269//2 170//2
f 254//2 252//2 253//2
f 254//2 224//2 252//2
f 224//2 210//2 223//2
f 254//3 210//3 224//3
f 204//2 210//2 254//2
f 204//2 209//2 210//2
f 204//2 203//2 209//2
f 202//2 203//2 204//2
f 202//2 222//2 203//2
f 202//2 201//2 222//2
f 188//2 260//2 187//2
f 260//2 201//2 202//2
f 188//2 201//2 260//2
f 256//2 201//2 188//2
f 256//2 266//2 201//2
f 194//2 266//2 256//2
f 194//2 193//2 266//2
f 217//2 193//2 194//2
f 232//2 193//2 217//2
f 240//2 193//2 232//2
f 240//2 207//2 193//2
f 159//2 207//2 240//2
f 226//2 218//2 219//2
f 226//2 149//2 218//2
f 159//2 226//2 207//2
f 159//2 149//2 226//2
f 159//2 150//2 149//2
f 160//2 150//2 159//2
f 160//2 268//2 150//2
f 150//2 145//2 149//2
f 164//2 145//2 150//2
f 144//2 145//2 164//2
f 144//2 200//2 145//2
f 199//2 200//2 144//2
f 146//2 200//2 199//2
f 146//2 276//2 200//2
f 235//2 236//2 262//2
f 235//2 168//2 236//2
f 146//2 143//2 276//2
f 183//2 143//2 146//2
f 183//2 142//2 143//2
f 214//2 168//2 235//2
f 214//2 167//2 168//2
f 184//2 142//2 183//2
f 184//2 255//2 142//2
f 214//2 273//2 167//2
f 184//2 186//2 255//2
f 185//2 186//2 184//2
f 197//2 255//2 186//2
f 197//2 154//2 255//2
f 198//2 154//2 197//2
f 274//2 242//2 243//2
f 251//2 242//2 274//2
f 153//2 154//2 198//2
f 153//2 227//2 154//2
f 238//2 227//2 153//2
f 251//2 261//2 242//2
f 152//2 221//2 251//2
f 221//2 261//2 251//2
f 238//2 190//2 227//2
f 237//2 261//2 221//2
f 140//2 190//2 238//2
f 152//2 220//2 221//2
f 237//2 182//2 261//2
f 152//2 151//2 220//2
f 244//2 182//2 237//2
f 182//2 181//2 278//2
f 244//2 181//2 182//2
f 140//2 189//2 190//2
f 152//2 180//2 151//2
f 141//2 189//2 140//2
f 244//2 258//2 181//2
f 141//2 247//2 189//2
f 228//2 258//2 244//2
f 216//2 215//2 275//2
f 229//2 258//2 228//2
f 259//2 248//2 249//2
f 175//2 215//2 216//2
f 175//2 174//2 215//2
f 205//2 248//2 259//2
f 229//2 196//2 258//2
f 192//2 174//2 175//2
f 265//2 174//2 192//2
f 206//2 248//2 205//2
f 195//2 196//2 229//2
f 206//2 225//2 248//2
f 172//2 225//2 206//2
f 195//2 272//2 196//2
f 172//2 179//2 225//2
f 173//2 179//2 172//2
f 277//2 179//2 173//2
f 250//2 155//2 257//2
f 161//2 179//2 277//2
f 156//2 155//2 250//2
f 155//2 179//2 161//2
f 156//2 179//2 155//2
f 245//2 179//2 156//2
f 208//2 179//2 245//2
f 208//2 178//2 179//2
f 245//2 271//2 208//2
f 162//2 178//2 208//2
f 239//2 271//2 245//2
f 239//2 270//2 271//2
f 163//2 178//2 162//2
f 239//2 241//2 270//2
f 163//2 246//2 178//2
f 239//2 234//2 241//2
f 233//2 234//2 239//2
f 163//2 267//2 246//2
f 163//2 171//2 267//2
f 147//2 171//2 163//2
f 147//2 263//2 171//2
f 147//2 148//2 263//2
f 213//2 148//2 147//2
f 191//2 148//2 213//2
f 191//2 211//2 148//2
f 212//2 211//2 191//2
f 61//4 62//4 168//4 167//4
f 111//5 112//5 234//5 233//5
f 57//6 58//6 235//6 262//6
f 14//7 15//7 189//7 247//7
f 46//8 47//8 256//8 188//8
f 34//9 35//9 209//9 203//9
f 101//10 102//10 173//10 172//10
f 55//11 56//11 164//11 150//11
f 114//12 115//12 271//12 270//12
f 112//13 113//13 241//13 234//13
f 76//14 77//14 182//14 278//14
f 9//15 10//15 153//15 198//15
f 11//16 12//16 140//16 238//16
f 136//17 137//17 177//17 176//17
f 86//18 87//18 215//18 174//18
f 132//19 133//19 165//19 264//19
f 93//20 94//20 179//20 178//20
f 81//21 82//21 251//21 274//21
f 91//22 85//22 265//22 192//22
f 84//23 64//23 151//23 180//23
f 110//24 111//24 233//24 239//24
f 31//25 32//25 201//25 266//25
f 135//26 136//26 176//26 157//26
f 87//27 88//27 275//27 215//27
f 4//28 5//28 184//28 183//28
f 59//29 60//29 273//29 214//29
f 6//30 7//30 186//30 185//30
f 78//31 79//31 242//31 261//31
f 71//32 72//32 272//32 195//32
f 134//33 135//33 157//33 166//33
f 85//34 86//34 174//34 265//34
f 79//35 80//35 243//35 242//35
f 40//36 41//36 254//36 253//36
f 45//37 46//37 188//37 187//37
f 17//38 18//38 154//38 227//38
f 90//39 91//39 192//39 175//39
f 15//40 16//40 190//40 189//40
f 131//41 132//41 264//41 170//41
f 100//42 101//42 172//42 206//42
f 60//43 61//43 167//43 273//43
f 68//44 69//44 228//44 244//44
f 127//45 92//45 246//45 267//45
f 108//46 109//46 245//46 156//46
f 126//47 127//47 267//47 171//47
f 63//48 57//48 262//48 236//48
f 3//49 4//49 183//49 146//49
f 74//50 75//50 181//50 258//50
f 43//51 44//51 260//51 202//51
f 53//52 54//52 268//52 160//52
f 50//53 51//53 240//53 232//53
f 83//54 84//54 180//54 152//54
f 19//55 20//55 142//55 255//55
f 8//56 9//56 198//56 197//56
f 105//57 106//57 257//57 155//57
f 33//58 34//58 203//58 222//58
f 118//59 119//59 147//59 163//59
f 98//60 99//60 205//60 259//60
f 92//61 93//61 178//61 246//61
f 119//62 120//62 213//62 147//62
f 24//63 25//63 149//63 145//63
f 13//64 14//64 247//64 141//64
f 99//65 100//65 206//65 205//65
f 41//66 42//66 204//66 254//66
f 129//67 130//67 269//67 169//67
f 138//68 139//68 231//68 158//68
f 88//69 89//69 216//69 275//69
f 29//70 30//70 193//70 207//70
f 5//71 6//71 185//71 184//71
f 116//72 117//72 162//72 208//72
f 54//73 55//73 150//73 268//73
f 35//74 36//74 210//74 209//74
f 38//75 39//75 252//75 224//75
f 120//76 121//76 191//76 213//76
f 123//77 124//77 148//77 211//77
f 47//78 48//78 194//78 256//78
f 125//79 126//79 171//79 263//79
f 96//80 97//80 249//80 248//80
f 122//81 123//81 211//81 212//81
f 130//82 131//82 170//82 269//82
f 94//83 95//83 225//83 179//83
f 107//84 108//84 156//84 250//84
f 139//85 128//85 230//85 231//85
f 1//86 2//86 199//86 144//86
f 22//87 23//87 200//87 276//87
f 121//88 122//88 212//88 191//88
f 42//89 43//89 202//89 204//89
f 16//90 17//90 227//90 190//90
f 39//91 40//91 253//91 252//91
f 103//92 104//92 161//92 277//92
f 26//93 27//93 219//93 218//93
f 95//94 96//94 248//94 225//94
f 30//95 31//95 266//95 193//95
f 25//96 26//96 218//96 149//96
f 77//97 78//97 261//97 182//97
f 65//98 66//98 221//98 220//98
f 75//99 76//99 278//99 181//99
f 64//100 65//100 220//100 151//100
f 113//101 114//101 270//101 241//101
f 2//102 3//102 146//102 199//102
f 28//103 29//103 207//103 226//103
f 12//104 13//104 141//104 140//104
f 66//105 67//105 237//105 221//105
f 37//106 38//106 224//106 223//106
f 18//107 19//107 255//107 154//107
f 20//108 21//108 143//108 142//108
f 21//109 22//109 276//109 143//109
f 58//110 59//110 214//110 235//110
f 48//111 49//111 217//111 194//111
f 89//112 90//112 175//112 216//112
f 44//113 45//113 187//113 260//113
f 115//114 116//114 208//114 271//114
f 124//115 125//115 263//115 148//115
f 23//116 24//116 145//116 200//116
f 62//117 63//117 236//117 168//117
f 106//118 107//118 250//118 257//118
f 51//119 52//119 159//119 240//119
f 69//120 70//120 229//120 228//120
f 10//121 11//121 238//121 153//121
f 32//122 33//122 222//122 201//122
f 7//123 8//123 197//123 186//123
f 109//124 110//124 239//124 245//124
f 72//125 73//125 196//125 272//125
f 27//126 28//126 226//126 219//126
f 52//127 53//127 160//127 159//127
f 70//128 71//128 195//128 229//128
f 128//129 129//129 169//129 230//129
f 104//130 105//130 155//130 161//130
f 73//131 74//131 258//131 196//131
f 137//132 138//132 158//132 177//132
f 82//133 83//133 152//133 251//133
f 117//134 118//134 163//134 162//134
f 49//135 50//135 232//135 217//135
f 56//136 1//136 144//136 164//136
f 97//137 98//137 259//137 249//137
f 80//138 81//138 274//138 243//138
f 67//139 68//139 244//139 237//139
f 133//140 134//140 166//140 165//140
f 102//141 103//141 277//141 173//141
f 36//142 37//142 223//142 210//142
