# Blender v2.79 (sub 0) OBJ File: 'world_countrycodes_outlines2.blend'
# www.blender.org
mtllib PH_outline.mtl
o PH.001_CUCurve.031
v 1.638991 0.000144 0.575105
v 1.637097 0.001918 0.571989
v 1.638712 -0.000630 0.570834
v 1.635936 -0.001967 0.572647
v 1.634656 0.000808 0.572809
v 1.634911 0.001429 0.567871
v 1.635617 0.001876 0.565385
v 1.638601 0.000992 0.566520
v 1.636930 -0.001806 0.565793
v 1.634055 -0.001287 0.567725
v 1.631087 0.000223 0.558582
v 1.633937 -0.002409 0.558462
v 1.634716 0.000809 0.560474
v 1.633187 0.001639 0.556281
v 1.637122 0.001996 0.559343
v 1.635074 -0.000016 0.556760
v 1.638123 -0.001415 0.559468
v 1.636325 0.001954 0.544584
v 1.638524 0.000868 0.547157
v 1.637417 -0.002118 0.545224
v 1.635442 -0.000768 0.543690
v 1.647842 -0.000987 0.544471
v 1.647937 0.001242 0.544959
v 1.646031 0.001943 0.547149
v 1.644841 0.000417 0.548155
v 1.645778 -0.001938 0.547106
v 1.649990 -0.000747 0.556343
v 1.648913 0.001869 0.556591
v 1.646004 0.000806 0.555554
v 1.647020 -0.001848 0.555810
v 1.644943 -0.000007 0.563735
v 1.641080 0.001702 0.564280
v 1.641215 -0.001792 0.563001
v 1.643905 0.001570 0.572805
v 1.643318 -0.001492 0.572549
v 1.645819 -0.000003 0.568594
v 1.650822 0.000738 0.571898
v 1.651128 -0.001212 0.571655
v 1.652748 -0.002027 0.569768
v 1.651473 0.001862 0.568930
v 1.654929 0.000884 0.570447
v 1.659767 -0.000029 0.575909
v 1.656065 -0.001765 0.576532
v 1.657388 0.002069 0.577935
v 1.656540 -0.000614 0.579896
v 1.664564 -0.000078 0.578778
v 1.661945 -0.001602 0.581491
v 1.663026 0.001982 0.581306
v 1.668578 0.000997 0.587512
v 1.666016 0.001995 0.587344
v 1.664620 -0.000996 0.586977
v 1.667944 -0.001649 0.588573
v 1.661619 0.001963 0.592838
v 1.661204 -0.000719 0.589432
v 1.663744 -0.002014 0.590773
v 1.665091 0.000853 0.591578
v 1.662439 -0.001048 0.592597
v 1.661916 -0.001851 0.596388
v 1.661435 0.000948 0.597299
v 1.656459 -0.001556 0.585824
v 1.655924 0.001318 0.586280
v 1.660625 -0.000014 0.587164
v 1.659081 0.001660 0.582130
v 1.658689 -0.001934 0.582729
v 1.656347 0.000199 0.581815
v 1.652501 -0.000244 0.584488
v 1.653550 -0.001925 0.578118
v 1.652572 0.001504 0.578396
v 1.656269 0.000115 0.576236
v 1.650328 -0.001886 0.573124
v 1.649582 0.002223 0.574078
v 1.647120 -0.000058 0.571605
v 1.647602 -0.001609 0.575224
v 1.643820 0.000079 0.574843
v 1.643569 0.002185 0.571868
v 1.644467 -0.001316 0.570147
v 1.638075 0.000906 0.582769
v 1.639898 -0.002107 0.581735
v 1.634588 -0.000746 0.576738
v 1.638440 0.001151 0.576376
v 1.636733 -0.001975 0.573745
v 1.635834 0.001476 0.573051
v 1.637968 -0.001103 0.577195
v 1.644870 0.000698 0.578485
v 1.644534 -0.001664 0.582052
v 1.640856 -0.000844 0.579837
v 1.643401 0.002045 0.580484
v 1.641573 0.002030 0.582403
v 1.643116 -0.000952 0.592582
v 1.643771 0.001961 0.591431
v 1.646423 -0.000856 0.585756
v 1.644581 0.001825 0.582809
v 1.645158 -0.001890 0.582746
v 1.650096 0.000836 0.582728
v 1.651903 0.000101 0.589859
v 1.655833 0.000691 0.589137
v 1.655185 -0.001883 0.589535
v 1.655537 0.001921 0.590313
v 1.654603 0.001730 0.592638
v 1.652801 -0.000885 0.593032
v 1.654746 -0.000796 0.593163
v 1.657567 -0.001732 0.590281
v 1.658782 0.000852 0.592630
v 1.650771 0.000121 0.597917
v 1.653816 -0.001141 0.601403
v 1.649022 -0.002071 0.600884
v 1.651200 0.001770 0.602243
v 1.646800 0.000674 0.600343
v 1.648563 0.001534 0.591760
v 1.649114 0.002031 0.594640
v 1.649217 -0.001752 0.591211
v 1.652120 0.001022 0.593738
v 1.651389 -0.001657 0.589202
v 1.648952 0.001023 0.587358
v 1.646334 -0.001723 0.590634
v 1.646671 0.000777 0.589690
v 1.649438 -0.000473 0.592900
v 1.628465 0.000469 0.587558
v 1.631336 0.002101 0.588385
v 1.628287 -0.000764 0.595701
v 1.630214 -0.000857 0.590802
v 1.630488 -0.001931 0.589180
v 1.630550 -0.000997 0.585831
v 1.633494 -0.001650 0.590460
v 1.632336 0.001933 0.593064
v 1.629614 0.000802 0.591798
v 1.632008 -0.000669 0.595114
v 1.620118 0.000028 0.607028
v 1.619811 0.001983 0.603570
v 1.620335 -0.001369 0.602985
v 1.617965 -0.002015 0.604315
v 1.616644 0.000794 0.603764
v 1.654025 0.001008 0.597069
v 1.658054 0.001000 0.597769
v 1.655741 -0.002214 0.597289
v 1.659261 -0.001973 0.594031
v 1.659938 0.001461 0.592992
v 1.658691 -0.000128 0.596631
v 1.661750 -0.001877 0.596017
v 1.662579 0.001575 0.596486
v 1.660733 0.000024 0.599852
v 1.657651 -0.000907 0.596808
v 1.656234 -0.000675 0.600830
v 1.656429 0.002126 0.598902
v 1.666837 0.001956 0.621256
v 1.664997 0.001063 0.618795
v 1.664652 -0.001322 0.619114
v 1.667738 -0.001693 0.621398
v 1.665629 0.001089 0.623019
v 1.663912 -0.000850 0.622648
v 1.656514 0.000917 0.618784
v 1.659099 0.001406 0.615919
v 1.657804 -0.002270 0.617657
v 1.653931 0.000553 0.610601
v 1.654516 0.001697 0.606482
v 1.657584 0.000783 0.607847
v 1.655310 -0.002013 0.607306
v 1.653797 -0.001239 0.610200
v 1.649832 0.000469 0.607816
v 1.650978 0.001931 0.610618
v 1.645753 0.001687 0.614278
v 1.646601 0.000850 0.610199
v 1.644416 -0.001844 0.614017
v 1.642707 0.000782 0.611706
v 1.646396 -0.001061 0.610532
v 1.645619 0.001639 0.606410
v 1.645982 -0.001979 0.607093
v 1.652998 -0.001359 0.600829
v 1.653593 0.001929 0.601639
v 1.653671 -0.000453 0.605068
v 1.658995 0.001996 0.605408
v 1.658455 -0.001944 0.603876
v 1.657825 0.000753 0.602573
v 1.659787 -0.000033 0.607078
v 1.661636 -0.000939 0.604753
v 1.661612 0.001802 0.601174
v 1.664439 0.001048 0.602407
v 1.665385 -0.002058 0.599993
v 1.661337 -0.001547 0.600973
v 1.663741 0.000765 0.598209
v 1.667377 0.001512 0.600981
v 1.667901 -0.001128 0.598137
v 1.667937 0.000733 0.598463
v 1.663705 -0.000667 0.596346
v 1.666211 0.002090 0.595377
v 1.667751 -0.000682 0.593989
v 1.670207 -0.001975 0.596460
v 1.671371 0.000707 0.596184
v 1.674240 -0.000238 0.611213
v 1.670033 0.000812 0.610175
v 1.671153 -0.001954 0.610959
v 1.671876 0.001941 0.612468
v 1.667795 -0.000285 0.615180
v 1.664278 -0.001768 0.612737
v 1.663797 0.001259 0.611995
vn -0.0022 0.9899 0.1414
vn -0.7708 0.3444 0.5359
vn -0.1095 0.0757 0.9911
vn -0.8202 -0.5487 0.1619
vn -0.3692 -0.8321 0.4138
vn -0.6778 0.7252 0.1208
vn 0.4824 -0.3766 -0.7908
vn 0.8245 0.3458 -0.4477
vn 0.5732 -0.7611 -0.3035
vn -0.9732 0.0513 -0.2242
vn -0.1126 -0.9437 -0.3109
vn 0.2487 0.9373 -0.2443
vn -0.2977 0.5234 -0.7983
vn 0.8921 0.4204 0.1654
vn 0.4295 0.7957 0.4270
vn 0.6701 -0.5592 0.4881
vn -0.4078 0.7860 -0.4646
vn -0.4398 -0.3359 -0.8329
vn 0.5589 0.5615 0.6102
vn -0.0905 -0.9881 -0.1241
vn -0.6676 -0.2566 -0.6989
vn 0.5649 -0.4418 -0.6969
vn -0.0490 0.9973 0.0534
vn -0.6973 0.1312 0.7046
vn 0.5885 0.5612 -0.5819
vn 0.9058 -0.3729 0.2011
vn 0.5259 0.8345 0.1644
vn -0.0662 -0.9891 0.1311
vn -0.8513 0.4882 -0.1922
vn -0.2335 -0.9713 -0.0440
vn 0.9129 -0.0527 0.4048
vn -0.6738 0.7389 -0.0033
vn -0.6572 -0.7369 -0.1584
vn 0.4427 -0.0305 -0.8961
vn -0.4910 -0.6331 0.5984
vn -0.2728 0.5577 0.7839
vn -0.3544 0.6596 0.6628
vn 0.2182 -0.7881 -0.5755
vn 0.6354 0.4153 -0.6510
vn 0.6505 -0.0089 -0.7595
vn 0.1349 0.7096 -0.6915
vn -0.2169 -0.7041 0.6761
vn -0.3845 -0.8753 0.2933
vn -0.2983 0.9376 0.1785
vn 0.7024 -0.0888 -0.7062
vn -0.7513 -0.1618 0.6398
vn -0.0982 0.9859 0.1355
vn -0.2624 -0.8644 0.4288
vn 0.9127 0.4060 0.0455
vn -0.0825 0.9963 -0.0214
vn 0.6754 -0.6920 0.2548
vn 0.7241 0.3696 0.5823
vn -0.8737 -0.2563 -0.4134
vn -0.7747 -0.6301 -0.0522
vn 0.0168 0.9977 0.0660
vn 0.0854 -0.9922 0.0907
vn -0.3050 -0.9390 -0.1590
vn 0.0669 -0.7154 0.6955
vn -0.0925 0.3664 0.9258
vn -0.3059 -0.8927 0.3310
vn 0.9317 0.0247 -0.3623
vn 0.4504 0.6481 -0.6140
vn -0.4704 0.7552 0.4565
vn 0.3165 -0.8071 -0.4983
vn 0.6238 0.2870 -0.7269
vn -0.8669 -0.0881 0.4906
vn -0.3770 0.8614 0.3403
vn -0.0309 -0.9898 0.1390
vn 0.9096 0.0949 -0.4045
vn 0.0486 0.9893 -0.1376
vn 0.2121 -0.7216 -0.6590
vn -0.3795 -0.7027 0.6017
vn 0.4217 -0.0882 -0.9024
vn -0.1633 -0.1003 0.9814
vn 0.0161 0.9491 -0.3145
vn 0.1739 -0.5470 -0.8188
vn 0.1776 0.8182 0.5468
vn -0.5433 0.2931 0.7867
vn 0.6831 -0.5396 0.4921
vn -0.4135 -0.9103 0.0206
vn 0.3067 0.9320 0.1929
vn -0.9676 -0.2054 0.1470
vn -0.1012 -0.9200 0.3785
vn 0.1038 0.9877 0.1166
vn -0.3812 0.5252 -0.7608
vn -0.1147 -0.7227 -0.6815
vn 0.7508 -0.6579 0.0586
vn 0.8899 0.1574 -0.4280
vn 0.0435 -0.9986 0.0282
vn 0.6438 -0.6098 0.4622
vn 0.2236 0.8515 -0.4743
vn -0.4960 0.7965 0.3457
vn -0.5436 0.6316 -0.5527
vn -0.6829 -0.3588 0.6363
vn -0.3854 -0.6939 -0.6082
vn -0.7677 -0.0016 0.6408
vn 0.4638 0.2251 -0.8568
vn 0.1605 -0.9327 -0.3228
vn 0.2662 0.9367 -0.2275
vn 0.7491 0.2771 -0.6016
vn -0.8294 0.5401 -0.1426
vn -0.6431 -0.3746 0.6678
vn -0.7393 -0.6612 -0.1267
vn 0.6509 -0.6171 -0.4422
vn 0.9473 0.3200 0.0129
vn 0.5770 -0.4063 0.7085
vn 0.0498 0.6219 0.7815
vn 0.4168 0.4902 -0.7655
vn -0.3564 -0.7932 0.4938
vn -0.0552 0.9984 -0.0046
vn -0.8891 0.2244 0.3988
vn -0.1309 -0.9889 0.0699
vn 0.6559 -0.5299 -0.5375
vn 0.9104 0.4075 0.0707
vn -0.1375 0.9885 0.0632
vn 0.0049 0.3806 -0.9247
vn 0.7129 -0.1115 0.6923
vn 0.3552 0.8339 -0.4223
vn 0.8247 -0.5569 -0.0981
vn 0.0297 -0.3181 -0.9476
vn 0.3731 -0.9187 0.1294
vn -0.7137 0.5546 -0.4277
vn 0.5723 0.8036 0.1633
vn 0.7476 -0.3460 0.5668
vn 0.1046 0.0139 0.9944
vn -0.0948 0.9746 0.2030
vn -0.5118 -0.8321 -0.2134
vn -0.5203 -0.8228 0.2285
vn -0.9450 0.3228 0.0529
vn 0.7772 -0.2482 0.5782
vn -0.7038 0.1736 -0.6888
vn 0.6879 0.0670 0.7227
vn 0.1416 0.5332 -0.8340
vn -0.2073 0.8969 0.3905
vn -0.4649 -0.8740 -0.1415
vn 0.7225 0.2542 -0.6429
vn -0.1181 -0.8141 -0.5686
vn 0.6204 -0.7758 -0.1148
vn 0.7836 0.6192 -0.0511
vn 0.5288 -0.0632 0.8464
vn -0.3693 0.2003 -0.9074
vn -0.9315 0.2902 -0.2193
vn -0.3044 -0.2852 0.9088
vn -0.6848 0.5279 -0.5022
vn 0.5376 0.8003 0.2653
vn 0.8957 -0.0717 0.4387
vn -0.5595 -0.7466 -0.3598
vn -0.1190 -0.8962 -0.4273
vn 0.7033 -0.5845 0.4046
vn 0.1151 0.4120 0.9039
vn -0.3688 -0.3406 0.8648
vn 0.5311 0.7339 -0.4234
vn -0.3396 0.8419 -0.4193
vn -0.2219 -0.9574 0.1849
vn -0.6970 0.3735 0.6121
vn 0.8192 0.2401 -0.5208
vn -0.3307 0.6418 0.6919
vn -0.1697 -0.8159 0.5527
vn 0.0474 0.6205 -0.7827
vn 0.2271 -0.7673 -0.5997
vn -0.4564 0.2314 -0.8591
vn 0.0667 0.9907 0.1185
vn -0.0469 0.6335 0.7723
vn -0.3863 -0.6541 0.6503
vn 0.1968 -0.9780 -0.0691
vn -0.9585 0.2788 0.0591
vn 0.3140 0.9485 -0.0413
vn -0.5860 0.6570 -0.4742
vn -0.4291 -0.8413 -0.3287
vn -0.1420 -0.5674 -0.8111
vn -0.0511 0.8349 -0.5480
vn 0.1389 -0.3181 0.9378
vn 0.0145 0.4102 -0.9119
vn 0.0636 0.8951 0.4413
vn -0.0972 -0.9947 -0.0333
vn 0.3144 -0.0604 0.9474
vn 0.5237 -0.4496 0.7236
vn -0.4473 -0.5818 -0.6792
vn -0.2826 0.8469 -0.4503
vn 0.2015 -0.9542 0.2210
vn 0.5102 0.4268 0.7467
vn -0.7855 0.5106 -0.3496
vn 0.6948 0.4548 0.5571
vn -0.4298 -0.1557 0.8894
vn -0.2344 0.8180 -0.5252
vn 0.0051 -0.3013 -0.9535
vn -0.8304 -0.3436 -0.4385
vn 0.4237 -0.8334 -0.3548
vn 0.7869 0.3974 -0.4720
vn 0.9585 -0.0883 0.2711
vn 0.3933 0.8157 0.4241
vn 0.1266 -0.4899 0.8625
vn -0.7896 0.4958 -0.3614
vn 0.0185 -0.9946 0.1024
vn -0.1364 -0.9877 -0.0764
usemtl SVGMat.3781
s 1
f 2//1 5//2 1//3
f 5//2 10//4 4//5
f 2//1 6//6 5//2
f 3//7 8//8 2//1
f 4//5 9//9 3//7
f 10//4 9//9 4//5
f 9//9 8//8 3//7
f 6//6 11//10 10//4
f 10//4 12//11 9//9
f 7//12 14//13 6//6
f 13//14 15//15 14//13
f 12//11 17//16 13//14
f 15//15 18//17 16//18
f 17//16 19//19 15//15
f 16//18 20//20 17//16
f 18//17 21//21 16//18
f 21//21 22//22 20//20
f 18//17 22//22 21//21
f 19//19 24//23 18//17
f 20//20 25//24 19//19
f 23//25 27//26 22//22
f 24//23 28//27 23//25
f 26//28 29//29 25//24
f 29//29 28//27 24//23
f 27//26 30//30 26//28
f 28//27 31//31 27//26
f 29//29 32//32 28//27
f 30//30 33//33 29//29
f 27//26 33//33 30//30
f 32//32 36//34 31//31
f 31//31 35//35 33//33
f 35//35 37//36 34//37
f 36//34 39//38 35//35
f 41//39 42//40 39//38
f 40//41 42//40 41//39
f 38//42 43//43 37//36
f 39//38 43//43 38//42
f 44//44 46//45 42//40
f 45//46 48//47 44//44
f 43//43 47//48 45//46
f 46//45 47//48 43//43
f 48//47 49//49 46//45
f 47//48 50//50 48//47
f 46//45 52//51 47//48
f 50//50 56//52 49//49
f 52//51 54//53 51//54
f 54//53 53//55 50//50
f 55//56 57//57 54//53
f 56//52 58//58 55//56
f 53//55 59//59 56//52
f 59//59 60//60 58//58
f 57//57 62//61 53//55
f 60//60 62//61 57//57
f 62//61 63//62 61//63
f 64//64 63//62 62//61
f 64//64 65//65 63//62
f 65//65 61//63 63//62
f 61//63 66//66 60//60
f 65//65 68//67 61//63
f 66//66 67//68 60//60
f 67//68 69//69 65//65
f 68//67 67//68 66//66
f 69//69 71//70 68//67
f 67//68 70//71 69//69
f 68//67 73//72 67//68
f 71//70 73//72 68//67
f 70//71 72//73 69//69
f 71//70 74//74 73//72
f 75//75 74//74 71//70
f 73//72 76//76 72//73
f 74//74 76//76 73//72
f 76//76 75//75 72//73
f 75//75 1//3 74//74
f 3//7 2//1 75//75
f 74//74 4//5 76//76
f 88//77 77//78 85//79
f 86//80 88//77 87//81
f 77//78 79//82 78//83
f 78//83 80//84 86//80
f 88//77 82//85 77//78
f 80//84 82//85 88//77
f 79//82 81//86 78//83
f 80//84 87//81 82//85
f 83//87 87//81 80//84
f 84//88 85//79 81//86
f 85//79 86//80 83//87
f 87//81 85//79 84//88
f 115//89 91//90 116//91
f 90//92 92//93 89//94
f 116//91 92//93 90//92
f 91//90 92//93 116//91
f 89//94 93//95 115//89
f 91//90 95//96 92//93
f 94//97 97//98 93//95
f 95//96 98//99 92//93
f 93//95 95//96 91//90
f 98//99 96//100 94//97
f 95//96 99//101 98//99
f 97//98 100//102 95//96
f 100//102 99//101 95//96
f 97//98 101//103 100//102
f 96//100 102//104 97//98
f 98//99 102//104 96//100
f 98//99 103//105 102//104
f 103//105 105//106 102//104
f 99//101 107//107 98//99
f 101//103 104//108 99//101
f 105//106 106//109 102//104
f 107//107 106//109 105//106
f 104//108 110//110 107//107
f 108//111 111//112 106//109
f 111//112 113//113 106//109
f 104//108 112//114 110//110
f 112//114 109//115 110//110
f 113//113 114//116 112//114
f 111//112 115//89 113//113
f 115//89 116//91 114//116
f 109//115 90//92 117//117
f 116//91 90//92 109//115
f 117//117 115//89 111//112
f 119//118 124//119 123//120
f 121//121 126//122 119//118
f 125//123 127//124 124//119
f 125//123 128//125 127//124
f 126//122 129//126 125//123
f 129//126 128//125 125//123
f 121//121 130//127 126//122
f 124//119 130//127 121//121
f 127//124 131//128 124//119
f 129//126 132//129 128//125
f 131//128 120//130 130//127
f 132//129 118//131 131//128
f 129//126 118//131 132//129
f 120//130 119//118 129//126
f 134//132 137//133 144//134
f 135//135 138//136 134//132
f 137//133 136//137 135//135
f 136//137 138//136 135//135
f 137//133 139//138 136//137
f 138//136 140//139 137//133
f 140//139 141//140 139//138
f 139//138 142//141 138//136
f 140//139 144//134 141//140
f 141//140 135//135 139//138
f 144//134 133//142 143//143
f 142//141 134//132 144//134
f 135//135 134//132 142//141
f 195//144 145//145 193//146
f 194//147 147//148 195//144
f 193//146 148//149 194//147
f 145//145 149//150 148//149
f 149//150 150//151 148//149
f 147//148 152//152 146//153
f 149//150 153//154 150//151
f 145//145 151//155 149//150
f 146//153 152//152 145//145
f 148//149 153//154 147//148
f 150//151 153//154 148//149
f 153//154 156//156 152//152
f 154//157 158//158 153//154
f 155//159 154//157 151//155
f 157//160 155//159 156//156
f 157//160 159//161 155//159
f 155//159 160//162 154//157
f 159//161 160//162 155//159
f 159//161 161//163 160//162
f 154//157 163//164 158//158
f 160//162 161//163 154//157
f 157//160 165//165 159//161
f 158//158 163//164 157//160
f 161//163 164//166 163//164
f 162//167 166//168 161//163
f 164//166 167//169 163//164
f 166//168 168//170 167//169
f 162//167 169//171 166//168
f 165//165 170//172 162//167
f 167//169 170//172 165//165
f 169//171 173//173 168//170
f 171//174 173//173 169//171
f 172//175 174//176 170//172
f 172//175 175//177 174//176
f 173//173 179//178 172//175
f 171//174 176//179 173//173
f 179//178 178//180 172//175
f 176//179 179//178 173//173
f 175//177 177//181 171//174
f 177//181 176//179 171//174
f 176//179 180//182 179//178
f 180//182 178//180 179//178
f 177//181 181//183 176//179
f 178//180 181//183 177//181
f 178//180 183//184 181//183
f 185//185 186//186 184//187
f 184//187 187//188 178//180
f 185//185 188//189 186//186
f 188//189 189//190 187//188
f 185//185 189//190 188//189
f 183//184 192//191 185//185
f 182//192 190//193 183//184
f 187//188 191//194 182//192
f 192//191 193//146 189//190
f 191//194 195//144 190//193
f 193//146 194//147 191//194
f 1//3 5//2 4//5
f 5//2 6//6 10//4
f 2//1 7//12 6//6
f 2//1 8//8 7//12
f 8//8 9//9 7//12
f 9//9 13//14 7//12
f 9//9 12//11 13//14
f 6//6 14//13 11//10
f 7//12 13//14 14//13
f 10//4 11//10 12//11
f 11//10 14//13 12//11
f 14//13 16//18 12//11
f 14//13 15//15 16//18
f 12//11 16//18 17//16
f 13//14 17//16 15//15
f 15//15 19//19 18//17
f 17//16 20//20 19//19
f 16//18 21//21 20//20
f 18//17 23//25 22//22
f 18//17 24//23 23//25
f 19//19 25//24 24//23
f 20//20 26//28 25//24
f 20//20 22//22 26//28
f 23//25 28//27 27//26
f 25//24 29//29 24//23
f 26//28 30//30 29//29
f 22//22 27//26 26//28
f 28//27 32//32 31//31
f 29//29 33//33 32//32
f 27//26 31//31 33//33
f 33//33 35//35 32//32
f 32//32 34//37 36//34
f 32//32 35//35 34//37
f 31//31 36//34 35//35
f 34//37 40//41 36//34
f 34//37 37//36 40//41
f 35//35 38//42 37//36
f 35//35 39//38 38//42
f 36//34 40//41 39//38
f 40//41 41//39 39//38
f 37//36 44//44 40//41
f 37//36 43//43 44//44
f 39//38 42//40 43//43
f 40//41 44//44 42//40
f 43//43 45//46 44//44
f 45//46 47//48 48//47
f 42//40 46//45 43//43
f 44//44 48//47 46//45
f 46//45 49//49 52//51
f 48//47 50//50 49//49
f 47//48 51//54 50//50
f 47//48 52//51 51//54
f 49//49 56//52 52//51
f 50//50 53//55 56//52
f 51//54 54//53 50//50
f 52//51 55//56 54//53
f 52//51 56//52 55//56
f 54//53 57//57 53//55
f 55//56 58//58 57//57
f 56//52 59//59 58//58
f 53//55 61//63 59//59
f 58//58 60//60 57//57
f 59//59 61//63 60//60
f 53//55 62//61 61//63
f 60//60 64//64 62//61
f 64//64 60//60 65//65
f 61//63 68//67 66//66
f 60//60 67//68 65//65
f 65//65 69//69 68//67
f 67//68 73//72 70//71
f 69//69 72//73 71//70
f 71//70 72//73 75//75
f 70//71 73//72 72//73
f 76//76 3//7 75//75
f 75//75 2//1 1//3
f 76//76 4//5 3//7
f 74//74 1//3 4//5
f 85//79 77//78 78//83
f 86//80 80//84 88//77
f 78//83 83//87 80//84
f 77//78 82//85 79//82
f 78//83 81//86 83//87
f 79//82 82//85 81//86
f 82//85 84//88 81//86
f 82//85 87//81 84//88
f 81//86 85//79 83//87
f 83//87 86//80 87//81
f 87//81 88//77 85//79
f 85//79 78//83 86//80
f 89//94 92//93 93//95
f 115//89 93//95 91//90
f 92//93 94//97 93//95
f 92//93 98//99 94//97
f 94//97 96//100 97//98
f 93//95 97//98 95//96
f 100//102 101//103 99//101
f 97//98 102//104 101//103
f 98//99 107//107 103//105
f 99//101 104//108 107//107
f 103//105 107//107 105//106
f 102//104 106//109 101//103
f 101//103 106//109 104//108
f 107//107 108//111 106//109
f 107//107 110//110 108//111
f 108//111 109//115 111//112
f 108//111 110//110 109//115
f 106//109 113//113 104//108
f 104//108 113//113 112//114
f 112//114 114//116 109//115
f 109//115 117//117 111//112
f 113//113 115//89 114//116
f 114//116 116//91 109//115
f 117//117 90//92 89//94
f 117//117 89//94 115//89
f 118//131 123//120 122//195
f 120//130 121//121 119//118
f 120//130 122//195 121//121
f 118//131 119//118 123//120
f 123//120 124//119 122//195
f 119//118 125//123 124//119
f 119//118 126//122 125//123
f 122//195 124//119 121//121
f 126//122 130//127 129//126
f 124//119 131//128 130//127
f 127//124 128//125 131//128
f 128//125 132//129 131//128
f 130//127 120//130 129//126
f 129//126 119//118 118//131
f 131//128 122//195 120//130
f 131//128 118//131 122//195
f 144//134 137//133 133//142
f 133//142 137//133 135//135
f 134//132 138//136 137//133
f 136//137 139//138 138//136
f 137//133 140//139 139//138
f 138//136 144//134 140//139
f 138//136 142//141 144//134
f 141//140 144//134 143//143
f 139//138 135//135 142//141
f 141//140 143//143 135//135
f 143//143 133//142 135//135
f 193//146 145//145 148//149
f 195//144 146//153 145//145
f 195//144 147//148 146//153
f 194//147 148//149 147//148
f 149//150 151//155 153//154
f 145//145 152//152 151//155
f 147//148 153//154 152//152
f 151//155 154//157 153//154
f 152//152 155//159 151//155
f 152//152 156//156 155//159
f 153//154 157//160 156//156
f 153//154 158//158 157//160
f 154//157 161//163 163//164
f 159//161 162//167 161//163
f 159//161 165//165 162//167
f 157//160 163//164 165//165
f 161//163 166//168 164//166
f 164//166 166//168 167//169
f 163//164 167//169 165//165
f 166//168 169//171 168//170
f 162//167 170//172 169//171
f 167//169 168//170 170//172
f 170//172 171//174 169//171
f 168//170 172//175 170//172
f 168//170 173//173 172//175
f 170//172 174//176 171//174
f 174//176 175//177 171//174
f 172//175 178//180 175//177
f 175//177 178//180 177//181
f 176//179 181//183 180//182
f 178//180 182//192 183//184
f 181//183 185//185 180//182
f 181//183 183//184 185//185
f 180//182 184//187 178//180
f 180//182 185//185 184//187
f 178//180 187//188 182//192
f 184//187 186//186 187//188
f 186//186 188//189 187//188
f 185//185 192//191 189//190
f 183//184 190//193 192//191
f 182//192 191//194 190//193
f 187//188 189//190 191//194
f 189//190 193//146 191//194
f 190//193 195//144 192//191
f 191//194 194//147 195//144
f 192//191 195//144 193//146
