# Blender v2.79 (sub 0) OBJ File: 'world_countrycodes_export2.blend'
# www.blender.org
mtllib PL.mtl
o PL.002_CUCurve.1822
v 1.041534 0.000000 0.311683
v 1.041504 0.000000 0.313426
v 1.041145 0.000000 0.315250
v 1.040578 0.000000 0.316329
v 1.040722 0.000000 0.317152
v 1.041744 0.000000 0.317869
v 1.042452 0.000000 0.318882
v 1.042722 0.000000 0.319921
v 1.042741 0.000000 0.320865
v 1.043295 0.000000 0.322148
v 1.043483 0.000000 0.324245
v 1.043783 0.000000 0.325846
v 1.044785 0.000000 0.327917
v 1.045243 0.000000 0.328905
v 1.045249 0.000000 0.329851
v 1.045004 0.000000 0.330548
v 1.047239 0.000000 0.331980
v 1.049853 0.000000 0.333049
v 1.051443 0.000000 0.333992
v 1.052138 0.000000 0.335256
v 1.052785 0.000000 0.336139
v 1.054015 0.000000 0.336867
v 1.054826 0.000000 0.336723
v 1.055389 0.000000 0.335858
v 1.056078 0.000000 0.335590
v 1.058685 0.000000 0.335876
v 1.059367 0.000000 0.336537
v 1.059770 0.000000 0.337964
v 1.060274 0.000000 0.338276
v 1.063113 0.000000 0.338625
v 1.063966 0.000000 0.339242
v 1.065194 0.000000 0.341347
v 1.065983 0.000000 0.342113
v 1.066721 0.000000 0.342402
v 1.067522 0.000000 0.342260
v 1.068998 0.000000 0.341651
v 1.070435 0.000000 0.342242
v 1.072071 0.000000 0.342582
v 1.073774 0.000000 0.342520
v 1.075325 0.000000 0.342182
v 1.077731 0.000000 0.342778
v 1.079522 0.000000 0.342712
v 1.081198 0.000000 0.342904
v 1.083511 0.000000 0.343845
v 1.085022 0.000000 0.344383
v 1.086871 0.000000 0.344684
v 1.086977 0.000000 0.343857
v 1.086588 0.000000 0.340996
v 1.089622 0.000000 0.337715
v 1.092354 0.000000 0.335123
v 1.093675 0.000000 0.334356
v 1.094346 0.000000 0.333692
v 1.094556 0.000000 0.332786
v 1.093701 0.000000 0.330542
v 1.092116 0.000000 0.327787
v 1.091686 0.000000 0.326030
v 1.091593 0.000000 0.324121
v 1.091826 0.000000 0.322454
v 1.091493 0.000000 0.321740
v 1.089942 0.000000 0.320324
v 1.089977 0.000000 0.319741
v 1.090540 0.000000 0.318979
v 1.092014 0.000000 0.317806
v 1.093342 0.000000 0.317110
v 1.093787 0.000000 0.316351
v 1.093751 0.000000 0.314079
v 1.093249 0.000000 0.312699
v 1.092423 0.000000 0.311747
v 1.091905 0.000000 0.310677
v 1.091713 0.000000 0.309528
v 1.092072 0.000000 0.307743
v 1.091819 0.000000 0.306873
v 1.090641 0.000000 0.305965
v 1.088963 0.000000 0.305202
v 1.087521 0.000000 0.304860
v 1.087424 0.000000 0.304637
v 1.083108 0.000000 0.304822
v 1.077560 0.000000 0.304615
v 1.072704 0.000000 0.303995
v 1.069844 0.000000 0.302937
v 1.069268 0.000000 0.303650
v 1.068438 0.000000 0.304194
v 1.067413 0.000000 0.304538
v 1.065917 0.000000 0.304447
v 1.064855 0.000000 0.303815
v 1.064157 0.000000 0.302353
v 1.063915 0.000000 0.301017
v 1.063597 0.000000 0.300758
v 1.061881 0.000000 0.300764
v 1.057801 0.000000 0.301563
v 1.052990 0.000000 0.303427
v 1.050547 0.000000 0.305296
v 1.048171 0.000000 0.306177
v 1.043525 0.000000 0.306874
v 1.042772 0.000000 0.307327
v 1.042523 0.000000 0.308339
v 1.041980 0.000000 0.308909
v 1.041380 0.000000 0.308957
v 1.041054 0.000000 0.308833
v 1.041027 0.000000 0.309195
v 1.042722 0.050000 0.319921
v 1.042741 0.050000 0.320865
v 1.048171 0.050000 0.306177
v 1.043525 0.050000 0.306874
v 1.049853 0.050000 0.333049
v 1.094346 0.050000 0.333692
v 1.044785 0.050000 0.327917
v 1.092116 0.050000 0.327787
v 1.043295 0.050000 0.322148
v 1.091593 0.050000 0.324121
v 1.092072 0.050000 0.307743
v 1.042523 0.050000 0.308339
v 1.059770 0.050000 0.337964
v 1.060274 0.050000 0.338276
v 1.090540 0.050000 0.318979
v 1.092014 0.050000 0.317806
v 1.075325 0.050000 0.342182
v 1.077731 0.050000 0.342778
v 1.043483 0.050000 0.324245
v 1.043783 0.050000 0.325846
v 1.087424 0.050000 0.304637
v 1.083108 0.050000 0.304822
v 1.064157 0.050000 0.302353
v 1.052990 0.050000 0.303427
v 1.091905 0.050000 0.310677
v 1.091713 0.050000 0.309528
v 1.083511 0.050000 0.343845
v 1.086977 0.050000 0.343857
v 1.089622 0.050000 0.337715
v 1.041744 0.050000 0.317869
v 1.042452 0.050000 0.318882
v 1.063915 0.050000 0.301017
v 1.063597 0.050000 0.300758
v 1.052138 0.050000 0.335256
v 1.056078 0.050000 0.335590
v 1.091826 0.050000 0.322454
v 1.093675 0.050000 0.334356
v 1.041380 0.050000 0.308957
v 1.041027 0.050000 0.309195
v 1.052785 0.050000 0.336139
v 1.054826 0.050000 0.336723
v 1.041145 0.050000 0.315250
v 1.093787 0.050000 0.316351
v 1.070435 0.050000 0.342242
v 1.086588 0.050000 0.340996
v 1.067413 0.050000 0.304538
v 1.065917 0.050000 0.304447
v 1.091493 0.050000 0.321740
v 1.045243 0.050000 0.328905
v 1.050547 0.050000 0.305296
v 1.047239 0.050000 0.331980
v 1.093701 0.050000 0.330542
v 1.073774 0.050000 0.342520
v 1.041534 0.050000 0.311683
v 1.093249 0.050000 0.312699
v 1.063966 0.050000 0.339242
v 1.040578 0.050000 0.316329
v 1.040722 0.050000 0.317152
v 1.061881 0.050000 0.300764
v 1.057801 0.050000 0.301563
v 1.091819 0.050000 0.306873
v 1.090641 0.050000 0.305965
v 1.079522 0.050000 0.342712
v 1.081198 0.050000 0.342904
v 1.089977 0.050000 0.319741
v 1.093751 0.050000 0.314079
v 1.045249 0.050000 0.329851
v 1.045004 0.050000 0.330548
v 1.092423 0.050000 0.311747
v 1.077560 0.050000 0.304615
v 1.072704 0.050000 0.303995
v 1.064855 0.050000 0.303815
v 1.041054 0.050000 0.308833
v 1.068438 0.050000 0.304194
v 1.067522 0.050000 0.342260
v 1.068998 0.050000 0.341651
v 1.089942 0.050000 0.320324
v 1.088963 0.050000 0.305202
v 1.054015 0.050000 0.336867
v 1.085022 0.050000 0.344383
v 1.086871 0.050000 0.344684
v 1.066721 0.050000 0.342402
v 1.069844 0.050000 0.302937
v 1.055389 0.050000 0.335858
v 1.042772 0.050000 0.307327
v 1.091686 0.050000 0.326030
v 1.065194 0.050000 0.341347
v 1.065983 0.050000 0.342113
v 1.093342 0.050000 0.317110
v 1.051443 0.050000 0.333992
v 1.059367 0.050000 0.336537
v 1.058685 0.050000 0.335876
v 1.041504 0.050000 0.313426
v 1.069268 0.050000 0.303650
v 1.087521 0.050000 0.304860
v 1.092354 0.050000 0.335123
v 1.041980 0.050000 0.308909
v 1.072071 0.050000 0.342582
v 1.094556 0.050000 0.332786
v 1.063113 0.050000 0.338625
vn 0.0000 -1.0000 0.0000
vn 0.0000 1.0000 -0.0000
vn -0.1088 0.0000 0.9941
vn -0.3785 0.0000 0.9256
vn -0.5152 0.0000 -0.8571
vn -0.0804 0.0000 -0.9968
vn 0.9839 0.0000 -0.1785
vn 0.7342 0.0000 0.6789
vn 0.9600 0.0000 -0.2799
vn 0.8999 0.0000 -0.4361
vn 0.0367 0.0000 0.9993
vn 0.1266 0.0000 -0.9920
vn -0.7782 0.0000 -0.6280
vn 0.9024 0.0000 -0.4310
vn -0.6077 0.0000 -0.7942
vn 0.9982 0.0000 0.0600
vn -0.8854 0.0000 -0.4648
vn -0.5102 0.0000 0.8601
vn 0.3557 0.0000 -0.9346
vn -0.3353 0.0000 0.9421
vn -0.3179 0.0000 -0.9481
vn 0.7555 0.0000 -0.6552
vn -0.9960 0.0000 0.0892
vn 0.5121 0.0000 -0.8589
vn -0.9680 0.0000 0.2509
vn -0.9998 0.0000 0.0207
vn 0.3818 0.0000 0.9243
vn -0.1221 0.0000 0.9925
vn -0.1483 0.0000 -0.9889
vn -0.5480 0.0000 -0.8365
vn -0.5743 0.0000 0.8187
vn 0.0373 0.0000 -0.9993
vn 0.6883 0.0000 0.7254
vn 0.4138 0.0000 -0.9104
vn -0.0037 0.0000 -1.0000
vn 0.2309 0.0000 -0.9730
vn -0.6967 0.0000 0.7173
vn -0.5265 0.0000 0.8502
vn 0.1744 0.0000 0.9847
vn 0.6227 0.0000 0.7825
vn -0.8761 0.0000 0.4821
vn -0.2401 0.0000 0.9707
vn -0.9002 0.0000 0.4355
vn -0.9829 0.0000 0.1841
vn -0.1609 0.0000 0.9870
vn -0.0426 0.0000 -0.9991
vn -0.3767 0.0000 0.9263
vn -0.3478 0.0000 -0.9376
vn -0.9074 0.0000 0.4203
vn 0.5017 0.0000 0.8650
vn -0.5098 0.0000 0.8603
vn 0.9863 0.0000 -0.1650
vn -0.7241 0.0000 -0.6897
vn 0.9156 0.0000 -0.4020
vn 0.1742 0.0000 0.9847
vn 0.3469 0.0000 -0.9379
vn -0.8197 0.0000 0.5729
vn 0.7039 0.0000 0.7103
vn 0.6328 0.0000 -0.7743
vn 0.9803 0.0000 0.1974
vn 0.8382 0.0000 0.5454
vn 0.9988 0.0000 -0.0485
vn -0.9710 0.0000 -0.2391
vn 0.0363 0.0000 0.9993
vn 0.8668 0.0000 -0.4987
vn -0.5863 0.0000 0.8101
vn -0.9999 0.0000 -0.0172
vn 0.9714 0.0000 -0.2376
vn -0.9179 0.0000 0.3968
vn 0.9909 0.0000 -0.1349
vn 0.8038 0.0000 0.5949
vn 0.9345 0.0000 -0.3560
vn 0.6742 0.0000 -0.7386
vn 0.9904 0.0000 0.1384
vn 0.0601 0.0000 -0.9982
vn 0.3618 0.0000 0.9322
vn 0.4645 0.0000 0.8856
vn 0.9061 0.0000 -0.4231
vn -0.9974 0.0000 -0.0722
vn 0.9742 0.0000 0.2257
vn 0.9398 0.0000 -0.3417
vn -0.6963 0.0000 0.7177
vn -0.3649 0.0000 0.9310
vn -0.8065 0.0000 0.5912
vn -0.9799 0.0000 0.1996
vn 0.2126 0.0000 0.9771
vn -0.5395 0.0000 0.8420
vn -0.9850 0.0000 0.1724
vn -0.1922 0.0000 -0.9814
vn -0.8636 0.0000 0.5042
vn -0.9812 0.0000 -0.1932
vn 0.6105 0.0000 -0.7920
vn -0.3805 0.0000 0.9248
vn 0.9918 0.0000 0.1279
vn -0.1139 0.0000 0.9935
vn -1.0000 0.0000 0.0071
vn -0.9623 0.0000 0.2720
vn -0.3612 0.0000 -0.9325
vn -0.2034 0.0000 0.9791
vn 0.8628 0.0000 0.5056
vn 0.9999 0.0000 -0.0159
vn -0.9434 0.0000 -0.3316
usemtl SVGMat.3781
s off
f 89//1 88//1 87//1
f 90//1 89//1 87//1
f 90//1 87//1 86//1
f 91//1 90//1 86//1
f 91//1 86//1 85//1
f 81//1 80//1 79//1
f 92//1 91//1 85//1
f 82//1 81//1 79//1
f 92//1 85//1 84//1
f 82//1 79//1 78//1
f 83//1 82//1 78//1
f 92//1 84//1 83//1
f 92//1 83//1 78//1
f 77//1 76//1 75//1
f 92//1 78//1 77//1
f 92//1 77//1 75//1
f 92//1 75//1 74//1
f 92//1 74//1 73//1
f 93//1 92//1 73//1
f 93//1 73//1 72//1
f 94//1 93//1 72//1
f 95//1 94//1 72//1
f 95//1 72//1 71//1
f 96//1 95//1 71//1
f 97//1 96//1 71//1
f 97//1 71//1 70//1
f 100//1 99//1 98//1
f 98//1 97//1 70//1
f 100//1 98//1 70//1
f 100//1 70//1 69//1
f 1//1 100//1 69//1
f 1//1 69//1 68//1
f 1//1 68//1 67//1
f 2//1 1//1 67//1
f 2//1 67//1 66//1
f 3//1 2//1 66//1
f 3//1 66//1 65//1
f 4//1 3//1 65//1
f 5//1 4//1 65//1
f 5//1 65//1 64//1
f 5//1 64//1 63//1
f 6//1 5//1 63//1
f 6//1 63//1 62//1
f 7//1 6//1 62//1
f 7//1 62//1 61//1
f 8//1 7//1 61//1
f 8//1 61//1 60//1
f 9//1 8//1 60//1
f 9//1 60//1 59//1
f 10//1 9//1 59//1
f 10//1 59//1 58//1
f 10//1 58//1 57//1
f 11//1 10//1 57//1
f 12//1 11//1 57//1
f 12//1 57//1 56//1
f 13//1 12//1 56//1
f 13//1 56//1 55//1
f 14//1 13//1 55//1
f 14//1 55//1 54//1
f 15//1 14//1 54//1
f 16//1 15//1 54//1
f 17//1 16//1 54//1
f 17//1 54//1 53//1
f 18//1 17//1 53//1
f 18//1 53//1 52//1
f 19//1 18//1 52//1
f 19//1 52//1 51//1
f 20//1 19//1 51//1
f 20//1 51//1 50//1
f 20//1 50//1 25//1
f 25//1 50//1 49//1
f 26//1 25//1 49//1
f 21//1 20//1 25//1
f 21//1 25//1 24//1
f 27//1 26//1 49//1
f 21//1 24//1 23//1
f 22//1 21//1 23//1
f 28//1 27//1 49//1
f 29//1 28//1 49//1
f 30//1 29//1 49//1
f 31//1 30//1 49//1
f 31//1 49//1 48//1
f 32//1 31//1 48//1
f 36//1 32//1 48//1
f 33//1 32//1 36//1
f 37//1 36//1 48//1
f 33//1 36//1 35//1
f 40//1 37//1 48//1
f 34//1 33//1 35//1
f 37//1 40//1 39//1
f 38//1 37//1 39//1
f 41//1 40//1 48//1
f 42//1 41//1 48//1
f 43//1 42//1 48//1
f 43//1 48//1 47//1
f 44//1 43//1 47//1
f 45//1 44//1 47//1
f 45//1 47//1 46//1
f 159//2 132//2 133//2
f 160//2 132//2 159//2
f 160//2 123//2 132//2
f 124//2 123//2 160//2
f 124//2 172//2 123//2
f 194//2 171//2 183//2
f 150//2 172//2 124//2
f 174//2 171//2 194//2
f 150//2 147//2 172//2
f 174//2 170//2 171//2
f 146//2 170//2 174//2
f 150//2 146//2 147//2
f 150//2 170//2 146//2
f 122//2 195//2 121//2
f 150//2 122//2 170//2
f 150//2 195//2 122//2
f 150//2 178//2 195//2
f 150//2 162//2 178//2
f 103//2 162//2 150//2
f 103//2 161//2 162//2
f 104//2 161//2 103//2
f 185//2 161//2 104//2
f 185//2 111//2 161//2
f 112//2 111//2 185//2
f 197//2 111//2 112//2
f 197//2 126//2 111//2
f 139//2 138//2 173//2
f 138//2 126//2 197//2
f 139//2 126//2 138//2
f 139//2 125//2 126//2
f 154//2 125//2 139//2
f 154//2 169//2 125//2
f 154//2 155//2 169//2
f 193//2 155//2 154//2
f 193//2 166//2 155//2
f 142//2 166//2 193//2
f 142//2 143//2 166//2
f 157//2 143//2 142//2
f 158//2 143//2 157//2
f 158//2 189//2 143//2
f 158//2 116//2 189//2
f 130//2 116//2 158//2
f 130//2 115//2 116//2
f 131//2 115//2 130//2
f 131//2 165//2 115//2
f 101//2 165//2 131//2
f 101//2 177//2 165//2
f 102//2 177//2 101//2
f 102//2 148//2 177//2
f 109//2 148//2 102//2
f 109//2 136//2 148//2
f 109//2 110//2 136//2
f 119//2 110//2 109//2
f 120//2 110//2 119//2
f 120//2 186//2 110//2
f 107//2 186//2 120//2
f 107//2 108//2 186//2
f 149//2 108//2 107//2
f 149//2 152//2 108//2
f 167//2 152//2 149//2
f 168//2 152//2 167//2
f 151//2 152//2 168//2
f 151//2 199//2 152//2
f 105//2 199//2 151//2
f 105//2 106//2 199//2
f 190//2 106//2 105//2
f 190//2 137//2 106//2
f 134//2 137//2 190//2
f 134//2 196//2 137//2
f 134//2 135//2 196//2
f 135//2 129//2 196//2
f 192//2 129//2 135//2
f 140//2 135//2 134//2
f 140//2 184//2 135//2
f 191//2 129//2 192//2
f 140//2 141//2 184//2
f 179//2 141//2 140//2
f 113//2 129//2 191//2
f 114//2 129//2 113//2
f 200//2 129//2 114//2
f 156//2 129//2 200//2
f 156//2 145//2 129//2
f 187//2 145//2 156//2
f 176//2 145//2 187//2
f 188//2 176//2 187//2
f 144//2 145//2 176//2
f 188//2 175//2 176//2
f 117//2 145//2 144//2
f 182//2 175//2 188//2
f 144//2 153//2 117//2
f 198//2 153//2 144//2
f 118//2 145//2 117//2
f 163//2 145//2 118//2
f 164//2 145//2 163//2
f 164//2 128//2 145//2
f 127//2 128//2 164//2
f 180//2 128//2 127//2
f 180//2 181//2 128//2
f 25//3 26//3 192//3 135//3
f 17//4 18//4 105//4 151//4
f 94//5 95//5 185//5 104//5
f 97//6 98//6 138//6 197//6
f 86//7 87//7 132//7 123//7
f 48//8 49//8 129//8 145//8
f 71//9 72//9 161//9 111//9
f 68//10 69//10 125//10 169//10
f 41//11 42//11 163//11 118//11
f 78//12 79//12 171//12 170//12
f 80//13 81//13 194//13 183//13
f 85//14 86//14 123//14 172//14
f 91//15 92//15 150//15 124//15
f 60//16 61//16 165//16 177//16
f 3//17 4//17 157//17 142//17
f 18//18 19//18 190//18 105//18
f 98//19 99//19 173//19 138//19
f 44//20 45//20 180//20 127//20
f 82//21 83//21 146//21 174//21
f 67//22 68//22 169//22 155//22
f 10//23 11//23 119//23 109//23
f 84//24 85//24 172//24 147//24
f 7//25 8//25 101//25 131//25
f 8//26 9//26 102//26 101//26
f 35//27 36//27 176//27 175//27
f 29//28 30//28 200//28 114//28
f 93//29 94//29 104//29 103//29
f 81//30 82//30 174//30 194//30
f 5//31 6//31 130//31 158//31
f 77//32 78//32 170//32 122//32
f 49//33 50//33 196//33 129//33
f 73//34 74//34 178//34 162//34
f 88//35 89//35 159//35 133//35
f 74//36 75//36 195//36 178//36
f 32//37 33//37 188//37 187//37
f 28//38 29//38 114//38 113//38
f 22//39 23//39 141//39 179//39
f 62//40 63//40 116//40 115//40
f 19//41 20//41 134//41 190//41
f 40//42 41//42 118//42 117//42
f 12//43 13//43 107//43 120//43
f 11//44 12//44 120//44 119//44
f 45//45 46//45 181//45 180//45
f 76//46 77//46 122//46 121//46
f 43//47 44//47 127//47 164//47
f 92//48 93//48 103//48 150//48
f 13//49 14//49 149//49 107//49
f 50//50 51//50 137//50 196//50
f 21//51 22//51 179//51 140//51
f 69//52 70//52 126//52 125//52
f 96//53 97//53 197//53 112//53
f 75//54 76//54 121//54 195//54
f 34//55 35//55 175//55 182//55
f 79//56 80//56 183//56 171//56
f 6//57 7//57 131//57 130//57
f 51//58 52//58 106//58 137//58
f 87//59 88//59 133//59 132//59
f 70//60 71//60 111//60 126//60
f 23//61 24//61 184//61 141//61
f 56//62 57//62 110//62 186//62
f 95//63 96//63 112//63 185//63
f 38//64 39//64 153//64 198//64
f 54//65 55//65 108//65 152//65
f 30//66 31//66 156//66 200//66
f 1//67 2//67 193//67 154//67
f 55//68 56//68 186//68 108//68
f 9//69 10//69 109//69 102//69
f 47//70 48//70 145//70 128//70
f 61//71 62//71 115//71 165//71
f 53//72 54//72 152//72 199//72
f 59//73 60//73 177//73 148//73
f 57//74 58//74 136//74 110//74
f 83//75 84//75 147//75 146//75
f 24//76 25//76 135//76 184//76
f 63//77 64//77 189//77 116//77
f 58//78 59//78 148//78 136//78
f 99//79 100//79 139//79 173//79
f 52//80 53//80 199//80 106//80
f 66//81 67//81 155//81 166//81
f 26//82 27//82 191//82 192//82
f 33//83 34//83 182//83 188//83
f 20//84 21//84 140//84 134//84
f 100//85 1//85 154//85 139//85
f 39//86 40//86 117//86 153//86
f 16//87 17//87 151//87 168//87
f 4//88 5//88 158//88 157//88
f 89//89 90//89 160//89 159//89
f 31//90 32//90 187//90 156//90
f 2//91 3//91 142//91 193//91
f 72//92 73//92 162//92 161//92
f 36//93 37//93 144//93 176//93
f 46//94 47//94 128//94 181//94
f 42//95 43//95 164//95 163//95
f 14//96 15//96 167//96 149//96
f 27//97 28//97 113//97 191//97
f 90//98 91//98 124//98 160//98
f 37//99 38//99 198//99 144//99
f 64//100 65//100 143//100 189//100
f 65//101 66//101 166//101 143//101
f 15//102 16//102 168//102 167//102
