# Blender v2.79 (sub 0) OBJ File: 'world_countrycodes_outlines2.blend'
# www.blender.org
mtllib PL_outline.mtl
o PL.001_CUCurve.1648
v 1.039785 0.000694 0.306441
v 1.042703 0.001452 0.310196
v 1.043307 -0.000047 0.311027
v 1.039822 -0.001595 0.307679
v 1.041591 0.001982 0.308258
v 1.044368 -0.000705 0.308963
v 1.041797 0.000604 0.305366
v 1.041014 -0.000978 0.306678
v 1.050469 0.000819 0.307586
v 1.050227 -0.001389 0.307164
v 1.048895 0.000801 0.303972
v 1.052218 0.002029 0.304060
v 1.053715 -0.000659 0.300676
v 1.054270 0.001407 0.301053
v 1.055284 0.000798 0.304334
v 1.051878 -0.001970 0.304321
v 1.063991 -0.001968 0.299833
v 1.065008 0.000016 0.298876
v 1.064492 0.001900 0.299971
v 1.062611 0.001424 0.302112
v 1.062398 -0.001005 0.302473
v 1.066629 -0.000783 0.302820
v 1.066636 0.001218 0.303343
v 1.065750 0.001889 0.305639
v 1.063806 0.000039 0.305873
v 1.065968 -0.001846 0.305696
v 1.070330 -0.000079 0.305733
v 1.070039 0.001956 0.304123
v 1.070047 -0.001956 0.304125
v 1.069166 0.000820 0.301165
v 1.069294 -0.001502 0.302032
v 1.090275 0.001351 0.306933
v 1.088021 0.001431 0.303460
v 1.089170 -0.000050 0.302900
v 1.087707 -0.000890 0.306832
v 1.088875 -0.001448 0.303495
v 1.091702 -0.001950 0.306134
v 1.092785 0.001880 0.306129
v 1.089981 -0.000802 0.307935
v 1.093969 -0.000904 0.306640
v 1.093109 0.001399 0.310115
v 1.091235 0.001933 0.311471
v 1.093693 -0.000719 0.310021
v 1.089810 0.000022 0.310667
v 1.091442 -0.001912 0.311926
v 1.092091 -0.000013 0.315211
v 1.092702 0.001321 0.315411
v 1.092619 -0.001299 0.315496
v 1.094870 -0.001963 0.314393
v 1.095478 0.000755 0.312685
v 1.095497 -0.000872 0.317726
v 1.094639 0.001937 0.316972
v 1.092196 -0.000031 0.319915
v 1.090678 -0.001988 0.319755
v 1.090767 0.002005 0.319993
v 1.088248 0.001508 0.319798
v 1.087685 -0.000026 0.319432
v 1.088245 -0.001520 0.320035
v 1.089690 0.000627 0.322904
v 1.091064 -0.001999 0.322386
v 1.093142 -0.001420 0.321537
v 1.093681 0.000870 0.321766
v 1.093019 0.001404 0.326161
v 1.091150 0.001943 0.327638
v 1.093575 -0.000653 0.325868
v 1.089858 -0.000801 0.327456
v 1.092427 -0.000728 0.332483
v 1.093867 0.001974 0.332982
v 1.095431 -0.001969 0.332494
v 1.096143 0.001463 0.333883
v 1.096610 -0.000018 0.334327
v 1.095201 -0.001422 0.334738
v 1.087520 0.001875 0.341389
v 1.088893 -0.000114 0.341634
v 1.085179 0.001423 0.340461
v 1.084651 -0.000851 0.340337
v 1.087449 -0.001993 0.341245
v 1.085260 -0.000788 0.342509
v 1.086248 0.001931 0.343775
v 1.087680 -0.001923 0.345411
v 1.088361 0.001035 0.346853
v 1.081236 -0.001393 0.344572
v 1.078455 0.001941 0.341700
v 1.081115 0.000864 0.344913
v 1.077059 -0.000063 0.340353
v 1.077833 -0.001873 0.341547
v 1.073263 0.001373 0.343994
v 1.074987 -0.001977 0.343026
v 1.074564 0.000003 0.344466
v 1.072185 0.000785 0.340717
v 1.069483 -0.001655 0.340859
v 1.068879 -0.000736 0.343943
v 1.068926 0.001938 0.342869
v 1.069511 0.000971 0.339794
v 1.066890 -0.000829 0.340302
v 1.066761 0.001403 0.340982
v 1.065583 -0.001921 0.343024
v 1.064583 0.000015 0.343774
v 1.065430 0.001934 0.342793
v 1.064101 0.001862 0.337930
v 1.063225 -0.002013 0.339352
v 1.062481 0.000967 0.340407
v 1.064645 -0.000683 0.337066
v 1.058871 0.001446 0.339238
v 1.061322 -0.000818 0.336490
v 1.059541 -0.002090 0.337012
v 1.058558 -0.000532 0.339814
v 1.057127 -0.000080 0.337507
v 1.059685 0.002018 0.337056
v 1.057182 -0.001195 0.336944
v 1.059966 0.001440 0.334876
v 1.060108 -0.000735 0.334289
v 1.056144 0.001319 0.337473
v 1.054097 0.001777 0.335761
v 1.055148 0.000650 0.333625
v 1.053960 -0.001357 0.334927
v 1.053923 -0.002006 0.336334
v 1.054104 -0.000035 0.334742
v 1.053297 -0.000732 0.338844
v 1.053510 0.001956 0.337681
v 1.049982 -0.000776 0.335414
v 1.050685 0.001901 0.334505
v 1.052429 0.001426 0.332804
v 1.052673 -0.000641 0.332273
v 1.042536 0.000836 0.331490
v 1.046227 0.001970 0.330458
v 1.047464 -0.000017 0.329808
v 1.046639 -0.001418 0.329948
v 1.044475 -0.001963 0.330019
v 1.043311 -0.001439 0.331409
v 1.043291 0.000700 0.329502
v 1.045592 0.000752 0.325208
v 1.041324 0.000841 0.323593
v 1.041942 0.001895 0.316930
v 1.044252 0.001111 0.318672
v 1.044649 -0.000873 0.319601
v 1.041131 -0.001403 0.319536
v 1.040802 0.000987 0.319769
v 1.042765 -0.000009 0.316273
v 1.041786 -0.001888 0.316817
v 1.038397 0.000044 0.317485
v 1.039592 0.001841 0.317144
v 1.039885 -0.002022 0.316428
v 1.039677 -0.000835 0.313390
v 1.042643 -0.001484 0.310374
v 1.039151 0.000729 0.309564
v 1.041571 -0.001984 0.308217
vn -0.4280 0.3221 -0.8444
vn -0.0770 -0.9855 -0.1510
vn -0.5299 -0.7024 -0.4752
vn 0.5484 -0.8233 0.1461
vn 0.3984 -0.5426 0.7395
vn 0.9717 0.0098 0.2357
vn -0.1848 0.9627 -0.1973
vn -0.5432 0.2617 -0.7978
vn -0.5980 -0.5382 -0.5939
vn 0.0167 -0.9991 -0.0396
vn -0.3458 0.2731 -0.8976
vn 0.3854 0.4082 0.8275
vn 0.5785 0.7825 0.2300
vn 0.3355 -0.6554 0.6766
vn -0.0063 0.9996 0.0285
vn -0.3663 -0.3824 -0.8483
vn -0.2451 0.6686 -0.7020
vn 0.3273 0.2910 0.8990
vn 0.1786 -0.8529 -0.4904
vn 0.5113 0.0162 -0.8592
vn 0.3080 0.8187 -0.4846
vn -0.2638 -0.6902 0.6738
vn 0.2926 -0.6715 -0.6808
vn -0.2478 0.8602 0.4456
vn -0.0957 0.7823 0.6155
vn -0.0817 -0.7872 0.6112
vn -0.6066 -0.0021 0.7950
vn 0.0603 -0.0208 0.9980
vn -0.0137 -0.9723 0.2332
vn 0.0118 0.9821 0.1878
vn 0.1876 0.8488 -0.4942
vn -0.1920 0.3803 -0.9047
vn -0.3645 0.8251 0.4317
vn 0.1297 0.7732 -0.6207
vn 0.3486 0.0302 -0.9368
vn 0.2016 -0.7408 -0.6406
vn -0.1670 -0.7552 -0.6338
vn 0.5556 0.7515 -0.3558
vn 0.2028 -0.9589 -0.1983
vn -0.7853 -0.5108 0.3496
vn -0.1321 -0.3827 0.9144
vn 0.8965 -0.3240 -0.3021
vn 0.8661 -0.4452 -0.2273
vn -0.4092 -0.9017 0.1395
vn -0.4371 0.8846 0.1626
vn -0.9758 -0.0056 0.2186
vn -0.9873 0.0094 -0.1587
vn -0.6167 0.7872 0.0066
vn 0.5235 0.8128 0.2557
vn 0.5402 -0.8370 -0.0871
vn 0.6396 0.7522 -0.1585
vn 0.8996 0.3243 -0.2924
vn 0.8263 -0.3050 0.4735
vn 0.9933 0.0214 0.1129
vn 0.0661 -0.9954 -0.0692
vn 0.0646 0.9975 0.0288
vn -0.7070 0.7068 -0.0244
vn -0.5853 -0.7922 -0.1728
vn -0.9765 -0.0222 -0.2142
vn -0.7379 -0.6734 0.0451
vn -0.9329 0.2430 0.2658
vn 0.7197 -0.6431 -0.2617
vn 0.6413 0.7597 -0.1072
vn 0.8662 0.4123 -0.2821
vn -0.4727 0.8654 0.1665
vn -0.8949 -0.3591 0.2647
vn -0.1664 0.9835 -0.0710
vn 0.9470 -0.2402 -0.2132
vn 0.5028 -0.8569 -0.1132
vn -0.2008 -0.9683 0.1483
vn 0.7324 0.6708 0.1166
vn -0.8679 -0.4690 -0.1635
vn 0.9562 -0.0663 0.2852
vn 0.5473 -0.7207 0.4254
vn 0.2593 0.9622 0.0836
vn 0.9002 -0.0408 0.4334
vn -0.8895 -0.3971 -0.2258
vn -0.7454 0.6316 -0.2133
vn 0.0692 -0.9954 0.0657
vn -0.4747 -0.7259 -0.4977
vn -0.0860 0.9956 0.0362
vn 0.3853 -0.8016 0.4571
vn 0.5263 0.3292 0.7839
vn -0.1382 -0.6763 0.7235
vn -0.1426 0.5052 0.8511
vn 0.1039 -0.8724 -0.4776
vn 0.1240 0.9023 -0.4128
vn -0.0548 0.6691 0.7411
vn -0.0504 -0.9244 0.3780
vn -0.0888 -0.1737 0.9807
vn 0.1114 0.0078 -0.9937
vn 0.0168 0.4902 -0.8714
vn 0.0359 -0.8634 -0.5032
vn -0.0271 0.9234 0.3827
vn -0.0257 -0.4021 0.9152
vn 0.1152 0.4229 -0.8988
vn 0.2719 -0.5579 -0.7841
vn -0.1852 0.8686 0.4597
vn 0.2167 0.8410 -0.4957
vn -0.1984 -0.8722 0.4470
vn -0.5195 0.0093 0.8544
vn -0.0607 -0.9900 0.1272
vn 0.3057 0.8168 -0.4892
vn 0.5129 -0.2985 -0.8049
vn -0.4647 0.7179 0.5183
vn -0.4725 0.5261 0.7070
vn 0.5672 -0.3682 -0.7366
vn 0.1019 0.9922 -0.0719
vn -0.2842 0.0118 0.9587
vn -0.5193 -0.3056 0.7981
vn 0.5172 0.6613 -0.5433
vn 0.0265 -0.9987 -0.0437
vn 0.4960 -0.3657 -0.7875
vn 0.0738 0.9638 -0.2563
vn -0.2743 0.2538 -0.9275
vn 0.2642 -0.7624 -0.5906
vn -0.1744 -0.5382 0.8245
vn -0.0285 -0.9929 0.1151
vn 0.0650 0.1879 -0.9800
vn -0.2465 -0.2962 0.9228
vn 0.1040 0.6374 0.7634
vn -0.1610 0.8109 0.5625
vn -0.5539 -0.2926 0.7794
vn 0.4981 0.6788 -0.5396
vn 0.6103 -0.3395 -0.7157
vn -0.2305 0.9131 0.3361
vn -0.8971 0.3542 0.2641
vn 0.0994 0.9860 -0.1340
vn 0.4495 -0.7936 -0.4099
vn -0.3454 -0.9383 0.0139
vn 0.6687 0.0643 -0.7407
vn -0.7424 -0.6367 0.2083
vn -0.9131 0.4068 0.0259
vn -0.8937 0.3739 0.2480
vn 0.8987 0.3726 -0.2313
vn 0.3429 0.9382 -0.0471
vn -0.6430 -0.7042 0.3012
vn 0.8412 -0.4579 -0.2875
vn -0.7539 0.5408 0.3730
vn 0.3823 -0.9219 -0.0620
vn 0.9698 -0.0476 -0.2390
vn 0.7745 0.5461 -0.3193
vn -0.5401 0.8301 0.1383
vn -0.4595 -0.8861 0.0604
vn -0.9767 -0.0057 0.2143
vn -0.9235 -0.3759 -0.0769
vn -0.9296 0.3595 -0.0806
usemtl SVGMat.3781
s 1
f 1//1 147//2 4//3
f 145//4 6//5 3//6
f 147//2 6//5 145//4
f 5//7 7//8 8//9
f 7//8 16//10 8//9
f 5//7 11//11 7//8
f 6//5 9//12 2//13
f 147//2 10//14 6//5
f 9//12 12//15 5//7
f 10//14 9//12 6//5
f 11//11 13//16 16//10
f 12//15 14//17 11//11
f 10//14 15//18 9//12
f 13//16 17//19 16//10
f 14//17 18//20 13//16
f 12//15 19//21 14//17
f 15//18 19//21 12//15
f 16//10 21//22 15//18
f 17//19 21//22 16//10
f 18//20 22//23 17//19
f 19//21 22//23 18//20
f 20//24 24//25 19//21
f 22//23 26//26 17//19
f 25//27 24//25 20//24
f 26//26 27//28 25//27
f 22//23 29//29 26//26
f 27//28 28//30 24//25
f 23//31 30//32 22//23
f 28//30 30//32 23//31
f 27//28 32//33 28//30
f 28//30 33//34 30//32
f 33//34 34//35 30//32
f 34//35 36//36 31//37
f 32//33 38//38 28//30
f 36//36 37//39 29//29
f 37//39 39//40 35//41
f 34//35 40//42 36//36
f 38//38 40//42 34//35
f 38//38 43//43 40//42
f 40//42 45//44 37//39
f 32//33 42//45 38//38
f 44//46 42//45 32//33
f 45//44 46//47 44//46
f 46//47 47//48 42//45
f 47//48 52//49 42//45
f 43//43 49//50 45//44
f 41//51 50//52 43//43
f 52//49 50//52 41//51
f 50//52 51//53 49//50
f 52//49 53//54 51//53
f 51//53 54//55 49//50
f 53//54 54//55 51//53
f 47//48 55//56 52//49
f 46//47 56//57 47//48
f 48//58 57//59 46//47
f 54//55 58//60 48//58
f 58//60 59//61 57//59
f 53//54 61//62 54//55
f 55//56 63//63 62//64
f 59//61 64//65 55//56
f 66//66 64//65 59//61
f 66//66 68//67 64//65
f 65//68 69//69 60//70
f 68//67 70//71 63//63
f 69//69 67//72 66//66
f 70//71 71//73 65//68
f 71//73 72//74 69//69
f 68//67 73//75 70//71
f 73//75 74//76 71//73
f 69//69 76//77 67//72
f 67//72 75//78 68//67
f 74//76 77//79 72//74
f 75//78 73//75 68//67
f 77//79 78//80 76//77
f 75//78 79//81 73//75
f 78//80 79//81 75//78
f 74//76 80//82 77//79
f 81//83 82//84 80//82
f 79//81 84//85 81//83
f 82//84 86//86 80//82
f 78//80 83//87 79//81
f 83//87 87//88 84//85
f 82//84 88//89 86//86
f 87//88 89//90 84//85
f 89//90 88//89 82//84
f 85//91 90//92 83//87
f 88//89 91//93 86//86
f 91//93 90//92 85//91
f 90//92 93//94 83//87
f 89//90 92//95 88//89
f 87//88 92//95 89//90
f 91//93 94//96 90//92
f 92//95 91//93 88//89
f 91//93 95//97 94//96
f 94//96 99//98 93//94
f 95//97 96//99 94//96
f 92//95 97//100 91//93
f 93//94 98//101 92//95
f 98//101 101//102 97//100
f 96//99 100//103 99//98
f 95//97 100//103 96//99
f 101//102 103//104 95//97
f 100//103 104//105 102//106
f 101//102 105//107 103//104
f 105//107 109//108 100//103
f 104//105 108//109 107//110
f 105//107 111//111 109//108
f 106//112 112//113 105//107
f 111//111 114//114 109//108
f 112//113 115//115 111//111
f 106//112 116//116 112//113
f 110//117 117//118 106//112
f 116//116 118//119 115//115
f 108//109 119//120 110//117
f 113//121 119//120 108//109
f 120//122 121//123 119//120
f 118//119 123//124 114//114
f 116//116 124//125 118//119
f 123//124 122//126 120//122
f 117//118 124//125 116//116
f 122//126 125//127 121//123
f 123//124 126//128 122//126
f 117//118 128//129 124//125
f 121//123 129//130 117//118
f 127//131 126//128 123//124
f 125//127 129//130 130//132
f 126//128 131//133 125//127
f 126//128 133//134 131//133
f 127//131 132//135 126//128
f 128//129 132//135 127//131
f 132//135 134//136 126//128
f 133//134 137//137 129//130
f 128//129 136//138 132//135
f 134//136 138//139 133//134
f 140//140 136//138 128//129
f 136//138 139//141 135//142
f 139//141 134//136 135//142
f 134//136 142//143 138//139
f 137//137 143//144 140//140
f 141//145 143//144 137//137
f 142//143 144//146 141//145
f 134//136 5//7 142//143
f 140//140 3//6 139//141
f 143//144 145//4 140//140
f 5//7 146//147 142//143
f 3//6 2//13 134//136
f 144//146 147//2 143//144
f 146//147 4//3 144//146
f 5//7 1//1 146//147
f 1//1 8//9 147//2
f 1//1 5//7 8//9
f 3//6 6//5 2//13
f 2//13 9//12 5//7
f 8//9 16//10 147//2
f 7//8 11//11 16//10
f 5//7 12//15 11//11
f 147//2 16//10 10//14
f 11//11 14//17 13//16
f 9//12 15//18 12//15
f 10//14 16//10 15//18
f 13//16 18//20 17//19
f 14//17 19//21 18//20
f 15//18 20//24 19//21
f 15//18 21//22 20//24
f 19//21 23//31 22//23
f 19//21 24//25 23//31
f 21//22 25//27 20//24
f 17//19 26//26 21//22
f 21//22 26//26 25//27
f 25//27 27//28 24//25
f 24//25 28//30 23//31
f 26//26 29//29 27//28
f 22//23 30//32 31//37
f 22//23 31//37 29//29
f 29//29 35//41 27//28
f 30//32 34//35 31//37
f 27//28 35//41 32//33
f 31//37 36//36 29//29
f 28//30 38//38 33//34
f 29//29 37//39 35//41
f 33//34 38//38 34//35
f 35//41 39//40 32//33
f 36//36 40//42 37//39
f 38//38 41//51 43//43
f 37//39 45//44 39//40
f 38//38 42//45 41//51
f 40//42 43//43 45//44
f 39//40 44//46 32//33
f 39//40 45//44 44//46
f 44//46 46//47 42//45
f 45//44 48//58 46//47
f 42//45 52//49 41//51
f 45//44 49//50 48//58
f 43//43 50//52 49//50
f 50//52 52//49 51//53
f 49//50 54//55 48//58
f 52//49 55//56 53//54
f 47//48 56//57 55//56
f 46//47 57//59 56//57
f 48//58 58//60 57//59
f 57//59 59//61 56//57
f 54//55 60//70 58//60
f 55//56 62//64 53//54
f 56//57 59//61 55//56
f 58//60 60//70 59//61
f 54//55 61//62 60//70
f 53//54 62//64 61//62
f 62//64 65//68 61//62
f 62//64 63//63 65//68
f 55//56 64//65 63//63
f 60//70 66//66 59//61
f 61//62 65//68 60//70
f 66//66 67//72 68//67
f 64//65 68//67 63//63
f 60//70 69//69 66//66
f 63//63 70//71 65//68
f 65//68 71//73 69//69
f 70//71 73//75 71//73
f 71//73 74//76 72//74
f 72//74 77//79 69//69
f 67//72 76//77 75//78
f 69//69 77//79 76//77
f 73//75 81//83 74//76
f 76//77 78//80 75//78
f 73//75 79//81 81//83
f 77//79 80//82 78//80
f 74//76 81//83 80//82
f 79//81 83//87 84//85
f 80//82 86//86 78//80
f 81//83 84//85 82//84
f 78//80 85//91 83//87
f 78//80 86//86 85//91
f 84//85 89//90 82//84
f 86//86 91//93 85//91
f 83//87 93//94 87//88
f 87//88 93//94 92//95
f 90//92 94//96 93//94
f 94//96 96//99 99//98
f 91//93 97//100 95//97
f 92//95 98//101 97//100
f 93//94 99//98 98//101
f 99//98 102//106 98//101
f 99//98 100//103 102//106
f 97//100 101//102 95//97
f 98//101 102//106 101//102
f 95//97 103//104 100//103
f 102//106 107//110 101//102
f 102//106 104//105 107//110
f 103//104 105//107 100//103
f 100//103 109//108 104//105
f 101//102 106//112 105//107
f 101//102 107//110 106//112
f 107//110 108//109 110//117
f 104//105 109//108 108//109
f 107//110 110//117 106//112
f 105//107 112//113 111//111
f 109//108 113//121 108//109
f 109//108 114//114 113//121
f 111//111 115//115 114//114
f 112//113 116//116 115//115
f 106//112 117//118 116//116
f 115//115 118//119 114//114
f 114//114 120//122 113//121
f 113//121 120//122 119//120
f 110//117 119//120 117//118
f 120//122 122//126 121//123
f 119//120 121//123 117//118
f 114//114 123//124 120//122
f 118//119 124//125 123//124
f 121//123 125//127 130//132
f 122//126 126//128 125//127
f 124//125 127//131 123//124
f 124//125 128//129 127//131
f 117//118 129//130 128//129
f 121//123 130//132 129//130
f 125//127 131//133 129//130
f 131//133 133//134 129//130
f 126//128 134//136 133//134
f 129//130 140//140 128//129
f 132//135 135//142 134//136
f 132//135 136//138 135//142
f 129//130 137//137 140//140
f 133//134 138//139 137//137
f 136//138 140//140 139//141
f 138//139 141//145 137//137
f 138//139 142//143 141//145
f 141//145 144//146 143//144
f 139//141 3//6 134//136
f 140//140 145//4 3//6
f 142//143 146//147 144//146
f 134//136 2//13 5//7
f 143//144 147//2 145//4
f 144//146 4//3 147//2
f 146//147 1//1 4//3
