# Blender v2.79 (sub 0) OBJ File: 'world_countrycodes_export2.blend'
# www.blender.org
mtllib PR.mtl
o PR.002_CUCurve.1766
v 0.574950 0.000000 0.545143
v 0.578034 0.000000 0.547862
v 0.582231 0.000000 0.547624
v 0.584731 0.000000 0.546257
v 0.584504 0.000000 0.544851
v 0.578665 0.000000 0.543643
v 0.574950 0.050000 0.545143
v 0.584731 0.050000 0.546257
v 0.578034 0.050000 0.547862
v 0.582231 0.050000 0.547624
v 0.584504 0.050000 0.544851
v 0.578665 0.050000 0.543643
vn 0.0000 -1.0000 0.0000
vn 0.0000 1.0000 0.0000
vn 0.0568 0.0000 0.9984
vn -0.3743 0.0000 -0.9273
vn 0.4796 0.0000 0.8775
vn -0.6615 0.0000 0.7499
vn 0.9872 0.0000 -0.1594
vn 0.2025 0.0000 -0.9793
usemtl SVGMat.3781
s off
f 1//1 6//1 5//1
f 1//1 5//1 4//1
f 1//1 4//1 3//1
f 2//1 1//1 3//1
f 7//2 11//2 12//2
f 7//2 8//2 11//2
f 7//2 10//2 8//2
f 9//2 10//2 7//2
f 2//3 3//3 10//3 9//3
f 6//4 1//4 7//4 12//4
f 3//5 4//5 8//5 10//5
f 1//6 2//6 9//6 7//6
f 4//7 5//7 11//7 8//7
f 5//8 6//8 12//8 11//8
