# Blender v2.79 (sub 0) OBJ File: 'world_countrycodes_export2.blend'
# www.blender.org
mtllib PT.mtl
o PT.002_CUCurve.1814
v 0.920447 0.000000 0.422793
v 0.920354 0.000000 0.421860
v 0.918331 0.000000 0.420122
v 0.918279 0.000000 0.419057
v 0.919133 0.000000 0.417415
v 0.920322 0.000000 0.417073
v 0.920323 0.000000 0.416504
v 0.919340 0.000000 0.415202
v 0.917670 0.000000 0.413391
v 0.917664 0.000000 0.412469
v 0.918711 0.000000 0.411931
v 0.920066 0.000000 0.411794
v 0.920265 0.000000 0.411247
v 0.920234 0.000000 0.408683
v 0.921181 0.000000 0.407341
v 0.921180 0.000000 0.405686
v 0.920287 0.000000 0.402943
v 0.920511 0.000000 0.401941
v 0.923070 0.000000 0.400213
v 0.924494 0.000000 0.398790
v 0.924265 0.000000 0.398294
v 0.922688 0.000000 0.397656
v 0.922364 0.000000 0.396495
v 0.921213 0.000000 0.395945
v 0.919710 0.000000 0.396173
v 0.918143 0.000000 0.397077
v 0.917231 0.000000 0.396561
v 0.914468 0.000000 0.396623
v 0.913459 0.000000 0.396174
v 0.913259 0.000000 0.395071
v 0.912741 0.000000 0.394704
v 0.911970 0.000000 0.394892
v 0.910834 0.000000 0.395925
v 0.909813 0.000000 0.396174
v 0.909591 0.000000 0.398094
v 0.910264 0.000000 0.401069
v 0.909692 0.000000 0.405657
v 0.907655 0.000000 0.411735
v 0.905622 0.000000 0.414729
v 0.905561 0.000000 0.415788
v 0.906135 0.000000 0.416678
v 0.909074 0.000000 0.418889
v 0.909747 0.000000 0.420907
v 0.909845 0.000000 0.423689
v 0.909346 0.000000 0.428305
v 0.909744 0.000000 0.429062
v 0.911038 0.000000 0.429341
v 0.914055 0.000000 0.429272
v 0.918253 0.000000 0.428426
v 0.917446 0.000000 0.426789
v 0.917660 0.000000 0.424412
v 0.918714 0.000000 0.423345
v 0.917231 0.050000 0.396561
v 0.914468 0.050000 0.396623
v 0.918331 0.050000 0.420122
v 0.909747 0.050000 0.420907
v 0.920265 0.050000 0.411247
v 0.907655 0.050000 0.411735
v 0.909692 0.050000 0.405657
v 0.921180 0.050000 0.405686
v 0.920287 0.050000 0.402943
v 0.905622 0.050000 0.414729
v 0.905561 0.050000 0.415788
v 0.911970 0.050000 0.394892
v 0.910834 0.050000 0.395925
v 0.912741 0.050000 0.394704
v 0.920234 0.050000 0.408683
v 0.922688 0.050000 0.397656
v 0.918143 0.050000 0.397077
v 0.909744 0.050000 0.429062
v 0.914055 0.050000 0.429272
v 0.918253 0.050000 0.428426
v 0.923070 0.050000 0.400213
v 0.924494 0.050000 0.398790
v 0.909591 0.050000 0.398094
v 0.909346 0.050000 0.428305
v 0.920354 0.050000 0.421860
v 0.917670 0.050000 0.413391
v 0.918711 0.050000 0.411931
v 0.920066 0.050000 0.411794
v 0.917664 0.050000 0.412469
v 0.909845 0.050000 0.423689
v 0.918714 0.050000 0.423345
v 0.920511 0.050000 0.401941
v 0.910264 0.050000 0.401069
v 0.921181 0.050000 0.407341
v 0.919133 0.050000 0.417415
v 0.920322 0.050000 0.417073
v 0.920323 0.050000 0.416504
v 0.919340 0.050000 0.415202
v 0.924265 0.050000 0.398294
v 0.920447 0.050000 0.422793
v 0.906135 0.050000 0.416678
v 0.919710 0.050000 0.396173
v 0.922364 0.050000 0.396495
v 0.921213 0.050000 0.395945
v 0.909813 0.050000 0.396174
v 0.911038 0.050000 0.429341
v 0.918279 0.050000 0.419057
v 0.913259 0.050000 0.395071
v 0.913459 0.050000 0.396174
v 0.917660 0.050000 0.424412
v 0.917446 0.050000 0.426789
v 0.909074 0.050000 0.418889
vn 0.0000 -1.0000 0.0000
vn 0.0000 1.0000 0.0000
vn 0.4067 0.0000 -0.9136
vn 0.8170 0.0000 0.5767
vn 0.4922 0.0000 -0.8705
vn 0.8970 0.0000 -0.4420
vn -0.9487 0.0000 0.3163
vn -0.9994 0.0000 0.0355
vn 1.0000 0.0000 0.0016
vn 0.9840 0.0000 -0.1784
vn 0.1010 0.0000 0.9949
vn -0.1499 0.0000 -0.9887
vn 0.7116 0.0000 0.7026
vn 1.0000 0.0000 -0.0056
vn 0.9950 0.0000 -0.0997
vn 0.6516 0.0000 -0.7586
vn 0.9960 0.0000 0.0894
vn 0.3751 0.0000 -0.9270
vn -0.9923 0.0000 -0.1236
vn 1.0000 0.0000 -0.0008
vn -0.6012 0.0000 0.7991
vn 0.2768 0.0000 0.9609
vn 0.9759 0.0000 0.2180
vn 0.7982 0.0000 -0.6024
vn -0.0223 0.0000 -0.9998
vn -0.9934 0.0000 -0.1148
vn 0.5596 0.0000 0.8288
vn 0.9633 0.0000 -0.2684
vn -0.8273 0.0000 -0.5618
vn 0.3032 0.0000 0.9529
vn -0.8854 0.0000 0.4648
vn -0.8403 0.0000 0.5421
vn -0.9482 0.0000 -0.3178
vn 0.9999 0.0000 -0.0122
vn 0.0229 0.0000 0.9997
vn 0.9510 0.0000 -0.3092
vn 0.8873 0.0000 0.4612
vn -0.4997 0.0000 -0.8662
vn -0.9983 0.0000 -0.0575
vn -0.6729 0.0000 -0.7397
vn 0.1976 0.0000 0.9803
vn 0.4310 0.0000 -0.9023
vn -0.2369 0.0000 -0.9715
vn -0.2366 0.0000 -0.9716
vn 0.9397 0.0000 0.3420
vn -0.9753 0.0000 0.2207
vn 0.9079 0.0000 -0.4192
vn -0.2106 0.0000 0.9776
vn 0.7068 0.0000 0.7074
vn -0.9942 0.0000 -0.1075
vn 0.4571 0.0000 0.8894
vn 0.9988 0.0000 -0.0486
vn 0.5784 0.0000 -0.8158
vn 0.7351 0.0000 -0.6780
usemtl SVGMat.3781
s off
f 32//1 31//1 30//1
f 33//1 32//1 30//1
f 33//1 30//1 29//1
f 25//1 24//1 23//1
f 34//1 33//1 29//1
f 34//1 29//1 28//1
f 35//1 34//1 28//1
f 26//1 25//1 23//1
f 35//1 28//1 27//1
f 35//1 27//1 26//1
f 26//1 23//1 22//1
f 35//1 26//1 22//1
f 35//1 22//1 21//1
f 35//1 21//1 20//1
f 36//1 35//1 20//1
f 36//1 20//1 19//1
f 36//1 19//1 18//1
f 36//1 18//1 17//1
f 37//1 36//1 17//1
f 37//1 17//1 16//1
f 37//1 16//1 15//1
f 38//1 37//1 15//1
f 38//1 15//1 14//1
f 38//1 14//1 13//1
f 38//1 13//1 12//1
f 11//1 38//1 12//1
f 38//1 11//1 10//1
f 38//1 10//1 9//1
f 39//1 38//1 9//1
f 39//1 9//1 8//1
f 40//1 39//1 8//1
f 40//1 8//1 7//1
f 41//1 40//1 7//1
f 41//1 7//1 6//1
f 41//1 6//1 5//1
f 42//1 41//1 5//1
f 42//1 5//1 4//1
f 42//1 4//1 3//1
f 43//1 42//1 3//1
f 43//1 3//1 2//1
f 44//1 43//1 2//1
f 44//1 2//1 1//1
f 44//1 1//1 52//1
f 44//1 52//1 51//1
f 44//1 51//1 50//1
f 45//1 44//1 50//1
f 45//1 50//1 49//1
f 46//1 45//1 49//1
f 46//1 49//1 48//1
f 47//1 46//1 48//1
f 64//2 100//2 66//2
f 65//2 100//2 64//2
f 65//2 101//2 100//2
f 94//2 95//2 96//2
f 97//2 101//2 65//2
f 97//2 54//2 101//2
f 75//2 54//2 97//2
f 69//2 95//2 94//2
f 75//2 53//2 54//2
f 75//2 69//2 53//2
f 69//2 68//2 95//2
f 75//2 68//2 69//2
f 75//2 91//2 68//2
f 75//2 74//2 91//2
f 85//2 74//2 75//2
f 85//2 73//2 74//2
f 85//2 84//2 73//2
f 85//2 61//2 84//2
f 59//2 61//2 85//2
f 59//2 60//2 61//2
f 59//2 86//2 60//2
f 58//2 86//2 59//2
f 58//2 67//2 86//2
f 58//2 57//2 67//2
f 58//2 80//2 57//2
f 79//2 80//2 58//2
f 58//2 81//2 79//2
f 58//2 78//2 81//2
f 62//2 78//2 58//2
f 62//2 90//2 78//2
f 63//2 90//2 62//2
f 63//2 89//2 90//2
f 93//2 89//2 63//2
f 93//2 88//2 89//2
f 93//2 87//2 88//2
f 104//2 87//2 93//2
f 104//2 99//2 87//2
f 104//2 55//2 99//2
f 56//2 55//2 104//2
f 56//2 77//2 55//2
f 82//2 77//2 56//2
f 82//2 92//2 77//2
f 82//2 83//2 92//2
f 82//2 102//2 83//2
f 82//2 103//2 102//2
f 76//2 103//2 82//2
f 76//2 72//2 103//2
f 70//2 72//2 76//2
f 70//2 71//2 72//2
f 98//2 71//2 70//2
f 28//3 29//3 101//3 54//3
f 14//4 15//4 86//4 67//4
f 26//5 27//5 53//5 69//5
f 49//6 50//6 103//6 72//6
f 42//7 43//7 56//7 104//7
f 43//8 44//8 82//8 56//8
f 6//9 7//9 89//9 88//9
f 29//10 30//10 100//10 101//10
f 11//11 12//11 80//11 79//11
f 24//12 25//12 94//12 96//12
f 51//13 52//13 83//13 102//13
f 9//14 10//14 81//14 78//14
f 1//15 2//15 77//15 92//15
f 2//16 3//16 55//16 77//16
f 50//17 51//17 102//17 103//17
f 21//18 22//18 68//18 91//18
f 36//19 37//19 59//19 85//19
f 15//20 16//20 60//20 86//20
f 41//21 42//21 104//21 93//21
f 5//22 6//22 88//22 87//22
f 17//23 18//23 84//23 61//23
f 7//24 8//24 90//24 89//24
f 27//25 28//25 54//25 53//25
f 34//26 35//26 75//26 97//26
f 18//27 19//27 73//27 84//27
f 22//28 23//28 95//28 68//28
f 38//29 39//29 62//29 58//29
f 52//30 1//30 92//30 83//30
f 45//31 46//31 70//31 76//31
f 40//32 41//32 93//32 63//32
f 37//33 38//33 58//33 59//33
f 13//34 14//34 67//34 57//34
f 47//35 48//35 71//35 98//35
f 16//36 17//36 61//36 60//36
f 4//37 5//37 87//37 99//37
f 25//38 26//38 69//38 94//38
f 39//39 40//39 63//39 62//39
f 32//40 33//40 65//40 64//40
f 48//41 49//41 72//41 71//41
f 23//42 24//42 96//42 95//42
f 31//43 32//43 64//43 66//43
f 33//44 34//44 97//44 65//44
f 12//45 13//45 57//45 80//45
f 35//46 36//46 85//46 75//46
f 20//47 21//47 91//47 74//47
f 46//48 47//48 98//48 70//48
f 19//49 20//49 74//49 73//49
f 44//50 45//50 76//50 82//50
f 10//51 11//51 79//51 81//51
f 3//52 4//52 99//52 55//52
f 30//53 31//53 66//53 100//53
f 8//54 9//54 78//54 90//54
