# Blender v2.79 (sub 0) OBJ File: 'world_countrycodes_outlines2.blend'
# www.blender.org
mtllib PT_outline.mtl
o PT.001_CUCurve.1640
v 0.916709 0.001885 0.427891
v 0.915309 0.000019 0.427220
v 0.916838 -0.001921 0.427912
v 0.921833 -0.000026 0.429665
v 0.911302 0.001441 0.431083
v 0.911471 -0.000621 0.431648
v 0.909263 -0.002131 0.428983
v 0.911161 0.000829 0.427471
v 0.907722 0.001517 0.429300
v 0.907792 -0.000020 0.420647
v 0.908911 0.001990 0.420090
v 0.911147 0.001420 0.419185
v 0.911627 -0.000765 0.418984
v 0.908859 -0.001958 0.419923
v 0.904911 0.001933 0.416628
v 0.906317 -0.001981 0.415766
v 0.907804 0.000889 0.415344
v 0.903954 0.000713 0.414380
v 0.903470 -0.001064 0.416465
v 0.910246 0.002237 0.403141
v 0.912380 -0.000835 0.402135
v 0.908128 -0.000748 0.401232
v 0.910313 0.001958 0.397114
v 0.911830 0.000035 0.397329
v 0.910454 -0.001905 0.397259
v 0.908585 0.001472 0.395080
v 0.908673 -0.000842 0.394507
v 0.912255 0.001698 0.392982
v 0.912533 -0.001826 0.395926
v 0.913201 -0.001946 0.393843
v 0.915193 0.000157 0.394265
v 0.912459 0.001784 0.396415
v 0.912777 -0.000802 0.398291
v 0.918255 0.001943 0.395930
v 0.917920 0.000728 0.398997
v 0.917950 -0.001421 0.398418
v 0.918052 -0.000003 0.394750
v 0.918191 -0.001946 0.395949
v 0.920707 0.000696 0.397927
v 0.920959 -0.001285 0.397770
v 0.922321 0.001976 0.395518
v 0.922362 -0.000861 0.394161
v 0.925546 -0.000131 0.396859
v 0.922378 0.000940 0.399472
v 0.925801 -0.001906 0.398513
v 0.926234 0.001615 0.398942
v 0.923124 -0.001880 0.397870
v 0.922345 0.000801 0.403079
v 0.919341 0.001908 0.402051
v 0.920950 -0.001984 0.402538
v 0.918209 -0.000759 0.401791
v 0.922156 -0.001992 0.406539
v 0.923355 0.000615 0.407329
v 0.919085 -0.000977 0.406797
v 0.920719 0.002038 0.407441
v 0.917835 0.000537 0.410044
v 0.921375 -0.001737 0.411338
v 0.921925 0.000087 0.413177
v 0.919903 0.001738 0.412954
v 0.918572 -0.000871 0.410375
v 0.919644 -0.000815 0.413297
v 0.915801 0.001698 0.412790
v 0.916487 -0.001942 0.412453
v 0.920344 -0.002127 0.415876
v 0.918193 0.000835 0.416136
v 0.922710 0.000712 0.417135
v 0.921284 0.001967 0.417273
v 0.920024 -0.001271 0.419083
v 0.920245 0.000780 0.419229
v 0.918646 0.001878 0.422208
v 0.915886 0.000602 0.419639
v 0.917082 -0.001867 0.419958
v 0.918393 -0.000881 0.421742
v 0.922210 -0.001687 0.423393
v 0.922613 0.000699 0.421761
v 0.921265 0.001903 0.423399
v 0.919238 -0.000758 0.425666
v 0.918670 0.001309 0.425506
v 0.916044 0.000906 0.423263
v 0.916788 -0.001871 0.423900
vn 0.5482 0.8119 0.2005
vn 0.9089 -0.0114 0.4168
vn 0.7185 -0.6504 0.2463
vn -0.0183 0.9994 0.0291
vn -0.1100 0.7022 0.7034
vn -0.1229 -0.3621 0.9239
vn -0.4128 -0.8876 0.2044
vn -0.0044 -0.9987 0.0515
vn -0.5984 -0.0624 -0.7987
vn 0.4097 0.5885 -0.6970
vn -0.7814 0.5019 0.3707
vn -0.1180 -0.9866 0.1124
vn -0.2096 0.9739 0.0866
vn 0.8559 -0.3962 -0.3324
vn -0.9291 -0.0180 0.3693
vn -0.8795 -0.3814 0.2844
vn 0.1312 -0.9896 -0.0581
vn 0.6994 0.6638 -0.2648
vn -0.4793 0.8287 0.2890
vn -0.8892 0.4177 -0.1864
vn -0.9793 -0.1098 -0.1697
vn 0.1675 0.9858 0.0045
vn 0.8320 0.5205 -0.1918
vn 0.9542 -0.2819 0.0999
vn 0.0416 -0.9977 0.0542
vn 0.1579 0.9830 0.0938
vn -0.7217 0.5856 -0.3692
vn -0.7027 -0.4492 -0.5517
vn 0.0924 0.5907 -0.8015
vn 0.4436 0.1613 0.8815
vn 0.0952 0.9322 0.3490
vn 0.3108 -0.7910 -0.5269
vn 0.2862 0.0999 -0.9529
vn 0.1207 -0.9665 0.2266
vn 0.0269 0.9647 -0.2618
vn -0.4673 -0.2932 0.8340
vn 0.1095 0.4145 0.9034
vn 0.0857 -0.6938 0.7150
vn 0.0123 0.0049 -0.9999
vn -0.1800 0.5860 0.7900
vn -0.0159 -0.9428 -0.3329
vn -0.1594 -0.5759 0.8018
vn 0.2880 -0.3423 -0.8943
vn 0.1546 0.8773 -0.4543
vn -0.0256 -0.9851 -0.1701
vn 0.7495 -0.1147 -0.6519
vn -0.5390 0.7970 -0.2724
vn 0.6949 -0.7182 -0.0359
vn 0.7890 0.5981 0.1405
vn -0.5322 0.8157 -0.2266
vn 0.8354 0.4769 0.2734
vn 0.0763 -0.9917 0.1036
vn -0.9132 -0.2781 -0.2979
vn 0.4631 -0.8852 -0.0432
vn -0.0623 0.9970 0.0463
vn 0.9268 0.3293 0.1804
vn -0.8766 -0.4753 -0.0754
vn 0.5724 -0.8005 0.1776
vn -0.7892 0.3613 -0.4966
vn 0.3084 0.9445 0.1134
vn 0.7831 0.0452 0.6202
vn -0.4672 -0.7866 -0.4038
vn 0.5903 -0.7973 0.1259
vn -0.8126 0.5819 -0.0330
vn -0.6589 -0.7486 -0.0735
vn -0.9018 0.3507 0.2523
vn 0.9872 0.1372 0.0814
vn 0.4020 0.9156 -0.0112
vn 0.6226 -0.7764 0.0973
vn 0.2733 -0.9537 -0.1253
vn 0.9409 0.1833 0.2849
vn -0.2404 0.9625 -0.1257
vn -0.9642 0.2650 0.0088
vn -0.6103 -0.7855 0.1027
vn 0.9142 0.2865 -0.2867
vn -0.7070 -0.6872 0.1668
vn 0.7322 -0.6219 0.2776
vn 0.5176 0.8112 0.2721
vn -0.4715 -0.8406 -0.2666
vn -0.8037 0.3443 -0.4852
usemtl SVGMat.3781
s 1
f 78//1 4//2 77//3
f 1//4 4//2 78//1
f 1//4 5//5 4//2
f 6//6 7//7 3//8
f 2//9 8//10 1//4
f 7//7 8//10 2//9
f 5//5 9//11 6//6
f 9//11 14//12 7//7
f 8//10 11//13 9//11
f 7//7 13//14 8//10
f 10//15 19//16 14//12
f 11//13 19//16 10//15
f 14//12 16//17 13//14
f 12//18 15//19 11//13
f 19//16 16//17 14//12
f 15//19 18//20 19//16
f 18//20 22//21 19//16
f 15//19 20//22 18//20
f 17//23 20//22 15//19
f 16//17 21//24 17//23
f 19//16 25//25 16//17
f 20//22 22//21 18//20
f 21//24 23//26 20//22
f 23//26 26//27 20//22
f 26//27 27//28 22//21
f 26//27 28//29 27//28
f 24//30 32//31 23//26
f 27//28 30//32 25//25
f 28//29 30//32 27//28
f 31//33 29//34 30//32
f 32//31 34//35 31//33
f 33//36 35//37 32//31
f 29//34 36//38 33//36
f 34//35 37//39 31//33
f 35//37 34//35 32//31
f 36//38 35//37 33//36
f 36//38 39//40 35//37
f 38//41 40//42 36//38
f 37//39 42//43 38//41
f 41//44 42//43 37//39
f 39//40 41//44 34//35
f 42//43 47//45 38//41
f 41//44 43//46 42//43
f 43//46 47//45 42//43
f 40//42 44//47 39//40
f 43//46 45//48 47//45
f 44//47 46//49 41//44
f 44//47 49//50 46//49
f 48//51 50//52 45//48
f 47//45 49//50 44//47
f 50//52 51//53 47//45
f 48//51 52//54 50//52
f 55//55 53//56 48//51
f 51//53 55//55 49//50
f 52//54 54//57 51//53
f 53//56 57//58 52//54
f 54//57 56//59 55//55
f 56//59 59//60 55//55
f 55//55 58//61 57//58
f 54//57 60//62 56//59
f 57//58 60//62 54//57
f 58//61 61//63 57//58
f 59//60 61//63 58//61
f 56//59 62//64 59//60
f 61//63 63//65 57//58
f 63//65 62//64 56//59
f 63//65 65//66 62//64
f 62//64 66//67 59//60
f 65//66 67//68 62//64
f 66//67 68//69 64//70
f 67//68 69//71 66//67
f 65//66 70//72 67//68
f 64//70 71//73 65//66
f 68//69 72//74 64//70
f 70//72 75//75 69//71
f 72//74 73//76 71//73
f 68//69 74//77 72//74
f 69//71 74//77 68//69
f 76//78 74//77 75//75
f 76//78 77//3 74//77
f 77//3 80//79 74//77
f 73//76 79//80 70//72
f 80//79 79//80 73//76
f 79//80 1//4 70//72
f 80//79 2//9 79//80
f 77//3 3//8 80//79
f 77//3 4//2 3//8
f 4//2 5//5 6//6
f 4//2 6//6 3//8
f 1//4 9//11 5//5
f 3//8 7//7 2//9
f 1//4 8//10 9//11
f 6//6 9//11 7//7
f 9//11 10//15 14//12
f 9//11 11//13 10//15
f 8//10 12//18 11//13
f 8//10 13//14 12//18
f 7//7 14//12 13//14
f 11//13 15//19 19//16
f 13//14 17//23 12//18
f 13//14 16//17 17//23
f 12//18 17//23 15//19
f 17//23 21//24 20//22
f 16//17 25//25 21//24
f 19//16 22//21 25//25
f 21//24 24//30 23//26
f 21//24 25//25 24//30
f 20//22 26//27 22//21
f 22//21 27//28 25//25
f 23//26 28//29 26//27
f 23//26 32//31 28//29
f 25//25 29//34 24//30
f 25//25 30//32 29//34
f 28//29 31//33 30//32
f 28//29 32//31 31//33
f 29//34 33//36 24//30
f 24//30 33//36 32//31
f 31//33 38//41 29//34
f 31//33 37//39 38//41
f 29//34 38//41 36//38
f 35//37 39//40 34//35
f 36//38 40//42 39//40
f 34//35 41//44 37//39
f 38//41 47//45 40//42
f 39//40 44//47 41//44
f 41//44 46//49 43//46
f 40//42 47//45 44//47
f 43//46 46//49 45//48
f 46//49 48//51 45//48
f 46//49 49//50 48//51
f 45//48 50//52 47//45
f 47//45 51//53 49//50
f 49//50 55//55 48//51
f 50//52 52//54 51//53
f 48//51 53//56 52//54
f 51//53 54//57 55//55
f 53//56 55//55 57//58
f 52//54 57//58 54//57
f 55//55 59//60 58//61
f 57//58 63//65 60//62
f 60//62 63//65 56//59
f 63//65 64//70 65//66
f 59//60 66//67 61//63
f 61//63 64//70 63//65
f 61//63 66//67 64//70
f 62//64 67//68 66//67
f 66//67 69//71 68//69
f 67//68 70//72 69//71
f 65//66 71//73 70//72
f 64//70 72//74 71//73
f 70//72 76//78 75//75
f 71//73 73//76 70//72
f 72//74 74//77 73//76
f 69//71 75//75 74//77
f 76//78 78//1 77//3
f 76//78 70//72 78//1
f 74//77 80//79 73//76
f 70//72 1//4 78//1
f 79//80 2//9 1//4
f 80//79 3//8 2//9
