# Blender v2.79 (sub 0) OBJ File: 'world_countrycodes_export2.blend'
# www.blender.org
mtllib RO.mtl
o RO.002_CUCurve.1810
v 1.119642 0.000000 0.372243
v 1.118522 0.000000 0.371824
v 1.118154 0.000000 0.371366
v 1.118276 0.000000 0.370893
v 1.117673 0.000000 0.370060
v 1.117063 0.000000 0.368780
v 1.116791 0.000000 0.367386
v 1.116830 0.000000 0.365969
v 1.117222 0.000000 0.364602
v 1.117515 0.000000 0.364082
v 1.117576 0.000000 0.363358
v 1.117169 0.000000 0.361954
v 1.115989 0.000000 0.359676
v 1.113426 0.000000 0.356138
v 1.111868 0.000000 0.353655
v 1.111094 0.000000 0.352311
v 1.109938 0.000000 0.350114
v 1.108943 0.000000 0.350403
v 1.107348 0.000000 0.351217
v 1.106767 0.000000 0.351820
v 1.106042 0.000000 0.352400
v 1.104999 0.000000 0.352909
v 1.103861 0.000000 0.353118
v 1.102152 0.000000 0.352932
v 1.101384 0.000000 0.353204
v 1.100794 0.000000 0.353737
v 1.100083 0.000000 0.354177
v 1.099393 0.000000 0.354345
v 1.098880 0.000000 0.354298
v 1.097288 0.000000 0.353431
v 1.095837 0.000000 0.353130
v 1.094518 0.000000 0.353059
v 1.089722 0.000000 0.352052
v 1.089688 0.000000 0.352083
v 1.087438 0.000000 0.352281
v 1.087473 0.000000 0.352763
v 1.086963 0.000000 0.353487
v 1.083052 0.000000 0.355928
v 1.082425 0.000000 0.356841
v 1.079921 0.000000 0.361522
v 1.078213 0.000000 0.364125
v 1.076540 0.000000 0.365492
v 1.074865 0.000000 0.366476
v 1.074434 0.000000 0.366874
v 1.074489 0.000000 0.367373
v 1.076087 0.000000 0.369381
v 1.076413 0.000000 0.370136
v 1.076408 0.000000 0.370697
v 1.076716 0.000000 0.371510
v 1.077302 0.000000 0.372031
v 1.077831 0.000000 0.372233
v 1.078514 0.000000 0.372280
v 1.078847 0.000000 0.372583
v 1.078966 0.000000 0.373320
v 1.078822 0.000000 0.375009
v 1.078945 0.000000 0.375763
v 1.082457 0.000000 0.376343
v 1.084311 0.000000 0.376823
v 1.085198 0.000000 0.377300
v 1.085358 0.000000 0.377676
v 1.085449 0.000000 0.378510
v 1.085765 0.000000 0.379628
v 1.085719 0.000000 0.380148
v 1.086884 0.000000 0.380684
v 1.088635 0.000000 0.382317
v 1.089427 0.000000 0.382327
v 1.093317 0.000000 0.382910
v 1.094571 0.000000 0.383035
v 1.097478 0.000000 0.382953
v 1.101468 0.000000 0.383203
v 1.102952 0.000000 0.382914
v 1.104044 0.000000 0.382358
v 1.105090 0.000000 0.381468
v 1.106363 0.000000 0.380925
v 1.108024 0.000000 0.380455
v 1.110314 0.000000 0.380231
v 1.113304 0.000000 0.380538
v 1.115025 0.000000 0.380945
v 1.115948 0.000000 0.381343
v 1.116302 0.000000 0.381724
v 1.117906 0.000000 0.382673
v 1.119720 0.000000 0.383310
v 1.119731 0.000000 0.380253
v 1.119960 0.000000 0.378614
v 1.120920 0.000000 0.376671
v 1.122055 0.000000 0.375798
v 1.124051 0.000000 0.375526
v 1.124872 0.000000 0.375086
v 1.125250 0.000000 0.374521
v 1.125418 0.000000 0.373619
v 1.125356 0.000000 0.372603
v 1.125356 0.000000 0.372346
v 1.124510 0.000000 0.371602
v 1.123334 0.000000 0.370924
v 1.121610 0.000000 0.371932
v 1.120644 0.000000 0.372379
v 1.111868 0.050000 0.353655
v 1.101384 0.050000 0.353204
v 1.089427 0.050000 0.382327
v 1.102952 0.050000 0.382914
v 1.104044 0.050000 0.382358
v 1.078847 0.050000 0.372583
v 1.078966 0.050000 0.373320
v 1.113304 0.050000 0.380538
v 1.119731 0.050000 0.380253
v 1.117063 0.050000 0.368780
v 1.074489 0.050000 0.367373
v 1.085449 0.050000 0.378510
v 1.119960 0.050000 0.378614
v 1.124872 0.050000 0.375086
v 1.125250 0.050000 0.374521
v 1.077302 0.050000 0.372031
v 1.077831 0.050000 0.372233
v 1.076540 0.050000 0.365492
v 1.074865 0.050000 0.366476
v 1.104999 0.050000 0.352909
v 1.103861 0.050000 0.353118
v 1.113426 0.050000 0.356138
v 1.100083 0.050000 0.354177
v 1.120644 0.050000 0.372379
v 1.119642 0.050000 0.372243
v 1.115025 0.050000 0.380945
v 1.085765 0.050000 0.379628
v 1.078213 0.050000 0.364125
v 1.084311 0.050000 0.376823
v 1.120920 0.050000 0.376671
v 1.087473 0.050000 0.352763
v 1.086963 0.050000 0.353487
v 1.111094 0.050000 0.352311
v 1.082457 0.050000 0.376343
v 1.122055 0.050000 0.375798
v 1.121610 0.050000 0.371932
v 1.117576 0.050000 0.363358
v 1.079921 0.050000 0.361522
v 1.076716 0.050000 0.371510
v 1.106363 0.050000 0.380925
v 1.108024 0.050000 0.380455
v 1.099393 0.050000 0.354345
v 1.098880 0.050000 0.354298
v 1.117515 0.050000 0.364082
v 1.095837 0.050000 0.353130
v 1.094518 0.050000 0.353059
v 1.115948 0.050000 0.381343
v 1.116302 0.050000 0.381724
v 1.078514 0.050000 0.372280
v 1.076087 0.050000 0.369381
v 1.085719 0.050000 0.380148
v 1.086884 0.050000 0.380684
v 1.105090 0.050000 0.381468
v 1.085198 0.050000 0.377300
v 1.085358 0.050000 0.377676
v 1.125356 0.050000 0.372603
v 1.125356 0.050000 0.372346
v 1.076408 0.050000 0.370697
v 1.125418 0.050000 0.373619
v 1.097288 0.050000 0.353431
v 1.097478 0.050000 0.382953
v 1.118522 0.050000 0.371824
v 1.109938 0.050000 0.350114
v 1.108943 0.050000 0.350403
v 1.087438 0.050000 0.352281
v 1.116791 0.050000 0.367386
v 1.117169 0.050000 0.361954
v 1.093317 0.050000 0.382910
v 1.110314 0.050000 0.380231
v 1.100794 0.050000 0.353737
v 1.107348 0.050000 0.351217
v 1.106767 0.050000 0.351820
v 1.117673 0.050000 0.370060
v 1.083052 0.050000 0.355928
v 1.078822 0.050000 0.375009
v 1.094571 0.050000 0.383035
v 1.116830 0.050000 0.365969
v 1.117222 0.050000 0.364602
v 1.078945 0.050000 0.375763
v 1.117906 0.050000 0.382673
v 1.119720 0.050000 0.383310
v 1.124510 0.050000 0.371602
v 1.123334 0.050000 0.370924
v 1.088635 0.050000 0.382317
v 1.124051 0.050000 0.375526
v 1.101468 0.050000 0.383203
v 1.118154 0.050000 0.371366
v 1.082425 0.050000 0.356841
v 1.076413 0.050000 0.370136
v 1.074434 0.050000 0.366874
v 1.115989 0.050000 0.359676
v 1.118276 0.050000 0.370893
v 1.106042 0.050000 0.352400
v 1.102152 0.050000 0.352932
v 1.089722 0.050000 0.352052
v 1.089688 0.050000 0.352083
vn 0.0000 -1.0000 0.0000
vn 0.0000 1.0000 0.0000
vn 0.0000 1.0000 -0.0006
vn -0.6327 0.0000 -0.7744
vn -0.3964 0.0000 0.9181
vn -0.5265 0.0000 -0.8502
vn 0.8667 0.0000 -0.4988
vn 0.9996 0.0000 0.0275
vn 0.9613 0.0000 0.2757
vn -0.9941 0.0000 0.1087
vn -0.8178 0.0000 -0.5755
vn 0.8098 0.0000 -0.5866
vn -0.8361 0.0000 -0.5486
vn -0.6252 0.0000 -0.7805
vn -0.9870 0.0000 0.1609
vn -0.2794 0.0000 -0.9602
vn 1.0000 0.0000 0.0036
vn -0.3315 0.0000 0.9435
vn -0.9975 0.0000 0.0713
vn -0.3336 0.0000 -0.9427
vn -0.4197 0.0000 -0.9077
vn 0.8101 0.0000 -0.5863
vn 0.9814 0.0000 -0.1918
vn 0.7803 0.0000 -0.6254
vn 0.4998 0.0000 -0.8662
vn 0.6095 0.0000 0.7928
vn 0.9683 0.0000 0.2497
vn -0.6644 0.0000 0.7474
vn -0.4546 0.0000 -0.8907
vn 0.3925 0.0000 0.9198
vn 0.2720 0.0000 0.9623
vn 0.8964 0.0000 0.4432
vn 0.9605 0.0000 -0.2783
vn -0.9962 0.0000 -0.0871
vn 0.0914 0.0000 -0.9958
vn -0.6822 0.0000 0.7312
vn 0.8707 0.0000 0.4918
vn 0.9965 0.0000 0.0832
vn -0.0991 0.0000 0.9951
vn 0.4784 0.0000 -0.8782
vn 0.1349 0.0000 0.9909
vn -0.5046 0.0000 -0.8634
vn 0.9982 0.0000 -0.0607
vn 0.0537 0.0000 -0.9986
vn 0.1912 0.0000 0.9815
vn -0.2368 0.0000 -0.9716
vn 0.1081 0.0000 -0.9941
vn -0.4739 0.0000 0.8806
vn -0.0625 0.0000 0.9980
vn -0.6703 0.0000 -0.7421
vn 0.2030 0.0000 -0.9792
vn -0.7329 0.0000 0.6803
vn 0.9832 0.0000 0.1826
vn -0.7197 0.0000 -0.6943
vn -0.0996 0.0000 -0.9950
vn -0.0683 0.0000 0.9977
vn -0.0123 0.0000 0.9999
vn -0.9871 0.0000 0.1599
vn -0.2506 0.0000 0.9681
vn -0.7822 0.0000 0.6230
vn -0.8817 0.0000 -0.4717
vn -0.6781 0.0000 -0.7349
vn 0.9027 0.0000 -0.4303
vn 0.6604 0.0000 -0.7509
vn 0.4542 0.0000 0.8909
vn 0.2055 0.0000 -0.9787
vn -0.4181 0.0000 0.9084
vn -0.4384 0.0000 -0.8988
vn 0.8310 0.0000 0.5563
vn -0.5294 0.0000 -0.8484
vn -0.9183 0.0000 0.3958
vn -0.3566 0.0000 0.9343
vn 0.8471 0.0000 -0.5315
vn -0.1481 0.0000 0.9890
vn -0.9964 0.0000 -0.0853
vn -0.6737 0.0000 0.7390
vn -0.9207 0.0000 0.3904
vn -0.5090 0.0000 0.8607
vn -0.5067 0.0000 -0.8621
vn -0.1022 0.0000 0.9948
vn -1.0000 0.0000 -0.0096
vn 1.0000 0.0000 0.0000
vn -0.1808 0.0000 -0.9835
vn 0.6479 0.0000 0.7617
vn 0.4729 0.0000 0.8811
vn -0.9941 0.0000 0.1086
vn 0.0976 0.0000 0.9952
vn -0.9349 0.0000 0.3549
vn 0.8848 0.0000 -0.4659
vn 0.0279 0.0000 0.9996
vn -0.1628 0.0000 0.9867
vn 0.1338 0.0000 -0.9910
vn 0.9904 0.0000 0.1379
vn 0.8879 0.0000 -0.4600
vn -0.6706 0.0000 -0.7418
vn -0.2301 0.0000 0.9732
vn 0.3506 0.0000 -0.9365
vn -0.9623 0.0000 0.2719
vn -0.8247 0.0000 -0.5656
usemtl SVGMat.3781
s off
f 19//1 18//1 17//1
f 19//1 17//1 16//1
f 20//1 19//1 16//1
f 21//1 20//1 16//1
f 35//1 33//1 32//1
f 36//1 35//1 32//1
f 22//1 21//1 16//1
f 22//1 16//1 15//1
f 37//1 36//1 32//1
f 25//1 24//1 23//1
f 23//1 22//1 15//1
f 37//1 32//1 31//1
f 25//1 23//1 15//1
f 37//1 31//1 30//1
f 26//1 25//1 15//1
f 37//1 30//1 29//1
f 27//1 26//1 15//1
f 27//1 15//1 14//1
f 28//1 27//1 14//1
f 37//1 29//1 28//1
f 37//1 28//1 14//1
f 38//1 37//1 14//1
f 39//1 38//1 14//1
f 39//1 14//1 13//1
f 40//1 39//1 13//1
f 40//1 13//1 12//1
f 40//1 12//1 11//1
f 41//1 40//1 11//1
f 41//1 11//1 10//1
f 41//1 10//1 9//1
f 42//1 41//1 9//1
f 42//1 9//1 8//1
f 43//1 42//1 8//1
f 44//1 43//1 8//1
f 44//1 8//1 7//1
f 45//1 44//1 7//1
f 45//1 7//1 6//1
f 46//1 45//1 6//1
f 46//1 6//1 5//1
f 47//1 46//1 5//1
f 48//1 47//1 5//1
f 48//1 5//1 4//1
f 49//1 48//1 4//1
f 49//1 4//1 3//1
f 95//1 94//1 93//1
f 49//1 3//1 2//1
f 50//1 49//1 2//1
f 50//1 2//1 1//1
f 95//1 93//1 92//1
f 96//1 95//1 92//1
f 51//1 50//1 1//1
f 52//1 51//1 1//1
f 53//1 52//1 1//1
f 53//1 1//1 96//1
f 96//1 92//1 91//1
f 53//1 96//1 91//1
f 53//1 91//1 90//1
f 54//1 53//1 90//1
f 54//1 90//1 89//1
f 55//1 54//1 89//1
f 55//1 89//1 88//1
f 56//1 55//1 88//1
f 56//1 88//1 87//1
f 56//1 87//1 86//1
f 57//1 56//1 86//1
f 57//1 86//1 85//1
f 58//1 57//1 85//1
f 59//1 58//1 85//1
f 60//1 59//1 85//1
f 60//1 85//1 84//1
f 61//1 60//1 84//1
f 62//1 61//1 84//1
f 62//1 84//1 83//1
f 63//1 62//1 83//1
f 76//1 63//1 83//1
f 64//1 63//1 76//1
f 77//1 76//1 83//1
f 64//1 76//1 75//1
f 64//1 75//1 74//1
f 78//1 77//1 83//1
f 79//1 78//1 83//1
f 64//1 74//1 73//1
f 65//1 64//1 73//1
f 80//1 79//1 83//1
f 65//1 73//1 72//1
f 81//1 80//1 83//1
f 81//1 83//1 82//1
f 66//1 65//1 72//1
f 66//1 72//1 71//1
f 67//1 66//1 71//1
f 67//1 71//1 69//1
f 68//1 67//1 69//1
f 70//1 69//1 71//1
f 167//2 159//2 160//2
f 167//2 129//2 159//2
f 168//2 129//2 167//2
f 189//2 129//2 168//2
f 161//2 142//2 191//2
f 127//2 142//2 161//2
f 116//2 129//2 189//2
f 116//2 97//2 129//2
f 128//2 142//2 127//2
f 98//2 117//2 190//2
f 117//2 97//2 116//2
f 128//2 141//2 142//2
f 98//2 97//2 117//2
f 128//2 156//2 141//2
f 166//2 97//2 98//2
f 128//2 139//2 156//2
f 119//2 97//2 166//2
f 119//2 118//2 97//2
f 138//2 118//2 119//2
f 128//3 138//3 139//3
f 128//2 118//2 138//2
f 170//2 118//2 128//2
f 184//2 118//2 170//2
f 184//2 187//2 118//2
f 134//2 187//2 184//2
f 134//2 163//2 187//2
f 134//2 133//2 163//2
f 124//2 133//2 134//2
f 124//2 140//2 133//2
f 124//2 174//2 140//2
f 114//2 174//2 124//2
f 114//2 173//2 174//2
f 115//2 173//2 114//2
f 186//2 173//2 115//2
f 186//2 162//2 173//2
f 107//2 162//2 186//2
f 107//2 106//2 162//2
f 146//2 106//2 107//2
f 146//2 169//2 106//2
f 185//2 169//2 146//2
f 154//2 169//2 185//2
f 154//2 188//2 169//2
f 135//2 188//2 154//2
f 135//2 183//2 188//2
f 132//2 178//2 179//2
f 135//2 158//2 183//2
f 112//2 158//2 135//2
f 112//2 121//2 158//2
f 132//2 153//2 178//2
f 120//2 153//2 132//2
f 113//2 121//2 112//2
f 145//2 121//2 113//2
f 102//2 121//2 145//2
f 102//2 120//2 121//2
f 120//2 152//2 153//2
f 102//2 152//2 120//2
f 102//2 155//2 152//2
f 103//2 155//2 102//2
f 103//2 111//2 155//2
f 171//2 111//2 103//2
f 171//2 110//2 111//2
f 175//2 110//2 171//2
f 175//2 181//2 110//2
f 175//2 131//2 181//2
f 130//2 131//2 175//2
f 130//2 126//2 131//2
f 125//2 126//2 130//2
f 150//2 126//2 125//2
f 151//2 126//2 150//2
f 151//2 109//2 126//2
f 108//2 109//2 151//2
f 123//2 109//2 108//2
f 123//2 105//2 109//2
f 147//2 105//2 123//2
f 165//2 105//2 147//2
f 148//2 165//2 147//2
f 104//2 105//2 165//2
f 148//2 137//2 165//2
f 148//2 136//2 137//2
f 122//2 105//2 104//2
f 143//2 105//2 122//2
f 148//2 149//2 136//2
f 180//2 149//2 148//2
f 144//2 105//2 143//2
f 180//2 101//2 149//2
f 176//2 105//2 144//2
f 176//2 177//2 105//2
f 99//2 101//2 180//2
f 99//2 100//2 101//2
f 164//2 100//2 99//2
f 164//2 157//2 100//2
f 172//2 157//2 164//2
f 182//2 100//2 157//2
f 41//4 42//4 114//4 124//4
f 78//5 79//5 143//5 122//5
f 26//6 27//6 119//6 166//6
f 15//7 16//7 129//7 97//7
f 7//8 8//8 173//8 162//8
f 8//9 9//9 174//9 173//9
f 44//10 45//10 107//10 186//10
f 36//11 37//11 128//11 127//11
f 13//12 14//12 118//12 187//12
f 40//13 41//13 124//13 134//13
f 20//14 21//14 189//14 168//14
f 55//15 56//15 175//15 171//15
f 17//16 18//16 160//16 159//16
f 82//17 83//17 105//17 177//17
f 81//18 82//18 177//18 176//18
f 35//19 36//19 127//19 161//19
f 24//20 25//20 98//20 190//20
f 95//21 96//21 120//21 132//21
f 4//22 5//22 169//22 188//22
f 6//23 7//23 162//23 106//23
f 2//24 3//24 183//24 158//24
f 93//25 94//25 179//25 178//25
f 85//26 86//26 131//26 126//26
f 3//27 4//27 188//27 183//27
f 49//28 50//28 112//28 135//28
f 18//29 19//29 167//29 160//29
f 73//30 74//30 136//30 149//30
f 74//31 75//31 137//31 136//31
f 84//32 85//32 126//32 109//32
f 11//33 12//33 163//33 133//33
f 62//34 63//34 147//34 123//34
f 28//35 29//35 139//35 138//35
f 64//36 65//36 180//36 148//36
f 9//37 10//37 140//37 174//37
f 10//38 11//38 133//38 140//38
f 67//39 68//39 172//39 164//39
f 29//40 30//40 156//40 139//40
f 86//41 87//41 181//41 131//41
f 94//42 95//42 132//42 179//42
f 90//43 91//43 152//43 155//43
f 31//44 32//44 142//44 141//44
f 70//45 71//45 100//45 182//45
f 27//46 28//46 138//46 119//46
f 23//47 24//47 190//47 117//47
f 58//48 59//48 150//48 125//48
f 69//49 70//49 182//49 157//49
f 25//50 26//50 166//50 98//50
f 30//51 31//51 141//51 156//51
f 79//52 80//52 144//52 143//52
f 89//53 90//53 155//53 111//53
f 19//54 20//54 168//54 167//54
f 33//55 35//55 161//55 191//55
f 51//56 52//56 145//56 113//56
f 65//57 66//57 99//57 180//57
f 53//58 54//58 103//58 102//58
f 57//59 58//59 125//59 130//59
f 45//60 46//60 146//60 107//60
f 39//61 40//61 134//61 184//61
f 43//62 44//62 186//62 115//62
f 5//63 6//63 106//63 169//63
f 92//64 93//64 178//64 153//64
f 71//65 72//65 101//65 100//65
f 32//66 33//66 191//66 142//66
f 63//67 64//67 148//67 147//67
f 21//68 22//68 116//68 189//68
f 88//69 89//69 111//69 110//69
f 37//70 38//70 170//70 128//70
f 46//71 47//71 185//71 146//71
f 50//72 51//72 113//72 112//72
f 14//73 15//73 97//73 118//73
f 66//74 67//74 164//74 99//74
f 54//75 55//75 171//75 103//75
f 52//76 53//76 102//76 145//76
f 59//77 60//77 151//77 150//77
f 80//78 81//78 176//78 144//78
f 42//79 43//79 115//79 114//79
f 76//80 77//80 104//80 165//80
f 47//81 48//81 154//81 185//81
f 91//82 92//82 153//82 152//82
f 22//83 23//83 117//83 116//83
f 72//84 73//84 149//84 101//84
f 87//85 88//85 110//85 181//85
f 60//86 61//86 108//86 151//86
f 75//87 76//87 165//87 137//87
f 48//88 49//88 135//88 154//88
f 16//89 17//89 159//89 129//89
f 68//90 69//90 157//90 172//90
f 56//91 57//91 130//91 175//91
f 96//92 1//92 121//92 120//92
f 83//93 84//93 109//93 105//93
f 12//94 13//94 187//94 163//94
f 33//95 34//95 192//95 191//95
f 77//96 78//96 122//96 104//96
f 1//97 2//97 158//97 121//97
f 61//98 62//98 123//98 108//98
f 38//99 39//99 184//99 170//99
