# Blender v2.79 (sub 0) OBJ File: 'world_countrycodes_outlines2.blend'
# www.blender.org
mtllib RO_outline.mtl
o RO.001_CUCurve.1636
v 1.127216 0.000533 0.371103
v 1.123526 0.001427 0.369322
v 1.126516 -0.001439 0.371290
v 1.126806 0.000022 0.376572
v 1.126202 0.001491 0.376147
v 1.124482 0.001951 0.374505
v 1.126382 -0.001468 0.375945
v 1.124701 -0.001964 0.374391
v 1.120349 0.002001 0.376685
v 1.122008 -0.000029 0.378280
v 1.121478 0.001359 0.378059
v 1.120553 0.000622 0.374199
v 1.120440 -0.001943 0.375676
v 1.121536 -0.001349 0.377831
v 1.118355 0.000882 0.377328
v 1.118059 -0.001409 0.381207
v 1.117784 0.000014 0.380497
v 1.118711 0.001928 0.382125
v 1.120553 -0.001964 0.384141
v 1.121457 0.000697 0.385833
v 1.114812 0.000102 0.383214
v 1.114903 0.001430 0.382527
v 1.115225 -0.001373 0.382808
v 1.114031 0.001999 0.380246
v 1.116067 0.000981 0.379233
v 1.115717 -0.001901 0.380142
v 1.107213 -0.002009 0.380276
v 1.107445 -0.000047 0.382396
v 1.107225 0.001379 0.381960
v 1.108553 0.001404 0.378764
v 1.108688 -0.000905 0.378318
v 1.107383 -0.001402 0.381861
v 1.102613 0.001936 0.382225
v 1.102700 -0.000066 0.380697
v 1.102606 -0.001379 0.381549
v 1.101501 -0.001909 0.384126
v 1.102972 0.000865 0.385021
v 1.088665 -0.000024 0.384590
v 1.090057 -0.000057 0.380719
v 1.089787 -0.001418 0.381262
v 1.089989 0.001414 0.381370
v 1.088445 -0.001924 0.383178
v 1.088280 0.001895 0.383191
v 1.083833 -0.000963 0.381295
v 1.084337 0.001451 0.380931
v 1.087854 -0.000014 0.378879
v 1.086704 -0.001896 0.379517
v 1.086676 0.001919 0.379490
v 1.083597 -0.000035 0.378745
v 1.086372 0.001463 0.376113
v 1.086357 -0.001464 0.376104
v 1.084408 0.001943 0.377671
v 1.086992 0.000025 0.375930
v 1.084345 -0.001944 0.377652
v 1.080582 -0.000009 0.374108
v 1.079501 0.001991 0.375072
v 1.079605 -0.001995 0.375142
v 1.077606 0.001444 0.376543
v 1.077241 -0.000742 0.377096
v 1.077131 -0.000820 0.373822
v 1.078254 0.001897 0.373319
v 1.080841 0.000732 0.371915
v 1.079894 -0.001879 0.372488
v 1.074740 -0.000748 0.371022
v 1.072758 0.001529 0.366747
v 1.075374 0.001953 0.367108
v 1.076821 0.000044 0.367357
v 1.076038 -0.001436 0.367117
v 1.073447 -0.001934 0.366680
v 1.072069 -0.000078 0.366569
v 1.076791 -0.000804 0.362899
v 1.077259 0.001411 0.363179
v 1.078258 -0.001946 0.365382
v 1.078920 0.001946 0.364672
v 1.080081 0.000017 0.365097
v 1.084061 -0.001451 0.357028
v 1.082201 -0.001910 0.355409
v 1.081420 0.000033 0.354687
v 1.082379 0.001916 0.355269
v 1.084376 0.000641 0.357451
v 1.085611 0.000759 0.351998
v 1.088031 -0.002004 0.352162
v 1.088605 0.001956 0.353003
v 1.089143 -0.000785 0.354084
v 1.086848 -0.001446 0.350852
v 1.086333 0.001095 0.350459
v 1.089799 0.000013 0.350058
v 1.099557 0.001392 0.352608
v 1.100736 0.002036 0.354047
v 1.099047 0.001420 0.355549
v 1.099470 -0.001387 0.352519
v 1.099303 0.000054 0.352010
v 1.096468 -0.000773 0.355216
v 1.098879 -0.000683 0.356396
v 1.100998 -0.001991 0.354187
v 1.102360 0.000740 0.355071
v 1.101267 0.000665 0.351014
v 1.105495 0.000840 0.354931
v 1.105390 -0.001425 0.354440
v 1.105023 -0.001957 0.352209
v 1.104557 0.000896 0.351119
v 1.108773 -0.000001 0.352643
v 1.109192 -0.001945 0.351089
v 1.109335 0.001974 0.350868
v 1.106871 -0.000897 0.349177
v 1.110471 0.001445 0.348423
v 1.110937 -0.000694 0.347836
v 1.119225 -0.000091 0.361342
v 1.117289 -0.001443 0.359437
v 1.119323 0.001454 0.362557
v 1.116842 0.001918 0.362847
v 1.118458 -0.001919 0.363888
v 1.115612 -0.000806 0.362910
v 1.118609 0.000097 0.367162
v 1.115913 -0.001948 0.366563
v 1.118170 0.001405 0.368067
v 1.114608 0.000513 0.367467
v 1.119424 -0.001341 0.370676
v 1.117469 0.001964 0.371944
v 1.117004 -0.001449 0.372490
v 1.118658 -0.002018 0.372182
v 1.116387 -0.000007 0.372433
v 1.120155 0.000781 0.370489
v 1.120410 -0.000573 0.374621
v 1.120416 0.001796 0.373542
v 1.123260 -0.000690 0.368793
v 1.124113 0.001967 0.371881
v 1.123456 -0.000007 0.373349
v 1.124093 -0.001976 0.371838
vn 0.0599 0.9978 0.0288
vn 0.8564 0.3039 -0.4173
vn 0.0663 0.6759 -0.7340
vn 0.5903 -0.7122 0.3798
vn 0.6287 -0.6873 -0.3636
vn 0.5408 0.7335 0.4117
vn -0.0846 -0.9952 -0.0487
vn -0.0222 -0.9994 -0.0265
vn -0.8980 -0.0637 0.4352
vn -0.0529 0.9923 -0.1119
vn -0.4015 -0.8227 -0.4024
vn 0.7842 -0.0006 0.6204
vn 0.5101 -0.8103 0.2885
vn 0.7919 -0.0552 0.6081
vn -0.2163 0.9630 -0.1604
vn 0.4684 0.8079 0.3575
vn -0.5254 0.2135 -0.8236
vn -0.8905 0.2769 -0.3609
vn 0.0046 -0.8727 -0.4881
vn -0.3497 -0.0158 -0.9367
vn 0.0257 0.9978 0.0610
vn 0.3383 -0.8141 0.4719
vn 0.5143 0.2480 0.8209
vn -0.1698 -0.7562 0.6318
vn -0.1515 0.7935 0.5894
vn 0.3479 0.3208 -0.8809
vn 0.1948 -0.8315 -0.5203
vn -0.0926 -0.9732 -0.2105
vn -0.2414 0.0711 0.9678
vn 0.1294 -0.7435 0.6560
vn 0.2072 -0.0466 0.9772
vn 0.0428 0.9762 -0.2124
vn 0.1740 0.5930 0.7862
vn -0.1070 -0.3789 -0.9192
vn -0.1254 0.6429 -0.7555
vn -0.0414 0.9792 -0.1986
vn -0.1630 -0.8137 -0.5579
vn -0.2520 0.0392 -0.9669
vn 0.0717 -0.8437 0.5320
vn 0.2325 0.3495 0.9076
vn 0.3380 0.0188 -0.9409
vn 0.2193 -0.8146 -0.5369
vn 0.1790 0.7967 -0.5772
vn -0.2120 0.8559 0.4717
vn -0.2823 0.0014 0.9593
vn -0.1458 -0.8918 0.4283
vn -0.7751 -0.3987 0.4900
vn 0.2715 0.9499 -0.1550
vn 0.8426 0.0120 -0.5383
vn 0.2254 -0.9653 -0.1320
vn -0.6371 0.6491 0.4157
vn -0.8299 0.0541 0.5552
vn 0.4830 0.6829 -0.5480
vn -0.1412 -0.9798 0.1412
vn -0.1697 0.9762 0.1348
vn 0.4818 -0.6810 -0.5514
vn 0.7411 0.0065 -0.6713
vn 0.8222 -0.0850 -0.5628
vn -0.7170 -0.3372 0.6100
vn 0.1029 0.9904 -0.0927
vn -0.6256 0.6275 0.4635
vn -0.8367 -0.4722 0.2773
vn -0.2741 0.9611 0.0349
vn 0.9029 0.3067 -0.3011
vn -0.0213 -0.9974 -0.0686
vn 0.5318 -0.8368 -0.1303
vn -0.7669 -0.2507 0.5908
vn 0.1041 0.9944 -0.0160
vn 0.9933 0.0716 0.0908
vn -0.5129 -0.8491 -0.1265
vn -0.7081 0.6971 -0.1122
vn -0.9811 -0.0626 -0.1832
vn -0.6754 -0.4593 -0.5768
vn -0.5207 0.7383 -0.4287
vn 0.2922 -0.8926 0.3434
vn 0.4212 -0.8974 0.1314
vn 0.3192 0.8871 0.3332
vn 0.7548 -0.0059 0.6559
vn -0.3376 -0.8695 -0.3606
vn -0.7190 -0.0032 -0.6950
vn 0.6540 0.4658 0.5960
vn 0.4836 -0.7820 0.3932
vn -0.2995 0.9124 -0.2790
vn -0.6389 0.4810 -0.6003
vn 0.1549 -0.4096 0.8990
vn -0.3361 -0.6091 -0.7183
vn 0.0624 0.9731 0.2218
vn -0.5379 0.4854 -0.6892
vn 0.0949 0.0009 -0.9955
vn -0.0089 -0.7373 -0.6755
vn -0.0450 0.7839 -0.6192
vn -0.0189 0.6592 0.7517
vn 0.0352 -0.9989 -0.0290
vn -0.1858 -0.4526 0.8721
vn -0.1089 0.0124 -0.9940
vn 0.0744 -0.9340 0.3493
vn -0.0772 -0.3138 0.9463
vn -0.1708 0.2768 -0.9456
vn 0.0707 0.9900 0.1221
vn -0.1325 -0.9434 -0.3038
vn -0.3149 0.4068 -0.8575
vn 0.2427 -0.6418 0.7274
vn 0.2980 0.3798 0.8757
vn 0.1423 0.2205 0.9649
vn -0.4262 -0.3890 -0.8167
vn -0.0946 0.0317 0.9950
vn 0.0121 -0.9999 -0.0097
vn -0.0667 0.9977 0.0158
vn 0.1911 0.6704 -0.7169
vn 0.3462 -0.3504 -0.8703
vn 0.9368 -0.1688 -0.3064
vn -0.3013 0.9523 0.0476
vn 0.8098 0.5828 -0.0678
vn 0.5494 -0.7732 -0.3167
vn 0.5301 -0.8474 -0.0288
vn 0.9855 0.1480 -0.0827
vn -0.5030 -0.8642 0.0027
vn -0.8888 -0.4179 0.1881
vn 0.6261 0.7716 -0.1123
vn 0.3048 -0.8203 -0.4838
vn -0.9687 0.2370 0.0735
vn -0.2978 0.8861 0.3551
vn -0.0511 -0.9787 0.1988
vn -0.5669 -0.6328 0.5274
vn -0.7790 0.0921 0.6201
vn 0.1640 0.7382 -0.6544
vn -0.0198 -0.2225 0.9747
vn -0.0367 0.8299 0.5567
vn 0.0274 -0.3636 -0.9312
usemtl SVGMat.3781
s 1
f 127//1 1//2 2//3
f 1//2 7//4 3//5
f 127//1 5//6 1//2
f 3//5 8//7 129//8
f 128//9 6//10 127//1
f 7//4 13//11 8//7
f 4//12 14//13 7//4
f 5//6 10//14 4//12
f 9//15 11//16 5//6
f 128//9 12//17 6//10
f 8//7 12//17 128//9
f 13//11 15//18 12//17
f 16//19 17//20 15//18
f 17//20 18//21 15//18
f 14//13 19//22 13//11
f 10//14 19//22 14//13
f 11//16 20//23 10//14
f 18//21 20//23 11//16
f 20//23 23//24 19//22
f 18//21 22//25 20//23
f 17//20 25//26 18//21
f 23//24 26//27 19//22
f 26//27 25//26 17//20
f 23//24 27//28 26//27
f 21//29 32//30 23//24
f 22//25 28//31 21//29
f 24//32 29//33 22//25
f 26//27 31//34 25//26
f 27//28 31//34 26//27
f 30//35 33//36 24//32
f 27//28 35//37 31//34
f 34//38 33//36 30//35
f 32//30 36//39 27//28
f 29//33 37//40 28//31
f 33//36 37//40 29//33
f 37//40 36//39 32//30
f 35//37 39//41 34//38
f 36//39 40//42 35//37
f 39//41 41//43 33//36
f 41//43 43//44 33//36
f 38//45 42//46 36//39
f 38//45 44//47 42//46
f 43//44 44//47 38//45
f 39//41 48//48 41//43
f 40//42 46//49 39//41
f 42//46 47//50 40//42
f 44//47 47//50 42//46
f 45//51 49//52 44//47
f 46//49 50//53 48//48
f 49//52 54//54 44//47
f 48//48 52//55 45//51
f 50//53 52//55 48//48
f 51//56 53//57 46//49
f 44//47 54//54 47//50
f 51//56 55//58 53//57
f 52//55 59//59 49//52
f 50//53 56//60 52//55
f 55//58 56//60 50//53
f 56//60 58//61 52//55
f 58//61 60//62 59//59
f 56//60 61//63 58//61
f 55//58 62//64 56//60
f 57//65 62//64 55//58
f 62//64 61//63 56//60
f 60//62 63//66 57//65
f 61//63 64//67 60//62
f 62//64 66//68 61//63
f 63//66 67//69 62//64
f 60//62 69//70 63//66
f 65//71 70//72 64//67
f 70//72 69//70 64//67
f 70//72 71//73 69//70
f 65//71 71//73 70//72
f 66//68 72//74 65//71
f 69//70 73//75 68//76
f 71//73 73//75 69//70
f 67//69 74//77 66//68
f 73//75 75//78 67//69
f 71//73 77//79 73//75
f 72//74 78//80 71//73
f 75//78 80//81 74//77
f 76//82 80//81 75//78
f 79//83 81//84 78//80
f 77//79 84//85 76//82
f 81//84 85//86 77//79
f 83//87 81//84 79//83
f 83//87 86//88 81//84
f 87//89 91//90 85//86
f 83//87 88//91 86//88
f 84//85 90//92 83//87
f 82//93 93//94 84//85
f 88//91 92//95 87//89
f 91//90 95//96 82//93
f 95//96 94//97 93//94
f 88//91 97//98 92//95
f 89//99 97//98 88//91
f 97//98 100//100 91//90
f 89//99 101//101 97//98
f 99//102 98//103 96//104
f 101//101 105//105 100//100
f 99//102 102//106 98//103
f 100//100 103//107 99//102
f 105//105 103//107 100//100
f 104//108 106//109 101//101
f 106//109 107//110 105//105
f 106//109 108//111 107//110
f 102//106 111//112 104//108
f 104//108 110//113 106//109
f 109//114 112//115 103//107
f 108//111 112//115 109//114
f 110//113 114//116 108//111
f 112//115 115//117 113//118
f 111//112 116//119 110//113
f 114//116 118//120 112//115
f 117//121 119//122 111//112
f 118//120 121//123 115//117
f 120//124 122//125 117//121
f 116//119 123//126 114//116
f 119//122 123//126 116//119
f 120//124 124//127 122//125
f 124//127 125//128 119//122
f 121//123 124//127 120//124
f 123//126 126//129 118//120
f 125//128 2//3 123//126
f 124//127 127//1 125//128
f 121//123 129//8 124//127
f 118//120 129//8 121//123
f 2//3 1//2 126//129
f 1//2 4//12 7//4
f 1//2 5//6 4//12
f 127//1 6//10 5//6
f 3//5 7//4 8//7
f 129//8 8//7 128//9
f 6//10 9//15 5//6
f 4//12 10//14 14//13
f 5//6 11//16 10//14
f 6//10 12//17 9//15
f 8//7 13//11 12//17
f 7//4 14//13 13//11
f 12//17 15//18 9//15
f 13//11 16//19 15//18
f 15//18 18//21 9//15
f 9//15 18//21 11//16
f 13//11 19//22 16//19
f 10//14 20//23 19//22
f 20//23 21//29 23//24
f 20//23 22//25 21//29
f 18//21 24//32 22//25
f 18//21 25//26 24//32
f 19//22 26//27 16//19
f 16//19 26//27 17//20
f 21//29 28//31 32//30
f 22//25 29//33 28//31
f 25//26 30//35 24//32
f 25//26 31//34 30//35
f 23//24 32//30 27//28
f 24//32 33//36 29//33
f 31//34 34//38 30//35
f 31//34 35//37 34//38
f 27//28 36//39 35//37
f 28//31 37//40 32//30
f 37//40 38//45 36//39
f 34//38 39//41 33//36
f 35//37 40//42 39//41
f 33//36 43//44 37//40
f 36//39 42//46 40//42
f 37//40 43//44 38//45
f 43//44 45//51 44//47
f 41//43 48//48 43//44
f 39//41 46//49 48//48
f 40//42 47//50 46//49
f 43//44 48//48 45//51
f 47//50 51//56 46//49
f 45//51 52//55 49//52
f 46//49 53//57 50//53
f 47//50 54//54 51//56
f 53//57 55//58 50//53
f 49//52 59//59 54//54
f 54//54 57//65 51//56
f 51//56 57//65 55//58
f 52//55 58//61 59//59
f 54//54 59//59 57//65
f 58//61 61//63 60//62
f 57//65 63//66 62//64
f 59//59 60//62 57//65
f 61//63 65//71 64//67
f 61//63 66//68 65//71
f 62//64 67//69 66//68
f 63//66 68//76 67//69
f 63//66 69//70 68//76
f 60//62 64//67 69//70
f 65//71 72//74 71//73
f 68//76 73//75 67//69
f 66//68 74//77 72//74
f 67//69 75//78 74//77
f 73//75 76//82 75//78
f 74//77 79//83 72//74
f 73//75 77//79 76//82
f 71//73 78//80 77//79
f 72//74 79//83 78//80
f 74//77 80//81 79//83
f 78//80 81//84 77//79
f 80//81 83//87 79//83
f 76//82 84//85 80//81
f 77//79 82//93 84//85
f 80//81 84//85 83//87
f 77//79 85//86 82//93
f 81//84 86//88 85//86
f 86//88 87//89 85//86
f 86//88 88//91 87//89
f 83//87 89//99 88//91
f 83//87 90//92 89//99
f 85//86 91//90 82//93
f 87//89 92//95 91//90
f 84//85 93//94 90//92
f 82//93 95//96 93//94
f 93//94 94//97 90//92
f 94//97 96//104 90//92
f 94//97 95//96 96//104
f 90//92 96//104 89//99
f 92//95 97//98 91//90
f 96//104 98//103 89//99
f 95//96 99//102 96//104
f 91//90 100//100 95//96
f 95//96 100//100 99//102
f 97//98 101//101 100//100
f 98//103 104//108 89//99
f 98//103 102//106 104//108
f 99//102 103//107 102//106
f 89//99 104//108 101//101
f 101//101 106//109 105//105
f 105//105 107//110 103//107
f 107//110 108//111 109//114
f 107//110 109//114 103//107
f 106//109 110//113 108//111
f 104//108 111//112 110//113
f 103//107 113//118 102//106
f 103//107 112//115 113//118
f 102//106 113//118 111//112
f 108//111 114//116 112//115
f 113//118 117//121 111//112
f 113//118 115//117 117//121
f 110//113 116//119 114//116
f 112//115 118//120 115//117
f 111//112 119//122 116//119
f 115//117 120//124 117//121
f 115//117 121//123 120//124
f 117//121 122//125 119//122
f 114//116 123//126 118//120
f 122//125 124//127 119//122
f 119//122 125//128 123//126
f 123//126 2//3 126//129
f 125//128 127//1 2//3
f 124//127 128//9 127//1
f 124//127 129//8 128//9
f 118//120 126//129 129//8
f 126//129 1//2 3//5
f 126//129 3//5 129//8
