# Blender v2.79 (sub 0) OBJ File: 'world_countrycodes_export2.blend'
# www.blender.org
mtllib SA.mtl
o SA.002_CUCurve.1799
v 1.213654 0.000000 0.479551
v 1.211303 0.000000 0.478989
v 1.209020 0.000000 0.477855
v 1.203420 0.000000 0.473451
v 1.199426 0.000000 0.470523
v 1.194832 0.000000 0.467403
v 1.186325 0.000000 0.462015
v 1.183680 0.000000 0.460859
v 1.180816 0.000000 0.460732
v 1.177577 0.000000 0.460980
v 1.176005 0.000000 0.462033
v 1.174421 0.000000 0.462475
v 1.171535 0.000000 0.462759
v 1.168792 0.000000 0.463703
v 1.167289 0.000000 0.464969
v 1.166936 0.000000 0.465699
v 1.167086 0.000000 0.466045
v 1.169625 0.000000 0.467777
v 1.171730 0.000000 0.470173
v 1.171747 0.000000 0.470959
v 1.170894 0.000000 0.471560
v 1.169585 0.000000 0.473258
v 1.168678 0.000000 0.473776
v 1.166922 0.000000 0.473855
v 1.165432 0.000000 0.474175
v 1.164701 0.000000 0.474809
v 1.164542 0.000000 0.475586
v 1.164019 0.000000 0.476641
v 1.163123 0.000000 0.477678
v 1.161833 0.000000 0.478434
v 1.160231 0.000000 0.478791
v 1.157208 0.000000 0.477715
v 1.154478 0.000000 0.476255
v 1.153889 0.000000 0.477880
v 1.153740 0.000000 0.479574
v 1.153952 0.000000 0.484733
v 1.154412 0.000000 0.485738
v 1.155325 0.000000 0.486280
v 1.157892 0.000000 0.489947
v 1.160626 0.000000 0.493165
v 1.164002 0.000000 0.497789
v 1.167215 0.000000 0.503215
v 1.167659 0.000000 0.505578
v 1.168369 0.000000 0.507267
v 1.169311 0.000000 0.508642
v 1.170663 0.000000 0.509877
v 1.172343 0.000000 0.510879
v 1.174379 0.000000 0.513056
v 1.176218 0.000000 0.516277
v 1.177906 0.000000 0.517942
v 1.178322 0.000000 0.519736
v 1.178361 0.000000 0.523932
v 1.178630 0.000000 0.525956
v 1.179514 0.000000 0.528557
v 1.181134 0.000000 0.531056
v 1.182829 0.000000 0.532704
v 1.184763 0.000000 0.533899
v 1.187206 0.000000 0.536221
v 1.188967 0.000000 0.538939
v 1.190484 0.000000 0.542586
v 1.191898 0.000000 0.545187
v 1.193881 0.000000 0.547969
v 1.195313 0.000000 0.549586
v 1.195884 0.000000 0.550638
v 1.196261 0.000000 0.552655
v 1.197451 0.000000 0.554426
v 1.198532 0.000000 0.556544
v 1.199870 0.000000 0.555918
v 1.201245 0.000000 0.555012
v 1.200774 0.000000 0.552369
v 1.202018 0.000000 0.550792
v 1.203526 0.000000 0.549858
v 1.204391 0.000000 0.550008
v 1.206593 0.000000 0.550645
v 1.209973 0.000000 0.550425
v 1.213176 0.000000 0.550833
v 1.215019 0.000000 0.551384
v 1.220465 0.000000 0.551811
v 1.222605 0.000000 0.552580
v 1.223971 0.000000 0.553166
v 1.225083 0.000000 0.552876
v 1.225995 0.000000 0.551842
v 1.227089 0.000000 0.549951
v 1.232038 0.000000 0.545586
v 1.235488 0.000000 0.543263
v 1.243419 0.000000 0.543108
v 1.246883 0.000000 0.542728
v 1.264452 0.000000 0.537184
v 1.269335 0.000000 0.535342
v 1.271273 0.000000 0.530514
v 1.273264 0.000000 0.523561
v 1.272692 0.000000 0.521662
v 1.271859 0.000000 0.520332
v 1.270933 0.000000 0.519498
v 1.262026 0.000000 0.518815
v 1.256112 0.000000 0.517835
v 1.254830 0.000000 0.516887
v 1.253183 0.000000 0.514959
v 1.252322 0.000000 0.513265
v 1.251835 0.000000 0.511736
v 1.250935 0.000000 0.510843
v 1.249932 0.000000 0.509313
v 1.249509 0.000000 0.508106
v 1.248191 0.000000 0.508108
v 1.246834 0.000000 0.507608
v 1.245881 0.000000 0.506900
v 1.245167 0.000000 0.505958
v 1.244730 0.000000 0.504897
v 1.242987 0.000000 0.502867
v 1.241901 0.000000 0.500913
v 1.241456 0.000000 0.499281
v 1.242033 0.000000 0.498091
v 1.241875 0.000000 0.496770
v 1.241129 0.000000 0.495008
v 1.239650 0.000000 0.493020
v 1.235570 0.000000 0.489311
v 1.233667 0.000000 0.486812
v 1.233212 0.000000 0.484914
v 1.232719 0.000000 0.483496
v 1.228200 0.000000 0.483270
v 1.225213 0.000000 0.480739
v 1.203420 0.050000 0.473451
v 1.166922 0.050000 0.473855
v 1.269335 0.050000 0.535342
v 1.271273 0.050000 0.530514
v 1.252322 0.050000 0.513265
v 1.251835 0.050000 0.511736
v 1.241901 0.050000 0.500913
v 1.241456 0.050000 0.499281
v 1.153952 0.050000 0.484733
v 1.228200 0.050000 0.483270
v 1.213654 0.050000 0.479551
v 1.211303 0.050000 0.478989
v 1.239650 0.050000 0.493020
v 1.235570 0.050000 0.489311
v 1.170894 0.050000 0.471560
v 1.160231 0.050000 0.478791
v 1.153740 0.050000 0.479574
v 1.169311 0.050000 0.508642
v 1.248191 0.050000 0.508108
v 1.172343 0.050000 0.510879
v 1.174379 0.050000 0.513056
v 1.273264 0.050000 0.523561
v 1.272692 0.050000 0.521662
v 1.169585 0.050000 0.473258
v 1.168678 0.050000 0.473776
v 1.190484 0.050000 0.542586
v 1.246883 0.050000 0.542728
v 1.167215 0.050000 0.503215
v 1.244730 0.050000 0.504897
v 1.178361 0.050000 0.523932
v 1.187206 0.050000 0.536221
v 1.199426 0.050000 0.470523
v 1.171747 0.050000 0.470959
v 1.194832 0.050000 0.467403
v 1.166936 0.050000 0.465699
v 1.191898 0.050000 0.545187
v 1.222605 0.050000 0.552580
v 1.225083 0.050000 0.552876
v 1.182829 0.050000 0.532704
v 1.184763 0.050000 0.533899
v 1.167659 0.050000 0.505578
v 1.199870 0.050000 0.555918
v 1.201245 0.050000 0.555012
v 1.181134 0.050000 0.531056
v 1.180816 0.050000 0.460732
v 1.177577 0.050000 0.460980
v 1.169625 0.050000 0.467777
v 1.253183 0.050000 0.514959
v 1.164002 0.050000 0.497789
v 1.241129 0.050000 0.495008
v 1.186325 0.050000 0.462015
v 1.171535 0.050000 0.462759
v 1.174421 0.050000 0.462475
v 1.157208 0.050000 0.477715
v 1.203526 0.050000 0.549858
v 1.204391 0.050000 0.550008
v 1.183680 0.050000 0.460859
v 1.167086 0.050000 0.466045
v 1.242033 0.050000 0.498091
v 1.241875 0.050000 0.496770
v 1.179514 0.050000 0.528557
v 1.178630 0.050000 0.525956
v 1.200774 0.050000 0.552369
v 1.202018 0.050000 0.550792
v 1.235488 0.050000 0.543263
v 1.271859 0.050000 0.520332
v 1.233212 0.050000 0.484914
v 1.264452 0.050000 0.537184
v 1.220465 0.050000 0.551811
v 1.195313 0.050000 0.549586
v 1.195884 0.050000 0.550638
v 1.245167 0.050000 0.505958
v 1.232719 0.050000 0.483496
v 1.164701 0.050000 0.474809
v 1.164542 0.050000 0.475586
v 1.227089 0.050000 0.549951
v 1.225213 0.050000 0.480739
v 1.178322 0.050000 0.519736
v 1.270933 0.050000 0.519498
v 1.160626 0.050000 0.493165
v 1.155325 0.050000 0.486280
v 1.245881 0.050000 0.506900
v 1.176218 0.050000 0.516277
v 1.225995 0.050000 0.551842
v 1.215019 0.050000 0.551384
v 1.209020 0.050000 0.477855
v 1.197451 0.050000 0.554426
v 1.161833 0.050000 0.478434
v 1.262026 0.050000 0.518815
v 1.256112 0.050000 0.517835
v 1.246834 0.050000 0.507608
v 1.233667 0.050000 0.486812
v 1.168369 0.050000 0.507267
v 1.157892 0.050000 0.489947
v 1.170663 0.050000 0.509877
v 1.188967 0.050000 0.538939
v 1.254830 0.050000 0.516887
v 1.249932 0.050000 0.509313
v 1.164019 0.050000 0.476641
v 1.163123 0.050000 0.477678
v 1.209973 0.050000 0.550425
v 1.154412 0.050000 0.485738
v 1.198532 0.050000 0.556544
v 1.250935 0.050000 0.510843
v 1.177906 0.050000 0.517942
v 1.242987 0.050000 0.502867
v 1.213176 0.050000 0.550833
v 1.206593 0.050000 0.550645
v 1.165432 0.050000 0.474175
v 1.153889 0.050000 0.477880
v 1.232038 0.050000 0.545586
v 1.176005 0.050000 0.462033
v 1.167289 0.050000 0.464969
v 1.193881 0.050000 0.547969
v 1.196261 0.050000 0.552655
v 1.171730 0.050000 0.470173
v 1.168792 0.050000 0.463703
v 1.154478 0.050000 0.476255
v 1.243419 0.050000 0.543108
v 1.249509 0.050000 0.508106
v 1.223971 0.050000 0.553166
vn 0.0000 -1.0000 0.0000
vn 0.0000 1.0000 -0.0000
vn 0.0000 1.0000 -0.0001
vn 0.7603 0.0000 -0.6495
vn 0.9929 0.0000 -0.1191
vn -0.6891 0.0000 0.7247
vn 0.7497 0.0000 0.6618
vn -0.2863 0.0000 0.9582
vn -0.9468 0.0000 0.3217
vn -0.8390 0.0000 0.5441
vn -0.9094 0.0000 0.4160
vn 0.7854 0.0000 0.6190
vn 0.6182 0.0000 -0.7860
vn -0.7566 0.0000 -0.6538
vn -0.3940 0.0000 0.9191
vn 0.8477 0.0000 -0.5304
vn 0.7587 0.0000 -0.6514
vn 0.9613 0.0000 0.2754
vn -0.9961 0.0000 -0.0879
vn 0.3009 0.0000 0.9537
vn -0.7513 0.0000 0.6600
vn -0.8300 0.0000 0.5578
vn -0.3382 0.0000 0.9411
vn -0.9218 0.0000 0.3876
vn -0.5110 0.0000 0.8596
vn -0.8789 0.0000 0.4771
vn 0.8739 0.0000 -0.4861
vn 0.5950 0.0000 -0.8037
vn 0.9281 0.0000 0.3725
vn 0.9446 0.0000 -0.3281
vn 0.0764 0.0000 -0.9971
vn 0.9529 0.0000 -0.3033
vn 0.8363 0.0000 -0.5482
vn -0.9797 0.0000 -0.2004
vn -0.3254 0.0000 -0.9456
vn 0.9649 0.0000 -0.2628
vn 0.7043 0.0000 -0.7099
vn 0.7956 0.0000 -0.6058
vn 0.2324 0.0000 -0.9726
vn -0.7921 0.0000 -0.6103
vn 0.6615 0.0000 0.7499
vn 0.6727 0.0000 -0.7399
vn -0.9741 0.0000 0.2262
vn -0.7620 0.0000 0.6476
vn -0.8250 0.0000 0.5651
vn -0.1265 0.0000 0.9920
vn -0.0014 0.0000 -1.0000
vn 0.9725 0.0000 -0.2330
vn -0.7305 0.0000 0.6830
vn 0.0649 0.0000 0.9979
vn -0.9913 0.0000 0.1314
vn 0.9574 0.0000 -0.2889
vn -0.6550 0.0000 -0.7557
vn -0.4963 0.0000 -0.8681
vn 0.6465 0.0000 -0.7629
vn -0.8077 0.0000 0.5896
vn 0.4004 0.0000 -0.9163
vn 0.3530 0.0000 0.9356
vn -0.9997 0.0000 0.0224
vn -1.0000 0.0000 0.0093
vn 0.4451 0.0000 -0.8955
vn -0.8604 0.0000 0.5096
vn -0.5056 0.0000 -0.8628
vn 0.2525 0.0000 0.9676
vn 0.5351 0.0000 -0.8448
vn -0.9829 0.0000 0.1841
vn 0.1022 0.0000 -0.9948
vn 0.7972 0.0000 -0.6037
vn 0.8997 0.0000 0.4364
vn 0.8655 0.0000 0.5009
vn -0.5755 0.0000 -0.8178
vn -0.8785 0.0000 0.4778
vn -0.5563 0.0000 -0.8310
vn -0.2692 0.0000 -0.9631
vn -0.9006 0.0000 -0.4347
vn -0.2780 0.0000 0.9606
vn -0.0782 0.0000 0.9969
vn -0.8908 0.0000 0.4543
vn -0.5255 0.0000 0.8508
vn -0.6970 0.0000 0.7170
vn -0.9992 0.0000 0.0411
vn -0.2103 0.0000 -0.9776
vn -0.6441 0.0000 -0.7650
vn -0.9828 0.0000 0.1845
vn 0.6691 0.0000 -0.7432
vn -0.8143 0.0000 0.5804
vn 0.5502 0.0000 0.8351
vn -0.8685 0.0000 0.4957
vn -0.9402 0.0000 -0.3406
vn -0.8392 0.0000 0.5439
vn -0.7023 0.0000 0.7119
vn 0.1635 0.0000 -0.9866
vn -0.0764 0.0000 -0.9971
vn 0.9248 0.0000 -0.3805
vn 0.4236 0.0000 0.9059
vn 0.3354 0.0000 -0.9421
vn 0.5958 0.0000 -0.8031
vn 0.4715 0.0000 -0.8819
vn 0.8913 0.0000 -0.4534
vn 0.9209 0.0000 -0.3899
vn -0.8961 0.0000 -0.4439
vn 0.0194 0.0000 0.9998
vn 0.9845 0.0000 -0.1752
vn -0.8192 0.0000 0.5735
vn 0.5618 0.0000 -0.8273
vn -0.7488 0.0000 0.6628
vn -0.0445 0.0000 -0.9990
vn -0.6743 0.0000 0.7385
vn 0.8022 0.0000 -0.5970
vn -0.5122 0.0000 0.8588
vn -0.0977 0.0000 -0.9952
vn -0.9233 0.0000 0.3840
vn 0.5912 0.0000 -0.8065
vn 0.5586 0.0000 0.8294
vn 0.0500 0.0000 -0.9988
vn -0.1707 0.0000 0.9853
vn 0.5264 0.0000 0.8503
vn 0.1093 0.0000 0.9940
vn 0.0442 0.0000 -0.9990
vn -0.5636 0.0000 0.8261
vn 0.3457 0.0000 -0.9383
vn -0.2175 0.0000 -0.9761
vn 0.9437 0.0000 -0.3307
vn -0.9172 0.0000 0.3984
usemtl SVGMat.3781
s off
f 10//1 9//1 8//1
f 10//1 8//1 7//1
f 11//1 10//1 7//1
f 12//1 11//1 7//1
f 13//1 12//1 7//1
f 14//1 13//1 7//1
f 15//1 14//1 7//1
f 15//1 7//1 6//1
f 16//1 15//1 6//1
f 17//1 16//1 6//1
f 18//1 17//1 6//1
f 19//1 18//1 6//1
f 19//1 6//1 5//1
f 20//1 19//1 5//1
f 21//1 20//1 5//1
f 21//1 5//1 4//1
f 22//1 21//1 4//1
f 23//1 22//1 4//1
f 24//1 23//1 4//1
f 25//1 24//1 4//1
f 26//1 25//1 4//1
f 26//1 4//1 3//1
f 27//1 26//1 3//1
f 28//1 27//1 3//1
f 34//1 33//1 32//1
f 29//1 28//1 3//1
f 35//1 34//1 32//1
f 30//1 29//1 3//1
f 35//1 32//1 31//1
f 30//1 3//1 2//1
f 31//1 30//1 2//1
f 35//1 31//1 2//1
f 35//1 2//1 1//1
f 35//1 1//1 121//1
f 36//1 35//1 121//1
f 36//1 121//1 120//1
f 36//1 120//1 119//1
f 36//1 119//1 118//1
f 37//1 36//1 118//1
f 38//1 37//1 118//1
f 38//1 118//1 117//1
f 38//1 117//1 116//1
f 39//1 38//1 116//1
f 40//1 39//1 116//1
f 40//1 116//1 115//1
f 40//1 115//1 114//1
f 41//1 40//1 114//1
f 41//1 114//1 113//1
f 41//1 113//1 112//1
f 41//1 112//1 111//1
f 42//1 41//1 111//1
f 42//1 111//1 110//1
f 42//1 110//1 109//1
f 42//1 109//1 108//1
f 43//1 42//1 108//1
f 43//1 108//1 107//1
f 43//1 107//1 106//1
f 44//1 43//1 106//1
f 44//1 106//1 105//1
f 45//1 44//1 105//1
f 45//1 105//1 104//1
f 104//1 103//1 102//1
f 45//1 104//1 102//1
f 46//1 45//1 102//1
f 46//1 102//1 101//1
f 47//1 46//1 101//1
f 47//1 101//1 100//1
f 48//1 47//1 100//1
f 48//1 100//1 99//1
f 48//1 99//1 98//1
f 49//1 48//1 98//1
f 49//1 98//1 97//1
f 50//1 49//1 97//1
f 50//1 97//1 96//1
f 50//1 96//1 95//1
f 51//1 50//1 95//1
f 51//1 95//1 94//1
f 51//1 94//1 93//1
f 51//1 93//1 92//1
f 52//1 51//1 92//1
f 52//1 92//1 91//1
f 53//1 52//1 91//1
f 54//1 53//1 91//1
f 54//1 91//1 90//1
f 55//1 54//1 90//1
f 56//1 55//1 90//1
f 56//1 90//1 89//1
f 57//1 56//1 89//1
f 58//1 57//1 89//1
f 58//1 89//1 88//1
f 59//1 58//1 88//1
f 59//1 88//1 87//1
f 60//1 59//1 87//1
f 60//1 87//1 86//1
f 60//1 86//1 85//1
f 61//1 60//1 85//1
f 61//1 85//1 84//1
f 62//1 61//1 84//1
f 62//1 84//1 83//1
f 63//1 62//1 83//1
f 63//1 83//1 72//1
f 64//1 63//1 72//1
f 73//1 72//1 83//1
f 64//1 72//1 71//1
f 74//1 73//1 75//1
f 75//1 73//1 83//1
f 76//1 75//1 83//1
f 76//1 83//1 82//1
f 77//1 76//1 82//1
f 78//1 77//1 82//1
f 65//1 64//1 71//1
f 65//1 71//1 70//1
f 78//1 82//1 81//1
f 79//1 78//1 81//1
f 80//1 79//1 81//1
f 66//1 65//1 70//1
f 66//1 70//1 69//1
f 67//1 66//1 69//1
f 67//1 69//1 68//1
f 167//2 178//2 166//2
f 167//2 172//2 178//2
f 233//2 172//2 167//2
f 174//2 172//2 233//2
f 173//2 172//2 174//2
f 238//2 172//2 173//2
f 234//2 172//2 238//2
f 234//2 155//2 172//2
f 156//2 155//2 234//2
f 179//2 155//2 156//2
f 168//2 155//2 179//2
f 237//2 155//2 168//2
f 237//2 153//2 155//2
f 154//2 153//2 237//2
f 136//2 153//2 154//2
f 136//2 122//2 153//2
f 145//2 122//2 136//2
f 146//2 122//2 145//2
f 123//2 122//2 146//2
f 230//2 122//2 123//2
f 195//2 122//2 230//2
f 195//2 207//2 122//2
f 196//2 207//2 195//2
f 220//2 207//2 196//2
f 231//2 175//2 239//2
f 221//2 207//2 220//2
f 138//2 175//2 231//2
f 209//2 207//2 221//2
f 138//2 137//2 175//2
f 209//2 133//2 207//2
f 137//2 133//2 209//2
f 138//2 133//2 137//2
f 138//2 132//2 133//2
f 138//2 198//2 132//2
f 130//2 198//2 138//2
f 130//2 131//2 198//2
f 130//2 194//2 131//2
f 130//2 188//2 194//2
f 223//2 188//2 130//2
f 202//2 188//2 223//2
f 202//2 213//2 188//2
f 202//2 135//2 213//2
f 215//2 135//2 202//2
f 201//2 135//2 215//2
f 201//2 134//2 135//2
f 201//2 171//2 134//2
f 170//2 171//2 201//2
f 170//2 181//2 171//2
f 170//2 180//2 181//2
f 170//2 129//2 180//2
f 149//2 129//2 170//2
f 149//2 128//2 129//2
f 149//2 227//2 128//2
f 149//2 150//2 227//2
f 162//2 150//2 149//2
f 162//2 193//2 150//2
f 162//2 203//2 193//2
f 214//2 203//2 162//2
f 214//2 212//2 203//2
f 139//2 212//2 214//2
f 139//2 140//2 212//2
f 140//2 219//2 241//2
f 139//2 219//2 140//2
f 216//2 219//2 139//2
f 216//2 225//2 219//2
f 141//2 225//2 216//2
f 141//2 127//2 225//2
f 142//2 127//2 141//2
f 142//2 126//2 127//2
f 142//2 169//2 126//2
f 204//2 169//2 142//2
f 204//2 218//2 169//2
f 226//2 218//2 204//2
f 226//2 211//2 218//2
f 226//2 210//2 211//2
f 199//2 210//2 226//2
f 199//2 200//2 210//2
f 199//2 187//2 200//2
f 199//2 144//2 187//2
f 151//2 144//2 199//2
f 151//2 143//2 144//2
f 183//2 143//2 151//2
f 182//2 143//2 183//2
f 182//2 125//2 143//2
f 165//2 125//2 182//2
f 160//2 125//2 165//2
f 160//2 124//2 125//2
f 161//2 124//2 160//2
f 152//2 124//2 161//2
f 152//2 189//2 124//2
f 217//2 189//2 152//2
f 217//2 148//2 189//2
f 147//2 148//2 217//2
f 147//2 240//2 148//2
f 147//2 186//2 240//2
f 157//2 186//2 147//2
f 157//2 232//2 186//2
f 235//2 232//2 157//2
f 235//2 197//2 232//2
f 191//2 197//2 235//2
f 191//2 176//2 197//2
f 192//2 176//2 191//2
f 177//2 197//2 176//2
f 192//2 185//2 176//2
f 229//2 222//2 177//2
f 222//2 197//2 177//2
f 228//2 197//2 222//2
f 228//2 205//2 197//2
f 206//2 205//2 228//2
f 190//3 205//3 206//3
f 236//2 185//2 192//2
f 236//2 184//2 185//2
f 190//2 159//2 205//2
f 158//2 159//2 190//2
f 242//2 159//2 158//2
f 208//2 184//2 236//2
f 208//2 164//2 184//2
f 224//2 164//2 208//2
f 224//2 163//2 164//2
f 97//4 98//4 169//4 218//4
f 112//5 113//5 181//5 180//5
f 57//6 58//6 152//6 161//6
f 81//7 82//7 205//7 159//7
f 76//8 77//8 206//8 228//8
f 53//9 54//9 182//9 183//9
f 54//10 55//10 165//10 182//10
f 36//11 37//11 223//11 130//11
f 70//12 71//12 185//12 184//12
f 3//13 4//13 122//13 207//13
f 28//14 29//14 221//14 220//14
f 79//15 80//15 242//15 158//15
f 92//16 93//16 187//16 144//16
f 108//17 109//17 227//17 150//17
f 90//18 91//18 143//18 125//18
f 34//19 35//19 138//19 231//19
f 87//20 88//20 189//20 148//20
f 18//21 19//21 237//21 168//21
f 65//22 66//22 208//22 236//22
f 78//23 79//23 158//23 190//23
f 43//24 44//24 214//24 162//24
f 37//25 38//25 202//25 223//25
f 63//26 64//26 192//26 191//26
f 109//27 110//27 128//27 227//27
f 96//28 97//28 218//28 211//28
f 89//29 90//29 125//29 124//29
f 118//30 119//30 194//30 188//30
f 94//31 95//31 210//31 200//31
f 99//32 100//32 127//32 126//32
f 101//33 102//33 219//33 225//33
f 26//34 27//34 196//34 195//34
f 13//35 14//35 238//35 173//35
f 110//36 111//36 129//36 128//36
f 100//37 101//37 225//37 127//37
f 116//38 117//38 213//38 135//38
f 1//39 2//39 133//39 132//39
f 21//40 22//40 145//40 136//40
f 83//41 84//41 232//41 197//41
f 115//42 116//42 135//42 134//42
f 50//43 51//43 199//43 226//43
f 39//44 40//44 201//44 215//44
f 44//45 45//45 139//45 214//45
f 75//46 76//46 228//46 222//46
f 103//47 104//47 140//47 241//47
f 117//48 118//48 188//48 213//48
f 47//49 48//49 142//49 141//49
f 74//50 75//50 222//50 229//50
f 52//51 53//51 183//51 151//51
f 91//52 92//52 144//52 143//52
f 25//53 26//53 195//53 230//53
f 22//54 23//54 146//54 145//54
f 120//55 121//55 198//55 131//55
f 40//56 41//56 170//56 201//56
f 7//57 8//57 178//57 172//57
f 88//58 89//58 124//58 189//58
f 19//59 20//59 154//59 237//59
f 51//60 52//60 151//60 199//60
f 2//61 3//61 207//61 133//61
f 41//62 42//62 149//62 170//62
f 29//63 30//63 209//63 221//63
f 80//64 81//64 159//64 242//64
f 6//65 7//65 172//65 155//65
f 64//66 65//66 236//66 192//66
f 121//67 1//67 132//67 198//67
f 106//68 107//68 193//68 203//68
f 111//69 112//69 180//69 129//69
f 82//70 83//70 197//70 205//70
f 20//71 21//71 136//71 154//71
f 60//72 61//72 157//72 147//72
f 10//73 11//73 233//73 167//73
f 11//74 12//74 174//74 233//74
f 15//75 16//75 156//75 234//75
f 73//76 74//76 229//76 177//76
f 77//77 78//77 190//77 206//77
f 66//78 67//78 224//78 208//78
f 56//79 57//79 161//79 160//79
f 55//80 56//80 160//80 165//80
f 35//81 36//81 130//81 138//81
f 24//82 25//82 230//82 123//82
f 14//83 15//83 234//83 238//83
f 42//84 43//84 162//84 149//84
f 93//85 94//85 200//85 187//85
f 61//86 62//86 235//86 157//86
f 68//87 69//87 164//87 163//87
f 48//88 49//88 204//88 142//88
f 33//89 34//89 231//89 239//89
f 58//90 59//90 217//90 152//90
f 49//91 50//91 226//91 204//91
f 95//92 96//92 211//92 210//92
f 9//93 10//93 167//93 166//93
f 107//94 108//94 150//94 193//94
f 67//95 68//95 163//95 224//95
f 31//96 32//96 175//96 137//96
f 105//97 106//97 203//97 212//97
f 32//98 33//98 239//98 175//98
f 98//99 99//99 126//99 169//99
f 113//100 114//100 171//100 181//100
f 27//101 28//101 220//101 196//101
f 85//102 86//102 240//102 186//102
f 69//103 70//103 184//103 164//103
f 38//104 39//104 215//104 202//104
f 5//105 6//105 155//105 153//105
f 62//106 63//106 191//106 235//106
f 23//107 24//107 123//107 146//107
f 45//108 46//108 216//108 139//108
f 114//109 115//109 134//109 171//109
f 46//110 47//110 141//110 216//110
f 12//111 13//111 173//111 174//111
f 59//112 60//112 147//112 217//112
f 4//113 5//113 153//113 122//113
f 84//114 85//114 186//114 232//114
f 119//115 120//115 131//115 194//115
f 72//116 73//116 177//116 176//116
f 71//117 72//117 176//117 185//117
f 86//118 87//118 148//118 240//118
f 8//119 9//119 166//119 178//119
f 17//120 18//120 168//120 179//120
f 104//121 105//121 212//121 140//121
f 30//122 31//122 137//122 209//122
f 102//123 103//123 241//123 219//123
f 16//124 17//124 179//124 156//124
