# Blender v2.79 (sub 0) OBJ File: 'world_countrycodes_outlines2.blend'
# www.blender.org
mtllib SA_outline.mtl
o SA.001_CUCurve.1625
v 1.228848 0.000697 0.481318
v 1.227551 -0.000697 0.485222
v 1.234034 0.000091 0.481687
v 1.233437 0.001919 0.482893
v 1.232926 -0.001915 0.484918
v 1.233468 -0.001860 0.482672
v 1.235787 0.000728 0.486638
v 1.232149 0.001843 0.484749
v 1.231475 0.001394 0.485796
v 1.232312 -0.000622 0.488623
v 1.240688 -0.001370 0.496702
v 1.241906 -0.001926 0.494292
v 1.243887 0.000602 0.495348
v 1.240077 0.000738 0.496826
v 1.243073 0.001900 0.497375
v 1.240530 0.001956 0.499739
v 1.242430 -0.001945 0.499944
v 1.243489 0.000823 0.499841
v 1.239597 -0.000918 0.500151
v 1.245260 -0.001924 0.507650
v 1.246400 0.000738 0.503825
v 1.244167 0.000731 0.507991
v 1.247528 -0.000812 0.505942
v 1.246605 0.001924 0.506752
v 1.248056 0.000774 0.510102
v 1.248929 -0.001385 0.509926
v 1.251032 -0.001975 0.509499
v 1.250854 -0.000711 0.505978
v 1.249986 0.001991 0.507958
v 1.253218 0.000687 0.510616
v 1.250750 0.000849 0.514478
v 1.255423 -0.001385 0.516168
v 1.255248 -0.001887 0.518727
v 1.256806 0.000806 0.516136
v 1.255817 0.001922 0.518748
v 1.254970 0.000017 0.519697
v 1.272262 0.001992 0.520709
v 1.270192 -0.000713 0.521505
v 1.271828 -0.001958 0.518956
v 1.272240 0.000866 0.517916
v 1.275190 0.000768 0.522464
v 1.271992 0.001389 0.523601
v 1.271371 -0.000849 0.523405
v 1.274137 -0.001921 0.522826
v 1.270713 0.001448 0.536293
v 1.267995 0.000001 0.533832
v 1.268988 0.001958 0.534670
v 1.271252 -0.000550 0.536766
v 1.268620 -0.001947 0.534844
v 1.245871 0.001900 0.543933
v 1.246801 -0.001885 0.541921
v 1.246518 -0.000866 0.544820
v 1.245517 0.000800 0.541032
v 1.235791 -0.000002 0.545257
v 1.235738 0.001962 0.543870
v 1.234462 -0.001443 0.542048
v 1.235614 -0.001942 0.543976
v 1.234488 0.000794 0.541451
v 1.223885 0.000004 0.550606
v 1.225142 -0.001975 0.553190
v 1.228802 0.000744 0.550971
v 1.224148 0.001379 0.551425
v 1.224149 -0.001361 0.551418
v 1.226615 -0.000679 0.554304
v 1.225330 0.002012 0.553574
v 1.222980 0.000113 0.554852
v 1.222633 0.001451 0.554029
v 1.223211 -0.001398 0.554320
v 1.204832 0.001999 0.549884
v 1.215230 0.000791 0.549381
v 1.213503 -0.001980 0.550160
v 1.211662 0.000764 0.552556
v 1.212337 -0.001382 0.552127
v 1.203686 0.001428 0.548590
v 1.206848 -0.000033 0.548458
v 1.204918 -0.001967 0.549601
v 1.203602 0.001387 0.551593
v 1.203323 -0.000414 0.552220
v 1.203605 -0.001355 0.551630
v 1.202661 -0.000733 0.547860
v 1.199014 0.000936 0.551397
v 1.201556 0.002008 0.552184
v 1.199783 -0.001895 0.552470
v 1.199243 -0.000698 0.554022
v 1.202223 -0.001781 0.555725
v 1.203108 0.000004 0.556340
v 1.202080 0.001943 0.555152
v 1.199420 0.001314 0.554560
v 1.198368 0.001910 0.557780
v 1.198135 -0.001959 0.557449
v 1.197546 0.000007 0.559053
v 1.194457 0.001397 0.551501
v 1.196594 0.001926 0.550236
v 1.197611 -0.000849 0.549875
v 1.193912 -0.000718 0.551587
v 1.189909 -0.000014 0.545993
v 1.187853 0.001986 0.535646
v 1.193191 0.000673 0.543693
v 1.194550 -0.001961 0.548507
v 1.185940 -0.001418 0.536841
v 1.185858 0.000920 0.537331
v 1.189320 -0.001001 0.535720
v 1.187390 -0.002002 0.536142
v 1.179778 0.000007 0.532821
v 1.179994 0.001982 0.531137
v 1.183493 0.000697 0.530668
v 1.180631 -0.001366 0.528588
v 1.178099 -0.001946 0.528438
v 1.180639 0.000753 0.526503
v 1.176666 0.000809 0.526591
v 1.177323 -0.001959 0.518617
v 1.176183 -0.000071 0.519228
v 1.177290 0.001943 0.518745
v 1.179909 0.000708 0.517443
v 1.179239 -0.001445 0.517596
v 1.172010 0.000804 0.513135
v 1.174726 0.001933 0.512034
v 1.175127 -0.000002 0.510675
v 1.173902 -0.001964 0.511164
v 1.172281 -0.001411 0.512730
v 1.170196 0.000744 0.506850
v 1.169857 -0.001394 0.507280
v 1.167108 0.000071 0.509487
v 1.168538 0.001960 0.509144
v 1.167384 -0.001949 0.507472
v 1.164872 0.000836 0.502383
v 1.167889 0.001913 0.502277
v 1.165888 -0.001948 0.501964
v 1.168106 -0.000843 0.500172
v 1.155891 0.000878 0.484266
v 1.152966 -0.001449 0.486008
v 1.153259 0.001920 0.485549
v 1.152309 -0.000022 0.486300
v 1.154961 -0.001961 0.485078
v 1.153937 -0.001966 0.475357
v 1.151678 -0.000672 0.478766
v 1.153341 0.001957 0.475318
v 1.155673 0.000723 0.478878
v 1.155174 -0.001444 0.478183
v 1.153426 0.000058 0.473924
v 1.161195 0.001944 0.478259
v 1.160957 0.001454 0.480425
v 1.159939 -0.000520 0.480819
v 1.161373 -0.001977 0.478150
v 1.161715 0.000774 0.476579
v 1.163727 -0.000847 0.479773
v 1.166265 0.001371 0.475589
v 1.166558 -0.000674 0.475946
v 1.163934 -0.001914 0.475098
v 1.163951 -0.000715 0.472473
v 1.164942 0.001980 0.473503
v 1.168710 0.001993 0.472975
v 1.168216 -0.000908 0.471949
v 1.170086 0.000587 0.475455
v 1.169863 -0.001845 0.474419
v 1.172437 -0.001987 0.471180
v 1.169606 -0.000818 0.470288
v 1.170965 0.001919 0.470461
v 1.173866 0.001065 0.471113
v 1.173142 -0.000990 0.468740
v 1.166659 0.002024 0.464860
v 1.168579 0.001374 0.465267
v 1.169296 -0.000034 0.465403
v 1.164688 -0.000037 0.466522
v 1.165313 0.001476 0.466248
v 1.167622 -0.001945 0.465063
v 1.165262 -0.001536 0.466087
v 1.167909 0.000796 0.461786
v 1.169079 -0.001411 0.461843
v 1.174865 0.000779 0.460383
v 1.176219 0.000757 0.464110
v 1.177574 -0.001903 0.462181
v 1.176468 -0.001426 0.460115
v 1.177119 0.000844 0.459069
v 1.178508 0.000779 0.462751
v 1.184395 0.000018 0.458777
v 1.184635 -0.001948 0.460104
v 1.182914 0.001988 0.459736
v 1.184375 -0.001428 0.462368
v 1.183670 0.000835 0.462770
v 1.199036 0.000875 0.467792
v 1.197876 0.000749 0.471761
v 1.211327 -0.001969 0.480103
v 1.210408 0.000712 0.481044
v 1.212185 -0.000887 0.477385
v 1.211315 0.001933 0.478309
v 1.225346 0.002207 0.480498
v 1.226834 -0.002051 0.482085
v 1.226062 -0.000892 0.478989
v 1.226094 0.001800 0.483207
vn 0.2852 0.3637 -0.8868
vn 0.4345 -0.7857 -0.4403
vn -0.0552 -0.9969 0.0560
vn -0.2214 0.7357 0.6400
vn 0.3620 0.8564 -0.3679
vn -0.4976 -0.2582 0.8281
vn -0.0657 0.9845 0.1623
vn 0.0747 -0.9734 0.2165
vn 0.7786 0.3202 -0.5396
vn -0.8222 -0.3048 0.4807
vn -0.6143 0.6272 0.4787
vn -0.5868 -0.7957 0.1499
vn 0.4272 0.9041 -0.0079
vn 0.4549 -0.8434 -0.2858
vn 0.9229 0.1676 -0.3465
vn -0.8309 0.4956 0.2531
vn 0.2768 -0.9565 -0.0924
vn -0.5217 0.8477 0.0963
vn 0.8798 0.4404 -0.1787
vn -0.9016 -0.3905 0.1856
vn -0.3212 -0.8565 0.4040
vn 0.7812 0.3500 -0.5169
vn 0.4578 -0.5479 -0.7001
vn -0.6495 0.3375 0.6814
vn 0.1027 0.9909 -0.0868
vn -0.5970 0.4488 0.6649
vn 0.2074 0.9345 -0.2892
vn 0.3130 -0.9364 -0.1585
vn 0.5053 -0.2515 -0.8254
vn 0.8433 0.1570 -0.5139
vn -0.4537 -0.7029 0.5477
vn -0.7841 0.3415 0.5181
vn 0.4200 -0.7942 -0.4392
vn -0.3124 -0.8342 0.4544
vn 0.4390 0.5059 -0.7425
vn -0.1670 0.9006 0.4012
vn -0.4851 0.0312 0.8739
vn 0.0633 0.9975 -0.0317
vn -0.4750 -0.4358 0.7644
vn 0.3052 -0.8385 -0.4513
vn 0.4649 0.3281 -0.8223
vn 0.9358 0.3278 -0.1299
vn -0.9921 -0.0445 -0.1174
vn -0.8346 -0.5453 0.0780
vn 0.5293 -0.8454 -0.0719
vn 0.5177 0.6856 0.5118
vn -0.1422 0.9777 -0.1542
vn -0.0969 -0.9936 -0.0581
vn 0.6739 -0.3296 0.6612
vn -0.7228 0.0319 -0.6903
vn 0.0800 0.8816 0.4651
vn 0.1868 -0.3958 0.8991
vn -0.0619 -0.9374 -0.3425
vn -0.1446 0.4233 -0.8943
vn 0.3927 0.0049 0.9196
vn -0.3208 0.3988 -0.8590
vn 0.0350 0.9906 0.1319
vn 0.0764 -0.9658 0.2475
vn 0.1848 -0.9514 0.2462
vn -0.2892 -0.6584 -0.6949
vn -0.2788 -0.0086 -0.9603
vn 0.2203 0.8542 0.4710
vn -0.1151 0.8573 -0.5017
vn -0.1269 -0.8323 -0.5395
vn 0.6810 0.0923 0.7264
vn 0.6113 -0.2851 0.7382
vn -0.0344 0.0895 0.9954
vn -0.0461 -0.6818 0.7300
vn 0.0550 -0.8890 -0.4545
vn 0.0199 0.9965 -0.0810
vn 0.1181 0.3223 -0.9392
vn -0.1002 -0.7068 0.7002
vn -0.0789 0.6845 0.7247
vn -0.1375 0.3050 0.9424
vn 0.1032 -0.1494 -0.9834
vn 0.2178 0.6126 0.7598
vn 0.1407 -0.7472 0.6495
vn 0.5141 -0.2265 0.8273
vn 0.0378 -0.9556 -0.2921
vn -0.3145 -0.2914 -0.9034
vn -0.1472 0.6869 -0.7116
vn 0.0442 0.9972 0.0596
vn -0.8510 0.3754 -0.3672
vn -0.5254 -0.8449 -0.1003
vn -0.1037 -0.9766 -0.1881
vn 0.4920 0.8631 0.1135
vn 0.4367 -0.8513 0.2908
vn 0.8390 0.0529 0.5414
vn 0.0191 0.9803 -0.1964
vn -0.0856 0.8338 0.5454
vn -0.1175 -0.8850 0.4505
vn -0.3339 -0.0211 0.9424
vn 0.8050 -0.3763 -0.4587
vn -0.5965 0.7323 0.3286
vn -0.8109 -0.3789 0.4458
vn 0.4148 0.8726 -0.2577
vn -0.8634 -0.0044 0.5045
vn -0.5507 -0.6851 0.4769
vn 0.3666 0.8838 -0.2905
vn -0.6473 0.5384 0.5395
vn 0.0816 -0.9894 -0.1197
vn 0.7603 -0.3310 -0.5589
vn 0.8764 0.0507 -0.4789
vn 0.0902 -0.9918 -0.0902
vn -0.3128 0.9254 0.2141
vn 0.5324 -0.7770 -0.3358
vn 0.5902 0.4454 -0.6732
vn -0.5301 -0.8185 0.2213
vn -0.7375 -0.0692 0.6718
vn 0.8787 0.4294 -0.2087
vn -0.1758 0.9799 0.0938
vn 0.8769 0.3735 -0.3026
vn -0.9420 -0.0472 0.3323
vn -0.2445 -0.9623 0.1190
vn 0.6755 -0.6934 -0.2506
vn -0.5023 -0.7225 0.4751
vn -0.6205 0.4649 0.6315
vn 0.2721 0.9276 -0.2558
vn 0.7120 -0.0136 -0.7020
vn 0.2947 -0.8965 -0.3308
vn 0.7773 0.4446 -0.4450
vn -0.2996 0.9255 0.2315
vn -0.4518 -0.8757 0.1704
vn -0.8166 0.0006 0.5771
vn 0.8146 -0.3586 -0.4559
vn 0.5385 -0.7251 -0.4292
vn 0.4105 0.8864 -0.2138
vn -0.8007 0.4201 0.4271
vn -0.2751 -0.9480 0.1602
vn -0.6127 -0.7492 0.2515
vn 0.8347 0.4729 -0.2822
vn -0.4319 0.8940 0.1190
vn -0.9259 0.0373 0.3758
vn 0.3149 -0.9393 -0.1363
vn -0.3975 0.8043 -0.4416
vn -0.2336 -0.8407 -0.4885
vn -0.9681 -0.2395 -0.0729
vn 0.3576 0.7330 0.5787
vn 0.3316 -0.9069 0.2600
vn -0.3670 -0.0074 -0.9302
vn 0.0211 -0.9973 -0.0705
vn -0.1037 -0.3469 0.9321
vn 0.1194 0.6543 0.7467
vn 0.0614 0.9969 -0.0479
vn -0.4959 0.2276 -0.8380
vn 0.5690 -0.3474 0.7454
vn -0.2704 -0.9544 -0.1260
vn -0.2464 0.8535 -0.4591
vn 0.3060 0.7753 0.5525
vn 0.3837 -0.4003 0.8322
vn -0.5188 -0.2879 -0.8050
vn -0.0474 0.9750 -0.2169
vn 0.3025 -0.8486 0.4339
vn -0.4289 -0.5220 -0.7372
vn 0.4932 0.3050 0.8146
vn -0.0571 0.9980 0.0251
vn 0.4698 -0.8577 0.2086
vn -0.8000 -0.5792 0.1561
vn 0.8923 0.4235 0.1564
vn -0.3428 0.9082 -0.2398
vn -0.0358 -0.9989 -0.0310
vn 0.8167 -0.3315 -0.4723
vn 0.4075 0.8962 0.1755
vn -0.9793 0.0016 0.2024
vn -0.7125 -0.7016 0.0073
vn -0.7515 0.6511 0.1058
vn -0.4921 0.3513 -0.7964
vn -0.3094 -0.6624 -0.6823
vn -0.2758 0.4610 -0.8434
vn -0.1830 -0.7105 -0.6794
vn 0.0651 0.9158 -0.3963
vn 0.9456 -0.1709 0.2767
vn 0.3219 0.2659 0.9086
vn 0.0973 -0.8951 0.4351
vn -0.2763 0.4016 -0.8731
vn 0.3428 0.0938 0.9347
vn 0.1667 -0.8719 -0.4604
vn 0.2695 0.0077 -0.9630
vn -0.1963 -0.7591 0.6207
vn -0.2506 0.4888 0.8356
vn -0.5049 0.4017 0.7640
vn 0.5217 0.3095 -0.7950
vn 0.3359 -0.4449 -0.8302
vn 0.1128 0.9636 -0.2422
vn -0.1533 -0.8805 0.4486
vn -0.3714 0.3213 0.8711
vn 0.1804 0.8900 -0.4187
vn 0.3595 -0.3321 -0.8720
vn 0.5875 0.0119 -0.8091
vn -0.9221 0.3268 0.2071
usemtl SVGMat.3781
s 1
f 1//1 6//2 188//3
f 190//4 4//5 1//1
f 2//6 8//7 190//4
f 188//3 5//8 2//6
f 7//9 5//8 6//2
f 5//8 10//10 9//11
f 5//8 11//12 10//10
f 9//11 15//13 8//7
f 7//9 12//14 5//8
f 15//13 13//15 7//9
f 10//10 14//16 9//11
f 11//12 14//16 10//10
f 13//15 17//17 12//14
f 14//16 16//18 15//13
f 15//13 18//19 13//15
f 16//18 18//19 15//13
f 17//17 19//20 11//12
f 17//17 20//21 19//20
f 16//18 21//22 18//19
f 21//22 23//23 17//17
f 22//24 24//25 16//18
f 20//21 25//26 22//24
f 25//26 29//27 24//25
f 23//23 27//28 20//21
f 24//25 28//29 23//23
f 29//27 30//30 28//29
f 26//31 31//32 25//26
f 30//30 32//33 27//28
f 27//28 33//34 26//31
f 32//33 33//34 27//28
f 29//27 34//35 30//30
f 31//32 35//36 29//27
f 33//34 36//37 31//32
f 36//37 35//36 31//32
f 36//37 37//38 35//36
f 33//34 38//39 36//37
f 32//33 39//40 33//34
f 37//38 40//41 34//35
f 39//40 38//39 33//34
f 34//35 39//40 32//33
f 37//38 41//42 40//41
f 38//39 42//43 37//38
f 39//40 43//44 38//39
f 41//42 44//45 39//40
f 37//38 45//46 41//42
f 42//43 47//47 37//38
f 44//45 49//48 43//44
f 48//49 49//48 44//45
f 46//50 47//47 42//43
f 47//47 50//51 45//46
f 52//52 51//53 49//48
f 50//51 52//52 48//49
f 51//53 53//54 46//50
f 50//51 54//55 52//52
f 51//53 58//56 53//54
f 53//54 55//57 50//51
f 52//52 57//58 51//53
f 54//55 57//58 52//52
f 54//55 60//59 57//58
f 56//60 59//61 58//56
f 58//56 65//62 55//57
f 59//61 62//63 58//56
f 60//59 63//64 56//60
f 61//65 64//66 60//59
f 65//62 66//67 64//66
f 68//68 71//69 60//59
f 62//63 69//70 65//62
f 59//61 70//71 62//63
f 66//67 73//72 68//68
f 67//73 72//74 66//67
f 69//70 72//74 67//73
f 71//69 70//71 59//61
f 71//69 75//75 70//71
f 69//70 77//76 72//74
f 72//74 79//77 73//72
f 77//76 78//78 72//74
f 73//72 76//79 71//69
f 76//79 80//80 75//75
f 74//81 82//82 69//70
f 80//80 81//83 74//81
f 79//77 83//84 76//79
f 83//84 84//85 81//83
f 81//83 87//86 82//82
f 78//78 85//87 83//84
f 82//82 86//88 78//78
f 84//85 88//89 81//83
f 85//87 84//85 83//84
f 88//89 89//90 87//86
f 86//88 90//91 85//87
f 89//90 91//92 86//88
f 90//91 94//93 84//85
f 92//94 95//95 91//92
f 88//89 93//96 89//90
f 94//93 93//96 88//89
f 92//94 96//97 95//95
f 96//97 100//98 95//95
f 97//99 101//100 92//94
f 99//101 102//102 98//103
f 100//98 103//104 99//101
f 97//99 105//105 101//100
f 103//104 107//106 102//102
f 106//107 105//105 97//99
f 100//98 108//108 103//104
f 104//109 108//108 100//98
f 107//106 109//110 106//107
f 109//110 113//111 105//105
f 107//106 114//112 109//110
f 112//113 111//114 108//108
f 111//114 115//115 107//106
f 112//113 120//116 111//114
f 113//111 116//117 112//113
f 114//112 117//118 113//111
f 115//115 118//119 114//112
f 111//114 119//120 115//115
f 118//119 121//121 117//118
f 119//120 121//121 118//119
f 117//118 124//122 116//117
f 121//121 124//122 117//118
f 120//116 125//123 119//120
f 123//124 125//123 120//116
f 125//123 129//125 122//126
f 121//121 127//127 124//122
f 126//128 128//129 125//123
f 126//128 131//130 128//129
f 129//125 130//131 127//127
f 127//127 132//132 126//128
f 132//132 133//133 126//128
f 130//131 132//132 127//127
f 131//130 134//134 128//129
f 130//131 137//135 132//132
f 131//130 135//136 134//134
f 133//133 136//137 131//130
f 132//132 136//137 133//133
f 134//134 138//138 130//131
f 135//136 139//139 134//134
f 137//135 140//140 136//137
f 140//140 144//141 135//136
f 139//139 143//142 138//138
f 142//143 141//144 137//135
f 141//144 145//145 140//140
f 144//141 143//142 139//139
f 144//141 146//146 143//142
f 145//145 149//147 144//141
f 142//143 151//148 141//144
f 146//146 147//149 142//143
f 144//141 148//150 146//146
f 145//145 150//151 149//147
f 147//149 152//152 151//148
f 150//151 155//153 149//147
f 152//152 153//154 150//151
f 148//150 154//155 147//149
f 154//155 158//156 152//152
f 153//154 156//157 155//153
f 152//152 157//158 153//154
f 156//157 159//159 154//155
f 159//159 161//160 158//156
f 157//158 166//161 156//157
f 160//162 162//163 159//159
f 158//156 164//164 157//158
f 164//164 167//165 157//158
f 161//160 165//166 158//156
f 165//166 168//167 164//164
f 161//160 168//167 165//166
f 168//167 169//168 167//165
f 161//160 170//169 168//167
f 170//169 173//170 169//168
f 162//163 178//171 161//160
f 163//172 171//173 162//163
f 166//161 171//173 163//172
f 169//168 172//174 166//161
f 178//171 174//175 170//169
f 172//174 175//176 171//173
f 173//170 177//177 172//174
f 176//178 177//177 173//170
f 177//177 179//179 172//174
f 179//179 180//180 175//176
f 179//179 182//181 180//180
f 181//182 185//183 177//177
f 182//181 186//184 178//171
f 183//185 184//186 182//181
f 184//186 187//187 186//184
f 185//183 188//3 183//185
f 183//185 190//4 184//186
f 187//187 189//188 185//183
f 190//4 187//187 184//186
f 188//3 2//6 190//4
f 187//187 1//1 189//188
f 190//4 1//1 187//187
f 1//1 3//189 6//2
f 1//1 4//5 3//189
f 190//4 8//7 4//5
f 2//6 9//11 8//7
f 2//6 5//8 9//11
f 188//3 6//2 5//8
f 4//5 7//9 3//189
f 3//189 7//9 6//2
f 4//5 8//7 7//9
f 8//7 15//13 7//9
f 5//8 12//14 11//12
f 7//9 13//15 12//14
f 9//11 14//16 15//13
f 12//14 17//17 11//12
f 13//15 18//19 17//17
f 11//12 19//20 14//16
f 14//16 19//20 16//18
f 19//20 22//24 16//18
f 19//20 20//21 22//24
f 18//19 21//22 17//17
f 16//18 24//25 21//22
f 17//17 23//23 20//21
f 21//22 24//25 23//23
f 22//24 25//26 24//25
f 20//21 26//31 25//26
f 20//21 27//28 26//31
f 24//25 29//27 28//29
f 23//23 28//29 27//28
f 28//29 30//30 27//28
f 25//26 31//32 29//27
f 26//31 33//34 31//32
f 30//30 34//35 32//33
f 29//27 35//36 34//35
f 35//36 37//38 34//35
f 36//37 38//39 37//38
f 34//35 40//41 39//40
f 40//41 41//42 39//40
f 38//39 43//44 42//43
f 39//40 44//45 43//44
f 41//42 48//49 44//45
f 41//42 45//46 48//49
f 43//44 46//50 42//43
f 37//38 47//47 45//46
f 43//44 49//48 46//50
f 45//46 50//51 48//49
f 49//48 51//53 46//50
f 48//49 52//52 49//48
f 46//50 53//54 47//47
f 47//47 53//54 50//51
f 50//51 55//57 54//55
f 51//53 56//60 58//56
f 51//53 57//58 56//60
f 53//54 58//56 55//57
f 55//57 61//65 54//55
f 55//57 65//62 61//65
f 57//58 60//59 56//60
f 54//55 61//65 60//59
f 58//56 62//63 65//62
f 56//60 63//64 59//61
f 61//65 65//62 64//66
f 64//66 66//67 68//68
f 65//62 67//73 66//67
f 64//66 68//68 60//59
f 60//59 71//69 63//64
f 65//62 69//70 67//73
f 62//63 70//71 69//70
f 63//64 71//69 59//61
f 66//67 72//74 73//72
f 68//68 73//72 71//69
f 70//71 74//81 69//70
f 70//71 75//75 74//81
f 71//69 76//79 75//75
f 72//74 78//78 79//77
f 73//72 79//77 76//79
f 75//75 80//80 74//81
f 69//70 82//82 77//76
f 74//81 81//83 82//82
f 76//79 83//84 80//80
f 77//76 82//82 78//78
f 80//80 83//84 81//83
f 79//77 78//78 83//84
f 78//78 86//88 85//87
f 82//82 87//86 86//88
f 81//83 88//89 87//86
f 87//86 89//90 86//88
f 85//87 90//91 84//85
f 86//88 91//92 90//91
f 89//90 92//94 91//92
f 91//92 95//95 90//91
f 89//90 93//96 92//94
f 84//85 94//93 88//89
f 90//91 99//101 94//93
f 90//91 95//95 99//101
f 94//93 98//103 93//96
f 93//96 97//99 92//94
f 93//96 98//103 97//99
f 94//93 99//101 98//103
f 95//95 100//98 99//101
f 92//94 101//100 96//97
f 96//97 101//100 100//98
f 98//103 102//102 97//99
f 99//101 103//104 102//102
f 102//102 106//107 97//99
f 101//100 104//109 100//98
f 101//100 105//105 104//109
f 102//102 107//106 106//107
f 103//104 108//108 107//106
f 106//107 109//110 105//105
f 105//105 110//190 104//109
f 104//109 110//190 108//108
f 105//105 113//111 110//190
f 108//108 111//114 107//106
f 110//190 112//113 108//108
f 110//190 113//111 112//113
f 109//110 114//112 113//111
f 107//106 115//115 114//112
f 112//113 116//117 120//116
f 113//111 117//118 116//117
f 114//112 118//119 117//118
f 115//115 119//120 118//119
f 111//114 120//116 119//120
f 119//120 122//126 121//121
f 116//117 123//124 120//116
f 116//117 124//122 123//124
f 119//120 125//123 122//126
f 124//122 126//128 123//124
f 122//126 129//125 121//121
f 123//124 126//128 125//123
f 124//122 127//127 126//128
f 125//123 128//129 129//125
f 121//121 129//125 127//127
f 126//128 133//133 131//130
f 128//129 134//134 129//125
f 129//125 134//134 130//131
f 132//132 137//135 136//137
f 130//131 138//138 137//135
f 134//134 139//139 138//138
f 131//130 136//137 135//136
f 136//137 140//140 135//136
f 137//135 141//144 140//140
f 138//138 142//143 137//135
f 138//138 143//142 142//143
f 135//136 144//141 139//139
f 140//140 145//145 144//141
f 143//142 146//146 142//143
f 141//144 151//148 145//145
f 142//143 147//149 151//148
f 146//146 148//150 147//149
f 144//141 149//147 148//150
f 145//145 151//148 150//151
f 151//148 152//152 150//151
f 149//147 155//153 148//150
f 147//149 154//155 152//152
f 148//150 155//153 154//155
f 150//151 153//154 155//153
f 155//153 156//157 154//155
f 153//154 157//158 156//157
f 152//152 158//156 157//158
f 154//155 159//159 158//156
f 156//157 160//162 159//159
f 156//157 166//161 160//162
f 159//159 162//163 161//160
f 160//162 163//172 162//163
f 158//156 165//166 164//164
f 160//162 166//161 163//172
f 157//158 167//165 166//161
f 164//164 168//167 167//165
f 167//165 169//168 166//161
f 168//167 170//169 169//168
f 161//160 178//171 170//169
f 162//163 171//173 178//171
f 166//161 172//174 171//173
f 169//168 173//170 172//174
f 170//169 174//175 173//170
f 171//173 175//176 178//171
f 174//175 176//178 173//170
f 174//175 178//171 176//178
f 172//174 179//179 175//176
f 175//176 180//180 178//171
f 178//171 181//182 176//178
f 176//178 181//182 177//177
f 180//180 182//181 178//171
f 177//177 183//185 179//179
f 177//177 185//183 183//185
f 179//179 183//185 182//181
f 178//171 186//184 181//182
f 182//181 184//186 186//184
f 181//182 186//184 185//183
f 186//184 187//187 185//183
f 183//185 188//3 190//4
f 185//183 189//188 188//3
f 189//188 1//1 188//3
