# Blender v2.79 (sub 0) OBJ File: 'world_countrycodes_export2.blend'
# www.blender.org
mtllib SB.mtl
o SB.002_CUCurve.1737
v 1.872439 0.000000 0.713553
v 1.874651 0.000000 0.715065
v 1.876127 0.000000 0.715324
v 1.876968 0.000000 0.714885
v 1.876724 0.000000 0.714059
v 1.873309 0.000000 0.712409
v 1.871748 0.000000 0.712217
v 1.871603 0.000000 0.712556
v 1.832557 0.000000 0.684645
v 1.834977 0.000000 0.689159
v 1.837446 0.000000 0.691863
v 1.839276 0.000000 0.692822
v 1.840547 0.000000 0.691652
v 1.840116 0.000000 0.689839
v 1.837390 0.000000 0.686703
v 1.833170 0.000000 0.684139
v 1.843339 0.000000 0.691462
v 1.845242 0.000000 0.693686
v 1.847599 0.000000 0.695401
v 1.848359 0.000000 0.695130
v 1.846639 0.000000 0.693085
v 1.843806 0.000000 0.691233
v 1.862106 0.000000 0.701651
v 1.862426 0.000000 0.701116
v 1.861417 0.000000 0.700031
v 1.858231 0.000000 0.698033
v 1.854745 0.000000 0.696854
v 1.854321 0.000000 0.697343
v 1.854946 0.000000 0.698373
v 1.857182 0.000000 0.700058
v 1.860107 0.000000 0.701355
v 1.861191 0.000000 0.706604
v 1.862191 0.000000 0.708662
v 1.864095 0.000000 0.709915
v 1.865879 0.000000 0.710268
v 1.867314 0.000000 0.709846
v 1.866551 0.000000 0.708639
v 1.863930 0.000000 0.706782
v 1.861739 0.000000 0.706141
v 1.866951 0.000000 0.702639
v 1.867812 0.000000 0.704836
v 1.869546 0.000000 0.707178
v 1.871745 0.000000 0.708994
v 1.871687 0.000000 0.708076
v 1.870341 0.000000 0.704714
v 1.868595 0.000000 0.701759
v 1.867609 0.000000 0.700926
v 1.867193 0.000000 0.701247
v 1.862191 0.050000 0.708662
v 1.866551 0.050000 0.708639
v 1.865879 0.050000 0.710268
v 1.867314 0.050000 0.709846
v 1.869546 0.050000 0.707178
v 1.870341 0.050000 0.704714
v 1.843339 0.050000 0.691462
v 1.845242 0.050000 0.693686
v 1.846639 0.050000 0.693085
v 1.843806 0.050000 0.691233
v 1.871745 0.050000 0.708994
v 1.861417 0.050000 0.700031
v 1.857182 0.050000 0.700058
v 1.871748 0.050000 0.712217
v 1.871603 0.050000 0.712556
v 1.873309 0.050000 0.712409
v 1.864095 0.050000 0.709915
v 1.834977 0.050000 0.689159
v 1.840547 0.050000 0.691652
v 1.872439 0.050000 0.713553
v 1.840116 0.050000 0.689839
v 1.837390 0.050000 0.686703
v 1.861191 0.050000 0.706604
v 1.867812 0.050000 0.704836
v 1.863930 0.050000 0.706782
v 1.848359 0.050000 0.695130
v 1.839276 0.050000 0.692822
v 1.837446 0.050000 0.691863
v 1.862426 0.050000 0.701116
v 1.860107 0.050000 0.701355
v 1.876127 0.050000 0.715324
v 1.876968 0.050000 0.714885
v 1.847599 0.050000 0.695401
v 1.833170 0.050000 0.684139
v 1.868595 0.050000 0.701759
v 1.867609 0.050000 0.700926
v 1.874651 0.050000 0.715065
v 1.867193 0.050000 0.701247
v 1.854745 0.050000 0.696854
v 1.854321 0.050000 0.697343
v 1.876724 0.050000 0.714059
v 1.858231 0.050000 0.698033
v 1.854946 0.050000 0.698373
v 1.871687 0.050000 0.708076
v 1.866951 0.050000 0.702639
v 1.862106 0.050000 0.701651
v 1.832557 0.050000 0.684645
v 1.861739 0.050000 0.706141
vn 0.0000 -1.0000 0.0000
vn 0.0000 1.0000 -0.0000
vn -0.9852 0.0000 -0.1711
vn 0.3204 0.0000 -0.9473
vn -0.1941 0.0000 0.9810
vn 0.3357 0.0000 0.9420
vn 0.8586 0.0000 0.5126
vn 0.4627 0.0000 0.8865
vn 0.8454 0.0000 -0.5342
vn -0.7662 0.0000 0.6426
vn 0.9980 0.0000 -0.0632
vn -0.5883 0.0000 0.8086
vn 0.9729 0.0000 -0.2312
vn 0.9591 0.0000 -0.2830
vn 0.5193 0.0000 -0.8546
vn 0.5314 0.0000 -0.8471
vn 0.7547 0.0000 -0.6561
vn -0.1464 0.0000 0.9892
vn 0.2808 0.0000 -0.9598
vn -0.5497 0.0000 0.8353
vn -0.7384 0.0000 0.6744
vn -0.8993 0.0000 0.4373
vn 0.9283 0.0000 -0.3718
vn -0.9310 0.0000 0.3651
vn -0.4055 0.0000 0.9141
vn 0.8610 0.0000 -0.5086
vn 0.2819 0.0000 0.9594
vn 0.6452 0.0000 -0.7640
vn -0.8038 0.0000 0.5950
vn 0.1219 0.0000 -0.9925
vn -0.7598 0.0000 0.6502
vn 0.7321 0.0000 -0.6811
vn -0.6371 0.0000 -0.7708
vn 0.7652 0.0000 -0.6438
vn -0.8813 0.0000 0.4725
vn 0.5471 0.0000 -0.8371
vn -0.6106 0.0000 -0.7920
vn -0.4393 0.0000 -0.8983
vn -0.6017 0.0000 0.7988
vn -0.6367 0.0000 0.7711
vn -0.7563 0.0000 -0.6543
vn -0.1728 0.0000 0.9850
vn 0.6771 0.0000 0.7359
vn 0.4350 0.0000 -0.9004
vn -0.5644 0.0000 0.8255
vn -0.6447 0.0000 -0.7644
vn -0.4642 0.0000 0.8857
vn 0.5779 0.0000 -0.8161
vn -0.8548 0.0000 0.5189
vn -0.9196 0.0000 -0.3928
usemtl SVGMat.3781
s off
f 9//1 16//1 15//1
f 10//1 9//1 15//1
f 10//1 15//1 14//1
f 10//1 14//1 13//1
f 11//1 10//1 13//1
f 11//1 13//1 12//1
f 17//1 22//1 21//1
f 18//1 17//1 21//1
f 18//1 21//1 20//1
f 19//1 18//1 20//1
f 28//1 27//1 26//1
f 29//1 28//1 26//1
f 30//1 29//1 26//1
f 30//1 26//1 25//1
f 30//1 25//1 24//1
f 31//1 30//1 24//1
f 31//1 24//1 23//1
f 48//1 47//1 46//1
f 40//1 48//1 46//1
f 40//1 46//1 45//1
f 41//1 40//1 45//1
f 42//1 41//1 45//1
f 32//1 39//1 38//1
f 42//1 45//1 44//1
f 33//1 32//1 38//1
f 33//1 38//1 37//1
f 43//1 42//1 44//1
f 33//1 37//1 36//1
f 34//1 33//1 36//1
f 34//1 36//1 35//1
f 8//1 7//1 6//1
f 1//1 8//1 6//1
f 1//1 6//1 5//1
f 2//1 1//1 5//1
f 2//1 5//1 4//1
f 2//1 4//1 3//1
f 95//2 70//2 82//2
f 66//2 70//2 95//2
f 66//2 69//2 70//2
f 66//2 67//2 69//2
f 76//2 67//2 66//2
f 76//2 75//2 67//2
f 55//2 57//2 58//2
f 56//2 57//2 55//2
f 56//2 74//2 57//2
f 81//2 74//2 56//2
f 88//2 90//2 87//2
f 91//2 90//2 88//2
f 61//2 90//2 91//2
f 61//2 60//2 90//2
f 61//2 77//2 60//2
f 78//2 77//2 61//2
f 78//2 94//2 77//2
f 86//2 83//2 84//2
f 93//2 83//2 86//2
f 93//2 54//2 83//2
f 72//2 54//2 93//2
f 53//2 54//2 72//2
f 71//2 73//2 96//2
f 53//2 92//2 54//2
f 49//2 73//2 71//2
f 49//2 50//2 73//2
f 59//2 92//2 53//2
f 49//2 52//2 50//2
f 65//2 52//2 49//2
f 65//2 51//2 52//2
f 63//2 64//2 62//2
f 68//2 64//2 63//2
f 68//2 89//2 64//2
f 85//2 89//2 68//2
f 85//2 80//2 89//2
f 85//2 79//2 80//2
f 48//3 40//3 93//3 86//3
f 26//4 27//4 87//4 90//4
f 34//5 35//5 51//5 65//5
f 19//6 20//6 74//6 81//6
f 23//7 24//7 77//7 94//7
f 3//8 4//8 80//8 79//8
f 36//9 37//9 50//9 52//9
f 8//10 1//10 68//10 63//10
f 43//11 44//11 92//11 59//11
f 18//12 19//12 81//12 56//12
f 13//13 14//13 69//13 67//13
f 4//14 5//14 89//14 80//14
f 15//15 16//15 82//15 70//15
f 25//16 26//16 90//16 60//16
f 14//17 15//17 70//17 69//17
f 31//18 23//18 94//18 78//18
f 38//19 39//19 96//19 73//19
f 33//20 34//20 65//20 49//20
f 10//21 11//21 76//21 66//21
f 32//22 33//22 49//22 71//22
f 44//23 45//23 54//23 92//23
f 40//24 41//24 72//24 93//24
f 30//25 31//25 78//25 61//25
f 45//26 46//26 83//26 54//26
f 35//27 36//27 52//27 51//27
f 46//28 47//28 84//28 83//28
f 41//29 42//29 53//29 72//29
f 6//30 7//30 62//30 64//30
f 17//31 18//31 56//31 55//31
f 24//32 25//32 60//32 77//32
f 16//33 9//33 95//33 82//33
f 20//34 21//34 57//34 74//34
f 9//35 10//35 66//35 95//35
f 21//36 22//36 58//36 57//36
f 47//37 48//37 86//37 84//37
f 22//38 17//38 55//38 58//38
f 29//39 30//39 61//39 91//39
f 42//40 43//40 59//40 53//40
f 27//41 28//41 88//41 87//41
f 2//42 3//42 79//42 85//42
f 12//43 13//43 67//43 75//43
f 5//44 6//44 64//44 89//44
f 1//45 2//45 85//45 68//45
f 39//46 32//46 71//46 96//46
f 11//47 12//47 75//47 76//47
f 37//48 38//48 73//48 50//48
f 28//49 29//49 91//49 88//49
f 7//50 8//50 63//50 62//50
