# Blender v2.79 (sub 0) OBJ File: 'world_countrycodes_export2.blend'
# www.blender.org
mtllib SI.mtl
o SI.002_CUCurve.1759
v 1.033491 0.000000 0.370431
v 1.034211 0.000000 0.370132
v 1.035892 0.000000 0.369821
v 1.037296 0.000000 0.370014
v 1.037770 0.000000 0.370523
v 1.038142 0.000000 0.371643
v 1.040292 0.000000 0.371314
v 1.042604 0.000000 0.370774
v 1.044670 0.000000 0.371176
v 1.045415 0.000000 0.371158
v 1.045621 0.000000 0.370872
v 1.046327 0.000000 0.369279
v 1.047187 0.000000 0.368462
v 1.047828 0.000000 0.368331
v 1.048129 0.000000 0.368014
v 1.048505 0.000000 0.366056
v 1.048842 0.000000 0.365627
v 1.049542 0.000000 0.365374
v 1.051106 0.000000 0.364343
v 1.052542 0.000000 0.363151
v 1.051963 0.000000 0.362057
v 1.051255 0.000000 0.361064
v 1.050977 0.000000 0.361044
v 1.049652 0.000000 0.361752
v 1.048270 0.000000 0.362198
v 1.046546 0.000000 0.362323
v 1.045095 0.000000 0.362765
v 1.042867 0.000000 0.363959
v 1.042047 0.000000 0.364058
v 1.037324 0.000000 0.363038
v 1.033792 0.000000 0.362727
v 1.033437 0.000000 0.367215
v 1.037296 0.050000 0.370014
v 1.046327 0.050000 0.369279
v 1.048842 0.050000 0.365627
v 1.049542 0.050000 0.365374
v 1.047187 0.050000 0.368462
v 1.047828 0.050000 0.368331
v 1.051963 0.050000 0.362057
v 1.045095 0.050000 0.362765
v 1.044670 0.050000 0.371176
v 1.045415 0.050000 0.371158
v 1.051106 0.050000 0.364343
v 1.042867 0.050000 0.363959
v 1.033437 0.050000 0.367215
v 1.037324 0.050000 0.363038
v 1.033792 0.050000 0.362727
v 1.035892 0.050000 0.369821
v 1.037770 0.050000 0.370523
v 1.045621 0.050000 0.370872
v 1.034211 0.050000 0.370132
v 1.048505 0.050000 0.366056
v 1.038142 0.050000 0.371643
v 1.042047 0.050000 0.364058
v 1.046546 0.050000 0.362323
v 1.033491 0.050000 0.370431
v 1.042604 0.050000 0.370774
v 1.052542 0.050000 0.363151
v 1.048129 0.050000 0.368014
v 1.048270 0.050000 0.362198
v 1.050977 0.050000 0.361044
v 1.049652 0.050000 0.361752
v 1.040292 0.050000 0.371314
v 1.051255 0.050000 0.361064
vn 0.0000 -1.0000 0.0000
vn 0.0000 1.0000 -0.0000
vn 0.0000 1.0000 -0.0001
vn 0.0000 1.0000 0.0001
vn 0.0877 0.0000 -0.9961
vn 0.5500 0.0000 0.8351
vn 0.8838 0.0000 -0.4679
vn 0.9141 0.0000 0.4054
vn 0.7258 0.0000 0.6879
vn -0.1365 0.0000 0.9906
vn 0.1821 0.0000 0.9833
vn 0.7869 0.0000 0.6170
vn -0.9969 0.0000 -0.0788
vn -0.4722 0.0000 -0.8815
vn 0.6888 0.0000 0.7249
vn 0.1513 0.0000 0.9885
vn -0.9488 0.0000 0.3158
vn 0.6390 0.0000 0.7692
vn 0.8129 0.0000 0.5824
vn 0.3399 0.0000 0.9405
vn -0.7324 0.0000 0.6809
vn 0.2003 0.0000 0.9797
vn -0.2913 0.0000 -0.9566
vn 0.2275 0.0000 0.9738
vn 0.9820 0.0000 0.1887
vn 0.2111 0.0000 -0.9775
vn -0.9999 0.0000 0.0166
vn 0.0243 0.0000 0.9997
vn -0.0724 0.0000 -0.9974
vn 0.8144 0.0000 -0.5804
vn 0.3831 0.0000 0.9237
vn 0.0687 0.0000 -0.9976
vn -0.3073 0.0000 -0.9516
vn -0.1913 0.0000 0.9815
vn -0.1200 0.0000 -0.9928
vn -0.4711 0.0000 -0.8821
usemtl SVGMat.3781
s off
f 24//1 23//1 22//1
f 24//1 22//1 21//1
f 25//1 24//1 21//1
f 26//1 25//1 21//1
f 27//1 26//1 21//1
f 27//1 21//1 20//1
f 27//1 20//1 19//1
f 28//1 27//1 19//1
f 31//1 30//1 29//1
f 32//1 31//1 29//1
f 29//1 28//1 19//1
f 32//1 29//1 19//1
f 32//1 19//1 18//1
f 32//1 18//1 17//1
f 32//1 17//1 16//1
f 32//1 16//1 15//1
f 32//1 15//1 14//1
f 32//1 14//1 13//1
f 32//1 13//1 12//1
f 1//1 32//1 2//1
f 2//1 32//1 3//1
f 3//1 32//1 12//1
f 4//1 3//1 12//1
f 4//1 12//1 11//1
f 5//1 4//1 11//1
f 5//1 11//1 8//1
f 6//1 5//1 8//1
f 8//1 11//1 10//1
f 6//1 8//1 7//1
f 9//1 8//1 10//1
f 62//2 64//2 61//2
f 62//2 39//2 64//2
f 60//2 39//2 62//2
f 55//3 39//3 60//3
f 40//2 39//2 55//2
f 40//2 58//2 39//2
f 40//2 43//2 58//2
f 44//2 43//2 40//2
f 47//2 54//2 46//2
f 45//2 54//2 47//2
f 54//2 43//2 44//2
f 45//2 43//2 54//2
f 45//2 36//2 43//2
f 45//2 35//2 36//2
f 45//2 52//2 35//2
f 45//2 59//2 52//2
f 45//2 38//2 59//2
f 45//2 37//2 38//2
f 45//2 34//2 37//2
f 56//2 51//2 45//2
f 51//2 48//2 45//2
f 48//2 34//2 45//2
f 33//2 34//2 48//2
f 33//2 50//2 34//2
f 49//2 50//2 33//2
f 49//4 57//4 50//4
f 53//2 57//2 49//2
f 57//2 42//2 50//2
f 53//2 63//2 57//2
f 41//2 42//2 57//2
f 30//5 31//5 47//5 46//5
f 18//6 19//6 43//6 36//6
f 20//7 21//7 39//7 58//7
f 11//8 12//8 34//8 50//8
f 14//9 15//9 59//9 38//9
f 3//10 4//10 33//10 48//10
f 2//11 3//11 48//11 51//11
f 16//12 17//12 35//12 52//12
f 31//13 32//13 45//13 47//13
f 27//14 28//14 44//14 40//14
f 12//15 13//15 37//15 34//15
f 6//16 7//16 63//16 53//16
f 5//17 6//17 53//17 49//17
f 19//18 20//18 58//18 43//18
f 10//19 11//19 50//19 42//19
f 17//20 18//20 36//20 35//20
f 4//21 5//21 49//21 33//21
f 13//22 14//22 38//22 37//22
f 26//23 27//23 40//23 55//23
f 7//24 8//24 57//24 63//24
f 15//25 16//25 52//25 59//25
f 29//26 30//26 46//26 54//26
f 32//27 1//27 56//27 45//27
f 9//28 10//28 42//28 41//28
f 25//29 26//29 55//29 60//29
f 21//30 22//30 64//30 39//30
f 1//31 2//31 51//31 56//31
f 22//32 23//32 61//32 64//32
f 24//33 25//33 60//33 62//33
f 8//34 9//34 41//34 57//34
f 28//35 29//35 54//35 44//35
f 23//36 24//36 62//36 61//36
