# Blender v2.79 (sub 0) OBJ File: 'world_countrycodes_outlines2.blend'
# www.blender.org
mtllib SI_outline.mtl
o SI.001_CUCurve.047
v 1.042763 0.001995 0.363173
v 1.042439 -0.001963 0.364893
v 1.042764 0.000770 0.366055
v 1.043165 -0.001232 0.361969
v 1.047001 0.000768 0.360357
v 1.050744 0.001345 0.362754
v 1.046713 0.000087 0.364390
v 1.050736 -0.001372 0.362775
v 1.051631 -0.001938 0.360129
v 1.050282 -0.000050 0.363102
v 1.052061 0.000014 0.358874
v 1.051741 0.001952 0.360209
v 1.053656 0.001929 0.363245
v 1.053715 -0.001858 0.363378
v 1.054920 0.000017 0.363510
v 1.048033 -0.002012 0.367207
v 1.047556 -0.001447 0.364896
v 1.050186 -0.000745 0.367257
v 1.049799 0.001417 0.366796
v 1.047451 0.001964 0.367395
v 1.047287 0.000811 0.364319
v 1.046183 -0.000001 0.366747
v 1.046416 -0.001439 0.367323
v 1.049599 0.000882 0.369425
v 1.048645 -0.001381 0.369433
v 1.047934 0.000830 0.370402
v 1.044334 0.000059 0.368974
v 1.044667 0.001933 0.370201
v 1.044429 -0.001957 0.371505
v 1.044692 -0.001392 0.369513
v 1.046072 0.001447 0.372563
v 1.046628 -0.000702 0.373049
v 1.042907 0.000609 0.372836
v 1.038841 -0.001920 0.370599
v 1.038688 0.001932 0.370691
v 1.036424 0.000340 0.374069
v 1.036111 0.000764 0.371685
v 1.036433 -0.001371 0.371161
v 1.039399 0.000816 0.369154
v 1.035594 -0.001329 0.368102
v 1.035484 0.000008 0.367634
v 1.034145 0.001924 0.369138
v 1.032429 -0.001943 0.371245
v 1.031611 0.000701 0.373358
v 1.031841 0.000739 0.360487
v 1.034299 0.001989 0.363426
v 1.033235 -0.001966 0.361662
v 1.035505 -0.000842 0.364747
vn -0.3401 -0.8252 -0.4510
vn 0.0595 -0.8557 0.5141
vn 0.5783 -0.6081 0.5438
vn -0.0249 0.9609 -0.2758
vn -0.1460 -0.5459 -0.8250
vn -0.6512 0.2561 -0.7143
vn 0.1074 0.3297 0.9380
vn -0.2921 0.2604 -0.9202
vn 0.3276 -0.1712 0.9292
vn -0.0948 0.9943 0.0491
vn 0.2371 0.8534 -0.4641
vn 0.1892 -0.8367 -0.5139
vn -0.0888 -0.9933 0.0734
vn -0.8047 -0.5068 0.3090
vn 0.5535 0.8260 0.1070
vn 0.3433 -0.0146 -0.9391
vn 0.5661 -0.8194 0.0901
vn 0.9846 0.0246 0.1731
vn 0.7479 -0.3626 0.5560
vn 0.0432 -0.9990 0.0132
vn -0.5388 -0.6585 -0.5254
vn -0.6723 0.3560 -0.6490
vn -0.2084 0.9749 -0.0773
vn -0.8554 0.1080 -0.5066
vn -0.6023 -0.6921 -0.3977
vn 0.5645 0.6785 0.4700
vn 0.7097 0.4067 0.5752
vn 0.6120 0.5893 0.5274
vn -0.1048 0.9795 -0.1718
vn -0.4704 0.0980 -0.8769
vn 0.6006 -0.6712 0.4343
vn -0.0031 -0.9350 0.3546
vn -0.3642 -0.7555 -0.5445
vn 0.2884 0.7286 0.6212
vn 0.0308 0.3550 0.9344
vn 0.4266 -0.3281 0.8428
vn 0.0190 0.9996 -0.0214
vn 0.1886 0.3290 -0.9253
vn 0.0549 -0.9868 -0.1520
vn -0.5327 0.0884 0.8416
vn -0.3924 0.6396 0.6609
vn 0.4582 -0.8111 -0.3636
vn 0.8072 0.3573 -0.4697
vn -0.0204 0.9995 -0.0211
vn -0.1016 -0.5738 0.8126
vn -0.4369 -0.8090 0.3931
vn -0.5239 0.2233 0.8220
vn -0.0510 0.9984 0.0233
usemtl SVGMat.3781
s 1
f 47//1 2//2 48//3
f 1//4 4//5 45//6
f 2//2 3//7 48//3
f 1//4 5//8 4//5
f 2//2 7//9 3//7
f 6//10 12//11 1//4
f 4//5 9//12 2//2
f 8//13 10//14 7//9
f 5//8 9//12 4//5
f 6//10 13//15 12//11
f 11//16 14//17 9//12
f 13//15 15//18 11//16
f 13//15 18//19 15//18
f 16//20 17//21 8//13
f 17//21 21//22 10//14
f 6//10 20//23 13//15
f 17//21 22//24 21//22
f 16//20 23//25 17//21
f 19//26 24//27 18//19
f 20//23 24//27 19//26
f 22//24 20//23 21//22
f 20//23 26//28 24//27
f 22//24 28//29 20//23
f 23//25 27//30 22//24
f 25//31 29//32 16//20
f 29//32 30//33 23//25
f 28//29 31//34 26//28
f 31//34 33//35 32//36
f 28//29 33//35 31//34
f 27//30 35//37 28//29
f 30//33 39//38 27//30
f 29//32 34//39 30//33
f 28//29 36//40 33//35
f 33//35 36//40 29//32
f 35//37 37//41 36//40
f 40//42 41//43 39//38
f 39//38 42//44 35//37
f 38//45 43//46 34//39
f 41//43 42//44 39//38
f 37//41 43//46 38//45
f 42//44 44//47 37//41
f 42//44 45//6 44//47
f 47//1 48//3 40//42
f 41//43 46//48 42//44
f 45//6 47//1 43//46
f 46//48 1//4 45//6
f 45//6 4//5 47//1
f 48//3 3//7 46//48
f 46//48 3//7 1//4
f 47//1 4//5 2//2
f 3//7 6//10 1//4
f 3//7 7//9 6//10
f 2//2 8//13 7//9
f 1//4 12//11 5//8
f 2//2 9//12 8//13
f 7//9 10//14 6//10
f 5//8 11//16 9//12
f 5//8 12//11 11//16
f 12//11 13//15 11//16
f 9//12 14//17 8//13
f 11//16 15//18 14//17
f 14//17 16//20 8//13
f 15//18 18//19 14//17
f 8//13 17//21 10//14
f 14//17 18//19 16//20
f 10//14 21//22 6//10
f 13//15 19//26 18//19
f 13//15 20//23 19//26
f 6//10 21//22 20//23
f 17//21 23//25 22//24
f 18//19 24//27 25//31
f 18//19 25//31 16//20
f 24//27 26//28 25//31
f 22//24 27//30 28//29
f 26//28 32//36 25//31
f 20//23 28//29 26//28
f 16//20 29//32 23//25
f 23//25 30//33 27//30
f 26//28 31//34 32//36
f 25//31 32//36 29//32
f 32//36 33//35 29//32
f 27//30 39//38 35//37
f 30//33 34//39 39//38
f 28//29 35//37 36//40
f 29//32 36//40 34//39
f 36//40 37//41 38//45
f 36//40 38//45 34//39
f 34//39 40//42 39//38
f 35//37 42//44 37//41
f 34//39 43//46 40//42
f 37//41 44//47 43//46
f 44//47 45//6 43//46
f 42//44 46//48 45//6
f 43//46 47//1 40//42
f 40//42 48//3 41//43
f 41//43 48//3 46//48
