# Blender v2.79 (sub 0) OBJ File: 'world_countrycodes_export2.blend'
# www.blender.org
mtllib SK.mtl
o SK.002_CUCurve.1815
v 1.079215 0.000000 0.342603
v 1.077388 0.000000 0.342569
v 1.075246 0.000000 0.342033
v 1.073297 0.000000 0.342435
v 1.071627 0.000000 0.342393
v 1.070212 0.000000 0.342024
v 1.068969 0.000000 0.341510
v 1.067121 0.000000 0.342249
v 1.066234 0.000000 0.342135
v 1.065668 0.000000 0.341750
v 1.065324 0.000000 0.341369
v 1.064698 0.000000 0.341734
v 1.063113 0.000000 0.342945
v 1.061430 0.000000 0.344950
v 1.060130 0.000000 0.345970
v 1.058582 0.000000 0.346703
v 1.056361 0.000000 0.347054
v 1.055733 0.000000 0.347562
v 1.055041 0.000000 0.348854
v 1.056102 0.000000 0.351233
v 1.057593 0.000000 0.353286
v 1.058377 0.000000 0.353791
v 1.059909 0.000000 0.354221
v 1.062663 0.000000 0.354400
v 1.064735 0.000000 0.353969
v 1.065221 0.000000 0.353619
v 1.065549 0.000000 0.352815
v 1.067313 0.000000 0.352023
v 1.070268 0.000000 0.351502
v 1.071539 0.000000 0.351415
v 1.072581 0.000000 0.350901
v 1.075495 0.000000 0.348658
v 1.076447 0.000000 0.348068
v 1.078834 0.000000 0.348560
v 1.081348 0.000000 0.349537
v 1.083082 0.000000 0.350439
v 1.085353 0.000000 0.351069
v 1.085387 0.000000 0.351048
v 1.084652 0.000000 0.350276
v 1.084202 0.000000 0.349235
v 1.084545 0.000000 0.348134
v 1.085517 0.000000 0.346340
v 1.086722 0.000000 0.344940
v 1.086727 0.000000 0.344764
v 1.084879 0.000000 0.344476
v 1.083404 0.000000 0.343972
v 1.082491 0.000000 0.343426
v 1.080928 0.000000 0.342843
v 1.077388 0.050000 0.342569
v 1.063113 0.050000 0.342945
v 1.084652 0.050000 0.350276
v 1.084202 0.050000 0.349235
v 1.082491 0.050000 0.343426
v 1.055041 0.050000 0.348854
v 1.056102 0.050000 0.351233
v 1.055733 0.050000 0.347562
v 1.084545 0.050000 0.348134
v 1.066234 0.050000 0.342135
v 1.065668 0.050000 0.341750
v 1.075246 0.050000 0.342033
v 1.073297 0.050000 0.342435
v 1.086722 0.050000 0.344940
v 1.086727 0.050000 0.344764
v 1.071627 0.050000 0.342393
v 1.061430 0.050000 0.344950
v 1.083404 0.050000 0.343972
v 1.083082 0.050000 0.350439
v 1.085353 0.050000 0.351069
v 1.060130 0.050000 0.345970
v 1.065549 0.050000 0.352815
v 1.067313 0.050000 0.352023
v 1.084879 0.050000 0.344476
v 1.065324 0.050000 0.341369
v 1.064698 0.050000 0.341734
v 1.070212 0.050000 0.342024
v 1.068969 0.050000 0.341510
v 1.085517 0.050000 0.346340
v 1.057593 0.050000 0.353286
v 1.058377 0.050000 0.353791
v 1.076447 0.050000 0.348068
v 1.078834 0.050000 0.348560
v 1.062663 0.050000 0.354400
v 1.064735 0.050000 0.353969
v 1.072581 0.050000 0.350901
v 1.081348 0.050000 0.349537
v 1.079215 0.050000 0.342603
v 1.058582 0.050000 0.346703
v 1.056361 0.050000 0.347054
v 1.059909 0.050000 0.354221
v 1.065221 0.050000 0.353619
v 1.067121 0.050000 0.342249
v 1.070268 0.050000 0.351502
v 1.071539 0.050000 0.351415
v 1.075495 0.050000 0.348658
v 1.080928 0.050000 0.342843
v 1.085387 0.050000 0.351048
vn 0.0000 -1.0000 0.0000
vn 0.0000 1.0000 0.0000
vn 0.0000 1.0000 0.0001
vn -0.3620 0.0000 0.9322
vn -0.6172 0.0000 -0.7868
vn -0.4281 0.0000 -0.9037
vn -0.6282 0.0000 -0.7780
vn 0.9546 0.0000 0.2978
vn 0.5266 0.0000 0.8501
vn 0.7416 0.0000 -0.6709
vn 0.4091 0.0000 0.9125
vn -0.0648 0.0000 0.9979
vn 0.8794 0.0000 0.4761
vn 0.1536 0.0000 -0.9881
vn -0.2702 0.0000 0.9628
vn 0.4423 0.0000 0.8969
vn 0.9177 0.0000 -0.3972
vn -0.8092 0.0000 0.5876
vn 0.3235 0.0000 -0.9462
vn 0.5836 0.0000 0.8120
vn 0.9263 0.0000 0.3769
vn -0.4617 0.0000 0.8870
vn 0.6100 0.0000 0.7924
vn 0.3490 0.0000 -0.9371
vn -0.5037 0.0000 -0.8639
vn -0.9133 0.0000 0.4073
vn 0.1739 0.0000 0.9848
vn 0.5135 0.0000 -0.8581
vn -0.6072 0.0000 -0.7946
vn 0.3826 0.0000 -0.9239
vn 0.0683 0.0000 0.9977
vn 0.5619 0.0000 -0.8272
vn -0.7659 0.0000 -0.6430
vn 0.5199 0.0000 0.8542
vn -0.2019 0.0000 -0.9794
vn 0.7580 0.0000 0.6522
vn -0.5414 0.0000 0.8408
vn 0.1285 0.0000 -0.9917
vn 0.9996 0.0000 0.0298
vn -0.3717 0.0000 -0.9284
vn -0.2018 0.0000 0.9794
vn 0.0253 0.0000 -0.9997
vn 0.0184 0.0000 -0.9998
vn 0.2037 0.0000 0.9790
vn -0.8815 0.0000 -0.4721
vn 0.7490 0.0000 -0.6626
vn 0.1391 0.0000 -0.9903
vn 0.2427 0.0000 -0.9701
vn 0.2519 0.0000 -0.9677
vn -0.2670 0.0000 0.9637
vn -0.1561 0.0000 -0.9877
usemtl SVGMat.3781
s off
f 12//1 11//1 10//1
f 8//1 7//1 6//1
f 12//1 10//1 9//1
f 13//1 12//1 9//1
f 8//1 6//1 5//1
f 13//1 9//1 8//1
f 13//1 8//1 5//1
f 4//1 3//1 2//1
f 13//1 5//1 4//1
f 13//1 4//1 2//1
f 13//1 2//1 1//1
f 13//1 1//1 48//1
f 13//1 48//1 47//1
f 13//1 47//1 46//1
f 14//1 13//1 46//1
f 14//1 46//1 45//1
f 14//1 45//1 44//1
f 14//1 44//1 43//1
f 14//1 43//1 42//1
f 15//1 14//1 42//1
f 16//1 15//1 42//1
f 17//1 16//1 42//1
f 18//1 17//1 42//1
f 18//1 42//1 41//1
f 18//1 41//1 33//1
f 34//1 33//1 41//1
f 19//1 18//1 33//1
f 19//1 33//1 32//1
f 34//1 41//1 40//1
f 35//1 34//1 40//1
f 19//1 32//1 31//1
f 20//1 19//1 31//1
f 36//1 35//1 40//1
f 36//1 40//1 39//1
f 36//1 39//1 37//1
f 20//1 31//1 30//1
f 20//1 30//1 29//1
f 20//1 29//1 28//1
f 20//1 28//1 27//1
f 21//1 20//1 27//1
f 21//1 27//1 26//1
f 22//1 21//1 26//1
f 22//1 26//1 25//1
f 23//1 22//1 25//1
f 23//1 25//1 24//1
f 74//2 59//2 73//2
f 91//2 75//2 76//2
f 74//2 58//2 59//2
f 50//2 58//2 74//2
f 91//2 64//2 75//2
f 50//2 91//2 58//2
f 50//2 64//2 91//2
f 61//2 49//2 60//2
f 50//2 61//2 64//2
f 50//2 49//2 61//2
f 50//2 86//2 49//2
f 50//2 95//2 86//2
f 50//2 53//2 95//2
f 50//2 66//2 53//2
f 65//2 66//2 50//2
f 65//2 72//2 66//2
f 65//2 63//2 72//2
f 65//2 62//2 63//2
f 65//2 77//2 62//2
f 69//2 77//2 65//2
f 87//2 77//2 69//2
f 88//2 77//2 87//2
f 56//2 77//2 88//2
f 56//2 57//2 77//2
f 56//2 80//2 57//2
f 81//2 57//2 80//2
f 54//2 80//2 56//2
f 54//2 94//2 80//2
f 81//2 52//2 57//2
f 85//2 52//2 81//2
f 54//2 84//2 94//2
f 55//2 84//2 54//2
f 67//2 52//2 85//2
f 67//2 51//2 52//2
f 67//2 68//2 51//2
f 55//2 93//2 84//2
f 55//3 92//3 93//3
f 55//2 71//2 92//2
f 55//2 70//2 71//2
f 78//2 70//2 55//2
f 78//2 90//2 70//2
f 79//2 90//2 78//2
f 79//2 83//2 90//2
f 89//2 83//2 79//2
f 89//2 82//2 83//2
f 34//4 35//4 85//4 81//4
f 14//5 15//5 69//5 65//5
f 15//6 16//6 87//6 69//6
f 17//7 18//7 56//7 88//7
f 40//8 41//8 57//8 52//8
f 32//9 33//9 80//9 94//9
f 10//10 11//10 73//10 59//10
f 27//11 28//11 71//11 70//11
f 23//12 24//12 82//12 89//12
f 41//13 42//13 77//13 57//13
f 44//14 45//14 72//14 63//14
f 22//15 23//15 89//15 79//15
f 30//16 31//16 84//16 93//16
f 39//17 40//17 52//17 51//17
f 20//18 21//18 78//18 55//18
f 45//19 46//19 66//19 72//19
f 25//20 26//20 90//20 83//20
f 26//21 27//21 70//21 90//21
f 35//22 36//22 67//22 85//22
f 31//23 32//23 94//23 84//23
f 47//24 48//24 95//24 53//24
f 11//25 12//25 74//25 73//25
f 19//26 20//26 55//26 54//26
f 28//27 29//27 92//27 71//27
f 46//28 47//28 53//28 66//28
f 12//29 13//29 50//29 74//29
f 6//30 7//30 76//30 75//30
f 29//31 30//31 93//31 92//31
f 9//32 10//32 59//32 58//32
f 13//33 14//33 65//33 50//33
f 37//34 38//34 96//34 68//34
f 3//35 4//35 61//35 60//35
f 42//36 43//36 62//36 77//36
f 21//37 22//37 79//37 78//37
f 8//38 9//38 58//38 91//38
f 43//39 44//39 63//39 62//39
f 7//40 8//40 91//40 76//40
f 33//41 34//41 81//41 80//41
f 4//42 5//42 64//42 61//42
f 1//43 2//43 49//43 86//43
f 24//44 25//44 83//44 82//44
f 18//45 19//45 54//45 56//45
f 37//46 39//46 51//46 68//46
f 48//47 1//47 86//47 95//47
f 2//48 3//48 60//48 49//48
f 5//49 6//49 75//49 64//49
f 36//50 37//50 68//50 67//50
f 16//51 17//51 88//51 87//51
