# Blender v2.79 (sub 0) OBJ File: 'world_countrycodes_export2.blend'
# www.blender.org
mtllib SL.mtl
o SL.002_CUCurve.1858
v 0.900560 0.000000 0.604573
v 0.900649 0.000000 0.603593
v 0.900155 0.000000 0.602526
v 0.899734 0.000000 0.601213
v 0.899639 0.000000 0.599319
v 0.898642 0.000000 0.597348
v 0.896426 0.000000 0.594677
v 0.895288 0.000000 0.593979
v 0.894403 0.000000 0.594042
v 0.892300 0.000000 0.594741
v 0.891172 0.000000 0.594891
v 0.889294 0.000000 0.594541
v 0.888590 0.000000 0.594645
v 0.888289 0.000000 0.595030
v 0.888140 0.000000 0.595809
v 0.887541 0.000000 0.596726
v 0.886036 0.000000 0.598215
v 0.884310 0.000000 0.599717
v 0.884953 0.000000 0.601221
v 0.885567 0.000000 0.603567
v 0.886875 0.000000 0.606137
v 0.888829 0.000000 0.608329
v 0.891807 0.000000 0.610465
v 0.894210 0.000000 0.611994
v 0.894753 0.000000 0.610974
v 0.895553 0.000000 0.609997
v 0.898537 0.000000 0.607923
v 0.899876 0.000000 0.606668
v 0.888289 0.050000 0.595030
v 0.888140 0.050000 0.595809
v 0.899734 0.050000 0.601213
v 0.885567 0.050000 0.603567
v 0.898537 0.050000 0.607923
v 0.899876 0.050000 0.606668
v 0.888829 0.050000 0.608329
v 0.896426 0.050000 0.594677
v 0.891172 0.050000 0.594891
v 0.899639 0.050000 0.599319
v 0.884310 0.050000 0.599717
v 0.894403 0.050000 0.594042
v 0.892300 0.050000 0.594741
v 0.891807 0.050000 0.610465
v 0.895553 0.050000 0.609997
v 0.884953 0.050000 0.601221
v 0.900649 0.050000 0.603593
v 0.900155 0.050000 0.602526
v 0.894753 0.050000 0.610974
v 0.886875 0.050000 0.606137
v 0.900560 0.050000 0.604573
v 0.894210 0.050000 0.611994
v 0.898642 0.050000 0.597348
v 0.887541 0.050000 0.596726
v 0.889294 0.050000 0.594541
v 0.888590 0.050000 0.594645
v 0.886036 0.050000 0.598215
v 0.895288 0.050000 0.593979
vn 0.0000 -1.0000 0.0000
vn 0.0000 1.0000 0.0000
vn -0.7873 0.0000 -0.6165
vn -0.7465 0.0000 0.6654
vn -0.1319 0.0000 -0.9913
vn -0.6563 0.0000 -0.7545
vn 0.9076 0.0000 -0.4197
vn -0.9675 0.0000 0.2530
vn 0.7737 0.0000 0.6336
vn -0.9824 0.0000 -0.1868
vn -0.7034 0.0000 -0.7108
vn 0.9521 0.0000 -0.3059
vn 0.6839 0.0000 0.7296
vn -0.0703 0.0000 -0.9975
vn 0.9959 0.0000 0.0906
vn -0.8372 0.0000 -0.5470
vn 0.9988 0.0000 -0.0497
vn 0.9507 0.0000 0.3101
vn -0.5370 0.0000 0.8436
vn 0.8923 0.0000 -0.4515
vn -0.8911 0.0000 0.4538
vn -0.3152 0.0000 -0.9490
vn 0.5229 0.0000 -0.8524
vn 0.1832 0.0000 -0.9831
vn 0.8825 0.0000 0.4703
vn -0.5829 0.0000 0.8126
vn -0.9194 0.0000 0.3933
vn -0.1467 0.0000 -0.9892
vn 0.7695 0.0000 -0.6386
vn 0.5707 0.0000 0.8212
usemtl SVGMat.3781
s off
f 9//1 8//1 7//1
f 10//1 9//1 7//1
f 13//1 12//1 11//1
f 14//1 13//1 11//1
f 11//1 10//1 7//1
f 14//1 11//1 7//1
f 15//1 14//1 7//1
f 15//1 7//1 6//1
f 16//1 15//1 6//1
f 17//1 16//1 6//1
f 17//1 6//1 5//1
f 18//1 17//1 5//1
f 18//1 5//1 4//1
f 19//1 18//1 4//1
f 20//1 19//1 4//1
f 20//1 4//1 3//1
f 20//1 3//1 2//1
f 20//1 2//1 1//1
f 21//1 20//1 1//1
f 21//1 1//1 28//1
f 22//1 21//1 28//1
f 22//1 28//1 27//1
f 22//1 27//1 26//1
f 23//1 22//1 26//1
f 23//1 26//1 25//1
f 23//1 25//1 24//1
f 40//2 36//2 56//2
f 41//2 36//2 40//2
f 54//2 37//2 53//2
f 29//2 37//2 54//2
f 37//2 36//2 41//2
f 29//2 36//2 37//2
f 30//2 36//2 29//2
f 30//2 51//2 36//2
f 52//2 51//2 30//2
f 55//2 51//2 52//2
f 55//2 38//2 51//2
f 39//2 38//2 55//2
f 39//2 31//2 38//2
f 44//2 31//2 39//2
f 32//2 31//2 44//2
f 32//2 46//2 31//2
f 32//2 45//2 46//2
f 32//2 49//2 45//2
f 48//2 49//2 32//2
f 48//2 34//2 49//2
f 35//2 34//2 48//2
f 35//2 33//2 34//2
f 35//2 43//2 33//2
f 42//2 43//2 35//2
f 42//2 47//2 43//2
f 42//2 50//2 47//2
f 13//3 14//3 29//3 54//3
f 21//4 22//4 35//4 48//4
f 10//5 11//5 37//5 41//5
f 17//6 18//6 39//6 55//6
f 2//7 3//7 46//7 45//7
f 19//8 20//8 32//8 44//8
f 25//9 26//9 43//9 47//9
f 14//10 15//10 30//10 29//10
f 16//11 17//11 55//11 52//11
f 3//12 4//12 31//12 46//12
f 27//13 28//13 34//13 33//13
f 8//14 9//14 40//14 56//14
f 1//15 2//15 45//15 49//15
f 15//16 16//16 52//16 30//16
f 4//17 5//17 38//17 31//17
f 28//18 1//18 49//18 34//18
f 23//19 24//19 50//19 42//19
f 5//20 6//20 51//20 38//20
f 20//21 21//21 48//21 32//21
f 9//22 10//22 41//22 40//22
f 7//23 8//23 56//23 36//23
f 11//24 12//24 53//24 37//24
f 24//25 25//25 47//25 50//25
f 22//26 23//26 42//26 35//26
f 18//27 19//27 44//27 39//27
f 12//28 13//28 54//28 53//28
f 6//29 7//29 36//29 51//29
f 26//30 27//30 33//30 43//30
