# Blender v2.79 (sub 0) OBJ File: 'world_countrycodes_outlines2.blend'
# www.blender.org
mtllib SN_outline.mtl
o SN.001_CUCurve.1695
v 0.866528 -0.001373 0.577697
v 0.863939 0.001959 0.576807
v 0.864358 -0.001969 0.575399
v 0.863049 -0.000751 0.578144
v 0.863524 0.000746 0.574426
v 0.869315 -0.000761 0.573533
v 0.874297 -0.001986 0.573936
v 0.874107 0.001398 0.572334
v 0.874454 0.001997 0.574649
v 0.874120 -0.000720 0.575788
v 0.873787 -0.000712 0.571583
v 0.878575 0.000839 0.573458
v 0.878397 0.001440 0.576952
v 0.878717 -0.000694 0.577567
v 0.879504 0.002023 0.574758
v 0.877782 -0.001845 0.574825
v 0.876283 0.000777 0.575361
v 0.886457 0.000693 0.573675
v 0.883288 -0.002000 0.574067
v 0.878062 -0.000820 0.571820
v 0.874203 -0.002012 0.571732
v 0.873867 -0.000715 0.573407
v 0.875213 0.001902 0.571902
v 0.874185 0.000862 0.569320
v 0.874802 -0.000855 0.569325
v 0.867138 0.001360 0.571865
v 0.869079 -0.000880 0.574840
v 0.865619 0.001903 0.573931
v 0.867149 -0.000812 0.571105
v 0.865403 -0.001949 0.573525
v 0.864583 0.000054 0.574536
v 0.860590 0.000869 0.567244
v 0.863400 0.001951 0.566072
v 0.862146 -0.001912 0.568388
v 0.864578 -0.000683 0.566005
v 0.861361 0.000115 0.563461
v 0.861656 -0.001372 0.564257
v 0.863817 0.001446 0.558091
v 0.866511 0.001911 0.557674
v 0.866588 0.000788 0.560647
v 0.865734 -0.001979 0.559661
v 0.863536 -0.000774 0.557524
v 0.866637 0.001902 0.555526
v 0.868047 -0.000731 0.558261
v 0.867316 -0.002047 0.556614
v 0.866558 -0.000821 0.554398
v 0.872096 0.000736 0.554482
v 0.876987 -0.001392 0.557099
v 0.876737 0.000755 0.557508
v 0.877063 0.001972 0.554725
v 0.876411 -0.001918 0.555153
v 0.877880 -0.000715 0.553640
v 0.882079 0.001960 0.558224
v 0.881748 -0.000874 0.556736
v 0.881637 0.001349 0.560306
v 0.883179 -0.002014 0.558118
v 0.881407 -0.000824 0.560710
v 0.883920 0.000801 0.556811
v 0.886483 0.000014 0.561321
v 0.886142 0.001955 0.562590
v 0.883682 0.000552 0.564198
v 0.887114 -0.001459 0.565821
v 0.887032 -0.001879 0.562828
v 0.887087 0.000804 0.566222
v 0.890040 0.000617 0.563480
v 0.892021 0.001436 0.568217
v 0.890044 0.001424 0.571731
v 0.888909 0.000004 0.569907
v 0.890400 -0.001980 0.570214
v 0.892865 -0.000876 0.568671
v 0.892091 0.001945 0.571501
v 0.893256 -0.000753 0.571382
v 0.890015 -0.000814 0.573568
v 0.894039 -0.001902 0.576434
v 0.895647 0.001945 0.575907
v 0.896823 -0.000753 0.575453
v 0.893765 0.000889 0.578277
v 0.895947 0.001943 0.580727
v 0.893041 -0.000751 0.578835
v 0.896937 -0.000023 0.581686
v 0.895887 -0.001967 0.580542
v 0.891306 -0.000743 0.583092
v 0.890586 0.001440 0.582526
v 0.887883 0.000834 0.578837
v 0.887063 -0.001968 0.579797
v 0.885282 -0.000865 0.581859
v 0.885425 0.001970 0.580376
v 0.885897 0.000866 0.577378
v 0.882233 -0.001878 0.577582
v 0.883098 -0.001077 0.580462
v 0.882070 0.001919 0.577658
v 0.881541 -0.000065 0.576426
v 0.882751 0.000933 0.580844
v 0.868424 -0.001969 0.580167
v 0.871777 -0.000889 0.577185
v 0.872582 -0.000744 0.581268
v 0.869608 0.001440 0.578823
v 0.868441 0.002012 0.580154
v 0.869701 -0.000747 0.578139
v 0.868596 0.000933 0.582322
v 0.867251 -0.001409 0.581211
v 0.866775 0.000846 0.581305
v 0.866523 0.001312 0.577450
v 0.867080 0.000009 0.577803
vn -0.0587 0.9889 0.1364
vn -0.5443 0.8370 0.0558
vn -0.5326 0.4085 0.7412
vn 0.3122 0.9498 0.0178
vn -0.3095 -0.6406 0.7027
vn -0.4403 -0.8169 -0.3724
vn 0.0111 -0.9922 0.1237
vn -0.6837 0.2646 -0.6800
vn -0.8857 -0.2855 0.3659
vn -0.1859 -0.4267 -0.8850
vn 0.0164 0.6939 -0.7198
vn -0.0048 0.9594 0.2818
vn 0.9609 -0.0811 -0.2647
vn 0.5741 -0.7648 -0.2921
vn -0.0177 -0.3391 0.9406
vn -0.0488 -0.3200 -0.9461
vn 0.0137 -0.9978 -0.0648
vn 0.8761 0.0942 -0.4728
vn -0.0038 0.6490 0.7608
vn 0.0469 -0.3517 0.9349
vn 0.1636 0.9834 0.0777
vn -0.2195 0.3144 0.9236
vn 0.9759 0.1838 -0.1171
vn 0.4841 -0.8737 -0.0478
vn 0.3138 -0.2335 -0.9203
vn 0.0785 -0.9561 0.2821
vn -0.0066 -0.9984 -0.0549
vn -0.1541 -0.2662 0.9515
vn 0.0763 0.9932 -0.0879
vn 0.1254 0.5154 -0.8477
vn 0.2481 -0.4371 -0.8645
vn 0.2758 -0.5883 -0.7601
vn 0.1426 -0.2710 0.9519
vn 0.1814 0.8508 -0.4932
vn -0.1823 0.8213 0.5405
vn -0.2531 -0.8896 0.3802
vn -0.5569 -0.0002 0.8306
vn -0.4561 -0.8730 0.1723
vn -0.9268 0.3517 0.1316
vn 0.2070 0.9782 -0.0156
vn 0.9345 -0.3476 0.0766
vn -0.7010 -0.6988 -0.1420
vn -0.6302 0.6802 -0.3743
vn 0.8958 0.2539 0.3646
vn 0.2523 -0.9543 0.1601
vn -0.9602 0.0691 -0.2705
vn -0.7678 -0.3992 -0.5011
vn 0.1414 0.9651 0.2203
vn -0.3102 0.7691 -0.5587
vn 0.4588 -0.3454 0.8186
vn -0.0508 -0.9970 -0.0579
vn -0.3847 -0.3099 -0.8695
vn -0.0389 0.1663 -0.9853
vn -0.0194 -0.9397 -0.3415
vn -0.1758 -0.7501 0.6376
vn 0.1307 0.8762 -0.4638
vn -0.2037 0.5249 0.8264
vn 0.2701 -0.2643 -0.9258
vn 0.0273 0.9624 -0.2701
vn 0.3942 -0.2094 -0.8948
vn 0.2992 -0.8960 -0.3282
vn -0.5881 -0.5283 0.6124
vn 0.1364 0.9815 -0.1339
vn 0.4458 0.2955 -0.8449
vn 0.7433 0.0349 -0.6680
vn 0.3026 -0.8974 -0.3210
vn -0.4917 0.7189 0.4913
vn -0.5717 -0.6917 0.4411
vn -0.7021 0.4342 0.5643
vn -0.6597 0.2700 0.7013
vn 0.7143 0.2053 -0.6689
vn 0.8760 -0.4112 -0.2518
vn 0.6943 0.6751 -0.2491
vn 0.3169 0.9412 -0.1170
vn -0.8939 -0.1611 0.4183
vn -0.2164 -0.9732 0.0779
vn 0.8289 -0.3080 -0.4670
vn -0.2115 -0.9715 0.1072
vn -0.8330 -0.3162 0.4539
vn 0.8833 -0.3052 -0.3558
vn -0.6228 0.7324 0.2752
vn 0.4544 0.8771 -0.1556
vn -0.3840 -0.5990 -0.7026
vn -0.5617 0.7929 -0.2363
vn 0.4419 0.8494 0.2885
vn 0.7785 0.0096 0.6275
vn 0.4034 -0.8783 0.2566
vn 0.0435 -0.3743 0.9263
vn 0.1877 0.3963 -0.8987
vn 0.0660 -0.9663 -0.2486
vn -0.1019 0.9278 0.3588
vn -0.0187 0.6545 0.7558
vn -0.3698 -0.3218 0.8716
vn -0.0966 -0.6502 0.7536
vn 0.4310 0.3061 -0.8488
vn -0.0012 0.9148 -0.4038
vn 0.1150 -0.8907 -0.4397
vn 0.0436 -0.0016 -0.9990
vn -0.1277 0.3341 0.9338
vn 0.0268 0.4469 0.8942
vn -0.1922 -0.2943 -0.9362
vn 0.0256 0.7276 -0.6855
vn -0.1360 -0.3434 -0.9293
vn 0.0648 -0.5510 0.8320
usemtl SVGMat.3781
s 1
f 98//1 2//2 102//3
f 103//4 2//2 98//1
f 101//5 3//6 94//7
f 2//2 5//8 4//9
f 5//8 6//10 3//6
f 2//2 8//11 5//8
f 103//4 9//12 2//2
f 104//13 9//12 103//4
f 1//14 10//15 104//13
f 8//11 11//16 6//10
f 7//17 10//15 1//14
f 8//11 12//18 11//16
f 9//12 12//18 8//11
f 10//15 13//19 9//12
f 7//17 14//20 10//15
f 13//19 15//21 9//12
f 15//21 17//22 12//18
f 14//20 18//23 13//19
f 19//24 20//25 18//23
f 16//26 21//27 19//24
f 17//22 22//28 16//26
f 15//21 23//29 17//22
f 20//25 24//30 23//29
f 21//27 25//31 20//25
f 21//27 29//32 25//31
f 23//29 27//33 22//28
f 26//34 28//35 23//29
f 27//33 30//36 21//27
f 28//35 31//37 27//33
f 31//37 34//38 30//36
f 28//35 32//39 31//37
f 26//34 33//40 28//35
f 29//32 33//40 26//34
f 34//38 35//41 29//32
f 32//39 37//42 34//38
f 33//40 38//43 32//39
f 35//41 40//44 33//40
f 34//38 41//45 35//41
f 37//42 41//45 34//38
f 36//46 42//47 37//42
f 38//43 42//47 36//46
f 39//48 43//49 38//43
f 41//45 44//50 40//44
f 42//47 45//51 41//45
f 43//49 46//52 42//47
f 43//49 47//53 46//52
f 47//53 51//54 46//52
f 45//51 48//55 44//50
f 39//48 50//56 43//49
f 48//55 49//57 44//50
f 47//53 52//58 51//54
f 50//56 52//58 47//53
f 53//59 54//60 52//58
f 49//57 53//59 50//56
f 54//60 56//61 51//54
f 48//55 57//62 49//57
f 56//61 57//62 48//55
f 53//59 60//63 58//64
f 59//65 63//66 56//61
f 55//67 60//63 53//59
f 56//61 62//68 57//62
f 62//68 64//69 61//70
f 60//63 65//71 59//65
f 65//71 70//72 63//66
f 60//63 66//73 65//71
f 64//69 71//74 60//63
f 62//68 68//75 64//69
f 63//66 69//76 62//68
f 70//72 69//76 63//66
f 66//73 70//72 65//71
f 71//74 72//77 70//72
f 69//76 74//78 73//79
f 71//74 76//80 72//77
f 67//81 75//82 71//74
f 76//80 74//78 69//76
f 74//78 79//83 77//84
f 78//85 80//86 76//80
f 77//84 78//85 75//82
f 76//80 81//87 74//78
f 81//87 79//83 74//78
f 80//86 82//88 81//87
f 78//85 82//88 80//86
f 79//83 84//89 77//84
f 81//87 85//90 79//83
f 84//89 87//91 78//85
f 82//88 85//90 81//87
f 85//90 84//89 79//83
f 83//92 86//93 82//88
f 87//91 90//94 86//93
f 85//90 88//95 84//89
f 88//95 91//96 87//91
f 90//94 89//97 85//90
f 89//97 92//98 88//95
f 90//94 94//7 89//97
f 91//96 100//99 93//100
f 95//101 97//102 91//96
f 97//102 98//1 91//96
f 94//7 99//103 95//101
f 98//1 102//3 100//99
f 99//103 103//4 97//102
f 94//7 1//14 99//103
f 102//3 2//2 4//9
f 94//7 3//6 1//14
f 101//5 4//9 3//6
f 4//9 5//8 3//6
f 3//6 7//17 1//14
f 3//6 6//10 7//17
f 5//8 8//11 6//10
f 2//2 9//12 8//11
f 104//13 10//15 9//12
f 6//10 11//16 7//17
f 11//16 12//18 16//26
f 10//15 14//20 13//19
f 11//16 16//26 7//17
f 9//12 15//21 12//18
f 7//17 16//26 14//20
f 16//26 19//24 14//20
f 12//18 17//22 16//26
f 13//19 18//23 15//21
f 14//20 19//24 18//23
f 18//23 23//29 15//21
f 18//23 20//25 23//29
f 19//24 21//27 20//25
f 17//22 23//29 22//28
f 20//25 25//31 24//30
f 16//26 22//28 21//27
f 24//30 26//34 23//29
f 25//31 29//32 24//30
f 22//28 27//33 21//27
f 23//29 28//35 27//33
f 24//30 29//32 26//34
f 21//27 30//36 29//32
f 27//33 31//37 30//36
f 31//37 32//39 34//38
f 28//35 33//40 32//39
f 30//36 34//38 29//32
f 29//32 35//41 33//40
f 32//39 36//46 37//42
f 32//39 38//43 36//46
f 33//40 39//48 38//43
f 33//40 40//44 39//48
f 35//41 41//45 40//44
f 37//42 42//47 41//45
f 38//43 43//49 42//47
f 40//44 44//50 39//48
f 41//45 45//51 44//50
f 42//47 46//52 45//51
f 46//52 51//54 45//51
f 43//49 50//56 47//53
f 44//50 49//57 39//48
f 39//48 49//57 50//56
f 45//51 51//54 48//55
f 50//56 53//59 52//58
f 52//58 54//60 51//54
f 49//57 55//67 53//59
f 51//54 56//61 48//55
f 49//57 57//62 55//67
f 53//59 58//64 54//60
f 54//60 58//64 56//61
f 58//64 59//65 56//61
f 58//64 60//63 59//65
f 57//62 61//70 55//67
f 55//67 61//70 60//63
f 57//62 62//68 61//70
f 56//61 63//66 62//68
f 61//70 64//69 60//63
f 59//65 65//71 63//66
f 60//63 71//74 66//73
f 64//69 67//81 71//74
f 64//69 68//75 67//81
f 62//68 69//76 68//75
f 66//73 71//74 70//72
f 70//72 72//77 69//76
f 69//76 73//79 68//75
f 68//75 73//79 67//81
f 73//79 77//84 67//81
f 73//79 74//78 77//84
f 71//74 75//82 76//80
f 72//77 76//80 69//76
f 67//81 77//84 75//82
f 75//82 78//85 76//80
f 76//80 80//86 81//87
f 78//85 83//92 82//88
f 77//84 84//89 78//85
f 78//85 87//91 83//92
f 83//92 87//91 86//93
f 82//88 86//93 85//90
f 84//89 88//95 87//91
f 85//90 89//97 88//95
f 87//91 93//100 90//94
f 86//93 90//94 85//90
f 87//91 91//96 93//100
f 88//95 92//98 91//96
f 93//100 96//104 90//94
f 89//97 95//101 92//98
f 89//97 94//7 95//101
f 93//100 100//99 96//104
f 92//98 95//101 91//96
f 90//94 96//104 94//7
f 91//96 98//1 100//99
f 95//101 99//103 97//102
f 96//104 100//99 101//5
f 96//104 101//5 94//7
f 100//99 102//3 101//5
f 97//102 103//4 98//1
f 99//103 104//13 103//4
f 99//103 1//14 104//13
f 102//3 4//9 101//5
