# Blender v2.79 (sub 0) OBJ File: 'world_countrycodes_export2.blend'
# www.blender.org
mtllib SO.mtl
o SO.002_CUCurve.1875
v 1.202549 0.000000 0.596213
v 1.205332 0.000000 0.599129
v 1.212521 0.000000 0.601530
v 1.219218 0.000000 0.604121
v 1.222841 0.000000 0.604980
v 1.226770 0.000000 0.605260
v 1.227596 0.000000 0.605947
v 1.211206 0.000000 0.622329
v 1.209651 0.000000 0.622762
v 1.205451 0.000000 0.622616
v 1.203689 0.000000 0.623042
v 1.201757 0.000000 0.624094
v 1.198766 0.000000 0.626476
v 1.196045 0.000000 0.626737
v 1.193750 0.000000 0.627240
v 1.188349 0.000000 0.635274
v 1.188631 0.000000 0.655590
v 1.191447 0.000000 0.660036
v 1.194384 0.000000 0.656644
v 1.204419 0.000000 0.646328
v 1.207752 0.000000 0.643056
v 1.211176 0.000000 0.640667
v 1.214209 0.000000 0.639045
v 1.219101 0.000000 0.635049
v 1.223260 0.000000 0.631031
v 1.227223 0.000000 0.626447
v 1.232160 0.000000 0.619858
v 1.234141 0.000000 0.616462
v 1.235076 0.000000 0.613338
v 1.237569 0.000000 0.608738
v 1.240234 0.000000 0.605417
v 1.242716 0.000000 0.601171
v 1.244293 0.000000 0.597304
v 1.245076 0.000000 0.593757
v 1.246645 0.000000 0.587111
v 1.246980 0.000000 0.584570
v 1.246492 0.000000 0.582499
v 1.244870 0.000000 0.581682
v 1.243654 0.000000 0.582310
v 1.242846 0.000000 0.583540
v 1.241185 0.000000 0.584496
v 1.237892 0.000000 0.585522
v 1.232551 0.000000 0.586317
v 1.227573 0.000000 0.586510
v 1.224342 0.000000 0.586976
v 1.222313 0.000000 0.587795
v 1.221053 0.000000 0.588772
v 1.219857 0.000000 0.589153
v 1.216527 0.000000 0.589056
v 1.214723 0.000000 0.589286
v 1.212730 0.000000 0.590862
v 1.208829 0.000000 0.591719
v 1.206245 0.000000 0.590929
v 1.204975 0.000000 0.589713
v 1.203514 0.000000 0.587219
v 1.201770 0.000000 0.585837
v 1.199209 0.000000 0.589000
v 1.198510 0.000000 0.590534
v 1.200080 0.000000 0.593559
v 1.188349 0.050000 0.635274
v 1.219101 0.050000 0.635049
v 1.232551 0.050000 0.586317
v 1.227573 0.050000 0.586510
v 1.241185 0.050000 0.584496
v 1.237892 0.050000 0.585522
v 1.212521 0.050000 0.601530
v 1.242716 0.050000 0.601171
v 1.200080 0.050000 0.593559
v 1.202549 0.050000 0.596213
v 1.245076 0.050000 0.593757
v 1.246645 0.050000 0.587111
v 1.205332 0.050000 0.599129
v 1.216527 0.050000 0.589056
v 1.214723 0.050000 0.589286
v 1.224342 0.050000 0.586976
v 1.222313 0.050000 0.587795
v 1.208829 0.050000 0.591719
v 1.206245 0.050000 0.590929
v 1.188631 0.050000 0.655590
v 1.211176 0.050000 0.640667
v 1.212730 0.050000 0.590862
v 1.234141 0.050000 0.616462
v 1.235076 0.050000 0.613338
v 1.203689 0.050000 0.623042
v 1.201757 0.050000 0.624094
v 1.237569 0.050000 0.608738
v 1.194384 0.050000 0.656644
v 1.227223 0.050000 0.626447
v 1.232160 0.050000 0.619858
v 1.193750 0.050000 0.627240
v 1.223260 0.050000 0.631031
v 1.243654 0.050000 0.582310
v 1.242846 0.050000 0.583540
v 1.198510 0.050000 0.590534
v 1.222841 0.050000 0.604980
v 1.240234 0.050000 0.605417
v 1.219857 0.050000 0.589153
v 1.211206 0.050000 0.622329
v 1.196045 0.050000 0.626737
v 1.214209 0.050000 0.639045
v 1.203514 0.050000 0.587219
v 1.199209 0.050000 0.589000
v 1.204419 0.050000 0.646328
v 1.227596 0.050000 0.605947
v 1.244293 0.050000 0.597304
v 1.219218 0.050000 0.604121
v 1.246980 0.050000 0.584570
v 1.221053 0.050000 0.588772
v 1.205451 0.050000 0.622616
v 1.246492 0.050000 0.582499
v 1.244870 0.050000 0.581682
v 1.209651 0.050000 0.622762
v 1.191447 0.050000 0.660036
v 1.207752 0.050000 0.643056
v 1.204975 0.050000 0.589713
v 1.198766 0.050000 0.626476
v 1.226770 0.050000 0.605260
v 1.201770 0.050000 0.585837
vn 0.0000 -1.0000 0.0000
vn 0.0000 1.0000 -0.0000
vn 0.8792 0.0000 0.4765
vn 0.9259 0.0000 0.3777
vn -0.7772 0.0000 -0.6293
vn 0.6948 0.0000 0.7192
vn 0.8003 0.0000 0.5997
vn 0.6212 0.0000 -0.7836
vn 0.4500 0.0000 -0.8930
vn -0.0710 0.0000 0.9975
vn -0.0956 0.0000 -0.9954
vn -0.8360 0.0000 -0.5488
vn -0.6127 0.0000 -0.7903
vn 0.0347 0.0000 -0.9994
vn 0.0293 0.0000 -0.9996
vn 0.8634 0.0000 0.5046
vn -0.3038 0.0000 -0.9527
vn -0.2685 0.0000 -0.9633
vn 0.9765 0.0000 0.2154
vn -0.8875 0.0000 0.4608
vn -0.8448 0.0000 0.5351
vn 0.7799 0.0000 0.6259
vn -0.9999 0.0000 0.0139
vn -0.1471 0.0000 -0.9891
vn -0.2141 0.0000 -0.9768
vn -0.0387 0.0000 -0.9993
vn 0.7565 0.0000 0.6539
vn -0.8299 0.0000 -0.5579
vn -0.2977 0.0000 -0.9547
vn 0.7005 0.0000 0.7137
vn 0.8628 0.0000 -0.5056
vn 0.6326 0.0000 0.7744
vn -0.7323 0.0000 0.6810
vn -0.4590 0.0000 -0.8884
vn -0.1430 0.0000 -0.9897
vn 0.9732 0.0000 0.2298
vn -0.3168 0.0000 0.9485
vn 0.9734 0.0000 -0.2293
vn -0.2146 0.0000 -0.9767
vn -0.4985 0.0000 -0.8669
vn -0.1269 0.0000 -0.9919
vn -0.2309 0.0000 0.9730
vn 0.6917 0.0000 -0.7222
vn -0.7069 0.0000 -0.7073
vn -0.3740 0.0000 -0.9274
vn -0.7234 0.0000 0.6904
vn 0.7561 0.0000 0.6545
vn -0.6229 0.0000 -0.7823
vn 0.2925 0.0000 -0.9563
vn 0.4715 0.0000 0.8819
vn 0.8637 0.0000 0.5040
vn -0.3608 0.0000 0.9326
vn -0.6201 0.0000 -0.7845
vn 0.7168 0.0000 0.6973
vn 0.9914 0.0000 0.1309
vn -0.6390 0.0000 0.7692
vn -0.9100 0.0000 -0.4146
vn 0.9581 0.0000 0.2865
vn -0.4783 0.0000 -0.8782
vn 0.5722 0.0000 0.8201
vn -0.2348 0.0000 -0.9720
usemtl SVGMat.3781
s off
f 39//1 38//1 37//1
f 40//1 39//1 37//1
f 40//1 37//1 36//1
f 41//1 40//1 36//1
f 42//1 41//1 36//1
f 42//1 36//1 35//1
f 43//1 42//1 35//1
f 44//1 43//1 35//1
f 45//1 44//1 35//1
f 46//1 45//1 35//1
f 46//1 35//1 34//1
f 57//1 56//1 55//1
f 47//1 46//1 34//1
f 57//1 55//1 54//1
f 48//1 47//1 34//1
f 50//1 49//1 48//1
f 50//1 48//1 34//1
f 58//1 57//1 54//1
f 51//1 50//1 34//1
f 58//1 54//1 53//1
f 58//1 53//1 52//1
f 59//1 58//1 52//1
f 52//1 51//1 34//1
f 59//1 52//1 34//1
f 59//1 34//1 33//1
f 1//1 59//1 33//1
f 2//1 1//1 33//1
f 2//1 33//1 32//1
f 3//1 2//1 32//1
f 4//1 3//1 32//1
f 4//1 32//1 31//1
f 5//1 4//1 31//1
f 6//1 5//1 31//1
f 7//1 6//1 31//1
f 7//1 31//1 30//1
f 7//1 30//1 29//1
f 8//1 7//1 29//1
f 8//1 29//1 28//1
f 8//1 28//1 27//1
f 8//1 27//1 26//1
f 9//1 8//1 26//1
f 11//1 10//1 9//1
f 11//1 9//1 26//1
f 12//1 11//1 26//1
f 13//1 12//1 26//1
f 14//1 13//1 26//1
f 15//1 14//1 26//1
f 15//1 26//1 25//1
f 16//1 15//1 25//1
f 16//1 25//1 24//1
f 17//1 16//1 24//1
f 17//1 24//1 22//1
f 22//1 24//1 23//1
f 17//1 22//1 21//1
f 17//1 21//1 20//1
f 17//1 20//1 19//1
f 18//1 17//1 19//1
f 92//2 110//2 111//2
f 93//2 110//2 92//2
f 93//2 107//2 110//2
f 64//2 107//2 93//2
f 65//2 107//2 64//2
f 65//2 71//2 107//2
f 62//2 71//2 65//2
f 63//2 71//2 62//2
f 75//2 71//2 63//2
f 76//2 71//2 75//2
f 76//2 70//2 71//2
f 102//2 101//2 118//2
f 108//2 70//2 76//2
f 102//2 115//2 101//2
f 97//2 70//2 108//2
f 74//2 97//2 73//2
f 74//2 70//2 97//2
f 94//2 115//2 102//2
f 81//2 70//2 74//2
f 94//2 78//2 115//2
f 94//2 77//2 78//2
f 68//2 77//2 94//2
f 77//2 70//2 81//2
f 68//2 70//2 77//2
f 68//2 105//2 70//2
f 69//2 105//2 68//2
f 72//2 105//2 69//2
f 72//2 67//2 105//2
f 66//2 67//2 72//2
f 106//2 67//2 66//2
f 106//2 96//2 67//2
f 95//2 96//2 106//2
f 117//2 96//2 95//2
f 104//2 96//2 117//2
f 104//2 86//2 96//2
f 104//2 83//2 86//2
f 98//2 83//2 104//2
f 98//2 82//2 83//2
f 98//2 89//2 82//2
f 98//2 88//2 89//2
f 112//2 88//2 98//2
f 84//2 112//2 109//2
f 84//2 88//2 112//2
f 85//2 88//2 84//2
f 116//2 88//2 85//2
f 99//2 88//2 116//2
f 90//2 88//2 99//2
f 90//2 91//2 88//2
f 60//2 91//2 90//2
f 60//2 61//2 91//2
f 79//2 61//2 60//2
f 79//2 80//2 61//2
f 80//2 100//2 61//2
f 79//2 114//2 80//2
f 79//2 103//2 114//2
f 79//2 87//2 103//2
f 113//2 87//2 79//2
f 29//3 30//3 86//3 83//3
f 32//4 33//4 105//4 67//4
f 56//5 57//5 102//5 118//5
f 24//6 25//6 91//6 61//6
f 26//7 27//7 89//7 88//7
f 55//8 56//8 118//8 101//8
f 37//9 38//9 111//9 110//9
f 5//10 6//10 117//10 95//10
f 13//11 14//11 99//11 116//11
f 39//12 40//12 93//12 92//12
f 46//13 47//13 108//13 76//13
f 9//14 10//14 109//14 112//14
f 48//15 49//15 73//15 97//15
f 31//16 32//16 67//16 96//16
f 47//17 48//17 97//17 108//17
f 8//18 9//18 112//18 98//18
f 33//19 34//19 70//19 105//19
f 58//20 59//20 68//20 94//20
f 17//21 18//21 113//21 79//21
f 30//22 31//22 96//22 86//22
f 16//23 17//23 79//23 60//23
f 42//24 43//24 62//24 65//24
f 14//25 15//25 90//25 99//25
f 43//26 44//26 63//26 62//26
f 25//27 26//27 88//27 91//27
f 15//28 16//28 60//28 90//28
f 41//29 42//29 65//29 64//29
f 20//30 21//30 114//30 103//30
f 54//31 55//31 101//31 115//31
f 23//32 24//32 61//32 100//32
f 59//33 1//33 69//33 68//33
f 38//34 39//34 92//34 111//34
f 44//35 45//35 75//35 63//35
f 34//36 35//36 71//36 70//36
f 2//37 3//37 66//37 72//37
f 36//38 37//38 110//38 107//38
f 51//39 52//39 77//39 81//39
f 40//40 41//40 64//40 93//40
f 49//41 50//41 74//41 73//41
f 4//42 5//42 95//42 106//42
f 53//43 54//43 115//43 78//43
f 7//44 8//44 98//44 104//44
f 45//45 46//45 76//45 75//45
f 1//46 2//46 72//46 69//46
f 18//47 19//47 87//47 113//47
f 12//48 13//48 116//48 85//48
f 52//49 53//49 78//49 77//49
f 22//50 23//50 100//50 80//50
f 27//51 28//51 82//51 89//51
f 3//52 4//52 106//52 66//52
f 50//53 51//53 81//53 74//53
f 19//54 20//54 103//54 87//54
f 35//55 36//55 107//55 71//55
f 6//56 7//56 104//56 117//56
f 57//57 58//57 94//57 102//57
f 28//58 29//58 83//58 82//58
f 11//59 12//59 85//59 84//59
f 21//60 22//60 80//60 114//60
f 10//61 11//61 84//61 109//61
