# Blender v2.79 (sub 0) OBJ File: 'world_countrycodes_outlines2.blend'
# www.blender.org
mtllib SO_outline.mtl
o SO.001_CUCurve.1701
v 1.196219 -0.000883 0.590094
v 1.198152 0.002062 0.589930
v 1.202003 0.000662 0.588516
v 1.201939 -0.002003 0.586681
v 1.202625 0.001568 0.584102
v 1.201935 -0.001280 0.583566
v 1.206890 -0.001914 0.593069
v 1.206314 -0.001953 0.590100
v 1.204435 0.000805 0.592129
v 1.206162 0.001920 0.590006
v 1.209240 0.001949 0.592701
v 1.209713 -0.000031 0.593870
v 1.210791 0.000807 0.589629
v 1.208069 -0.000549 0.589975
v 1.215830 -0.000001 0.591380
v 1.214202 -0.001360 0.587576
v 1.215113 0.001911 0.588183
v 1.219901 -0.000815 0.587056
v 1.220577 0.001980 0.587925
v 1.221729 0.000759 0.590388
v 1.224110 -0.002029 0.586329
v 1.223715 -0.001072 0.589114
v 1.224910 0.000752 0.584801
v 1.235901 -0.000809 0.584032
v 1.240659 0.001353 0.583588
v 1.239567 0.001938 0.586246
v 1.236574 -0.000813 0.587854
v 1.245093 0.000783 0.584284
v 1.245480 -0.001603 0.583451
v 1.243415 0.001470 0.580323
v 1.242543 -0.001656 0.581681
v 1.247036 0.000064 0.580120
v 1.247166 0.001972 0.581678
v 1.247760 -0.001906 0.581830
v 1.249023 0.000765 0.584228
v 1.245256 0.001941 0.597496
v 1.242391 -0.001428 0.599155
v 1.245969 -0.001908 0.594275
v 1.241934 0.000731 0.598991
v 1.245915 -0.000727 0.599772
v 1.240976 0.000775 0.607478
v 1.236606 -0.001934 0.611881
v 1.234391 -0.000159 0.609545
v 1.232694 0.001950 0.617477
v 1.234652 0.001383 0.618788
v 1.231937 -0.000600 0.616654
v 1.235328 -0.000730 0.618640
v 1.222716 0.000934 0.628989
v 1.222015 0.001625 0.634751
v 1.222445 -0.001937 0.633427
v 1.217570 -0.000709 0.634320
v 1.208370 0.001900 0.641564
v 1.212052 -0.001924 0.639127
v 1.212862 -0.000625 0.642164
v 1.209758 0.000709 0.643834
v 1.206485 -0.000675 0.641413
v 1.191210 -0.000812 0.663182
v 1.191323 0.001864 0.661543
v 1.191308 0.000825 0.656744
v 1.187015 0.001682 0.655623
v 1.191125 -0.001549 0.657435
v 1.187980 -0.001938 0.656267
v 1.186195 -0.000336 0.634613
v 1.189024 0.001982 0.635402
v 1.189977 -0.001562 0.635565
v 1.194706 0.001499 0.628720
v 1.193906 -0.001936 0.628064
v 1.192373 0.000007 0.625334
v 1.198564 -0.001672 0.624841
v 1.197671 0.002202 0.626930
v 1.199551 -0.000704 0.628316
v 1.203073 -0.000783 0.620990
v 1.203588 0.001456 0.621414
v 1.204590 0.001492 0.624341
v 1.204036 -0.001963 0.623638
v 1.209914 -0.000786 0.620750
v 1.210216 0.001926 0.621910
v 1.211619 0.000756 0.624485
v 1.211656 -0.001889 0.623196
v 1.225467 -0.001181 0.606737
v 1.226651 0.001999 0.606066
v 1.229671 0.000636 0.606343
v 1.228517 -0.001934 0.605408
v 1.228205 0.000738 0.603970
v 1.220657 0.000753 0.606618
v 1.206006 -0.000030 0.597034
v 1.204078 -0.002166 0.598723
v 1.204115 0.000839 0.600621
v 1.204654 0.001949 0.597824
v 1.198628 -0.001930 0.590862
v 1.198696 0.000659 0.595093
v 1.200481 -0.000887 0.590399
vn -0.1305 -0.9905 0.0427
vn -0.0518 -0.9985 0.0160
vn 0.9150 -0.3880 0.1106
vn -0.9577 -0.2646 -0.1128
vn 0.0931 0.6641 -0.7418
vn -0.0926 -0.4296 -0.8983
vn 0.0403 0.6711 0.7403
vn 0.0732 0.9791 -0.1897
vn 0.3504 -0.9189 -0.1813
vn 0.1957 -0.4965 -0.8457
vn -0.2021 -0.7432 0.6377
vn -0.6571 0.3374 0.6740
vn 0.0297 0.8836 0.4672
vn 0.1524 -0.0496 0.9871
vn -0.2608 0.6029 -0.7540
vn 0.3014 -0.1210 0.9458
vn -0.0939 0.8779 -0.4695
vn -0.1717 -0.6682 -0.7239
vn -0.1880 0.2062 -0.9603
vn 0.1187 -0.7333 0.6695
vn 0.1577 0.3515 0.9228
vn -0.1511 0.9505 -0.2716
vn -0.1221 -0.9156 -0.3829
vn -0.2066 0.3037 -0.9301
vn -0.1143 -0.3258 -0.9385
vn -0.4150 0.6536 -0.6329
vn 0.2103 0.8180 0.5353
vn 0.1586 -0.3924 0.9060
vn -0.3212 -0.7486 -0.5800
vn -0.5141 0.8045 0.2972
vn -0.3005 0.5262 -0.7954
vn 0.5161 -0.7478 -0.4176
vn 0.3559 0.8703 -0.3403
vn 0.9677 0.2510 -0.0231
vn 0.3431 -0.1215 -0.9314
vn 0.3767 0.9159 0.1384
vn -0.1937 -0.9638 0.1829
vn -0.8068 0.4749 -0.3516
vn -0.6883 -0.6532 -0.3154
vn 0.8789 -0.2807 0.3856
vn 0.4077 -0.9106 0.0676
vn 0.7993 0.3111 0.5141
vn 0.1296 -0.9910 0.0336
vn -0.8749 -0.0620 -0.4803
vn -0.3332 0.9203 -0.2049
vn 0.6072 0.6915 0.3913
vn -0.8379 -0.0718 -0.5410
vn -0.5359 0.7297 -0.4247
vn -0.5119 -0.5672 -0.6451
vn 0.5336 0.6670 0.5199
vn 0.7669 -0.4205 0.4848
vn 0.3737 -0.8440 0.3847
vn -0.2263 0.9214 -0.3158
vn -0.1244 -0.9717 -0.2008
vn 0.4351 0.7576 0.4866
vn -0.6234 -0.2514 -0.7404
vn 0.5645 -0.3865 0.7294
vn -0.0856 -0.3165 0.9447
vn 0.1293 0.8990 -0.4182
vn 0.1457 -0.9861 -0.0798
vn -0.0598 0.8070 0.5874
vn -0.7395 0.6439 0.1961
vn -0.5900 -0.7797 0.2098
vn -0.9453 -0.1512 -0.2888
vn 0.1348 0.9908 0.0133
vn 0.5389 -0.8245 0.1724
vn -0.5650 0.0787 -0.8213
vn 0.0270 -0.9878 0.1535
vn -0.3163 -0.7476 -0.5840
vn 0.1692 0.8405 0.5147
vn 0.0307 0.9992 0.0230
vn 0.3670 -0.3117 0.8764
vn -0.3301 -0.3743 -0.8666
vn 0.2264 0.7098 0.6670
vn 0.1486 -0.9508 0.2718
vn 0.2384 -0.8574 0.4561
vn -0.2302 0.7094 -0.6662
vn -0.3110 -0.4638 -0.8295
vn 0.3697 0.3203 0.8722
vn 0.1198 0.9924 0.0258
vn -0.0452 0.9717 -0.2317
vn 0.5853 -0.7903 -0.1811
vn -0.5243 -0.8504 0.0434
vn 0.9507 0.2634 0.1639
vn 0.5519 0.3290 -0.7663
vn -0.2640 0.2339 0.9357
vn 0.5072 -0.1370 -0.8508
vn -0.1861 -0.9479 0.2585
vn -0.4870 0.3083 0.8172
vn 0.0786 0.9886 -0.1280
vn -0.3606 0.9223 -0.1388
vn -0.7776 0.2528 0.5756
usemtl SVGMat.3781
s 1
f 90//1 4//2 92//3
f 1//4 4//2 90//1
f 5//5 6//6 1//4
f 3//7 10//8 5//5
f 6//6 8//9 4//2
f 14//10 8//9 6//6
f 7//11 9//12 3//7
f 9//12 11//13 10//8
f 7//11 12//14 9//12
f 10//8 13//15 14//10
f 11//13 13//15 10//8
f 12//14 15//16 11//13
f 7//11 15//16 12//14
f 15//16 17//17 11//13
f 14//10 16//18 7//11
f 13//15 16//18 14//10
f 17//17 18//19 16//18
f 16//18 22//20 15//16
f 20//21 19//22 17//17
f 18//19 21//23 16//18
f 19//22 23//24 18//19
f 23//24 24//25 21//23
f 19//22 25//26 23//24
f 20//21 26//27 19//22
f 22//20 26//27 20//21
f 21//23 27//28 22//20
f 25//26 31//29 24//25
f 27//28 28//30 26//27
f 25//26 30//31 31//29
f 26//27 30//31 25//26
f 28//30 30//31 26//27
f 30//31 34//32 31//29
f 28//30 33//33 30//31
f 33//33 35//34 32//35
f 33//33 36//36 35//34
f 29//37 39//38 28//30
f 34//32 37//39 29//37
f 40//40 38//41 34//32
f 39//38 36//36 33//33
f 36//36 41//42 40//40
f 40//40 42//43 38//41
f 41//42 42//43 40//40
f 42//43 43//44 37//39
f 43//44 44//45 36//36
f 44//45 45//46 41//42
f 42//43 46//47 43//44
f 46//47 48//48 44//45
f 42//43 51//49 46//47
f 45//46 49//50 47//51
f 44//45 49//50 45//46
f 48//48 49//50 44//45
f 51//49 48//48 46//47
f 47//51 50//52 42//43
f 51//49 52//53 48//48
f 50//52 53//54 51//49
f 52//53 55//55 49//50
f 53//54 56//56 51//49
f 54//57 53//54 50//52
f 55//55 57//58 54//57
f 56//56 59//59 52//53
f 53//54 61//60 56//56
f 57//58 61//60 53//54
f 58//61 60//62 57//58
f 59//59 60//62 58//61
f 57//58 62//63 61//60
f 60//62 63//64 62//63
f 64//65 60//62 59//59
f 65//66 59//59 61//60
f 62//63 65//66 61//60
f 64//65 68//67 63//64
f 63//64 67//68 65//66
f 68//67 69//69 67//68
f 66//70 70//71 68//67
f 67//68 71//72 66//70
f 69//69 71//72 67//68
f 70//71 72//73 69//69
f 71//72 74//74 70//71
f 69//69 75//75 71//72
f 72//73 79//76 75//75
f 73//77 76//78 72//73
f 75//75 78//79 74//74
f 78//79 81//80 77//81
f 76//78 83//82 79//76
f 77//81 80//83 76//78
f 79//76 82//84 78//79
f 83//82 84//85 82//84
f 81//80 85//86 80//83
f 83//82 86//87 84//85
f 80//83 87//88 83//82
f 81//80 88//89 85//86
f 86//87 89//90 84//85
f 85//86 87//88 80//83
f 86//87 2//91 89//90
f 89//90 91//92 88//89
f 91//92 1//4 87//88
f 90//1 92//3 86//87
f 92//3 3//7 2//91
f 2//91 5//5 1//4
f 2//91 3//7 5//5
f 92//3 4//2 3//7
f 1//4 6//6 4//2
f 4//2 7//11 3//7
f 4//2 8//9 7//11
f 5//5 14//10 6//6
f 3//7 9//12 10//8
f 5//5 10//8 14//10
f 9//12 12//14 11//13
f 8//9 14//10 7//11
f 11//13 17//17 13//15
f 7//11 16//18 15//16
f 13//15 17//17 16//18
f 17//17 19//22 18//19
f 15//16 20//21 17//17
f 15//16 22//20 20//21
f 16//18 21//23 22//20
f 18//19 23//24 21//23
f 23//24 25//26 24//25
f 19//22 26//27 25//26
f 22//20 27//28 26//27
f 21//23 29//37 27//28
f 21//23 24//25 29//37
f 27//28 29//37 28//30
f 24//25 31//29 29//37
f 30//31 32//35 34//32
f 30//31 33//33 32//35
f 31//29 34//32 29//37
f 32//35 35//34 34//32
f 35//34 40//40 34//32
f 35//34 36//36 40//40
f 29//37 37//39 39//38
f 34//32 38//41 37//39
f 28//30 39//38 33//33
f 38//41 42//43 37//39
f 37//39 43//44 39//38
f 39//38 43//44 36//36
f 36//36 44//45 41//42
f 41//42 47//51 42//43
f 41//42 45//46 47//51
f 43//44 46//47 44//45
f 47//51 49//50 50//52
f 42//43 50//52 51//49
f 49//50 54//57 50//52
f 48//48 52//53 49//50
f 49//50 55//55 54//57
f 51//49 56//56 52//53
f 52//53 58//61 55//55
f 55//55 58//61 57//58
f 52//53 59//59 58//61
f 54//57 57//58 53//54
f 56//56 61//60 59//59
f 57//58 60//62 62//63
f 64//65 63//64 60//62
f 65//66 64//65 59//59
f 62//63 63//64 65//66
f 64//65 66//70 68//67
f 65//66 66//70 64//65
f 65//66 67//68 66//70
f 63//64 68//67 67//68
f 68//67 70//71 69//69
f 66//70 71//72 70//71
f 70//71 73//77 72//73
f 70//71 74//74 73//77
f 71//72 75//75 74//74
f 69//69 72//73 75//75
f 74//74 77//81 73//77
f 73//77 77//81 76//78
f 74//74 78//79 77//81
f 75//75 79//76 78//79
f 72//73 76//78 79//76
f 77//81 81//80 80//83
f 78//79 82//84 81//80
f 79//76 83//82 82//84
f 76//78 80//83 83//82
f 82//84 84//85 81//80
f 84//85 89//90 81//80
f 83//82 87//88 86//87
f 85//86 88//89 87//88
f 81//80 89//90 88//89
f 87//88 90//1 86//87
f 88//89 91//92 87//88
f 89//90 2//91 91//92
f 87//88 1//4 90//1
f 86//87 92//3 2//91
f 91//92 2//91 1//4
