# Blender v2.79 (sub 0) OBJ File: 'world_countrycodes_outlines2.blend'
# www.blender.org
mtllib SR_outline.mtl
o SR.001_CUCurve.059
v 0.632644 0.000072 0.615359
v 0.633238 0.001974 0.616499
v 0.634695 -0.000795 0.619390
v 0.636392 -0.000956 0.617917
v 0.637167 0.001468 0.614396
v 0.637252 -0.000894 0.613871
v 0.637823 -0.002020 0.616921
v 0.640158 -0.000804 0.616177
v 0.637841 0.001892 0.616855
v 0.638949 0.001454 0.619467
v 0.639084 -0.000790 0.620095
v 0.650399 0.001927 0.618352
v 0.652647 -0.001903 0.617728
v 0.647479 -0.000641 0.615121
v 0.647967 0.001395 0.615729
v 0.649013 -0.000716 0.619362
v 0.653637 0.000685 0.617443
v 0.650702 0.000076 0.624929
v 0.650160 0.001415 0.624642
v 0.647773 0.001891 0.625264
v 0.649382 -0.001951 0.624538
v 0.646510 -0.000811 0.624510
v 0.650433 -0.002007 0.633425
v 0.651801 0.000852 0.630042
v 0.648116 -0.000759 0.631285
v 0.652000 -0.000894 0.635415
v 0.650796 0.001917 0.635659
v 0.647872 -0.000780 0.634989
v 0.648330 0.001868 0.636274
v 0.647044 -0.002013 0.637636
v 0.648330 -0.000162 0.641888
v 0.646173 0.000991 0.638683
v 0.641675 0.000772 0.639243
v 0.640232 0.001852 0.636409
v 0.639003 -0.000779 0.635762
v 0.640558 -0.001961 0.638243
v 0.637591 0.001221 0.639712
v 0.637550 -0.000761 0.639243
v 0.638321 -0.001983 0.641446
v 0.640823 -0.000819 0.642109
v 0.639749 0.001830 0.641794
v 0.635145 -0.000560 0.642939
v 0.635563 0.001941 0.641495
v 0.628498 0.001959 0.629457
v 0.630613 -0.000882 0.634411
v 0.630200 0.001003 0.628416
v 0.633670 -0.000683 0.632007
v 0.625762 0.000749 0.629223
v 0.629222 -0.001803 0.629080
v 0.626872 -0.001872 0.629329
v 0.628044 -0.000805 0.622429
v 0.628989 0.001826 0.622965
v 0.631079 0.001038 0.625342
v 0.629833 -0.001985 0.624272
v 0.630796 0.000657 0.621076
v 0.633920 0.001932 0.622544
v 0.633789 -0.001874 0.623187
v 0.635100 -0.000056 0.623275
v 0.631387 -0.001364 0.621283
v 0.634256 0.001369 0.618962
v 0.633046 -0.002015 0.616562
vn 0.8280 -0.4936 0.2659
vn 0.0821 0.9964 0.0207
vn 0.6487 0.7219 0.2408
vn -0.4298 -0.8544 -0.2921
vn 0.0029 -0.5586 0.8294
vn -0.6992 0.0281 -0.7143
vn 0.1730 -0.3914 -0.9038
vn 0.2113 0.6556 -0.7249
vn 0.0109 -0.9997 0.0231
vn 0.1651 -0.3069 -0.9373
vn -0.3008 0.6646 0.6839
vn -0.2365 -0.3766 0.8957
vn 0.0683 0.9974 -0.0223
vn 0.5786 -0.7691 -0.2715
vn 0.0528 -0.3896 -0.9195
vn 0.1171 0.6783 -0.7254
vn -0.5401 -0.6466 0.5386
vn 0.8777 0.3145 -0.3616
vn 0.5575 0.8253 0.0894
vn 0.9878 -0.1294 0.0862
vn 0.1794 -0.9837 0.0101
vn -0.9403 -0.3192 -0.1175
vn -0.5196 0.8543 -0.0115
vn 0.9200 0.3598 -0.1555
vn 0.1520 -0.9883 -0.0115
vn -0.8824 -0.4623 0.0872
vn 0.8950 -0.3610 0.2620
vn -0.1938 0.9807 -0.0262
vn -0.6906 -0.4110 -0.5951
vn -0.0750 -0.9717 0.2238
vn 0.5487 0.8064 0.2206
vn 0.0382 -0.0293 0.9988
vn -0.1930 0.6029 0.7741
vn 0.6243 0.4933 0.6058
vn 0.1005 -0.9947 0.0216
vn -0.2269 0.8259 -0.5161
vn -0.5446 -0.3144 -0.7775
vn -0.0249 0.9219 -0.3865
vn 0.3130 0.7727 0.5522
vn 0.6540 -0.3181 0.6863
vn 0.0212 -0.9443 0.3284
vn 0.0753 -0.6140 -0.7857
vn -0.4725 -0.2527 0.8443
vn -0.2882 0.8550 0.4310
vn -0.1334 0.9767 0.1682
vn 0.3811 -0.9229 -0.0553
vn -0.7614 -0.4367 0.4791
vn 0.8758 0.4664 -0.1244
vn 0.8301 -0.2227 -0.5112
vn -0.9205 0.3275 0.2130
vn -0.7056 -0.3494 -0.6164
vn -0.6036 -0.7742 0.1903
vn -0.4123 0.8319 -0.3713
vn 0.6666 0.5129 0.5410
vn 0.1182 -0.9930 -0.0008
vn -0.6245 0.4664 -0.6264
vn 0.4191 0.8842 0.2060
vn 0.3936 -0.8245 0.4065
vn -0.4944 -0.8248 -0.2745
vn 0.8792 -0.0094 0.4763
vn -0.4028 0.8610 -0.3103
usemtl SVGMat.3781
s 1
f 3//1 9//2 60//3
f 61//4 4//5 3//1
f 1//6 6//7 61//4
f 5//8 6//7 1//6
f 6//7 7//9 61//4
f 5//8 8//10 6//7
f 4//5 10//11 9//2
f 7//9 11//12 4//5
f 10//11 12//13 9//2
f 8//10 13//14 7//9
f 9//2 14//15 8//10
f 12//13 15//16 9//2
f 11//12 12//13 10//11
f 13//14 16//17 11//12
f 15//16 17//18 14//15
f 12//13 17//18 15//16
f 12//13 19//19 17//18
f 18//20 21//21 13//14
f 21//21 22//22 16//17
f 22//22 20//23 12//13
f 20//23 24//24 19//19
f 23//25 25//26 22//22
f 24//24 26//27 21//21
f 25//26 29//28 20//23
f 23//25 28//29 25//26
f 26//27 30//30 23//25
f 27//31 31//32 26//27
f 29//28 31//32 27//31
f 29//28 32//33 31//32
f 33//34 36//35 30//30
f 29//28 33//34 32//33
f 28//29 34//36 29//28
f 30//30 35//37 28//29
f 35//37 37//38 34//36
f 37//38 41//39 34//36
f 33//34 40//40 36//35
f 39//41 38//42 35//37
f 41//39 42//43 40//40
f 37//38 43//44 41//39
f 37//38 44//45 43//44
f 42//43 49//46 39//41
f 44//45 45//47 42//43
f 38//42 46//48 37//38
f 49//46 47//49 38//42
f 44//45 48//50 45//47
f 48//50 51//51 50//52
f 44//45 52//53 48//50
f 49//46 53//54 46//48
f 50//52 54//55 49//46
f 53//54 52//53 44//45
f 51//51 54//55 50//52
f 52//53 55//56 51//51
f 53//54 56//57 52//53
f 51//51 57//58 54//55
f 55//56 59//59 51//51
f 56//57 55//56 52//53
f 57//58 58//60 53//54
f 58//60 56//57 53//54
f 58//60 60//3 56//57
f 60//3 2//61 56//57
f 59//59 61//4 57//58
f 55//56 61//4 59//59
f 60//3 9//2 2//61
f 3//1 4//5 9//2
f 2//61 5//8 1//6
f 2//61 9//2 5//8
f 61//4 7//9 4//5
f 5//8 9//2 8//10
f 6//7 8//10 7//9
f 4//5 11//12 10//11
f 7//9 13//14 11//12
f 9//2 15//16 14//15
f 11//12 16//17 12//13
f 8//10 14//15 13//14
f 14//15 17//18 13//14
f 17//18 18//20 13//14
f 17//18 19//19 18//20
f 12//13 20//23 19//19
f 13//14 21//21 16//17
f 16//17 22//22 12//13
f 19//19 24//24 18//20
f 20//23 27//31 24//24
f 21//21 23//25 22//22
f 18//20 24//24 21//21
f 22//22 25//26 20//23
f 21//21 26//27 23//25
f 24//24 27//31 26//27
f 20//23 29//28 27//31
f 25//26 28//29 29//28
f 23//25 30//30 28//29
f 26//27 31//32 30//30
f 31//32 32//33 30//30
f 32//33 33//34 30//30
f 29//28 34//36 33//34
f 28//29 35//37 34//36
f 30//30 36//35 35//37
f 34//36 41//39 33//34
f 35//37 38//42 37//38
f 36//35 39//41 35//37
f 33//34 41//39 40//40
f 36//35 40//40 39//41
f 40//40 42//43 39//41
f 41//39 43//44 42//43
f 43//44 44//45 42//43
f 39//41 49//46 38//42
f 42//43 45//47 49//46
f 37//38 46//48 44//45
f 38//42 47//49 46//48
f 45//47 48//50 50//52
f 45//47 50//52 49//46
f 47//49 49//46 46//48
f 48//50 52//53 51//51
f 46//48 53//54 44//45
f 49//46 54//55 53//54
f 54//55 57//58 53//54
f 51//51 59//59 57//58
f 57//58 3//1 58//60
f 56//57 2//61 55//56
f 58//60 3//1 60//3
f 57//58 61//4 3//1
f 55//56 1//6 61//4
f 55//56 2//61 1//6
