# Blender v2.79 (sub 0) OBJ File: 'world_countrycodes_export2.blend'
# www.blender.org
mtllib SY.mtl
o SY.002_CUCurve.1842
v 1.160740 0.000000 0.451092
v 1.159091 0.000000 0.454031
v 1.159731 0.000000 0.456125
v 1.164857 0.000000 0.458799
v 1.167900 0.000000 0.456942
v 1.171190 0.000000 0.455657
v 1.177264 0.000000 0.452711
v 1.189753 0.000000 0.446126
v 1.190834 0.000000 0.444091
v 1.191122 0.000000 0.443021
v 1.190835 0.000000 0.441068
v 1.191161 0.000000 0.439179
v 1.191850 0.000000 0.437606
v 1.190973 0.000000 0.434974
v 1.191007 0.000000 0.433804
v 1.191633 0.000000 0.432610
v 1.193213 0.000000 0.431471
v 1.194685 0.000000 0.430889
v 1.198030 0.000000 0.428445
v 1.195826 0.000000 0.427817
v 1.191906 0.000000 0.428647
v 1.188825 0.000000 0.428660
v 1.187330 0.000000 0.428913
v 1.184299 0.000000 0.430501
v 1.182603 0.000000 0.430866
v 1.176762 0.000000 0.431266
v 1.175689 0.000000 0.430974
v 1.174872 0.000000 0.430140
v 1.174213 0.000000 0.430143
v 1.171807 0.000000 0.431368
v 1.169814 0.000000 0.432045
v 1.167756 0.000000 0.432010
v 1.166197 0.000000 0.431044
v 1.165159 0.000000 0.431235
v 1.164449 0.000000 0.432501
v 1.164181 0.000000 0.434426
v 1.163278 0.000000 0.435860
v 1.161053 0.000000 0.436664
v 1.160701 0.000000 0.438240
v 1.160812 0.000000 0.439089
v 1.161264 0.000000 0.439766
v 1.161252 0.000000 0.440797
v 1.160580 0.000000 0.443620
v 1.162041 0.000000 0.443702
v 1.163227 0.000000 0.444248
v 1.164014 0.000000 0.445528
v 1.163684 0.000000 0.447572
v 1.190973 0.050000 0.434974
v 1.191007 0.050000 0.433804
v 1.190834 0.050000 0.444091
v 1.164014 0.050000 0.445528
v 1.193213 0.050000 0.431471
v 1.176762 0.050000 0.431266
v 1.191850 0.050000 0.437606
v 1.163278 0.050000 0.435860
v 1.164181 0.050000 0.434426
v 1.194685 0.050000 0.430889
v 1.182603 0.050000 0.430866
v 1.177264 0.050000 0.452711
v 1.189753 0.050000 0.446126
v 1.160580 0.050000 0.443620
v 1.162041 0.050000 0.443702
v 1.160701 0.050000 0.438240
v 1.160812 0.050000 0.439089
v 1.171807 0.050000 0.431368
v 1.159091 0.050000 0.454031
v 1.159731 0.050000 0.456125
v 1.174872 0.050000 0.430140
v 1.174213 0.050000 0.430143
v 1.163684 0.050000 0.447572
v 1.184299 0.050000 0.430501
v 1.169814 0.050000 0.432045
v 1.167756 0.050000 0.432010
v 1.165159 0.050000 0.431235
v 1.164449 0.050000 0.432501
v 1.195826 0.050000 0.427817
v 1.191906 0.050000 0.428647
v 1.161264 0.050000 0.439766
v 1.191122 0.050000 0.443021
v 1.190835 0.050000 0.441068
v 1.187330 0.050000 0.428913
v 1.161252 0.050000 0.440797
v 1.191633 0.050000 0.432610
v 1.161053 0.050000 0.436664
v 1.166197 0.050000 0.431044
v 1.191161 0.050000 0.439179
v 1.188825 0.050000 0.428660
v 1.164857 0.050000 0.458799
v 1.160740 0.050000 0.451092
v 1.175689 0.050000 0.430974
v 1.163227 0.050000 0.444248
v 1.198030 0.050000 0.428445
v 1.167900 0.050000 0.456942
v 1.171190 0.050000 0.455657
vn 0.0000 -1.0000 0.0000
vn 0.0000 1.0000 -0.0000
vn 0.3676 0.0000 0.9300
vn -0.9729 0.0000 -0.2313
vn -0.9759 0.0000 -0.2184
vn -0.0042 0.0000 -1.0000
vn -0.0045 0.0000 -1.0000
vn -0.4188 0.0000 0.9081
vn -0.9873 0.0000 -0.1591
vn 0.5208 0.0000 0.8537
vn 0.9855 0.0000 0.1696
vn 0.5849 0.0000 0.8111
vn 0.9996 0.0000 0.0288
vn -0.8517 0.0000 0.5240
vn 0.5900 0.0000 0.8074
vn 0.0168 0.0000 -0.9999
vn -0.8462 0.0000 -0.5329
vn 0.2630 0.0000 -0.9648
vn -0.4625 0.0000 0.8866
vn -0.1665 0.0000 -0.9860
vn -0.3401 0.0000 -0.9404
vn -0.3217 0.0000 -0.9468
vn -0.8723 0.0000 -0.4889
vn -0.7672 0.0000 -0.6414
vn -0.9904 0.0000 -0.1381
vn -0.2071 0.0000 -0.9783
vn -0.0683 0.0000 -0.9977
vn -0.8318 0.0000 0.5550
vn 0.9487 0.0000 -0.3160
vn -0.9999 0.0000 -0.0119
vn 0.8832 0.0000 0.4689
vn -0.2106 0.0000 -0.9776
vn 0.4664 0.0000 0.8846
vn 0.5267 0.0000 -0.8501
vn 0.9656 0.0000 0.2599
vn -0.4641 0.0000 -0.8858
vn 0.9894 0.0000 -0.1451
vn -0.0558 0.0000 0.9984
vn -0.8721 0.0000 -0.4894
vn 0.3639 0.0000 0.9314
vn 0.2741 0.0000 -0.9617
vn 0.4364 0.0000 0.8998
vn -0.9915 0.0000 0.1301
vn 0.9159 0.0000 0.4013
vn 0.7141 0.0000 -0.7000
vn -0.1806 0.0000 -0.9836
vn 0.8856 0.0000 0.4645
vn -0.9564 0.0000 0.2922
vn -0.4536 0.0000 -0.8912
usemtl SVGMat.3781
s off
f 21//1 20//1 19//1
f 21//1 19//1 18//1
f 23//1 22//1 21//1
f 23//1 21//1 18//1
f 24//1 23//1 18//1
f 29//1 28//1 27//1
f 30//1 29//1 27//1
f 25//1 24//1 18//1
f 26//1 25//1 18//1
f 26//1 18//1 17//1
f 30//1 27//1 26//1
f 30//1 26//1 17//1
f 34//1 33//1 32//1
f 31//1 30//1 17//1
f 31//1 17//1 16//1
f 35//1 34//1 32//1
f 32//1 31//1 16//1
f 35//1 32//1 16//1
f 36//1 35//1 16//1
f 36//1 16//1 15//1
f 36//1 15//1 14//1
f 37//1 36//1 14//1
f 37//1 14//1 13//1
f 38//1 37//1 13//1
f 39//1 38//1 13//1
f 39//1 13//1 12//1
f 40//1 39//1 12//1
f 41//1 40//1 12//1
f 41//1 12//1 11//1
f 42//1 41//1 11//1
f 43//1 42//1 11//1
f 43//1 11//1 10//1
f 43//1 10//1 9//1
f 44//1 43//1 9//1
f 45//1 44//1 9//1
f 46//1 45//1 9//1
f 46//1 9//1 8//1
f 47//1 46//1 8//1
f 47//1 8//1 7//1
f 1//1 47//1 7//1
f 2//1 1//1 7//1
f 3//1 2//1 7//1
f 3//1 7//1 6//1
f 3//1 6//1 5//1
f 4//1 3//1 5//1
f 77//2 92//2 76//2
f 77//2 57//2 92//2
f 81//2 77//2 87//2
f 81//2 57//2 77//2
f 71//2 57//2 81//2
f 69//2 90//2 68//2
f 65//2 90//2 69//2
f 58//2 57//2 71//2
f 53//2 57//2 58//2
f 53//2 52//2 57//2
f 65//2 53//2 90//2
f 65//2 52//2 53//2
f 74//2 73//2 85//2
f 72//2 52//2 65//2
f 72//2 83//2 52//2
f 75//2 73//2 74//2
f 73//2 83//2 72//2
f 75//2 83//2 73//2
f 56//2 83//2 75//2
f 56//2 49//2 83//2
f 56//2 48//2 49//2
f 55//2 48//2 56//2
f 55//2 54//2 48//2
f 84//2 54//2 55//2
f 63//2 54//2 84//2
f 63//2 86//2 54//2
f 64//2 86//2 63//2
f 78//2 86//2 64//2
f 78//2 80//2 86//2
f 82//2 80//2 78//2
f 61//2 80//2 82//2
f 61//2 79//2 80//2
f 61//2 50//2 79//2
f 62//2 50//2 61//2
f 91//2 50//2 62//2
f 51//2 50//2 91//2
f 51//2 60//2 50//2
f 70//2 60//2 51//2
f 70//2 59//2 60//2
f 89//2 59//2 70//2
f 66//2 59//2 89//2
f 67//2 59//2 66//2
f 67//2 94//2 59//2
f 67//2 93//2 94//2
f 88//2 93//2 67//2
f 17//3 18//3 57//3 52//3
f 42//4 43//4 61//4 82//4
f 38//5 39//5 63//5 84//5
f 28//6 29//6 69//6 68//6
f 21//7 22//7 87//7 77//7
f 44//8 45//8 91//8 62//8
f 46//9 47//9 70//9 51//9
f 4//10 5//10 93//10 88//10
f 11//11 12//11 86//11 80//11
f 16//12 17//12 52//12 83//12
f 14//13 15//13 49//13 48//13
f 45//14 46//14 51//14 91//14
f 18//15 19//15 92//15 57//15
f 31//16 32//16 73//16 72//16
f 36//17 37//17 55//17 56//17
f 26//18 27//18 90//18 53//18
f 3//19 4//19 88//19 67//19
f 22//20 23//20 81//20 87//20
f 37//21 38//21 84//21 55//21
f 30//22 31//22 72//22 65//22
f 34//23 35//23 75//23 74//23
f 47//24 1//24 89//24 70//24
f 35//25 36//25 56//25 75//25
f 20//26 21//26 77//26 76//26
f 25//27 26//27 53//27 58//27
f 40//28 41//28 78//28 64//28
f 13//29 14//29 48//29 54//29
f 41//30 42//30 82//30 78//30
f 8//31 9//31 50//31 60//31
f 24//32 25//32 58//32 71//32
f 7//33 8//33 60//33 59//33
f 32//34 33//34 85//34 73//34
f 9//35 10//35 79//35 50//35
f 23//36 24//36 71//36 81//36
f 10//37 11//37 80//37 79//37
f 43//38 44//38 62//38 61//38
f 1//39 2//39 66//39 89//39
f 5//40 6//40 94//40 93//40
f 19//41 20//41 76//41 92//41
f 6//42 7//42 59//42 94//42
f 39//43 40//43 64//43 63//43
f 12//44 13//44 54//44 86//44
f 27//45 28//45 68//45 90//45
f 33//46 34//46 74//46 85//46
f 15//47 16//47 83//47 49//47
f 2//48 3//48 67//48 66//48
f 29//49 30//49 65//49 69//49
