# Blender v2.79 (sub 0) OBJ File: 'world_countrycodes_export2.blend'
# www.blender.org
mtllib TD.mtl
o TD.002_CUCurve.1852
v 1.050029 0.000000 0.514337
v 1.044949 0.000000 0.517158
v 1.045334 0.000000 0.524979
v 1.047126 0.000000 0.527647
v 1.047616 0.000000 0.528974
v 1.047666 0.000000 0.530550
v 1.048511 0.000000 0.532085
v 1.048832 0.000000 0.533212
v 1.048114 0.000000 0.535981
v 1.047657 0.000000 0.539063
v 1.047540 0.000000 0.549102
v 1.047074 0.000000 0.554008
v 1.043606 0.000000 0.557508
v 1.039198 0.000000 0.562886
v 1.038046 0.000000 0.564929
v 1.037547 0.000000 0.566781
v 1.036757 0.000000 0.568712
v 1.036737 0.000000 0.572109
v 1.037156 0.000000 0.572392
v 1.038104 0.000000 0.573485
v 1.038902 0.000000 0.574902
v 1.039745 0.000000 0.575570
v 1.040972 0.000000 0.575764
v 1.041915 0.000000 0.576460
v 1.043089 0.000000 0.578027
v 1.043985 0.000000 0.580361
v 1.043986 0.000000 0.581867
v 1.044646 0.000000 0.584368
v 1.044690 0.000000 0.587375
v 1.045323 0.000000 0.590094
v 1.046760 0.000000 0.592865
v 1.047316 0.000000 0.593435
v 1.046890 0.000000 0.593824
v 1.045334 0.000000 0.593974
v 1.041073 0.000000 0.593946
v 1.039866 0.000000 0.594355
v 1.039613 0.000000 0.596018
v 1.039972 0.000000 0.597297
v 1.040639 0.000000 0.598241
v 1.044396 0.000000 0.601301
v 1.045599 0.000000 0.602795
v 1.046314 0.000000 0.605204
v 1.047978 0.000000 0.608235
v 1.049009 0.000000 0.608481
v 1.050305 0.000000 0.607914
v 1.051704 0.000000 0.606356
v 1.052556 0.000000 0.606489
v 1.054011 0.000000 0.607310
v 1.054617 0.000000 0.607145
v 1.055581 0.000000 0.606270
v 1.057400 0.000000 0.605668
v 1.060690 0.000000 0.605190
v 1.062845 0.000000 0.604227
v 1.066080 0.000000 0.602408
v 1.066474 0.000000 0.601813
v 1.065963 0.000000 0.600426
v 1.065976 0.000000 0.599768
v 1.066906 0.000000 0.599117
v 1.071251 0.000000 0.599049
v 1.073784 0.000000 0.598424
v 1.077016 0.000000 0.594979
v 1.080498 0.000000 0.591674
v 1.080697 0.000000 0.590378
v 1.081137 0.000000 0.589542
v 1.082646 0.000000 0.588286
v 1.084469 0.000000 0.587413
v 1.085588 0.000000 0.587334
v 1.086334 0.000000 0.587616
v 1.087002 0.000000 0.587710
v 1.087561 0.000000 0.585054
v 1.085731 0.000000 0.583775
v 1.084729 0.000000 0.581939
v 1.084903 0.000000 0.578684
v 1.084478 0.000000 0.577514
v 1.083095 0.000000 0.577299
v 1.082415 0.000000 0.576879
v 1.082140 0.000000 0.576165
v 1.082302 0.000000 0.575122
v 1.083300 0.000000 0.573779
v 1.083245 0.000000 0.572729
v 1.082503 0.000000 0.570930
v 1.082561 0.000000 0.570159
v 1.084273 0.000000 0.569780
v 1.084767 0.000000 0.568786
v 1.084977 0.000000 0.566806
v 1.085374 0.000000 0.565983
v 1.086915 0.000000 0.565389
v 1.087794 0.000000 0.563924
v 1.087939 0.000000 0.561990
v 1.088526 0.000000 0.561053
v 1.090586 0.000000 0.559904
v 1.093029 0.000000 0.559084
v 1.093550 0.000000 0.557107
v 1.093493 0.000000 0.553170
v 1.093323 0.000000 0.537615
v 1.039972 0.050000 0.597297
v 1.040639 0.050000 0.598241
v 1.083300 0.050000 0.573779
v 1.083245 0.050000 0.572729
v 1.045323 0.050000 0.590094
v 1.080697 0.050000 0.590378
v 1.052556 0.050000 0.606489
v 1.055581 0.050000 0.606270
v 1.039613 0.050000 0.596018
v 1.077016 0.050000 0.594979
v 1.043986 0.050000 0.581867
v 1.085731 0.050000 0.583775
v 1.037156 0.050000 0.572392
v 1.073784 0.050000 0.598424
v 1.045334 0.050000 0.593974
v 1.041073 0.050000 0.593946
v 1.043089 0.050000 0.578027
v 1.043985 0.050000 0.580361
v 1.040972 0.050000 0.575764
v 1.041915 0.050000 0.576460
v 1.082646 0.050000 0.588286
v 1.084469 0.050000 0.587413
v 1.038104 0.050000 0.573485
v 1.047074 0.050000 0.554008
v 1.043606 0.050000 0.557508
v 1.082503 0.050000 0.570930
v 1.036757 0.050000 0.568712
v 1.082561 0.050000 0.570159
v 1.093323 0.050000 0.537615
v 1.050029 0.050000 0.514337
v 1.048114 0.050000 0.535981
v 1.047657 0.050000 0.539063
v 1.060690 0.050000 0.605190
v 1.062845 0.050000 0.604227
v 1.039198 0.050000 0.562886
v 1.038046 0.050000 0.564929
v 1.066906 0.050000 0.599117
v 1.071251 0.050000 0.599049
v 1.044646 0.050000 0.584368
v 1.085588 0.050000 0.587334
v 1.048832 0.050000 0.533212
v 1.090586 0.050000 0.559904
v 1.093029 0.050000 0.559084
v 1.087002 0.050000 0.587710
v 1.087561 0.050000 0.585054
v 1.084273 0.050000 0.569780
v 1.047978 0.050000 0.608235
v 1.049009 0.050000 0.608481
v 1.080498 0.050000 0.591674
v 1.039745 0.050000 0.575570
v 1.083095 0.050000 0.577299
v 1.044949 0.050000 0.517158
v 1.051704 0.050000 0.606356
v 1.050305 0.050000 0.607914
v 1.054011 0.050000 0.607310
v 1.084903 0.050000 0.578684
v 1.086334 0.050000 0.587616
v 1.082302 0.050000 0.575122
v 1.046760 0.050000 0.592865
v 1.047316 0.050000 0.593435
v 1.057400 0.050000 0.605668
v 1.047126 0.050000 0.527647
v 1.048511 0.050000 0.532085
v 1.082140 0.050000 0.576165
v 1.084729 0.050000 0.581939
v 1.065963 0.050000 0.600426
v 1.065976 0.050000 0.599768
v 1.088526 0.050000 0.561053
v 1.047540 0.050000 0.549102
v 1.044690 0.050000 0.587375
v 1.084478 0.050000 0.577514
v 1.045334 0.050000 0.524979
v 1.082415 0.050000 0.576879
v 1.046890 0.050000 0.593824
v 1.085374 0.050000 0.565983
v 1.086915 0.050000 0.565389
v 1.081137 0.050000 0.589542
v 1.066080 0.050000 0.602408
v 1.093550 0.050000 0.557107
v 1.087939 0.050000 0.561990
v 1.084977 0.050000 0.566806
v 1.047616 0.050000 0.528974
v 1.093493 0.050000 0.553170
v 1.087794 0.050000 0.563924
v 1.046314 0.050000 0.605204
v 1.047666 0.050000 0.530550
v 1.045599 0.050000 0.602795
v 1.044396 0.050000 0.601301
v 1.066474 0.050000 0.601813
v 1.037547 0.050000 0.566781
v 1.054617 0.050000 0.607145
v 1.036737 0.050000 0.572109
v 1.038902 0.050000 0.574902
v 1.039866 0.050000 0.594355
v 1.084767 0.050000 0.568786
vn 0.0000 -1.0000 0.0000
vn 0.0000 1.0000 -0.0000
vn 0.0000 1.0000 -0.0001
vn 0.0701 0.0000 0.9975
vn 0.9971 0.0000 0.0759
vn 0.8026 0.0000 0.5966
vn -0.7159 0.0000 0.6982
vn -0.9955 0.0000 -0.0946
vn 0.4736 0.0000 -0.8808
vn 0.6726 0.0000 0.7400
vn 0.4902 0.0000 0.8716
vn -0.8765 0.0000 0.4814
vn 0.1439 0.0000 0.9896
vn 0.8335 0.0000 0.5525
vn -0.9892 0.0000 -0.1466
vn -0.5597 0.0000 0.8287
vn -0.7789 0.0000 0.6271
vn 0.4080 0.0000 0.9130
vn -0.9680 0.0000 -0.2509
vn 0.9944 0.0000 0.1053
vn -0.9618 0.0000 0.2738
vn -0.6742 0.0000 -0.7386
vn -0.8711 0.0000 -0.4911
vn -0.1544 0.0000 0.9880
vn 0.2613 0.0000 0.9653
vn 0.0157 0.0000 0.9999
vn 0.8776 0.0000 -0.4794
vn -1.0000 0.0000 -0.0059
vn 0.7441 0.0000 0.6681
vn -0.3208 0.0000 -0.9471
vn -0.9655 0.0000 -0.2603
vn -0.0955 0.0000 -0.9954
vn 0.9332 0.0000 -0.3594
vn -0.4856 0.0000 -0.8742
vn 0.3184 0.0000 0.9480
vn 0.9972 0.0000 0.0747
vn 0.9986 0.0000 0.0535
vn 0.9785 0.0000 0.2062
vn 0.8475 0.0000 0.5308
vn -0.9988 0.0000 0.0492
vn 0.9998 0.0000 0.0206
vn 0.2163 0.0000 0.9763
vn -0.9587 0.0000 0.2845
vn 0.9009 0.0000 0.4341
vn -0.7554 0.0000 0.6553
vn -0.2315 0.0000 0.9728
vn 0.1531 0.0000 -0.9882
vn -0.8168 0.0000 0.5769
vn -0.9383 0.0000 0.3458
vn -0.9668 0.0000 0.2554
vn 0.9382 0.0000 -0.3460
vn 0.9881 0.0000 0.1539
vn 0.9986 0.0000 -0.0526
vn -0.9999 0.0000 -0.0116
vn 0.2398 0.0000 0.9708
vn 0.9884 0.0000 0.1521
vn -0.9739 0.0000 0.2270
vn 0.3139 0.0000 0.9494
vn -0.9999 0.0000 0.0144
vn -0.1565 0.0000 0.9877
vn -0.8712 0.0000 0.4909
vn 0.9999 0.0000 -0.0109
vn -0.8301 0.0000 0.5576
vn 0.8575 0.0000 0.5146
vn 0.5255 0.0000 -0.8508
vn -1.0000 0.0000 0.0007
vn 0.8850 0.0000 0.4657
vn 0.5732 0.0000 0.8194
vn -0.9887 0.0000 -0.1498
vn 0.7292 0.0000 0.6843
vn -0.9255 0.0000 -0.3787
vn -0.8761 0.0000 0.4821
vn -0.9995 0.0000 0.0320
vn 0.0066 0.0000 -1.0000
vn 0.9398 0.0000 -0.3417
vn 0.5730 0.0000 -0.8196
vn -0.4912 0.0000 0.8711
vn -0.9336 0.0000 0.3583
vn 0.6885 0.0000 0.7253
vn 0.8954 0.0000 0.4453
vn -0.7734 0.0000 -0.6339
vn -0.5935 0.0000 0.8048
vn -0.6213 0.0000 0.7836
vn -0.8878 0.0000 0.4603
vn 0.4008 0.0000 0.9162
vn -0.1390 0.0000 0.9903
vn 0.4320 0.0000 0.9019
vn -0.6314 0.0000 0.7754
vn -0.9629 0.0000 0.2697
vn 0.9999 0.0000 -0.0146
vn 0.4870 0.0000 0.8734
vn -0.8004 0.0000 0.5995
vn -0.7103 0.0000 -0.7039
vn 0.9670 0.0000 0.2547
vn 0.3595 0.0000 0.9332
vn 0.9244 0.0000 -0.3814
vn -0.3537 0.0000 0.9353
vn 0.6399 0.0000 0.7685
usemtl SVGMat.3781
s off
f 2//1 1//1 95//1
f 3//1 2//1 95//1
f 4//1 3//1 95//1
f 5//1 4//1 95//1
f 6//1 5//1 95//1
f 7//1 6//1 95//1
f 8//1 7//1 95//1
f 9//1 8//1 95//1
f 10//1 9//1 95//1
f 11//1 10//1 95//1
f 11//1 95//1 94//1
f 12//1 11//1 94//1
f 12//1 94//1 93//1
f 13//1 12//1 93//1
f 13//1 93//1 92//1
f 13//1 92//1 91//1
f 14//1 13//1 91//1
f 14//1 91//1 90//1
f 14//1 90//1 89//1
f 14//1 89//1 88//1
f 15//1 14//1 88//1
f 15//1 88//1 87//1
f 16//1 15//1 87//1
f 16//1 87//1 86//1
f 16//1 86//1 85//1
f 16//1 85//1 84//1
f 17//1 16//1 84//1
f 17//1 84//1 83//1
f 17//1 83//1 82//1
f 17//1 82//1 81//1
f 18//1 17//1 81//1
f 18//1 81//1 80//1
f 19//1 18//1 80//1
f 19//1 80//1 79//1
f 20//1 19//1 79//1
f 21//1 20//1 79//1
f 21//1 79//1 78//1
f 22//1 21//1 78//1
f 23//1 22//1 78//1
f 23//1 78//1 77//1
f 24//1 23//1 77//1
f 24//1 77//1 76//1
f 25//1 24//1 76//1
f 25//1 76//1 75//1
f 25//1 75//1 74//1
f 25//1 74//1 73//1
f 26//1 25//1 73//1
f 26//1 73//1 72//1
f 27//1 26//1 72//1
f 27//1 72//1 71//1
f 28//1 27//1 71//1
f 28//1 71//1 70//1
f 28//1 70//1 67//1
f 67//1 70//1 69//1
f 29//1 28//1 67//1
f 29//1 67//1 66//1
f 68//1 67//1 69//1
f 29//1 66//1 65//1
f 30//1 29//1 65//1
f 30//1 65//1 64//1
f 30//1 64//1 63//1
f 30//1 63//1 62//1
f 31//1 30//1 62//1
f 32//1 31//1 62//1
f 32//1 62//1 61//1
f 33//1 32//1 61//1
f 34//1 33//1 61//1
f 35//1 34//1 61//1
f 36//1 35//1 61//1
f 37//1 36//1 61//1
f 37//1 61//1 60//1
f 38//1 37//1 60//1
f 39//1 38//1 60//1
f 39//1 60//1 59//1
f 39//1 59//1 58//1
f 40//1 39//1 58//1
f 40//1 58//1 57//1
f 40//1 57//1 56//1
f 40//1 56//1 55//1
f 41//1 40//1 55//1
f 41//1 55//1 54//1
f 41//1 54//1 53//1
f 42//1 41//1 53//1
f 42//1 53//1 52//1
f 42//1 52//1 51//1
f 42//1 51//1 50//1
f 42//1 50//1 46//1
f 47//1 46//1 50//1
f 43//1 42//1 46//1
f 47//1 50//1 49//1
f 48//1 47//1 49//1
f 43//1 46//1 45//1
f 43//1 45//1 44//1
f 147//2 124//2 125//2
f 167//2 124//2 147//2
f 157//2 124//2 167//2
f 177//2 124//2 157//2
f 181//2 124//2 177//2
f 158//2 124//2 181//2
f 136//2 124//2 158//2
f 126//2 124//2 136//2
f 127//2 124//2 126//2
f 164//2 124//2 127//2
f 164//2 178//2 124//2
f 119//2 178//2 164//2
f 119//2 174//2 178//2
f 120//2 174//2 119//2
f 120//2 138//2 174//2
f 120//2 137//2 138//2
f 130//2 137//2 120//2
f 130//2 163//2 137//2
f 130//2 175//2 163//2
f 130//2 179//2 175//2
f 131//2 179//2 130//2
f 131//2 171//2 179//2
f 185//2 171//2 131//2
f 185//2 170//2 171//2
f 185//2 176//2 170//2
f 185//2 190//2 176//2
f 122//2 190//2 185//2
f 122//2 141//2 190//2
f 122//2 123//2 141//2
f 122//2 121//2 123//2
f 187//2 121//2 122//2
f 187//2 99//2 121//2
f 108//2 99//2 187//2
f 108//2 98//2 99//2
f 118//2 98//2 108//2
f 188//2 98//2 118//2
f 188//2 153//2 98//2
f 145//2 153//2 188//2
f 114//2 153//2 145//2
f 114//2 159//2 153//2
f 115//2 159//2 114//2
f 115//2 168//2 159//2
f 112//2 168//2 115//2
f 112//2 146//2 168//2
f 112//2 166//2 146//2
f 112//2 151//2 166//2
f 113//2 151//2 112//2
f 113//2 160//2 151//2
f 106//2 160//2 113//2
f 106//2 107//2 160//2
f 134//2 107//2 106//2
f 134//2 140//2 107//2
f 134//2 135//2 140//2
f 135//2 139//2 140//2
f 165//2 135//2 134//2
f 165//2 117//2 135//2
f 152//2 139//2 135//2
f 165//2 116//2 117//2
f 100//2 116//2 165//2
f 100//2 172//2 116//2
f 100//2 101//2 172//2
f 100//2 144//2 101//2
f 154//2 144//2 100//2
f 155//2 144//2 154//2
f 155//2 105//2 144//2
f 169//2 105//2 155//2
f 110//2 105//2 169//2
f 111//3 105//3 110//3
f 189//2 105//2 111//2
f 104//2 105//2 189//2
f 104//2 109//2 105//2
f 96//2 109//2 104//2
f 97//2 109//2 96//2
f 97//2 133//2 109//2
f 97//2 132//2 133//2
f 183//2 132//2 97//2
f 183//2 162//2 132//2
f 183//2 161//2 162//2
f 183//2 184//2 161//2
f 182//2 184//2 183//2
f 182//2 173//2 184//2
f 182//2 129//2 173//2
f 180//2 129//2 182//2
f 180//2 128//2 129//2
f 180//2 156//2 128//2
f 180//2 103//2 156//2
f 180//2 148//2 103//2
f 102//2 103//2 148//2
f 142//2 148//2 180//2
f 102//2 186//2 103//2
f 150//2 186//2 102//2
f 142//2 149//2 148//2
f 142//2 143//2 149//2
f 66//4 67//4 135//4 117//4
f 81//5 82//5 123//5 121//5
f 78//6 79//6 98//6 153//6
f 31//7 32//7 155//7 154//7
f 11//8 12//8 119//8 164//8
f 95//9 1//9 125//9 124//9
f 49//10 50//10 103//10 186//10
f 53//11 54//11 173//11 129//11
f 42//12 43//12 142//12 180//12
f 51//13 52//13 128//13 156//13
f 54//14 55//14 184//14 173//14
f 9//15 10//15 127//15 126//15
f 18//16 19//16 108//16 187//16
f 40//17 41//17 182//17 183//17
f 52//18 53//18 129//18 128//18
f 8//19 9//19 126//19 136//19
f 84//20 85//20 176//20 190//20
f 7//21 8//21 136//21 158//21
f 32//22 33//22 169//22 155//22
f 14//23 15//23 131//23 130//23
f 46//24 47//24 102//24 148//24
f 48//25 49//25 186//25 150//25
f 58//26 59//26 133//26 132//26
f 71//27 72//27 160//27 107//27
f 17//28 18//28 187//28 122//28
f 45//29 46//29 148//29 149//29
f 35//30 36//30 189//30 111//30
f 15//31 16//31 185//31 131//31
f 33//32 34//32 110//32 169//32
f 76//33 77//33 159//33 168//33
f 1//34 2//34 147//34 125//34
f 91//35 92//35 138//35 137//35
f 88//36 89//36 175//36 179//36
f 72//37 73//37 151//37 160//37
f 69//38 70//38 140//38 139//38
f 89//39 90//39 163//39 175//39
f 2//40 3//40 167//40 147//40
f 56//41 57//41 162//41 161//41
f 82//42 83//42 141//42 123//42
f 41//43 42//43 180//43 182//43
f 85//44 86//44 170//44 176//44
f 19//45 20//45 118//45 108//45
f 43//46 44//46 143//46 142//46
f 74//47 75//47 146//47 166//47
f 38//48 39//48 97//48 96//48
f 4//49 5//49 177//49 157//49
f 27//50 28//50 134//50 106//50
f 55//51 56//51 161//51 184//51
f 77//52 78//52 153//52 159//52
f 79//53 80//53 99//53 98//53
f 10//54 11//54 164//54 127//54
f 59//55 60//55 109//55 133//55
f 62//56 63//56 101//56 144//56
f 29//57 30//57 100//57 165//57
f 50//58 51//58 156//58 103//58
f 28//59 29//59 165//59 134//59
f 22//60 23//60 114//60 145//60
f 20//61 21//61 188//61 118//61
f 94//62 95//62 124//62 178//62
f 3//63 4//63 157//63 167//63
f 87//64 88//64 179//64 171//64
f 75//65 76//65 168//65 146//65
f 26//66 27//66 106//66 113//66
f 63//67 64//67 172//67 101//67
f 57//68 58//68 132//68 162//68
f 36//69 37//69 104//69 189//69
f 60//70 61//70 105//70 109//70
f 16//71 17//71 122//71 185//71
f 6//72 7//72 158//72 181//72
f 5//73 6//73 181//73 177//73
f 34//74 35//74 111//74 110//74
f 73//75 74//75 166//75 151//75
f 70//76 71//76 107//76 140//76
f 47//77 48//77 150//77 102//77
f 25//78 26//78 113//78 112//78
f 61//79 62//79 144//79 105//79
f 83//80 84//80 190//80 141//80
f 13//81 14//81 130//81 120//81
f 23//82 24//82 115//82 114//82
f 21//83 22//83 145//83 188//83
f 30//84 31//84 154//84 100//84
f 44//85 45//85 149//85 143//85
f 68//86 69//86 139//86 152//86
f 65//87 66//87 117//87 116//87
f 39//88 40//88 183//88 97//88
f 37//89 38//89 96//89 104//89
f 93//90 94//90 178//90 174//90
f 90//91 91//91 137//91 163//91
f 24//92 25//92 112//92 115//92
f 12//93 13//93 120//93 119//93
f 92//94 93//94 174//94 138//94
f 86//95 87//95 171//95 170//95
f 80//96 81//96 121//96 99//96
f 67//97 68//97 152//97 135//97
f 64//98 65//98 116//98 172//98
