# Blender v2.79 (sub 0) OBJ File: 'world_countrycodes_outlines2.blend'
# www.blender.org
mtllib TD_outline.mtl
o TD.001_CUCurve.1678
v 1.094376 0.001831 0.559333
v 1.091575 0.000862 0.557491
v 1.092580 -0.001936 0.558374
v 1.087165 0.001949 0.561357
v 1.086809 -0.000865 0.559775
v 1.088717 -0.001953 0.561802
v 1.089931 0.000769 0.562398
v 1.087309 0.001950 0.566042
v 1.085789 0.000769 0.563669
v 1.086652 -0.001973 0.564879
v 1.089066 -0.000680 0.566187
v 1.083319 -0.000075 0.564792
v 1.086232 0.000679 0.570677
v 1.082886 0.000761 0.568095
v 1.083648 -0.002020 0.570467
v 1.086635 -0.001223 0.567885
v 1.084473 0.000019 0.571632
v 1.084072 0.001831 0.571116
v 1.081474 0.001901 0.569901
v 1.080554 -0.001354 0.569731
v 1.085437 -0.000687 0.573871
v 1.081248 -0.000891 0.573191
v 1.083848 0.001330 0.575734
v 1.084085 -0.001043 0.575692
v 1.080129 -0.000008 0.577768
v 1.081129 0.001755 0.575414
v 1.081322 -0.001888 0.576940
v 1.083037 0.000951 0.579143
v 1.083250 -0.001774 0.578997
v 1.086516 0.000013 0.576431
v 1.085648 -0.001909 0.577552
v 1.085825 0.001862 0.577931
v 1.086794 -0.000825 0.582138
v 1.086035 0.001948 0.583005
v 1.082898 0.000688 0.583206
v 1.084939 0.000899 0.585123
v 1.085290 -0.001006 0.585606
v 1.088328 -0.001934 0.584422
v 1.089801 0.000695 0.584098
v 1.087625 0.001459 0.588911
v 1.087616 -0.001869 0.588386
v 1.084647 -0.000625 0.589359
v 1.080456 0.001998 0.589263
v 1.083013 -0.001933 0.586994
v 1.082196 0.001406 0.591131
v 1.078832 -0.000808 0.589892
v 1.081235 -0.001933 0.590625
v 1.082433 -0.000658 0.592078
v 1.074209 0.000688 0.600570
v 1.072927 0.001946 0.598013
v 1.074028 -0.001921 0.599286
v 1.072346 -0.000747 0.596931
v 1.068008 0.000743 0.600711
v 1.064563 0.000978 0.598014
v 1.065338 0.001981 0.600983
v 1.066310 -0.000817 0.597271
v 1.064986 -0.001914 0.599637
v 1.067900 0.001471 0.602806
v 1.064766 -0.001368 0.602033
v 1.067124 -0.001754 0.600496
v 1.068226 -0.000881 0.603119
v 1.057753 0.000442 0.607929
v 1.056274 -0.001934 0.607109
v 1.064186 0.000213 0.601650
v 1.054117 0.001967 0.608029
v 1.053996 0.001373 0.605350
v 1.053968 -0.000794 0.604908
v 1.054522 -0.000703 0.609443
v 1.051051 0.001969 0.605657
v 1.052346 -0.000271 0.608742
v 1.051391 -0.001483 0.604584
v 1.048979 -0.000832 0.606420
v 1.048741 0.001940 0.607852
v 1.048257 -0.001922 0.609539
v 1.050001 0.001031 0.610225
v 1.046527 0.000779 0.609852
v 1.044037 -0.001387 0.603160
v 1.043604 0.000777 0.603288
v 1.046927 0.000760 0.601109
v 1.046094 -0.001966 0.601825
v 1.037993 -0.000888 0.598231
v 1.039097 0.001908 0.597911
v 1.040869 0.001228 0.595728
v 1.041416 -0.000760 0.595970
v 1.038993 -0.001957 0.593636
v 1.037879 0.000017 0.593212
v 1.039133 0.001845 0.593268
v 1.044883 0.000003 0.592261
v 1.046268 0.001989 0.593422
v 1.045779 -0.001803 0.593194
v 1.047893 0.000618 0.595742
v 1.048462 -0.001935 0.594061
v 1.049351 0.000959 0.593462
v 1.046957 0.000677 0.589302
v 1.046029 -0.001336 0.585956
v 1.042981 0.000795 0.589615
v 1.042778 -0.001367 0.582763
v 1.042191 0.000797 0.581781
v 1.044525 0.001966 0.579243
v 1.046013 0.000486 0.579728
v 1.040686 0.000798 0.577846
v 1.040675 0.001984 0.574785
v 1.042886 -0.001921 0.575796
v 1.041045 -0.000097 0.573599
v 1.040450 -0.001964 0.575854
v 1.038457 -0.001393 0.576507
v 1.038030 0.000770 0.576895
v 1.035919 0.001921 0.572447
v 1.038349 0.000846 0.570558
v 1.037833 -0.001387 0.570675
v 1.035398 -0.001662 0.573257
v 1.034945 0.000776 0.568064
v 1.036385 -0.001832 0.565503
v 1.037614 0.001954 0.563566
v 1.040620 0.000166 0.564383
v 1.037289 -0.000032 0.561884
v 1.046468 0.001947 0.553312
v 1.047960 -0.001941 0.554078
v 1.045400 -0.000810 0.552777
v 1.048946 0.000829 0.554781
v 1.050442 -0.000764 0.533024
v 1.046498 0.000832 0.532938
v 1.049415 0.001938 0.532321
v 1.046885 -0.001334 0.532128
v 1.045604 0.000704 0.530058
v 1.049423 0.001076 0.529419
v 1.043475 -0.000590 0.525658
v 1.044438 0.001986 0.524931
v 1.048569 -0.000466 0.525989
v 1.047899 -0.001971 0.529246
v 1.045773 -0.001871 0.517790
v 1.042924 -0.000885 0.516126
v 1.044122 0.001870 0.516528
v 1.046981 0.000884 0.518187
v 1.050250 0.001683 0.512627
v 1.050109 -0.000153 0.516824
v 1.049760 -0.001937 0.513444
v 1.095462 -0.000000 0.536321
v 1.091722 0.001619 0.538592
v 1.092694 -0.001993 0.537996
v 1.095268 -0.000732 0.559802
vn -0.6903 0.5507 -0.4693
vn -0.4269 0.8608 -0.2772
vn 0.5150 0.8028 0.3004
vn 0.6522 0.4382 0.6186
vn 0.8157 -0.3315 0.4740
vn -0.7137 -0.3274 -0.6192
vn 0.2933 0.9288 0.2262
vn 0.1548 -0.9834 0.0946
vn -0.1405 -0.9845 -0.1051
vn 0.8019 -0.2470 0.5440
vn 0.6934 -0.5888 0.4153
vn -0.8001 0.0305 -0.5990
vn 0.3389 0.9350 0.1042
vn 0.1264 -0.9914 -0.0331
vn 0.7687 0.1296 0.6263
vn -0.6281 0.5256 -0.5738
vn -0.5159 0.7771 -0.3604
vn -0.7403 -0.5311 -0.4121
vn -0.5971 0.8014 0.0329
vn 0.9830 -0.1237 0.1358
vn 0.9588 -0.2507 0.1337
vn 0.4832 0.8282 -0.2838
vn 0.5547 -0.7939 -0.2490
vn -0.4823 -0.8696 0.1058
vn -0.8312 -0.5559 0.0005
vn -0.8992 0.0775 0.4306
vn -0.6238 0.6936 0.3601
vn -0.3938 -0.8544 0.3391
vn 0.8083 0.0211 -0.5884
vn 0.4866 0.8639 -0.1299
vn 0.4614 -0.8612 -0.2129
vn 0.8124 -0.1973 -0.5487
vn 0.1506 0.9815 -0.1178
vn -0.8968 0.2759 0.3459
vn 0.4845 -0.8600 -0.1599
vn 0.9125 0.2897 -0.2888
vn 0.4531 -0.7237 0.5205
vn 0.5392 0.5832 0.6075
vn -0.6310 0.7734 0.0604
vn 0.3242 -0.5885 0.7406
vn -0.3737 0.8309 -0.4122
vn 0.4386 0.7479 0.4982
vn -0.2963 -0.8287 -0.4748
vn -0.6806 -0.3903 -0.6200
vn 0.7288 -0.2916 0.6196
vn 0.3847 0.3179 0.8666
vn 0.2285 -0.8785 0.4194
vn -0.0964 0.9812 -0.1673
vn -0.3588 -0.4386 -0.8239
vn 0.2092 -0.9268 0.3117
vn 0.6173 0.4635 0.6357
vn -0.6934 0.3957 -0.6021
vn -0.2450 -0.3880 -0.8885
vn -0.2403 0.9619 -0.1302
vn -0.5571 -0.8099 -0.1836
vn -0.7603 -0.0390 -0.6484
vn 0.6720 0.6558 0.3439
vn 0.7800 -0.4297 0.4549
vn 0.3936 0.1229 0.9110
vn 0.1118 -0.9539 0.2783
vn -0.6618 -0.2961 -0.6887
vn 0.0145 -0.3521 -0.9358
vn -0.0050 -0.3409 0.9401
vn -0.0229 0.7269 -0.6864
vn -0.2320 0.8293 -0.5083
vn -0.0545 0.8697 0.4906
vn -0.2076 -0.5959 -0.7757
vn 0.0881 -0.2867 0.9539
vn 0.2840 0.4368 0.8535
vn 0.1802 -0.6131 -0.7692
vn -0.0184 0.9998 0.0108
vn -0.1100 -0.8040 0.5844
vn -0.6051 0.3059 0.7350
vn -0.5555 -0.7374 0.3841
vn 0.7608 0.3621 -0.5386
vn 0.4096 -0.8642 -0.2921
vn -0.7535 0.1858 0.6306
vn -0.8408 -0.3735 0.3919
vn -0.5014 0.8372 0.2182
vn 0.8064 -0.5892 -0.0498
vn 0.2981 0.9476 0.1145
vn -0.3716 -0.8141 -0.4461
vn -0.8034 0.0138 -0.5952
vn -0.3671 0.7705 -0.5210
vn -0.9677 0.0369 -0.2492
vn 0.0712 0.9951 0.0675
vn -0.1470 -0.9648 -0.2180
vn 0.6135 -0.7479 0.2532
vn 0.9133 0.4071 -0.0067
vn 0.4436 0.2661 0.8558
vn 0.8967 0.3795 -0.2279
vn -0.9229 0.2806 0.2634
vn -0.7364 -0.6590 0.1525
vn -0.8359 0.5102 0.2022
vn 0.3082 0.9261 -0.2172
vn 0.7132 -0.6923 -0.1096
vn 0.9464 0.0596 -0.3173
vn 0.5015 -0.7176 -0.4832
vn -0.0544 -0.9964 0.0655
vn -0.6351 0.4958 0.5923
vn 0.3090 0.9326 -0.1865
vn 0.7454 -0.1131 -0.6568
vn -0.3346 -0.6417 0.6901
vn -0.5212 0.4060 0.7507
vn -0.5624 0.8102 0.1650
vn -0.7525 -0.6031 0.2646
vn 0.7947 0.5825 -0.1705
vn 0.5136 -0.8505 -0.1135
vn -0.9491 0.2832 -0.1378
vn -0.2883 0.9396 -0.1845
vn 0.8449 0.0788 0.5290
vn -0.4644 -0.8665 -0.1832
vn -0.8185 -0.0449 -0.5726
vn 0.4623 -0.8686 0.1779
vn -0.2248 0.9717 -0.0719
vn -0.8290 -0.4536 -0.3271
vn 0.8498 0.3530 0.3914
vn 0.9302 -0.3591 -0.0751
vn 0.4576 0.8887 -0.0271
vn -0.8528 0.5196 0.0512
vn -0.7633 -0.6379 0.1019
vn 0.3014 -0.9497 -0.0842
vn -0.8102 0.4349 0.3930
vn 0.9332 -0.0845 -0.3493
vn 0.8604 0.3803 -0.3392
vn -0.9100 -0.3667 0.1931
vn -0.3929 0.9171 0.0663
vn -0.8383 -0.3418 -0.4246
vn 0.6912 0.6243 0.3639
vn 0.1174 -0.9862 0.1167
vn -0.4829 0.8271 -0.2877
vn 0.0821 0.6359 -0.7674
vn 0.1540 0.0273 0.9877
vn 0.0200 -0.8025 -0.5963
vn 0.8494 0.0717 -0.5229
vn -0.3912 0.8948 0.2152
vn -0.0644 -0.9971 0.0410
vn -0.0702 -0.9897 -0.1250
vn -0.8308 0.4083 -0.3782
vn -0.4139 -0.8839 -0.2176
vn 0.0746 -0.9942 0.0775
usemtl SVGMat.3781
s 1
f 2//1 4//2 1//3
f 1//3 7//4 141//5
f 4//2 7//4 1//3
f 5//6 4//2 2//1
f 4//2 8//7 7//4
f 6//8 10//9 5//6
f 7//4 11//10 6//8
f 8//7 11//10 7//4
f 8//7 16//11 11//10
f 12//12 18//13 8//7
f 16//11 15//14 10//9
f 8//7 13//15 16//11
f 18//13 13//15 8//7
f 13//15 15//14 16//11
f 14//16 19//17 18//13
f 20//18 26//19 19//17
f 17//20 21//21 15//14
f 18//13 21//21 17//20
f 26//19 18//13 19//17
f 23//22 24//23 21//21
f 15//14 27//24 22//25
f 24//23 27//24 15//14
f 25//26 28//27 26//19
f 29//28 28//27 25//26
f 23//22 30//29 24//23
f 28//27 32//30 26//19
f 24//23 31//31 27//24
f 30//29 31//31 24//23
f 30//29 33//32 31//31
f 32//30 33//32 30//29
f 28//27 34//33 32//30
f 29//28 35//34 28//27
f 33//32 38//35 29//28
f 34//33 39//36 33//32
f 39//36 41//37 38//35
f 34//33 40//38 39//36
f 36//39 40//38 34//33
f 40//38 42//40 41//37
f 36//39 43//41 40//38
f 43//41 45//42 40//38
f 44//43 46//44 36//39
f 45//42 48//45 42//40
f 45//42 49//46 48//45
f 49//46 51//47 48//45
f 46//44 50//48 43//41
f 51//47 52//49 46//44
f 50//48 49//46 45//42
f 49//46 60//50 51//47
f 50//48 53//51 49//46
f 52//49 54//52 50//48
f 51//47 56//53 52//49
f 54//52 55//54 50//48
f 60//50 57//55 51//47
f 57//55 64//56 54//52
f 55//54 58//57 53//51
f 53//51 61//58 60//50
f 58//57 61//58 53//51
f 58//57 62//59 61//58
f 61//58 63//60 60//50
f 62//59 63//60 61//58
f 59//61 67//62 64//56
f 63//60 67//62 59//61
f 62//59 68//63 63//60
f 66//64 69//65 65//66
f 68//63 71//67 63//60
f 65//66 70//68 68//63
f 69//65 70//68 65//66
f 71//67 69//65 66//64
f 69//65 75//69 70//68
f 72//70 73//71 69//65
f 70//68 74//72 71//67
f 73//71 76//73 75//69
f 76//73 77//74 74//72
f 72//70 79//75 73//71
f 74//72 80//76 72//70
f 73//71 78//77 76//73
f 77//74 80//76 74//72
f 80//76 79//75 72//70
f 78//77 81//78 77//74
f 73//71 82//79 78//77
f 80//76 84//80 79//75
f 83//81 82//79 73//71
f 81//78 85//82 80//76
f 82//79 86//83 81//78
f 83//81 87//84 82//79
f 86//83 85//82 81//78
f 87//84 88//85 86//83
f 83//81 89//86 87//84
f 88//85 90//87 85//82
f 92//88 93//89 91//90
f 92//88 94//91 93//89
f 96//92 97//93 90//87
f 89//86 98//94 96//92
f 94//91 99//95 89//86
f 95//96 100//97 94//91
f 97//93 103//98 90//87
f 98//94 105//99 97//93
f 99//95 101//100 98//94
f 100//97 102//101 99//95
f 103//98 104//102 100//97
f 101//100 106//103 105//99
f 102//101 107//104 101//100
f 102//101 108//105 107//104
f 108//105 111//106 107//104
f 104//102 109//107 102//101
f 110//108 109//107 104//102
f 109//107 108//105 102//101
f 106//103 111//106 105//99
f 108//105 112//109 111//106
f 109//107 114//110 108//105
f 110//108 115//111 109//107
f 113//112 115//111 110//108
f 114//110 116//113 112//109
f 113//112 118//114 115//111
f 115//111 117//115 114//110
f 116//113 119//116 113//112
f 117//115 119//116 116//113
f 118//114 120//117 115//111
f 118//114 121//118 120//117
f 121//118 123//119 120//117
f 117//115 122//120 119//116
f 124//121 130//122 118//114
f 123//119 125//123 122//120
f 130//122 129//124 126//125
f 125//123 127//126 124//121
f 123//119 128//127 125//123
f 126//125 128//127 123//119
f 128//127 132//128 127//126
f 130//122 134//129 129//124
f 132//128 131//130 130//122
f 134//129 133//131 128//127
f 133//131 135//132 132//128
f 134//129 135//132 133//131
f 131//130 136//133 134//129
f 132//128 137//134 131//130
f 135//132 138//135 137//134
f 139//136 135//132 136//133
f 137//134 140//137 136//133
f 139//136 1//3 138//135
f 1//3 141//5 138//135
f 2//1 1//3 139//136
f 141//5 3//138 140//137
f 3//138 2//1 139//136
f 3//138 5//6 2//1
f 141//5 6//8 3//138
f 3//138 6//8 5//6
f 141//5 7//4 6//8
f 5//6 9//139 4//2
f 4//2 9//139 8//7
f 5//6 10//9 9//139
f 6//8 11//10 10//9
f 11//10 16//11 10//9
f 10//9 12//12 9//139
f 9//139 12//12 8//7
f 10//9 15//14 12//12
f 12//12 14//16 18//13
f 12//12 15//14 14//16
f 13//15 17//20 15//14
f 13//15 18//13 17//20
f 15//14 20//18 14//16
f 14//16 20//18 19//17
f 20//18 15//14 22//25
f 20//18 22//25 26//19
f 18//13 23//22 21//21
f 21//21 24//23 15//14
f 22//25 25//26 26//19
f 18//13 26//19 23//22
f 22//25 27//24 25//26
f 27//24 29//28 25//26
f 26//19 32//30 23//22
f 27//24 31//31 29//28
f 23//22 32//30 30//29
f 32//30 34//33 33//32
f 28//27 35//34 34//33
f 31//31 33//32 29//28
f 29//28 37//140 35//34
f 35//34 36//39 34//33
f 35//34 37//140 36//39
f 29//28 38//35 37//140
f 33//32 39//36 38//35
f 39//36 40//38 41//37
f 38//35 41//37 37//140
f 41//37 44//43 37//140
f 41//37 42//40 44//43
f 37//140 44//43 36//39
f 40//38 45//42 42//40
f 42//40 47//141 44//43
f 36//39 46//44 43//41
f 42//40 48//45 47//141
f 44//43 47//141 46//44
f 43//41 50//48 45//42
f 48//45 51//47 47//141
f 47//141 51//47 46//44
f 46//44 52//49 50//48
f 49//46 53//51 60//50
f 50//48 55//54 53//51
f 52//49 56//53 54//52
f 51//47 57//55 56//53
f 56//53 57//55 54//52
f 54//52 64//56 55//54
f 57//55 59//61 64//56
f 57//55 60//50 59//61
f 60//50 63//60 59//61
f 55//54 65//66 58//57
f 55//54 64//56 65//66
f 58//57 65//66 62//59
f 64//56 66//64 65//66
f 64//56 67//62 66//64
f 62//59 65//66 68//63
f 63//60 71//67 67//62
f 67//62 71//67 66//64
f 68//63 70//68 71//67
f 71//67 72//70 69//65
f 69//65 73//71 75//69
f 71//67 74//72 72//70
f 70//68 75//69 74//72
f 75//69 76//73 74//72
f 76//73 78//77 77//74
f 78//77 82//79 81//78
f 79//75 83//81 73//71
f 79//75 84//80 83//81
f 77//74 81//78 80//76
f 80//76 85//82 84//80
f 82//79 87//84 86//83
f 86//83 88//85 85//82
f 85//82 92//88 84//80
f 84//80 91//90 83//81
f 87//84 89//86 88//85
f 85//82 90//87 92//88
f 83//81 91//90 89//86
f 84//80 92//88 91//90
f 91//90 93//89 89//86
f 89//86 96//92 88//85
f 93//89 94//91 89//86
f 92//88 95//96 94//91
f 88//85 96//92 90//87
f 92//88 90//87 95//96
f 96//92 98//94 97//93
f 89//86 99//95 98//94
f 94//91 100//97 99//95
f 90//87 103//98 95//96
f 98//94 101//100 105//99
f 99//95 102//101 101//100
f 95//96 103//98 100//97
f 97//93 105//99 103//98
f 100//97 104//102 102//101
f 103//98 105//99 104//102
f 101//100 107//104 106//103
f 107//104 111//106 106//103
f 105//99 110//108 104//102
f 105//99 111//106 110//108
f 111//106 112//109 113//112
f 108//105 114//110 112//109
f 111//106 113//112 110//108
f 109//107 115//111 114//110
f 112//109 116//113 113//112
f 114//110 117//115 116//113
f 113//112 119//116 118//114
f 115//111 120//117 117//115
f 120//117 123//119 117//115
f 119//116 122//120 124//121
f 117//115 123//119 122//120
f 119//116 124//121 118//114
f 118//114 130//122 121//118
f 121//118 126//125 123//119
f 121//118 130//122 126//125
f 122//120 125//123 124//121
f 125//123 128//127 127//126
f 126//125 129//124 128//127
f 124//121 127//126 130//122
f 130//122 131//130 134//129
f 127//126 132//128 130//122
f 128//127 133//131 132//128
f 129//124 134//129 128//127
f 132//128 135//132 137//134
f 134//129 136//133 135//132
f 131//130 137//134 136//133
f 139//136 138//135 135//132
f 136//133 140//137 139//136
f 137//134 138//135 140//137
f 140//137 3//138 139//136
f 138//135 141//5 140//137
