# Blender v2.79 (sub 0) OBJ File: 'world_countrycodes_export2.blend'
# www.blender.org
mtllib TG.mtl
o TG.002_CUCurve.1864
v 0.968544 0.000000 0.597337
v 0.968438 0.000000 0.596846
v 0.968727 0.000000 0.595399
v 0.968701 0.000000 0.594613
v 0.968311 0.000000 0.593878
v 0.967532 0.000000 0.593276
v 0.965531 0.000000 0.592138
v 0.964904 0.000000 0.591141
v 0.964477 0.000000 0.588027
v 0.963158 0.000000 0.587851
v 0.960911 0.000000 0.587365
v 0.959922 0.000000 0.587218
v 0.959547 0.000000 0.587276
v 0.959948 0.000000 0.589419
v 0.960506 0.000000 0.590808
v 0.961362 0.000000 0.591515
v 0.961903 0.000000 0.592420
v 0.962163 0.000000 0.593558
v 0.961894 0.000000 0.595649
v 0.961786 0.000000 0.597970
v 0.961943 0.000000 0.600619
v 0.962199 0.000000 0.602240
v 0.962924 0.000000 0.604470
v 0.963462 0.000000 0.607069
v 0.963717 0.000000 0.610185
v 0.964073 0.000000 0.612324
v 0.964888 0.000000 0.614784
v 0.965779 0.000000 0.616598
v 0.966328 0.000000 0.616284
v 0.967002 0.000000 0.615764
v 0.968297 0.000000 0.615069
v 0.970121 0.000000 0.614565
v 0.969549 0.000000 0.602952
v 0.969439 0.000000 0.599630
v 0.969109 0.000000 0.598123
v 0.962199 0.050000 0.602240
v 0.969549 0.050000 0.602952
v 0.959922 0.050000 0.587218
v 0.959948 0.050000 0.589419
v 0.961786 0.050000 0.597970
v 0.969109 0.050000 0.598123
v 0.968544 0.050000 0.597337
v 0.969439 0.050000 0.599630
v 0.962924 0.050000 0.604470
v 0.968701 0.050000 0.594613
v 0.961894 0.050000 0.595649
v 0.962163 0.050000 0.593558
v 0.968438 0.050000 0.596846
v 0.968727 0.050000 0.595399
v 0.961943 0.050000 0.600619
v 0.964904 0.050000 0.591141
v 0.960506 0.050000 0.590808
v 0.964888 0.050000 0.614784
v 0.967002 0.050000 0.615764
v 0.963462 0.050000 0.607069
v 0.970121 0.050000 0.614565
v 0.965531 0.050000 0.592138
v 0.961903 0.050000 0.592420
v 0.965779 0.050000 0.616598
v 0.959547 0.050000 0.587276
v 0.963158 0.050000 0.587851
v 0.960911 0.050000 0.587365
v 0.968311 0.050000 0.593878
v 0.967532 0.050000 0.593276
v 0.968297 0.050000 0.615069
v 0.961362 0.050000 0.591515
v 0.964073 0.050000 0.612324
v 0.964477 0.050000 0.588027
v 0.966328 0.050000 0.616284
v 0.963717 0.050000 0.610185
vn 0.0000 -1.0000 0.0000
vn 0.0000 1.0000 0.0000
vn 0.8467 0.0000 -0.5320
vn -0.9918 0.0000 -0.1277
vn -0.9792 0.0000 0.2027
vn 0.4726 0.0000 0.8813
vn -0.9878 0.0000 0.1559
vn 0.9994 0.0000 -0.0333
vn 0.8837 0.0000 -0.4680
vn 0.4963 0.0000 0.8682
vn 0.9907 0.0000 -0.1359
vn -0.9492 0.0000 0.3147
vn 0.4943 0.0000 -0.8693
vn -0.9749 0.0000 0.2225
vn 0.1317 0.0000 -0.9913
vn -0.9829 0.0000 0.1839
vn 0.9767 0.0000 -0.2144
vn 0.2115 0.0000 -0.9774
vn -0.9509 0.0000 0.3094
vn 0.8124 0.0000 -0.5832
vn 0.1468 0.0000 -0.9892
vn -0.1522 0.0000 -0.9884
vn 0.2667 0.0000 0.9638
vn 0.6112 0.0000 -0.7915
vn 0.9995 0.0000 -0.0328
vn -0.9864 0.0000 0.1642
vn 0.9806 0.0000 0.1960
vn -0.9967 0.0000 0.0813
vn -0.9280 0.0000 0.3726
vn -0.8580 0.0000 0.5136
vn -0.9989 0.0000 -0.0463
vn -0.6365 0.0000 0.7713
vn 0.9774 0.0000 -0.2115
vn -0.8976 0.0000 0.4407
vn 0.6108 0.0000 0.7918
vn -0.9983 0.0000 0.0590
vn 0.9988 0.0000 -0.0492
usemtl SVGMat.3781
s off
f 14//1 13//1 12//1
f 14//1 12//1 11//1
f 14//1 11//1 10//1
f 14//1 10//1 9//1
f 14//1 9//1 8//1
f 15//1 14//1 8//1
f 16//1 15//1 8//1
f 16//1 8//1 7//1
f 17//1 16//1 7//1
f 18//1 17//1 7//1
f 18//1 7//1 6//1
f 18//1 6//1 5//1
f 18//1 5//1 4//1
f 19//1 18//1 4//1
f 19//1 4//1 3//1
f 19//1 3//1 2//1
f 20//1 19//1 2//1
f 20//1 2//1 1//1
f 20//1 1//1 35//1
f 20//1 35//1 34//1
f 21//1 20//1 34//1
f 21//1 34//1 33//1
f 22//1 21//1 33//1
f 23//1 22//1 33//1
f 23//1 33//1 32//1
f 24//1 23//1 32//1
f 25//1 24//1 32//1
f 26//1 25//1 32//1
f 27//1 26//1 32//1
f 27//1 32//1 31//1
f 27//1 31//1 30//1
f 28//1 27//1 30//1
f 28//1 30//1 29//1
f 39//2 38//2 60//2
f 39//2 62//2 38//2
f 39//2 61//2 62//2
f 39//2 68//2 61//2
f 39//2 51//2 68//2
f 52//2 51//2 39//2
f 66//2 51//2 52//2
f 66//2 57//2 51//2
f 58//2 57//2 66//2
f 47//2 57//2 58//2
f 47//2 64//2 57//2
f 47//2 63//2 64//2
f 47//2 45//2 63//2
f 46//2 45//2 47//2
f 46//2 49//2 45//2
f 46//2 48//2 49//2
f 40//2 48//2 46//2
f 40//2 42//2 48//2
f 40//2 41//2 42//2
f 40//2 43//2 41//2
f 50//2 43//2 40//2
f 50//2 37//2 43//2
f 36//2 37//2 50//2
f 44//2 37//2 36//2
f 44//2 56//2 37//2
f 55//2 56//2 44//2
f 70//2 56//2 55//2
f 67//2 56//2 70//2
f 53//2 56//2 67//2
f 53//2 65//2 56//2
f 53//2 54//2 65//2
f 59//2 54//2 53//2
f 59//2 69//2 54//2
f 7//3 8//3 51//3 57//3
f 18//4 19//4 46//4 47//4
f 23//5 24//5 55//5 44//5
f 30//6 31//6 65//6 54//6
f 21//7 22//7 36//7 50//7
f 3//8 4//8 45//8 49//8
f 4//9 5//9 63//9 45//9
f 28//10 29//10 69//10 59//10
f 8//11 9//11 68//11 51//11
f 26//12 27//12 53//12 67//12
f 6//13 7//13 57//13 64//13
f 17//14 18//14 47//14 58//14
f 9//15 10//15 61//15 68//15
f 13//16 14//16 39//16 60//16
f 34//17 35//17 41//17 43//17
f 10//18 11//18 62//18 61//18
f 22//19 23//19 44//19 36//19
f 35//20 1//20 42//20 41//20
f 11//21 12//21 38//21 62//21
f 12//22 13//22 60//22 38//22
f 31//23 32//23 56//23 65//23
f 5//24 6//24 64//24 63//24
f 33//25 34//25 43//25 37//25
f 25//26 26//26 67//26 70//26
f 2//27 3//27 49//27 48//27
f 24//28 25//28 70//28 55//28
f 14//29 15//29 52//29 39//29
f 16//30 17//30 58//30 66//30
f 19//31 20//31 40//31 46//31
f 15//32 16//32 66//32 52//32
f 1//33 2//33 48//33 42//33
f 27//34 28//34 59//34 53//34
f 29//35 30//35 54//35 69//35
f 20//36 21//36 50//36 40//36
f 32//37 33//37 37//37 56//37
