# Blender v2.79 (sub 0) OBJ File: 'world_countrycodes_outlines2.blend'
# www.blender.org
mtllib TG_outline.mtl
o TG.001_CUCurve.1690
v 0.969073 -0.001848 0.613693
v 0.968200 0.000826 0.613020
v 0.971358 -0.001403 0.615477
v 0.971838 0.000646 0.615984
v 0.969942 0.001862 0.615468
v 0.965138 0.001993 0.616577
v 0.965094 -0.001975 0.617557
v 0.966360 0.000728 0.613658
v 0.965939 -0.001324 0.614224
v 0.965065 0.000811 0.619388
v 0.962116 0.000786 0.613087
v 0.960825 -0.001419 0.602236
v 0.961481 0.000783 0.606604
v 0.965188 0.000856 0.605616
v 0.962609 0.001958 0.600615
v 0.962748 -0.001926 0.600255
v 0.959864 0.000818 0.600655
v 0.963698 0.000003 0.599600
v 0.962961 0.001959 0.592890
v 0.961666 -0.002003 0.592223
v 0.959965 0.001378 0.592407
v 0.964038 -0.000777 0.592114
v 0.960121 -0.000732 0.593181
v 0.962148 -0.000685 0.589556
v 0.960256 0.001892 0.588327
v 0.958476 -0.000764 0.591339
v 0.958506 -0.001940 0.586362
v 0.957346 0.000747 0.585017
v 0.966260 -0.000715 0.586252
v 0.965835 0.001393 0.586717
v 0.963938 0.001991 0.588920
v 0.963957 -0.002030 0.588758
v 0.966714 0.000810 0.590510
v 0.964213 0.001864 0.592174
v 0.963484 -0.000826 0.592943
v 0.965869 -0.001970 0.591741
v 0.970639 0.000779 0.593487
v 0.966792 -0.000923 0.595035
v 0.970004 -0.001466 0.593550
v 0.968446 0.001988 0.595150
v 0.968790 -0.002015 0.595609
v 0.966432 0.000616 0.597429
v 0.967548 -0.001425 0.598164
v 0.967436 0.000810 0.599243
v 0.971169 0.000800 0.598024
v 0.970549 -0.001185 0.597154
vn 0.0085 -0.9998 0.0148
vn -0.1932 -0.9645 -0.1798
vn -0.7331 -0.6688 0.1231
vn -0.7418 0.5276 -0.4140
vn -0.8993 0.4003 0.1758
vn 0.2323 0.9572 0.1728
vn -0.0839 0.9960 -0.0303
vn 0.9102 0.4089 -0.0662
vn 0.6369 -0.6639 0.3919
vn 0.7794 -0.6235 -0.0624
vn 0.8179 0.2660 0.5102
vn -0.2093 0.9630 0.1699
vn -0.2903 -0.8002 0.5248
vn 0.4785 0.5865 -0.6534
vn 0.3160 -0.8618 -0.3968
vn -0.2732 0.2173 0.9370
vn -0.9321 0.2837 0.2250
vn -0.7035 -0.6999 0.1231
vn -0.8307 0.5448 0.1142
vn 0.9413 0.2827 -0.1847
vn 0.2215 0.9736 -0.0553
vn 0.3894 -0.9209 -0.0178
vn -0.9117 0.3968 0.1062
vn 0.9981 0.0257 -0.0552
vn 0.0409 -0.9982 -0.0435
vn 0.5064 0.8549 -0.1130
vn -0.6495 0.7283 0.2186
vn 0.9110 -0.2884 -0.2948
vn -0.0988 0.9949 -0.0168
vn 0.0795 -0.9741 0.2117
vn -0.8647 -0.2961 0.4058
vn -0.8339 -0.4911 0.2519
vn -0.4366 -0.8135 -0.3842
vn -0.6892 0.2806 -0.6680
vn -0.0749 0.9903 0.1167
vn 0.6637 -0.3520 -0.6600
vn 0.5301 0.6718 -0.5173
vn -0.0331 -0.9993 -0.0136
vn 0.7791 0.5127 -0.3608
vn -0.4236 0.8507 0.3112
vn 0.6446 -0.6447 -0.4108
vn 0.1418 -0.9879 -0.0627
vn 0.8023 0.3868 -0.4546
vn -0.7284 -0.3348 0.5978
vn -0.7946 -0.4384 0.4199
vn -0.9403 0.3117 0.1367
usemtl SVGMat.3781
s 1
f 41//1 1//2 43//3
f 1//2 2//4 44//5
f 44//5 5//6 40//7
f 45//8 3//9 46//10
f 5//6 4//11 45//8
f 3//9 1//2 41//1
f 2//4 6//12 5//6
f 3//9 7//13 1//2
f 1//2 8//14 2//4
f 7//13 9//15 1//2
f 4//11 7//13 3//9
f 5//6 10//16 4//11
f 6//12 10//16 5//6
f 6//12 11//17 10//16
f 11//17 12//18 7//13
f 6//12 13//19 11//17
f 9//15 14//20 8//14
f 14//20 15//21 6//12
f 7//13 16//22 9//15
f 12//18 16//22 7//13
f 15//21 17//23 13//19
f 16//22 18//24 14//20
f 12//18 20//25 16//22
f 19//26 21//27 17//23
f 18//24 19//26 15//21
f 22//28 25//29 19//26
f 20//25 24//30 22//28
f 21//27 26//31 23//32
f 26//31 27//33 20//25
f 21//27 28//34 26//31
f 25//29 28//34 21//27
f 24//30 31//35 25//29
f 28//34 29//36 27//33
f 25//29 30//37 28//34
f 27//33 32//38 24//30
f 30//37 33//39 29//36
f 31//35 33//39 30//37
f 24//30 34//40 31//35
f 33//39 39//41 36//42
f 34//40 37//43 33//39
f 35//44 40//7 34//40
f 36//42 38//45 35//44
f 39//41 41//1 36//42
f 37//43 46//10 39//41
f 40//7 45//8 37//43
f 38//45 42//46 40//7
f 41//1 43//3 38//45
f 43//3 44//5 42//46
f 43//3 1//2 44//5
f 40//7 5//6 45//8
f 44//5 2//4 5//6
f 46//10 3//9 41//1
f 45//8 4//11 3//9
f 2//4 8//14 6//12
f 1//2 9//15 8//14
f 4//11 10//16 7//13
f 10//16 11//17 7//13
f 11//17 13//19 12//18
f 8//14 14//20 6//12
f 6//12 15//21 13//19
f 9//15 16//22 14//20
f 13//19 17//23 12//18
f 14//20 18//24 15//21
f 15//21 19//26 17//23
f 16//22 22//28 18//24
f 16//22 20//25 22//28
f 17//23 23//32 12//18
f 17//23 21//27 23//32
f 18//24 22//28 19//26
f 12//18 23//32 20//25
f 22//28 24//30 25//29
f 19//26 25//29 21//27
f 23//32 26//31 20//25
f 20//25 27//33 24//30
f 26//31 28//34 27//33
f 28//34 30//37 29//36
f 25//29 31//35 30//37
f 27//33 29//36 32//38
f 29//36 33//39 36//42
f 29//36 36//42 32//38
f 32//38 35//44 24//30
f 31//35 34//40 33//39
f 24//30 35//44 34//40
f 32//38 36//42 35//44
f 33//39 37//43 39//41
f 35//44 38//45 40//7
f 34//40 40//7 37//43
f 36//42 41//1 38//45
f 37//43 45//8 46//10
f 38//45 43//3 42//46
f 39//41 46//10 41//1
f 42//46 44//5 40//7
