# Blender v2.79 (sub 0) OBJ File: 'world_countrycodes_export2.blend'
# www.blender.org
mtllib TH.mtl
o TH.002_CUCurve.1823
v 1.534573 0.000000 0.577252
v 1.533643 0.000000 0.575606
v 1.533514 0.000000 0.574911
v 1.533988 0.000000 0.573661
v 1.536631 0.000000 0.571000
v 1.539507 0.000000 0.569389
v 1.541427 0.000000 0.569109
v 1.543460 0.000000 0.569493
v 1.547971 0.000000 0.568933
v 1.549415 0.000000 0.569117
v 1.550231 0.000000 0.569831
v 1.550679 0.000000 0.570131
v 1.551465 0.000000 0.568832
v 1.551709 0.000000 0.567472
v 1.551365 0.000000 0.564691
v 1.551353 0.000000 0.562539
v 1.550430 0.000000 0.560038
v 1.548645 0.000000 0.558230
v 1.547115 0.000000 0.557406
v 1.546958 0.000000 0.556223
v 1.547506 0.000000 0.553212
v 1.547539 0.000000 0.551483
v 1.546613 0.000000 0.550587
v 1.544272 0.000000 0.548481
v 1.542513 0.000000 0.546313
v 1.540288 0.000000 0.545811
v 1.537970 0.000000 0.546419
v 1.537339 0.000000 0.547400
v 1.536468 0.000000 0.548097
v 1.535305 0.000000 0.548408
v 1.534320 0.000000 0.548298
v 1.533348 0.000000 0.547436
v 1.532149 0.000000 0.547158
v 1.530601 0.000000 0.547659
v 1.527215 0.000000 0.550229
v 1.525489 0.000000 0.551027
v 1.524739 0.000000 0.550310
v 1.524771 0.000000 0.548757
v 1.526080 0.000000 0.546940
v 1.526280 0.000000 0.544615
v 1.526981 0.000000 0.541452
v 1.526446 0.000000 0.539122
v 1.525564 0.000000 0.538616
v 1.523770 0.000000 0.538886
v 1.522927 0.000000 0.538600
v 1.522437 0.000000 0.536825
v 1.522472 0.000000 0.534167
v 1.521249 0.000000 0.532801
v 1.520559 0.000000 0.533208
v 1.519811 0.000000 0.534186
v 1.515789 0.000000 0.535700
v 1.514725 0.000000 0.536935
v 1.513681 0.000000 0.537530
v 1.510588 0.000000 0.537839
v 1.508920 0.000000 0.538205
v 1.507817 0.000000 0.539140
v 1.507107 0.000000 0.543623
v 1.506596 0.000000 0.548644
v 1.508530 0.000000 0.551679
v 1.511309 0.000000 0.554064
v 1.511333 0.000000 0.556150
v 1.511547 0.000000 0.557164
v 1.512563 0.000000 0.558024
v 1.512610 0.000000 0.559302
v 1.512066 0.000000 0.560134
v 1.511546 0.000000 0.560240
v 1.511578 0.000000 0.562546
v 1.511262 0.000000 0.563737
v 1.510503 0.000000 0.564688
v 1.510280 0.000000 0.566036
v 1.511193 0.000000 0.568343
v 1.513401 0.000000 0.570879
v 1.514793 0.000000 0.573508
v 1.515164 0.000000 0.575824
v 1.515126 0.000000 0.577915
v 1.516602 0.000000 0.579975
v 1.516943 0.000000 0.581438
v 1.515374 0.000000 0.586213
v 1.513926 0.000000 0.589261
v 1.512772 0.000000 0.590667
v 1.512031 0.000000 0.590833
v 1.510778 0.000000 0.597915
v 1.510000 0.000000 0.601144
v 1.509778 0.000000 0.603113
v 1.510215 0.000000 0.604141
v 1.511541 0.000000 0.604560
v 1.513473 0.000000 0.606103
v 1.518358 0.000000 0.611700
v 1.519970 0.000000 0.614443
v 1.521460 0.000000 0.614437
v 1.523805 0.000000 0.614781
v 1.525188 0.000000 0.615642
v 1.525928 0.000000 0.616944
v 1.526090 0.000000 0.618205
v 1.526626 0.000000 0.618635
v 1.528670 0.000000 0.618783
v 1.530726 0.000000 0.618521
v 1.531057 0.000000 0.617195
v 1.532212 0.000000 0.616225
v 1.531173 0.000000 0.615105
v 1.529385 0.000000 0.613751
v 1.527016 0.000000 0.612769
v 1.524619 0.000000 0.612230
v 1.522827 0.000000 0.610378
v 1.521803 0.000000 0.607417
v 1.521777 0.000000 0.604932
v 1.519884 0.000000 0.601701
v 1.519594 0.000000 0.599960
v 1.518669 0.000000 0.599128
v 1.515916 0.000000 0.597874
v 1.515400 0.000000 0.596875
v 1.515449 0.000000 0.594681
v 1.516985 0.000000 0.587812
v 1.519654 0.000000 0.580879
v 1.520110 0.000000 0.578198
v 1.519669 0.000000 0.576415
v 1.521186 0.000000 0.574943
v 1.523220 0.000000 0.574716
v 1.524430 0.000000 0.575322
v 1.525574 0.000000 0.578441
v 1.527061 0.000000 0.579271
v 1.529942 0.000000 0.579336
v 1.531450 0.000000 0.579897
v 1.533674 0.000000 0.581969
v 1.535359 0.000000 0.582681
v 1.535632 0.000000 0.581392
v 1.534955 0.000000 0.579867
v 1.534724 0.000000 0.579019
v 1.546958 0.050000 0.556223
v 1.547506 0.050000 0.553212
v 1.508920 0.050000 0.538205
v 1.507817 0.050000 0.539140
v 1.510215 0.050000 0.604141
v 1.521777 0.050000 0.604932
v 1.523770 0.050000 0.538886
v 1.522927 0.050000 0.538600
v 1.515126 0.050000 0.577915
v 1.519669 0.050000 0.576415
v 1.515164 0.050000 0.575824
v 1.512031 0.050000 0.590833
v 1.515449 0.050000 0.594681
v 1.512563 0.050000 0.558024
v 1.512610 0.050000 0.559302
v 1.526280 0.050000 0.544615
v 1.507107 0.050000 0.543623
v 1.525188 0.050000 0.615642
v 1.531173 0.050000 0.615105
v 1.521249 0.050000 0.532801
v 1.520559 0.050000 0.533208
v 1.521186 0.050000 0.574943
v 1.523220 0.050000 0.574716
v 1.533514 0.050000 0.574911
v 1.514793 0.050000 0.573508
v 1.524739 0.050000 0.550310
v 1.524771 0.050000 0.548757
v 1.525928 0.050000 0.616944
v 1.519970 0.050000 0.614443
v 1.529385 0.050000 0.613751
v 1.516602 0.050000 0.579975
v 1.519654 0.050000 0.580879
v 1.536631 0.050000 0.571000
v 1.513401 0.050000 0.570879
v 1.541427 0.050000 0.569109
v 1.547971 0.050000 0.568933
v 1.533988 0.050000 0.573661
v 1.509778 0.050000 0.603113
v 1.518358 0.050000 0.611700
v 1.521803 0.050000 0.607417
v 1.510588 0.050000 0.537839
v 1.544272 0.050000 0.548481
v 1.527215 0.050000 0.550229
v 1.526981 0.050000 0.541452
v 1.551465 0.050000 0.568832
v 1.511193 0.050000 0.568343
v 1.522437 0.050000 0.536825
v 1.515789 0.050000 0.535700
v 1.547115 0.050000 0.557406
v 1.511547 0.050000 0.557164
v 1.526080 0.050000 0.546940
v 1.506596 0.050000 0.548644
v 1.511309 0.050000 0.554064
v 1.511333 0.050000 0.556150
v 1.519594 0.050000 0.599960
v 1.518669 0.050000 0.599128
v 1.535359 0.050000 0.582681
v 1.535632 0.050000 0.581392
v 1.511541 0.050000 0.604560
v 1.513473 0.050000 0.606103
v 1.515374 0.050000 0.586213
v 1.516985 0.050000 0.587812
v 1.550430 0.050000 0.560038
v 1.511578 0.050000 0.562546
v 1.533348 0.050000 0.547436
v 1.530601 0.050000 0.547659
v 1.535305 0.050000 0.548408
v 1.522472 0.050000 0.534167
v 1.532212 0.050000 0.616225
v 1.526626 0.050000 0.618635
v 1.530726 0.050000 0.618521
v 1.550231 0.050000 0.569831
v 1.550679 0.050000 0.570131
v 1.531057 0.050000 0.617195
v 1.510778 0.050000 0.597915
v 1.549415 0.050000 0.569117
v 1.534573 0.050000 0.577252
v 1.524430 0.050000 0.575322
v 1.547539 0.050000 0.551483
v 1.525489 0.050000 0.551027
v 1.534320 0.050000 0.548298
v 1.521460 0.050000 0.614437
v 1.511546 0.050000 0.560240
v 1.527061 0.050000 0.579271
v 1.529942 0.050000 0.579336
v 1.536468 0.050000 0.548097
v 1.551709 0.050000 0.567472
v 1.528670 0.050000 0.618783
v 1.512772 0.050000 0.590667
v 1.522827 0.050000 0.610378
v 1.539507 0.050000 0.569389
v 1.534955 0.050000 0.579867
v 1.534724 0.050000 0.579019
v 1.548645 0.050000 0.558230
v 1.510000 0.050000 0.601144
v 1.519884 0.050000 0.601701
v 1.523805 0.050000 0.614781
v 1.533674 0.050000 0.581969
v 1.537970 0.050000 0.546419
v 1.537339 0.050000 0.547400
v 1.508530 0.050000 0.551679
v 1.512066 0.050000 0.560134
v 1.526090 0.050000 0.618205
v 1.525564 0.050000 0.538616
v 1.546613 0.050000 0.550587
v 1.515916 0.050000 0.597874
v 1.551365 0.050000 0.564691
v 1.531450 0.050000 0.579897
v 1.516943 0.050000 0.581438
v 1.510280 0.050000 0.566036
v 1.515400 0.050000 0.596875
v 1.551353 0.050000 0.562539
v 1.519811 0.050000 0.534186
v 1.513926 0.050000 0.589261
v 1.543460 0.050000 0.569493
v 1.540288 0.050000 0.545811
v 1.520110 0.050000 0.578198
v 1.513681 0.050000 0.537530
v 1.511262 0.050000 0.563737
v 1.525574 0.050000 0.578441
v 1.527016 0.050000 0.612769
v 1.524619 0.050000 0.612230
v 1.542513 0.050000 0.546313
v 1.526446 0.050000 0.539122
v 1.510503 0.050000 0.564688
v 1.533643 0.050000 0.575606
v 1.532149 0.050000 0.547158
v 1.514725 0.050000 0.536935
vn 0.0000 -1.0000 0.0000
vn 0.0000 1.0000 -0.0000
vn 0.0000 1.0000 0.0001
vn -0.1488 0.0000 -0.9889
vn 0.7448 0.0000 -0.6672
vn -0.8129 0.0000 0.5825
vn 0.1262 0.0000 0.9920
vn -0.3008 0.0000 0.9537
vn -0.7543 0.0000 0.6565
vn -0.8432 0.0000 0.5375
vn -0.9786 0.0000 0.2059
vn 0.9142 0.0000 -0.4053
vn -0.8621 0.0000 0.5067
vn -0.4198 0.0000 -0.9076
vn 0.7186 0.0000 -0.6955
vn 0.4741 0.0000 -0.8805
vn 0.9999 0.0000 -0.0106
vn -0.5551 0.0000 0.8318
vn -0.9874 0.0000 0.1582
vn 0.6426 0.0000 0.7662
vn -0.4871 0.0000 0.8733
vn 0.9924 0.0000 -0.1229
vn -0.3489 0.0000 0.9372
vn -0.8368 0.0000 -0.5475
vn 0.9763 0.0000 0.2166
vn 0.8886 0.0000 -0.4588
vn -0.9847 0.0000 -0.1743
vn -0.1265 0.0000 0.9920
vn -0.9918 0.0000 0.1278
vn 0.9838 0.0000 0.1791
vn -0.9500 0.0000 -0.3121
vn 0.9963 0.0000 -0.0854
vn -0.3894 0.0000 0.9211
vn -0.6465 0.0000 -0.7629
vn 0.6635 0.0000 -0.7482
vn -0.4950 0.0000 -0.8689
vn -0.6513 0.0000 0.7588
vn 0.3211 0.0000 -0.9471
vn 1.0000 0.0000 -0.0053
vn -0.9998 0.0000 -0.0184
vn 0.9997 0.0000 0.0227
vn 0.2196 0.0000 -0.9756
vn 0.1105 0.0000 -0.9939
vn 0.4976 0.0000 -0.8674
vn 0.8707 0.0000 -0.4918
vn 0.8555 0.0000 0.5178
vn -0.9993 0.0000 0.0369
vn 0.0039 0.0000 1.0000
vn -0.9722 0.0000 -0.2340
vn 0.9333 0.0000 0.3592
vn -0.9999 0.0000 0.0141
vn -0.9739 0.0000 0.2270
vn 0.9381 0.0000 -0.3465
vn 0.8113 0.0000 0.5847
vn -0.0227 0.0000 0.9997
vn -0.8837 0.0000 0.4680
vn -0.5078 0.0000 -0.8615
vn -0.7729 0.0000 -0.6345
vn -0.2581 0.0000 -0.9661
vn 0.1106 0.0000 0.9939
vn -0.3524 0.0000 -0.9358
vn 0.9998 0.0000 0.0192
vn 0.9999 0.0000 0.0131
vn -0.0718 0.0000 0.9974
vn 0.9998 0.0000 0.0206
vn -0.2186 0.0000 -0.9758
vn -0.9389 0.0000 0.3443
vn -0.8691 0.0000 0.4946
vn 0.4144 0.0000 -0.9101
vn 0.9913 0.0000 -0.1315
vn 0.9759 0.0000 0.2182
vn 0.4887 0.0000 0.8724
vn -0.7814 0.0000 -0.6241
vn -0.9937 0.0000 -0.1124
vn -0.9949 0.0000 -0.1012
vn 0.3827 0.0000 -0.9239
vn -0.7534 0.0000 0.6575
vn 0.9831 0.0000 -0.1829
vn 0.7117 0.0000 -0.7025
vn 0.9648 0.0000 -0.2631
vn 0.9707 0.0000 -0.2403
vn -0.5290 0.0000 0.8486
vn -0.9203 0.0000 0.3912
vn -0.9033 0.0000 -0.4291
vn -0.9298 0.0000 0.3680
vn 0.9451 0.0000 -0.3267
vn 0.2261 0.0000 -0.9741
vn 0.1230 0.0000 0.9924
vn 0.6965 0.0000 0.7176
vn 0.9703 0.0000 0.2421
vn 0.7764 0.0000 -0.6302
vn -0.7577 0.0000 -0.6526
vn -0.2538 0.0000 -0.9673
vn -0.3079 0.0000 -0.9514
vn -0.2142 0.0000 -0.9768
vn -0.9877 0.0000 -0.1563
vn -0.1452 0.0000 0.9894
vn 0.9746 0.0000 -0.2240
vn -0.4474 0.0000 0.8944
vn 0.7333 0.0000 -0.6799
vn -0.6586 0.0000 0.7525
vn -0.9867 0.0000 -0.1627
vn 0.6911 0.0000 -0.7228
vn -0.7941 0.0000 -0.6078
vn -0.1999 0.0000 -0.9798
vn 0.7096 0.0000 0.7046
vn -0.9999 0.0000 0.0115
vn 0.9843 0.0000 0.1765
vn 0.6951 0.0000 -0.7189
vn 0.6689 0.0000 -0.7433
vn 0.9963 0.0000 0.0855
vn -0.6458 0.0000 0.7635
vn 0.9784 0.0000 0.2069
vn -0.8410 0.0000 -0.5411
vn -0.6242 0.0000 0.7813
vn 0.9858 0.0000 0.1677
vn 0.6689 0.0000 -0.7434
vn 0.9639 0.0000 -0.2662
vn -0.0993 0.0000 -0.9951
vn -0.6251 0.0000 -0.7806
vn 0.6036 0.0000 -0.7973
vn -0.9666 0.0000 -0.2565
vn -0.6816 0.0000 0.7317
vn -0.6266 0.0000 0.7793
vn 0.9349 0.0000 0.3550
vn 0.9864 0.0000 -0.1643
vn 0.1442 0.0000 0.9895
vn 0.2202 0.0000 -0.9755
vn -0.6046 0.0000 -0.7965
vn -0.1855 0.0000 0.9826
vn 0.8629 0.0000 -0.5054
usemtl SVGMat.3781
s off
f 50//1 49//1 48//1
f 50//1 48//1 47//1
f 51//1 50//1 47//1
f 51//1 47//1 46//1
f 52//1 51//1 46//1
f 53//1 52//1 46//1
f 53//1 46//1 45//1
f 54//1 53//1 45//1
f 55//1 54//1 45//1
f 56//1 55//1 45//1
f 44//1 43//1 42//1
f 56//1 45//1 44//1
f 56//1 44//1 42//1
f 56//1 42//1 41//1
f 57//1 56//1 41//1
f 57//1 41//1 40//1
f 57//1 40//1 39//1
f 27//1 26//1 25//1
f 58//1 57//1 39//1
f 28//1 27//1 25//1
f 28//1 25//1 24//1
f 34//1 33//1 32//1
f 29//1 28//1 24//1
f 34//1 32//1 31//1
f 58//1 39//1 38//1
f 35//1 34//1 31//1
f 30//1 29//1 24//1
f 35//1 31//1 30//1
f 35//1 30//1 24//1
f 58//1 38//1 37//1
f 35//1 24//1 23//1
f 59//1 58//1 37//1
f 36//1 35//1 23//1
f 59//1 37//1 36//1
f 36//1 23//1 22//1
f 59//1 36//1 22//1
f 59//1 22//1 21//1
f 60//1 59//1 21//1
f 60//1 21//1 20//1
f 61//1 60//1 20//1
f 62//1 61//1 20//1
f 62//1 20//1 19//1
f 63//1 62//1 19//1
f 63//1 19//1 18//1
f 64//1 63//1 18//1
f 64//1 18//1 17//1
f 65//1 64//1 17//1
f 66//1 65//1 17//1
f 67//1 66//1 17//1
f 67//1 17//1 16//1
f 68//1 67//1 16//1
f 68//1 16//1 15//1
f 69//1 68//1 15//1
f 70//1 69//1 15//1
f 70//1 15//1 14//1
f 71//1 70//1 14//1
f 71//1 14//1 13//1
f 71//1 13//1 9//1
f 10//1 9//1 13//1
f 71//1 9//1 7//1
f 10//1 13//1 12//1
f 71//1 7//1 6//1
f 7//1 9//1 8//1
f 11//1 10//1 12//1
f 72//1 71//1 6//1
f 72//1 6//1 5//1
f 73//1 72//1 5//1
f 73//1 5//1 4//1
f 73//1 4//1 3//1
f 118//1 73//1 3//1
f 73//1 118//1 117//1
f 119//1 118//1 3//1
f 74//1 73//1 117//1
f 119//1 3//1 2//1
f 74//1 117//1 116//1
f 119//1 2//1 1//1
f 75//1 74//1 116//1
f 120//1 119//1 1//1
f 75//1 116//1 115//1
f 120//1 1//1 128//1
f 75//1 115//1 114//1
f 121//1 120//1 128//1
f 76//1 75//1 114//1
f 121//1 128//1 122//1
f 122//1 128//1 127//1
f 123//1 122//1 127//1
f 123//1 127//1 126//1
f 77//1 76//1 114//1
f 124//1 123//1 126//1
f 124//1 126//1 125//1
f 78//1 77//1 114//1
f 78//1 114//1 113//1
f 79//1 78//1 113//1
f 80//1 79//1 113//1
f 80//1 113//1 112//1
f 81//1 80//1 112//1
f 82//1 81//1 112//1
f 82//1 112//1 111//1
f 82//1 111//1 110//1
f 82//1 110//1 109//1
f 83//1 82//1 109//1
f 83//1 109//1 108//1
f 83//1 108//1 107//1
f 84//1 83//1 107//1
f 84//1 107//1 106//1
f 85//1 84//1 106//1
f 86//1 85//1 106//1
f 87//1 86//1 106//1
f 87//1 106//1 105//1
f 88//1 87//1 105//1
f 88//1 105//1 104//1
f 88//1 104//1 103//1
f 88//1 103//1 102//1
f 88//1 102//1 101//1
f 89//1 88//1 101//1
f 90//1 89//1 101//1
f 90//1 101//1 100//1
f 91//1 90//1 100//1
f 92//1 91//1 100//1
f 92//1 100//1 99//1
f 93//1 92//1 99//1
f 93//1 99//1 98//1
f 94//1 93//1 98//1
f 94//1 98//1 97//1
f 95//1 94//1 97//1
f 95//1 97//1 96//1
f 241//2 148//2 149//2
f 241//2 196//2 148//2
f 176//2 196//2 241//2
f 176//2 175//2 196//2
f 256//2 175//2 176//2
f 246//2 175//2 256//2
f 246//2 136//2 175//2
f 169//2 136//2 246//2
f 131//2 136//2 169//2
f 132//2 136//2 131//2
f 135//2 252//2 232//2
f 132//2 135//2 136//2
f 132//2 252//2 135//2
f 132//2 172//2 252//2
f 145//2 172//2 132//2
f 145//2 144//2 172//2
f 145//2 179//2 144//2
f 227//2 251//2 244//2
f 180//2 179//2 145//2
f 228//2 251//2 227//2
f 228//2 170//2 251//2
f 194//2 193//2 255//2
f 214//2 170//2 228//2
f 194//2 209//2 193//2
f 180//2 155//2 179//2
f 171//2 209//2 194//2
f 195//2 170//2 214//2
f 171//2 195//2 209//2
f 171//2 170//2 195//2
f 180//2 154//2 155//2
f 171//2 233//2 170//2
f 229//2 154//2 180//2
f 208//2 233//2 171//2
f 229//2 208//2 154//2
f 208//2 207//2 233//2
f 229//2 207//2 208//2
f 229//2 130//2 207//2
f 181//2 130//2 229//2
f 181//2 129//2 130//2
f 182//2 129//2 181//2
f 178//2 129//2 182//2
f 178//2 177//2 129//2
f 142//2 177//2 178//2
f 142//2 222//2 177//2
f 143//2 222//2 142//2
f 143//2 191//2 222//2
f 230//2 191//2 143//2
f 211//2 191//2 230//2
f 192//2 191//2 211//2
f 192//2 240//2 191//2
f 247//2 240//2 192//2
f 247//2 235//2 240//2
f 253//2 235//2 247//2
f 238//2 235//2 253//2
f 238//2 215//2 235//2
f 174//2 215//2 238//2
f 174//2 173//2 215//2
f 174//2 164//2 173//2
f 204//2 173//2 164//2
f 174//2 163//2 164//2
f 204//2 201//2 173//2
f 174//2 219//2 163//2
f 163//2 243//2 164//2
f 200//2 201//2 204//2
f 162//2 219//2 174//2
f 162//2 161//2 219//2
f 153//2 161//2 162//2
f 153//2 165//2 161//2
f 153//2 152//2 165//2
f 151//2 152//2 153//2
f 153//2 150//2 151//2
f 206//2 152//2 151//2
f 139//2 150//2 153//2
f 206//2 254//2 152//2
f 139//2 138//2 150//2
f 206//2 205//2 254//2
f 137//2 138//2 139//2
f 248//2 205//2 206//2
f 137//2 245//2 138//2
f 248//2 221//2 205//2
f 137//2 160//2 245//2
f 212//2 221//2 248//2
f 159//2 160//2 137//2
f 212//2 213//2 221//2
f 213//2 220//2 221//2
f 236//2 220//2 213//2
f 236//2 186//2 220//2
f 237//2 160//2 159//2
f 226//2 186//2 236//2
f 226//2 185//2 186//2
f 189//2 160//2 237//2
f 189//2 190//2 160//2
f 242//2 190//2 189//2
f 217//2 190//2 242//2
f 217//2 141//2 190//2
f 140//2 141//2 217//2
f 203//2 141//2 140//2
f 203//2 239//2 141//2
f 203//2 234//2 239//2
f 203//2 184//2 234//2
f 223//2 184//2 203//2
f 223//2 183//2 184//2
f 223//2 224//2 183//2
f 166//2 224//2 223//2
f 166//2 134//2 224//2
f 133//2 134//2 166//2
f 187//2 134//2 133//2
f 188//2 134//2 187//2
f 188//2 168//2 134//2
f 167//2 168//2 188//2
f 167//2 218//2 168//2
f 167//2 250//2 218//2
f 167//2 249//2 250//2
f 167//2 158//2 249//2
f 157//2 158//2 167//2
f 210//3 158//3 157//3
f 210//2 147//2 158//2
f 225//2 147//2 210//2
f 146//2 147//2 225//2
f 146//2 197//2 147//2
f 156//2 197//2 146//2
f 156//2 202//2 197//2
f 231//2 202//2 156//2
f 231//2 199//2 202//2
f 198//2 199//2 231//2
f 198//2 216//2 199//2
f 43//4 44//4 135//4 232//4
f 47//5 48//5 148//5 196//5
f 75//6 76//6 159//6 137//6
f 96//7 97//7 199//7 216//7
f 85//8 86//8 187//8 133//8
f 71//9 72//9 162//9 174//9
f 58//10 59//10 229//10 180//10
f 61//11 62//11 178//11 182//11
f 126//12 127//12 220//12 186//12
f 88//13 89//13 157//13 167//13
f 35//14 36//14 208//14 171//14
f 103//15 104//15 218//15 250//15
f 18//16 19//16 177//16 222//16
f 105//17 106//17 134//17 168//17
f 11//18 12//18 201//18 200//18
f 73//19 74//19 139//19 153//19
f 98//20 99//20 197//20 202//20
f 120//21 121//21 212//21 248//21
f 14//22 15//22 235//22 215//22
f 122//23 123//23 236//23 213//23
f 64//24 65//24 230//24 143//24
f 40//25 41//25 172//25 144//25
f 110//26 111//26 239//26 234//26
f 81//27 82//27 203//27 140//27
f 9//28 10//28 204//28 164//28
f 93//29 94//29 231//29 156//29
f 20//30 21//30 130//30 129//30
f 77//31 78//31 189//31 237//31
f 128//32 1//32 205//32 221//32
f 124//33 125//33 185//33 226//33
f 55//34 56//34 132//34 131//34
f 31//35 32//35 193//35 209//35
f 52//36 53//36 246//36 256//36
f 59//37 60//37 181//37 229//37
f 44//38 45//38 136//38 135//38
f 15//39 16//39 240//39 235//39
f 74//40 75//40 137//40 139//40
f 111//41 112//41 141//41 239//41
f 102//42 103//42 250//42 249//42
f 30//43 31//43 209//43 195//43
f 42//44 43//44 232//44 252//44
f 1//45 2//45 254//45 205//45
f 12//46 13//46 173//46 201//46
f 63//47 64//47 143//47 142//47
f 89//48 90//48 210//48 157//48
f 82//49 83//49 223//49 203//49
f 113//50 114//50 160//50 190//50
f 66//51 67//51 192//51 211//51
f 76//52 77//52 237//52 159//52
f 16//53 17//53 191//53 240//53
f 38//54 39//54 179//54 155//54
f 121//55 122//55 213//55 212//55
f 72//56 73//56 153//56 162//56
f 48//57 49//57 149//57 148//57
f 79//58 80//58 217//58 242//58
f 29//59 30//59 195//59 214//59
f 117//60 118//60 151//60 150//60
f 50//61 51//61 176//61 241//61
f 21//62 22//62 207//62 130//62
f 46//63 47//63 196//63 175//63
f 95//64 96//64 216//64 198//64
f 37//65 38//65 155//65 154//65
f 80//66 81//66 140//66 217//66
f 119//67 120//67 248//67 206//67
f 92//68 93//68 156//68 146//68
f 109//69 110//69 234//69 184//69
f 19//70 20//70 129//70 177//70
f 112//71 113//71 190//71 141//71
f 5//72 6//72 219//72 161//72
f 68//73 69//73 253//73 247//73
f 83//74 84//74 166//74 223//74
f 57//75 58//75 180//75 145//75
f 101//76 102//76 249//76 158//76
f 87//77 88//77 167//77 188//77
f 2//78 3//78 152//78 254//78
f 17//79 18//79 222//79 191//79
f 127//80 128//80 221//80 220//80
f 115//81 116//81 138//81 245//81
f 91//82 92//82 146//82 225//82
f 84//83 85//83 133//83 166//83
f 78//84 79//84 242//84 189//84
f 70//85 71//85 174//85 238//85
f 104//86 105//86 168//86 218//86
f 32//87 33//87 255//87 193//87
f 8//88 9//88 164//88 243//88
f 116//89 117//89 150//89 138//89
f 97//90 98//90 202//90 199//90
f 24//91 25//91 251//91 170//91
f 51//92 52//92 256//92 176//92
f 26//93 27//93 227//93 244//93
f 33//94 34//94 194//94 255//94
f 54//95 55//95 131//95 169//95
f 56//96 57//96 145//96 132//96
f 90//97 91//97 225//97 210//97
f 41//98 42//98 252//98 172//98
f 118//99 119//99 206//99 151//99
f 99//100 100//100 147//100 197//100
f 10//101 11//101 200//101 204//101
f 69//102 70//102 238//102 253//102
f 36//103 37//103 154//103 208//103
f 49//104 50//104 241//104 149//104
f 65//105 66//105 211//105 230//105
f 4//106 5//106 161//106 165//106
f 60//107 61//107 182//107 181//107
f 13//108 14//108 215//108 173//108
f 22//109 23//109 233//109 207//109
f 108//110 109//110 184//110 183//110
f 39//111 40//111 144//111 179//111
f 62//112 63//112 142//112 178//112
f 125//113 126//113 186//113 185//113
f 27//114 28//114 228//114 227//114
f 86//115 87//115 188//115 187//115
f 114//116 115//116 245//116 160//116
f 23//117 24//117 170//117 233//117
f 45//118 46//118 175//118 136//118
f 53//119 54//119 169//119 246//119
f 28//120 29//120 214//120 228//120
f 100//121 101//121 158//121 147//121
f 67//122 68//122 247//122 192//122
f 123//123 124//123 226//123 236//123
f 94//124 95//124 198//124 231//124
f 3//125 4//125 165//125 152//125
f 107//126 108//126 183//126 224//126
f 6//127 7//127 163//127 219//127
f 25//128 26//128 244//128 251//128
f 34//129 35//129 171//129 194//129
f 7//130 8//130 243//130 163//130
f 106//131 107//131 224//131 134//131
