# Blender v2.79 (sub 0) OBJ File: 'menu.blend'
# www.blender.org
mtllib timor.mtl
o timor_Curve.174_CUCurve.5133
v 17.654150 -0.000002 13.321789
v 17.657051 -0.000002 13.321262
v 17.670246 -0.000002 13.321170
v 17.651327 -0.000002 13.322639
v 17.647541 -0.000002 13.324154
v 17.642044 -0.000002 13.326825
v 17.665432 -0.000002 13.332145
v 17.647787 -0.000002 13.332309
v 17.651230 -0.000002 13.335135
v 17.663515 -0.000002 13.335830
v 17.653711 -0.000002 13.336770
v 17.661917 -0.000002 13.338055
v 17.655451 -0.000002 13.337684
v 17.657154 -0.000002 13.338322
v 17.660362 -0.000002 13.338579
v 17.658796 -0.000002 13.338635
v 17.802053 -0.000002 13.271022
v 17.810886 -0.000002 13.270380
v 17.816656 -0.000002 13.270468
v 17.820751 -0.000002 13.271320
v 17.822866 -0.000002 13.273112
v 17.777119 -0.000002 13.274142
v 17.822699 -0.000002 13.276023
v 17.767532 -0.000002 13.275230
v 17.758087 -0.000002 13.276024
v 17.735489 -0.000002 13.276364
v 17.740852 -0.000002 13.276023
v 17.749092 -0.000002 13.276347
v 17.820417 -0.000002 13.279070
v 17.730635 -0.000002 13.277342
v 17.726212 -0.000002 13.278888
v 17.722141 -0.000002 13.280934
v 17.815287 -0.000002 13.282540
v 17.718346 -0.000002 13.283411
v 17.807747 -0.000002 13.286382
v 17.714746 -0.000002 13.286251
v 17.710470 -0.000002 13.290122
v 17.798237 -0.000002 13.290546
v 17.785254 -0.000002 13.295757
v 17.701023 -0.000002 13.299587
v 17.751316 -0.000002 13.308681
v 17.696943 -0.000002 13.303487
v 17.692873 -0.000002 13.307062
v 17.692223 -0.000002 13.307117
v 17.691460 -0.000002 13.307351
v 17.690634 -0.000002 13.307910
v 17.689430 -0.000002 13.309065
v 17.688646 -0.000002 13.309592
v 17.736574 -0.000002 13.314511
v 17.687277 -0.000002 13.309919
v 17.692644 -0.000002 13.315368
v 17.724504 -0.000002 13.319588
v 17.698006 -0.000002 13.321341
v 17.713554 -0.000002 13.324645
v 17.702070 -0.000002 13.326609
v 17.704163 -0.000002 13.329634
v 17.654150 0.049998 13.321789
v 17.670246 0.049998 13.321170
v 17.657051 0.049998 13.321262
v 17.651327 0.049998 13.322639
v 17.647541 0.049998 13.324154
v 17.642044 0.049998 13.326825
v 17.665432 0.049998 13.332145
v 17.647787 0.049998 13.332309
v 17.651230 0.049998 13.335135
v 17.663515 0.049998 13.335830
v 17.653711 0.049998 13.336770
v 17.661917 0.049998 13.338055
v 17.655451 0.049998 13.337684
v 17.657154 0.049998 13.338322
v 17.660362 0.049998 13.338579
v 17.658796 0.049998 13.338635
v 17.802053 0.049998 13.271022
v 17.816656 0.049998 13.270468
v 17.810886 0.049998 13.270380
v 17.820751 0.049998 13.271320
v 17.822866 0.049998 13.273112
v 17.777119 0.049998 13.274142
v 17.822699 0.049998 13.276023
v 17.767532 0.049998 13.275230
v 17.758087 0.049998 13.276024
v 17.735489 0.049998 13.276364
v 17.749092 0.049998 13.276347
v 17.740852 0.049998 13.276023
v 17.820417 0.049998 13.279070
v 17.730635 0.049998 13.277342
v 17.726212 0.049998 13.278888
v 17.722141 0.049998 13.280934
v 17.815287 0.049998 13.282540
v 17.718346 0.049998 13.283411
v 17.807747 0.049998 13.286382
v 17.714746 0.049998 13.286251
v 17.710470 0.049998 13.290122
v 17.798237 0.049998 13.290546
v 17.785254 0.049998 13.295757
v 17.701023 0.049998 13.299587
v 17.751316 0.049998 13.308681
v 17.696943 0.049998 13.303487
v 17.692873 0.049998 13.307062
v 17.692223 0.049998 13.307117
v 17.691460 0.049998 13.307351
v 17.690634 0.049998 13.307910
v 17.689430 0.049998 13.309065
v 17.688646 0.049998 13.309592
v 17.736574 0.049998 13.314511
v 17.687277 0.049998 13.309919
v 17.692644 0.049998 13.315368
v 17.724504 0.049998 13.319588
v 17.698006 0.049998 13.321341
v 17.713554 0.049998 13.324645
v 17.702070 0.049998 13.326609
v 17.704163 0.049998 13.329634
vn 0.0000 -1.0000 -0.0000
vn 0.0000 1.0000 0.0000
vn 0.0000 1.0000 0.0001
vn -0.0637 0.0000 -0.9980
vn 0.8121 0.0000 0.5835
vn 0.3618 0.0000 0.9322
vn 0.3559 0.0000 0.9345
vn 0.4012 0.0000 0.9160
vn -0.0359 0.0000 -0.9994
vn -0.5503 0.0000 0.8350
vn 0.9983 0.0000 0.0576
vn -0.7078 0.0000 -0.7064
vn -0.0836 0.0000 -0.9965
vn 0.4539 0.0000 0.8910
vn 0.8005 0.0000 0.5993
vn -0.6909 0.0000 -0.7229
vn -0.0840 0.0000 -0.9965
vn -0.2928 0.0000 -0.9562
vn -0.6599 0.0000 -0.7513
vn -0.1787 0.0000 -0.9839
vn -0.4369 0.0000 -0.8995
vn 0.0365 0.0000 0.9993
vn 0.4690 0.0000 0.8832
vn 0.5604 0.0000 0.8282
vn -0.4648 0.0000 0.8854
vn 0.3678 0.0000 0.9299
vn -0.1185 0.0000 -0.9930
vn -0.1128 0.0000 -0.9936
vn -0.3507 0.0000 0.9365
vn -0.3715 0.0000 -0.9284
vn 0.4193 0.0000 0.9078
vn 0.3877 0.0000 0.9218
vn -0.5606 0.0000 -0.8281
vn -0.5578 0.0000 -0.8299
vn -0.1882 0.0000 0.9821
vn -0.2883 0.0000 -0.9575
vn -0.6194 0.0000 -0.7851
vn -0.2328 0.0000 -0.9725
vn -0.5465 0.0000 -0.8374
vn -0.8224 0.0000 0.5690
vn -0.6712 0.0000 -0.7413
vn 0.8871 0.0000 0.4615
vn -0.3300 0.0000 -0.9440
vn -0.7917 0.0000 0.6109
vn 0.9158 0.0000 0.4017
vn -0.6925 0.0000 -0.7215
vn -0.1242 0.0000 -0.9923
vn 0.0393 0.0000 -0.9992
vn -0.7124 0.0000 0.7018
vn -0.1974 0.0000 -0.9803
vn -0.0070 0.0000 -1.0000
vn 0.0151 0.0000 -0.9999
vn 0.2040 0.0000 -0.9790
vn -0.4491 0.0000 -0.8935
vn -0.7443 0.0000 0.6679
vn -0.0724 0.0000 -0.9974
vn -0.6347 0.0000 0.7728
vn -0.6906 0.0000 0.7233
vn 0.3197 0.0000 0.9475
vn 0.3725 0.0000 0.9280
vn 0.6463 0.0000 -0.7631
usemtl SVGMat.009
s 1
f 1//1 2//1 3//1
f 4//1 1//1 3//1
f 5//1 4//1 3//1
f 6//1 5//1 3//1
f 6//1 3//1 7//1
f 8//1 6//1 7//1
f 9//1 8//1 7//1
f 9//1 7//1 10//1
f 11//1 9//1 10//1
f 11//1 10//1 12//1
f 13//1 11//1 12//1
f 14//1 13//1 12//1
f 14//1 12//1 15//1
f 16//1 14//1 15//1
f 17//1 18//1 19//1
f 17//1 19//1 20//1
f 17//1 20//1 21//1
f 22//1 17//1 21//1
f 22//1 21//1 23//1
f 24//1 22//1 23//1
f 25//1 24//1 23//1
f 26//1 27//1 28//1
f 25//1 23//1 29//1
f 28//1 25//1 29//1
f 26//1 28//1 29//1
f 30//1 26//1 29//1
f 31//1 30//1 29//1
f 32//1 31//1 29//1
f 32//1 29//1 33//1
f 34//1 32//1 33//1
f 34//1 33//1 35//1
f 36//1 34//1 35//1
f 37//1 36//1 35//1
f 37//1 35//1 38//1
f 37//1 38//1 39//1
f 40//1 37//1 39//1
f 40//1 39//1 41//1
f 42//1 40//1 41//1
f 43//1 42//1 41//1
f 44//1 43//1 41//1
f 45//1 44//1 41//1
f 46//1 45//1 41//1
f 47//1 46//1 41//1
f 48//1 47//1 41//1
f 48//1 41//1 49//1
f 50//1 48//1 49//1
f 51//1 50//1 49//1
f 51//1 49//1 52//1
f 53//1 51//1 52//1
f 53//1 52//1 54//1
f 55//1 53//1 54//1
f 55//1 54//1 56//1
f 57//2 58//2 59//2
f 60//2 58//2 57//2
f 61//2 58//2 60//2
f 62//2 58//2 61//2
f 62//2 63//2 58//2
f 64//2 63//2 62//2
f 65//2 63//2 64//2
f 65//2 66//2 63//2
f 67//2 66//2 65//2
f 67//2 68//2 66//2
f 69//2 68//2 67//2
f 70//2 68//2 69//2
f 70//2 71//2 68//2
f 72//2 71//2 70//2
f 73//2 74//2 75//2
f 73//2 76//2 74//2
f 73//2 77//2 76//2
f 78//2 77//2 73//2
f 78//2 79//2 77//2
f 80//2 79//2 78//2
f 81//2 79//2 80//2
f 82//2 83//2 84//2
f 81//2 85//2 79//2
f 83//2 85//2 81//2
f 82//2 85//2 83//2
f 86//2 85//2 82//2
f 87//2 85//2 86//2
f 88//2 85//2 87//2
f 88//2 89//2 85//2
f 90//2 89//2 88//2
f 90//2 91//2 89//2
f 92//2 91//2 90//2
f 93//2 91//2 92//2
f 93//2 94//2 91//2
f 93//2 95//2 94//2
f 96//2 95//2 93//2
f 96//2 97//2 95//2
f 98//2 97//2 96//2
f 99//3 97//2 98//2
f 100//2 97//2 99//3
f 101//2 97//2 100//2
f 102//2 97//2 101//2
f 103//2 97//2 102//2
f 104//2 97//2 103//2
f 104//2 105//2 97//2
f 106//2 105//2 104//2
f 107//2 105//2 106//2
f 107//2 108//2 105//2
f 109//2 108//2 107//2
f 109//2 110//2 108//2
f 111//2 110//2 109//2
f 111//2 112//2 110//2
f 27//4 26//4 82//4 84//4
f 12//5 10//5 66//5 68//5
f 41//6 39//7 95//7 97//6
f 38//8 35//8 91//8 94//8
f 25//9 28//9 83//9 81//9
f 9//10 11//10 67//10 65//10
f 23//11 21//11 77//11 79//11
f 37//12 40//12 96//12 93//12
f 24//13 25//13 81//13 80//13
f 35//14 33//14 89//14 91//14
f 29//15 23//15 79//15 85//15
f 40//16 42//16 98//16 96//16
f 43//17 44//17 100//17 99//17
f 44//18 45//18 101//18 100//18
f 42//19 43//19 99//19 98//19
f 2//20 1//20 57//20 59//20
f 5//21 6//21 62//21 61//21
f 16//22 15//22 71//22 72//22
f 56//23 54//23 110//23 112//23
f 33//24 29//24 85//24 89//24
f 11//25 13//25 69//25 67//25
f 49//26 41//6 97//6 105//26
f 22//27 24//28 80//28 78//27
f 13//29 14//29 70//29 69//29
f 4//30 5//30 61//30 60//30
f 54//31 52//31 108//31 110//31
f 52//32 49//32 105//32 108//32
f 45//33 46//33 102//33 101//33
f 47//34 48//34 104//34 103//34
f 14//35 16//35 72//35 70//35
f 1//36 4//36 60//36 57//36
f 34//37 36//37 92//37 90//37
f 48//38 50//38 106//38 104//38
f 32//39 34//39 90//39 88//39
f 55//40 56//40 112//40 111//40
f 36//41 37//41 93//41 92//41
f 10//42 7//42 63//42 66//42
f 30//43 31//43 87//43 86//43
f 53//44 55//44 111//44 109//44
f 7//45 3//45 58//45 63//45
f 46//46 47//46 103//46 102//46
f 17//47 22//27 78//27 73//47
f 28//48 27//48 84//48 83//48
f 50//49 51//49 107//49 106//49
f 26//50 30//50 86//50 82//50
f 3//51 2//51 59//51 58//51
f 19//52 18//52 75//52 74//52
f 20//53 19//53 74//53 76//53
f 31//54 32//54 88//54 87//54
f 51//55 53//55 109//55 107//55
f 18//56 17//56 73//56 75//56
f 8//57 9//57 65//57 64//57
f 6//58 8//58 64//58 62//58
f 15//59 12//59 68//59 71//59
f 39//60 38//60 94//60 95//60
f 21//61 20//61 76//61 77//61
