# Blender v2.79 (sub 0) OBJ File: 'world_countrycodes_export2.blend'
# www.blender.org
mtllib TL.mtl
o TL.002_CUCurve.1715
v 1.666609 0.000000 0.700371
v 1.665573 0.000000 0.700716
v 1.664613 0.000000 0.701350
v 1.662617 0.000000 0.703248
v 1.661901 0.000000 0.703755
v 1.662789 0.000000 0.704555
v 1.663682 0.000000 0.705644
v 1.664927 0.000000 0.704985
v 1.667442 0.000000 0.703899
v 1.672544 0.000000 0.701901
v 1.674632 0.000000 0.700962
v 1.675376 0.000000 0.700487
v 1.675644 0.000000 0.700173
v 1.675638 0.000000 0.699936
v 1.675338 0.000000 0.699763
v 1.674076 0.000000 0.699753
v 1.670406 0.000000 0.700188
v 1.668442 0.000000 0.700347
v 1.658252 0.000000 0.704833
v 1.657348 0.000000 0.705141
v 1.658112 0.000000 0.705897
v 1.658773 0.000000 0.706267
v 1.659187 0.000000 0.706191
v 1.659540 0.000000 0.705722
v 1.659858 0.000000 0.705107
v 1.660039 0.000000 0.704518
v 1.659204 0.000000 0.704684
v 1.657348 0.050000 0.705141
v 1.659540 0.050000 0.705722
v 1.672544 0.050000 0.701901
v 1.674632 0.050000 0.700962
v 1.664613 0.050000 0.701350
v 1.662617 0.050000 0.703248
v 1.663682 0.050000 0.705644
v 1.664927 0.050000 0.704985
v 1.660039 0.050000 0.704518
v 1.659204 0.050000 0.704684
v 1.665573 0.050000 0.700716
v 1.662789 0.050000 0.704555
v 1.667442 0.050000 0.703899
v 1.675638 0.050000 0.699936
v 1.670406 0.050000 0.700188
v 1.675376 0.050000 0.700487
v 1.668442 0.050000 0.700347
v 1.675644 0.050000 0.700173
v 1.661901 0.050000 0.703755
v 1.658773 0.050000 0.706267
v 1.659187 0.050000 0.706191
v 1.658112 0.050000 0.705897
v 1.659858 0.050000 0.705107
v 1.675338 0.050000 0.699763
v 1.674076 0.050000 0.699753
v 1.658252 0.050000 0.704833
v 1.666609 0.050000 0.700371
vn 0.0000 -1.0000 0.0000
vn 0.0000 1.0000 0.0000
vn 0.0000 1.0000 0.0001
vn 0.3965 0.0000 0.9180
vn -0.4878 0.0000 0.8729
vn 0.9557 0.0000 0.2944
vn 0.4103 0.0000 0.9119
vn -0.0809 0.0000 -0.9967
vn 0.7603 0.0000 0.6495
vn -0.6893 0.0000 -0.7245
vn -0.3218 0.0000 -0.9468
vn -0.0130 0.0000 -0.9999
vn 0.3645 0.0000 0.9312
vn -0.7038 0.0000 0.7104
vn 0.8883 0.0000 0.4592
vn 0.4677 0.0000 0.8839
vn -0.1554 0.0000 -0.9879
vn 0.9996 0.0000 -0.0272
vn 0.0080 0.0000 -1.0000
vn -0.3155 0.0000 -0.9489
vn -0.1949 0.0000 -0.9808
vn 0.5385 0.0000 0.8426
vn -0.5509 0.0000 -0.8346
vn -0.7733 0.0000 0.6341
vn 0.1807 0.0000 0.9835
vn 0.4989 0.0000 -0.8667
vn -0.1177 0.0000 -0.9931
vn -0.5776 0.0000 -0.8163
vn 0.7987 0.0000 0.6017
vn -0.6693 0.0000 0.7430
usemtl SVGMat.3781
s off
f 27//1 26//1 25//1
f 19//1 27//1 25//1
f 20//1 19//1 25//1
f 20//1 25//1 24//1
f 21//1 20//1 24//1
f 21//1 24//1 23//1
f 22//1 21//1 23//1
f 16//1 15//1 14//1
f 17//1 16//1 14//1
f 17//1 14//1 13//1
f 17//1 13//1 12//1
f 18//1 17//1 12//1
f 1//1 18//1 12//1
f 2//1 1//1 12//1
f 2//1 12//1 11//1
f 3//1 2//1 11//1
f 3//1 11//1 10//1
f 4//1 3//1 10//1
f 4//1 10//1 9//1
f 5//1 4//1 9//1
f 6//1 5//1 9//1
f 6//1 9//1 8//1
f 7//1 6//1 8//1
f 37//2 50//2 36//2
f 53//2 50//2 37//2
f 28//2 50//2 53//2
f 28//2 29//2 50//2
f 49//2 29//2 28//2
f 49//2 48//2 29//2
f 47//2 48//2 49//2
f 52//3 41//3 51//3
f 42//2 41//2 52//2
f 42//2 45//2 41//2
f 42//2 43//2 45//2
f 44//2 43//2 42//2
f 54//2 43//2 44//2
f 38//2 43//2 54//2
f 38//2 31//2 43//2
f 32//2 31//2 38//2
f 32//2 30//2 31//2
f 33//2 30//2 32//2
f 33//2 40//2 30//2
f 46//2 40//2 33//2
f 39//2 40//2 46//2
f 39//2 35//2 40//2
f 34//2 35//2 39//2
f 8//4 9//4 40//4 35//4
f 21//5 22//5 47//5 49//5
f 25//6 26//6 36//6 50//6
f 10//7 11//7 31//7 30//7
f 17//8 18//8 44//8 42//8
f 12//9 13//9 45//9 43//9
f 3//10 4//10 33//10 32//10
f 19//11 20//11 28//11 53//11
f 18//12 1//12 54//12 44//12
f 9//13 10//13 30//13 40//13
f 20//14 21//14 49//14 28//14
f 24//15 25//15 50//15 29//15
f 7//16 8//16 35//16 34//16
f 27//17 19//17 53//17 37//17
f 13//18 14//18 41//18 45//18
f 15//19 16//19 52//19 51//19
f 1//20 2//20 38//20 54//20
f 26//21 27//21 37//21 36//21
f 11//22 12//22 43//22 31//22
f 2//23 3//23 32//23 38//23
f 6//24 7//24 34//24 39//24
f 22//25 23//25 48//25 47//25
f 14//26 15//26 51//26 41//26
f 16//27 17//27 42//27 52//27
f 4//28 5//28 46//28 33//28
f 23//29 24//29 29//29 48//29
f 5//30 6//30 39//30 46//30
