# Blender v2.79 (sub 0) OBJ File: 'world_countrycodes_export2.blend'
# www.blender.org
mtllib TN.mtl
o TN.002_CUCurve.1873
v 1.008569 0.000000 0.438969
v 1.008805 0.000000 0.440839
v 1.008133 0.000000 0.442996
v 1.007012 0.000000 0.444282
v 1.005983 0.000000 0.445050
v 1.004413 0.000000 0.447233
v 1.003574 0.000000 0.448077
v 1.002676 0.000000 0.448335
v 1.002470 0.000000 0.449679
v 1.003649 0.000000 0.452750
v 1.005070 0.000000 0.454137
v 1.006410 0.000000 0.454785
v 1.007288 0.000000 0.455843
v 1.007667 0.000000 0.456854
v 1.007705 0.000000 0.458061
v 1.008218 0.000000 0.458725
v 1.011349 0.000000 0.460580
v 1.012132 0.000000 0.461368
v 1.013500 0.000000 0.464947
v 1.014437 0.000000 0.468761
v 1.014831 0.000000 0.472138
v 1.015288 0.000000 0.472876
v 1.017185 0.000000 0.471342
v 1.018193 0.000000 0.469534
v 1.018607 0.000000 0.467625
v 1.018543 0.000000 0.466094
v 1.018458 0.000000 0.464852
v 1.018887 0.000000 0.463938
v 1.023280 0.000000 0.459668
v 1.024899 0.000000 0.459344
v 1.025562 0.000000 0.458940
v 1.025880 0.000000 0.458358
v 1.026026 0.000000 0.455014
v 1.025011 0.000000 0.454234
v 1.023977 0.000000 0.453021
v 1.023808 0.000000 0.452060
v 1.023133 0.000000 0.450962
v 1.022023 0.000000 0.450373
v 1.021048 0.000000 0.451002
v 1.019403 0.000000 0.450952
v 1.018021 0.000000 0.450216
v 1.017213 0.000000 0.449226
v 1.017056 0.000000 0.448018
v 1.017566 0.000000 0.447105
v 1.020419 0.000000 0.445612
v 1.021842 0.000000 0.444577
v 1.022714 0.000000 0.443568
v 1.023255 0.000000 0.442342
v 1.023477 0.000000 0.441020
v 1.023246 0.000000 0.439456
v 1.022434 0.000000 0.437873
v 1.020697 0.000000 0.436173
v 1.020436 0.000000 0.435220
v 1.020825 0.000000 0.434178
v 1.023294 0.000000 0.431564
v 1.023472 0.000000 0.430430
v 1.023070 0.000000 0.430008
v 1.022375 0.000000 0.429944
v 1.021276 0.000000 0.430686
v 1.020457 0.000000 0.430835
v 1.019815 0.000000 0.430624
v 1.019323 0.000000 0.429963
v 1.018989 0.000000 0.428907
v 1.018383 0.000000 0.428282
v 1.017103 0.000000 0.427770
v 1.014582 0.000000 0.427580
v 1.012212 0.000000 0.428265
v 1.010505 0.000000 0.429404
v 1.008317 0.000000 0.429795
v 1.007812 0.000000 0.434572
v 1.008040 0.000000 0.437745
v 1.007288 0.050000 0.455843
v 1.026026 0.050000 0.455014
v 1.018887 0.050000 0.463938
v 1.023280 0.050000 0.459668
v 1.019323 0.050000 0.429963
v 1.010505 0.050000 0.429404
v 1.024899 0.050000 0.459344
v 1.025562 0.050000 0.458940
v 1.003574 0.050000 0.448077
v 1.017056 0.050000 0.448018
v 1.014582 0.050000 0.427580
v 1.012212 0.050000 0.428265
v 1.013500 0.050000 0.464947
v 1.018543 0.050000 0.466094
v 1.020825 0.050000 0.434178
v 1.007812 0.050000 0.434572
v 1.003649 0.050000 0.452750
v 1.005070 0.050000 0.454137
v 1.021048 0.050000 0.451002
v 1.019403 0.050000 0.450952
v 1.002676 0.050000 0.448335
v 1.002470 0.050000 0.449679
v 1.023133 0.050000 0.450962
v 1.022023 0.050000 0.450373
v 1.018989 0.050000 0.428907
v 1.018383 0.050000 0.428282
v 1.017566 0.050000 0.447105
v 1.020419 0.050000 0.445612
v 1.007012 0.050000 0.444282
v 1.005983 0.050000 0.445050
v 1.020436 0.050000 0.435220
v 1.022434 0.050000 0.437873
v 1.008040 0.050000 0.437745
v 1.021842 0.050000 0.444577
v 1.022714 0.050000 0.443568
v 1.011349 0.050000 0.460580
v 1.012132 0.050000 0.461368
v 1.014437 0.050000 0.468761
v 1.018193 0.050000 0.469534
v 1.020697 0.050000 0.436173
v 1.018607 0.050000 0.467625
v 1.014831 0.050000 0.472138
v 1.015288 0.050000 0.472876
v 1.007705 0.050000 0.458061
v 1.025880 0.050000 0.458358
v 1.007667 0.050000 0.456854
v 1.025011 0.050000 0.454234
v 1.020457 0.050000 0.430835
v 1.019815 0.050000 0.430624
v 1.023977 0.050000 0.453021
v 1.018021 0.050000 0.450216
v 1.008133 0.050000 0.442996
v 1.008218 0.050000 0.458725
v 1.017213 0.050000 0.449226
v 1.023255 0.050000 0.442342
v 1.023477 0.050000 0.441020
v 1.008317 0.050000 0.429795
v 1.023472 0.050000 0.430430
v 1.021276 0.050000 0.430686
v 1.017103 0.050000 0.427770
v 1.008569 0.050000 0.438969
v 1.023294 0.050000 0.431564
v 1.023246 0.050000 0.439456
v 1.018458 0.050000 0.464852
v 1.006410 0.050000 0.454785
v 1.023070 0.050000 0.430008
v 1.022375 0.050000 0.429944
v 1.017185 0.050000 0.471342
v 1.023808 0.050000 0.452060
v 1.008805 0.050000 0.440839
v 1.004413 0.050000 0.447233
vn 0.0000 -1.0000 0.0000
vn 0.0000 1.0000 0.0000
vn -0.5978 0.0000 -0.8016
vn 0.9991 0.0000 -0.0416
vn -0.1787 0.0000 -0.9839
vn -0.5098 0.0000 0.8603
vn 0.9369 0.0000 0.3495
vn 0.0918 0.0000 -0.9958
vn -0.9995 0.0000 0.0317
vn 0.8729 0.0000 0.4878
vn 0.8771 0.0000 0.4803
vn 0.7569 0.0000 0.6536
vn -0.2767 0.0000 -0.9609
vn -0.7092 0.0000 0.7050
vn 0.7231 0.0000 -0.6907
vn -0.9974 0.0000 0.0718
vn 0.0754 0.0000 -0.9972
vn -0.9712 0.0000 0.2385
vn 0.9977 0.0000 -0.0685
vn 0.9878 0.0000 0.1555
vn -0.8503 0.0000 0.5262
vn 0.9849 0.0000 -0.1731
vn 0.9991 0.0000 0.0435
vn 0.3716 0.0000 -0.9284
vn -0.1761 0.0000 -0.9844
vn 0.9773 0.0000 0.2118
vn 0.6096 0.0000 -0.7927
vn 0.7270 0.0000 0.6867
vn -0.9336 0.0000 0.3584
vn -0.9363 0.0000 0.3512
vn -0.5595 0.0000 -0.8288
vn 0.6970 0.0000 0.7171
vn 0.8518 0.0000 -0.5239
vn 0.8896 0.0000 -0.4568
vn 0.8022 0.0000 -0.5971
vn 0.7749 0.0000 -0.6320
vn 0.3116 0.0000 -0.9502
vn 0.5204 0.0000 0.8539
vn -0.7696 0.0000 0.6385
vn -0.8118 0.0000 -0.5839
vn 0.9050 0.0000 0.4254
vn -0.7539 0.0000 -0.6569
vn -0.2778 0.0000 -0.9606
vn 0.4700 0.0000 -0.8827
vn 0.6996 0.0000 -0.7146
vn 0.9148 0.0000 0.4039
vn -0.5550 0.0000 -0.8319
vn -0.9548 0.0000 -0.2972
vn 0.1963 0.0000 0.9805
vn 0.6289 0.0000 0.7775
vn -0.7915 0.0000 0.6112
vn -0.6987 0.0000 0.7154
vn 0.8735 0.0000 0.4869
vn 0.5881 0.0000 0.8088
vn 0.0304 0.0000 -0.9995
vn -0.7093 0.0000 -0.7049
vn -0.9921 0.0000 0.1253
vn 0.9916 0.0000 -0.1293
vn -0.9885 0.0000 -0.1515
vn 0.9534 0.0000 -0.3017
vn 0.4693 0.0000 -0.8830
vn 0.9646 0.0000 -0.2638
vn 0.7608 0.0000 -0.6489
vn 0.9893 0.0000 -0.1461
vn -0.5422 0.0000 -0.8403
vn -0.9341 0.0000 0.3571
vn 0.7176 0.0000 -0.6965
vn -0.9181 0.0000 0.3963
vn -0.9933 0.0000 0.1159
vn 0.9861 0.0000 0.1662
vn 0.4637 0.0000 0.8860
vn -0.4350 0.0000 0.9004
vn -0.9944 0.0000 -0.1052
usemtl SVGMat.3781
s off
f 67//1 66//1 65//1
f 67//1 65//1 64//1
f 67//1 64//1 63//1
f 68//1 67//1 63//1
f 68//1 63//1 62//1
f 69//1 68//1 62//1
f 70//1 69//1 62//1
f 58//1 57//1 56//1
f 70//1 62//1 61//1
f 59//1 58//1 56//1
f 59//1 56//1 55//1
f 70//1 61//1 60//1
f 60//1 59//1 55//1
f 70//1 60//1 55//1
f 70//1 55//1 54//1
f 70//1 54//1 53//1
f 70//1 53//1 52//1
f 71//1 70//1 52//1
f 71//1 52//1 51//1
f 1//1 71//1 51//1
f 1//1 51//1 50//1
f 2//1 1//1 50//1
f 2//1 50//1 49//1
f 2//1 49//1 48//1
f 3//1 2//1 48//1
f 3//1 48//1 47//1
f 4//1 3//1 47//1
f 4//1 47//1 46//1
f 5//1 4//1 46//1
f 5//1 46//1 45//1
f 6//1 5//1 45//1
f 6//1 45//1 44//1
f 7//1 6//1 44//1
f 7//1 44//1 43//1
f 8//1 7//1 43//1
f 8//1 43//1 42//1
f 9//1 8//1 42//1
f 9//1 42//1 41//1
f 9//1 41//1 40//1
f 39//1 38//1 37//1
f 10//1 9//1 40//1
f 10//1 40//1 39//1
f 10//1 39//1 37//1
f 10//1 37//1 36//1
f 10//1 36//1 35//1
f 11//1 10//1 35//1
f 11//1 35//1 34//1
f 12//1 11//1 34//1
f 12//1 34//1 33//1
f 13//1 12//1 33//1
f 14//1 13//1 33//1
f 15//1 14//1 33//1
f 15//1 33//1 32//1
f 16//1 15//1 32//1
f 16//1 32//1 31//1
f 16//1 31//1 30//1
f 16//1 30//1 29//1
f 17//1 16//1 29//1
f 18//1 17//1 29//1
f 18//1 29//1 28//1
f 19//1 18//1 28//1
f 19//1 28//1 27//1
f 19//1 27//1 26//1
f 20//1 19//1 26//1
f 20//1 26//1 25//1
f 20//1 25//1 24//1
f 20//1 24//1 23//1
f 21//1 20//1 23//1
f 21//1 23//1 22//1
f 83//2 131//2 82//2
f 83//2 97//2 131//2
f 83//2 96//2 97//2
f 77//2 96//2 83//2
f 77//2 76//2 96//2
f 128//2 76//2 77//2
f 87//2 76//2 128//2
f 138//2 129//2 137//2
f 87//2 120//2 76//2
f 130//2 129//2 138//2
f 130//2 133//2 129//2
f 87//2 119//2 120//2
f 119//2 133//2 130//2
f 87//2 133//2 119//2
f 87//2 86//2 133//2
f 87//2 102//2 86//2
f 87//2 111//2 102//2
f 104//2 111//2 87//2
f 104//2 103//2 111//2
f 132//2 103//2 104//2
f 132//2 134//2 103//2
f 141//2 134//2 132//2
f 141//2 127//2 134//2
f 141//2 126//2 127//2
f 123//2 126//2 141//2
f 123//2 106//2 126//2
f 100//2 106//2 123//2
f 100//2 105//2 106//2
f 101//2 105//2 100//2
f 101//2 99//2 105//2
f 142//2 99//2 101//2
f 142//2 98//2 99//2
f 80//2 98//2 142//2
f 80//2 81//2 98//2
f 92//2 81//2 80//2
f 92//2 125//2 81//2
f 93//2 125//2 92//2
f 93//2 122//2 125//2
f 93//2 91//2 122//2
f 90//2 94//2 95//2
f 88//2 91//2 93//2
f 88//2 90//2 91//2
f 88//2 94//2 90//2
f 88//2 140//2 94//2
f 88//2 121//2 140//2
f 89//2 121//2 88//2
f 89//2 118//2 121//2
f 136//2 118//2 89//2
f 136//2 73//2 118//2
f 72//2 73//2 136//2
f 117//2 73//2 72//2
f 115//2 73//2 117//2
f 115//2 116//2 73//2
f 124//2 116//2 115//2
f 124//2 79//2 116//2
f 124//2 78//2 79//2
f 124//2 75//2 78//2
f 107//2 75//2 124//2
f 108//2 75//2 107//2
f 108//2 74//2 75//2
f 84//2 74//2 108//2
f 84//2 135//2 74//2
f 84//2 85//2 135//2
f 109//2 85//2 84//2
f 109//2 112//2 85//2
f 109//2 110//2 112//2
f 109//2 139//2 110//2
f 113//2 139//2 109//2
f 113//2 114//2 139//2
f 4//3 5//3 101//3 100//3
f 25//4 26//4 85//4 112//4
f 59//5 60//5 119//5 130//5
f 16//6 17//6 107//6 124//6
f 53//7 54//7 86//7 102//7
f 57//8 58//8 138//8 137//8
f 14//9 15//9 115//9 117//9
f 43//10 44//10 98//10 81//10
f 31//11 32//11 116//11 79//11
f 46//12 47//12 106//12 105//12
f 7//13 8//13 92//13 80//13
f 17//14 18//14 108//14 107//14
f 56//15 57//15 137//15 129//15
f 70//16 71//16 104//16 87//16
f 65//17 66//17 82//17 131//17
f 19//18 20//18 109//18 84//18
f 26//19 27//19 135//19 85//19
f 55//20 56//20 129//20 133//20
f 21//21 22//21 114//21 113//21
f 35//22 36//22 140//22 121//22
f 32//23 33//23 73//23 116//23
f 64//24 65//24 131//24 97//24
f 68//25 69//25 128//25 77//25
f 24//26 25//26 112//26 110//26
f 33//27 34//27 118//27 73//27
f 54//28 55//28 133//28 86//28
f 9//29 10//29 88//29 93//29
f 13//30 14//30 117//30 72//30
f 58//31 59//31 130//31 138//31
f 28//32 29//32 75//32 74//32
f 36//33 37//33 94//33 140//33
f 50//34 51//34 103//34 134//34
f 61//35 62//35 76//35 120//35
f 41//36 42//36 125//36 122//36
f 60//37 61//37 120//37 119//37
f 30//38 31//38 79//38 78//38
f 12//39 13//39 72//39 136//39
f 5//40 6//40 142//40 101//40
f 27//41 28//41 74//41 135//41
f 3//42 4//42 100//42 123//42
f 66//43 67//43 83//43 82//43
f 40//44 41//44 122//44 91//44
f 51//45 52//45 111//45 103//45
f 47//46 48//46 126//46 106//46
f 67//47 68//47 77//47 83//47
f 2//48 3//48 123//48 141//48
f 29//49 30//49 78//49 75//49
f 22//50 23//50 139//50 114//50
f 15//51 16//51 124//51 115//51
f 10//52 11//52 89//52 88//52
f 23//53 24//53 110//53 139//53
f 45//54 46//54 105//54 99//54
f 39//55 40//55 91//55 90//55
f 6//56 7//56 80//56 142//56
f 1//57 2//57 141//57 132//57
f 42//58 43//58 81//58 125//58
f 8//59 9//59 93//59 92//59
f 62//60 63//60 96//60 76//60
f 37//61 38//61 95//61 94//61
f 52//62 53//62 102//62 111//62
f 34//63 35//63 121//63 118//63
f 49//64 50//64 134//64 127//64
f 38//65 39//65 90//65 95//65
f 18//66 19//66 84//66 108//66
f 63//67 64//67 97//67 96//67
f 71//68 1//68 132//68 104//68
f 20//69 21//69 113//69 109//69
f 48//70 49//70 127//70 126//70
f 44//71 45//71 99//71 98//71
f 11//72 12//72 136//72 89//72
f 69//73 70//73 87//73 128//73
