# Blender v2.79 (sub 0) OBJ File: 'world_countrycodes_export2.blend'
# www.blender.org
mtllib TR.mtl
o TR.002_CUCurve.1832
v 1.208383 0.000000 0.423563
v 1.208357 0.000000 0.422101
v 1.208782 0.000000 0.418261
v 1.208123 0.000000 0.416419
v 1.207736 0.000000 0.414141
v 1.208052 0.000000 0.413222
v 1.208985 0.000000 0.412888
v 1.209227 0.000000 0.410580
v 1.209918 0.000000 0.410299
v 1.209461 0.000000 0.409110
v 1.208701 0.000000 0.408044
v 1.206304 0.000000 0.407954
v 1.205082 0.000000 0.407345
v 1.204118 0.000000 0.405348
v 1.203637 0.000000 0.402473
v 1.201186 0.000000 0.398856
v 1.199983 0.000000 0.398071
v 1.198831 0.000000 0.398346
v 1.196006 0.000000 0.398675
v 1.193022 0.000000 0.398491
v 1.191514 0.000000 0.399612
v 1.188569 0.000000 0.401096
v 1.185838 0.000000 0.401802
v 1.182858 0.000000 0.402059
v 1.180611 0.000000 0.401614
v 1.172829 0.000000 0.402309
v 1.170345 0.000000 0.401859
v 1.167290 0.000000 0.400188
v 1.164942 0.000000 0.400008
v 1.163909 0.000000 0.399437
v 1.162107 0.000000 0.397950
v 1.159835 0.000000 0.397702
v 1.157788 0.000000 0.396595
v 1.152239 0.000000 0.395497
v 1.148562 0.000000 0.395484
v 1.144022 0.000000 0.396202
v 1.138363 0.000000 0.398565
v 1.134142 0.000000 0.401505
v 1.129890 0.000000 0.401839
v 1.122937 0.000000 0.401337
v 1.122482 0.000000 0.402079
v 1.122107 0.000000 0.403915
v 1.121205 0.000000 0.405208
v 1.119665 0.000000 0.406001
v 1.117059 0.000000 0.406432
v 1.109611 0.000000 0.406466
v 1.107842 0.000000 0.406959
v 1.106460 0.000000 0.408115
v 1.105748 0.000000 0.410114
v 1.106325 0.000000 0.410987
v 1.108004 0.000000 0.411146
v 1.109203 0.000000 0.411713
v 1.109355 0.000000 0.412334
v 1.109136 0.000000 0.413021
v 1.110011 0.000000 0.415469
v 1.110000 0.000000 0.416440
v 1.109394 0.000000 0.417201
v 1.108920 0.000000 0.418240
v 1.109006 0.000000 0.419549
v 1.109562 0.000000 0.420488
v 1.110504 0.000000 0.421343
v 1.111035 0.000000 0.422501
v 1.110708 0.000000 0.423575
v 1.109540 0.000000 0.424077
v 1.110093 0.000000 0.424718
v 1.112521 0.000000 0.426317
v 1.112903 0.000000 0.427059
v 1.116242 0.000000 0.428479
v 1.116487 0.000000 0.429444
v 1.117006 0.000000 0.429941
v 1.118184 0.000000 0.430061
v 1.119898 0.000000 0.429727
v 1.121130 0.000000 0.430584
v 1.122969 0.000000 0.433772
v 1.124658 0.000000 0.434243
v 1.127327 0.000000 0.434028
v 1.129895 0.000000 0.432745
v 1.130147 0.000000 0.431443
v 1.130833 0.000000 0.430443
v 1.132933 0.000000 0.429924
v 1.135642 0.000000 0.430155
v 1.138788 0.000000 0.431969
v 1.142572 0.000000 0.434601
v 1.144076 0.000000 0.434500
v 1.147254 0.000000 0.433596
v 1.148981 0.000000 0.433406
v 1.150793 0.000000 0.432353
v 1.153405 0.000000 0.430198
v 1.154150 0.000000 0.430051
v 1.156619 0.000000 0.431366
v 1.157669 0.000000 0.431357
v 1.159845 0.000000 0.430281
v 1.161325 0.000000 0.429871
v 1.162213 0.000000 0.430033
v 1.162505 0.000000 0.430526
v 1.161085 0.000000 0.432737
v 1.160581 0.000000 0.433949
v 1.160973 0.000000 0.435155
v 1.160823 0.000000 0.436513
v 1.163000 0.000000 0.435742
v 1.163916 0.000000 0.434287
v 1.164166 0.000000 0.432381
v 1.164853 0.000000 0.431134
v 1.165905 0.000000 0.430933
v 1.167165 0.000000 0.431738
v 1.168645 0.000000 0.432028
v 1.170546 0.000000 0.431659
v 1.173948 0.000000 0.430046
v 1.174642 0.000000 0.430043
v 1.175376 0.000000 0.430854
v 1.176376 0.000000 0.431142
v 1.180008 0.000000 0.430834
v 1.183465 0.000000 0.430595
v 1.186342 0.000000 0.429153
v 1.187952 0.000000 0.428565
v 1.191892 0.000000 0.428539
v 1.195545 0.000000 0.427664
v 1.197669 0.000000 0.428313
v 1.198680 0.000000 0.426985
v 1.199569 0.000000 0.426475
v 1.201859 0.000000 0.426411
v 1.204509 0.000000 0.427544
v 1.205796 0.000000 0.427259
v 1.209804 0.000000 0.429333
v 1.210884 0.000000 0.429143
v 1.211185 0.000000 0.428310
v 1.210536 0.000000 0.426251
v 1.115433 0.000000 0.401962
v 1.120399 0.000000 0.401976
v 1.121704 0.000000 0.401594
v 1.122019 0.000000 0.401028
v 1.121198 0.000000 0.400170
v 1.117624 0.000000 0.398204
v 1.116460 0.000000 0.396517
v 1.116099 0.000000 0.395239
v 1.115506 0.000000 0.395628
v 1.114437 0.000000 0.395822
v 1.112650 0.000000 0.395402
v 1.110037 0.000000 0.395290
v 1.107915 0.000000 0.395871
v 1.108743 0.000000 0.399441
v 1.108272 0.000000 0.400537
v 1.107111 0.000000 0.401668
v 1.106909 0.000000 0.402785
v 1.105698 0.000000 0.404017
v 1.107225 0.000000 0.405107
v 1.109192 0.000000 0.405687
v 1.110866 0.000000 0.404866
v 1.113343 0.000000 0.402602
v 1.191892 0.050000 0.428539
v 1.195545 0.050000 0.427664
v 1.154150 0.050000 0.430051
v 1.156619 0.050000 0.431366
v 1.205082 0.050000 0.407345
v 1.107842 0.050000 0.406959
v 1.201859 0.050000 0.426411
v 1.204509 0.050000 0.427544
v 1.203637 0.050000 0.402473
v 1.188569 0.050000 0.401096
v 1.204118 0.050000 0.405348
v 1.119665 0.050000 0.406001
v 1.167165 0.050000 0.431738
v 1.170546 0.050000 0.431659
v 1.208123 0.050000 0.416419
v 1.109394 0.050000 0.417201
v 1.185838 0.050000 0.401802
v 1.182858 0.050000 0.402059
v 1.173948 0.050000 0.430046
v 1.121198 0.050000 0.400170
v 1.108743 0.050000 0.399441
v 1.196006 0.050000 0.398675
v 1.191514 0.050000 0.399612
v 1.144076 0.050000 0.434500
v 1.147254 0.050000 0.433596
v 1.129895 0.050000 0.432745
v 1.130147 0.050000 0.431443
v 1.106460 0.050000 0.408115
v 1.119898 0.050000 0.429727
v 1.132933 0.050000 0.429924
v 1.197669 0.050000 0.428313
v 1.198680 0.050000 0.426985
v 1.208383 0.050000 0.423563
v 1.110708 0.050000 0.423575
v 1.122107 0.050000 0.403915
v 1.116460 0.050000 0.396517
v 1.116099 0.050000 0.395239
v 1.172829 0.050000 0.402309
v 1.122482 0.050000 0.402079
v 1.108920 0.050000 0.418240
v 1.157669 0.050000 0.431357
v 1.109136 0.050000 0.413021
v 1.110011 0.050000 0.415469
v 1.115506 0.050000 0.395628
v 1.114437 0.050000 0.395822
v 1.162107 0.050000 0.397950
v 1.159835 0.050000 0.397702
v 1.170345 0.050000 0.401859
v 1.138363 0.050000 0.398565
v 1.208782 0.050000 0.418261
v 1.148562 0.050000 0.395484
v 1.144022 0.050000 0.396202
v 1.110093 0.050000 0.424718
v 1.210536 0.050000 0.426251
v 1.121130 0.050000 0.430584
v 1.205796 0.050000 0.427259
v 1.129890 0.050000 0.401839
v 1.122937 0.050000 0.401337
v 1.108272 0.050000 0.400537
v 1.107111 0.050000 0.401668
v 1.109540 0.050000 0.424077
v 1.109611 0.050000 0.406466
v 1.111035 0.050000 0.422501
v 1.209461 0.050000 0.409110
v 1.206304 0.050000 0.407954
v 1.135642 0.050000 0.430155
v 1.138788 0.050000 0.431969
v 1.121205 0.050000 0.405208
v 1.199569 0.050000 0.426475
v 1.159845 0.050000 0.430281
v 1.167290 0.050000 0.400188
v 1.207736 0.050000 0.414141
v 1.108004 0.050000 0.411146
v 1.109203 0.050000 0.411713
v 1.180008 0.050000 0.430834
v 1.183465 0.050000 0.430595
v 1.153405 0.050000 0.430198
v 1.208357 0.050000 0.422101
v 1.116242 0.050000 0.428479
v 1.186342 0.050000 0.429153
v 1.148981 0.050000 0.433406
v 1.130833 0.050000 0.430443
v 1.110000 0.050000 0.416440
v 1.127327 0.050000 0.434028
v 1.112650 0.050000 0.395402
v 1.107915 0.050000 0.395871
v 1.105698 0.050000 0.404017
v 1.107225 0.050000 0.405107
v 1.110866 0.050000 0.404866
v 1.113343 0.050000 0.402602
v 1.193022 0.050000 0.398491
v 1.106909 0.050000 0.402785
v 1.209227 0.050000 0.410580
v 1.209918 0.050000 0.410299
v 1.208701 0.050000 0.408044
v 1.117624 0.050000 0.398204
v 1.112521 0.050000 0.426317
v 1.109006 0.050000 0.419549
v 1.122019 0.050000 0.401028
v 1.210884 0.050000 0.429143
v 1.211185 0.050000 0.428310
v 1.122969 0.050000 0.433772
v 1.134142 0.050000 0.401505
v 1.157788 0.050000 0.396595
v 1.112903 0.050000 0.427059
v 1.160973 0.050000 0.435155
v 1.163916 0.050000 0.434287
v 1.165905 0.050000 0.430933
v 1.187952 0.050000 0.428565
v 1.105748 0.050000 0.410114
v 1.124658 0.050000 0.434243
v 1.174642 0.050000 0.430043
v 1.109562 0.050000 0.420488
v 1.150793 0.050000 0.432353
v 1.116487 0.050000 0.429444
v 1.198831 0.050000 0.398346
v 1.201186 0.050000 0.398856
v 1.162213 0.050000 0.430033
v 1.162505 0.050000 0.430526
v 1.161325 0.050000 0.429871
v 1.110037 0.050000 0.395290
v 1.208985 0.050000 0.412888
v 1.180611 0.050000 0.401614
v 1.164942 0.050000 0.400008
v 1.152239 0.050000 0.395497
v 1.117006 0.050000 0.429941
v 1.117059 0.050000 0.406432
v 1.161085 0.050000 0.432737
v 1.163909 0.050000 0.399437
v 1.109192 0.050000 0.405687
v 1.164166 0.050000 0.432381
v 1.164853 0.050000 0.431134
v 1.209804 0.050000 0.429333
v 1.115433 0.050000 0.401962
v 1.208052 0.050000 0.413222
v 1.175376 0.050000 0.430854
v 1.142572 0.050000 0.434601
v 1.109355 0.050000 0.412334
v 1.106325 0.050000 0.410987
v 1.160581 0.050000 0.433949
v 1.121704 0.050000 0.401594
v 1.118184 0.050000 0.430061
v 1.120399 0.050000 0.401976
v 1.199983 0.050000 0.398071
v 1.168645 0.050000 0.432028
v 1.176376 0.050000 0.431142
v 1.110504 0.050000 0.421343
v 1.160823 0.050000 0.436513
v 1.163000 0.050000 0.435742
vn 0.0000 -1.0000 0.0000
vn 0.0000 1.0000 -0.0000
vn 0.0000 1.0000 0.0001
vn 0.0000 1.0000 -0.0001
vn 0.0000 1.0000 -0.0002
vn -0.3914 0.0000 0.9202
vn 0.6366 0.0000 -0.7712
vn -0.4995 0.0000 0.8663
vn 0.4403 0.0000 0.8978
vn -0.3854 0.0000 -0.9228
vn -0.5385 0.0000 0.8427
vn -0.1012 0.0000 0.9949
vn 0.1909 0.0000 0.9816
vn 0.0066 0.0000 1.0000
vn 0.4973 0.0000 0.8676
vn 0.8737 0.0000 0.4865
vn 0.4436 0.0000 0.8962
vn -0.2685 0.0000 0.9633
vn 0.8758 0.0000 0.4827
vn 0.4459 0.0000 -0.8951
vn 0.2288 0.0000 -0.9735
vn 0.4799 0.0000 -0.8773
vn 0.2667 0.0000 0.9638
vn 0.9939 0.0000 0.1099
vn 0.2927 0.0000 0.9562
vn -0.8888 0.0000 0.4582
vn -0.5713 0.0000 0.8207
vn 0.9537 0.0000 -0.3008
vn -0.9692 0.0000 0.2464
vn 0.9998 0.0000 -0.0174
vn -0.4275 0.0000 0.9040
vn 0.3368 0.0000 0.9416
vn -0.6722 0.0000 0.7403
vn 0.7226 0.0000 -0.6912
vn -0.1630 0.0000 -0.9866
vn 0.2330 0.0000 0.9725
vn -0.9187 0.0000 -0.3949
vn 0.4838 0.0000 -0.8752
vn 0.0689 0.0000 0.9976
vn 0.0036 0.0000 -1.0000
vn -0.4699 0.0000 0.8827
vn -0.0028 0.0000 1.0000
vn 0.8278 0.0000 -0.5610
vn 0.0429 0.0000 -0.9991
vn -0.3932 0.0000 0.9194
vn 0.3432 0.0000 0.9393
vn -0.2502 0.0000 -0.9682
vn 0.8463 0.0000 0.5327
vn 0.5024 0.0000 0.8646
vn 0.1095 0.0000 0.9940
vn -0.1800 0.0000 0.9837
vn -0.0941 0.0000 0.9956
vn -0.2925 0.0000 0.9563
vn -0.8201 0.0000 -0.5722
vn -0.2774 0.0000 0.9608
vn 0.9859 0.0000 -0.1675
vn 0.0039 0.0000 1.0000
vn -0.9741 0.0000 0.2260
vn -0.0850 0.0000 0.9964
vn 0.0847 0.0000 0.9964
vn -0.0859 0.0000 -0.9963
vn 0.6365 0.0000 0.7713
vn -0.4596 0.0000 0.8881
vn 0.8249 0.0000 0.5653
vn -0.2832 0.0000 0.9591
vn 0.0280 0.0000 0.9996
vn 0.4284 0.0000 0.9036
vn 0.8232 0.0000 -0.5678
vn -0.3950 0.0000 -0.9187
vn 0.0670 0.0000 0.9978
vn 0.9455 0.0000 0.3256
vn 0.9863 0.0000 -0.1648
vn -0.9999 0.0000 -0.0112
vn 0.4468 0.0000 0.8946
vn 0.0803 0.0000 0.9968
vn 0.2737 0.0000 0.9618
vn 0.1933 0.0000 0.9811
vn 0.8143 0.0000 -0.5805
vn 0.9818 0.0000 0.1901
vn -0.1158 0.0000 -0.9933
vn -0.5810 0.0000 0.8139
vn -0.7822 0.0000 -0.6230
vn -0.8662 0.0000 0.4997
vn -0.5710 0.0000 0.8209
vn -0.9091 0.0000 0.4165
vn 0.6747 0.0000 0.7381
vn -0.8346 0.0000 0.5509
vn 0.4481 0.0000 0.8940
vn 0.7958 0.0000 0.6055
vn -0.8598 0.0000 0.5106
vn 0.2812 0.0000 0.9596
vn 0.0617 0.0000 -0.9981
vn -0.2690 0.0000 -0.9631
vn -0.5715 0.0000 -0.8206
vn -0.9797 0.0000 -0.2003
vn -0.7131 0.0000 -0.7011
vn -0.5968 0.0000 -0.8024
vn 0.9623 0.0000 -0.2719
vn -0.4500 0.0000 -0.8930
vn 0.3335 0.0000 0.9427
vn 0.3769 0.0000 0.9263
vn -0.9940 0.0000 -0.1094
vn -0.5480 0.0000 -0.8364
vn -0.9712 0.0000 0.2382
vn -0.9099 0.0000 -0.4148
vn -0.8606 0.0000 0.5093
vn 0.0079 0.0000 1.0000
vn 0.9335 0.0000 -0.3586
vn 0.4819 0.0000 -0.8762
vn 0.1913 0.0000 0.9815
vn -0.6918 0.0000 0.7220
vn -0.9417 0.0000 0.3365
vn 0.9915 0.0000 0.1300
vn -0.1789 0.0000 -0.9839
vn -0.7570 0.0000 0.6535
vn 0.1082 0.0000 -0.9941
vn -0.2641 0.0000 -0.9645
vn -0.4580 0.0000 -0.8890
vn -0.9979 0.0000 0.0655
vn 0.0761 0.0000 -0.9971
vn 0.1783 0.0000 -0.9840
vn 0.9945 0.0000 0.1043
vn 0.9004 0.0000 -0.4350
vn 0.5465 0.0000 -0.8374
vn -0.0890 0.0000 -0.9960
vn -0.2325 0.0000 -0.9726
vn -0.6414 0.0000 -0.7672
vn -0.9841 0.0000 -0.1777
vn -0.7414 0.0000 0.6710
vn -0.1923 0.0000 0.9813
vn 0.1945 0.0000 -0.9809
vn -0.1562 0.0000 -0.9877
vn 0.7805 0.0000 -0.6252
vn -0.9568 0.0000 -0.2908
vn 0.9403 0.0000 0.3403
vn 0.1879 0.0000 0.9822
vn 0.1942 0.0000 -0.9810
vn -0.0046 0.0000 -1.0000
vn 0.2399 0.0000 0.9708
vn -0.9526 0.0000 -0.3041
vn 0.0719 0.0000 -0.9974
vn 0.9415 0.0000 -0.3370
vn -0.6976 0.0000 -0.7164
vn 0.1733 0.0000 0.9849
vn -0.8524 0.0000 -0.5229
vn -0.0783 0.0000 -0.9969
vn -0.8415 0.0000 -0.5403
vn -0.9511 0.0000 0.3089
vn 0.0377 0.0000 -0.9993
vn 0.2164 0.0000 0.9763
vn -0.9234 0.0000 -0.3838
vn 0.4758 0.0000 -0.8796
vn -0.5501 0.0000 0.8351
vn -0.9420 0.0000 -0.3356
usemtl SVGMat.3781
s off
f 136//1 135//1 134//1
f 140//1 139//1 138//1
f 140//1 138//1 137//1
f 36//1 35//1 34//1
f 137//1 136//1 134//1
f 140//1 137//1 134//1
f 36//1 34//1 33//1
f 37//1 36//1 33//1
f 37//1 33//1 32//1
f 140//1 134//1 133//1
f 141//1 140//1 133//1
f 37//1 32//1 31//1
f 18//1 17//1 16//1
f 19//1 18//1 16//1
f 21//1 20//1 19//1
f 21//1 19//1 16//1
f 37//1 31//1 30//1
f 141//1 133//1 132//1
f 37//1 30//1 29//1
f 38//1 37//1 29//1
f 21//1 16//1 15//1
f 142//1 141//1 132//1
f 38//1 29//1 28//1
f 22//1 21//1 15//1
f 142//1 132//1 131//1
f 38//1 28//1 27//1
f 143//1 142//1 131//1
f 143//1 131//1 130//1
f 23//1 22//1 15//1
f 41//1 40//1 39//1
f 143//1 130//1 129//1
f 39//1 38//1 27//1
f 41//1 39//1 27//1
f 143//1 129//1 128//1
f 24//1 23//1 15//1
f 26//1 25//1 24//1
f 26//1 24//1 15//1
f 144//1 143//1 128//1
f 41//1 27//1 26//1
f 144//1 128//1 149//1
f 41//1 26//1 15//1
f 42//1 41//1 15//1
f 42//1 15//1 14//1
f 145//1 144//1 149//1
f 145//1 149//1 148//1
f 43//1 42//1 14//1
f 146//1 145//1 148//1
f 146//1 148//1 147//1
f 44//1 43//1 14//1
f 45//1 44//1 14//1
f 45//1 14//1 13//1
f 46//1 45//1 13//1
f 47//1 46//1 13//1
f 48//1 47//1 13//1
f 48//1 13//1 12//1
f 48//1 12//1 11//1
f 48//1 11//1 10//1
f 49//1 48//1 10//1
f 49//1 10//1 9//1
f 49//1 9//1 8//1
f 50//1 49//1 8//1
f 51//1 50//1 8//1
f 52//1 51//1 8//1
f 52//1 8//1 7//1
f 53//1 52//1 7//1
f 54//1 53//1 7//1
f 54//1 7//1 6//1
f 54//1 6//1 5//1
f 55//1 54//1 5//1
f 55//1 5//1 4//1
f 56//1 55//1 4//1
f 57//1 56//1 4//1
f 57//1 4//1 3//1
f 58//1 57//1 3//1
f 59//1 58//1 3//1
f 60//1 59//1 3//1
f 60//1 3//1 2//1
f 61//1 60//1 2//1
f 62//1 61//1 2//1
f 62//1 2//1 1//1
f 63//1 62//1 1//1
f 64//1 63//1 1//1
f 65//1 64//1 1//1
f 65//1 1//1 127//1
f 66//1 65//1 127//1
f 66//1 127//1 121//1
f 66//1 121//1 120//1
f 67//1 66//1 120//1
f 67//1 120//1 119//1
f 122//1 121//1 123//1
f 123//1 121//1 127//1
f 123//1 127//1 126//1
f 67//1 119//1 117//1
f 117//1 119//1 118//1
f 68//1 67//1 117//1
f 68//1 117//1 116//1
f 124//1 123//1 126//1
f 124//1 126//1 125//1
f 68//1 116//1 115//1
f 68//1 115//1 114//1
f 69//1 68//1 114//1
f 70//1 69//1 72//1
f 72//1 69//1 114//1
f 93//1 72//1 114//1
f 70//1 72//1 71//1
f 93//1 114//1 109//1
f 109//1 114//1 113//1
f 72//1 93//1 80//1
f 94//1 93//1 109//1
f 73//1 72//1 80//1
f 81//1 80//1 93//1
f 94//1 109//1 108//1
f 81//1 93//1 89//1
f 89//1 93//1 92//1
f 73//1 80//1 79//1
f 81//1 89//1 88//1
f 95//1 94//1 108//1
f 110//1 109//1 113//1
f 90//1 89//1 92//1
f 90//1 92//1 91//1
f 82//1 81//1 88//1
f 110//1 113//1 112//1
f 104//1 95//1 108//1
f 82//1 88//1 87//1
f 95//1 104//1 103//1
f 73//1 79//1 78//1
f 111//1 110//1 112//1
f 104//1 108//1 107//1
f 105//1 104//1 107//1
f 96//1 95//1 103//1
f 73//1 78//1 77//1
f 96//1 103//1 102//1
f 105//1 107//1 106//1
f 74//1 73//1 77//1
f 82//1 87//1 86//1
f 96//1 102//1 101//1
f 97//1 96//1 101//1
f 74//1 77//1 76//1
f 82//1 86//1 85//1
f 83//1 82//1 85//1
f 83//1 85//1 84//1
f 75//1 74//1 76//1
f 98//1 97//1 101//1
f 98//1 101//1 100//1
f 99//1 98//1 100//1
f 193//2 185//2 186//2
f 235//2 234//2 270//2
f 235//2 194//2 234//2
f 201//2 274//2 200//2
f 194//2 185//2 193//2
f 235//2 185//2 194//2
f 201//2 253//2 274//2
f 198//2 253//2 201//2
f 198//2 196//2 253//2
f 235//2 245//2 185//2
f 170//2 245//2 235//2
f 198//2 195//2 196//2
f 265//2 266//2 293//2
f 171//2 266//2 265//2
f 172//2 171//2 240//2
f 172//2 266//2 171//2
f 198//2 278//2 195//2
f 170//2 169//2 245//2
f 198//2 273//2 278//2
f 252//2 273//2 198//2
f 172//2 158//2 266//2
f 208//2 169//2 170//2
f 252//2 220//2 273//2
f 159//2 158//2 172//2
f 208//2 248//2 169//2
f 252//2 197//2 220//2
f 209//2 248//2 208//2
f 209//2 290//2 248//2
f 166//2 158//2 159//2
f 188//2 206//2 207//2
f 209//2 292//2 290//2
f 206//2 197//2 252//2
f 188//2 197//2 206//2
f 209//2 283//2 292//2
f 167//2 158//2 166//2
f 187//2 167//2 272//2
f 187//2 158//2 167//2
f 241//2 283//2 209//2
f 188//2 187//2 197//2
f 241//2 239//2 283//2
f 188//2 158//2 187//2
f 184//2 158//2 188//2
f 184//2 160//2 158//2
f 236//2 239//2 241//2
f 236//2 238//2 239//2
f 217//2 160//2 184//2
f 237//2 238//2 236//2
f 237//2 279//2 238//2
f 161//2 160//2 217//2
f 276//2 160//2 161//2
f 276//2 154//2 160//2
f 211//2 154//2 276//2
f 155//2 154//2 211//2
f 177//2 154//2 155//2
f 177//2 214//2 154//2
f 177//2 244//2 214//2
f 177//2 213//2 244//2
f 259//2 213//2 177//2
f 259//2 243//2 213//2
f 259//2 242//2 243//2
f 288//2 242//2 259//2
f 222//3 242//3 288//3
f 223//2 242//2 222//2
f 223//2 271//2 242//2
f 287//2 271//2 223//2
f 191//2 271//2 287//2
f 191//2 284//2 271//2
f 191//2 221//2 284//2
f 192//2 221//2 191//2
f 192//2 164//2 221//2
f 232//2 164//2 192//2
f 165//2 164//2 232//2
f 165//2 199//2 164//2
f 189//2 199//2 165//2
f 247//2 199//2 189//2
f 262//2 199//2 247//2
f 262//2 227//2 199//2
f 296//2 227//2 262//2
f 212//2 227//2 296//2
f 212//2 182//2 227//2
f 183//2 182//2 212//2
f 210//2 182//2 183//2
f 202//2 182//2 210//2
f 202//2 203//2 182//2
f 246//2 203//2 202//2
f 246//2 156//2 203//2
f 246//3 218//3 156//3
f 254//2 218//2 246//2
f 254//2 181//2 218//2
f 157//2 205//2 156//2
f 205//2 203//2 156//2
f 205//2 250//2 203//2
f 254//2 151//2 181//2
f 151//2 180//2 181//2
f 228//2 151//2 254//2
f 228//2 150//2 151//2
f 282//2 250//2 205//2
f 282//2 249//2 250//2
f 228//4 258//4 150//4
f 228//2 229//2 258//2
f 264//2 229//2 228//2
f 275//2 178//2 264//2
f 178//2 229//2 264//2
f 269//2 229//2 178//2
f 275//2 291//2 178//2
f 269//2 261//2 229//2
f 261//2 225//2 229//2
f 178//2 179//2 269//2
f 267//3 261//3 269//3
f 204//2 179//2 178//2
f 215//2 269//2 179//2
f 267//5 168//5 261//5
f 215//2 152//2 269//2
f 152//2 219//2 269//2
f 204//2 231//2 179//2
f 215//2 226//2 152//2
f 268//2 168//2 267//2
f 285//2 225//2 261//2
f 153//2 219//2 152//2
f 153//2 190//2 219//2
f 216//2 226//2 215//2
f 285//2 224//2 225//2
f 257//2 168//2 268//2
f 216//2 263//2 226//2
f 268//2 281//2 257//2
f 204//2 176//2 231//2
f 295//2 224//2 285//2
f 257//2 163//2 168//2
f 162//2 163//2 257//2
f 277//2 281//2 268//2
f 204//2 175//2 176//2
f 277//2 280//2 281//2
f 162//2 294//2 163//2
f 251//2 175//2 204//2
f 216//2 230//2 263//2
f 277//2 256//2 280//2
f 289//2 256//2 277//2
f 251//2 233//2 175//2
f 216//2 174//2 230//2
f 286//2 174//2 216//2
f 286//2 173//2 174//2
f 260//2 233//2 251//2
f 255//2 256//2 289//2
f 255//2 298//2 256//2
f 297//2 298//2 255//2
f 67//6 68//6 228//6 254//6
f 30//7 31//7 195//7 278//7
f 81//8 82//8 216//8 215//8
f 147//9 148//9 238//9 279//9
f 36//10 37//10 198//10 201//10
f 104//11 105//11 162//11 257//11
f 70//12 71//12 291//12 275//12
f 106//13 107//13 163//13 294//13
f 115//14 116//14 150//14 258//14
f 119//15 120//15 218//15 181//15
f 130//16 131//16 248//16 290//16
f 91//17 92//17 219//17 190//17
f 74//18 75//18 260//18 251//18
f 102//19 103//19 281//19 280//19
f 12//20 13//20 154//20 214//20
f 137//21 138//21 234//21 194//21
f 27//22 28//22 220//22 197//22
f 92//23 93//23 269//23 219//23
f 2//24 3//24 199//24 227//24
f 149//25 128//25 283//25 239//25
f 66//26 67//26 254//26 246//26
f 72//27 73//27 204//27 178//27
f 126//28 127//28 203//28 250//28
f 68//29 69//29 264//29 228//29
f 1//30 2//30 227//30 182//30
f 51//31 52//31 223//31 222//31
f 6//32 7//32 271//32 284//32
f 60//33 61//33 296//33 262//33
f 131//34 132//34 169//34 248//34
f 44//35 45//35 276//35 161//35
f 116//36 117//36 151//36 150//36
f 141//37 142//37 208//37 170//37
f 29//38 30//38 278//38 273//38
f 112//39 113//39 225//39 224//39
f 34//40 35//40 200//40 274//40
f 89//41 90//41 153//41 152//41
f 128//42 129//42 292//42 283//42
f 15//43 16//43 266//43 158//43
f 138//44 139//44 270//44 234//44
f 121//45 122//45 157//45 156//45
f 114//46 115//46 258//46 229//46
f 22//47 23//47 166//47 159//47
f 100//48 101//48 256//48 298//48
f 86//49 87//49 263//49 230//49
f 85//50 86//50 230//50 174//50
f 93//51 94//51 267//51 269//51
f 50//52 51//52 222//52 288//52
f 117//53 118//53 180//53 151//53
f 42//54 43//54 217//54 184//54
f 110//55 111//55 295//55 285//55
f 4//56 5//56 221//56 164//56
f 108//57 109//57 261//57 168//57
f 140//58 141//58 170//58 235//58
f 80//59 81//59 215//59 179//59
f 111//60 112//60 224//60 295//60
f 23//61 24//61 167//61 166//61
f 87//62 88//62 226//62 263//62
f 123//63 124//63 282//63 205//63
f 78//64 79//64 231//64 176//64
f 146//65 147//65 279//65 237//65
f 120//66 121//66 156//66 218//66
f 107//67 108//67 168//67 163//67
f 133//68 134//68 185//68 245//68
f 63//69 64//69 210//69 183//69
f 83//70 84//70 173//70 286//70
f 5//71 6//71 284//71 221//71
f 14//72 15//72 158//72 160//72
f 55//73 56//73 232//73 192//73
f 76//74 77//74 175//74 233//74
f 75//75 76//75 233//75 260//75
f 84//76 85//76 174//76 173//76
f 88//77 89//77 152//77 226//77
f 10//78 11//78 244//78 213//78
f 77//79 78//79 176//79 175//79
f 18//80 19//80 171//80 265//80
f 145//81 146//81 237//81 236//81
f 56//82 57//82 165//82 232//82
f 73//83 74//83 251//83 204//83
f 82//84 83//84 286//84 216//84
f 61//85 62//85 212//85 296//85
f 148//86 149//86 239//86 238//86
f 49//87 50//87 288//87 259//87
f 113//88 114//88 229//88 225//88
f 118//89 119//89 181//89 180//89
f 94//90 95//90 268//90 267//90
f 129//91 130//91 290//91 292//91
f 19//92 20//92 240//92 171//92
f 46//93 47//93 155//93 211//93
f 37//94 38//94 252//94 198//94
f 41//95 42//95 184//95 188//95
f 144//96 145//96 236//96 241//96
f 20//97 21//97 172//97 240//97
f 134//98 135//98 186//98 185//98
f 21//99 22//99 159//99 172//99
f 99//100 100//100 298//100 297//100
f 8//101 9//101 243//101 242//101
f 98//102 99//102 297//102 255//102
f 135//103 136//103 193//103 186//103
f 52//104 53//104 287//104 223//104
f 57//105 58//105 189//105 165//105
f 59//106 60//106 262//106 247//106
f 90//107 91//107 190//107 153//107
f 9//108 10//108 213//108 243//108
f 132//109 133//109 245//109 169//109
f 71//110 72//110 178//110 291//110
f 69//111 70//111 275//111 264//111
f 54//112 55//112 192//112 191//112
f 101//113 102//113 280//113 256//113
f 136//114 137//114 194//114 193//114
f 64//115 65//115 202//115 210//115
f 31//116 32//116 196//116 195//116
f 139//117 140//117 235//117 270//117
f 43//118 44//118 161//118 217//118
f 58//119 59//119 247//119 189//119
f 28//120 29//120 273//120 220//120
f 26//121 27//121 197//121 187//121
f 7//122 8//122 242//122 271//122
f 13//123 14//123 160//123 154//123
f 16//124 17//124 293//124 266//124
f 25//125 26//125 187//125 272//125
f 17//126 18//126 265//126 293//126
f 47//127 48//127 177//127 155//127
f 143//128 144//128 241//128 209//128
f 109//129 110//129 285//129 261//129
f 105//130 106//130 294//130 162//130
f 24//131 25//131 272//131 167//131
f 35//132 36//132 201//132 200//132
f 127//133 1//133 182//133 203//133
f 62//134 63//134 183//134 212//134
f 125//135 126//135 250//135 249//135
f 103//136 104//136 257//136 281//136
f 33//137 34//137 274//137 253//137
f 45//138 46//138 211//138 276//138
f 79//139 80//139 179//139 231//139
f 53//140 54//140 191//140 287//140
f 39//141 40//141 207//141 206//141
f 3//142 4//142 164//142 199//142
f 142//143 143//143 209//143 208//143
f 124//144 125//144 249//144 282//144
f 40//145 41//145 188//145 207//145
f 38//146 39//146 206//146 252//146
f 95//147 96//147 277//147 268//147
f 97//148 98//148 255//148 289//148
f 11//149 12//149 214//149 244//149
f 122//150 123//150 205//150 157//150
f 96//151 97//151 289//151 277//151
f 32//152 33//152 253//152 196//152
f 65//153 66//153 246//153 202//153
f 48//154 49//154 259//154 177//154
