# Blender v2.79 (sub 0) OBJ File: 'world_countrycodes_export2.blend'
# www.blender.org
mtllib TT.mtl
o TT.002_CUCurve.1721
v 0.606063 0.000000 0.593372
v 0.606719 0.000000 0.591627
v 0.606064 0.000000 0.590935
v 0.606343 0.000000 0.590474
v 0.607704 0.000000 0.589796
v 0.609946 0.000000 0.589654
v 0.611173 0.000000 0.590743
v 0.611579 0.000000 0.592067
v 0.611096 0.000000 0.593142
v 0.608922 0.000000 0.593869
v 0.606648 0.000000 0.594091
v 0.608922 0.050000 0.593869
v 0.606648 0.050000 0.594091
v 0.611579 0.050000 0.592067
v 0.611096 0.050000 0.593142
v 0.606063 0.050000 0.593372
v 0.606343 0.050000 0.590474
v 0.611173 0.050000 0.590743
v 0.607704 0.050000 0.589796
v 0.606064 0.050000 0.590935
v 0.609946 0.050000 0.589654
v 0.606719 0.050000 0.591627
vn 0.0000 -1.0000 0.0000
vn 0.0000 1.0000 0.0000
vn -0.7263 0.0000 0.6874
vn 0.0974 0.0000 0.9952
vn 0.6635 0.0000 -0.7482
vn 0.3168 0.0000 0.9485
vn -0.4460 0.0000 -0.8951
vn 0.9561 0.0000 -0.2930
vn 0.9123 0.0000 0.4096
vn -0.9362 0.0000 -0.3515
vn -0.0630 0.0000 -0.9980
vn -0.7759 0.0000 0.6309
vn -0.8550 0.0000 -0.5186
usemtl SVGMat.3781
s off
f 5//1 6//1 7//1
f 4//1 5//1 7//1
f 3//1 4//1 7//1
f 2//1 3//1 7//1
f 2//1 7//1 8//1
f 1//1 2//1 8//1
f 1//1 8//1 9//1
f 1//1 9//1 10//1
f 11//1 1//1 10//1
f 19//2 18//2 21//2
f 17//2 18//2 19//2
f 20//2 18//2 17//2
f 22//2 18//2 20//2
f 22//2 14//2 18//2
f 16//2 14//2 22//2
f 16//2 15//2 14//2
f 16//2 12//2 15//2
f 13//2 12//2 16//2
f 3//3 2//3 22//3 20//3
f 11//4 10//4 12//4 13//4
f 7//5 6//5 21//5 18//5
f 10//6 9//6 15//6 12//6
f 5//7 4//7 17//7 19//7
f 8//8 7//8 18//8 14//8
f 9//9 8//9 14//9 15//9
f 2//10 1//10 16//10 22//10
f 6//11 5//11 19//11 21//11
f 1//12 11//12 13//12 16//12
f 4//13 3//13 20//13 17//13
