# Blender v2.79 (sub 0) OBJ File: 'world_countrycodes_outlines2.blend'
# www.blender.org
mtllib TT_outline.mtl
o TT.001_CUCurve.009
v 0.606734 0.002180 0.594316
v 0.608134 -0.000760 0.592542
v 0.606596 -0.000866 0.596178
v 0.604726 -0.001515 0.592351
v 0.604113 0.000611 0.593601
v 0.608241 0.000956 0.591543
v 0.607222 -0.001945 0.590819
v 0.604383 -0.000701 0.589429
v 0.606299 0.002005 0.589297
v 0.607487 -0.001445 0.588056
v 0.609212 -0.000067 0.591787
v 0.612508 -0.000738 0.588675
v 0.612332 0.001533 0.589552
v 0.612151 -0.001950 0.593463
v 0.612706 0.001612 0.593891
vn 0.5426 -0.7634 0.3503
vn 0.3670 -0.4654 -0.8054
vn -0.8990 -0.3003 0.3188
vn -0.2406 -0.3329 0.9117
vn -0.5917 -0.7975 0.1175
vn -0.0994 0.9147 0.3917
vn -0.9024 0.2734 0.3329
vn 0.8293 0.5525 0.0835
vn 0.2543 -0.9639 0.0788
vn -0.8060 -0.2470 -0.5378
vn -0.2830 0.8053 -0.5210
vn -0.0783 -0.5517 -0.8303
vn 0.6411 -0.3293 -0.6931
vn 0.6660 0.5642 0.4878
vn 0.5753 0.6670 -0.4733
usemtl SVGMat.3781
s 1
f 14//1 2//2 11//3
f 3//4 4//5 14//1
f 1//6 5//7 3//4
f 5//7 4//5 3//4
f 2//2 6//8 1//6
f 7//9 6//8 2//2
f 5//7 8//10 4//5
f 9//11 10//12 8//10
f 9//11 12//13 10//12
f 11//3 15//14 9//11
f 12//13 14//1 10//12
f 13//15 15//14 12//13
f 15//14 3//4 14//1
f 15//14 1//6 3//4
f 11//3 1//6 15//14
f 11//3 2//2 1//6
f 14//1 4//5 2//2
f 1//6 9//11 5//7
f 4//5 7//9 2//2
f 1//6 6//8 9//11
f 5//7 9//11 8//10
f 4//5 8//10 7//9
f 8//10 10//12 7//9
f 6//8 11//3 9//11
f 7//9 11//3 6//8
f 7//9 10//12 11//3
f 9//11 13//15 12//13
f 9//11 15//14 13//15
f 10//12 14//1 11//3
f 12//13 15//14 14//1
