# Blender v2.79 (sub 0) OBJ File: 'world_countrycodes_export2.blend'
# www.blender.org
mtllib TZ.mtl
o TZ.002_CUCurve.1726
v 1.180818 0.000000 0.704758
v 1.180250 0.000000 0.703462
v 1.179168 0.000000 0.701848
v 1.178917 0.000000 0.700781
v 1.179008 0.000000 0.697515
v 1.178717 0.000000 0.695993
v 1.178030 0.000000 0.695531
v 1.177925 0.000000 0.694536
v 1.178566 0.000000 0.692720
v 1.179531 0.000000 0.691062
v 1.179583 0.000000 0.690415
v 1.179125 0.000000 0.689718
v 1.176892 0.000000 0.687922
v 1.176321 0.000000 0.686639
v 1.176805 0.000000 0.683694
v 1.177650 0.000000 0.680817
v 1.178786 0.000000 0.678052
v 1.169298 0.000000 0.671286
v 1.169581 0.000000 0.667780
v 1.148136 0.000000 0.656495
v 1.148027 0.000000 0.658072
v 1.147195 0.000000 0.660008
v 1.146160 0.000000 0.661203
v 1.145019 0.000000 0.662032
v 1.144882 0.000000 0.662638
v 1.146272 0.000000 0.664811
v 1.145986 0.000000 0.665283
v 1.144648 0.000000 0.665396
v 1.139840 0.000000 0.664479
v 1.137618 0.000000 0.664523
v 1.135918 0.000000 0.664959
v 1.135337 0.000000 0.664327
v 1.135127 0.000000 0.662997
v 1.135368 0.000000 0.660192
v 1.136485 0.000000 0.656156
v 1.131762 0.000000 0.656550
v 1.129110 0.000000 0.657255
v 1.130248 0.000000 0.660173
v 1.130806 0.000000 0.661889
v 1.130899 0.000000 0.663674
v 1.130288 0.000000 0.664199
v 1.128656 0.000000 0.664625
v 1.128865 0.000000 0.665824
v 1.128862 0.000000 0.667586
v 1.130327 0.000000 0.668459
v 1.128623 0.000000 0.671473
v 1.126861 0.000000 0.674072
v 1.125913 0.000000 0.674984
v 1.123232 0.000000 0.676549
v 1.124740 0.000000 0.683252
v 1.126115 0.000000 0.686680
v 1.128091 0.000000 0.688953
v 1.129066 0.000000 0.691403
v 1.129738 0.000000 0.695019
v 1.131595 0.000000 0.697910
v 1.131727 0.000000 0.698734
v 1.131234 0.000000 0.699309
v 1.130431 0.000000 0.699426
v 1.129682 0.000000 0.699114
v 1.128669 0.000000 0.698024
v 1.127993 0.000000 0.697063
v 1.127610 0.000000 0.697834
v 1.127358 0.000000 0.698088
v 1.129487 0.000000 0.699534
v 1.131327 0.000000 0.700368
v 1.132495 0.000000 0.700561
v 1.135940 0.000000 0.702215
v 1.138618 0.000000 0.702990
v 1.141381 0.000000 0.704142
v 1.143984 0.000000 0.705601
v 1.144349 0.000000 0.706182
v 1.146255 0.000000 0.706107
v 1.148159 0.000000 0.706181
v 1.148671 0.000000 0.705880
v 1.149653 0.000000 0.706102
v 1.150644 0.000000 0.707357
v 1.151978 0.000000 0.710461
v 1.152984 0.000000 0.715190
v 1.153073 0.000000 0.717368
v 1.156348 0.000000 0.717703
v 1.157562 0.000000 0.717165
v 1.158803 0.000000 0.716875
v 1.159838 0.000000 0.717080
v 1.160442 0.000000 0.717526
v 1.160822 0.000000 0.718511
v 1.161669 0.000000 0.718753
v 1.165946 0.000000 0.717977
v 1.168050 0.000000 0.718321
v 1.169553 0.000000 0.718099
v 1.169884 0.000000 0.716953
v 1.170374 0.000000 0.715915
v 1.171272 0.000000 0.715408
v 1.173157 0.000000 0.716183
v 1.174129 0.000000 0.716195
v 1.175482 0.000000 0.715313
v 1.176631 0.000000 0.715125
v 1.178347 0.000000 0.715116
v 1.179025 0.000000 0.714593
v 1.182856 0.000000 0.712315
v 1.185013 0.000000 0.711382
v 1.184331 0.000000 0.709625
v 1.182241 0.000000 0.708440
v 1.181218 0.000000 0.707417
v 1.176892 0.050000 0.687922
v 1.176321 0.050000 0.686639
v 1.169581 0.050000 0.667780
v 1.128862 0.050000 0.667586
v 1.169553 0.050000 0.718099
v 1.169884 0.050000 0.716953
v 1.171272 0.050000 0.715408
v 1.173157 0.050000 0.716183
v 1.152984 0.050000 0.715190
v 1.179025 0.050000 0.714593
v 1.160442 0.050000 0.717526
v 1.165946 0.050000 0.717977
v 1.131762 0.050000 0.656550
v 1.129110 0.050000 0.657255
v 1.178917 0.050000 0.700781
v 1.131327 0.050000 0.700368
v 1.130327 0.050000 0.668459
v 1.128623 0.050000 0.671473
v 1.129487 0.050000 0.699534
v 1.158803 0.050000 0.716875
v 1.181218 0.050000 0.707417
v 1.180818 0.050000 0.704758
v 1.130899 0.050000 0.663674
v 1.130288 0.050000 0.664199
v 1.177925 0.050000 0.694536
v 1.178566 0.050000 0.692720
v 1.128091 0.050000 0.688953
v 1.129066 0.050000 0.691403
v 1.135337 0.050000 0.664327
v 1.128656 0.050000 0.664625
v 1.145986 0.050000 0.665283
v 1.144648 0.050000 0.665396
v 1.128865 0.050000 0.665824
v 1.178786 0.050000 0.678052
v 1.123232 0.050000 0.676549
v 1.145019 0.050000 0.662032
v 1.144882 0.050000 0.662638
v 1.129738 0.050000 0.695019
v 1.160822 0.050000 0.718511
v 1.178347 0.050000 0.715116
v 1.146255 0.050000 0.706107
v 1.148671 0.050000 0.705880
v 1.176805 0.050000 0.683694
v 1.159838 0.050000 0.717080
v 1.135368 0.050000 0.660192
v 1.136485 0.050000 0.656156
v 1.139840 0.050000 0.664479
v 1.143984 0.050000 0.705601
v 1.130248 0.050000 0.660173
v 1.135127 0.050000 0.662997
v 1.130806 0.050000 0.661889
v 1.151978 0.050000 0.710461
v 1.126115 0.050000 0.686680
v 1.144349 0.050000 0.706182
v 1.147195 0.050000 0.660008
v 1.148159 0.050000 0.706181
v 1.161669 0.050000 0.718753
v 1.146272 0.050000 0.664811
v 1.131234 0.050000 0.699309
v 1.149653 0.050000 0.706102
v 1.150644 0.050000 0.707357
v 1.179531 0.050000 0.691062
v 1.127993 0.050000 0.697063
v 1.127610 0.050000 0.697834
v 1.174129 0.050000 0.716195
v 1.179168 0.050000 0.701848
v 1.135940 0.050000 0.702215
v 1.129682 0.050000 0.699114
v 1.127358 0.050000 0.698088
v 1.148136 0.050000 0.656495
v 1.178030 0.050000 0.695531
v 1.124740 0.050000 0.683252
v 1.169298 0.050000 0.671286
v 1.126861 0.050000 0.674072
v 1.180250 0.050000 0.703462
v 1.141381 0.050000 0.704142
v 1.179008 0.050000 0.697515
v 1.178717 0.050000 0.695993
v 1.130431 0.050000 0.699426
v 1.137618 0.050000 0.664523
v 1.125913 0.050000 0.674984
v 1.135918 0.050000 0.664959
v 1.138618 0.050000 0.702990
v 1.175482 0.050000 0.715313
v 1.176631 0.050000 0.715125
v 1.185013 0.050000 0.711382
v 1.184331 0.050000 0.709625
v 1.146160 0.050000 0.661203
v 1.168050 0.050000 0.718321
v 1.148027 0.050000 0.658072
v 1.182856 0.050000 0.712315
v 1.157562 0.050000 0.717165
v 1.177650 0.050000 0.680817
v 1.153073 0.050000 0.717368
v 1.156348 0.050000 0.717703
v 1.179583 0.050000 0.690415
v 1.179125 0.050000 0.689718
v 1.170374 0.050000 0.715915
v 1.131595 0.050000 0.697910
v 1.128669 0.050000 0.698024
v 1.182241 0.050000 0.708440
v 1.132495 0.050000 0.700561
v 1.131727 0.050000 0.698734
vn 0.0000 -1.0000 0.0000
vn 0.0000 1.0000 0.0000
vn 0.0000 1.0000 -0.0001
vn -0.8955 0.0000 -0.4450
vn 0.5463 0.0000 0.8376
vn -0.0389 0.0000 0.9992
vn 0.8355 0.0000 -0.5495
vn -0.3848 0.0000 0.9230
vn -0.0128 0.0000 0.9999
vn -0.5042 0.0000 -0.8636
vn -0.5938 0.0000 0.8046
vn -0.9992 0.0000 0.0406
vn 0.9042 0.0000 0.4271
vn 0.4657 0.0000 -0.8850
vn 0.4910 0.0000 0.8712
vn 0.9136 0.0000 -0.4065
vn 0.8179 0.0000 -0.5754
vn 0.9608 0.0000 0.2773
vn -0.3799 0.0000 0.9250
vn -0.8413 0.0000 0.5405
vn 0.7071 0.0000 -0.7071
vn 0.5579 0.0000 -0.8299
vn 0.9823 0.0000 -0.1875
vn -0.2570 0.0000 -0.9664
vn 0.7325 0.0000 -0.6807
vn -0.8277 0.0000 -0.5612
vn -0.9281 0.0000 0.3723
vn 0.3839 0.0000 -0.9234
vn -0.9510 0.0000 0.3092
vn -0.8705 0.0000 -0.4921
vn 0.9878 0.0000 -0.1560
vn 0.5806 0.0000 -0.8142
vn -0.0196 0.0000 -0.9998
vn 0.5112 0.0000 0.8595
vn 0.9889 0.0000 -0.1486
vn 0.4930 0.0000 -0.8700
vn -0.9832 0.0000 0.1828
vn -0.9874 0.0000 0.1581
vn -0.6520 0.0000 -0.7582
vn -0.6935 0.0000 -0.7204
vn 0.9430 0.0000 0.3328
vn -0.2524 0.0000 -0.9676
vn -0.9291 0.0000 0.3698
vn -0.2780 0.0000 0.9606
vn 0.9944 0.0000 -0.1056
vn 0.1610 0.0000 0.9870
vn -0.0839 0.0000 -0.9965
vn -0.7556 0.0000 -0.6550
vn 0.9323 0.0000 -0.3617
vn -0.7547 0.0000 0.6560
vn 0.1461 0.0000 0.9893
vn 0.9156 0.0000 -0.4020
vn -0.9755 0.0000 -0.2199
vn -0.9852 0.0000 0.1712
vn 0.1784 0.0000 0.9840
vn -0.2203 0.0000 0.9754
vn -0.2489 0.0000 -0.9685
vn 0.9968 0.0000 0.0803
vn 0.9868 0.0000 0.1622
vn -0.1612 0.0000 0.9869
vn -0.7593 0.0000 -0.6507
vn -0.1945 0.0000 0.9809
vn -0.9756 0.0000 0.2195
vn 0.9736 0.0000 -0.2282
vn 0.9638 0.0000 0.2666
vn 0.9250 0.0000 0.3799
vn -0.9976 0.0000 -0.0687
vn 0.1873 0.0000 -0.9823
vn -0.5120 0.0000 0.8590
vn 0.9963 0.0000 0.0858
vn -0.9317 0.0000 0.3634
vn 0.8306 0.0000 -0.5569
vn -0.9781 0.0000 0.2081
vn 0.6268 0.0000 -0.7792
vn 0.2272 0.0000 0.9738
vn -0.1439 0.0000 -0.9896
vn 0.4049 0.0000 0.9144
vn -0.9188 0.0000 0.3947
vn -0.8467 0.0000 0.5321
vn -0.7093 0.0000 -0.7049
vn 0.7362 0.0000 -0.6768
vn -0.8425 0.0000 0.5388
vn -0.5879 0.0000 -0.8090
vn 0.6106 0.0000 0.7919
vn 0.9595 0.0000 0.2818
vn 0.0389 0.0000 0.9992
vn 0.5070 0.0000 0.8620
vn -0.4124 0.0000 0.9110
vn -0.5621 0.0000 0.8271
vn 0.0055 0.0000 1.0000
vn -0.2740 0.0000 0.9617
vn 0.3968 0.0000 0.9179
vn -1.0000 0.0000 -0.0016
vn -0.8554 0.0000 -0.5179
vn 0.9996 0.0000 0.0277
vn -0.0830 0.0000 -0.9965
vn -0.9188 0.0000 -0.3948
vn -0.9329 0.0000 0.3600
vn -0.9986 0.0000 0.0520
vn -0.1635 0.0000 0.9865
vn -0.7847 0.0000 0.6199
vn -0.4327 0.0000 0.9015
vn 0.9968 0.0000 0.0804
vn 0.8641 0.0000 0.5034
vn -0.4889 0.0000 0.8723
vn -0.1017 0.0000 0.9948
usemtl SVGMat.3781
s off
f 37//1 36//1 35//1
f 21//1 20//1 19//1
f 38//1 37//1 35//1
f 38//1 35//1 34//1
f 22//1 21//1 19//1
f 23//1 22//1 19//1
f 39//1 38//1 34//1
f 24//1 23//1 19//1
f 39//1 34//1 33//1
f 25//1 24//1 19//1
f 40//1 39//1 33//1
f 40//1 33//1 32//1
f 26//1 25//1 19//1
f 41//1 40//1 32//1
f 42//1 41//1 32//1
f 42//1 32//1 31//1
f 43//1 42//1 31//1
f 31//1 30//1 29//1
f 31//1 29//1 28//1
f 43//1 31//1 28//1
f 27//1 26//1 19//1
f 28//1 27//1 19//1
f 43//1 28//1 19//1
f 44//1 43//1 19//1
f 45//1 44//1 19//1
f 45//1 19//1 18//1
f 46//1 45//1 18//1
f 47//1 46//1 18//1
f 47//1 18//1 17//1
f 48//1 47//1 17//1
f 49//1 48//1 17//1
f 50//1 49//1 17//1
f 50//1 17//1 16//1
f 50//1 16//1 15//1
f 51//1 50//1 15//1
f 51//1 15//1 14//1
f 51//1 14//1 13//1
f 52//1 51//1 13//1
f 52//1 13//1 12//1
f 52//1 12//1 11//1
f 53//1 52//1 11//1
f 53//1 11//1 10//1
f 53//1 10//1 9//1
f 54//1 53//1 9//1
f 54//1 9//1 8//1
f 54//1 8//1 7//1
f 54//1 7//1 6//1
f 54//1 6//1 5//1
f 55//1 54//1 5//1
f 62//1 61//1 60//1
f 63//1 62//1 60//1
f 56//1 55//1 5//1
f 63//1 60//1 59//1
f 57//1 56//1 5//1
f 64//1 63//1 59//1
f 57//1 5//1 4//1
f 64//1 59//1 58//1
f 58//1 57//1 4//1
f 64//1 58//1 4//1
f 65//1 64//1 4//1
f 66//1 65//1 4//1
f 66//1 4//1 3//1
f 67//1 66//1 3//1
f 68//1 67//1 3//1
f 68//1 3//1 2//1
f 69//1 68//1 2//1
f 69//1 2//1 1//1
f 70//1 69//1 1//1
f 70//1 1//1 103//1
f 74//1 70//1 103//1
f 75//1 74//1 103//1
f 70//1 74//1 72//1
f 72//1 74//1 73//1
f 71//1 70//1 72//1
f 76//1 75//1 103//1
f 77//1 76//1 103//1
f 77//1 103//1 102//1
f 77//1 102//1 101//1
f 77//1 101//1 100//1
f 77//1 100//1 99//1
f 78//1 77//1 99//1
f 78//1 99//1 98//1
f 78//1 98//1 97//1
f 96//1 78//1 97//1
f 78//1 96//1 95//1
f 78//1 95//1 92//1
f 78//1 92//1 91//1
f 92//1 95//1 94//1
f 93//1 92//1 94//1
f 79//1 78//1 82//1
f 82//1 78//1 91//1
f 82//1 91//1 90//1
f 83//1 82//1 90//1
f 79//1 82//1 81//1
f 84//1 83//1 90//1
f 79//1 81//1 80//1
f 84//1 90//1 89//1
f 84//1 89//1 87//1
f 85//1 84//1 87//1
f 88//1 87//1 89//1
f 85//1 87//1 86//1
f 117//2 149//2 116//2
f 193//2 106//2 173//2
f 152//2 149//2 117//2
f 152//2 148//2 149//2
f 158//2 106//2 193//2
f 191//2 106//2 158//2
f 154//2 148//2 152//2
f 139//2 106//2 191//2
f 154//2 153//2 148//2
f 140//2 106//2 139//2
f 126//2 153//2 154//2
f 126//2 132//2 153//2
f 161//2 106//2 140//2
f 127//2 132//2 126//2
f 133//2 132//2 127//2
f 133//2 185//2 132//2
f 136//2 185//2 133//2
f 185//2 150//2 183//2
f 185//2 135//2 150//2
f 136//2 135//2 185//2
f 134//2 106//2 161//2
f 135//2 106//2 134//2
f 136//2 106//2 135//2
f 107//2 106//2 136//2
f 120//2 106//2 107//2
f 120//2 176//2 106//2
f 121//2 176//2 120//2
f 177//2 176//2 121//2
f 177//2 137//2 176//2
f 184//2 137//2 177//2
f 138//2 137//2 184//2
f 175//2 137//2 138//2
f 175//2 196//2 137//2
f 175//2 146//2 196//2
f 156//2 146//2 175//2
f 156//2 105//2 146//2
f 156//2 104//2 105//2
f 130//2 104//2 156//2
f 130//2 200//2 104//2
f 130//2 199//2 200//2
f 131//2 199//2 130//2
f 131//2 165//2 199//2
f 131//2 129//2 165//2
f 141//2 129//2 131//2
f 141//2 128//2 129//2
f 141//2 174//2 128//2
f 141//2 181//2 174//2
f 141//2 180//2 181//2
f 202//2 180//2 141//2
f 167//2 203//2 166//2
f 172//2 203//2 167//2
f 206//2 180//2 202//2
f 172//2 171//2 203//2
f 162//2 180//2 206//2
f 122//2 171//2 172//2
f 162//2 118//2 180//2
f 122//2 182//2 171//2
f 182//2 118//2 162//2
f 122//2 118//2 182//2
f 119//2 118//2 122//2
f 205//3 118//3 119//3
f 205//2 169//2 118//2
f 170//2 169//2 205//2
f 186//2 169//2 170//2
f 186//2 178//2 169//2
f 179//2 178//2 186//2
f 179//2 125//2 178//2
f 151//2 125//2 179//2
f 151//2 124//2 125//2
f 145//2 124//2 151//2
f 163//2 124//2 145//2
f 151//2 144//2 145//2
f 144//2 159//2 145//2
f 157//2 144//2 151//2
f 164//2 124//2 163//2
f 155//2 124//2 164//2
f 155//2 204//2 124//2
f 155//2 190//2 204//2
f 155//2 189//2 190//2
f 155//2 194//2 189//2
f 112//2 194//2 155//2
f 112//2 113//2 194//2
f 112//2 143//2 113//2
f 188//2 143//2 112//2
f 112//2 187//2 188//2
f 112//2 110//2 187//2
f 112//2 201//2 110//2
f 110//2 168//2 187//2
f 111//2 168//2 110//2
f 197//2 123//2 112//2
f 123//2 201//2 112//2
f 123//2 109//2 201//2
f 147//2 109//2 123//2
f 197//2 195//2 123//2
f 114//2 109//2 147//2
f 197//2 198//2 195//2
f 114//2 108//2 109//2
f 114//2 115//2 108//2
f 142//2 115//2 114//2
f 192//2 108//2 115//2
f 142//2 160//2 115//2
f 61//4 62//4 167//4 166//4
f 94//5 95//5 187//5 168//5
f 72//6 73//6 159//6 144//6
f 11//7 12//7 200//7 199//7
f 68//8 69//8 179//8 186//8
f 93//9 94//9 168//9 111//9
f 48//10 49//10 138//10 184//10
f 83//11 84//11 114//11 147//11
f 78//12 79//12 197//12 112//12
f 90//13 91//13 201//13 109//13
f 19//14 20//14 173//14 106//14
f 91//15 92//15 110//15 201//15
f 13//16 14//16 105//16 104//16
f 60//17 61//17 166//17 203//17
f 89//18 90//18 109//18 108//18
f 92//19 93//19 111//19 110//19
f 54//20 55//20 202//20 141//20
f 102//21 103//21 124//21 204//21
f 6//22 7//22 174//22 181//22
f 5//23 6//23 181//23 180//23
f 36//24 37//24 117//24 116//24
f 59//25 60//25 203//25 171//25
f 46//26 47//26 177//26 121//26
f 50//27 51//27 156//27 175//27
f 58//28 59//28 171//28 182//28
f 38//29 39//29 154//29 152//29
f 45//30 46//30 121//30 120//30
f 32//31 33//31 153//31 132//31
f 17//32 18//32 176//32 137//32
f 29//33 30//33 183//33 150//33
f 98//34 99//34 194//34 113//34
f 103//35 1//35 125//35 124//35
f 101//36 102//36 204//36 190//36
f 53//37 54//37 141//37 131//37
f 55//38 56//38 206//38 202//38
f 40//39 41//39 127//39 126//39
f 47//40 48//40 184//40 177//40
f 8//41 9//41 129//41 128//41
f 41//42 42//42 133//42 127//42
f 52//43 53//43 131//43 130//43
f 67//44 68//44 186//44 170//44
f 7//45 8//45 128//45 174//45
f 95//46 96//46 188//46 187//46
f 27//47 28//47 135//47 134//47
f 22//48 23//48 191//48 158//48
f 100//49 101//49 190//49 189//49
f 51//50 52//50 130//50 156//50
f 88//51 89//51 108//51 192//51
f 1//52 2//52 178//52 125//52
f 24//53 25//53 140//53 139//53
f 42//54 43//54 136//54 133//54
f 86//55 87//55 115//55 160//55
f 74//56 75//56 163//56 145//56
f 30//57 31//57 185//57 183//57
f 10//58 11//58 199//58 165//58
f 14//59 15//59 146//59 105//59
f 87//60 88//60 192//60 115//60
f 56//61 57//61 162//61 206//61
f 82//62 83//62 147//62 123//62
f 49//63 50//63 175//63 138//63
f 3//64 4//64 118//64 169//64
f 34//65 35//65 149//65 148//65
f 16//66 17//66 137//66 196//66
f 20//67 21//67 193//67 173//67
f 28//68 29//68 150//68 135//68
f 44//69 45//69 120//69 107//69
f 33//70 34//70 148//70 153//70
f 37//71 38//71 152//71 117//71
f 2//72 3//72 169//72 178//72
f 77//73 78//73 112//73 155//73
f 12//74 13//74 104//74 200//74
f 81//75 82//75 123//75 195//75
f 57//76 58//76 182//76 162//76
f 80//77 81//77 195//77 198//77
f 76//78 77//78 155//78 164//78
f 70//79 71//79 157//79 151//79
f 62//80 63//80 172//80 167//80
f 31//81 32//81 132//81 185//81
f 25//82 26//82 161//82 140//82
f 23//83 24//83 139//83 191//83
f 97//84 98//84 113//84 143//84
f 15//85 16//85 196//85 146//85
f 71//86 72//86 144//86 157//86
f 73//87 74//87 145//87 159//87
f 64//88 65//88 119//88 122//88
f 63//89 64//89 122//89 172//89
f 96//90 97//90 143//90 188//90
f 85//91 86//91 160//91 142//91
f 99//92 100//92 189//92 194//92
f 43//93 44//93 107//93 136//93
f 26//94 27//94 134//94 161//94
f 4//95 5//95 180//95 118//95
f 35//96 36//96 116//96 149//96
f 21//97 22//97 158//97 193//97
f 84//98 85//98 142//98 114//98
f 39//99 40//99 126//99 154//99
f 65//100 66//100 205//100 119//100
f 75//101 76//101 164//101 163//101
f 66//102 67//102 170//102 205//102
f 18//103 19//103 106//103 176//103
f 9//104 10//104 165//104 129//104
f 69//105 70//105 151//105 179//105
f 79//106 80//106 198//106 197//106
