# Blender v2.79 (sub 0) OBJ File: 'world_countrycodes_export2.blend'
# www.blender.org
mtllib UY.mtl
o UY.002_CUCurve.1781
v 0.652810 0.000000 0.843482
v 0.652218 0.000000 0.842099
v 0.651288 0.000000 0.841138
v 0.649346 0.000000 0.839871
v 0.648300 0.000000 0.839013
v 0.643571 0.000000 0.835761
v 0.641908 0.000000 0.833999
v 0.640906 0.000000 0.834094
v 0.639481 0.000000 0.835585
v 0.638923 0.000000 0.835349
v 0.638001 0.000000 0.833291
v 0.636571 0.000000 0.831237
v 0.634990 0.000000 0.829982
v 0.633934 0.000000 0.829607
v 0.632826 0.000000 0.829561
v 0.631741 0.000000 0.829894
v 0.630321 0.000000 0.829870
v 0.629359 0.000000 0.830867
v 0.628597 0.000000 0.832725
v 0.628464 0.000000 0.834104
v 0.627217 0.000000 0.838563
v 0.626761 0.000000 0.841126
v 0.626578 0.000000 0.844185
v 0.626242 0.000000 0.845935
v 0.625232 0.000000 0.848508
v 0.625173 0.000000 0.851974
v 0.625712 0.000000 0.852997
v 0.626718 0.000000 0.853463
v 0.627024 0.000000 0.854346
v 0.626346 0.000000 0.855933
v 0.626963 0.000000 0.856543
v 0.628052 0.000000 0.857000
v 0.631455 0.000000 0.857233
v 0.634704 0.000000 0.858302
v 0.637547 0.000000 0.859458
v 0.639139 0.000000 0.858820
v 0.641730 0.000000 0.859170
v 0.644271 0.000000 0.859177
v 0.647103 0.000000 0.858529
v 0.648854 0.000000 0.857706
v 0.651306 0.000000 0.855364
v 0.653286 0.000000 0.852544
v 0.652661 0.000000 0.849686
v 0.652478 0.000000 0.847182
v 0.628597 0.050000 0.832725
v 0.628464 0.050000 0.834104
v 0.631455 0.050000 0.857233
v 0.648854 0.050000 0.857706
v 0.626346 0.050000 0.855933
v 0.651306 0.050000 0.855364
v 0.625232 0.050000 0.848508
v 0.652478 0.050000 0.847182
v 0.648300 0.050000 0.839013
v 0.627217 0.050000 0.838563
v 0.638923 0.050000 0.835349
v 0.626578 0.050000 0.844185
v 0.626242 0.050000 0.845935
v 0.638001 0.050000 0.833291
v 0.636571 0.050000 0.831237
v 0.647103 0.050000 0.858529
v 0.641730 0.050000 0.859170
v 0.644271 0.050000 0.859177
v 0.651288 0.050000 0.841138
v 0.649346 0.050000 0.839871
v 0.625712 0.050000 0.852997
v 0.653286 0.050000 0.852544
v 0.634990 0.050000 0.829982
v 0.629359 0.050000 0.830867
v 0.626761 0.050000 0.841126
v 0.639139 0.050000 0.858820
v 0.626718 0.050000 0.853463
v 0.626963 0.050000 0.856543
v 0.643571 0.050000 0.835761
v 0.640906 0.050000 0.834094
v 0.652661 0.050000 0.849686
v 0.633934 0.050000 0.829607
v 0.632826 0.050000 0.829561
v 0.641908 0.050000 0.833999
v 0.628052 0.050000 0.857000
v 0.634704 0.050000 0.858302
v 0.625173 0.050000 0.851974
v 0.652218 0.050000 0.842099
v 0.631741 0.050000 0.829894
v 0.630321 0.050000 0.829870
v 0.627024 0.050000 0.854346
v 0.639481 0.050000 0.835585
v 0.637547 0.050000 0.859458
v 0.652810 0.050000 0.843482
vn 0.0000 -1.0000 0.0000
vn 0.0000 1.0000 -0.0000
vn 0.0000 1.0000 -0.0001
vn 0.9769 0.0000 -0.2137
vn -0.0683 0.0000 0.9977
vn -0.9821 0.0000 -0.1885
vn 0.0410 0.0000 -0.9992
vn -0.8844 0.0000 0.4666
vn 0.8206 0.0000 -0.5715
vn -0.9196 0.0000 -0.3928
vn 0.7271 0.0000 -0.6865
vn -0.9308 0.0000 -0.3656
vn 0.9960 0.0000 0.0894
vn 0.4251 0.0000 0.9051
vn 0.9127 0.0000 -0.4087
vn -0.7230 0.0000 -0.6909
vn -0.0027 0.0000 1.0000
vn -0.2935 0.0000 -0.9560
vn 0.6220 0.0000 -0.7831
vn -0.0942 0.0000 -0.9956
vn 0.5463 0.0000 -0.8376
vn 0.0170 0.0000 -0.9999
vn 0.6908 0.0000 0.7231
vn 0.3722 0.0000 0.9282
vn 0.9194 0.0000 -0.3933
vn -0.9448 0.0000 0.3275
vn 0.5666 0.0000 -0.8240
vn 0.6344 0.0000 -0.7730
vn -0.9845 0.0000 -0.1751
vn -0.9954 0.0000 -0.0961
vn 0.7188 0.0000 -0.6952
vn 0.3898 0.0000 -0.9209
vn -0.9999 0.0000 -0.0171
vn -0.3768 0.0000 0.9263
vn 0.3345 0.0000 -0.9424
vn -0.1338 0.0000 0.9910
vn -0.9253 0.0000 -0.3792
vn -0.3867 0.0000 0.9222
vn -0.3126 0.0000 0.9499
vn -0.4210 0.0000 0.9071
vn -0.9630 0.0000 -0.2695
vn -0.7195 0.0000 -0.6945
vn -0.7030 0.0000 0.7112
vn 0.2229 0.0000 0.9748
vn 0.9973 0.0000 -0.0729
vn 0.8184 0.0000 0.5746
vn -0.9982 0.0000 -0.0596
usemtl SVGMat.3781
s off
f 15//1 14//1 13//1
f 16//1 15//1 13//1
f 17//1 16//1 13//1
f 18//1 17//1 13//1
f 18//1 13//1 12//1
f 19//1 18//1 12//1
f 19//1 12//1 11//1
f 20//1 19//1 11//1
f 20//1 11//1 10//1
f 8//1 7//1 6//1
f 9//1 8//1 6//1
f 21//1 20//1 10//1
f 21//1 10//1 9//1
f 21//1 9//1 6//1
f 21//1 6//1 5//1
f 21//1 5//1 4//1
f 22//1 21//1 4//1
f 22//1 4//1 3//1
f 22//1 3//1 2//1
f 23//1 22//1 2//1
f 23//1 2//1 1//1
f 24//1 23//1 1//1
f 24//1 1//1 44//1
f 25//1 24//1 44//1
f 25//1 44//1 43//1
f 26//1 25//1 43//1
f 26//1 43//1 42//1
f 27//1 26//1 42//1
f 28//1 27//1 42//1
f 28//1 42//1 41//1
f 29//1 28//1 41//1
f 30//1 29//1 41//1
f 31//1 30//1 41//1
f 31//1 41//1 40//1
f 32//1 31//1 40//1
f 33//1 32//1 40//1
f 34//1 33//1 40//1
f 34//1 40//1 39//1
f 34//1 39//1 36//1
f 36//1 39//1 38//1
f 35//1 34//1 36//1
f 37//1 36//1 38//1
f 77//2 67//2 76//2
f 83//2 67//2 77//2
f 84//2 67//2 83//2
f 68//2 67//2 84//2
f 68//2 59//2 67//2
f 45//2 59//2 68//2
f 45//2 58//2 59//2
f 46//2 58//2 45//2
f 46//2 55//2 58//2
f 74//2 73//2 78//2
f 86//2 73//2 74//2
f 54//2 55//2 46//2
f 54//2 86//2 55//2
f 54//2 73//2 86//2
f 54//2 53//2 73//2
f 54//2 64//2 53//2
f 69//2 64//2 54//2
f 69//2 63//2 64//2
f 69//2 82//2 63//2
f 56//2 82//2 69//2
f 56//2 88//2 82//2
f 57//2 88//2 56//2
f 57//2 52//2 88//2
f 51//2 52//2 57//2
f 51//2 75//2 52//2
f 81//2 75//2 51//2
f 81//2 66//2 75//2
f 65//2 66//2 81//2
f 71//2 66//2 65//2
f 71//2 50//2 66//2
f 85//2 50//2 71//2
f 49//2 50//2 85//2
f 72//2 50//2 49//2
f 72//2 48//2 50//2
f 79//2 48//2 72//2
f 47//3 48//3 79//3
f 80//2 48//2 47//2
f 80//2 60//2 48//2
f 80//2 70//2 60//2
f 70//2 62//2 60//2
f 87//2 70//2 80//2
f 61//2 62//2 70//2
f 42//4 43//4 75//4 66//4
f 32//5 33//5 47//5 79//5
f 23//6 24//6 57//6 56//6
f 14//7 15//7 77//7 76//7
f 26//8 27//8 65//8 81//8
f 11//9 12//9 59//9 58//9
f 29//10 30//10 49//10 85//10
f 6//11 7//11 78//11 73//11
f 24//12 25//12 51//12 57//12
f 44//13 1//13 88//13 52//13
f 39//14 40//14 48//14 60//14
f 10//15 11//15 58//15 55//15
f 8//16 9//16 86//16 74//16
f 37//17 38//17 62//17 61//17
f 15//18 16//18 83//18 77//18
f 12//19 13//19 67//19 59//19
f 7//20 8//20 74//20 78//20
f 3//21 4//21 64//21 63//21
f 16//22 17//22 84//22 83//22
f 40//23 41//23 50//23 48//23
f 35//24 36//24 70//24 87//24
f 1//25 2//25 82//25 88//25
f 28//26 29//26 85//26 71//26
f 5//27 6//27 73//27 53//27
f 4//28 5//28 53//28 64//28
f 21//29 22//29 69//29 54//29
f 19//30 20//30 46//30 45//30
f 2//31 3//31 63//31 82//31
f 9//32 10//32 55//32 86//32
f 25//33 26//33 81//33 51//33
f 34//34 35//34 87//34 80//34
f 13//35 14//35 76//35 67//35
f 36//36 37//36 61//36 70//36
f 18//37 19//37 45//37 68//37
f 31//38 32//38 79//38 72//38
f 33//39 34//39 80//39 47//39
f 27//40 28//40 71//40 65//40
f 20//41 21//41 54//41 46//41
f 17//42 18//42 68//42 84//42
f 30//43 31//43 72//43 49//43
f 38//44 39//44 60//44 62//44
f 43//45 44//45 52//45 75//45
f 41//46 42//46 66//46 50//46
f 22//47 23//47 56//47 69//47
