# Blender v2.79 (sub 0) OBJ File: 'world_countrycodes_outlines2.blend'
# www.blender.org
mtllib UZ_outline.mtl
o UZ.001_CUCurve.036
v 1.372335 0.000831 0.408861
v 1.369792 0.002004 0.407292
v 1.369695 -0.000956 0.405543
v 1.368903 -0.002001 0.408235
v 1.371340 -0.001433 0.409030
v 1.366829 0.000961 0.409849
v 1.366809 0.000765 0.405694
v 1.362930 0.000743 0.406938
v 1.360920 -0.001907 0.408288
v 1.356501 -0.001178 0.411422
v 1.357796 0.001864 0.409902
v 1.359629 -0.000907 0.405784
v 1.360618 0.001935 0.405028
v 1.363397 0.001136 0.403720
v 1.362502 -0.001940 0.404494
v 1.361358 -0.000653 0.401927
v 1.357040 0.000921 0.403286
v 1.354625 -0.002011 0.405777
v 1.355120 -0.000461 0.407924
v 1.354157 0.002004 0.406371
v 1.352942 0.001443 0.404310
v 1.352649 -0.000790 0.403854
v 1.350691 -0.002059 0.409387
v 1.353168 -0.000667 0.410308
v 1.349835 0.001286 0.407809
v 1.351657 0.001072 0.410866
v 1.350540 0.001975 0.409901
v 1.348205 -0.000600 0.408047
v 1.349594 0.001930 0.413018
v 1.347455 0.000833 0.410868
v 1.348780 -0.002005 0.411733
v 1.350242 -0.000732 0.413886
v 1.345260 0.000013 0.414874
v 1.343181 0.002058 0.413359
v 1.341710 -0.000748 0.412540
v 1.343842 -0.001964 0.414436
v 1.341392 0.000777 0.416030
v 1.342024 -0.001442 0.415964
v 1.348413 -0.000687 0.417216
v 1.347286 0.001942 0.417674
v 1.344652 0.000796 0.418931
v 1.345693 -0.001989 0.418287
v 1.345587 0.000084 0.422594
v 1.348474 -0.002140 0.423019
v 1.347153 0.002002 0.422987
v 1.349749 0.000986 0.423756
v 1.347049 0.000762 0.427321
v 1.343328 -0.001361 0.427150
v 1.345233 -0.001964 0.429182
v 1.343125 -0.000017 0.426591
v 1.343760 0.001906 0.428036
v 1.347697 -0.000003 0.434737
v 1.342567 -0.000744 0.430783
v 1.339047 0.001843 0.428204
v 1.339381 0.000748 0.425133
v 1.338483 -0.001914 0.426105
v 1.335772 0.000812 0.429054
v 1.337271 -0.001290 0.428473
v 1.337912 0.001939 0.422840
v 1.338464 -0.001615 0.422396
v 1.335360 0.000816 0.424640
v 1.335775 -0.001397 0.424250
v 1.330873 -0.001866 0.419829
v 1.330910 0.001956 0.420520
v 1.330582 -0.000693 0.423429
v 1.327793 0.001422 0.420902
v 1.326336 -0.000695 0.420151
v 1.331708 0.000787 0.419044
v 1.321495 -0.001968 0.416617
v 1.322942 0.000757 0.414265
v 1.319767 0.000079 0.416847
v 1.316023 0.002001 0.411714
v 1.312958 0.000798 0.411666
v 1.315835 -0.001205 0.409061
v 1.313641 -0.001782 0.411144
v 1.308429 -0.000762 0.403439
v 1.310124 -0.001922 0.400757
v 1.309314 0.001972 0.402264
v 1.311026 0.000734 0.400029
v 1.299536 0.000769 0.402600
v 1.302414 0.000015 0.399157
v 1.301553 0.001957 0.400282
v 1.301745 -0.001953 0.400360
v 1.299919 -0.001464 0.401976
v 1.301055 -0.000813 0.393352
v 1.298929 -0.001946 0.395408
v 1.298077 0.000805 0.396578
v 1.300472 0.001931 0.394574
v 1.296525 0.000711 0.391955
v 1.292477 -0.001968 0.391025
v 1.291489 -0.000937 0.393444
v 1.291246 0.001928 0.392223
v 1.291834 0.001007 0.389475
v 1.287962 -0.001171 0.390795
v 1.288208 0.001951 0.394083
v 1.286661 0.000793 0.391598
v 1.285537 0.000853 0.393276
v 1.286828 -0.001998 0.394122
v 1.287831 0.000725 0.396903
v 1.289143 -0.000968 0.394996
v 1.283885 0.001380 0.397313
v 1.284299 -0.000825 0.397701
v 1.282135 -0.001642 0.395110
v 1.280569 0.001995 0.399528
v 1.279832 -0.000902 0.399040
v 1.282391 -0.001888 0.401155
v 1.283000 0.000741 0.402314
v 1.276922 0.001853 0.399520
v 1.275761 -0.001539 0.401972
v 1.277858 -0.000697 0.398645
v 1.273986 0.001050 0.401249
v 1.275085 0.001447 0.373556
v 1.278849 0.000000 0.376720
v 1.275660 -0.001873 0.374380
v 1.289418 0.001949 0.372583
v 1.293948 0.000173 0.368035
v 1.288098 0.000054 0.373979
v 1.289774 -0.001995 0.372184
v 1.291392 -0.001141 0.377826
v 1.292024 0.001063 0.377889
v 1.289262 -0.001451 0.379700
v 1.291567 0.001956 0.380864
v 1.290171 0.000597 0.382054
v 1.292430 -0.001951 0.380888
v 1.294077 0.000792 0.380478
v 1.293066 0.001929 0.370615
v 1.294090 0.000931 0.373737
v 1.294524 -0.001253 0.373505
v 1.291501 -0.000756 0.370889
v 1.294805 -0.001982 0.370763
v 1.296938 0.000005 0.370196
v 1.296530 0.001965 0.372419
v 1.296763 -0.001969 0.373982
v 1.296386 0.001265 0.381612
v 1.293805 0.001884 0.383124
v 1.292565 -0.000555 0.382933
v 1.296757 -0.000774 0.381006
v 1.296254 -0.001920 0.384222
v 1.298192 0.000654 0.384906
v 1.300635 0.000037 0.379422
v 1.302892 0.001986 0.378318
v 1.303996 0.001430 0.380771
v 1.304162 -0.000760 0.381520
v 1.303442 -0.001938 0.377419
v 1.302531 0.000871 0.374919
v 1.309749 0.000788 0.388072
v 1.309750 -0.001433 0.387111
v 1.310795 -0.001979 0.385574
v 1.311381 0.001122 0.384070
v 1.310583 0.002033 0.385918
v 1.316604 0.000701 0.387259
v 1.316375 -0.000620 0.383255
v 1.330127 -0.001897 0.385050
v 1.330261 0.000823 0.384000
v 1.328761 -0.000754 0.387719
v 1.335763 -0.000016 0.388358
v 1.330544 0.002001 0.386735
v 1.332707 0.001786 0.390762
v 1.332361 -0.000790 0.390949
v 1.334984 -0.001913 0.389211
v 1.335084 0.001988 0.389612
v 1.336565 0.000766 0.394355
v 1.332841 -0.000758 0.395660
v 1.335501 -0.001990 0.395023
v 1.339608 0.000754 0.399464
v 1.336928 0.000140 0.402891
v 1.337799 -0.001917 0.401996
v 1.339230 -0.001421 0.399626
v 1.337645 0.001923 0.401846
v 1.346411 0.001003 0.400358
v 1.344819 0.000025 0.404028
v 1.345695 -0.001952 0.403091
v 1.345653 0.001950 0.403040
v 1.347917 -0.000759 0.401479
v 1.348467 0.001394 0.403689
v 1.348411 -0.000946 0.403059
v 1.347221 0.001897 0.405983
v 1.346935 -0.000055 0.407195
v 1.347961 -0.001992 0.406228
v 1.350936 0.000303 0.406558
v 1.351391 0.002019 0.402578
v 1.352448 -0.000797 0.403325
v 1.351295 -0.001983 0.400610
v 1.351084 0.000753 0.399338
v 1.358427 0.001337 0.399635
v 1.358419 0.000065 0.396189
v 1.358648 0.001939 0.397397
v 1.358423 -0.000778 0.400208
v 1.359028 -0.001966 0.397345
v 1.363461 0.000751 0.399581
v 1.363476 -0.001296 0.400192
v 1.362454 -0.000746 0.403612
v 1.363007 0.001954 0.402754
v 1.366787 0.001819 0.398708
v 1.366556 -0.001853 0.401234
v 1.367220 0.000738 0.402049
v 1.365126 -0.001536 0.398563
v 1.368847 -0.000762 0.398391
v 1.372340 -0.000799 0.404790
v 1.375587 -0.002002 0.405691
v 1.376793 -0.000706 0.404313
v 1.373097 0.001573 0.404618
v 1.376316 0.001682 0.405956
vn -0.0255 0.9905 -0.1348
vn 0.1514 0.3670 0.9178
vn 0.3745 0.4019 0.8356
vn -0.0317 -0.9557 0.2927
vn 0.2395 -0.5596 0.7934
vn -0.2089 -0.4139 -0.8860
vn -0.1764 0.3493 -0.9203
vn -0.7649 -0.3188 0.5597
vn 0.3894 0.6884 -0.6119
vn -0.0502 -0.9957 -0.0772
vn -0.5892 0.7723 0.2373
vn -0.2868 -0.7915 0.5397
vn 0.0433 0.9963 -0.0742
vn 0.5580 -0.8204 -0.1246
vn 0.7890 0.4805 -0.3827
vn 0.1917 -0.2042 -0.9600
vn -0.1675 0.3538 -0.9202
vn 0.0754 -0.9893 -0.1249
vn 0.5821 -0.1472 0.7996
vn -0.3726 0.6629 -0.6493
vn 0.1330 0.9715 0.1960
vn 0.0048 -0.9995 -0.0327
vn -0.4254 -0.4168 -0.8032
vn 0.5300 -0.2732 0.8028
vn -0.0459 0.9980 0.0420
vn -0.5939 -0.2843 -0.7526
vn -0.6113 0.5467 -0.5721
vn 0.2859 0.8455 0.4510
vn -0.5482 0.5066 -0.6654
vn -0.0880 -0.9955 -0.0334
vn 0.7177 0.4185 0.5565
vn 0.5968 -0.3088 0.7406
vn 0.9965 0.0833 -0.0065
vn -0.7407 -0.2724 -0.6142
vn -0.8567 0.3908 0.3366
vn -0.3343 0.8879 -0.3161
vn -0.0612 -0.9939 -0.0913
vn -0.6830 -0.6617 0.3092
vn 0.3966 0.8802 -0.2607
vn 0.8214 -0.2970 -0.4869
vn -0.7739 0.4502 0.4454
vn -0.2036 -0.9660 0.1593
vn -0.9887 -0.0972 -0.1136
vn 0.8274 0.4375 0.3522
vn 0.2789 -0.9476 0.1555
vn 0.4358 -0.8951 0.0940
vn -0.1077 0.9936 0.0335
vn 0.9044 0.3389 0.2592
vn 0.0283 0.9951 -0.0949
vn -0.0949 -0.8235 -0.5593
vn -0.2874 0.1234 -0.9498
vn 0.5187 0.0042 0.8549
vn -0.1545 0.8931 0.4224
vn -0.3724 -0.6705 0.6417
vn -0.4133 -0.5260 0.7433
vn -0.0298 -0.9755 -0.2181
vn 0.7718 0.3297 -0.5437
vn -0.6119 0.2613 0.7465
vn 0.4375 0.7984 -0.4137
vn 0.6252 -0.5973 -0.5023
vn -0.3172 -0.8839 0.3436
vn -0.5893 0.6253 0.5116
vn 0.4026 0.2914 -0.8678
vn 0.0569 0.9961 -0.0667
vn 0.1422 -0.9256 -0.3506
vn -0.4196 -0.3517 0.8368
vn -0.3897 0.6639 0.6382
vn -0.4024 -0.4782 0.7806
vn -0.2439 -0.8897 0.3859
vn 0.0780 0.9958 -0.0484
vn 0.4914 0.3636 -0.7914
vn -0.5570 0.1311 0.8201
vn 0.6749 -0.5354 -0.5077
vn -0.4206 -0.8246 0.3783
vn -0.7035 0.3547 0.6158
vn -0.0642 0.9940 0.0880
vn -0.6312 0.3459 0.6942
vn -0.4948 -0.4771 0.7263
vn 0.2631 -0.8324 -0.4877
vn 0.6925 0.0308 -0.7207
vn 0.5370 0.3117 -0.7838
vn -0.5297 -0.6571 0.5362
vn 0.0005 0.9987 -0.0516
vn 0.1395 -0.9877 -0.0705
vn -0.1263 -0.9845 0.1217
vn -0.6673 0.4665 0.5805
vn 0.4472 0.8410 -0.3043
vn 0.6977 -0.3108 -0.6454
vn 0.3975 0.1187 -0.9099
vn 0.1214 -0.8720 -0.4741
vn 0.0686 -0.4721 0.8788
vn -0.0456 0.9813 0.1871
vn 0.0664 0.3638 -0.9291
vn 0.5804 -0.4323 0.6901
vn 0.2130 0.9628 0.1662
vn -0.4363 -0.5244 -0.7312
vn -0.6348 0.4240 -0.6459
vn -0.1556 -0.9845 -0.0806
vn -0.5961 0.4323 -0.6766
vn 0.5790 0.4120 0.7036
vn 0.5623 0.2761 0.7795
vn 0.5912 -0.6251 0.5096
vn -0.1614 0.9663 -0.2003
vn -0.5789 -0.5641 -0.5888
vn 0.3377 -0.8349 0.4346
vn 0.5413 0.3228 0.7764
vn -0.3751 -0.6690 0.6416
vn -0.3978 -0.6129 -0.6827
vn 0.1211 0.9918 -0.0416
vn -0.7913 0.3492 0.5018
vn 0.6395 -0.6142 -0.4624
vn -0.5084 -0.7916 -0.3390
vn -0.6487 0.5554 -0.5202
vn 0.7082 0.1093 0.6975
vn -0.0065 0.9998 -0.0208
vn 0.6736 0.0280 -0.7385
vn 0.0502 -0.9919 -0.1166
vn -0.4456 -0.0128 0.8951
vn -0.4227 0.8916 -0.1624
vn 0.4525 -0.8631 -0.2241
vn 0.3050 -0.7623 0.5708
vn -0.4538 0.2072 0.8666
vn -0.7453 -0.5786 0.3312
vn 0.8222 0.2954 0.4865
vn 0.0071 0.8970 0.4419
vn -0.7839 -0.2820 -0.5531
vn -0.3424 0.7392 -0.5799
vn 0.3356 -0.9286 0.1582
vn 0.0389 0.9989 0.0270
vn 0.0354 -0.8136 -0.5804
vn 0.6778 0.0077 -0.7352
vn 0.5786 -0.8155 -0.0107
vn 0.5453 0.8309 -0.1109
vn 0.7011 -0.4394 -0.5616
vn -0.4770 0.7500 0.4581
vn -0.8663 -0.2952 0.4028
vn -0.1500 -0.7540 0.6395
vn 0.1821 0.3432 0.9214
vn 0.0062 0.6502 -0.7597
vn -0.5553 0.1468 -0.8185
vn 0.0776 -0.8477 -0.5247
vn -0.1382 0.9683 -0.2079
vn -0.2396 -0.6184 0.7484
vn -0.2020 0.2044 -0.9578
vn -0.3070 0.2887 0.9068
vn -0.2033 0.8156 0.5417
vn -0.2973 -0.6788 0.6714
vn 0.2781 0.4739 -0.8355
vn 0.0501 -0.9841 -0.1705
vn -0.0343 0.9884 0.1479
vn -0.0184 0.3567 0.9340
vn -0.0210 0.9997 0.0101
vn -0.0354 -0.2824 -0.9586
vn 0.1934 -0.8586 -0.4747
vn 0.3207 0.3555 -0.8779
vn -0.2904 -0.4519 0.8435
vn -0.4765 0.8178 0.3226
vn -0.7230 -0.5884 0.3619
vn 0.8438 0.0237 -0.5361
vn 0.4405 -0.8794 -0.1805
vn 0.4813 0.8530 -0.2016
vn 0.8625 0.4058 -0.3022
vn -0.9121 -0.2727 0.3059
vn 0.2248 -0.9644 -0.1392
vn 0.3821 -0.7785 -0.4979
vn -0.2742 0.8966 0.3475
vn -0.2696 -0.8462 0.4595
vn 0.4078 0.5887 -0.6979
vn 0.3945 0.4210 -0.8168
vn -0.5755 0.0504 0.8162
vn -0.1023 0.9875 0.1201
vn -0.5223 0.0003 0.8528
vn -0.0660 -0.9930 0.0975
vn 0.7763 -0.2826 -0.5634
vn -0.0985 -0.7401 -0.6652
vn -0.0879 0.8759 -0.4744
vn -0.2327 0.8422 0.4862
vn -0.4151 -0.0247 0.9094
vn -0.0654 -0.8562 0.5124
vn 0.6188 0.1178 0.7766
vn 0.1585 0.9767 0.1444
vn 0.6391 -0.4510 0.6229
vn -0.2662 -0.8890 -0.3724
vn -0.5533 0.3189 -0.7695
vn -0.0595 0.7855 0.6160
vn -0.0757 -0.5676 0.8198
vn 0.1243 -0.8512 -0.5099
vn 0.0854 0.8590 -0.5048
vn 0.0045 0.5448 -0.8386
vn 0.0315 -0.0034 -0.9995
vn 0.1381 -0.0017 -0.9904
vn -0.0886 0.8069 0.5840
vn -0.2257 -0.3665 0.9026
vn 0.1528 -0.9420 0.2987
vn 0.0247 0.7769 -0.6291
vn -0.0784 0.5447 0.8349
vn -0.2625 -0.6154 -0.7432
vn 0.3810 -0.3037 -0.8732
vn 0.7525 0.6204 0.2209
vn -0.5977 -0.8001 -0.0500
vn 0.5212 -0.8129 0.2597
vn 0.9203 -0.1922 -0.3407
vn 0.0166 0.7080 -0.7060
usemtl SVGMat.3781
s 1
f 2//1 6//2 1//3
f 6//2 4//4 5//5
f 3//6 7//7 2//1
f 6//2 10//8 4//4
f 3//6 8//9 7//7
f 4//4 9//10 3//6
f 8//9 11//11 2//1
f 10//8 9//10 4//4
f 11//11 12//12 10//8
f 8//9 13//13 11//11
f 12//12 15//14 9//10
f 15//14 14//15 8//9
f 15//14 16//16 14//15
f 16//16 17//17 14//15
f 12//12 18//18 15//14
f 13//13 19//19 12//12
f 21//20 20//21 13//13
f 18//18 23//22 22//23
f 19//19 24//24 18//18
f 20//21 24//24 19//19
f 21//20 27//25 20//21
f 23//22 28//26 25//27
f 25//27 29//28 27//25
f 28//26 30//29 25//27
f 23//22 31//30 28//26
f 26//31 32//32 23//22
f 29//28 32//32 26//31
f 29//28 33//33 32//32
f 31//30 35//34 30//29
f 35//34 37//35 34//36
f 36//37 38//38 35//34
f 37//35 40//39 34//36
f 33//33 39//40 36//37
f 34//36 39//40 33//33
f 38//38 41//41 37//35
f 42//42 43//43 41//41
f 47//44 49//45 44//46
f 45//47 47//44 46//48
f 43//43 51//49 45//47
f 48//50 50//51 43//43
f 47//44 52//52 49//45
f 51//49 52//52 47//44
f 51//49 54//53 52//52
f 54//53 58//54 53//55
f 58//54 56//56 49//45
f 50//51 55//57 51//49
f 48//50 55//57 50//51
f 54//53 57//58 58//54
f 55//57 59//59 54//53
f 56//56 60//60 55//57
f 58//54 60//60 56//56
f 57//58 62//61 58//54
f 59//59 61//62 57//58
f 68//63 64//64 59//59
f 62//61 63//65 60//60
f 61//62 65//66 62//61
f 64//64 66//67 61//62
f 66//67 67//68 65//66
f 67//68 69//69 63//65
f 68//63 72//70 64//64
f 63//65 70//71 68//63
f 66//67 71//72 67//68
f 69//69 74//73 63//65
f 71//72 75//74 69//69
f 72//70 73//75 71//72
f 78//76 80//77 76//78
f 77//79 81//80 79//81
f 80//77 84//82 76//78
f 79//81 82//83 78//76
f 81//80 82//83 79//81
f 76//78 83//84 77//79
f 80//77 86//85 84//82
f 82//83 87//86 80//77
f 81//80 88//87 82//83
f 83//84 85//88 81//80
f 84//82 86//85 83//84
f 85//88 89//89 88//87
f 86//85 90//90 85//88
f 87//86 91//91 86//85
f 91//91 90//90 86//85
f 88//87 92//92 87//86
f 90//90 93//93 89//89
f 93//93 92//92 88//87
f 92//92 100//94 91//91
f 93//93 95//95 92//92
f 94//96 96//97 93//93
f 91//91 98//98 90//90
f 94//96 97//99 96//97
f 95//95 101//100 99//101
f 99//101 102//102 100//94
f 101//100 102//102 99//101
f 97//99 104//103 95//95
f 103//104 104//103 97//99
f 102//102 103//104 98//98
f 102//102 106//105 103//104
f 101//100 107//106 102//102
f 107//106 106//105 102//102
f 104//103 107//106 101//100
f 107//106 109//107 106//105
f 105//108 108//109 104//103
f 104//103 111//110 107//106
f 109//107 110//111 105//108
f 111//110 114//112 109//107
f 112//113 111//110 108//109
f 113//114 108//109 110//111
f 109//107 113//114 110//111
f 113//114 115//115 112//113
f 112//113 116//116 114//112
f 116//116 118//117 114//112
f 117//118 115//115 113//114
f 116//116 120//119 119//120
f 115//115 120//119 116//116
f 119//120 124//121 118//117
f 117//118 123//122 115//115
f 121//123 123//122 117//118
f 123//122 125//124 122//125
f 124//121 125//124 123//122
f 120//119 129//126 119//120
f 122//125 126//127 120//119
f 124//121 128//128 125//124
f 127//129 126//127 122//125
f 129//126 130//130 124//121
f 126//127 131//131 129//126
f 131//131 133//132 130//130
f 127//129 132//133 126//127
f 132//133 137//134 131//131
f 127//129 135//135 132//133
f 128//128 136//136 127//129
f 133//132 136//136 128//128
f 138//137 139//138 136//136
f 134//139 140//140 137//134
f 140//140 144//141 137//134
f 135//135 141//142 134//139
f 139//138 141//142 135//135
f 138//137 143//143 139//138
f 137//134 144//141 138//137
f 141//142 145//144 140//140
f 143//143 146//145 142//146
f 144//141 147//147 143//143
f 141//142 149//148 145//144
f 149//148 148//149 144//141
f 146//145 150//150 141//142
f 147//147 146//145 143//143
f 147//147 151//151 146//145
f 151//151 157//152 150//150
f 152//153 153//154 148//149
f 157//152 154//155 149//148
f 147//147 155//156 151//151
f 153//154 155//156 147//147
f 155//156 158//157 157//152
f 153//154 159//158 155//156
f 156//159 160//160 153//154
f 161//161 162//162 156//159
f 160//160 163//163 159//158
f 162//162 164//164 160//160
f 158//157 162//162 161//161
f 162//162 168//165 164//164
f 163//163 169//166 158//157
f 164//164 167//167 163//163
f 168//165 167//167 164//164
f 169//166 165//168 162//162
f 169//166 170//169 165//168
f 166//170 173//171 169//166
f 167//167 171//172 166//170
f 168//165 172//173 167//167
f 170//169 174//174 168//165
f 170//169 176//175 174//174
f 173//171 175//176 170//169
f 171//172 177//177 173//171
f 172//173 178//178 171//172
f 176//175 179//179 172//173
f 178//178 180//180 177//177
f 179//179 180//180 178//178
f 180//180 181//181 177//177
f 179//179 182//182 180//180
f 182//182 181//181 180//180
f 176//175 183//183 179//179
f 175//176 184//184 176//175
f 181//181 184//184 175//176
f 182//182 185//185 181//181
f 183//183 188//186 182//182
f 184//184 189//187 183//183
f 181//181 187//188 184//184
f 185//185 187//188 181//181
f 187//188 190//189 186//190
f 190//189 191//191 189//187
f 188//186 193//192 185//185
f 189//187 192//193 188//186
f 191//191 195//194 189//187
f 193//192 194//195 190//189
f 196//196 194//195 193//192
f 191//191 197//197 195//194
f 190//189 197//197 191//191
f 194//195 197//197 190//189
f 194//195 198//198 197//197
f 196//196 203//199 194//195
f 195//194 199//200 196//196
f 197//197 199//200 195//194
f 198//198 200//201 197//197
f 194//195 201//202 198//198
f 199//200 202//203 196//196
f 202//203 2//1 203//199
f 200//201 3//6 199//200
f 1//3 5//5 200//201
f 2//1 1//3 203//199
f 3//6 2//1 202//203
f 1//3 6//2 5//5
f 7//7 8//9 2//1
f 3//6 9//10 8//9
f 2//1 11//11 6//2
f 6//2 11//11 10//8
f 11//11 13//13 12//12
f 10//8 12//12 9//10
f 8//9 14//15 13//13
f 9//10 15//14 8//9
f 14//15 17//17 13//13
f 15//14 18//18 16//16
f 16//16 18//18 17//17
f 12//12 19//19 18//18
f 13//13 20//21 19//19
f 17//17 21//20 13//13
f 18//18 22//23 17//17
f 17//17 22//23 21//20
f 22//23 25//27 21//20
f 22//23 23//22 25//27
f 20//21 26//31 24//24
f 20//21 27//25 26//31
f 18//18 24//24 23//22
f 21//20 25//27 27//25
f 24//24 26//31 23//22
f 27//25 29//28 26//31
f 25//27 30//29 29//28
f 28//26 31//30 30//29
f 23//22 32//32 31//30
f 32//32 33//33 36//37
f 29//28 34//36 33//33
f 30//29 34//36 29//28
f 30//29 35//34 34//36
f 32//32 36//37 31//30
f 31//30 36//37 35//34
f 35//34 38//38 37//35
f 36//37 42//42 38//38
f 34//36 40//39 39//40
f 37//35 41//41 40//39
f 38//38 42//42 41//41
f 36//37 39//40 42//42
f 40//39 46//48 39//40
f 41//41 45//47 40//39
f 41//41 43//43 45//47
f 42//42 44//46 43//43
f 39//40 44//46 42//42
f 40//39 45//47 46//48
f 39//40 46//48 44//46
f 46//48 47//44 44//46
f 44//46 48//50 43//43
f 44//46 49//45 48//50
f 43//43 50//51 51//49
f 45//47 51//49 47//44
f 52//52 54//53 53//55
f 52//52 53//55 49//45
f 53//55 58//54 49//45
f 49//45 56//56 48//50
f 51//49 55//57 54//53
f 48//50 56//56 55//57
f 54//53 59//59 57//58
f 55//57 60//60 59//59
f 57//58 61//62 62//61
f 58//54 62//61 60//60
f 60//60 68//63 59//59
f 60//60 63//65 68//63
f 59//59 64//64 61//62
f 61//62 66//67 65//66
f 62//61 65//66 63//65
f 65//66 67//68 63//65
f 64//64 72//70 66//67
f 68//63 70//71 72//70
f 67//68 71//72 69//69
f 63//65 74//73 70//71
f 66//67 72//70 71//72
f 71//72 73//75 75//74
f 70//71 74//73 72//70
f 69//69 75//74 74//73
f 74//73 79//81 72//70
f 73//75 76//78 75//74
f 75//74 77//79 74//73
f 75//74 76//78 77//79
f 72//70 78//76 73//75
f 74//73 77//79 79//81
f 73//75 78//76 76//78
f 72//70 79//81 78//76
f 78//76 82//83 80//77
f 77//79 83//84 81//80
f 76//78 84//82 83//84
f 81//80 85//88 88//87
f 83//84 86//85 85//88
f 80//77 87//86 86//85
f 82//83 88//87 87//86
f 85//88 90//90 89//89
f 87//86 92//92 91//91
f 89//89 93//93 88//87
f 90//90 94//96 93//93
f 92//92 95//95 100//94
f 93//93 96//97 95//95
f 90//90 98//98 94//96
f 91//91 100//94 98//98
f 96//97 97//99 95//95
f 94//96 98//98 97//99
f 95//95 99//101 100//94
f 100//94 102//102 98//98
f 98//98 103//104 97//99
f 95//95 104//103 101//100
f 103//104 105//108 104//103
f 103//104 106//105 105//108
f 107//106 111//110 109//107
f 104//103 108//109 111//110
f 106//105 109//107 105//108
f 105//108 110//111 108//109
f 111//110 112//113 114//112
f 113//114 112//113 108//109
f 109//107 114//112 113//114
f 112//113 115//115 116//116
f 114//112 118//117 113//114
f 113//114 118//117 117//118
f 116//116 119//120 118//117
f 118//117 121//123 117//118
f 115//115 122//125 120//119
f 118//117 124//121 121//123
f 115//115 123//122 122//125
f 121//123 124//121 123//122
f 120//119 126//127 129//126
f 125//124 127//129 122//125
f 125//124 128//128 127//129
f 119//120 129//126 124//121
f 124//121 130//130 128//128
f 129//126 131//131 130//130
f 126//127 132//133 131//131
f 130//130 133//132 128//128
f 131//131 137//134 133//132
f 132//133 134//139 137//134
f 132//133 135//135 134//139
f 127//129 136//136 135//135
f 133//132 138//137 136//136
f 133//132 137//134 138//137
f 136//136 139//138 135//135
f 134//139 141//142 140//140
f 139//138 142//146 141//142
f 139//138 143//143 142//146
f 138//137 144//141 143//143
f 140//140 145//144 144//141
f 142//146 146//145 141//142
f 144//141 148//149 147//147
f 145//144 149//148 144//141
f 141//142 150//150 149//148
f 149//148 152//153 148//149
f 146//145 151//151 150//150
f 150//150 157//152 149//148
f 148//149 153//154 147//147
f 149//148 154//155 152//153
f 152//153 154//155 153//154
f 151//151 155//156 157//152
f 154//155 156//159 153//154
f 154//155 157//152 156//159
f 157//152 158//157 161//161
f 155//156 159//158 158//157
f 153//154 160//160 159//158
f 157//152 161//161 156//159
f 156//159 162//162 160//160
f 159//158 163//163 158//157
f 160//160 164//164 163//163
f 162//162 165//168 168//165
f 163//163 166//170 169//166
f 163//163 167//167 166//170
f 158//157 169//166 162//162
f 165//168 170//169 168//165
f 166//170 171//172 173//171
f 167//167 172//173 171//172
f 169//166 173//171 170//169
f 168//165 174//174 172//173
f 170//169 175//176 176//175
f 174//174 176//175 172//173
f 173//171 177//177 175//176
f 171//172 178//178 177//177
f 172//173 179//179 178//178
f 177//177 181//181 175//176
f 179//179 183//183 182//182
f 176//175 184//184 183//183
f 184//184 186//190 189//187
f 184//184 187//188 186//190
f 182//182 188//186 185//185
f 183//183 189//187 188//186
f 186//190 190//189 189//187
f 185//185 193//192 187//188
f 188//186 192//193 193//192
f 187//188 193//192 190//189
f 189//187 195//194 192//193
f 192//193 196//196 193//192
f 192//193 195//194 196//196
f 197//197 200//201 199//200
f 194//195 203//199 201//202
f 196//196 202//203 203//199
f 198//198 201//202 200//201
f 201//202 203//199 200//201
f 203//199 1//3 200//201
f 200//201 4//4 3//6
f 199//200 3//6 202//203
f 200//201 5//5 4//4
