# Blender v2.79 (sub 0) OBJ File: 'world_countrycodes_export2.blend'
# www.blender.org
mtllib VE.mtl
o VE.002_CUCurve.1772
v 0.546403 0.000000 0.586611
v 0.543196 0.000000 0.589763
v 0.541935 0.000000 0.591677
v 0.541533 0.000000 0.595834
v 0.539726 0.000000 0.598412
v 0.539676 0.000000 0.599146
v 0.540228 0.000000 0.599194
v 0.542138 0.000000 0.599374
v 0.542716 0.000000 0.599938
v 0.542914 0.000000 0.600981
v 0.544802 0.000000 0.602538
v 0.545353 0.000000 0.603650
v 0.544978 0.000000 0.607432
v 0.545837 0.000000 0.610421
v 0.547690 0.000000 0.611646
v 0.550869 0.000000 0.611609
v 0.555556 0.000000 0.611051
v 0.557940 0.000000 0.611697
v 0.560363 0.000000 0.614386
v 0.562726 0.000000 0.615613
v 0.565095 0.000000 0.616139
v 0.569291 0.000000 0.615732
v 0.572521 0.000000 0.615774
v 0.573710 0.000000 0.616728
v 0.572524 0.000000 0.619274
v 0.571456 0.000000 0.622973
v 0.571255 0.000000 0.625894
v 0.571635 0.000000 0.627824
v 0.574192 0.000000 0.630602
v 0.574511 0.000000 0.631968
v 0.573435 0.000000 0.633471
v 0.572952 0.000000 0.634969
v 0.573291 0.000000 0.636168
v 0.574454 0.000000 0.637261
v 0.574958 0.000000 0.638299
v 0.574982 0.000000 0.639581
v 0.574147 0.000000 0.640106
v 0.575485 0.000000 0.641614
v 0.577918 0.000000 0.645284
v 0.580528 0.000000 0.647225
v 0.581546 0.000000 0.647260
v 0.583477 0.000000 0.646299
v 0.584447 0.000000 0.646331
v 0.585478 0.000000 0.646821
v 0.586954 0.000000 0.646206
v 0.589636 0.000000 0.644007
v 0.591957 0.000000 0.643587
v 0.592557 0.000000 0.642793
v 0.593486 0.000000 0.640792
v 0.595088 0.000000 0.639778
v 0.596647 0.000000 0.639344
v 0.597408 0.000000 0.638283
v 0.597113 0.000000 0.637443
v 0.596460 0.000000 0.637178
v 0.594408 0.000000 0.637774
v 0.593786 0.000000 0.637384
v 0.593509 0.000000 0.635308
v 0.592197 0.000000 0.633774
v 0.592191 0.000000 0.631563
v 0.591093 0.000000 0.629483
v 0.589635 0.000000 0.628508
v 0.589461 0.000000 0.627994
v 0.590873 0.000000 0.627478
v 0.593186 0.000000 0.627671
v 0.594359 0.000000 0.628440
v 0.597160 0.000000 0.628773
v 0.598399 0.000000 0.629228
v 0.598986 0.000000 0.630590
v 0.600027 0.000000 0.631163
v 0.600736 0.000000 0.630657
v 0.600977 0.000000 0.629080
v 0.601896 0.000000 0.628072
v 0.603644 0.000000 0.627581
v 0.605119 0.000000 0.627718
v 0.605967 0.000000 0.627593
v 0.607780 0.000000 0.626911
v 0.612360 0.000000 0.624525
v 0.613280 0.000000 0.622796
v 0.611369 0.000000 0.620240
v 0.609075 0.000000 0.617605
v 0.610173 0.000000 0.615840
v 0.610132 0.000000 0.613876
v 0.611127 0.000000 0.612825
v 0.613880 0.000000 0.612357
v 0.614783 0.000000 0.611440
v 0.614433 0.000000 0.610127
v 0.613127 0.000000 0.608992
v 0.613630 0.000000 0.607435
v 0.614943 0.000000 0.606098
v 0.616281 0.000000 0.605108
v 0.617798 0.000000 0.602821
v 0.615069 0.000000 0.602141
v 0.609174 0.000000 0.601920
v 0.608774 0.000000 0.601563
v 0.610284 0.000000 0.599280
v 0.611023 0.000000 0.597676
v 0.610650 0.000000 0.596255
v 0.607560 0.000000 0.595008
v 0.602025 0.000000 0.594058
v 0.601077 0.000000 0.593161
v 0.601112 0.000000 0.592279
v 0.601919 0.000000 0.591336
v 0.604139 0.000000 0.590832
v 0.602993 0.000000 0.590022
v 0.599661 0.000000 0.589510
v 0.594729 0.000000 0.590521
v 0.587024 0.000000 0.593711
v 0.585114 0.000000 0.593577
v 0.580658 0.000000 0.591093
v 0.578058 0.000000 0.590121
v 0.574763 0.000000 0.591033
v 0.571359 0.000000 0.591140
v 0.569874 0.000000 0.590376
v 0.569449 0.000000 0.589498
v 0.569526 0.000000 0.588230
v 0.569158 0.000000 0.586862
v 0.568196 0.000000 0.585558
v 0.566852 0.000000 0.584850
v 0.565958 0.000000 0.584684
v 0.564644 0.000000 0.584763
v 0.563118 0.000000 0.584292
v 0.561423 0.000000 0.581865
v 0.559964 0.000000 0.581579
v 0.559156 0.000000 0.582078
v 0.559283 0.000000 0.584123
v 0.558926 0.000000 0.585145
v 0.553115 0.000000 0.587397
v 0.551270 0.000000 0.588890
v 0.550895 0.000000 0.590050
v 0.551375 0.000000 0.591916
v 0.553017 0.000000 0.595867
v 0.552985 0.000000 0.597685
v 0.552153 0.000000 0.598768
v 0.550791 0.000000 0.598946
v 0.548941 0.000000 0.598282
v 0.547006 0.000000 0.596371
v 0.546609 0.000000 0.595070
v 0.547054 0.000000 0.593344
v 0.548976 0.000000 0.590162
v 0.549455 0.000000 0.588832
v 0.548675 0.000000 0.587121
v 0.548493 0.000000 0.584613
v 0.547479 0.000000 0.585167
v 0.557940 0.050000 0.611697
v 0.613880 0.050000 0.612357
v 0.542716 0.050000 0.599938
v 0.542914 0.050000 0.600981
v 0.610650 0.050000 0.596255
v 0.553017 0.050000 0.595867
v 0.539676 0.050000 0.599146
v 0.610284 0.050000 0.599280
v 0.614783 0.050000 0.611440
v 0.602025 0.050000 0.594058
v 0.587024 0.050000 0.593711
v 0.569874 0.050000 0.590376
v 0.550895 0.050000 0.590050
v 0.561423 0.050000 0.581865
v 0.559964 0.050000 0.581579
v 0.608774 0.050000 0.601563
v 0.574454 0.050000 0.637261
v 0.593786 0.050000 0.637384
v 0.583477 0.050000 0.646299
v 0.586954 0.050000 0.646206
v 0.541935 0.050000 0.591677
v 0.546609 0.050000 0.595070
v 0.562726 0.050000 0.615613
v 0.569291 0.050000 0.615732
v 0.565958 0.050000 0.584684
v 0.564644 0.050000 0.584763
v 0.607560 0.050000 0.595008
v 0.601077 0.050000 0.593161
v 0.548976 0.050000 0.590162
v 0.549455 0.050000 0.588832
v 0.544978 0.050000 0.607432
v 0.616281 0.050000 0.605108
v 0.617798 0.050000 0.602821
v 0.542138 0.050000 0.599374
v 0.546403 0.050000 0.586611
v 0.547479 0.050000 0.585167
v 0.571456 0.050000 0.622973
v 0.612360 0.050000 0.624525
v 0.593186 0.050000 0.627671
v 0.594359 0.050000 0.628440
v 0.571635 0.050000 0.627824
v 0.591093 0.050000 0.629483
v 0.604139 0.050000 0.590832
v 0.602993 0.050000 0.590022
v 0.551270 0.050000 0.588890
v 0.574511 0.050000 0.631968
v 0.573435 0.050000 0.633471
v 0.550791 0.050000 0.598946
v 0.548941 0.050000 0.598282
v 0.585114 0.050000 0.593577
v 0.569526 0.050000 0.588230
v 0.553115 0.050000 0.587397
v 0.589635 0.050000 0.628508
v 0.545353 0.050000 0.603650
v 0.594729 0.050000 0.590521
v 0.597408 0.050000 0.638283
v 0.601112 0.050000 0.592279
v 0.613630 0.050000 0.607435
v 0.614943 0.050000 0.606098
v 0.589461 0.050000 0.627994
v 0.547054 0.050000 0.593344
v 0.611127 0.050000 0.612825
v 0.569449 0.050000 0.589498
v 0.552153 0.050000 0.598768
v 0.580658 0.050000 0.591093
v 0.578058 0.050000 0.590121
v 0.572524 0.050000 0.619274
v 0.611369 0.050000 0.620240
v 0.610173 0.050000 0.615840
v 0.610132 0.050000 0.613876
v 0.569158 0.050000 0.586862
v 0.598399 0.050000 0.629228
v 0.600736 0.050000 0.630657
v 0.548493 0.050000 0.584613
v 0.552985 0.050000 0.597685
v 0.603644 0.050000 0.627581
v 0.605119 0.050000 0.627718
v 0.548675 0.050000 0.587121
v 0.563118 0.050000 0.584292
v 0.541533 0.050000 0.595834
v 0.574147 0.050000 0.640106
v 0.595088 0.050000 0.639778
v 0.547690 0.050000 0.611646
v 0.550869 0.050000 0.611609
v 0.540228 0.050000 0.599194
v 0.559283 0.050000 0.584123
v 0.558926 0.050000 0.585145
v 0.593486 0.050000 0.640792
v 0.545837 0.050000 0.610421
v 0.560363 0.050000 0.614386
v 0.598986 0.050000 0.630590
v 0.600027 0.050000 0.631163
v 0.590873 0.050000 0.627478
v 0.600977 0.050000 0.629080
v 0.539726 0.050000 0.598412
v 0.571359 0.050000 0.591140
v 0.613280 0.050000 0.622796
v 0.577918 0.050000 0.645284
v 0.591957 0.050000 0.643587
v 0.592557 0.050000 0.642793
v 0.574982 0.050000 0.639581
v 0.596647 0.050000 0.639344
v 0.601919 0.050000 0.591336
v 0.555556 0.050000 0.611051
v 0.597113 0.050000 0.637443
v 0.596460 0.050000 0.637178
v 0.559156 0.050000 0.582078
v 0.593509 0.050000 0.635308
v 0.573710 0.050000 0.616728
v 0.544802 0.050000 0.602538
v 0.615069 0.050000 0.602141
v 0.574763 0.050000 0.591033
v 0.573291 0.050000 0.636168
v 0.572952 0.050000 0.634969
v 0.611023 0.050000 0.597676
v 0.571255 0.050000 0.625894
v 0.584447 0.050000 0.646331
v 0.572521 0.050000 0.615774
v 0.547006 0.050000 0.596371
v 0.568196 0.050000 0.585558
v 0.601896 0.050000 0.628072
v 0.607780 0.050000 0.626911
v 0.592197 0.050000 0.633774
v 0.566852 0.050000 0.584850
v 0.551375 0.050000 0.591916
v 0.565095 0.050000 0.616139
v 0.605967 0.050000 0.627593
v 0.594408 0.050000 0.637774
v 0.543196 0.050000 0.589763
v 0.575485 0.050000 0.641614
v 0.580528 0.050000 0.647225
v 0.589636 0.050000 0.644007
v 0.613127 0.050000 0.608992
v 0.592191 0.050000 0.631563
v 0.574958 0.050000 0.638299
v 0.614433 0.050000 0.610127
v 0.581546 0.050000 0.647260
v 0.599661 0.050000 0.589510
v 0.585478 0.050000 0.646821
v 0.609174 0.050000 0.601920
v 0.574192 0.050000 0.630602
v 0.609075 0.050000 0.617605
v 0.597160 0.050000 0.628773
vn 0.0000 -1.0000 0.0000
vn 0.0000 1.0000 0.0000
vn 0.0000 1.0000 0.0003
vn 0.0000 1.0000 0.0004
vn 0.0000 1.0000 0.0001
vn 0.0000 1.0000 -0.0001
vn -0.9064 0.0000 -0.4223
vn 0.9885 0.0000 0.1513
vn -0.4797 0.0000 -0.8774
vn 0.1822 0.0000 -0.9833
vn 0.9097 0.0000 -0.4152
vn 0.8010 0.0000 -0.5986
vn 0.6659 0.0000 -0.7461
vn -0.2669 0.0000 -0.9637
vn -0.4608 0.0000 0.8875
vn 0.3502 0.0000 -0.9367
vn -0.0940 0.0000 0.9956
vn 0.1182 0.0000 0.9930
vn 0.9998 0.0000 -0.0213
vn -0.9685 0.0000 0.2489
vn -0.9518 0.0000 -0.3068
vn -0.3441 0.0000 0.9389
vn 0.4659 0.0000 -0.8848
vn -0.5260 0.0000 -0.8505
vn 0.3522 0.0000 0.9359
vn 1.0000 0.0000 -0.0030
vn -0.9812 0.0000 0.1930
vn 0.2212 0.0000 0.9752
vn 0.2683 0.0000 0.9633
vn -0.0925 0.0000 0.9957
vn -0.8189 0.0000 -0.5739
vn -0.7428 0.0000 0.6695
vn -0.6258 0.0000 0.7800
vn -0.9825 0.0000 0.1864
vn 0.7026 0.0000 -0.7116
vn 0.2947 0.0000 -0.9556
vn -0.8997 0.0000 0.4365
vn 0.2419 0.0000 -0.9703
vn 0.8124 0.0000 0.5831
vn 0.9974 0.0000 -0.0723
vn 0.4573 0.0000 -0.8893
vn -0.7357 0.0000 0.6774
vn -0.9954 0.0000 -0.0961
vn 0.5317 0.0000 -0.8469
vn 0.7123 0.0000 0.7019
vn -0.1182 0.0000 0.9930
vn 0.1455 0.0000 0.9894
vn 0.9663 0.0000 -0.2575
vn -0.6294 0.0000 -0.7771
vn 0.8047 0.0000 -0.5937
vn 0.9565 0.0000 -0.2917
vn 0.0116 0.0000 0.9999
vn -0.8351 0.0000 -0.5502
vn -0.5324 0.0000 -0.8465
vn -0.0852 0.0000 0.9964
vn 0.4457 0.0000 0.8952
vn 0.9982 0.0000 0.0608
vn 0.1929 0.0000 -0.9812
vn -0.0344 0.0000 0.9994
vn 0.7389 0.0000 0.6738
vn -0.9441 0.0000 -0.3296
vn 0.8845 0.0000 -0.4666
vn 0.5812 0.0000 0.8137
vn 0.9434 0.0000 -0.3316
vn -0.5515 0.0000 0.8342
vn -0.2616 0.0000 0.9652
vn -0.9998 0.0000 0.0185
vn 0.6560 0.0000 -0.7548
vn 0.0700 0.0000 -0.9975
vn 0.4621 0.0000 0.8868
vn 0.8198 0.0000 -0.5726
vn 0.7602 0.0000 -0.6497
vn -0.0131 0.0000 0.9999
vn -0.0597 0.0000 -0.9982
vn -0.4816 0.0000 0.8764
vn -0.2008 0.0000 -0.9796
vn 0.3741 0.0000 -0.9274
vn -0.6843 0.0000 0.7292
vn -0.0833 0.0000 0.9965
vn 0.6340 0.0000 0.7734
vn 0.6872 0.0000 -0.7265
vn 0.9081 0.0000 0.4187
vn -0.9612 0.0000 0.2760
vn 0.3846 0.0000 0.9231
vn 0.9407 0.0000 0.3393
vn -0.1293 0.0000 -0.9916
vn -0.7009 0.0000 -0.7132
vn -0.6363 0.0000 0.7715
vn 0.9516 0.0000 0.3073
vn 0.8333 0.0000 0.5528
vn -0.9608 0.0000 -0.2773
vn -0.6985 0.0000 0.7156
vn -0.9998 0.0000 -0.0174
vn -0.3613 0.0000 -0.9324
vn 0.9003 0.0000 -0.4353
vn -0.9981 0.0000 0.0616
vn -0.8019 0.0000 -0.5975
vn -0.0315 0.0000 -0.9995
vn 0.8491 0.0000 0.5282
vn -0.2167 0.0000 0.9762
vn 0.8827 0.0000 0.4699
vn -0.5479 0.0000 0.8365
vn 0.5351 0.0000 0.8448
vn 0.9070 0.0000 0.4212
vn 0.7541 0.0000 -0.6567
vn 0.0966 0.0000 0.9953
vn 0.5768 0.0000 -0.8169
vn 0.2707 0.0000 0.9627
vn -0.9515 0.0000 -0.3076
vn 0.5947 0.0000 0.8039
vn 0.0374 0.0000 -0.9993
vn -0.9624 0.0000 0.2717
vn -0.8131 0.0000 -0.5822
vn 0.7599 0.0000 0.6500
vn 0.1692 0.0000 -0.9856
vn -0.8334 0.0000 0.5526
vn 0.3380 0.0000 -0.9411
vn -0.2790 0.0000 -0.9603
vn -0.0332 0.0000 0.9994
vn -0.9184 0.0000 0.3957
vn 0.1519 0.0000 -0.9884
vn -0.9976 0.0000 -0.0687
vn -0.4293 0.0000 0.9032
vn 0.3763 0.0000 -0.9265
vn 0.5556 0.0000 -0.8315
vn 0.3436 0.0000 0.9391
vn -0.3825 0.0000 -0.9239
vn -0.9951 0.0000 -0.0986
vn 0.1676 0.0000 0.9858
vn -0.7482 0.0000 0.6635
vn 0.9475 0.0000 -0.3197
vn -0.9234 0.0000 0.3838
vn 0.7980 0.0000 0.6026
vn -0.8959 0.0000 0.4442
vn 0.9992 0.0000 0.0394
vn 0.9672 0.0000 -0.2538
vn -0.7931 0.0000 -0.6091
vn -0.5967 0.0000 0.8025
vn 0.4870 0.0000 -0.8734
vn 0.7135 0.0000 0.7006
vn 0.8561 0.0000 0.5169
vn 0.7262 0.0000 0.6874
vn 0.8341 0.0000 0.5517
vn -0.9739 0.0000 0.2268
vn 0.9912 0.0000 -0.1324
vn 0.1778 0.0000 0.9841
vn 0.9683 0.0000 0.2498
vn 0.9657 0.0000 -0.2597
usemtl SVGMat.3781
s off
f 124//1 123//1 122//1
f 124//1 122//1 121//1
f 125//1 124//1 121//1
f 126//1 125//1 121//1
f 126//1 121//1 120//1
f 120//1 119//1 118//1
f 126//1 120//1 118//1
f 126//1 118//1 117//1
f 1//1 143//1 142//1
f 1//1 142//1 141//1
f 127//1 126//1 117//1
f 127//1 117//1 116//1
f 127//1 116//1 115//1
f 1//1 141//1 140//1
f 128//1 127//1 115//1
f 2//1 1//1 140//1
f 128//1 115//1 114//1
f 129//1 128//1 114//1
f 2//1 140//1 139//1
f 106//1 105//1 104//1
f 129//1 114//1 113//1
f 3//1 2//1 139//1
f 106//1 104//1 103//1
f 111//1 110//1 109//1
f 129//1 113//1 112//1
f 130//1 129//1 112//1
f 106//1 103//1 102//1
f 112//1 111//1 109//1
f 3//1 139//1 138//1
f 130//1 112//1 109//1
f 130//1 109//1 108//1
f 107//1 106//1 102//1
f 107//1 102//1 101//1
f 107//1 101//1 100//1
f 131//1 130//1 108//1
f 107//1 100//1 99//1
f 131//1 108//1 107//1
f 131//1 107//1 99//1
f 3//1 138//1 137//1
f 131//1 99//1 98//1
f 4//1 3//1 137//1
f 4//1 137//1 136//1
f 131//1 98//1 97//1
f 5//1 4//1 136//1
f 132//1 131//1 97//1
f 132//1 97//1 96//1
f 5//1 136//1 135//1
f 133//1 132//1 96//1
f 133//1 96//1 95//1
f 5//1 135//1 134//1
f 6//1 5//1 134//1
f 134//1 133//1 95//1
f 6//1 134//1 95//1
f 7//1 6//1 95//1
f 8//1 7//1 95//1
f 9//1 8//1 95//1
f 9//1 95//1 94//1
f 10//1 9//1 94//1
f 11//1 10//1 94//1
f 11//1 94//1 93//1
f 11//1 93//1 92//1
f 11//1 92//1 91//1
f 12//1 11//1 91//1
f 12//1 91//1 90//1
f 13//1 12//1 90//1
f 13//1 90//1 89//1
f 13//1 89//1 88//1
f 13//1 88//1 87//1
f 14//1 13//1 87//1
f 14//1 87//1 86//1
f 14//1 86//1 85//1
f 15//1 14//1 17//1
f 17//1 14//1 85//1
f 18//1 17//1 85//1
f 15//1 17//1 16//1
f 18//1 85//1 84//1
f 18//1 84//1 83//1
f 19//1 18//1 83//1
f 19//1 83//1 82//1
f 19//1 82//1 81//1
f 20//1 19//1 81//1
f 23//1 20//1 81//1
f 20//1 23//1 22//1
f 21//1 20//1 22//1
f 24//1 23//1 81//1
f 24//1 81//1 80//1
f 25//1 24//1 80//1
f 25//1 80//1 79//1
f 26//1 25//1 79//1
f 26//1 79//1 78//1
f 26//1 78//1 77//1
f 27//1 26//1 77//1
f 27//1 77//1 76//1
f 28//1 27//1 76//1
f 28//1 76//1 63//1
f 63//1 76//1 75//1
f 63//1 75//1 73//1
f 64//1 63//1 73//1
f 74//1 73//1 75//1
f 28//1 63//1 62//1
f 64//1 73//1 72//1
f 65//1 64//1 72//1
f 28//1 62//1 61//1
f 65//1 72//1 71//1
f 66//1 65//1 71//1
f 28//1 61//1 60//1
f 67//1 66//1 71//1
f 29//1 28//1 60//1
f 67//1 71//1 70//1
f 68//1 67//1 70//1
f 29//1 60//1 59//1
f 68//1 70//1 69//1
f 30//1 29//1 59//1
f 31//1 30//1 59//1
f 31//1 59//1 58//1
f 32//1 31//1 58//1
f 32//1 58//1 57//1
f 33//1 32//1 57//1
f 33//1 57//1 56//1
f 34//1 33//1 56//1
f 55//1 54//1 53//1
f 55//1 53//1 52//1
f 34//1 56//1 55//1
f 34//1 55//1 52//1
f 35//1 34//1 52//1
f 36//1 35//1 52//1
f 36//1 52//1 51//1
f 36//1 51//1 50//1
f 37//1 36//1 50//1
f 37//1 50//1 49//1
f 38//1 37//1 49//1
f 38//1 49//1 48//1
f 38//1 48//1 47//1
f 39//1 38//1 47//1
f 39//1 47//1 46//1
f 39//1 46//1 45//1
f 39//1 45//1 42//1
f 43//1 42//1 45//1
f 40//1 39//1 42//1
f 44//1 43//1 45//1
f 40//1 42//1 41//1
f 250//2 157//2 158//2
f 250//2 222//2 157//2
f 229//2 222//2 250//2
f 230//2 222//2 229//2
f 230//2 169//2 222//2
f 169//2 267//2 168//2
f 230//2 267//2 169//2
f 230//2 263//2 267//2
f 178//2 217//2 179//2
f 178//2 221//2 217//2
f 195//2 263//2 230//2
f 195//2 214//2 263//2
f 195//2 194//2 214//2
f 178//2 173//2 221//2
f 188//2 194//2 195//2
f 272//2 173//2 178//2
f 188//2 206//2 194//2
f 156//2 206//2 188//2
f 272//2 172//2 173//2
f 198//2 187//2 281//2
f 156//2 155//2 206//2
f 164//2 172//2 272//2
f 198//2 186//2 187//2
f 255//2 208//2 209//2
f 156//2 239//2 155//2
f 268//2 239//2 156//2
f 198//2 246//2 186//2
f 239//2 208//2 255//2
f 164//2 204//2 172//2
f 268//2 208//2 239//2
f 268//2 193//2 208//2
f 154//2 246//2 198//2
f 154//2 200//2 246//2
f 154//2 171//2 200//2
f 149//2 193//2 268//2
f 154//2 153//2 171//2
f 149//2 154//2 193//2
f 149//2 153//2 154//2
f 164//2 165//2 204//2
f 149//2 170//2 153//2
f 223//2 165//2 164//2
f 223//2 262//2 165//2
f 149//2 148//2 170//2
f 238//2 262//2 223//2
f 218//2 148//2 149//2
f 218//2 258//2 148//2
f 238//2 192//2 262//2
f 207//2 258//2 218//2
f 207//2 151//2 258//2
f 238//2 191//2 192//2
f 150//2 191//2 238//2
f 191//2 151//2 207//2
f 150//2 151//2 191//2
f 228//2 151//2 150//2
f 177//2 151//2 228//2
f 146//2 151//2 177//2
f 146//2 159//2 151//2
f 147//2 159//2 146//2
f 253//2 159//2 147//2
f 253//2 283//2 159//2
f 253//2 254//2 283//2
f 253//2 176//2 254//2
f 197//2 176//2 253//2
f 197//2 175//2 176//2
f 174//2 175//2 197//2
f 174//2 202//2 175//2
f 174//2 201//2 202//2
f 174//2 276//2 201//2
f 232//2 276//2 174//2
f 232//2 279//2 276//2
f 232//2 152//2 279//2
f 226//2 247//2 232//2
f 247//2 152//2 232//2
f 144//2 152//2 247//2
f 226//2 227//2 247//2
f 144//2 145//2 152//2
f 144//2 205//2 145//2
f 233//2 205//2 144//2
f 233//2 213//2 205//2
f 233//2 212//2 213//2
f 166//2 212//2 233//2
f 261//2 212//2 166//2
f 166//3 167//3 261//3
f 269//2 167//2 166//2
f 252//2 212//2 261//2
f 252//2 285//2 212//2
f 210//2 285//2 252//2
f 210//2 211//2 285//2
f 180//2 211//2 210//2
f 180//2 240//2 211//2
f 180//2 181//2 240//2
f 259//2 181//2 180//2
f 259//2 265//2 181//2
f 184//2 265//2 259//2
f 184//2 236//2 265//2
f 236//2 270//2 265//2
f 236//4 219//4 270//4
f 182//2 219//2 236//2
f 220//2 270//2 219//2
f 184//2 203//2 236//2
f 182//2 264//2 219//2
f 183//2 264//2 182//2
f 184//2 196//2 203//2
f 183//2 237//2 264//2
f 286//5 237//5 183//5
f 184//2 185//2 196//2
f 215//2 237//2 286//2
f 284//2 185//2 184//2
f 215//2 216//2 237//2
f 234//2 216//2 215//2
f 284//2 277//2 185//2
f 234//2 235//2 216//2
f 189//2 277//2 284//2
f 190//2 277//2 189//2
f 190//2 266//2 277//2
f 257//2 266//2 190//2
f 257//2 251//2 266//2
f 256//2 251//2 257//2
f 256//2 161//2 251//2
f 160//2 161//2 256//2
f 271//2 248//2 249//2
f 271//2 199//2 248//2
f 160//2 271//2 161//2
f 160//2 199//2 271//2
f 278//2 199//2 160//2
f 244//2 199//2 278//2
f 244//2 245//2 199//2
f 244//2 225//2 245//2
f 224//2 225//2 244//2
f 224//2 231//2 225//2
f 273//2 231//2 224//2
f 273//2 243//2 231//2
f 273//2 242//2 243//2
f 241//2 242//2 273//2
f 241//2 275//2 242//2
f 241//2 163//2 275//2
f 241//2 162//2 163//2
f 260//6 163//6 162//6
f 274//2 162//2 241//2
f 282//2 163//2 260//2
f 274//2 280//2 162//2
f 24//7 25//7 210//7 252//7
f 70//8 71//8 237//8 216//8
f 142//9 143//9 179//9 217//9
f 118//10 119//10 168//10 267//10
f 140//11 141//11 221//11 173//11
f 78//12 79//12 211//12 240//12
f 93//13 94//13 159//13 283//13
f 110//14 111//14 255//14 209//14
f 19//15 20//15 166//15 233//15
f 109//16 110//16 209//16 208//16
f 7//17 8//17 177//17 228//17
f 16//18 17//18 247//18 227//18
f 81//19 82//19 213//19 212//19
f 129//20 130//20 268//20 156//20
f 31//21 32//21 257//21 190//21
f 66//22 67//22 215//22 286//22
f 117//23 118//23 267//23 263//23
f 123//24 124//24 250//24 158//24
f 75//25 76//25 265//25 270//25
f 58//26 59//26 277//26 266//26
f 27//27 28//27 184//27 259//27
f 102//28 103//28 186//28 246//28
f 50//29 51//29 245//29 225//29
f 73//30 74//30 220//30 219//30
f 4//31 5//31 238//31 223//31
f 18//32 19//32 233//32 144//32
f 23//33 24//33 252//33 261//33
f 9//34 10//34 147//34 146//34
f 135//35 136//35 262//35 192//35
f 120//36 121//36 222//36 169//36
f 34//37 35//37 278//37 160//37
f 91//38 92//38 254//38 176//38
f 51//39 52//39 199//39 245//39
f 141//40 142//40 217//40 221//40
f 112//41 113//41 155//41 239//41
f 28//42 29//42 284//42 184//42
f 3//43 4//43 223//43 164//43
f 55//44 56//44 161//44 271//44
f 84//45 85//45 152//45 145//45
f 65//46 66//46 286//46 183//46
f 74//47 75//47 270//47 220//47
f 85//48 86//48 279//48 152//48
f 127//49 128//49 188//49 195//49
f 116//50 117//50 263//50 214//50
f 136//51 137//51 165//51 262//51
f 15//52 16//52 227//52 226//52
f 2//53 3//53 164//53 272//53
f 36//54 37//54 224//54 244//54
f 6//55 7//55 228//55 150//55
f 41//56 42//56 162//56 280//56
f 114//57 115//57 194//57 206//57
f 122//58 123//58 158//58 157//58
f 40//59 41//59 280//59 274//59
f 71//60 72//60 264//60 237//60
f 125//61 126//61 230//61 229//61
f 59//62 60//62 185//62 277//62
f 69//63 70//63 216//63 235//63
f 52//64 53//64 248//64 199//64
f 14//65 15//65 226//65 232//65
f 17//66 18//66 144//66 247//66
f 35//67 36//67 244//67 278//67
f 86//68 87//68 276//68 279//68
f 107//69 108//69 193//69 154//69
f 76//70 77//70 181//70 265//70
f 121//71 122//71 157//71 222//71
f 57//72 58//72 266//72 251//72
f 22//73 23//73 261//73 167//73
f 119//74 120//74 169//74 168//74
f 68//75 69//75 235//75 234//75
f 105//76 106//76 198//76 281//76
f 97//77 98//77 170//77 148//77
f 33//78 34//78 160//78 256//78
f 63//79 64//79 182//79 236//79
f 45//80 46//80 275//80 163//80
f 99//81 100//81 171//81 153//81
f 95//82 96//82 258//82 151//82
f 13//83 14//83 232//83 174//83
f 44//84 45//84 163//84 282//84
f 139//85 140//85 173//85 172//85
f 133//86 134//86 191//86 207//86
f 1//87 2//87 272//87 178//87
f 10//88 11//88 253//88 147//88
f 87//89 88//89 201//89 276//89
f 90//90 91//90 176//90 175//90
f 25//91 26//91 180//91 210//91
f 8//92 9//92 146//92 177//92
f 131//93 132//93 218//93 149//93
f 126//94 127//94 195//94 230//94
f 113//95 114//95 206//95 155//95
f 124//96 125//96 229//96 250//96
f 143//97 1//97 178//97 179//97
f 111//98 112//98 239//98 255//98
f 80//99 81//99 212//99 285//99
f 20//100 21//100 269//100 166//100
f 77//101 78//101 240//101 181//101
f 64//102 65//102 183//102 182//102
f 49//103 50//103 225//103 231//103
f 48//104 49//104 231//104 243//104
f 79//105 80//105 285//105 211//105
f 21//106 22//106 167//106 269//106
f 103//107 104//107 187//107 186//107
f 72//108 73//108 219//108 264//108
f 128//109 129//109 156//109 188//109
f 89//110 90//110 175//110 202//110
f 92//111 93//111 283//111 254//111
f 32//112 33//112 256//112 257//112
f 30//113 31//113 190//113 189//113
f 101//114 102//114 246//114 200//114
f 98//115 99//115 153//115 170//115
f 38//116 39//116 241//116 273//116
f 134//117 135//117 192//117 191//117
f 54//118 55//118 271//118 249//118
f 42//119 43//119 260//119 162//119
f 67//120 68//120 234//120 215//120
f 104//121 105//121 281//121 187//121
f 26//122 27//122 259//122 180//122
f 43//123 44//123 282//123 260//123
f 53//124 54//124 249//124 248//124
f 60//125 61//125 196//125 185//125
f 62//126 63//126 236//126 203//126
f 5//122 6//122 150//122 238//122
f 106//127 107//127 154//127 198//127
f 12//128 13//128 174//128 197//128
f 83//129 84//129 145//129 205//129
f 37//130 38//130 273//130 224//130
f 61//131 62//131 203//131 196//131
f 130//132 131//132 149//132 268//132
f 47//133 48//133 243//133 242//133
f 11//134 12//134 197//134 253//134
f 100//135 101//135 200//135 171//135
f 96//136 97//136 148//136 258//136
f 132//137 133//137 207//137 218//137
f 39//138 40//138 274//138 241//138
f 108//139 109//139 208//139 193//139
f 88//140 89//140 202//140 201//140
f 138//141 139//141 172//141 204//141
f 82//142 83//142 205//142 213//142
f 94//143 95//143 151//143 159//143
f 29//144 30//144 189//144 284//144
f 56//145 57//145 251//145 161//145
f 46//146 47//146 242//146 275//146
f 137//147 138//147 204//147 165//147
f 115//148 116//148 214//148 194//148
