# Blender v2.79 (sub 0) OBJ File: 'world_countrycodes_outlines2.blend'
# www.blender.org
mtllib VN_outline.mtl
o VN.001_CUCurve.1652
v 1.565283 0.001961 0.527092
v 1.561580 0.000833 0.527838
v 1.563088 0.000892 0.531272
v 1.566692 -0.001311 0.527753
v 1.559157 -0.000843 0.532745
v 1.558237 0.001960 0.531673
v 1.556339 0.000641 0.529599
v 1.556862 -0.001935 0.530818
v 1.555240 0.000992 0.533870
v 1.556530 -0.001987 0.534135
v 1.558861 -0.000769 0.535542
v 1.557727 0.001859 0.535498
v 1.553978 0.001951 0.538171
v 1.551658 0.000763 0.536906
v 1.551571 -0.001998 0.539844
v 1.555015 -0.000802 0.539029
v 1.551123 0.000866 0.544248
v 1.555214 0.000789 0.544283
v 1.554531 0.001970 0.547761
v 1.553535 -0.001018 0.548674
v 1.557971 0.000780 0.548493
v 1.555285 -0.001855 0.546455
v 1.554884 0.000574 0.551560
v 1.566935 0.001015 0.557165
v 1.564333 0.000804 0.560169
v 1.568024 0.001997 0.560608
v 1.569364 -0.001945 0.560314
v 1.565848 -0.001079 0.560608
v 1.568080 -0.000772 0.557352
v 1.572841 0.000823 0.564789
v 1.569563 -0.000836 0.566964
v 1.575343 -0.000704 0.576935
v 1.574380 0.001870 0.580009
v 1.571985 0.001400 0.577641
v 1.573081 -0.001925 0.585626
v 1.571396 -0.000797 0.577699
v 1.573121 0.000051 0.587229
v 1.569633 -0.000063 0.584584
v 1.571193 0.001905 0.587594
v 1.562311 0.000808 0.589850
v 1.562491 -0.001399 0.590309
v 1.561890 0.001950 0.592918
v 1.564065 -0.000905 0.593310
v 1.557995 0.002009 0.592451
v 1.556288 0.000643 0.590235
v 1.557465 -0.002010 0.591361
v 1.558867 -0.000830 0.593931
v 1.554940 0.000959 0.593856
v 1.555177 -0.001412 0.594161
v 1.558370 0.000681 0.596167
v 1.555585 0.002013 0.596047
v 1.555946 -0.001950 0.596519
v 1.556802 0.000971 0.597543
v 1.553326 0.000663 0.595146
v 1.553130 -0.000663 0.595960
v 1.556129 -0.000723 0.598947
v 1.547996 0.001193 0.600334
v 1.549410 0.001387 0.603880
v 1.548259 -0.000903 0.600012
v 1.548449 -0.001824 0.603533
v 1.545645 0.000760 0.603421
v 1.545846 -0.001962 0.601303
v 1.544522 -0.000812 0.598059
v 1.546548 0.001713 0.595394
v 1.546242 -0.000826 0.595592
v 1.549571 0.001861 0.594732
v 1.550209 -0.001471 0.594811
v 1.546767 -0.001967 0.592832
v 1.549001 0.000550 0.592996
v 1.542362 -0.000703 0.592187
v 1.544239 0.001950 0.592296
v 1.548417 0.001943 0.589648
v 1.549313 -0.002124 0.590001
v 1.550451 0.000824 0.591250
v 1.548301 0.000710 0.587435
v 1.548148 -0.001190 0.588274
v 1.554149 0.001704 0.588982
v 1.556438 0.000963 0.591888
v 1.556967 -0.001240 0.591698
v 1.554775 -0.001977 0.589413
v 1.557635 0.000867 0.589567
v 1.555736 -0.000920 0.585867
v 1.553819 -0.002036 0.583801
v 1.552720 0.001967 0.584860
v 1.555182 0.001082 0.586328
v 1.551499 -0.000702 0.584752
v 1.553452 0.000734 0.582698
v 1.558670 0.002021 0.584156
v 1.559129 0.001445 0.586367
v 1.559273 -0.000856 0.586835
v 1.557470 -0.001080 0.583028
v 1.560778 -0.001725 0.583727
v 1.558918 0.000746 0.580356
v 1.562942 0.000692 0.576900
v 1.566263 0.001562 0.578756
v 1.564270 -0.001952 0.577141
v 1.567132 -0.001068 0.577285
v 1.564399 0.000763 0.570051
v 1.563854 -0.001408 0.570042
v 1.561659 -0.001971 0.569620
v 1.560722 0.001669 0.568683
v 1.561308 0.001377 0.561946
v 1.560807 -0.000805 0.562252
v 1.563288 0.001776 0.559810
v 1.564832 -0.000798 0.562779
v 1.562493 -0.001937 0.559809
v 1.558264 0.001949 0.556404
v 1.555958 0.000773 0.557982
v 1.559212 0.000129 0.555654
v 1.558262 -0.001944 0.556268
v 1.556531 -0.001404 0.557961
v 1.547866 0.000876 0.546177
v 1.554247 0.000811 0.549253
v 1.549960 -0.001898 0.543958
v 1.548533 -0.001364 0.546510
v 1.549469 0.002001 0.544906
v 1.550760 0.000821 0.542997
v 1.542326 -0.000804 0.541850
v 1.545396 0.000979 0.539639
v 1.542608 -0.002047 0.539430
v 1.541489 0.001660 0.539819
v 1.542835 0.000812 0.536797
v 1.548918 0.001832 0.537475
v 1.545175 -0.000313 0.536041
v 1.550012 -0.000631 0.537760
v 1.548216 -0.001940 0.537954
v 1.544135 0.001953 0.529629
v 1.543685 0.000833 0.532668
v 1.544513 -0.001938 0.531376
v 1.546734 0.000677 0.529637
v 1.545385 -0.001288 0.528781
v 1.539908 -0.001933 0.532475
v 1.539962 -0.000812 0.529566
v 1.541428 0.000767 0.533587
v 1.539786 0.001266 0.529923
v 1.537260 0.001880 0.531369
v 1.534546 -0.002014 0.526191
v 1.536063 -0.000595 0.531412
v 1.535853 0.001890 0.528521
v 1.535001 0.001212 0.521964
v 1.536809 -0.000867 0.524728
v 1.532628 0.000788 0.525525
v 1.535387 -0.000708 0.522119
v 1.536201 -0.002100 0.519910
v 1.529488 -0.000880 0.521183
v 1.531705 0.002032 0.520958
v 1.534091 -0.000091 0.517678
v 1.537110 0.000966 0.518097
v 1.538418 0.001982 0.520906
v 1.539309 -0.000775 0.521511
v 1.538199 -0.000856 0.517417
v 1.542281 -0.000890 0.518047
v 1.545006 0.001973 0.520185
v 1.541966 0.000509 0.522281
v 1.544592 -0.002094 0.519958
v 1.545260 0.000934 0.517984
v 1.546455 0.001076 0.521617
v 1.547475 -0.000797 0.521372
v 1.550552 0.000994 0.514090
v 1.550641 -0.002005 0.516527
v 1.550452 -0.000834 0.518335
v 1.551674 -0.000873 0.514248
v 1.554258 -0.000735 0.516524
v 1.551195 0.002016 0.516713
v 1.555611 -0.000859 0.521229
v 1.555986 0.000849 0.520890
v 1.559139 -0.001567 0.518215
v 1.558663 0.001915 0.518896
v 1.560138 0.000681 0.521446
v 1.559926 -0.000863 0.522277
v 1.556151 0.001413 0.523661
v 1.557317 -0.001917 0.523766
v 1.563245 -0.001872 0.527765
vn 0.6225 0.7603 -0.1856
vn 0.5090 0.3387 0.7913
vn 0.9087 -0.4174 0.0014
vn -0.4545 -0.8423 -0.2898
vn -0.0244 -0.9997 0.0072
vn -0.6650 0.7191 -0.2015
vn 0.0515 0.9967 0.0629
vn -0.6959 0.2833 -0.6598
vn -0.7325 0.5056 -0.4558
vn 0.8513 -0.3247 0.4120
vn 0.6813 -0.5344 0.5002
vn 0.4759 0.8289 0.2938
vn -0.1848 -0.9769 -0.1074
vn 0.8251 -0.4386 0.3560
vn 0.1201 0.9910 0.0595
vn -0.6056 -0.7880 -0.1109
vn -0.8270 0.2919 -0.4804
vn -0.9109 0.3524 0.2147
vn 0.9272 0.3384 -0.1606
vn -0.2755 0.9510 0.1399
vn -0.7584 -0.4850 0.4353
vn 0.6645 0.4015 -0.6302
vn 0.4156 -0.8709 -0.2621
vn 0.3477 -0.9268 -0.1415
vn 0.6081 0.4458 -0.6568
vn -0.5354 0.3312 0.7769
vn -0.7436 0.1940 0.6399
vn -0.5106 -0.5775 0.6370
vn -0.0244 0.9964 0.0806
vn -0.0616 -0.5249 -0.8489
vn 0.9006 0.2968 -0.3175
vn -0.9076 -0.3586 0.2182
vn 0.9316 -0.3569 -0.0682
vn 0.6109 0.7873 0.0831
vn -0.6704 0.7418 0.0183
vn -0.9872 -0.1546 0.0381
vn 0.4730 -0.8585 0.1983
vn 0.8038 0.0626 0.5916
vn 0.2368 0.9137 0.3301
vn -0.8488 -0.0710 -0.5240
vn 0.1163 0.8564 0.5030
vn -0.3587 0.2715 -0.8931
vn 0.3438 -0.3976 0.8507
vn -0.2083 -0.8738 -0.4394
vn 0.5602 -0.5314 0.6353
vn -0.2837 0.5151 -0.8088
vn 0.0158 0.9994 -0.0299
vn -0.5499 0.2416 -0.7996
vn 0.8237 0.2301 0.5182
vn -0.6340 -0.6908 -0.3476
vn -0.7066 0.5093 -0.4913
vn 0.0213 0.9997 0.0067
vn 0.2598 -0.9495 0.1756
vn 0.7045 0.4424 0.5549
vn -0.6486 0.3248 -0.6883
vn -0.5673 -0.6073 -0.5561
vn 0.7551 -0.3234 0.5703
vn 0.8228 0.3192 -0.4702
vn 0.1930 0.5806 0.7910
vn 0.3139 -0.9287 -0.1974
vn 0.0328 -0.7502 0.6604
vn -0.6646 0.3663 0.6513
vn -0.4577 -0.8643 0.2082
vn -0.4450 0.8747 0.1920
vn -0.9344 -0.2920 -0.2037
vn 0.7999 -0.5870 -0.1249
vn -0.6233 -0.7707 0.1322
vn 0.6696 0.7349 -0.1073
vn 0.0093 -0.9944 0.1050
vn -0.9650 -0.2466 -0.0888
vn -0.5445 0.8284 -0.1313
vn -0.3966 -0.5100 -0.7632
vn 0.9097 0.3653 -0.1975
vn -0.2362 0.9467 -0.2189
vn 0.0536 -0.9937 0.0979
vn 0.1789 0.3793 0.9078
vn -0.5270 0.2557 -0.8104
vn 0.0758 -0.9939 -0.0804
vn -0.0692 0.9946 -0.0768
vn 0.5800 -0.5483 0.6024
vn 0.3594 0.5450 0.7574
vn 0.9082 0.4117 -0.0746
vn -0.5410 0.8350 -0.1001
vn 0.3548 -0.8478 0.3941
vn 0.4172 0.8984 0.1370
vn -0.3477 0.2802 -0.8948
vn -0.9550 -0.2657 -0.1312
vn 0.1803 0.9820 -0.0566
vn 0.4137 -0.4010 0.8173
vn -0.2364 -0.8608 -0.4506
vn -0.7114 0.3057 -0.6328
vn -0.2521 -0.4220 -0.8708
vn 0.5157 -0.7239 0.4582
vn 0.4766 0.6469 0.5952
vn -0.8319 0.5313 -0.1599
vn -0.1667 -0.9849 -0.0460
vn 0.6558 0.6785 0.3310
vn 0.9114 -0.4018 0.0889
vn 0.8224 0.5487 -0.1501
vn 0.6489 -0.7517 -0.1180
vn -0.5400 -0.8362 0.0952
vn -0.7265 0.6764 0.1209
vn -0.8330 -0.4831 0.2696
vn -0.5435 0.8189 0.1842
vn 0.6346 0.6637 -0.3959
vn 0.9359 -0.3233 -0.1399
vn 0.2783 -0.9270 -0.2512
vn 0.4250 -0.8383 -0.3413
vn -0.6866 0.4444 0.5753
vn 0.1562 0.9712 -0.1800
vn 0.7161 0.0218 -0.6976
vn -0.5218 -0.7103 0.4723
vn -0.5250 -0.6956 0.4904
vn -0.6131 0.4895 0.6200
vn 0.7866 0.2802 -0.5502
vn 0.0421 0.9986 -0.0309
vn 0.3927 -0.8451 -0.3627
vn 0.6763 0.2990 -0.6732
vn -0.7801 -0.3171 0.5393
vn -0.8014 0.5979 0.0140
vn -0.4987 -0.8515 -0.1618
vn 0.6064 0.7208 0.3356
vn -0.5844 0.2936 -0.7565
vn -0.8974 -0.2107 -0.3877
vn 0.5369 0.8101 0.2353
vn 0.2925 -0.8506 0.4369
vn 0.9136 -0.2233 0.3398
vn 0.0334 0.8452 -0.5334
vn -0.1243 0.6483 0.7512
vn 0.2820 -0.5025 -0.8173
vn -0.0511 -0.9933 0.1035
vn -0.3686 0.8006 0.4723
vn 0.0739 0.3496 0.9340
vn 0.3600 -0.5835 -0.7279
vn 0.1670 0.6889 -0.7053
vn -0.1086 -0.8331 0.5423
vn -0.4627 0.8589 0.2197
vn -0.7340 -0.2467 0.6327
vn 0.4204 0.8304 0.3656
vn -0.3169 -0.9004 0.2982
vn 0.6993 -0.5555 -0.4498
vn 0.9119 -0.1372 0.3867
vn -0.4794 0.8528 -0.2070
vn -0.7584 0.2593 0.5979
vn -0.9451 -0.2881 -0.1541
vn -0.2324 -0.0790 -0.9694
vn -0.1100 0.5346 -0.8379
vn -0.0022 -0.9830 -0.1837
vn 0.0142 0.9086 0.4174
vn -0.0313 -0.4152 0.9091
vn -0.1510 -0.3298 -0.9319
vn 0.0801 -0.4897 -0.8682
vn -0.3206 0.3786 -0.8682
vn 0.0374 -0.9927 0.1141
vn 0.2325 0.4003 0.8864
vn 0.0384 0.0958 0.9946
vn 0.1834 -0.4127 0.8922
vn 0.3493 -0.4165 0.8394
vn -0.0181 0.9944 0.1045
vn -0.0772 0.4176 -0.9053
vn 0.1866 0.9824 -0.0028
vn 0.2184 -0.4265 -0.8777
vn 0.4187 -0.0672 -0.9056
vn -0.0414 -0.9903 -0.1324
vn -0.6989 -0.5822 0.4154
vn -0.6312 0.7223 0.2825
vn 0.4403 0.7919 -0.4231
vn 0.5761 -0.5656 -0.5900
vn 0.8063 0.5000 -0.3159
vn 0.6253 -0.7208 -0.2989
vn -0.6923 0.5875 0.4188
vn -0.4289 -0.8262 0.3652
vn 0.6975 0.3127 -0.6447
usemtl SVGMat.3781
s 1
f 1//1 3//2 4//3
f 4//3 8//4 173//5
f 2//6 6//7 1//1
f 173//5 7//8 2//6
f 8//4 9//9 7//8
f 6//7 11//10 5//11
f 9//9 12//12 6//7
f 5//11 10//13 8//4
f 12//12 16//14 11//10
f 9//9 13//15 12//12
f 11//10 15//16 10//13
f 10//13 14//17 9//9
f 15//16 17//18 14//17
f 13//15 18//19 16//14
f 17//18 19//20 13//15
f 15//16 20//21 17//18
f 20//21 19//20 17//18
f 19//20 21//22 18//19
f 21//22 27//23 22//24
f 19//20 24//25 21//22
f 20//21 25//26 23//27
f 22//24 28//28 20//21
f 25//26 26//29 19//20
f 24//25 29//30 27//23
f 24//25 30//31 29//30
f 26//29 30//31 24//25
f 28//28 26//29 25//26
f 27//23 31//32 28//28
f 30//31 32//33 27//23
f 26//29 33//34 30//31
f 31//32 34//35 26//29
f 27//23 36//36 31//32
f 34//35 33//34 26//29
f 32//33 35//37 27//23
f 33//34 37//38 32//33
f 34//35 39//39 33//34
f 35//37 38//40 36//36
f 38//40 42//41 39//39
f 35//37 41//42 38//40
f 39//39 43//43 37//38
f 43//43 46//44 35//37
f 42//41 47//45 43//43
f 40//46 44//47 42//41
f 46//44 45//48 40//46
f 44//47 50//49 47//45
f 49//50 48//51 45//48
f 48//51 51//52 44//47
f 47//45 52//53 46//44
f 50//49 52//53 47//45
f 51//52 53//54 50//49
f 49//50 54//55 48//51
f 52//53 55//56 49//50
f 53//54 56//57 52//53
f 55//56 57//58 54//55
f 53//54 58//59 56//57
f 52//53 59//60 55//56
f 58//59 60//61 56//57
f 51//52 58//59 53//54
f 57//58 58//59 51//52
f 61//62 62//63 60//61
f 57//58 64//64 58//59
f 61//62 63//65 62//63
f 63//65 67//66 62//63
f 64//64 65//67 63//65
f 57//58 66//68 64//64
f 59//60 66//68 57//58
f 65//67 68//69 67//66
f 64//64 70//70 65//67
f 71//71 76//72 70//70
f 69//73 72//74 71//71
f 73//75 74//76 69//73
f 72//74 75//77 76//72
f 75//77 80//78 76//72
f 72//74 77//79 75//77
f 73//75 79//80 74//76
f 78//81 77//79 72//74
f 79//80 81//82 78//81
f 81//82 84//83 77//79
f 79//80 82//84 81//82
f 80//78 82//84 79//80
f 82//84 85//85 81//82
f 84//83 87//86 86//87
f 84//83 88//88 87//86
f 85//85 88//88 84//83
f 82//84 90//89 85//85
f 83//90 90//89 82//84
f 88//88 93//91 91//92
f 92//93 88//88 89//94
f 88//88 94//95 93//91
f 94//95 96//96 91//92
f 92//93 95//97 88//88
f 91//92 96//96 92//93
f 97//98 98//99 95//97
f 96//96 99//100 97//98
f 94//95 100//101 96//96
f 101//102 103//103 100//101
f 102//104 103//103 101//102
f 98//99 104//105 101//102
f 99//100 105//106 98//99
f 100//101 105//106 99//100
f 105//106 104//105 98//99
f 103//103 110//107 106//108
f 102//104 108//109 103//103
f 107//110 108//109 102//104
f 106//108 109//111 104//105
f 108//109 115//112 111//113
f 107//110 112//114 108//109
f 109//111 113//115 107//110
f 110//107 113//115 109//111
f 113//115 116//116 107//110
f 115//112 114//117 110//107
f 114//117 117//118 113//115
f 112//114 118//119 115//112
f 116//116 121//120 112//114
f 117//118 121//120 116//116
f 115//112 120//121 114//117
f 121//120 118//119 112//114
f 114//117 119//122 117//118
f 122//123 124//124 120//121
f 119//122 123//125 121//120
f 124//124 126//126 120//121
f 123//125 124//124 122//123
f 120//121 125//127 119//122
f 127//128 128//129 124//124
f 126//126 131//130 125//127
f 128//129 129//131 124//124
f 136//132 134//133 128//129
f 133//134 135//135 127//128
f 132//136 133//134 131//130
f 134//133 132//136 129//131
f 135//135 139//137 136//132
f 136//132 139//137 138//138
f 133//134 140//139 135//135
f 137//140 141//141 133//134
f 139//137 137//140 138//138
f 137//140 143//142 141//141
f 140//139 146//143 139//137
f 142//144 145//145 137//140
f 146//143 147//146 145//145
f 148//147 144//148 147//146
f 146//143 148//147 147//146
f 140//139 149//149 146//143
f 143//142 149//149 140//139
f 144//148 150//150 143//142
f 148//147 151//151 144//148
f 148//147 152//152 151//151
f 149//149 156//153 148//147
f 152//152 155//154 144//148
f 155//154 157//155 154//156
f 155//154 161//157 158//158
f 153//159 159//160 156//153
f 157//155 164//161 153//159
f 158//158 164//161 157//155
f 159//160 162//162 155//154
f 159//160 163//163 162//162
f 160//164 165//165 161//157
f 165//165 166//166 164//161
f 166//166 168//167 164//161
f 163//163 167//168 160//164
f 164//161 167//168 163//163
f 168//167 169//169 167//168
f 169//169 170//170 167//168
f 166//166 171//171 168//167
f 165//165 171//171 166//166
f 171//171 1//1 169//169
f 172//172 2//6 171//171
f 170//170 173//5 172//172
f 1//1 4//3 170//170
f 3//2 5//11 4//3
f 1//1 6//7 3//2
f 4//3 5//11 8//4
f 3//2 6//7 5//11
f 2//6 7//8 6//7
f 173//5 8//4 7//8
f 7//8 9//9 6//7
f 8//4 10//13 9//9
f 6//7 12//12 11//10
f 5//11 11//10 10//13
f 12//12 13//15 16//14
f 9//9 14//17 13//15
f 10//13 15//16 14//17
f 11//10 16//14 15//16
f 14//17 17//18 13//15
f 16//14 18//19 22//24
f 13//15 19//20 18//19
f 16//14 22//24 15//16
f 18//19 21//22 22//24
f 15//16 22//24 20//21
f 20//21 23//27 19//20
f 21//22 24//25 27//23
f 23//27 25//26 19//20
f 20//21 28//28 25//26
f 19//20 26//29 24//25
f 22//24 27//23 28//28
f 29//30 30//31 27//23
f 28//28 31//32 26//29
f 30//31 33//34 32//33
f 27//23 35//37 36//36
f 31//32 36//36 34//35
f 32//33 37//38 35//37
f 36//36 38//40 34//35
f 34//35 38//40 39//39
f 33//34 39//39 37//38
f 38//40 40//46 42//41
f 38//40 41//42 40//46
f 37//38 43//43 35//37
f 39//39 42//41 43//43
f 35//37 46//44 41//42
f 42//41 44//47 47//45
f 40//46 45//48 44//47
f 41//42 46//44 40//46
f 43//43 47//45 46//44
f 45//48 48//51 44//47
f 46//44 49//50 45//48
f 44//47 51//52 50//49
f 46//44 52//53 49//50
f 50//49 53//54 52//53
f 48//51 54//55 51//52
f 49//50 55//56 54//55
f 54//55 57//58 51//52
f 56//57 60//61 52//53
f 55//56 59//60 57//58
f 52//53 60//61 59//60
f 58//59 61//62 60//61
f 58//59 64//64 61//62
f 60//61 62//63 59//60
f 61//62 64//64 63//65
f 62//63 67//66 59//60
f 59//60 67//66 66//68
f 63//65 65//67 67//66
f 67//66 69//73 66//68
f 67//66 68//69 69//73
f 66//68 71//71 64//64
f 66//68 69//73 71//71
f 64//64 71//71 70//70
f 65//67 70//70 68//69
f 70//70 76//72 73//75
f 71//71 72//74 76//72
f 70//70 73//75 68//69
f 68//69 73//75 69//73
f 69//73 74//76 72//74
f 75//77 77//79 80//78
f 74//76 78//81 72//74
f 74//76 79//80 78//81
f 76//72 80//78 73//75
f 73//75 80//78 79//80
f 78//81 81//82 77//79
f 77//79 86//87 80//78
f 80//78 83//90 82//84
f 77//79 84//83 86//87
f 81//82 85//85 84//83
f 80//78 86//87 83//90
f 86//87 87//86 83//90
f 87//86 91//92 83//90
f 87//86 88//88 91//92
f 85//85 89//94 88//88
f 85//85 90//89 89//94
f 83//90 92//93 90//89
f 83//90 91//92 92//93
f 90//89 92//93 89//94
f 93//91 94//95 91//92
f 88//88 95//97 94//95
f 92//93 97//98 95//97
f 92//93 96//96 97//98
f 95//97 101//102 94//95
f 95//97 98//99 101//102
f 97//98 99//100 98//99
f 96//96 100//101 99//100
f 94//95 101//102 100//101
f 101//102 104//105 102//104
f 100//101 106//108 105//106
f 100//101 103//103 106//108
f 105//106 106//108 104//105
f 104//105 107//110 102//104
f 103//103 108//109 111//113
f 104//105 109//111 107//110
f 106//108 110//107 109//111
f 103//103 111//113 110//107
f 108//109 112//114 115//112
f 110//107 114//117 113//115
f 111//113 115//112 110//107
f 107//110 116//116 112//114
f 113//115 117//118 116//116
f 115//112 118//119 120//121
f 117//118 119//122 121//120
f 114//117 120//121 119//122
f 118//119 121//120 120//121
f 121//120 122//123 120//121
f 121//120 123//125 122//123
f 119//122 125//127 123//125
f 120//121 126//126 125//127
f 123//125 127//128 124//124
f 125//127 130//173 123//125
f 125//127 131//130 130//173
f 124//124 129//131 126//126
f 126//126 129//131 131//130
f 123//125 130//173 127//128
f 130//173 131//130 127//128
f 127//128 136//132 128//129
f 129//131 132//136 131//130
f 131//130 133//134 127//128
f 128//129 134//133 129//131
f 127//128 135//135 136//132
f 134//133 138//138 132//136
f 134//133 136//132 138//138
f 132//136 137//140 133//134
f 132//136 138//138 137//140
f 135//135 140//139 139//137
f 133//134 141//141 140//139
f 139//137 142//144 137//140
f 141//141 143//142 140//139
f 139//137 146//143 142//144
f 137//140 144//148 143//142
f 142//144 146//143 145//145
f 137//140 145//145 144//148
f 145//145 147//146 144//148
f 146//143 149//149 148//147
f 143//142 150//150 149//149
f 148//147 156//153 152//152
f 150//150 154//156 149//149
f 151//151 152//152 144//148
f 149//149 153//159 156//153
f 144//148 155//154 150//150
f 149//149 154//156 153//159
f 150//150 155//154 154//156
f 154//156 157//155 153//159
f 152//152 156//153 155//154
f 155//154 158//158 157//155
f 156//153 159//160 155//154
f 153//159 164//161 159//160
f 155//154 160//164 161//157
f 158//158 161//157 164//161
f 155//154 162//162 160//164
f 159//160 164//161 163//163
f 162//162 163//163 160//164
f 161//157 165//165 164//161
f 160//164 167//168 165//165
f 164//161 168//167 167//168
f 168//167 171//171 169//169
f 167//168 172//172 165//165
f 167//168 170//170 172//172
f 165//165 172//172 171//171
f 169//169 1//1 170//170
f 171//171 2//6 1//1
f 172//172 173//5 2//6
f 170//170 4//3 173//5
