# Blender v2.79 (sub 0) OBJ File: 'world_countrycodes_outlines2.blend'
# www.blender.org
mtllib YE_outline.mtl
o YE.001_CUCurve.027
v 1.253175 0.000119 0.538562
v 1.256128 0.000703 0.554411
v 1.257870 -0.001993 0.554970
v 1.259920 0.001938 0.556167
v 1.261505 -0.000991 0.556567
v 1.255621 0.000783 0.558512
v 1.253986 0.001965 0.556106
v 1.254737 -0.001971 0.557615
v 1.252822 -0.000656 0.555508
v 1.253281 0.000792 0.563185
v 1.251218 0.001938 0.561160
v 1.250466 -0.000021 0.560166
v 1.251476 -0.001985 0.560964
v 1.252882 -0.001419 0.562890
v 1.236410 -0.001459 0.564900
v 1.237901 0.001918 0.565049
v 1.238747 -0.000005 0.568090
v 1.234110 0.000074 0.571979
v 1.232763 -0.001630 0.568422
v 1.230293 0.001884 0.570417
v 1.227341 0.001446 0.568720
v 1.226811 -0.000792 0.568290
v 1.228053 -0.001594 0.571579
v 1.224029 -0.000783 0.575185
v 1.223356 0.001963 0.574187
v 1.222543 0.000785 0.571534
v 1.222615 -0.001996 0.572801
v 1.217086 -0.000735 0.576177
v 1.214601 0.001916 0.576065
v 1.215813 0.000262 0.572257
v 1.210393 -0.001908 0.576470
v 1.210641 -0.000073 0.579720
v 1.210524 0.000751 0.575289
v 1.203226 -0.001953 0.576937
v 1.201258 -0.000756 0.579239
v 1.201569 0.001474 0.578581
v 1.199712 -0.000868 0.571259
v 1.202692 0.001946 0.576778
v 1.204556 0.001007 0.575902
v 1.203444 -0.000739 0.570298
v 1.198325 0.001968 0.565972
v 1.199993 -0.001888 0.565492
v 1.200722 0.000835 0.564280
v 1.196836 -0.000667 0.564762
v 1.198921 -0.002017 0.556790
v 1.197464 0.001487 0.556118
v 1.196756 -0.000838 0.555983
v 1.201071 -0.000781 0.557617
v 1.199884 0.002005 0.555913
v 1.202232 -0.001907 0.555380
v 1.203135 0.000765 0.555839
v 1.203357 0.000776 0.552139
v 1.203166 -0.001262 0.551760
v 1.199340 -0.001398 0.554028
v 1.199210 0.001445 0.551491
v 1.203218 -0.001901 0.549021
v 1.203160 0.000935 0.547958
v 1.204885 0.002002 0.549797
v 1.212584 0.000815 0.548733
v 1.212180 0.000844 0.552525
v 1.214000 -0.002169 0.551134
v 1.225492 0.001973 0.553212
v 1.224228 -0.000824 0.550752
v 1.224209 0.001347 0.551283
v 1.222658 0.000777 0.554617
v 1.223652 -0.001961 0.553744
v 1.226691 -0.000758 0.554264
v 1.229169 -0.000822 0.550423
v 1.233191 -0.000412 0.541749
v 1.234663 0.001915 0.542524
v 1.235867 0.000704 0.545206
v 1.235848 -0.001990 0.543894
v 1.250481 0.001911 0.541395
v 1.250881 0.000834 0.544096
v 1.251394 -0.001894 0.543019
v 1.245689 -0.000833 0.541007
v 1.258127 -0.000670 0.580902
v 1.259287 0.001940 0.580707
v 1.261003 0.001902 0.579614
v 1.259202 -0.001908 0.578684
v 1.258623 0.000625 0.577623
v 1.262583 -0.000049 0.580210
v 1.265772 0.001484 0.577242
v 1.266111 -0.000890 0.576868
v 1.265421 -0.001977 0.579781
v 1.268278 -0.000836 0.579429
v 1.265839 0.002174 0.579760
v 1.263833 -0.000921 0.579018
v 1.262083 0.000802 0.583377
v 1.262916 0.001417 0.579696
v 1.261916 -0.001129 0.579419
v 1.262541 -0.001923 0.582282
vn 0.4168 -0.0054 -0.9090
vn -0.0041 -0.9949 -0.1003
vn -0.0320 -0.9935 0.1087
vn -0.5419 0.4010 0.7386
vn 0.5384 0.8067 0.2435
vn -0.0490 0.9585 -0.2807
vn -0.6930 0.5719 -0.4389
vn 0.5450 0.4578 0.7024
vn 0.8872 -0.3150 0.3371
vn -0.3202 0.8736 -0.3663
vn 0.1191 -0.9817 0.1488
vn -0.6521 -0.2825 -0.7035
vn 0.4862 -0.6433 0.5914
vn 0.5958 0.4186 0.6854
vn -0.1111 0.9884 -0.1037
vn -0.1843 -0.9720 -0.1454
vn -0.6248 0.0272 -0.7803
vn -0.1900 0.8919 -0.4104
vn -0.3674 -0.6874 -0.6265
vn 0.4637 -0.0976 0.8806
vn 0.4148 -0.0185 0.9097
vn 0.1314 0.9797 0.1514
vn -0.1687 -0.9008 -0.4000
vn -0.1319 0.6850 -0.7165
vn 0.2740 -0.8464 0.4566
vn 0.1050 0.8933 0.4369
vn 0.3184 -0.3350 0.8867
vn -0.2776 -0.4335 -0.8573
vn -0.4107 0.4436 -0.7965
vn 0.2608 -0.3572 0.8968
vn -0.1165 -0.9684 -0.2203
vn -0.2859 0.1414 -0.9478
vn 0.1461 0.9588 0.2436
vn -0.0879 -0.9696 -0.2282
vn 0.2041 -0.0441 0.9779
vn -0.2326 0.2332 -0.9442
vn 0.3884 0.3883 -0.8357
vn -0.1525 0.9878 -0.0317
vn -0.5253 0.6748 0.5183
vn 0.0580 -0.9978 0.0315
vn -0.8907 -0.3614 0.2758
vn -0.5889 -0.3576 0.7248
vn 0.9046 -0.3174 -0.2846
vn 0.2714 -0.9596 -0.0739
vn -0.4292 0.8883 0.1636
vn -0.9279 -0.3250 0.1826
vn -0.1212 -0.9925 -0.0176
vn -0.6180 0.6653 -0.4187
vn -0.8664 -0.3189 -0.3842
vn 0.8469 -0.3412 0.4079
vn 0.8840 0.4599 -0.0844
vn 0.0404 0.9955 -0.0852
vn -0.6005 -0.6790 -0.4222
vn 0.5350 -0.8246 0.1838
vn 0.8185 0.3854 0.4260
vn 0.4081 0.6752 0.6145
vn -0.7757 0.5010 -0.3838
vn -0.2569 -0.8040 -0.5362
vn -0.0183 0.9976 -0.0669
vn 0.2947 -0.8442 0.4477
vn -0.0952 0.2586 0.9612
vn 0.1371 0.2453 -0.9597
vn -0.2911 0.3167 -0.9027
vn -0.0199 -0.9982 0.0570
vn 0.2463 0.8685 0.4300
vn -0.3006 -0.5390 -0.7868
vn -0.1693 0.7797 -0.6028
vn -0.1040 0.2976 0.9490
vn -0.0266 -0.8739 0.4853
vn 0.5681 -0.2613 0.7804
vn 0.6200 -0.3194 0.7166
vn -0.4372 -0.2441 -0.8656
vn -0.1145 0.8823 -0.4565
vn 0.3863 0.4240 0.8191
vn 0.0850 -0.9858 0.1447
vn -0.0765 -0.4427 -0.8934
vn -0.5223 0.8157 0.2486
vn -0.6563 0.2799 -0.7006
vn -0.8708 -0.2661 0.4133
vn -0.0398 0.9977 -0.0549
vn 0.3643 -0.4151 -0.8336
vn -0.4508 -0.8171 -0.3593
vn 0.3307 0.6381 -0.6953
vn 0.1970 -0.9784 0.0623
vn -0.1460 -0.9429 0.2992
vn -0.1051 -0.1540 0.9825
vn 0.4669 0.8582 0.2132
vn 0.9639 -0.2371 0.1211
vn 0.4606 -0.2436 -0.8535
vn -0.0059 0.3058 0.9521
vn -0.0703 0.4111 -0.9088
vn 0.0653 -0.8164 0.5737
usemtl SVGMat.3781
s 1
f 1//1 3//2 75//3
f 74//4 4//5 73//6
f 75//3 2//7 74//4
f 4//5 6//8 5//9
f 2//7 7//10 4//5
f 5//9 8//11 3//2
f 6//8 8//11 5//9
f 3//2 9//12 2//7
f 8//11 9//12 3//2
f 6//8 14//13 8//11
f 7//10 10//14 6//8
f 9//12 11//15 7//10
f 8//11 13//16 9//12
f 12//17 16//18 11//15
f 13//16 15//19 12//17
f 14//13 15//19 13//16
f 11//15 17//20 10//14
f 16//18 18//21 17//20
f 15//19 20//22 16//18
f 17//20 19//23 15//19
f 19//23 21//24 20//22
f 20//22 23//25 18//21
f 21//24 25//26 20//22
f 20//22 24//27 23//25
f 22//28 26//29 21//24
f 25//26 28//30 24//27
f 27//31 30//32 26//29
f 30//32 29//33 25//26
f 28//30 31//34 27//31
f 29//33 32//35 28//30
f 31//34 33//36 30//32
f 31//34 39//37 33//36
f 39//37 38//38 33//36
f 29//33 36//39 32//35
f 32//35 34//40 31//34
f 36//39 37//41 35//42
f 34//40 40//43 39//37
f 35//42 42//44 34//40
f 42//44 40//43 34//40
f 39//37 41//45 38//38
f 41//45 44//46 37//41
f 44//46 45//47 42//44
f 46//48 47//49 44//46
f 42//44 48//50 43//51
f 45//47 48//50 42//44
f 43//51 49//52 41//45
f 48//50 49//52 43//51
f 46//48 54//53 47//49
f 54//53 50//54 45//47
f 48//50 51//55 49//52
f 50//54 51//55 48//50
f 50//54 52//56 51//55
f 52//56 55//57 49//52
f 55//57 56//58 54//53
f 52//56 58//59 55//57
f 53//60 60//61 52//56
f 58//59 59//62 57//63
f 59//62 61//64 56//58
f 60//61 62//65 58//59
f 59//62 63//66 61//64
f 62//65 64//67 59//62
f 61//64 65//68 60//61
f 66//69 67//70 65//68
f 66//69 68//71 67//70
f 64//67 69//72 63//66
f 62//65 70//73 64//67
f 68//71 71//74 62//65
f 66//69 72//75 68//71
f 69//72 72//75 66//69
f 72//75 71//74 68//71
f 73//6 76//76 69//72
f 74//4 73//6 70//73
f 75//3 74//4 71//74
f 76//76 75//3 72//75
f 73//6 1//1 76//76
f 78//77 81//78 77//79
f 79//80 81//78 78//77
f 81//78 84//81 80//82
f 79//80 83//83 81//78
f 83//83 84//81 81//78
f 80//82 85//84 91//85
f 82//86 87//87 79//80
f 84//81 85//84 80//82
f 83//83 86//88 84//81
f 85//84 88//89 82//86
f 87//87 89//90 86//88
f 88//89 90//91 87//87
f 90//91 78//77 87//87
f 92//92 91//85 88//89
f 91//85 79//80 90//91
f 89//90 77//79 92//92
f 77//79 80//82 92//92
f 73//6 4//5 1//1
f 74//4 2//7 4//5
f 75//3 3//2 2//7
f 1//1 4//5 5//9
f 1//1 5//9 3//2
f 4//5 7//10 6//8
f 2//7 9//12 7//10
f 6//8 10//14 14//13
f 7//10 11//15 10//14
f 9//12 12//17 11//15
f 9//12 13//16 12//17
f 8//11 14//13 13//16
f 10//14 17//20 14//13
f 12//17 15//19 16//18
f 11//15 16//18 17//20
f 14//13 17//20 15//19
f 16//18 20//22 18//21
f 15//19 19//23 20//22
f 17//20 18//21 19//23
f 19//23 22//28 21//24
f 18//21 23//25 19//23
f 19//23 23//25 22//28
f 23//25 27//31 22//28
f 20//22 25//26 24//27
f 21//24 26//29 25//26
f 22//28 27//31 26//29
f 23//25 24//27 27//31
f 25//26 29//33 28//30
f 24//27 28//30 27//31
f 26//29 30//32 25//26
f 27//31 31//34 30//32
f 28//30 32//35 31//34
f 30//32 33//36 29//33
f 33//36 38//38 29//33
f 31//34 34//40 39//37
f 32//35 36//39 35//42
f 29//33 38//38 36//39
f 32//35 35//42 34//40
f 36//39 38//38 37//41
f 35//42 37//41 42//44
f 38//38 41//45 37//41
f 40//43 43//51 39//37
f 40//43 42//44 43//51
f 39//37 43//51 41//45
f 37//41 44//46 42//44
f 41//45 46//48 44//46
f 44//46 47//49 45//47
f 41//45 49//52 46//48
f 46//48 49//52 54//53
f 47//49 54//53 45//47
f 45//47 50//54 48//50
f 49//52 55//57 54//53
f 51//55 52//56 49//52
f 50//54 53//60 52//56
f 50//54 54//53 53//60
f 54//53 56//58 53//60
f 55//57 57//63 56//58
f 55//57 58//59 57//63
f 57//63 59//62 56//58
f 56//58 61//64 53//60
f 52//56 60//61 58//59
f 53//60 61//64 60//61
f 58//59 62//65 59//62
f 59//62 64//67 63//66
f 60//61 65//68 62//65
f 61//64 66//69 65//68
f 61//64 63//66 66//69
f 65//68 67//70 62//65
f 67//70 68//71 62//65
f 64//67 70//73 69//72
f 63//66 69//72 66//69
f 62//65 71//74 70//73
f 70//73 73//6 69//72
f 71//74 74//4 70//73
f 72//75 75//3 71//74
f 69//72 76//76 72//75
f 76//76 1//1 75//3
f 77//79 81//78 80//82
f 91//85 82//86 79//80
f 91//85 85//84 82//86
f 79//80 87//87 83//83
f 83//83 87//87 86//88
f 82//86 88//89 87//87
f 84//81 86//88 85//84
f 86//88 89//90 92//92
f 86//88 92//92 85//84
f 88//89 91//85 90//91
f 87//87 78//77 89//90
f 85//84 92//92 88//89
f 90//91 79//80 78//77
f 89//90 78//77 77//79
f 92//92 80//82 91//85
