# Blender v2.79 (sub 0) OBJ File: 'world_countrycodes_outlines2.blend'
# www.blender.org
mtllib ZA_outline.mtl
o ZA.001_CUCurve.1705
v 1.142163 -0.000766 0.817038
v 1.141523 0.001438 0.816563
v 1.140100 -0.002005 0.815975
v 1.138209 -0.000779 0.815823
v 1.138485 0.001896 0.816452
v 1.135564 -0.000765 0.823870
v 1.132189 -0.000758 0.821857
v 1.120881 0.000025 0.843388
v 1.118700 0.001940 0.843917
v 1.120825 -0.001931 0.841807
v 1.118053 0.001084 0.840847
v 1.117457 -0.000792 0.841102
v 1.107023 -0.001897 0.849690
v 1.107770 0.000637 0.852532
v 1.106633 0.000784 0.848728
v 1.108047 -0.001436 0.851822
v 1.103064 -0.000745 0.852763
v 1.102608 0.001846 0.851896
v 1.100783 0.000794 0.849239
v 1.100645 -0.001445 0.849958
v 1.100213 0.001982 0.852396
v 1.101500 0.001502 0.854537
v 1.100407 -0.001936 0.852253
v 1.101867 -0.000772 0.855027
v 1.098122 -0.001062 0.855078
v 1.097281 0.001902 0.854422
v 1.099334 0.001026 0.851325
v 1.097557 -0.000698 0.850987
v 1.094373 -0.001986 0.853498
v 1.094442 0.000020 0.852218
v 1.093495 0.000853 0.856084
v 1.089676 -0.001381 0.854762
v 1.085240 0.000693 0.855027
v 1.094309 0.001780 0.853103
v 1.084371 0.001443 0.851775
v 1.084092 -0.000802 0.851229
v 1.080579 -0.000692 0.857563
v 1.079423 0.002006 0.856596
v 1.079022 0.000701 0.853923
v 1.081459 -0.002016 0.854908
v 1.073741 -0.000812 0.858218
v 1.073457 0.001887 0.857207
v 1.072313 0.000807 0.854505
v 1.073621 -0.001942 0.855432
v 1.069730 0.001062 0.860789
v 1.069199 0.001975 0.858082
v 1.069541 -0.000796 0.856695
v 1.070170 -0.001865 0.859765
v 1.067380 -0.000693 0.860206
v 1.063365 0.001954 0.855414
v 1.061321 -0.002022 0.853933
v 1.063626 -0.000844 0.856949
v 1.063769 0.001332 0.853066
v 1.065294 -0.000896 0.853538
v 1.063362 -0.000895 0.852498
v 1.060109 0.000809 0.854615
v 1.061421 -0.000903 0.846252
v 1.056813 -0.000608 0.844738
v 1.058113 0.001891 0.844862
v 1.061137 0.000801 0.846249
v 1.058559 -0.001920 0.844574
v 1.059693 -0.000657 0.842715
v 1.060336 0.001370 0.842873
v 1.062432 0.002032 0.842792
v 1.062799 0.000789 0.845596
v 1.062615 -0.001952 0.843822
v 1.063278 -0.000656 0.840721
v 1.052476 0.000771 0.826793
v 1.058159 0.000740 0.830471
v 1.053458 -0.001363 0.827909
v 1.054033 0.000918 0.820844
v 1.053043 -0.001923 0.820160
v 1.046617 0.000001 0.816339
v 1.051565 -0.000916 0.817298
v 1.051878 0.001962 0.818808
v 1.055236 -0.000733 0.818289
v 1.055051 0.001318 0.817665
v 1.053970 0.000517 0.813960
v 1.055172 -0.001923 0.815090
v 1.056324 0.001860 0.814973
v 1.057875 -0.000522 0.815184
v 1.059272 -0.000936 0.818710
v 1.058287 0.002016 0.820040
v 1.056794 0.000639 0.822106
v 1.057587 -0.001893 0.821225
v 1.065835 0.001960 0.820102
v 1.066614 0.000741 0.822843
v 1.066339 -0.001899 0.821824
v 1.065377 -0.000842 0.819039
v 1.068381 0.000840 0.816843
v 1.071930 -0.000785 0.818734
v 1.070735 0.001899 0.818590
v 1.069526 -0.001955 0.817235
v 1.068285 0.000742 0.793309
v 1.069560 -0.001950 0.795148
v 1.071725 -0.000881 0.798835
v 1.071542 0.001880 0.797525
v 1.074613 0.000710 0.796097
v 1.073469 -0.001928 0.796514
v 1.074196 0.001912 0.803835
v 1.072630 -0.000737 0.803659
v 1.077195 0.000086 0.805008
v 1.074219 -0.001955 0.806707
v 1.075450 0.000862 0.806438
v 1.072294 0.001921 0.807625
v 1.072133 -0.000749 0.809290
v 1.078919 0.000692 0.806496
v 1.080040 -0.000830 0.810338
v 1.079815 0.001887 0.809350
v 1.079221 -0.002007 0.807793
v 1.083778 0.000671 0.800720
v 1.084695 0.001916 0.802237
v 1.087060 0.000643 0.803916
v 1.085017 -0.001945 0.801863
v 1.087594 0.001940 0.798792
v 1.088207 -0.001009 0.800874
v 1.087718 -0.001937 0.798768
v 1.085613 -0.001474 0.797644
v 1.087185 0.000968 0.796364
v 1.088887 -0.000976 0.796512
v 1.093338 0.000721 0.799022
v 1.092950 -0.001400 0.799488
v 1.092357 -0.001933 0.801716
v 1.093586 0.001414 0.802765
v 1.099447 -0.000810 0.798897
v 1.099840 0.001404 0.799336
v 1.101476 -0.001917 0.801260
v 1.101645 0.001970 0.800648
v 1.102247 0.000570 0.802107
v 1.100943 0.000745 0.793181
v 1.103890 -0.000741 0.796359
v 1.102996 0.001964 0.795365
v 1.101563 -0.001857 0.794131
v 1.106207 -0.000082 0.791538
v 1.107244 0.001923 0.792190
v 1.109367 0.000746 0.794048
v 1.109209 -0.001476 0.793321
v 1.107574 -0.001959 0.791795
v 1.110987 -0.000883 0.788997
v 1.108681 -0.001970 0.787489
v 1.108715 0.000695 0.785654
v 1.110399 0.001873 0.787984
v 1.112674 -0.000787 0.784419
v 1.113159 0.001374 0.784675
v 1.114357 -0.000846 0.787957
v 1.115010 0.001441 0.786857
v 1.117159 0.001991 0.783455
v 1.117442 -0.000652 0.784421
v 1.117662 -0.002014 0.781566
v 1.114895 -0.000840 0.781091
v 1.116500 0.001272 0.780853
v 1.120587 -0.000742 0.783045
v 1.120726 0.001920 0.779993
v 1.121733 -0.002015 0.778670
v 1.121075 -0.000795 0.775195
v 1.121430 0.001327 0.777007
v 1.120550 -0.001082 0.780983
v 1.126999 0.000812 0.777805
v 1.125487 0.000057 0.781697
v 1.126587 -0.001412 0.778173
v 1.126178 -0.001926 0.780762
v 1.126014 0.001927 0.780640
v 1.134302 -0.000765 0.779294
v 1.133579 0.001736 0.779986
v 1.131578 0.000794 0.782616
v 1.132214 -0.001988 0.781461
v 1.137105 -0.001958 0.791372
v 1.138624 0.000824 0.791641
v 1.137092 0.002023 0.792831
v 1.135073 0.000725 0.793433
v 1.135610 -0.001418 0.793170
v 1.139424 -0.000744 0.799655
v 1.135430 0.000023 0.799518
v 1.136228 -0.001936 0.801451
v 1.137493 0.001998 0.804001
v 1.135869 0.001643 0.800623
v 1.137996 -0.000686 0.806236
v 1.133927 -0.000769 0.803404
v 1.133759 0.001399 0.802758
v 1.132955 -0.001855 0.800453
v 1.131466 0.000761 0.800153
v 1.129089 0.001940 0.805192
v 1.130583 -0.001963 0.805451
v 1.132040 0.000757 0.805687
v 1.128003 -0.000967 0.805017
v 1.129945 0.000724 0.810643
v 1.134422 -0.000800 0.809155
v 1.134125 0.000776 0.809133
v 1.132903 0.001988 0.811437
v 1.132505 -0.001701 0.812301
v 1.137545 0.001997 0.809602
v 1.136866 0.000951 0.812336
v 1.137676 -0.001913 0.809950
v 1.137356 -0.000764 0.806576
v 1.142225 0.001975 0.807123
v 1.140879 -0.001913 0.809255
v 1.139199 0.000605 0.810329
v 1.143942 -0.000696 0.806573
v 1.120065 -0.000990 0.823298
v 1.124377 0.000856 0.823019
v 1.123214 -0.001885 0.822919
v 1.115482 0.001975 0.817654
v 1.116891 0.000731 0.820432
v 1.118655 0.000755 0.816542
v 1.117838 -0.001989 0.817445
v 1.116705 -0.001060 0.820071
v 1.112485 -0.000696 0.818444
v 1.111602 0.001354 0.826244
v 1.107183 0.000949 0.826234
v 1.109109 -0.002205 0.826216
v 1.114024 -0.000817 0.829278
v 1.114130 0.001368 0.829928
v 1.115362 0.001986 0.832330
v 1.111461 0.000003 0.833076
v 1.115887 -0.001601 0.832870
v 1.118540 -0.001980 0.827732
v 1.115393 -0.000932 0.826412
v 1.116388 0.001866 0.826913
v 1.117815 0.000827 0.829663
v 1.118542 0.000014 0.825827
v 1.119154 0.001963 0.827111
v 1.120847 0.001457 0.829003
v 1.121248 -0.000819 0.829385
v 1.121654 0.001967 0.823491
vn 0.8532 -0.3211 0.4109
vn 0.0484 -0.9985 0.0245
vn 0.0416 -0.9985 -0.0338
vn -0.8049 -0.4107 -0.4282
vn -0.3664 0.6277 0.6868
vn -0.4130 0.8842 -0.2180
vn 0.3539 0.7999 -0.4846
vn 0.6487 0.7060 0.2842
vn 0.7184 -0.4232 0.5520
vn -0.7363 -0.3088 -0.6020
vn 0.7006 0.0068 0.7136
vn -0.5533 -0.5194 -0.6511
vn 0.2840 -0.9222 0.2623
vn -0.1362 -0.9173 -0.3742
vn 0.2906 -0.6854 0.6676
vn 0.2850 0.8969 0.3380
vn 0.3058 0.3776 0.8740
vn -0.5365 0.6589 -0.5272
vn 0.2011 0.9651 0.1674
vn -0.4543 0.0379 -0.8900
vn 0.3952 -0.3082 0.8654
vn -0.3961 0.3744 -0.8384
vn -0.0785 -0.9948 -0.0652
vn -0.0418 0.9858 -0.1622
vn -0.4935 -0.6298 -0.5997
vn -0.3856 0.4861 -0.7842
vn 0.3992 0.6332 0.6630
vn 0.4943 -0.3769 0.7833
vn 0.1058 -0.5039 0.8572
vn 0.0621 0.8314 0.5522
vn -0.1230 -0.2545 -0.9592
vn -0.0874 0.9263 -0.3665
vn -0.0385 -0.9855 -0.1654
vn -0.1415 -0.0122 -0.9898
vn -0.0265 0.3659 0.9303
vn -0.0046 -0.5854 0.8107
vn 0.1718 -0.1036 0.9796
vn -0.1187 0.7024 -0.7018
vn -0.0088 -0.9999 -0.0114
vn 0.0535 0.9082 0.4150
vn 0.2857 -0.3084 0.9073
vn -0.1911 -0.4156 -0.8892
vn -0.2766 0.3295 -0.9027
vn 0.3909 -0.4058 0.8261
vn -0.3001 0.3401 -0.8912
vn 0.1609 0.9461 0.2808
vn -0.0893 -0.8874 -0.4521
vn 0.0670 0.4348 0.8980
vn -0.0191 0.9933 -0.1141
vn 0.1432 -0.8216 0.5518
vn -0.6008 -0.1515 0.7849
vn -0.4798 -0.2096 0.8519
vn -0.2221 0.9092 0.3521
vn -0.3576 -0.9022 0.2410
vn -0.0469 -0.5622 -0.8257
vn 0.5772 0.6612 -0.4791
vn 0.5046 -0.4583 -0.7317
vn 0.6300 -0.6113 -0.4788
vn -0.7701 0.3055 0.5600
vn 0.7028 -0.6732 0.2297
vn -0.9448 -0.1778 -0.2752
vn -0.5327 0.8156 -0.2258
vn 0.5856 0.7875 0.1922
vn -0.8146 -0.5075 -0.2810
vn -0.3182 -0.9153 -0.2469
vn 0.5106 0.8598 0.0046
vn 0.7377 0.3640 0.5686
vn 0.5525 -0.8189 0.1552
vn 0.9081 -0.2805 -0.3108
vn -0.5768 0.7692 -0.2748
vn -0.7821 0.4879 0.3875
vn 0.9031 0.1893 -0.3854
vn -0.1759 0.9698 -0.1686
vn -0.6437 -0.7081 0.2900
vn 0.2239 -0.9731 0.0529
vn 0.8992 0.4331 -0.0613
vn -0.8167 -0.0031 -0.5770
vn -0.0721 -0.7458 0.6623
vn 0.0519 0.9348 0.3513
vn -0.3713 0.1803 -0.9108
vn -0.4344 -0.5733 -0.6946
vn 0.2983 0.7761 -0.5555
vn -0.0197 -0.8439 -0.5361
vn 0.7411 -0.1998 -0.6409
vn 0.4970 -0.5168 -0.6970
vn 0.0526 0.9986 -0.0089
vn -0.5299 0.2618 0.8066
vn -0.2699 -0.8344 0.4804
vn -0.1218 0.9711 -0.2051
vn -0.3147 -0.4758 -0.8213
vn 0.2376 0.3264 0.9149
vn 0.1149 -0.8461 0.5205
vn -0.7407 0.5029 -0.4453
vn 0.8667 -0.3189 0.3836
vn 0.0160 0.9966 -0.0801
vn 0.4924 0.8362 0.2413
vn -0.1222 -0.9836 -0.1325
vn 0.0501 -0.9669 0.2502
vn -0.5446 0.2445 -0.8022
vn -0.3102 -0.8479 -0.4300
vn 0.3806 -0.8423 -0.3816
vn 0.7243 0.3377 -0.6011
vn -0.1021 0.9936 -0.0474
vn -0.9706 -0.2396 -0.0198
vn 0.9769 0.0281 0.2119
vn 0.4652 0.8422 -0.2725
vn -0.6191 0.7565 0.2107
vn -0.0647 -0.9979 0.0054
vn -0.6865 -0.3031 0.6608
vn 0.1400 0.8344 0.5331
vn 0.2695 -0.3526 0.8961
vn -0.3594 0.4648 -0.8091
vn -0.0396 -0.9939 -0.1029
vn 0.2477 -0.5553 0.7939
vn -0.7992 0.2633 -0.5403
vn -0.1794 -0.9834 -0.0262
vn -0.0867 0.9930 -0.0800
vn -0.5813 -0.5652 -0.5853
vn 0.7841 0.2651 0.5611
vn -0.0160 0.9978 -0.0642
vn 0.0262 -0.9952 -0.0938
vn -0.2309 0.4758 -0.8487
vn 0.2081 -0.4483 -0.8693
vn 0.2057 0.5864 -0.7835
vn 0.1992 -0.7849 -0.5867
vn -0.0801 0.6091 0.7890
vn -0.0596 -0.8255 0.5612
vn -0.5173 -0.6232 -0.5866
vn -0.3328 0.8505 -0.4072
vn 0.3151 -0.8216 0.4751
vn 0.6077 0.1643 0.7770
vn -0.6812 0.3201 -0.6584
vn 0.3166 0.9180 0.2389
vn 0.0721 0.9879 0.1369
vn 0.6795 -0.4793 0.5554
vn -0.1050 0.9878 -0.1151
vn 0.6688 0.3712 0.6441
vn -0.4121 -0.8301 -0.3756
vn 0.5694 -0.6850 0.4544
vn -0.6425 -0.0186 -0.7660
vn -0.1505 -0.9799 -0.1304
vn 0.6291 -0.5073 0.5888
vn -0.4215 -0.8586 -0.2916
vn -0.6333 0.3008 -0.7130
vn -0.5481 -0.1388 -0.8248
vn 0.1378 0.9803 0.1415
vn -0.4036 0.7012 -0.5876
vn 0.4488 -0.4009 0.7987
vn 0.4767 0.6137 0.6294
vn 0.2585 0.9244 0.2805
vn -0.1201 -0.9782 -0.1693
vn 0.6249 -0.3377 0.7038
vn -0.5068 0.5858 -0.6324
vn -0.5647 -0.2991 -0.7692
vn 0.7537 -0.2771 0.5959
vn 0.0764 0.9753 0.2069
vn 0.4511 -0.6855 0.5714
vn 0.0739 0.6898 -0.7201
vn 0.1598 -0.2083 -0.9649
vn 0.1247 -0.7008 -0.7024
vn 0.0681 -0.9630 -0.2605
vn 0.1227 0.4723 -0.8728
vn -0.1214 0.0386 0.9918
vn -0.0682 0.9478 0.3113
vn 0.0038 -0.8982 0.4396
vn 0.6225 -0.3393 -0.7052
vn 0.3951 0.8055 -0.4416
vn -0.5353 0.5367 0.6522
vn -0.1087 -0.9918 0.0668
vn 0.4240 -0.9008 -0.0935
vn 0.0836 0.9965 0.0054
vn -0.9107 0.3856 0.1482
vn -0.7153 -0.6920 0.0969
vn 0.9443 0.2578 -0.2045
vn 0.9512 -0.3024 0.0613
vn -0.8459 -0.0827 -0.5267
vn 0.0169 -0.9992 0.0345
vn 0.2819 0.8334 0.4753
vn -0.1525 0.9599 -0.2350
vn 0.3303 -0.2215 0.9175
vn 0.2112 -0.6075 0.7657
vn -0.1821 -0.8206 -0.5417
vn -0.5042 0.3471 -0.7907
vn -0.5463 0.8336 -0.0819
vn 0.0640 -0.9977 0.0197
vn 0.2234 0.7920 0.5682
vn 0.8329 0.5499 0.0620
vn 0.0403 -0.8000 -0.5987
vn 0.1561 0.7261 -0.6696
vn -0.9208 -0.3700 -0.1232
vn -0.7715 0.2466 0.5864
vn -0.2304 -0.6372 0.7355
vn -0.1491 0.8488 0.5072
vn 0.1160 -0.9449 0.3062
vn 0.3663 0.2759 0.8886
vn 0.0689 0.9975 0.0165
vn -0.3191 -0.2910 -0.9019
vn 0.7727 -0.2602 -0.5790
vn 0.9311 0.3389 -0.1347
vn -0.2050 0.7981 -0.5665
vn -0.0172 0.9995 0.0250
vn -0.7832 -0.6129 0.1046
vn 0.1149 -0.8068 -0.5795
vn 0.5862 -0.7973 -0.1437
vn -0.1234 0.5497 0.8262
vn 0.3442 0.3040 -0.8883
vn -0.6294 -0.2737 -0.7273
vn 0.5770 0.8162 -0.0289
vn 0.1793 -0.7356 0.6533
vn -0.9326 0.3609 -0.0005
vn -0.3800 -0.9250 0.0042
vn 0.0936 -0.7526 -0.6518
vn 0.2556 0.7662 0.5896
vn -0.5381 -0.0036 0.8429
vn -0.0342 -0.9969 0.0700
vn 0.3681 -0.5980 0.7119
vn 0.2482 0.7610 -0.5993
vn -0.5600 -0.4144 -0.7173
vn 0.5264 0.5315 0.6636
vn -0.2857 0.8115 -0.5097
vn -0.5420 0.0918 -0.8353
vn -0.1000 0.9856 -0.1364
vn 0.4815 -0.4121 0.7735
vn 0.4038 0.6795 0.6126
usemtl SVGMat.3781
s 1
f 1//1 3//2 196//3
f 196//3 4//4 197//5
f 197//5 5//6 195//7
f 4//4 5//6 197//5
f 3//2 4//4 196//3
f 2//8 6//9 1//1
f 3//2 7//10 4//4
f 2//8 8//11 6//9
f 3//2 12//12 7//10
f 10//13 13//14 12//12
f 8//11 16//15 10//13
f 9//16 14//17 8//11
f 11//18 18//19 9//16
f 12//12 15//20 11//18
f 13//14 15//20 12//12
f 18//19 14//17 9//16
f 16//15 13//14 10//13
f 14//17 17//21 16//15
f 13//14 19//22 15//20
f 16//15 23//23 13//14
f 19//22 21//24 18//19
f 20//25 27//26 19//22
f 21//24 22//27 18//19
f 22//27 24//28 17//21
f 22//27 25//29 24//28
f 21//24 26//30 22//27
f 23//23 28//31 27//26
f 28//31 34//32 27//26
f 23//23 29//33 28//31
f 34//32 26//30 21//24
f 29//33 30//34 28//31
f 25//29 29//33 23//23
f 26//30 31//35 25//29
f 31//35 32//36 25//29
f 34//32 33//37 31//35
f 30//34 35//38 34//32
f 32//36 40//39 29//33
f 33//37 40//39 32//36
f 35//38 38//40 34//32
f 33//37 37//41 40//39
f 36//42 39//43 35//38
f 38//40 41//44 37//41
f 40//39 43//45 39//43
f 43//45 42//46 38//40
f 41//44 44//47 40//39
f 42//46 45//48 41//44
f 43//45 46//49 42//46
f 41//44 48//50 44//47
f 45//48 52//51 49//52
f 46//49 50//53 45//48
f 49//52 51//54 48//50
f 47//55 53//56 46//49
f 51//54 54//57 47//55
f 51//54 55//58 54//57
f 50//53 56//59 52//51
f 51//54 57//60 55//58
f 56//59 58//61 51//54
f 50//53 59//62 56//59
f 53//56 59//62 50//53
f 57//60 60//63 53//56
f 58//61 62//64 61//65
f 59//62 62//64 58//61
f 60//63 64//66 59//62
f 57//60 65//67 60//63
f 66//68 67//69 65//67
f 63//70 68//71 62//64
f 64//66 68//71 63//70
f 67//69 69//72 64//66
f 66//68 69//72 67//69
f 69//72 75//73 64//66
f 70//74 72//75 66//68
f 72//75 71//76 69//72
f 68//71 73//77 70//74
f 75//73 73//77 68//71
f 72//75 76//78 71//76
f 76//78 77//79 71//76
f 75//73 78//80 74//81
f 77//79 80//82 75//73
f 74//81 79//83 72//75
f 78//80 79//83 74//81
f 78//80 81//84 79//83
f 80//82 81//84 78//80
f 80//82 82//85 81//84
f 77//79 83//86 80//82
f 76//78 84//87 77//79
f 79//83 85//88 76//78
f 82//85 85//88 79//83
f 86//89 89//90 82//85
f 87//91 86//89 83//86
f 88//92 87//91 84//87
f 89//90 88//92 85//88
f 86//89 90//93 89//90
f 88//92 91//94 87//91
f 91//94 97//95 92//96
f 93//97 96//98 91//94
f 92//96 94//99 90//93
f 94//99 95//100 93//97
f 94//99 99//101 95//100
f 97//95 98//102 94//99
f 96//98 100//103 97//95
f 99//101 101//104 96//98
f 98//102 102//105 99//101
f 100//103 102//105 98//102
f 100//103 104//106 102//105
f 101//104 105//107 100//103
f 103//108 106//109 101//104
f 106//109 109//110 105//107
f 103//108 108//111 106//109
f 107//112 110//113 103//108
f 109//110 107//112 104//106
f 110//113 116//114 108//111
f 111//115 114//116 110//113
f 109//110 112//117 107//112
f 111//115 118//118 114//116
f 113//119 115//120 112//117
f 114//116 117//121 116//114
f 116//114 115//120 113//119
f 115//120 119//122 111//115
f 118//118 117//121 114//116
f 119//122 120//123 118//118
f 119//122 121//124 120//123
f 115//120 121//124 119//122
f 121//124 122//125 120//123
f 116//114 124//126 115//120
f 122//125 123//127 117//121
f 123//127 124//126 116//114
f 121//124 125//128 122//125
f 124//126 126//129 121//124
f 125//128 127//130 123//127
f 127//130 129//131 124//126
f 126//129 130//132 125//128
f 128//133 130//132 126//129
f 129//131 132//134 128//133
f 127//130 131//135 129//131
f 132//134 135//136 130//132
f 131//135 136//137 132//134
f 133//138 137//139 131//135
f 134//140 138//141 133//138
f 137//139 139//142 136//137
f 138//141 139//142 137//139
f 134//140 140//143 138//141
f 135//136 141//144 134//140
f 141//144 143//145 140//143
f 142//146 144//147 141//144
f 140//143 145//148 139//142
f 145//148 146//149 142//146
f 146//149 147//150 142//146
f 143//145 149//151 140//143
f 149//151 148//152 145//148
f 148//152 147//150 146//149
f 147//150 151//153 144//147
f 151//153 150//154 143//145
f 149//151 152//155 148//152
f 152//155 153//156 147//150
f 149//151 157//157 152//155
f 147//150 156//158 151//153
f 151//153 155//159 149//151
f 156//158 155//159 151//153
f 156//158 160//160 154//161
f 153//156 158//162 156//158
f 159//163 162//164 153//156
f 154//161 161//165 157//157
f 160//160 161//165 154//161
f 158//162 163//166 160//160
f 162//164 164//167 158//162
f 159//163 165//168 162//164
f 161//165 165//168 159//163
f 165//168 164//167 162//164
f 163//166 166//169 161//165
f 163//166 167//170 166//169
f 165//168 169//171 164//167
f 166//169 170//172 165//168
f 167//170 171//173 166//169
f 168//174 172//175 167//170
f 171//173 173//176 170//172
f 167//170 174//177 171//173
f 172//175 174//177 167//170
f 169//171 175//178 168//174
f 170//172 175//178 169//171
f 173//176 176//179 170//172
f 175//178 177//180 172//175
f 175//178 178//181 177//180
f 178//181 180//182 174//177
f 173//176 181//183 176//179
f 180//182 181//183 173//176
f 181//183 182//184 176//179
f 178//181 183//185 180//182
f 179//186 184//187 178//181
f 182//184 184//187 179//186
f 184//187 187//188 183//185
f 182//184 188//189 184//187
f 185//190 186//191 182//184
f 183//185 190//192 185//190
f 186//191 189//193 182//184
f 187//188 190//192 183//185
f 187//188 193//194 190//192
f 190//192 192//195 189//193
f 193//194 197//5 192//195
f 197//5 191//196 192//195
f 188//189 194//197 187//188
f 191//196 195//7 188//189
f 197//5 195//7 191//196
f 194//197 196//3 193//194
f 195//7 198//198 194//197
f 195//7 1//1 198//198
f 200//199 202//200 224//201
f 199//202 205//203 201//204
f 224//201 203//205 199//202
f 202//200 203//205 224//201
f 201//204 204//206 200//199
f 205//203 207//207 204//206
f 203//205 208//208 206//209
f 207//207 209//210 202//200
f 205//203 210//211 207//207
f 208//208 210//211 206//209
f 202//200 208//208 203//205
f 209//210 208//208 202//200
f 206//209 210//211 205//203
f 210//211 209//210 207//207
f 208//208 211//212 210//211
f 209//210 213//213 208//208
f 210//211 214//214 209//210
f 211//212 216//215 215//216
f 212//217 217//218 211//212
f 216//215 219//219 215//216
f 218//220 220//221 217//218
f 220//221 216//215 217//218
f 219//219 221//222 218//220
f 216//215 223//223 219//219
f 220//221 199//202 216//215
f 221//222 199//202 220//221
f 223//223 200//199 222//224
f 216//215 201//204 223//223
f 200//199 224//201 221//222
f 199//202 201//204 216//215
f 195//7 5//6 2//8
f 1//1 6//9 3//2
f 4//4 7//10 5//6
f 6//9 8//11 10//13
f 5//6 9//16 2//8
f 7//10 11//18 5//6
f 7//10 12//12 11//18
f 6//9 10//13 3//2
f 2//8 9//16 8//11
f 3//2 10//13 12//12
f 5//6 11//18 9//16
f 8//11 14//17 16//15
f 11//18 15//20 18//19
f 14//17 18//19 17//21
f 15//20 19//22 18//19
f 13//14 20//25 19//22
f 13//14 23//23 20//25
f 16//15 17//21 23//23
f 19//22 27//26 21//24
f 18//19 22//27 17//21
f 17//21 24//28 23//23
f 20//25 23//23 27//26
f 24//28 25//29 23//23
f 22//27 26//30 25//29
f 27//26 34//32 21//24
f 28//31 30//34 34//32
f 25//29 32//36 29//33
f 31//35 33//37 32//36
f 26//30 34//32 31//35
f 29//33 36//42 30//34
f 30//34 36//42 35//38
f 29//33 40//39 36//42
f 34//32 38//40 33//37
f 33//37 38//40 37//41
f 35//38 39//43 38//40
f 36//42 40//39 39//43
f 38//40 42//46 41//44
f 39//43 43//45 38//40
f 40//39 44//47 43//45
f 37//41 41//44 40//39
f 44//47 47//55 43//45
f 41//44 45//48 48//50
f 42//46 46//49 45//48
f 43//45 47//55 46//49
f 44//47 48//50 47//55
f 45//48 49//52 48//50
f 45//48 50//53 52//51
f 48//50 51//54 47//55
f 49//52 52//51 51//54
f 46//49 53//56 50//53
f 47//55 54//57 53//56
f 54//57 55//58 53//56
f 52//51 56//59 51//54
f 55//58 57//60 53//56
f 56//59 59//62 58//61
f 53//56 60//63 59//62
f 51//54 61//65 57//60
f 51//54 58//61 61//65
f 59//62 63//70 62//64
f 59//62 64//66 63//70
f 61//65 66//68 57//60
f 61//65 62//64 66//68
f 60//63 65//67 64//66
f 57//60 66//68 65//67
f 65//67 67//69 64//66
f 62//64 68//71 70//74
f 62//64 70//74 66//68
f 64//66 75//73 68//71
f 69//72 71//76 75//73
f 66//68 72//75 69//72
f 70//74 73//77 72//75
f 73//77 75//73 74//81
f 73//77 74//81 72//75
f 71//76 77//79 75//73
f 75//73 80//82 78//80
f 72//75 79//83 76//78
f 81//84 82//85 79//83
f 80//82 83//86 82//85
f 77//79 84//87 83//86
f 76//78 85//88 84//87
f 83//86 86//89 82//85
f 84//87 87//91 83//86
f 85//88 88//92 84//87
f 82//85 89//90 85//88
f 89//90 90//93 93//97
f 87//91 92//96 86//89
f 87//91 91//94 92//96
f 89//90 93//97 88//92
f 86//89 92//96 90//93
f 88//92 93//97 91//94
f 90//93 94//99 93//97
f 93//97 95//100 96//98
f 91//94 96//98 97//95
f 92//96 97//95 94//99
f 94//99 98//102 99//101
f 95//100 99//101 96//98
f 97//95 100//103 98//102
f 96//98 101//104 100//103
f 99//101 103//108 101//104
f 99//101 102//105 103//108
f 102//105 104//106 103//108
f 100//103 105//107 104//106
f 101//104 106//109 105//107
f 104//106 107//112 103//108
f 106//109 108//111 109//110
f 105//107 109//110 104//106
f 103//108 110//113 108//111
f 107//112 111//115 110//113
f 108//111 113//119 109//110
f 108//111 116//114 113//119
f 107//112 112//117 111//115
f 109//110 113//119 112//117
f 110//113 114//116 116//114
f 112//117 115//120 111//115
f 111//115 119//122 118//118
f 118//118 120//123 117//121
f 120//123 122//125 117//121
f 117//121 123//127 116//114
f 115//120 124//126 121//124
f 121//124 126//129 125//128
f 123//127 127//130 124//126
f 122//125 125//128 123//127
f 124//126 128//133 126//129
f 124//126 129//131 128//133
f 125//128 130//132 133//138
f 129//131 131//135 132//134
f 125//128 133//138 127//130
f 128//133 132//134 130//132
f 127//130 133//138 131//135
f 130//132 134//140 133//138
f 130//132 135//136 134//140
f 132//134 136//137 135//136
f 131//135 137//139 136//137
f 133//138 138//141 137//139
f 136//137 142//146 135//136
f 136//137 139//142 142//146
f 138//141 140//143 139//142
f 134//140 141//144 140//143
f 135//136 142//146 141//144
f 141//144 144//147 143//145
f 139//142 145//148 142//146
f 142//146 147//150 144//147
f 145//148 148//152 146//149
f 140//143 149//151 145//148
f 144//147 151//153 143//145
f 143//145 150//154 149//151
f 150//154 151//153 149//151
f 148//152 152//155 147//150
f 147//150 153//156 156//158
f 149//151 154//161 157//157
f 149//151 155//159 154//161
f 155//159 156//158 154//161
f 152//155 157//157 153//156
f 156//158 158//162 160//160
f 157//157 159//163 153//156
f 157//157 161//165 159//163
f 153//156 162//164 158//162
f 158//162 164//167 163//166
f 161//165 166//169 165//168
f 160//160 163//166 161//165
f 164//167 168//174 163//166
f 163//166 168//174 167//170
f 164//167 169//171 168//174
f 165//168 170//172 169//171
f 166//169 171//173 170//172
f 171//173 174//177 173//176
f 168//174 175//178 172//175
f 170//172 176//179 175//178
f 172//175 177//180 174//177
f 175//178 179//186 178//181
f 177//180 178//181 174//177
f 175//178 176//179 179//186
f 174//177 180//182 173//176
f 176//179 182//184 179//186
f 180//182 185//190 181//183
f 180//182 183//185 185//190
f 178//181 184//187 183//185
f 181//183 185//190 182//184
f 185//190 190//192 186//191
f 184//187 188//189 187//188
f 182//184 189//193 188//189
f 186//191 190//192 189//193
f 189//193 191//196 188//189
f 189//193 192//195 191//196
f 190//192 193//194 192//195
f 188//189 195//7 194//197
f 187//188 194//197 193//194
f 193//194 196//3 197//5
f 194//197 198//198 196//3
f 195//7 2//8 1//1
f 198//198 1//1 196//3
f 199//202 203//205 206//209
f 200//199 204//206 202//200
f 201//204 205//203 204//206
f 199//202 206//209 205//203
f 204//206 207//207 202//200
f 208//208 212//217 211//212
f 208//208 213//213 212//217
f 209//210 214//214 213//213
f 210//211 215//216 214//214
f 210//211 211//212 215//216
f 214//214 215//216 213//213
f 213//213 218//220 212//217
f 211//212 217//218 216//215
f 212//217 218//220 217//218
f 215//216 219//219 213//213
f 213//213 219//219 218//220
f 218//220 221//222 220//221
f 219//219 222//224 221//222
f 219//219 223//223 222//224
f 221//222 224//201 199//202
f 222//224 200//199 221//222
f 223//223 201//204 200//199
