# Blender v2.79 (sub 0) OBJ File: 'world_countrycodes_export2.blend'
# www.blender.org
mtllib ZM.mtl
o ZM.002_CUCurve.1877
v 1.131465 0.000000 0.700302
v 1.129186 0.000000 0.699276
v 1.127441 0.000000 0.697975
v 1.126659 0.000000 0.698526
v 1.123911 0.000000 0.698987
v 1.120325 0.000000 0.698999
v 1.119676 0.000000 0.699477
v 1.119588 0.000000 0.702098
v 1.118540 0.000000 0.703263
v 1.117869 0.000000 0.704342
v 1.117887 0.000000 0.705385
v 1.118660 0.000000 0.706069
v 1.118710 0.000000 0.707929
v 1.117981 0.000000 0.712938
v 1.116671 0.000000 0.716536
v 1.116829 0.000000 0.717261
v 1.118685 0.000000 0.720181
v 1.119851 0.000000 0.721521
v 1.121175 0.000000 0.722036
v 1.122559 0.000000 0.721657
v 1.124193 0.000000 0.720631
v 1.124692 0.000000 0.720745
v 1.125087 0.000000 0.721976
v 1.125120 0.000000 0.725393
v 1.124694 0.000000 0.726504
v 1.124152 0.000000 0.727179
v 1.122660 0.000000 0.727559
v 1.120885 0.000000 0.727583
v 1.119904 0.000000 0.727003
v 1.118271 0.000000 0.724360
v 1.117682 0.000000 0.721906
v 1.115660 0.000000 0.721448
v 1.113363 0.000000 0.721381
v 1.112560 0.000000 0.721008
v 1.111449 0.000000 0.719707
v 1.110287 0.000000 0.717751
v 1.109258 0.000000 0.717999
v 1.108597 0.000000 0.718775
v 1.108458 0.000000 0.719412
v 1.107818 0.000000 0.719774
v 1.105788 0.000000 0.719868
v 1.103361 0.000000 0.718855
v 1.101732 0.000000 0.718272
v 1.100709 0.000000 0.718469
v 1.099793 0.000000 0.717439
v 1.099427 0.000000 0.716103
v 1.099480 0.000000 0.715271
v 1.098917 0.000000 0.715011
v 1.097207 0.000000 0.715316
v 1.095659 0.000000 0.715911
v 1.094961 0.000000 0.715618
v 1.094410 0.000000 0.714433
v 1.093611 0.000000 0.713534
v 1.092956 0.000000 0.713093
v 1.091743 0.000000 0.724383
v 1.090303 0.000000 0.725822
v 1.081836 0.000000 0.725540
v 1.081244 0.000000 0.744417
v 1.087698 0.000000 0.753234
v 1.093540 0.000000 0.752350
v 1.097700 0.000000 0.752346
v 1.098115 0.000000 0.753128
v 1.098532 0.000000 0.754092
v 1.100056 0.000000 0.753736
v 1.101492 0.000000 0.753642
v 1.106642 0.000000 0.754956
v 1.108692 0.000000 0.754829
v 1.112177 0.000000 0.750395
v 1.113713 0.000000 0.748840
v 1.115448 0.000000 0.748050
v 1.117670 0.000000 0.746719
v 1.119560 0.000000 0.744901
v 1.119731 0.000000 0.743391
v 1.120845 0.000000 0.742264
v 1.122844 0.000000 0.741595
v 1.123277 0.000000 0.741582
v 1.127724 0.000000 0.741454
v 1.126494 0.000000 0.741489
v 1.126277 0.000000 0.741496
v 1.128037 0.000000 0.741454
v 1.126880 0.000000 0.737277
v 1.137171 0.000000 0.733437
v 1.142592 0.000000 0.731604
v 1.141460 0.000000 0.729330
v 1.141740 0.000000 0.728895
v 1.142286 0.000000 0.725765
v 1.142484 0.000000 0.723303
v 1.142957 0.000000 0.722877
v 1.145061 0.000000 0.722557
v 1.144425 0.000000 0.721512
v 1.144004 0.000000 0.719318
v 1.144080 0.000000 0.714939
v 1.144510 0.000000 0.712654
v 1.145110 0.000000 0.712056
v 1.146215 0.000000 0.712090
v 1.146516 0.000000 0.711856
v 1.145843 0.000000 0.709197
v 1.143917 0.000000 0.705431
v 1.139193 0.000000 0.703086
v 1.135946 0.000000 0.702119
v 1.132558 0.000000 0.700478
v 1.117887 0.050000 0.705385
v 1.118660 0.050000 0.706069
v 1.146215 0.050000 0.712090
v 1.146516 0.050000 0.711856
v 1.126659 0.050000 0.698526
v 1.123911 0.050000 0.698987
v 1.129186 0.050000 0.699276
v 1.118271 0.050000 0.724360
v 1.090303 0.050000 0.725822
v 1.097207 0.050000 0.715316
v 1.095659 0.050000 0.715911
v 1.098115 0.050000 0.753128
v 1.100056 0.050000 0.753736
v 1.081244 0.050000 0.744417
v 1.141740 0.050000 0.728895
v 1.125087 0.050000 0.721976
v 1.142286 0.050000 0.725765
v 1.144425 0.050000 0.721512
v 1.142957 0.050000 0.722877
v 1.101492 0.050000 0.753642
v 1.112177 0.050000 0.750395
v 1.087698 0.050000 0.753234
v 1.093540 0.050000 0.752350
v 1.103361 0.050000 0.718855
v 1.091743 0.050000 0.724383
v 1.110287 0.050000 0.717751
v 1.109258 0.050000 0.717999
v 1.145110 0.050000 0.712056
v 1.081836 0.050000 0.725540
v 1.106642 0.050000 0.754956
v 1.142484 0.050000 0.723303
v 1.120885 0.050000 0.727583
v 1.117670 0.050000 0.746719
v 1.119560 0.050000 0.744901
v 1.117981 0.050000 0.712938
v 1.144080 0.050000 0.714939
v 1.119676 0.050000 0.699477
v 1.119588 0.050000 0.702098
v 1.094961 0.050000 0.715618
v 1.094410 0.050000 0.714433
v 1.120845 0.050000 0.742264
v 1.122844 0.050000 0.741595
v 1.124694 0.050000 0.726504
v 1.124152 0.050000 0.727179
v 1.144004 0.050000 0.719318
v 1.119904 0.050000 0.727003
v 1.100709 0.050000 0.718469
v 1.099793 0.050000 0.717439
v 1.139193 0.050000 0.703086
v 1.135946 0.050000 0.702119
v 1.142592 0.050000 0.731604
v 1.108597 0.050000 0.718775
v 1.097700 0.050000 0.752346
v 1.123277 0.050000 0.741582
v 1.105788 0.050000 0.719868
v 1.099480 0.050000 0.715271
v 1.098917 0.050000 0.715011
v 1.117682 0.050000 0.721906
v 1.115660 0.050000 0.721448
v 1.093611 0.050000 0.713534
v 1.111449 0.050000 0.719707
v 1.128037 0.050000 0.741454
v 1.126880 0.050000 0.737277
v 1.118540 0.050000 0.703263
v 1.119731 0.050000 0.743391
v 1.115448 0.050000 0.748050
v 1.118710 0.050000 0.707929
v 1.098532 0.050000 0.754092
v 1.132558 0.050000 0.700478
v 1.125120 0.050000 0.725393
v 1.127724 0.050000 0.741454
v 1.144510 0.050000 0.712654
v 1.145843 0.050000 0.709197
v 1.143917 0.050000 0.705431
v 1.120325 0.050000 0.698999
v 1.119851 0.050000 0.721521
v 1.121175 0.050000 0.722036
v 1.124692 0.050000 0.720745
v 1.107818 0.050000 0.719774
v 1.092956 0.050000 0.713093
v 1.137171 0.050000 0.733437
v 1.116671 0.050000 0.716536
v 1.124193 0.050000 0.720631
v 1.113363 0.050000 0.721381
v 1.145061 0.050000 0.722557
v 1.122660 0.050000 0.727559
v 1.131465 0.050000 0.700302
v 1.108458 0.050000 0.719412
v 1.116829 0.050000 0.717261
v 1.117869 0.050000 0.704342
v 1.113713 0.050000 0.748840
v 1.118685 0.050000 0.720181
v 1.141460 0.050000 0.729330
v 1.099427 0.050000 0.716103
v 1.126494 0.050000 0.741489
v 1.127441 0.050000 0.697975
v 1.101732 0.050000 0.718272
v 1.126277 0.050000 0.741496
v 1.112560 0.050000 0.721008
v 1.122559 0.050000 0.721657
v 1.108692 0.050000 0.754829
vn 0.0000 -1.0000 0.0000
vn 0.0000 1.0000 0.0000
vn 0.0000 1.0000 0.0001
vn 0.0000 1.0000 -0.0001
vn 0.2209 0.0000 -0.9753
vn -0.8069 0.0000 0.5906
vn 0.7475 0.0000 -0.6643
vn -0.1894 0.0000 -0.9819
vn 0.8599 0.0000 -0.5105
vn -0.9999 0.0000 0.0171
vn 0.0291 0.0000 -0.9996
vn 0.9637 0.0000 -0.2670
vn -0.9772 0.0000 0.2124
vn -0.7432 0.0000 -0.6690
vn 0.4446 0.0000 -0.8957
vn -0.9770 0.0000 -0.2131
vn 0.5136 0.0000 0.8580
vn -0.2242 0.0000 0.9745
vn -0.9996 0.0000 0.0268
vn -0.9176 0.0000 0.3975
vn 0.3863 0.0000 -0.9224
vn -0.6625 0.0000 0.7491
vn -0.8495 0.0000 -0.5276
vn 0.4358 0.0000 -0.9000
vn 0.6147 0.0000 0.7888
vn 0.4193 0.0000 -0.9079
vn -0.9338 0.0000 -0.3577
vn -0.9995 0.0000 -0.0314
vn -0.1653 0.0000 -0.9862
vn -0.4933 0.0000 -0.8699
vn 0.4145 0.0000 0.9100
vn 0.9968 0.0000 0.0804
vn 0.3850 0.0000 -0.9229
vn 0.3496 0.0000 0.9369
vn -0.3590 0.0000 -0.9333
vn -0.9397 0.0000 -0.3421
vn 0.9980 0.0000 0.0625
vn -0.7544 0.0000 0.6564
vn 0.0289 0.0000 0.9996
vn 0.7111 0.0000 0.7031
vn 0.7060 0.0000 0.7082
vn 0.8903 0.0000 -0.4553
vn 0.6690 0.0000 0.7433
vn -0.8439 0.0000 0.5365
vn 0.8952 0.0000 -0.4456
vn -0.3621 0.0000 0.9321
vn 0.1496 0.0000 0.9887
vn -0.9896 0.0000 -0.1439
vn -0.2346 0.0000 -0.9721
vn -0.0307 0.0000 0.9995
vn -0.0034 0.0000 -1.0000
vn -0.0461 0.0000 -0.9989
vn 0.9695 0.0000 -0.2451
vn 0.0333 0.0000 -0.9994
vn 0.9645 0.0000 -0.2640
vn 0.2277 0.0000 0.9737
vn -0.2471 0.0000 0.9690
vn -0.0290 0.0000 -0.9996
vn 0.1596 0.0000 -0.9872
vn 0.9821 0.0000 -0.1885
vn 0.7862 0.0000 0.6180
vn 0.6933 0.0000 0.7206
vn 0.5317 0.0000 0.8469
vn -0.5763 0.0000 -0.8173
vn -0.9994 0.0000 -0.0336
vn 0.9068 0.0000 -0.4215
vn 0.7115 0.0000 0.7027
vn 0.0651 0.0000 0.9979
vn 0.3175 0.0000 0.9483
vn 0.5977 0.0000 -0.8017
vn -0.7792 0.0000 -0.6268
vn 0.3372 0.0000 -0.9414
vn 0.9827 0.0000 0.1852
vn 0.9998 0.0000 0.0173
vn 0.9723 0.0000 -0.2336
vn 0.0618 0.0000 0.9981
vn 0.8413 0.0000 0.5406
vn -0.7070 0.0000 -0.7072
vn 0.5091 0.0000 -0.8607
vn 0.8508 0.0000 -0.5255
vn 0.7473 0.0000 -0.6645
vn -0.0288 0.0000 -0.9996
vn -1.0000 0.0000 0.0096
vn 0.2854 0.0000 -0.9584
vn -0.2469 0.0000 -0.9690
vn 0.1505 0.0000 0.9886
vn 0.9937 0.0000 0.1123
vn -0.0139 0.0000 -0.9999
vn 0.5586 0.0000 -0.8294
vn 0.4105 0.0000 -0.9119
vn -0.5929 0.0000 -0.8053
vn 0.9851 0.0000 0.1718
vn -0.7612 0.0000 -0.6485
vn -0.9521 0.0000 0.3058
vn 0.0009 0.0000 1.0000
vn 0.4218 0.0000 -0.9067
vn -0.9943 0.0000 -0.1069
vn 0.7603 0.0000 -0.6496
vn 0.3203 0.0000 0.9473
vn 0.0000 0.0000 1.0000
vn 0.2642 0.0000 0.9645
vn -0.8834 0.0000 0.4686
vn 0.8539 0.0000 -0.5204
vn -0.1753 0.0000 -0.9845
usemtl SVGMat.3781
s off
f 4//1 3//1 2//1
f 5//1 4//1 2//1
f 6//1 5//1 2//1
f 7//1 6//1 2//1
f 7//1 2//1 1//1
f 7//1 1//1 101//1
f 8//1 7//1 101//1
f 8//1 101//1 100//1
f 8//1 100//1 99//1
f 9//1 8//1 99//1
f 10//1 9//1 99//1
f 10//1 99//1 98//1
f 11//1 10//1 98//1
f 12//1 11//1 98//1
f 13//1 12//1 98//1
f 13//1 98//1 97//1
f 14//1 13//1 97//1
f 14//1 97//1 96//1
f 14//1 96//1 94//1
f 94//1 96//1 95//1
f 14//1 94//1 93//1
f 14//1 93//1 92//1
f 54//1 53//1 52//1
f 15//1 14//1 92//1
f 54//1 52//1 51//1
f 49//1 48//1 47//1
f 55//1 54//1 51//1
f 50//1 49//1 47//1
f 50//1 47//1 46//1
f 55//1 51//1 50//1
f 55//1 50//1 46//1
f 55//1 46//1 45//1
f 15//1 92//1 91//1
f 16//1 15//1 91//1
f 55//1 45//1 44//1
f 38//1 37//1 36//1
f 44//1 43//1 42//1
f 55//1 44//1 42//1
f 17//1 16//1 91//1
f 38//1 36//1 35//1
f 39//1 38//1 35//1
f 40//1 39//1 35//1
f 55//1 42//1 41//1
f 41//1 40//1 35//1
f 55//1 41//1 35//1
f 55//1 35//1 34//1
f 17//1 91//1 21//1
f 21//1 91//1 90//1
f 18//1 17//1 21//1
f 22//1 21//1 90//1
f 23//1 22//1 90//1
f 18//1 21//1 20//1
f 55//1 34//1 33//1
f 55//1 33//1 32//1
f 55//1 32//1 31//1
f 23//1 90//1 89//1
f 19//1 18//1 20//1
f 55//1 31//1 30//1
f 23//1 89//1 88//1
f 23//1 88//1 87//1
f 23//1 87//1 86//1
f 24//1 23//1 86//1
f 56//1 55//1 30//1
f 58//1 57//1 56//1
f 56//1 30//1 29//1
f 58//1 56//1 29//1
f 25//1 24//1 86//1
f 26//1 25//1 86//1
f 58//1 29//1 28//1
f 27//1 26//1 86//1
f 27//1 86//1 85//1
f 28//1 27//1 85//1
f 58//1 28//1 85//1
f 58//1 85//1 84//1
f 58//1 84//1 83//1
f 58//1 83//1 82//1
f 58//1 82//1 81//1
f 58//1 81//1 75//1
f 75//1 81//1 77//1
f 77//1 81//1 80//1
f 58//1 75//1 74//1
f 58//1 74//1 73//1
f 58//1 73//1 72//1
f 59//1 58//1 72//1
f 59//1 72//1 71//1
f 59//1 71//1 70//1
f 59//1 70//1 69//1
f 59//1 69//1 60//1
f 60//1 69//1 68//1
f 60//1 68//1 61//1
f 62//1 61//1 68//1
f 65//1 62//1 68//1
f 65//1 68//1 67//1
f 62//1 65//1 64//1
f 63//1 62//1 64//1
f 66//1 65//1 67//1
f 106//2 108//2 197//2
f 107//2 108//2 106//2
f 176//3 108//3 107//3
f 138//2 108//2 176//2
f 138//2 188//2 108//2
f 138//2 170//2 188//2
f 139//2 170//2 138//2
f 139//2 151//2 170//2
f 139//2 150//2 151//2
f 165//2 150//2 139//2
f 191//2 150//2 165//2
f 191//2 175//2 150//2
f 102//2 175//2 191//2
f 103//2 175//2 102//2
f 168//2 175//2 103//2
f 168//2 174//2 175//2
f 136//2 174//2 168//2
f 136//2 105//2 174//2
f 136//2 129//2 105//2
f 129//2 104//2 105//2
f 136//2 173//2 129//2
f 136//2 137//2 173//2
f 181//2 141//2 161//2
f 183//2 137//2 136//2
f 181//2 140//2 141//2
f 111//2 157//2 158//2
f 126//2 140//2 181//2
f 112//2 157//2 111//2
f 112//2 195//2 157//2
f 126//2 112//2 140//2
f 126//2 195//2 112//2
f 126//2 149//2 195//2
f 183//2 146//2 137//2
f 190//2 146//2 183//2
f 126//2 148//2 149//2
f 153//2 127//2 128//2
f 148//2 125//2 198//2
f 126//2 125//2 148//2
f 193//2 146//2 190//2
f 153//2 162//2 127//2
f 189//2 162//2 153//2
f 180//2 162//2 189//2
f 126//2 156//2 125//2
f 156//2 162//2 180//2
f 126//2 162//2 156//2
f 126//2 200//2 162//2
f 193//2 184//2 146//2
f 184//2 119//2 146//2
f 177//2 184//2 193//2
f 179//4 119//4 184//4
f 117//2 119//2 179//2
f 177//2 201//2 184//2
f 126//2 185//2 200//2
f 126//2 160//2 185//2
f 126//2 159//2 160//2
f 117//2 186//2 119//2
f 178//2 201//2 177//2
f 126//2 109//2 159//2
f 117//2 120//2 186//2
f 117//2 132//2 120//2
f 117//2 118//2 132//2
f 171//2 118//2 117//2
f 110//2 109//2 126//2
f 115//2 110//2 130//2
f 110//2 147//2 109//2
f 115//2 147//2 110//2
f 144//2 118//2 171//2
f 145//2 118//2 144//2
f 115//2 133//2 147//2
f 187//2 118//2 145//2
f 187//2 116//2 118//2
f 133//2 116//2 187//2
f 115//2 116//2 133//2
f 115//2 194//2 116//2
f 115//2 152//2 194//2
f 115//2 182//2 152//2
f 115//2 164//2 182//2
f 115//2 143//2 164//2
f 143//2 172//2 164//2
f 172//2 163//2 164//2
f 115//2 142//2 143//2
f 115//2 166//2 142//2
f 115//2 135//2 166//2
f 123//2 135//2 115//2
f 123//2 134//2 135//2
f 123//2 167//2 134//2
f 123//2 192//2 167//2
f 123//2 124//2 192//2
f 124//2 122//2 192//2
f 124//2 154//2 122//2
f 113//2 122//2 154//2
f 121//2 122//2 113//2
f 121//2 202//2 122//2
f 113//2 114//2 121//2
f 169//2 114//2 113//2
f 131//2 202//2 121//2
f 31//5 32//5 160//5 159//5
f 58//6 59//6 123//6 115//6
f 52//7 53//7 161//7 141//7
f 43//8 44//8 148//8 198//8
f 35//9 36//9 127//9 162//9
f 10//10 11//10 102//10 191//10
f 32//11 33//11 185//11 160//11
f 80//12 81//12 164//12 163//12
f 15//13 16//13 190//13 183//13
f 8//14 9//14 165//14 139//14
f 98//15 99//15 150//15 175//15
f 38//16 39//16 189//16 153//16
f 70//17 71//17 134//17 167//17
f 21//18 22//18 179//18 184//18
f 12//19 13//19 168//19 103//19
f 62//20 63//20 169//20 113//20
f 50//21 51//21 140//21 112//21
f 11//22 12//22 103//22 102//22
f 9//23 10//23 191//23 165//23
f 100//24 101//24 170//24 151//24
f 95//25 96//25 105//25 104//25
f 47//26 48//26 158//26 157//26
f 24//27 25//27 144//27 171//27
f 57//28 58//28 115//28 130//28
f 4//29 5//29 107//29 106//29
f 39//30 40//30 180//30 189//30
f 69//31 70//31 167//31 192//31
f 86//32 87//32 132//32 118//32
f 41//33 42//33 125//33 156//33
f 81//34 82//34 182//34 164//34
f 49//35 50//35 112//35 111//35
f 14//36 15//36 183//36 136//36
f 46//37 47//37 157//37 195//37
f 17//38 18//38 177//38 193//38
f 75//39 77//39 172//39 143//39
f 73//40 74//40 142//40 166//40
f 93//41 94//41 129//41 173//41
f 97//42 98//42 175//42 174//42
f 87//43 88//43 120//43 132//43
f 16//44 17//44 193//44 190//44
f 83//45 84//45 194//45 152//45
f 18//46 19//46 178//46 177//46
f 59//47 60//47 124//47 123//47
f 13//48 14//48 136//48 168//48
f 36//49 37//49 128//49 127//49
f 94//50 95//50 104//50 129//50
f 5//51 6//51 176//51 107//51
f 40//52 41//52 156//52 180//52
f 96//53 97//53 174//53 105//53
f 56//54 57//54 130//54 110//54
f 45//55 46//55 195//55 149//55
f 63//56 64//56 114//56 169//56
f 65//57 66//57 131//57 121//57
f 77//58 78//58 196//58 172//58
f 101//59 1//59 188//59 170//59
f 90//60 91//60 146//60 119//60
f 67//61 68//61 122//61 202//61
f 71//62 72//62 135//62 134//62
f 20//63 21//63 184//63 201//63
f 3//64 4//64 106//64 197//64
f 7//65 8//65 139//65 138//65
f 51//66 52//66 141//66 140//66
f 68//67 69//67 192//67 122//67
f 64//68 65//68 121//68 114//68
f 74//69 75//69 143//69 142//69
f 2//70 3//70 197//70 108//70
f 25//71 26//71 145//71 144//71
f 42//72 43//72 198//72 125//72
f 92//73 93//73 173//73 137//73
f 91//74 92//74 137//74 146//74
f 30//75 31//75 159//75 109//75
f 66//76 67//76 202//76 131//76
f 84//77 85//77 116//77 194//77
f 55//78 56//78 110//78 126//78
f 28//79 29//79 147//79 133//79
f 29//80 30//80 109//80 147//80
f 44//81 45//81 149//81 148//81
f 78//82 79//82 199//82 196//82
f 23//83 24//83 171//83 117//83
f 99//84 100//84 151//84 150//84
f 26//85 27//85 187//85 145//85
f 88//86 89//86 186//86 120//86
f 72//87 73//87 166//87 135//87
f 27//88 28//88 133//88 187//88
f 53//89 54//89 181//89 161//89
f 1//90 2//90 108//90 188//90
f 6//91 7//91 138//91 176//91
f 85//92 86//92 118//92 116//92
f 37//93 38//93 153//93 128//93
f 22//94 23//94 117//94 179//94
f 60//95 61//95 154//95 124//95
f 33//96 34//96 200//96 185//96
f 54//97 55//97 126//97 181//97
f 34//98 35//98 162//98 200//98
f 75//39 76//39 155//39 143//39
f 82//99 83//99 152//99 182//99
f 77//100 80//100 163//100 172//100
f 19//101 20//101 201//101 178//101
f 61//102 62//102 113//102 154//102
f 89//103 90//103 119//103 186//103
f 48//104 49//104 111//104 158//104
