# Blender v2.79 (sub 0) OBJ File: 'world_countrycodes_outlines2.blend'
# www.blender.org
mtllib ZM_outline.mtl
o ZM.001_CUCurve.1703
v 1.143781 -0.001962 0.704092
v 1.142924 -0.001424 0.706349
v 1.142298 0.000784 0.706663
v 1.145856 0.000077 0.704283
v 1.144348 0.001983 0.704734
v 1.148396 -0.001271 0.713011
v 1.144602 -0.000762 0.710461
v 1.145301 -0.001972 0.712648
v 1.148634 0.000791 0.711561
v 1.146146 0.001368 0.713728
v 1.145321 0.001785 0.711205
v 1.142920 0.000835 0.711121
v 1.142937 -0.001471 0.712066
v 1.142457 -0.000590 0.721622
v 1.146965 0.000603 0.722450
v 1.145229 0.001982 0.721732
v 1.145924 -0.001963 0.722778
v 1.144282 0.000984 0.724738
v 1.144255 -0.000807 0.724550
v 1.143071 0.001676 0.721700
v 1.141213 -0.001360 0.721759
v 1.139581 0.000744 0.730265
v 1.140564 -0.001789 0.730478
v 1.143658 0.000656 0.729240
v 1.141722 0.002045 0.731107
v 1.143087 -0.001890 0.732052
v 1.145283 0.000718 0.732868
v 1.128862 0.001573 0.738043
v 1.127741 -0.001937 0.737915
v 1.124193 -0.000006 0.735910
v 1.130517 0.000884 0.743357
v 1.126830 0.001871 0.740664
v 1.125172 -0.000465 0.739266
v 1.129154 -0.001937 0.742080
v 1.118925 0.000907 0.740956
v 1.120337 -0.001960 0.741468
v 1.121758 -0.000855 0.743869
v 1.120156 0.001986 0.743457
v 1.117500 -0.000838 0.744555
v 1.119872 -0.001934 0.746331
v 1.120976 0.000851 0.746384
v 1.114897 0.000761 0.750619
v 1.114487 -0.000803 0.750661
v 1.112314 0.001358 0.747664
v 1.112233 -0.001870 0.748778
v 1.108274 0.002001 0.754320
v 1.108798 -0.001881 0.756058
v 1.109087 0.000777 0.757055
v 1.107719 -0.000796 0.753125
v 1.100875 0.000782 0.755574
v 1.099382 -0.000937 0.751113
v 1.098988 -0.001964 0.752874
v 1.098954 0.001963 0.752905
v 1.097591 -0.000312 0.756383
v 1.096449 0.000793 0.754117
v 1.096738 -0.001408 0.753600
v 1.098289 0.000852 0.750307
v 1.088534 0.001675 0.751651
v 1.086708 -0.000006 0.755515
v 1.088062 -0.001988 0.752649
v 1.079607 -0.001617 0.744921
v 1.080604 0.001993 0.744616
v 1.083419 -0.000000 0.743743
v 1.079752 -0.000000 0.723316
v 1.083402 0.001683 0.726979
v 1.082444 -0.001991 0.726384
v 1.089782 0.000796 0.723712
v 1.091776 0.001963 0.726210
v 1.092479 -0.001040 0.727023
v 1.090513 -0.001888 0.724714
v 1.094267 0.000022 0.716400
v 1.093868 -0.001945 0.714941
v 1.092699 0.001979 0.711731
v 1.091304 -0.000697 0.709922
v 1.096336 -0.000951 0.713668
v 1.096016 0.000825 0.713777
v 1.094670 0.001786 0.716597
v 1.094426 -0.000734 0.717898
v 1.097867 0.000765 0.716943
v 1.098599 -0.001985 0.715623
v 1.100153 0.001889 0.714416
v 1.100834 -0.000605 0.713402
v 1.101469 -0.000773 0.716363
v 1.101086 0.001390 0.716730
v 1.099275 -0.001953 0.718383
v 1.100942 0.001941 0.719208
v 1.098698 0.000660 0.719447
v 1.101298 -0.000807 0.720342
v 1.106726 -0.001953 0.720948
v 1.106863 -0.000794 0.718010
v 1.107337 0.001971 0.719331
v 1.105800 0.000840 0.721878
v 1.110099 -0.000890 0.720568
v 1.109992 0.001155 0.719950
v 1.109861 0.001922 0.716518
v 1.108896 -0.001922 0.717054
v 1.110550 -0.000594 0.715508
v 1.113712 0.000824 0.719434
v 1.111589 -0.000730 0.722902
v 1.112430 0.001853 0.722173
v 1.113412 -0.001867 0.720620
v 1.118762 -0.000788 0.720067
v 1.118448 0.001922 0.721258
v 1.115792 0.000813 0.723561
v 1.116569 -0.001965 0.722211
v 1.121031 0.000729 0.725574
v 1.120733 -0.001363 0.726103
v 1.120382 0.001943 0.728516
v 1.119744 -0.001942 0.728102
v 1.120314 0.000000 0.729739
v 1.124124 -0.001952 0.728411
v 1.123480 0.001392 0.725945
v 1.125260 0.001764 0.728265
v 1.123128 -0.000811 0.725394
v 1.126959 -0.000762 0.726395
v 1.123668 0.000844 0.722617
v 1.124680 0.001953 0.719614
v 1.126829 0.000759 0.720434
v 1.125187 -0.001917 0.719522
v 1.123870 -0.001507 0.721979
v 1.124633 0.000026 0.718431
v 1.121145 -0.000776 0.720105
v 1.121503 -0.001891 0.723054
v 1.121490 0.000877 0.724086
v 1.118344 -0.000817 0.722905
v 1.119710 0.002108 0.721770
v 1.117699 -0.002009 0.716816
v 1.117700 0.002008 0.716808
v 1.114596 -0.000742 0.717402
v 1.119030 -0.000003 0.716841
v 1.114900 0.001171 0.717112
v 1.118092 0.001953 0.706285
v 1.116823 -0.001000 0.706831
v 1.120298 0.000761 0.704802
v 1.120072 -0.001332 0.704820
v 1.117761 -0.001967 0.703151
v 1.115455 0.000207 0.704871
v 1.118374 0.001812 0.700925
v 1.121703 0.000758 0.700955
v 1.118678 -0.001468 0.698107
v 1.118225 0.000778 0.697766
v 1.120245 -0.001968 0.700071
v 1.127412 -0.000971 0.700563
v 1.129147 -0.001957 0.698421
v 1.126696 -0.001054 0.696586
v 1.127506 0.000702 0.695436
v 1.132066 -0.000047 0.698383
v 1.127576 0.001749 0.697349
v 1.127938 0.001935 0.699330
v 1.131730 0.000678 0.702486
vn 0.4026 -0.0502 -0.9140
vn 0.2923 -0.8546 -0.4291
vn 0.1502 -0.9497 -0.2747
vn -0.3671 -0.8134 0.4512
vn -0.0976 -0.4280 0.8985
vn -0.5979 0.4790 0.6426
vn 0.2514 0.9076 -0.3363
vn -0.0851 0.9216 0.3786
vn -0.3616 0.3460 0.8657
vn -0.0154 0.8718 -0.4895
vn 0.7625 -0.0012 -0.6470
vn 0.6988 -0.4916 0.5196
vn -0.9299 -0.3406 -0.1387
vn 0.1187 -0.9887 0.0916
vn 0.0448 0.9933 -0.1068
vn 0.7505 0.6243 0.2166
vn 0.8879 0.4586 0.0356
vn -0.7093 0.4214 -0.5650
vn -0.6933 -0.6462 -0.3188
vn -0.4595 -0.3730 -0.8060
vn 0.2377 0.9605 0.1445
vn -0.5184 0.8509 -0.0851
vn 0.4757 -0.8066 0.3509
vn 0.9104 0.2410 0.3362
vn 0.7278 0.5979 0.3358
vn 0.5870 -0.6960 0.4134
vn -0.6256 -0.4756 -0.6184
vn -0.6584 0.4701 -0.5878
vn 0.9256 0.3780 0.0208
vn 0.0630 0.9980 0.0016
vn -0.3197 -0.9197 -0.2276
vn 0.4589 -0.8480 0.2651
vn 0.9070 0.1931 0.3741
vn 0.0519 -0.9985 -0.0162
vn 0.3756 0.9249 0.0587
vn -0.8614 0.0260 -0.5071
vn 0.5287 -0.8162 0.2328
vn -0.0533 0.9948 -0.0860
vn -0.7239 -0.4933 -0.4823
vn -0.6630 0.3682 -0.6517
vn -0.2894 -0.8502 -0.4396
vn 0.7964 0.2651 0.5435
vn 0.5258 -0.5331 0.6628
vn -0.6015 -0.5029 -0.6207
vn -0.0678 0.9966 0.0468
vn 0.3933 -0.8352 0.3844
vn 0.7476 0.4090 0.5231
vn 0.5448 0.5842 0.6015
vn -0.5032 0.6274 -0.5942
vn 0.5228 -0.6166 0.5886
vn -0.3570 -0.8459 -0.3962
vn 0.1904 -0.8102 0.5543
vn 0.2929 0.3295 0.8975
vn -0.0405 0.9947 -0.0948
vn -0.3138 -0.5119 -0.7997
vn -0.0400 0.6978 0.7151
vn -0.0076 -0.9968 -0.0791
vn -0.4523 -0.0680 0.8892
vn 0.2405 -0.3850 -0.8910
vn 0.0910 0.9912 -0.0955
vn -0.2559 0.5558 0.7909
vn 0.2856 0.3061 -0.9081
vn 0.2290 0.9018 -0.3663
vn -0.1562 -0.7326 0.6625
vn 0.0595 -0.9958 -0.0690
vn -0.3946 0.0701 0.9161
vn -0.4664 0.8751 0.1289
vn 0.9346 -0.1292 -0.3312
vn -0.7358 -0.6454 0.2047
vn -0.6938 0.0524 -0.7182
vn 0.1901 0.9581 0.2140
vn -0.0131 -0.9994 0.0306
vn -0.5885 0.5974 -0.5448
vn 0.6101 -0.3651 0.7031
vn -0.0767 -0.9919 -0.1007
vn 0.3951 0.7931 0.4634
vn -0.0745 0.8114 -0.5797
vn -0.0482 -0.2258 0.9730
vn 0.2890 0.9034 0.3168
vn 0.1965 -0.5371 -0.8203
vn -0.4134 -0.2271 -0.8817
vn -0.0003 -0.9980 -0.0629
vn -0.4686 -0.2482 0.8478
vn -0.3077 0.5566 0.7717
vn 0.3753 0.8104 -0.4498
vn 0.0311 -0.9995 -0.0001
vn 0.5910 -0.5592 -0.5814
vn 0.6087 -0.2688 -0.7464
vn -0.2102 0.8832 0.4192
vn -0.4379 -0.8535 0.2823
vn -0.6979 0.2714 0.6628
vn -0.3348 -0.2748 0.9013
vn 0.0406 -0.8467 0.5304
vn -0.3013 -0.3938 -0.8684
vn 0.6346 0.6410 -0.4316
vn -0.0174 0.3642 0.9311
vn -0.3816 -0.5337 0.7546
vn -0.2108 0.7991 0.5630
vn -0.0508 0.7719 -0.6337
vn 0.0010 0.9958 -0.0919
vn 0.2010 -0.2160 -0.9554
vn 0.4465 0.4833 -0.7530
vn 0.0766 -0.9738 -0.2140
vn -0.4990 -0.3408 0.7967
vn -0.2682 0.8466 0.4597
vn -0.2234 -0.8459 -0.4843
vn 0.5606 -0.3355 -0.7571
vn -0.0587 -0.9885 0.1394
vn 0.3824 0.8235 -0.4190
vn 0.5104 0.5254 -0.6807
vn 0.2897 -0.8472 -0.4454
vn -0.4211 0.4334 0.7967
vn -0.2493 0.8596 0.4459
vn -0.3809 -0.8276 0.4122
vn -0.3249 -0.0155 0.9456
vn -0.2030 0.8993 -0.3874
vn 0.2850 -0.7747 0.5644
vn 0.4873 0.6602 0.5716
vn -0.6276 -0.5634 -0.5372
vn 0.9109 -0.2980 0.2854
vn -0.3986 0.7888 0.4677
vn 0.9018 0.2744 -0.3338
vn 0.3334 -0.7910 -0.5129
vn 0.1083 0.0193 -0.9939
vn 0.0911 -0.8199 0.5651
vn 0.1017 -0.9008 0.4222
vn 0.1334 0.8643 -0.4849
vn 0.1016 0.3516 0.9306
vn -0.2279 0.9520 0.2041
vn 0.2813 -0.4370 -0.8543
vn -0.6481 -0.2859 0.7058
vn 0.2466 0.9686 -0.0316
vn 0.1440 -0.9892 -0.0272
vn -0.8863 -0.3964 0.2394
vn -0.7906 0.5831 0.1870
vn 0.9707 0.0477 -0.2353
vn -0.1729 0.9838 0.0461
vn -0.9395 -0.3352 0.0707
vn 0.8503 0.5029 0.1546
vn 0.7321 -0.6673 0.1367
vn -0.4775 -0.8575 -0.1915
vn -0.9951 0.0970 0.0198
vn -0.5326 0.8316 -0.1572
vn 0.4177 0.2517 0.8730
vn -0.5850 -0.5998 -0.5458
vn 0.1406 -0.9846 0.1033
vn -0.7179 0.3499 -0.6018
vn -0.2227 0.2576 -0.9402
vn -0.0842 -0.5132 -0.8541
vn 0.2424 0.6392 -0.7298
usemtl SVGMat.3781
s 1
f 147//1 1//2 144//3
f 1//2 2//4 143//5
f 3//6 5//7 149//8
f 2//4 3//6 150//9
f 148//10 4//11 147//1
f 4//11 6//12 1//2
f 2//4 7//13 3//6
f 1//2 7//13 2//4
f 6//12 8//14 1//2
f 11//15 10//16 5//7
f 10//16 6//12 9//17
f 10//16 8//14 6//12
f 7//13 12//18 11//15
f 8//14 13//19 7//13
f 13//19 14//20 12//18
f 11//15 16//21 10//16
f 12//18 16//21 11//15
f 14//20 20//22 12//18
f 17//23 14//20 13//19
f 15//24 17//23 8//14
f 16//21 18//25 15//24
f 18//25 19//26 17//23
f 17//23 21//27 14//20
f 21//27 22//28 20//22
f 18//25 24//29 19//26
f 22//28 25//30 20//22
f 19//26 23//31 21//27
f 24//29 26//32 19//26
f 25//30 24//29 18//25
f 25//30 27//33 24//29
f 27//33 29//34 26//32
f 25//30 28//35 27//33
f 22//28 28//35 25//30
f 26//32 30//36 23//31
f 28//35 34//37 29//34
f 30//36 32//38 28//35
f 29//34 33//39 30//36
f 33//39 35//40 32//38
f 34//37 36//41 33//39
f 31//42 37//43 34//37
f 36//41 35//40 33//39
f 39//44 38//45 35//40
f 37//43 40//46 36//41
f 38//45 41//47 37//43
f 38//45 42//48 41//47
f 39//44 44//49 38//45
f 42//48 43//50 40//46
f 40//46 45//51 39//44
f 43//50 45//51 40//46
f 43//50 47//52 45//51
f 42//48 48//53 43//50
f 46//54 48//53 42//48
f 45//51 49//55 44//49
f 47//52 49//55 45//51
f 46//54 50//56 48//53
f 47//52 52//57 49//55
f 50//56 54//58 47//52
f 51//59 53//60 46//54
f 53//60 54//58 50//56
f 53//60 55//61 54//58
f 51//59 57//62 53//60
f 57//62 58//63 53//60
f 56//64 60//65 52//57
f 55//61 59//66 56//64
f 58//63 59//66 55//61
f 51//59 58//63 57//62
f 58//63 62//67 59//66
f 63//68 58//63 60//65
f 61//69 60//65 59//66
f 64//70 61//69 62//67
f 65//71 62//67 63//68
f 61//69 66//72 63//68
f 65//71 67//73 64//70
f 66//72 69//74 65//71
f 70//75 66//72 64//70
f 68//76 73//77 67//73
f 71//78 77//79 68//76
f 73//77 75//80 74//81
f 72//82 78//83 71//78
f 79//84 81//85 77//79
f 75//80 80//86 72//82
f 81//85 83//87 82//88
f 79//84 86//89 81//85
f 83//87 85//90 80//86
f 85//90 87//91 79//84
f 85//90 88//92 87//91
f 85//90 89//93 88//92
f 90//94 89//93 85//90
f 84//95 90//94 83//87
f 88//92 92//96 86//89
f 89//93 92//96 88//92
f 89//93 93//97 92//96
f 93//97 94//98 92//96
f 94//98 95//99 91//100
f 95//99 97//101 90//94
f 95//99 98//102 97//101
f 98//102 101//103 97//101
f 93//97 99//104 94//98
f 94//98 100//105 95//99
f 99//104 100//105 94//98
f 96//106 99//104 93//97
f 98//102 102//107 101//103
f 102//107 105//108 101//103
f 103//109 106//110 102//107
f 106//110 107//111 102//107
f 104//112 108//113 103//109
f 107//111 109//114 105//108
f 109//114 110//115 104//112
f 108//113 112//116 106//110
f 107//111 111//117 109//114
f 110//115 113//118 108//113
f 106//110 114//119 107//111
f 112//116 114//119 106//110
f 111//117 113//118 110//115
f 111//117 115//120 113//118
f 112//116 116//121 114//119
f 113//118 116//121 112//116
f 115//120 118//122 113//118
f 111//117 119//123 115//120
f 114//119 119//123 111//117
f 119//123 121//124 118//122
f 116//121 123//125 120//126
f 117//127 124//128 116//121
f 121//124 126//129 117//127
f 119//123 122//130 121//124
f 124//128 125//131 123//125
f 122//130 128//132 126//129
f 123//125 127//133 122//130
f 125//131 127//133 123//125
f 126//129 129//134 125//131
f 128//132 131//135 126//129
f 127//133 130//136 122//130
f 128//132 132//137 131//135
f 131//135 133//138 129//134
f 132//137 133//138 131//135
f 130//136 134//139 128//132
f 135//140 134//139 130//136
f 133//138 136//141 127//133
f 132//137 137//142 133//138
f 132//137 138//143 137//142
f 134//139 138//143 132//137
f 135//140 139//144 134//139
f 138//143 140//145 136//141
f 142//146 143//5 139//144
f 143//5 149//8 139//144
f 138//143 148//10 141//147
f 149//8 148//10 138//143
f 140//145 144//3 142//146
f 144//3 143//5 142//146
f 148//10 146//148 145//149
f 146//148 144//3 145//149
f 143//5 2//4 150//9
f 150//9 3//6 149//8
f 149//8 5//7 148//10
f 147//1 4//11 1//2
f 148//10 5//7 4//11
f 5//7 9//17 4//11
f 3//6 11//15 5//7
f 3//6 7//13 11//15
f 1//2 8//14 7//13
f 4//11 9//17 6//12
f 5//7 10//16 9//17
f 7//13 13//19 12//18
f 10//16 15//24 8//14
f 10//16 16//21 15//24
f 12//18 20//22 16//21
f 8//14 17//23 13//19
f 15//24 18//25 17//23
f 16//21 20//22 18//25
f 14//20 21//27 20//22
f 17//23 19//26 21//27
f 21//27 23//31 22//28
f 20//22 25//30 18//25
f 19//26 26//32 23//31
f 24//29 27//33 26//32
f 27//33 28//35 29//34
f 23//31 30//36 22//28
f 26//32 29//34 30//36
f 22//28 30//36 28//35
f 28//35 31//42 34//37
f 28//35 32//38 31//42
f 30//36 33//39 32//38
f 29//34 34//37 33//39
f 32//38 38//45 31//42
f 32//38 35//40 38//45
f 31//42 38//45 37//43
f 34//37 37//43 36//41
f 36//41 39//44 35//40
f 36//41 40//46 39//44
f 37//43 41//47 40//46
f 41//47 42//48 40//46
f 38//45 44//49 42//48
f 39//44 45//51 44//49
f 44//49 46//54 42//48
f 43//50 48//53 47//52
f 44//49 49//55 46//54
f 48//53 50//56 47//52
f 49//55 51//59 46//54
f 49//55 52//57 51//59
f 46//54 53//60 50//56
f 47//52 54//58 52//57
f 54//58 55//61 56//64
f 54//58 56//64 52//57
f 53//60 58//63 55//61
f 52//57 60//65 51//59
f 56//64 59//66 60//65
f 51//59 60//65 58//63
f 59//66 62//67 61//69
f 58//63 63//68 62//67
f 61//69 63//68 60//65
f 65//71 64//70 62//67
f 63//68 66//72 65//71
f 61//69 64//70 66//72
f 67//73 70//75 64//70
f 65//71 68//76 67//73
f 65//71 69//74 68//76
f 66//72 70//75 69//74
f 69//74 71//78 68//76
f 70//75 72//82 69//74
f 69//74 72//82 71//78
f 67//73 74//81 70//75
f 67//73 73//77 74//81
f 70//75 74//81 72//82
f 68//76 77//79 73//77
f 74//81 75//80 72//82
f 73//77 76//150 75//80
f 73//77 77//79 76//150
f 71//78 78//83 77//79
f 78//83 79//84 77//79
f 77//79 81//85 76//150
f 72//82 80//86 78//83
f 78//83 80//86 79//84
f 76//150 82//88 75//80
f 76//150 81//85 82//88
f 75//80 82//88 80//86
f 81//85 84//95 83//87
f 82//88 83//87 80//86
f 80//86 85//90 79//84
f 81//85 86//89 84//95
f 79//84 87//91 86//89
f 87//91 88//92 86//89
f 83//87 90//94 85//90
f 86//89 91//100 84//95
f 84//95 91//100 90//94
f 86//89 92//96 91//100
f 92//96 94//98 91//100
f 91//100 95//99 90//94
f 90//94 96//106 89//93
f 89//93 96//106 93//97
f 90//94 97//101 96//106
f 97//101 101//103 96//106
f 95//99 100//105 98//102
f 96//106 101//103 99//104
f 99//104 104//112 100//105
f 100//105 103//109 98//102
f 101//103 105//108 99//104
f 98//102 103//109 102//107
f 100//105 104//112 103//109
f 99//104 105//108 104//112
f 102//107 107//111 105//108
f 103//109 108//113 106//110
f 105//108 109//114 104//112
f 104//112 110//115 108//113
f 109//114 111//117 110//115
f 108//113 113//118 112//116
f 107//111 114//119 111//117
f 114//119 116//121 120//126
f 113//118 117//127 116//121
f 113//118 118//122 117//127
f 115//120 119//123 118//122
f 114//119 120//126 119//123
f 118//122 121//124 117//127
f 121//124 122//130 126//129
f 120//126 123//125 119//123
f 117//127 126//129 124//128
f 119//123 123//125 122//130
f 116//121 124//128 123//125
f 124//128 126//129 125//131
f 126//129 131//135 129//134
f 122//130 130//136 128//132
f 125//131 129//134 127//133
f 128//132 134//139 132//137
f 127//133 135//140 130//136
f 129//134 133//138 127//133
f 127//133 136//141 135//140
f 133//138 137//142 136//141
f 137//142 138//143 136//141
f 134//139 139//144 138//143
f 136//141 142//146 135//140
f 136//141 140//145 142//146
f 138//143 141//147 140//145
f 135//140 142//146 139//144
f 141//147 145//149 140//145
f 139//144 149//8 138//143
f 141//147 148//10 145//149
f 140//145 145//149 144//3
f 146//148 147//1 144//3
f 146//148 148//10 147//1
f 143//5 150//9 149//8
f 144//3 1//2 143//5
