# Blender v2.79 (sub 0) OBJ File: 'world_countrycodes_outlines2.blend'
# www.blender.org
mtllib ZW_outline.mtl
o ZW.001_CUCurve.1709
v 1.140908 -0.000024 0.748963
v 1.142075 -0.001991 0.748104
v 1.143844 -0.001439 0.746484
v 1.142210 0.001980 0.748260
v 1.144389 0.000698 0.746057
v 1.144550 0.000550 0.758050
v 1.140687 -0.000767 0.756797
v 1.143995 -0.001424 0.757781
v 1.141670 -0.001976 0.760267
v 1.143124 0.000039 0.760148
v 1.141517 0.001956 0.759601
v 1.139251 0.001395 0.760351
v 1.138575 -0.000700 0.760433
v 1.140837 -0.000347 0.765343
v 1.144476 -0.001507 0.765238
v 1.145265 0.000768 0.765149
v 1.142098 0.001898 0.765949
v 1.142251 -0.001966 0.766029
v 1.141306 -0.000779 0.771224
v 1.140224 0.001975 0.770539
v 1.138441 -0.001795 0.769704
v 1.137658 0.000697 0.769146
v 1.140679 -0.000866 0.775541
v 1.139551 0.001950 0.774955
v 1.137064 0.000805 0.773817
v 1.138185 -0.001965 0.774247
v 1.132171 0.001586 0.779154
v 1.132388 -0.002011 0.780171
v 1.133352 0.000209 0.783286
v 1.125517 0.000812 0.781656
v 1.126525 -0.001916 0.778836
v 1.125917 -0.001379 0.781316
v 1.126603 0.001931 0.778881
v 1.126777 0.000001 0.777589
v 1.122395 0.000814 0.777419
v 1.121603 -0.001970 0.778050
v 1.119442 0.000020 0.780856
v 1.120194 0.001933 0.777816
v 1.118834 -0.000731 0.778514
v 1.121373 0.000749 0.775248
v 1.120728 -0.001406 0.775544
v 1.113855 0.000026 0.777607
v 1.114603 0.001957 0.776564
v 1.115288 0.001427 0.774226
v 1.115525 -0.000800 0.773864
v 1.114676 -0.001935 0.776719
v 1.110089 0.001862 0.768639
v 1.110927 -0.000893 0.772479
v 1.114153 -0.000759 0.769795
v 1.108439 -0.000754 0.768215
v 1.111891 0.000861 0.766174
v 1.110813 -0.001957 0.766645
v 1.103384 0.001910 0.764136
v 1.105577 0.000803 0.762098
v 1.104970 -0.001955 0.763382
v 1.102607 -0.000743 0.764883
v 1.099985 -0.000654 0.758634
v 1.101579 0.002018 0.758188
v 1.102170 0.000883 0.755359
v 1.103742 -0.000801 0.756358
v 1.100653 -0.001627 0.754913
v 1.097125 0.001968 0.753722
v 1.098408 -0.002010 0.753068
v 1.095663 -0.000690 0.752991
v 1.101232 0.000761 0.751586
v 1.108291 0.001994 0.754336
v 1.108947 -0.001878 0.756072
v 1.107812 -0.000796 0.753141
v 1.109182 0.000706 0.757109
v 1.112673 0.001368 0.747434
v 1.114295 0.001463 0.750306
v 1.114489 -0.000751 0.750770
v 1.112412 -0.001921 0.748744
v 1.117541 0.000828 0.744629
v 1.121201 0.001916 0.743454
v 1.120728 -0.000955 0.746910
v 1.121965 -0.000093 0.743978
v 1.120081 -0.001841 0.743840
v 1.119616 -0.001874 0.741734
v 1.119313 0.000700 0.740563
v 1.129418 -0.000585 0.740386
v 1.128547 0.002055 0.741800
v 1.126917 -0.001211 0.743818
v 1.129055 -0.002000 0.742108
v 1.127514 0.000689 0.744721
vn -0.0382 0.9472 -0.3183
vn 0.7690 0.3451 -0.5381
vn 0.1820 -0.1751 -0.9676
vn 0.0290 0.9984 0.0476
vn 0.7163 -0.6605 0.2250
vn 0.6245 -0.6565 -0.4231
vn -0.8136 -0.0038 0.5814
vn 0.0246 0.9896 -0.1417
vn -0.0846 -0.9925 0.0877
vn -0.9548 -0.2532 -0.1554
vn 0.9006 0.3306 0.2820
vn 0.0715 -0.9973 0.0172
vn -0.7299 0.6729 -0.1201
vn -0.9294 -0.3684 -0.0197
vn -0.9626 -0.2528 -0.0968
vn 0.9990 -0.0113 0.0433
vn 0.7244 -0.6851 0.0763
vn -0.1161 0.9930 -0.0232
vn -0.1512 -0.9880 0.0302
vn 0.9324 0.3550 0.0675
vn 0.8321 -0.4368 0.3416
vn 0.2212 0.9650 0.1408
vn -0.8642 0.3226 -0.3861
vn -0.5015 -0.8337 -0.2310
vn 0.8469 -0.3457 0.4041
vn 0.4342 0.8806 0.1898
vn -0.8125 0.4175 -0.4068
vn -0.2306 -0.9680 -0.0992
vn -0.1630 0.8675 -0.4700
vn 0.0090 -0.9937 -0.1112
vn -0.1521 0.5339 0.8318
vn 0.3023 0.1149 0.9463
vn -0.1282 -0.7071 0.6954
vn 0.1195 -0.9081 -0.4012
vn 0.2156 -0.0423 -0.9755
vn 0.4091 0.3259 -0.8523
vn 0.0424 0.9656 -0.2564
vn 0.1063 -0.9865 -0.1245
vn -0.6488 0.0270 0.7605
vn -0.0758 0.9884 0.1317
vn 0.6110 0.3630 -0.7035
vn -0.5864 0.0348 0.8092
vn -0.4471 -0.3294 0.8316
vn -0.2770 0.8832 0.3784
vn 0.4248 -0.6809 -0.5966
vn 0.5942 -0.5602 -0.5771
vn -0.2512 -0.8939 0.3712
vn -0.8329 -0.3661 0.4148
vn -0.2765 0.9386 0.2060
vn 0.8542 -0.3383 -0.3948
vn 0.4166 0.7967 -0.4377
vn 0.2849 -0.8855 -0.3669
vn -0.6037 -0.4497 0.6582
vn 0.6364 0.4104 -0.6531
vn -0.3852 0.8572 0.3416
vn 0.7235 0.4787 -0.4974
vn 0.1509 -0.9826 -0.1077
vn -0.7080 -0.3356 0.6214
vn -0.8075 -0.3442 0.4789
vn -0.1327 0.9879 0.0805
vn 0.7804 -0.3034 -0.5466
vn -0.0144 -0.9680 0.2503
vn -0.2255 -0.8934 -0.3885
vn 0.3310 0.8862 0.3242
vn -0.5949 0.7956 -0.1142
vn -0.9226 -0.2356 -0.3055
vn 0.0165 0.2627 -0.9647
vn -0.0483 0.9958 -0.0776
vn 0.1687 -0.8105 0.5609
vn -0.3011 -0.5319 -0.7914
vn 0.2665 0.3059 0.9140
vn -0.5199 0.5559 -0.6486
vn 0.5952 -0.4848 0.6408
vn 0.4082 0.8066 0.4275
vn -0.0727 -0.9906 0.1155
vn -0.3270 -0.8565 -0.3994
vn 0.1299 0.9691 0.2098
vn 0.7147 -0.3146 0.6246
vn -0.6095 0.1818 -0.7716
vn -0.4459 -0.7873 -0.4257
vn -0.5227 0.3173 -0.7912
vn 0.4681 0.0902 0.8791
vn -0.2403 -0.5110 0.8253
vn -0.6864 0.3910 0.6131
vn 0.0169 -0.9751 -0.2211
usemtl SVGMat.3781
s 1
f 82//1 5//2 81//3
f 4//4 5//2 82//1
f 5//2 8//5 3//6
f 1//7 11//8 4//4
f 2//9 7//10 1//7
f 4//4 6//11 5//2
f 8//5 9//12 2//9
f 6//11 9//12 8//5
f 7//10 12//13 11//8
f 9//12 13//14 7//10
f 9//12 14//15 13//14
f 10//16 15//17 9//12
f 12//13 17//18 11//8
f 14//15 17//18 12//13
f 9//12 18//19 14//15
f 15//17 18//19 9//12
f 16//20 19//21 15//17
f 17//18 20//22 16//20
f 18//19 22//23 14//15
f 19//21 21//24 18//19
f 20//22 23//25 19//21
f 22//23 24//26 20//22
f 21//24 25//27 22//23
f 19//21 26//28 21//24
f 26//28 27//29 25//27
f 23//25 28//30 26//28
f 25//27 27//29 24//26
f 27//29 30//31 29//32
f 32//33 31//34 28//30
f 31//34 34//35 27//29
f 34//35 35//36 33//37
f 32//33 36//38 31//34
f 30//31 37//39 32//33
f 33//37 37//39 30//31
f 35//36 38//40 33//37
f 36//38 35//36 34//35
f 36//38 40//41 35//36
f 38//40 42//42 39//43
f 40//41 43//44 38//40
f 41//45 45//46 40//41
f 36//38 45//46 41//45
f 39//43 46//47 36//38
f 42//42 48//48 46//47
f 47//49 48//48 42//42
f 46//47 49//50 45//46
f 44//51 47//49 43//44
f 48//48 52//52 46//47
f 47//49 50//53 48//48
f 49//50 51//54 44//51
f 51//54 53//55 47//49
f 52//52 54//56 51//54
f 50//53 55//57 52//52
f 53//55 56//58 50//53
f 53//55 57//59 56//58
f 54//56 58//60 53//55
f 55//57 60//61 54//56
f 56//58 61//62 55//57
f 57//59 63//63 61//62
f 59//64 62//65 58//60
f 62//65 64//66 57//59
f 62//65 65//67 64//66
f 62//65 66//68 65//67
f 63//63 67//69 61//62
f 59//64 66//68 62//65
f 65//67 68//70 63//63
f 66//68 68//70 65//67
f 67//69 69//71 59//64
f 66//68 70//72 68//70
f 67//69 72//73 69//71
f 71//74 70//72 66//68
f 70//72 78//75 73//76
f 71//74 75//77 70//72
f 73//76 76//78 72//73
f 76//78 75//77 71//74
f 74//79 79//80 78//75
f 75//77 80//81 74//79
f 80//81 81//3 79//80
f 75//77 82//1 80//81
f 77//82 82//1 75//77
f 78//75 83//83 77//82
f 79//80 83//83 78//75
f 83//83 85//84 82//1
f 81//3 3//6 84//85
f 83//83 1//7 85//84
f 84//85 2//9 83//83
f 3//6 2//9 84//85
f 81//3 5//2 3//6
f 5//2 6//11 8//5
f 1//7 7//10 11//8
f 3//6 8//5 2//9
f 4//4 11//8 6//11
f 2//9 9//12 7//10
f 6//11 10//16 9//12
f 6//11 11//8 10//16
f 7//10 13//14 12//13
f 13//14 14//15 12//13
f 11//8 16//20 10//16
f 10//16 16//20 15//17
f 11//8 17//18 16//20
f 16//20 20//22 19//21
f 15//17 19//21 18//19
f 14//15 22//23 17//18
f 18//19 21//24 22//23
f 17//18 22//23 20//22
f 20//22 24//26 23//25
f 22//23 25//27 24//26
f 21//24 26//28 25//27
f 19//21 23//25 26//28
f 24//26 29//32 23//25
f 24//26 27//29 29//32
f 26//28 28//30 27//29
f 23//25 29//32 28//30
f 29//32 30//31 32//33
f 28//30 31//34 27//29
f 29//32 32//33 28//30
f 27//29 33//37 30//31
f 27//29 34//35 33//37
f 31//34 36//38 34//35
f 33//37 38//40 37//39
f 32//33 37//39 36//38
f 37//39 38//40 39//43
f 37//39 39//43 36//38
f 35//36 40//41 38//40
f 36//38 41//45 40//41
f 39//43 42//42 46//47
f 38//40 43//44 42//42
f 40//41 44//51 43//44
f 40//41 45//46 44//51
f 36//38 46//47 45//46
f 43//44 47//49 42//42
f 45//46 49//50 44//51
f 46//47 52//52 49//50
f 44//51 51//54 47//49
f 49//50 52//52 51//54
f 48//48 50//53 52//52
f 47//49 53//55 50//53
f 51//54 54//56 53//55
f 52//52 55//57 54//56
f 50//53 56//58 55//57
f 53//55 58//60 57//59
f 54//56 59//64 58//60
f 54//56 60//61 59//64
f 55//57 61//62 60//61
f 56//58 57//59 61//62
f 60//61 61//62 59//64
f 58//60 62//65 57//59
f 57//59 64//66 63//63
f 64//66 65//67 63//63
f 61//62 67//69 59//64
f 59//64 69//71 66//68
f 63//63 68//70 67//69
f 68//70 70//72 73//76
f 69//71 71//74 66//68
f 69//71 72//73 71//74
f 68//70 73//76 67//69
f 67//69 73//76 72//73
f 70//72 74//79 78//75
f 70//72 75//77 74//79
f 72//73 76//78 71//74
f 73//76 78//75 76//78
f 76//78 77//82 75//77
f 76//78 78//75 77//82
f 74//79 80//81 79//80
f 80//81 82//1 81//3
f 77//82 83//83 82//1
f 79//80 84//85 83//83
f 79//80 81//3 84//85
f 85//84 4//4 82//1
f 85//84 1//7 4//4
f 83//83 2//9 1//7
