# Blender v2.79 (sub 0) OBJ File: 'menu.blend'
# www.blender.org
mtllib menu4-outline.mtl
o lines-5segments_CUCurve.027
v 1.382345 0.000000 0.502212
v 1.381074 0.009929 0.498300
v 1.378006 0.014043 0.488857
v 1.374939 0.009929 0.479414
v 1.373668 0.000000 0.475501
v 1.374939 -0.009929 0.479414
v 1.378006 -0.014043 0.488857
v 1.381074 -0.009929 0.498300
v 0.711320 0.000000 0.720187
v 0.710049 0.009929 0.716275
v 0.706981 0.014043 0.706832
v 0.703914 0.009929 0.697389
v 0.702643 0.000000 0.693476
v 0.703914 -0.009929 0.697389
v 0.706981 -0.014043 0.706832
v 0.710049 -0.009929 0.716275
v 1.311013 0.000000 1.071704
v 1.313069 0.009929 1.068141
v 1.318033 0.014043 1.059542
v 1.322997 0.009929 1.050943
v 1.325053 0.000000 1.047380
v 1.322997 -0.009929 1.050943
v 1.318033 -0.014043 1.059542
v 1.313069 -0.009929 1.068141
v 0.699961 0.000000 0.718994
v 0.702018 0.009929 0.715431
v 0.706981 0.014043 0.706832
v 0.711945 0.009929 0.698233
v 0.714001 0.000000 0.694670
v 0.711945 -0.009929 0.698233
v 0.706981 -0.014043 0.706832
v 0.702018 -0.009929 0.715431
v 1.006779 0.000000 0.068100
v 1.003021 0.009929 0.066426
v 0.993950 0.014043 0.062387
v 0.984880 0.009929 0.058348
v 0.981122 0.000000 0.056675
v 0.984880 -0.009929 0.058348
v 0.993950 -0.014043 0.062387
v 1.003021 -0.009929 0.066426
v 0.719809 0.000000 0.712544
v 0.716051 0.009929 0.710871
v 0.706981 0.014043 0.706832
v 0.697911 0.009929 0.702793
v 0.694153 0.000000 0.701119
v 0.697911 -0.009929 0.702793
v 0.706981 -0.014043 0.706832
v 0.716051 -0.009929 0.710871
v 0.432840 0.000000 0.056675
v 0.429082 0.009929 0.058348
v 0.420012 0.014043 0.062387
v 0.410942 0.009929 0.066426
v 0.407183 0.000000 0.068100
v 0.410942 -0.009929 0.066426
v 0.420012 -0.014043 0.062387
v 0.429082 -0.009929 0.058348
v 0.719809 0.000000 0.701119
v 0.716051 0.009929 0.702793
v 0.706981 0.014043 0.706832
v 0.697911 0.009929 0.710871
v 0.694153 0.000000 0.712544
v 0.697911 -0.009929 0.710871
v 0.706981 -0.014043 0.706832
v 0.716051 -0.009929 0.702793
v 0.040294 0.000000 0.475501
v 0.039023 0.009929 0.479414
v 0.035956 0.014043 0.488857
v 0.032888 0.009929 0.498300
v 0.031617 0.000000 0.502212
v 0.032888 -0.009929 0.498300
v 0.035956 -0.014043 0.488857
v 0.039023 -0.009929 0.479414
v 0.711320 0.000000 0.693476
v 0.710049 0.009929 0.697389
v 0.706981 0.014043 0.706832
v 0.703914 0.009929 0.716275
v 0.702643 0.000000 0.720187
v 0.703914 -0.009929 0.716275
v 0.706981 -0.014043 0.706832
v 0.710049 -0.009929 0.697389
v 0.088909 0.000000 1.047380
v 0.090966 0.009929 1.050943
v 0.095929 0.014043 1.059542
v 0.100893 0.009929 1.068141
v 0.102949 0.000000 1.071704
v 0.100893 -0.009929 1.068141
v 0.095929 -0.014043 1.059542
v 0.090966 -0.009929 1.050943
v 0.699961 0.000000 0.694670
v 0.702018 0.009929 0.698233
v 0.706981 0.014043 0.706832
v 0.711945 0.009929 0.715431
v 0.714001 0.000000 0.718994
v 0.711945 -0.009929 0.715431
v 0.706981 -0.014043 0.706832
v 0.702018 -0.009929 0.698233
vn 0.3089 0.0000 0.9511
vn 0.2185 -0.7071 0.6725
vn 0.2185 0.7071 0.6725
vn 0.0000 1.0000 0.0000
vn -0.2185 0.7071 -0.6725
vn -0.3089 0.0000 -0.9511
vn -0.2185 -0.7071 -0.6725
vn 0.0000 -1.0000 0.0000
vn -0.4999 0.0000 0.8661
vn -0.3535 -0.7071 0.6124
vn -0.3535 0.7071 0.6124
vn 0.3535 0.7071 -0.6124
vn 0.4999 0.0000 -0.8661
vn 0.3535 -0.7071 -0.6124
vn 0.9135 0.0000 0.4068
vn 0.6460 -0.7071 0.2876
vn 0.6460 0.7071 0.2876
vn -0.6460 0.7071 -0.2876
vn -0.9135 0.0000 -0.4068
vn -0.6460 -0.7071 -0.2876
vn 0.9135 0.0000 -0.4068
vn 0.6460 -0.7071 -0.2876
vn 0.6460 0.7071 -0.2876
vn -0.6460 0.7071 0.2876
vn -0.9135 0.0000 0.4068
vn -0.6460 -0.7071 0.2876
vn 0.3089 0.0000 -0.9511
vn 0.2185 -0.7071 -0.6725
vn 0.2185 0.7071 -0.6725
vn -0.2185 0.7071 0.6725
vn -0.3089 0.0000 0.9511
vn -0.2185 -0.7071 0.6725
vn -0.4999 0.0000 -0.8661
vn -0.3535 -0.7071 -0.6124
vn -0.3535 0.7071 -0.6124
vn 0.3535 0.7071 0.6124
vn 0.4999 0.0000 0.8661
vn 0.3535 -0.7071 0.6124
usemtl None
s 1
f 1//1 9//1 16//2 8//2
f 2//3 10//3 9//1 1//1
f 3//4 11//4 10//3 2//3
f 4//5 12//5 11//4 3//4
f 5//6 13//6 12//5 4//5
f 6//7 14//7 13//6 5//6
f 7//8 15//8 14//7 6//7
f 8//2 16//2 15//8 7//8
f 17//9 25//9 32//10 24//10
f 18//11 26//11 25//9 17//9
f 19//4 27//4 26//11 18//11
f 20//12 28//12 27//4 19//4
f 21//13 29//13 28//12 20//12
f 22//14 30//14 29//13 21//13
f 23//8 31//8 30//14 22//14
f 24//10 32//10 31//8 23//8
f 33//15 41//15 48//16 40//16
f 34//17 42//17 41//15 33//15
f 35//4 43//4 42//17 34//17
f 36//18 44//18 43//4 35//4
f 37//19 45//19 44//18 36//18
f 38//20 46//20 45//19 37//19
f 39//8 47//8 46//20 38//20
f 40//16 48//16 47//8 39//8
f 49//21 57//21 64//22 56//22
f 50//23 58//23 57//21 49//21
f 51//4 59//4 58//23 50//23
f 52//24 60//24 59//4 51//4
f 53//25 61//25 60//24 52//24
f 54//26 62//26 61//25 53//25
f 55//8 63//8 62//26 54//26
f 56//22 64//22 63//8 55//8
f 65//27 73//27 80//28 72//28
f 66//29 74//29 73//27 65//27
f 67//4 75//4 74//29 66//29
f 68//30 76//30 75//4 67//4
f 69//31 77//31 76//30 68//30
f 70//32 78//32 77//31 69//31
f 71//8 79//8 78//32 70//32
f 72//28 80//28 79//8 71//8
f 81//33 89//33 96//34 88//34
f 82//35 90//35 89//33 81//33
f 83//4 91//4 90//35 82//35
f 84//36 92//36 91//4 83//4
f 85//37 93//37 92//36 84//36
f 86//38 94//38 93//37 85//37
f 87//8 95//8 94//38 86//38
f 88//34 96//34 95//8 87//8
