# Blender v2.79 (sub 0) OBJ File: 'menu.blend'
# www.blender.org
mtllib segment5-2.mtl
o segment5-2_CUCurve.107
v 0.419955 0.000000 0.062275
v 0.397583 0.000000 0.072734
v 0.375623 0.000000 0.083950
v 0.354093 0.000000 0.095910
v 0.333012 0.000000 0.108600
v 0.312396 0.000000 0.122007
v 0.292265 0.000000 0.136118
v 0.272637 0.000000 0.150920
v 0.253529 0.000000 0.166400
v 0.234960 0.000000 0.182544
v 0.216949 0.000000 0.199339
v 0.199512 0.000000 0.216772
v 0.182668 0.000000 0.234831
v 0.166464 0.000000 0.253466
v 0.150945 0.000000 0.272625
v 0.136120 0.000000 0.292290
v 0.122001 0.000000 0.312440
v 0.108600 0.000000 0.333057
v 0.095927 0.000000 0.354120
v 0.083994 0.000000 0.375611
v 0.072811 0.000000 0.397510
v 0.062391 0.000000 0.419798
v 0.052744 0.000000 0.442455
v 0.043882 0.000000 0.465463
v 0.035815 0.000000 0.488800
v 0.044748 0.000000 0.491702
v 0.069994 0.000000 0.499904
v 0.109224 0.000000 0.512647
v 0.160105 0.000000 0.529176
v 0.220308 0.000000 0.548734
v 0.287502 0.000000 0.570562
v 0.359357 0.000000 0.593904
v 0.433543 0.000000 0.618004
v 0.507729 0.000000 0.642104
v 0.579584 0.000000 0.665446
v 0.646778 0.000000 0.687275
v 0.706981 0.000000 0.706832
v 0.681235 0.000000 0.649016
v 0.652499 0.000000 0.584485
v 0.621770 0.000000 0.515479
v 0.590045 0.000000 0.444234
v 0.558319 0.000000 0.372990
v 0.527590 0.000000 0.303984
v 0.498854 0.000000 0.239453
v 0.473108 0.000000 0.181637
v 0.451349 0.000000 0.132773
v 0.434572 0.000000 0.095099
v 0.423776 0.000000 0.070854
v 0.052744 0.050000 0.442455
v 0.043882 0.050000 0.465463
v 0.044748 0.050000 0.491702
v 0.069994 0.050000 0.499904
v 0.590045 0.050000 0.444234
v 0.375623 0.050000 0.083950
v 0.354093 0.050000 0.095910
v 0.434572 0.050000 0.095099
v 0.182668 0.050000 0.234831
v 0.498854 0.050000 0.239453
v 0.122001 0.050000 0.312440
v 0.527590 0.050000 0.303984
v 0.397583 0.050000 0.072734
v 0.423776 0.050000 0.070854
v 0.646778 0.050000 0.687275
v 0.681235 0.050000 0.649016
v 0.433543 0.050000 0.618004
v 0.507729 0.050000 0.642104
v 0.220308 0.050000 0.548734
v 0.652499 0.050000 0.584485
v 0.035815 0.050000 0.488800
v 0.166464 0.050000 0.253466
v 0.312396 0.050000 0.122007
v 0.451349 0.050000 0.132773
v 0.333012 0.050000 0.108600
v 0.706981 0.050000 0.706832
v 0.359357 0.050000 0.593904
v 0.621770 0.050000 0.515479
v 0.234960 0.050000 0.182544
v 0.216949 0.050000 0.199339
v 0.160105 0.050000 0.529176
v 0.558319 0.050000 0.372990
v 0.473108 0.050000 0.181637
v 0.287502 0.050000 0.570562
v 0.083994 0.050000 0.375611
v 0.199512 0.050000 0.216772
v 0.292265 0.050000 0.136118
v 0.579584 0.050000 0.665446
v 0.062391 0.050000 0.419798
v 0.108600 0.050000 0.333057
v 0.136120 0.050000 0.292290
v 0.419955 0.050000 0.062275
v 0.150945 0.050000 0.272625
v 0.072811 0.050000 0.397510
v 0.109224 0.050000 0.512647
v 0.272637 0.050000 0.150920
v 0.095927 0.050000 0.354120
v 0.253529 0.050000 0.166400
vn 0.0000 -1.0000 0.0000
vn 0.0000 1.0000 0.0000
vn 0.9135 0.0000 -0.4068
vn -0.3090 0.0000 0.9511
vn -0.5452 0.0000 -0.8383
vn -0.5740 0.0000 -0.8189
vn -0.8743 0.0000 -0.4855
vn -0.8190 0.0000 -0.5738
vn -0.4235 0.0000 -0.9059
vn -0.9451 0.0000 -0.3267
vn -0.9059 0.0000 -0.4235
vn -0.7546 0.0000 -0.6562
vn -0.7985 0.0000 -0.6020
vn -0.9332 0.0000 -0.3595
vn -0.7771 0.0000 -0.6294
vn -0.6561 0.0000 -0.7547
vn -0.5157 0.0000 -0.8568
vn -0.4856 0.0000 -0.8742
vn -0.4549 0.0000 -0.8906
vn -0.9201 0.0000 -0.3917
vn -0.6295 0.0000 -0.7770
vn -0.7313 0.0000 -0.6821
vn -0.6820 0.0000 -0.7314
vn -0.8384 0.0000 -0.5450
vn -0.7070 0.0000 -0.7072
vn -0.8569 0.0000 -0.5155
vn -0.8906 0.0000 -0.4548
vn -0.6021 0.0000 -0.7984
usemtl SVGMat.002
s off
f 2//1 1//1 48//1
f 2//1 48//1 47//1
f 3//1 2//1 47//1
f 4//1 3//1 47//1
f 4//1 47//1 46//1
f 5//1 4//1 46//1
f 6//1 5//1 46//1
f 7//1 6//1 46//1
f 7//1 46//1 45//1
f 8//1 7//1 45//1
f 9//1 8//1 45//1
f 10//1 9//1 45//1
f 10//1 45//1 44//1
f 11//1 10//1 44//1
f 12//1 11//1 44//1
f 13//1 12//1 44//1
f 14//1 13//1 44//1
f 14//1 44//1 43//1
f 15//1 14//1 43//1
f 16//1 15//1 43//1
f 17//1 16//1 43//1
f 17//1 43//1 42//1
f 18//1 17//1 42//1
f 19//1 18//1 42//1
f 20//1 19//1 42//1
f 20//1 42//1 41//1
f 21//1 20//1 41//1
f 22//1 21//1 41//1
f 23//1 22//1 41//1
f 24//1 23//1 41//1
f 24//1 41//1 40//1
f 25//1 24//1 40//1
f 26//1 25//1 40//1
f 27//1 26//1 40//1
f 28//1 27//1 40//1
f 29//1 28//1 40//1
f 29//1 40//1 39//1
f 30//1 29//1 39//1
f 31//1 30//1 39//1
f 32//1 31//1 39//1
f 32//1 39//1 38//1
f 33//1 32//1 38//1
f 34//1 33//1 38//1
f 35//1 34//1 38//1
f 35//1 38//1 36//1
f 36//1 38//1 37//1
f 61//2 62//2 90//2
f 61//2 56//2 62//2
f 54//2 56//2 61//2
f 55//2 56//2 54//2
f 55//2 72//2 56//2
f 73//2 72//2 55//2
f 71//2 72//2 73//2
f 85//2 72//2 71//2
f 85//2 81//2 72//2
f 94//2 81//2 85//2
f 96//2 81//2 94//2
f 77//2 81//2 96//2
f 77//2 58//2 81//2
f 78//2 58//2 77//2
f 84//2 58//2 78//2
f 57//2 58//2 84//2
f 70//2 58//2 57//2
f 70//2 60//2 58//2
f 91//2 60//2 70//2
f 89//2 60//2 91//2
f 59//2 60//2 89//2
f 59//2 80//2 60//2
f 88//2 80//2 59//2
f 95//2 80//2 88//2
f 83//2 80//2 95//2
f 83//2 53//2 80//2
f 92//2 53//2 83//2
f 87//2 53//2 92//2
f 49//2 53//2 87//2
f 50//2 53//2 49//2
f 50//2 76//2 53//2
f 69//2 76//2 50//2
f 51//2 76//2 69//2
f 52//2 76//2 51//2
f 93//2 76//2 52//2
f 79//2 76//2 93//2
f 79//2 68//2 76//2
f 67//2 68//2 79//2
f 82//2 68//2 67//2
f 75//2 68//2 82//2
f 75//2 64//2 68//2
f 65//2 64//2 75//2
f 66//2 64//2 65//2
f 86//2 64//2 66//2
f 86//2 63//2 64//2
f 63//2 74//2 64//2
f 47//3 48//3 62//3 56//3
f 29//4 30//4 67//4 79//4
f 5//5 6//5 71//5 73//5
f 37//3 38//3 64//3 74//3
f 6//6 7//6 85//6 71//6
f 33//4 34//4 66//4 65//4
f 31//4 32//4 75//4 82//4
f 19//7 20//7 83//7 95//7
f 38//3 39//3 68//3 64//3
f 16//8 17//8 59//8 89//8
f 1//9 2//9 61//9 90//9
f 24//10 25//10 69//10 50//10
f 48//3 1//3 90//3 62//3
f 21//11 22//11 87//11 92//11
f 30//4 31//4 82//4 67//4
f 13//12 14//12 70//12 57//12
f 15//13 16//13 89//13 91//13
f 23//14 24//14 50//14 49//14
f 25//4 26//4 51//4 69//4
f 14//15 15//15 91//15 70//15
f 26//4 27//4 52//4 51//4
f 9//16 10//16 77//16 96//16
f 4//17 5//17 73//17 55//17
f 28//4 29//4 79//4 93//4
f 36//4 37//4 74//4 63//4
f 45//3 46//3 72//3 81//3
f 3//18 4//18 55//18 54//18
f 35//4 36//4 63//4 86//4
f 27//4 28//4 93//4 52//4
f 41//3 42//3 80//3 53//3
f 2//19 3//19 54//19 61//19
f 46//3 47//3 56//3 72//3
f 34//4 35//4 86//4 66//4
f 39//3 40//3 76//3 68//3
f 22//20 23//20 49//20 87//20
f 8//21 9//21 96//21 94//21
f 12//22 13//22 57//22 84//22
f 10//23 11//23 78//23 77//23
f 17//24 18//24 88//24 59//24
f 40//3 41//3 53//3 76//3
f 11//25 12//25 84//25 78//25
f 43//3 44//3 58//3 60//3
f 18//26 19//26 95//26 88//26
f 42//3 43//3 60//3 80//3
f 20//27 21//27 92//27 83//27
f 44//3 45//3 81//3 58//3
f 7//28 8//28 94//28 85//28
f 32//4 33//4 65//4 75//4
