# Blender v2.79 (sub 0) OBJ File: 'menu.blend'
# www.blender.org
mtllib segment5-3.mtl
o segment5-3_CUCurve.109
v 0.706981 0.000000 0.706832
v 0.994007 0.000000 0.062275
v 0.971265 0.000000 0.052647
v 0.948235 0.000000 0.043833
v 0.924941 0.000000 0.035835
v 0.901403 0.000000 0.028660
v 0.877644 0.000000 0.022312
v 0.853686 0.000000 0.016795
v 0.829551 0.000000 0.012114
v 0.805260 0.000000 0.008273
v 0.780836 0.000000 0.005278
v 0.756300 0.000000 0.003133
v 0.731674 0.000000 0.001843
v 0.706981 0.000000 0.001412
v 0.682288 0.000000 0.001843
v 0.657662 0.000000 0.003133
v 0.633126 0.000000 0.005278
v 0.608702 0.000000 0.008273
v 0.584411 0.000000 0.012114
v 0.560276 0.000000 0.016795
v 0.536318 0.000000 0.022312
v 0.512559 0.000000 0.028660
v 0.489021 0.000000 0.035835
v 0.465727 0.000000 0.043833
v 0.442698 0.000000 0.052647
v 0.419955 0.000000 0.062275
v 0.423776 0.000000 0.070854
v 0.434572 0.000000 0.095099
v 0.451349 0.000000 0.132773
v 0.473108 0.000000 0.181637
v 0.498854 0.000000 0.239453
v 0.527590 0.000000 0.303983
v 0.558319 0.000000 0.372990
v 0.590045 0.000000 0.444234
v 0.621770 0.000000 0.515479
v 0.652499 0.000000 0.584485
v 0.681235 0.000000 0.649016
v 0.948235 0.050000 0.043833
v 0.442698 0.050000 0.052647
v 0.489021 0.050000 0.035835
v 0.465727 0.050000 0.043833
v 0.419955 0.050000 0.062275
v 0.423776 0.050000 0.070854
v 0.971265 0.050000 0.052647
v 0.829551 0.050000 0.012114
v 0.584411 0.050000 0.012114
v 0.756300 0.050000 0.003133
v 0.682288 0.050000 0.001843
v 0.853686 0.050000 0.016795
v 0.780836 0.050000 0.005278
v 0.633126 0.050000 0.005278
v 0.498854 0.050000 0.239453
v 0.558319 0.050000 0.372990
v 0.877644 0.050000 0.022312
v 0.536318 0.050000 0.022312
v 0.994007 0.050000 0.062275
v 0.590045 0.050000 0.444234
v 0.731674 0.050000 0.001843
v 0.706981 0.050000 0.001412
v 0.706981 0.050000 0.706832
v 0.681235 0.050000 0.649016
v 0.924941 0.050000 0.035835
v 0.652499 0.050000 0.584485
v 0.608702 0.050000 0.008273
v 0.805260 0.050000 0.008273
v 0.901403 0.050000 0.028660
v 0.657662 0.050000 0.003133
v 0.527590 0.050000 0.303983
v 0.560276 0.050000 0.016795
v 0.473108 0.050000 0.181637
v 0.621770 0.050000 0.515479
v 0.512559 0.050000 0.028660
v 0.451349 0.050000 0.132773
v 0.434572 0.050000 0.095099
vn 0.0000 -1.0000 0.0000
vn 0.0000 0.0000 1.0000
vn 0.0000 1.0000 0.0000
vn -0.9135 0.0000 0.4068
vn 0.1904 0.0000 -0.9817
vn 0.0523 0.0000 -0.9986
vn -0.2916 0.0000 -0.9565
vn -0.2244 0.0000 -0.9745
vn -0.3575 0.0000 -0.9339
vn 0.2244 0.0000 -0.9745
vn -0.1562 0.0000 -0.9877
vn -0.3247 0.0000 -0.9458
vn 0.0175 0.0000 -0.9998
vn -0.2581 0.0000 -0.9661
vn 0.3575 0.0000 -0.9339
vn -0.1217 0.0000 -0.9926
vn -0.0175 0.0000 -0.9998
vn 0.3247 0.0000 -0.9458
vn -0.1904 0.0000 -0.9817
vn -0.0871 0.0000 -0.9962
vn -0.0523 0.0000 -0.9986
vn 0.0871 0.0000 -0.9962
vn 0.1217 0.0000 -0.9926
vn 0.1562 0.0000 -0.9877
vn 0.3898 0.0000 -0.9209
vn 0.2581 0.0000 -0.9661
vn 0.2916 0.0000 -0.9565
vn -0.3898 0.0000 -0.9209
vn 0.9135 0.0000 0.4068
usemtl SVGMat.002
s off
f 15//1 14//1 13//1
f 15//1 13//1 12//1
f 16//1 15//1 12//1
f 16//1 12//1 11//1
f 17//1 16//1 11//1
f 17//1 11//1 10//1
f 18//1 17//1 10//1
f 18//1 10//1 9//1
f 19//1 18//1 9//1
f 19//1 9//1 8//1
f 20//1 19//1 8//1
f 20//1 8//1 7//1
f 21//1 20//1 7//1
f 21//1 7//1 6//1
f 22//1 21//1 6//1
f 22//1 6//1 5//1
f 23//1 22//1 5//1
f 23//1 5//1 4//1
f 24//1 23//1 4//1
f 25//1 24//1 4//1
f 25//1 4//1 3//1
f 26//1 25//1 3//1
f 26//1 3//1 2//1
f 27//1 26//1 2//1
f 27//1 2//1 33//1
f 33//1 2//1 37//1
f 37//1 2//1 1//1
f 28//1 27//1 29//1
f 29//2 27//2 30//2
f 30//2 27//2 31//2
f 31//3 27//3 33//3
f 32//2 31//2 33//2
f 34//3 33//3 37//3
f 35//1 34//1 37//1
f 36//2 35//2 37//2
f 48//3 58//3 59//3
f 48//3 47//3 58//3
f 67//3 47//3 48//3
f 67//3 50//3 47//3
f 51//3 50//3 67//3
f 51//3 65//3 50//3
f 64//3 65//3 51//3
f 64//3 45//3 65//3
f 46//3 45//3 64//3
f 46//3 49//3 45//3
f 69//3 49//3 46//3
f 69//3 54//3 49//3
f 55//3 54//3 69//3
f 55//3 66//3 54//3
f 72//3 66//3 55//3
f 72//3 62//3 66//3
f 40//3 62//3 72//3
f 40//3 38//3 62//3
f 41//3 38//3 40//3
f 39//3 38//3 41//3
f 39//3 44//3 38//3
f 42//3 44//3 39//3
f 42//3 56//3 44//3
f 43//3 56//3 42//3
f 43//3 53//3 56//3
f 53//3 61//3 56//3
f 61//3 60//3 56//3
f 74//3 73//3 43//3
f 73//2 70//2 43//2
f 70//2 52//2 43//2
f 52//1 53//1 43//1
f 68//2 53//2 52//2
f 57//1 61//1 53//1
f 71//3 61//3 57//3
f 63//2 61//2 71//2
f 31//4 32//4 68//4 52//4
f 8//5 9//5 45//5 49//5
f 35//4 36//4 63//4 71//4
f 33//4 34//4 57//4 53//4
f 12//6 13//6 58//6 47//6
f 22//7 23//7 40//7 72//7
f 20//8 21//8 55//8 69//8
f 24//9 25//9 39//9 41//9
f 7//10 8//10 49//10 54//10
f 18//11 19//11 46//11 64//11
f 23//12 24//12 41//12 40//12
f 13//13 14//13 59//13 58//13
f 29//4 30//4 70//4 73//4
f 26//4 27//4 43//4 42//4
f 21//14 22//14 72//14 55//14
f 37//4 1//4 60//4 61//4
f 3//15 4//15 38//15 44//15
f 17//16 18//16 64//16 51//16
f 14//17 15//17 48//17 59//17
f 4//18 5//18 62//18 38//18
f 19//19 20//19 69//19 46//19
f 32//4 33//4 53//4 68//4
f 28//4 29//4 73//4 74//4
f 36//4 37//4 61//4 63//4
f 16//20 17//20 51//20 67//20
f 30//4 31//4 52//4 70//4
f 15//21 16//21 67//21 48//21
f 11//22 12//22 47//22 50//22
f 10//23 11//23 50//23 65//23
f 9//24 10//24 65//24 45//24
f 2//25 3//25 44//25 56//25
f 6//26 7//26 54//26 66//26
f 5//27 6//27 66//27 62//27
f 27//4 28//4 74//4 43//4
f 25//28 26//28 42//28 39//28
f 1//29 2//29 56//29 60//29
f 34//4 35//4 71//4 57//4
