# Blender v2.79 (sub 0) OBJ File: 'menu.blend'
# www.blender.org
mtllib segment-bottom.mtl
o segment-bottom_CUCurve.097
v 0.298343 0.000000 0.942696
v 0.095845 0.000000 1.059542
v 0.117576 0.000000 1.094729
v 0.141226 0.000000 1.128440
v 0.166714 0.000000 1.160608
v 0.193960 0.000000 1.191167
v 0.222884 0.000000 1.220049
v 0.253407 0.000000 1.247188
v 0.285449 0.000000 1.272516
v 0.318930 0.000000 1.295967
v 0.353770 0.000000 1.317473
v 0.389890 0.000000 1.336969
v 0.427209 0.000000 1.354386
v 0.465648 0.000000 1.369659
v 0.504915 0.000000 1.382655
v 0.544703 0.000000 1.393288
v 0.584908 0.000000 1.401558
v 0.625426 0.000000 1.407465
v 0.666151 0.000000 1.411010
v 0.706981 0.000000 1.412191
v 0.747811 0.000000 1.411010
v 0.788537 0.000000 1.407465
v 0.829054 0.000000 1.401558
v 0.869259 0.000000 1.393288
v 0.909047 0.000000 1.382655
v 0.948314 0.000000 1.369659
v 0.986753 0.000000 1.354386
v 1.024073 0.000000 1.336969
v 1.060192 0.000000 1.317474
v 1.095032 0.000000 1.295967
v 1.128513 0.000000 1.272516
v 1.160555 0.000000 1.247188
v 1.191078 0.000000 1.220049
v 1.220002 0.000000 1.191167
v 1.247248 0.000000 1.160608
v 1.272736 0.000000 1.128440
v 1.296386 0.000000 1.094729
v 1.318117 0.000000 1.059542
v 1.309983 0.000000 1.054848
v 1.286995 0.000000 1.041580
v 1.251274 0.000000 1.020965
v 1.204944 0.000000 0.994226
v 1.150126 0.000000 0.962588
v 1.088941 0.000000 0.927276
v 1.023513 0.000000 0.889515
v 0.955963 0.000000 0.850529
v 0.888412 0.000000 0.811543
v 0.822984 0.000000 0.773782
v 0.761799 0.000000 0.738470
v 0.706981 0.000000 0.706832
v 0.829054 0.050000 1.401558
v 0.869259 0.050000 1.393288
v 0.465648 0.050000 1.369659
v 0.948314 0.050000 1.369659
v 0.253407 0.050000 1.247188
v 1.160555 0.050000 1.247188
v 0.986753 0.050000 1.354386
v 0.117576 0.050000 1.094729
v 0.141226 0.050000 1.128440
v 0.298343 0.050000 0.942696
v 1.088941 0.050000 0.927276
v 0.193960 0.050000 1.191167
v 1.247248 0.050000 1.160608
v 0.706981 0.050000 0.706832
v 0.544703 0.050000 1.393288
v 1.150126 0.050000 0.962588
v 0.222884 0.050000 1.220049
v 1.220002 0.050000 1.191167
v 0.909047 0.050000 1.382655
v 0.427209 0.050000 1.354386
v 1.191078 0.050000 1.220049
v 0.166714 0.050000 1.160608
v 1.272736 0.050000 1.128440
v 0.353770 0.050000 1.317473
v 1.095032 0.050000 1.295967
v 0.666151 0.050000 1.411010
v 0.788537 0.050000 1.407465
v 0.318930 0.050000 1.295967
v 1.296386 0.050000 1.094729
v 1.204944 0.050000 0.994226
v 0.761799 0.050000 0.738470
v 1.128513 0.050000 1.272516
v 0.095845 0.050000 1.059542
v 1.318117 0.050000 1.059542
v 0.625426 0.050000 1.407465
v 0.584908 0.050000 1.401558
v 1.060192 0.050000 1.317474
v 0.285449 0.050000 1.272516
v 0.747811 0.050000 1.411010
v 1.286995 0.050000 1.041580
v 0.822984 0.050000 0.773782
v 0.504915 0.050000 1.382655
v 1.023513 0.050000 0.889515
v 0.955963 0.050000 0.850529
v 0.706981 0.050000 1.412191
v 0.888412 0.050000 0.811543
v 1.309983 0.050000 1.054848
v 1.024073 0.050000 1.336969
v 0.389890 0.050000 1.336969
v 1.251274 0.050000 1.020965
vn 0.0000 -1.0000 0.0000
vn 0.0000 1.0000 -0.0000
vn 0.5253 0.0000 0.8509
vn 0.4999 0.0000 -0.8661
vn -0.4998 0.0000 -0.8661
vn -0.2582 0.0000 0.9661
vn 0.3692 0.0000 0.9293
vn 0.5737 0.0000 0.8191
vn -0.7838 0.0000 0.6210
vn -0.8186 0.0000 0.5743
vn 0.1443 0.0000 0.9895
vn 0.3142 0.0000 0.9494
vn 0.7838 0.0000 0.6210
vn -0.5737 0.0000 0.8191
vn -0.5253 0.0000 0.8509
vn -0.8508 0.0000 0.5255
vn 0.0867 0.0000 0.9962
vn -0.1443 0.0000 0.9895
vn 0.8186 0.0000 0.5743
vn -0.3142 0.0000 0.9494
vn -0.4999 0.0000 -0.8661
vn 0.7464 0.0000 0.6655
vn 0.4750 0.0000 0.8800
vn -0.4229 0.0000 0.9062
vn -0.7464 0.0000 0.6655
vn -0.6645 0.0000 0.7473
vn 0.4229 0.0000 0.9062
vn -0.0867 0.0000 0.9962
vn -0.6201 0.0000 0.7845
vn 0.8508 0.0000 0.5255
vn -0.4750 0.0000 0.8800
vn 0.2582 0.0000 0.9661
vn 0.6201 0.0000 0.7845
vn -0.0289 0.0000 0.9996
vn -0.3692 0.0000 0.9293
vn 0.6645 0.0000 0.7473
vn -0.7066 0.0000 0.7076
vn 0.0289 0.0000 0.9996
vn 0.2015 0.0000 0.9795
vn -0.2015 0.0000 0.9795
vn 0.7066 0.0000 0.7076
usemtl SVGMat.002
s off
f 1//1 50//1 49//1
f 1//1 49//1 48//1
f 1//1 48//1 47//1
f 1//1 47//1 46//1
f 1//1 46//1 45//1
f 1//1 45//1 44//1
f 1//1 44//1 43//1
f 2//1 1//1 43//1
f 2//1 43//1 42//1
f 2//1 42//1 41//1
f 2//1 41//1 40//1
f 2//1 40//1 39//1
f 2//1 39//1 38//1
f 3//1 2//1 38//1
f 3//1 38//1 37//1
f 4//1 3//1 37//1
f 4//1 37//1 36//1
f 5//1 4//1 36//1
f 5//1 36//1 35//1
f 6//1 5//1 35//1
f 6//1 35//1 34//1
f 7//1 6//1 34//1
f 7//1 34//1 33//1
f 8//1 7//1 33//1
f 8//1 33//1 32//1
f 9//1 8//1 32//1
f 9//1 32//1 31//1
f 10//1 9//1 31//1
f 10//1 31//1 30//1
f 11//1 10//1 30//1
f 11//1 30//1 29//1
f 12//1 11//1 29//1
f 12//1 29//1 28//1
f 13//1 12//1 28//1
f 13//1 28//1 27//1
f 14//1 13//1 27//1
f 14//1 27//1 26//1
f 15//1 14//1 26//1
f 15//1 26//1 25//1
f 16//1 15//1 25//1
f 16//1 25//1 24//1
f 17//1 16//1 24//1
f 17//1 24//1 23//1
f 18//1 17//1 23//1
f 18//1 23//1 22//1
f 19//1 18//1 22//1
f 19//1 22//1 21//1
f 20//1 19//1 21//1
f 60//2 81//2 64//2
f 60//2 91//2 81//2
f 60//2 96//2 91//2
f 60//2 94//2 96//2
f 60//2 93//2 94//2
f 60//2 61//2 93//2
f 60//2 66//2 61//2
f 83//2 66//2 60//2
f 83//2 80//2 66//2
f 83//2 100//2 80//2
f 83//2 90//2 100//2
f 83//2 97//2 90//2
f 83//2 84//2 97//2
f 58//2 84//2 83//2
f 58//2 79//2 84//2
f 59//2 79//2 58//2
f 59//2 73//2 79//2
f 72//2 73//2 59//2
f 72//2 63//2 73//2
f 62//2 63//2 72//2
f 62//2 68//2 63//2
f 67//2 68//2 62//2
f 67//2 71//2 68//2
f 55//2 71//2 67//2
f 55//2 56//2 71//2
f 88//2 56//2 55//2
f 88//2 82//2 56//2
f 78//2 82//2 88//2
f 78//2 75//2 82//2
f 74//2 75//2 78//2
f 74//2 87//2 75//2
f 99//2 87//2 74//2
f 99//2 98//2 87//2
f 70//2 98//2 99//2
f 70//2 57//2 98//2
f 53//2 57//2 70//2
f 53//2 54//2 57//2
f 92//2 54//2 53//2
f 92//2 69//2 54//2
f 65//2 69//2 92//2
f 65//2 52//2 69//2
f 86//2 52//2 65//2
f 86//2 51//2 52//2
f 85//2 51//2 86//2
f 85//2 77//2 51//2
f 76//2 77//2 85//2
f 76//2 89//2 77//2
f 95//2 89//2 76//2
f 29//3 30//3 75//3 87//3
f 38//4 39//4 97//4 84//4
f 1//5 2//5 83//5 60//5
f 15//6 16//6 65//6 92//6
f 26//7 27//7 57//7 54//7
f 49//4 50//4 64//4 81//4
f 30//8 31//8 82//8 75//8
f 4//9 5//9 72//9 59//9
f 3//10 4//10 59//10 58//10
f 22//11 23//11 51//11 77//11
f 48//4 49//4 81//4 91//4
f 25//12 26//12 54//12 69//12
f 47//4 48//4 91//4 96//4
f 35//13 36//13 73//13 63//13
f 9//14 10//14 78//14 88//14
f 10//15 11//15 74//15 78//15
f 2//16 3//16 58//16 83//16
f 21//17 22//17 77//17 89//17
f 17//18 18//18 85//18 86//18
f 36//19 37//19 79//19 73//19
f 45//4 46//4 94//4 93//4
f 14//20 15//20 92//20 53//20
f 50//21 1//21 60//21 64//21
f 41//4 42//4 80//4 100//4
f 34//22 35//22 63//22 68//22
f 28//23 29//23 87//23 98//23
f 12//24 13//24 70//24 99//24
f 5//25 6//25 62//25 72//25
f 7//26 8//26 55//26 67//26
f 43//4 44//4 61//4 66//4
f 27//27 28//27 98//27 57//27
f 18//28 19//28 76//28 85//28
f 42//4 43//4 66//4 80//4
f 46//4 47//4 96//4 94//4
f 8//29 9//29 88//29 55//29
f 37//30 38//30 84//30 79//30
f 11//31 12//31 99//31 74//31
f 24//32 25//32 69//32 52//32
f 44//4 45//4 93//4 61//4
f 31//33 32//33 56//33 82//33
f 19//34 20//34 95//34 76//34
f 39//4 40//4 90//4 97//4
f 13//35 14//35 53//35 70//35
f 32//36 33//36 71//36 56//36
f 40//4 41//4 100//4 90//4
f 6//37 7//37 67//37 62//37
f 20//38 21//38 89//38 95//38
f 23//39 24//39 52//39 51//39
f 16//40 17//40 86//40 65//40
f 33//41 34//41 68//41 71//41
