# Blender v2.79 (sub 0) OBJ File: 'menu.blend'
# www.blender.org
mtllib segment4-1.mtl
o segment4-1_CUCurve.060
v 0.706981 0.000000 0.706832
v 0.095845 0.000000 0.354121
v 0.080995 0.000000 0.381230
v 0.067377 0.000000 0.408895
v 0.055003 0.000000 0.437074
v 0.043883 0.000000 0.465724
v 0.034028 0.000000 0.494805
v 0.025451 0.000000 0.524272
v 0.018162 0.000000 0.554084
v 0.012174 0.000000 0.584198
v 0.007496 0.000000 0.614572
v 0.004140 0.000000 0.645164
v 0.002119 0.000000 0.675932
v 0.001443 0.000000 0.706832
v 0.002119 0.000000 0.737732
v 0.004140 0.000000 0.768499
v 0.007496 0.000000 0.799091
v 0.012174 0.000000 0.829466
v 0.018162 0.000000 0.859580
v 0.025451 0.000000 0.889392
v 0.034028 0.000000 0.918859
v 0.043883 0.000000 0.947939
v 0.055003 0.000000 0.976590
v 0.067377 0.000000 1.004769
v 0.080995 0.000000 1.032434
v 0.095845 0.000000 1.059542
v 0.103979 0.000000 1.054848
v 0.126967 0.000000 1.041580
v 0.162688 0.000000 1.020965
v 0.209018 0.000000 0.994226
v 0.263836 0.000000 0.962588
v 0.325021 0.000000 0.927276
v 0.390449 0.000000 0.889515
v 0.458000 0.000000 0.850529
v 0.525550 0.000000 0.811543
v 0.590978 0.000000 0.773782
v 0.652163 0.000000 0.738470
v 0.055003 0.050000 0.976590
v 0.067377 0.050000 1.004769
v 0.095845 0.050000 1.059542
v 0.103979 0.050000 1.054848
v 0.706981 0.050000 0.706832
v 0.034028 0.050000 0.494805
v 0.080995 0.050000 0.381230
v 0.067377 0.050000 0.408895
v 0.002119 0.050000 0.675932
v 0.209018 0.050000 0.994226
v 0.080995 0.050000 1.032434
v 0.126967 0.050000 1.041580
v 0.034028 0.050000 0.918859
v 0.390449 0.050000 0.889515
v 0.002119 0.050000 0.737732
v 0.652163 0.050000 0.738470
v 0.458000 0.050000 0.850529
v 0.012174 0.050000 0.829466
v 0.525550 0.050000 0.811543
v 0.001443 0.050000 0.706832
v 0.055003 0.050000 0.437074
v 0.043883 0.050000 0.947939
v 0.263836 0.050000 0.962588
v 0.590978 0.050000 0.773782
v 0.012174 0.050000 0.584198
v 0.007496 0.050000 0.614572
v 0.043883 0.050000 0.465724
v 0.007496 0.050000 0.799091
v 0.004140 0.050000 0.645164
v 0.325021 0.050000 0.927276
v 0.162688 0.050000 1.020965
v 0.018162 0.050000 0.859580
v 0.004140 0.050000 0.768499
v 0.095845 0.050000 0.354121
v 0.025451 0.050000 0.524272
v 0.025451 0.050000 0.889392
v 0.018162 0.050000 0.554084
vn 0.0000 -1.0000 0.0000
vn 0.0000 1.0000 0.0000
vn 0.0000 0.9939 -0.1104
vn -0.9156 0.0000 -0.4021
vn 0.4999 0.0000 0.8661
vn -0.9883 0.0000 0.1522
vn -0.9998 0.0000 0.0219
vn -0.8972 0.0000 -0.4416
vn -0.9714 0.0000 0.2375
vn -0.9883 0.0000 -0.1522
vn -0.9940 0.0000 0.1090
vn -0.9940 0.0000 -0.1090
vn -0.9471 0.0000 -0.3209
vn -0.9808 0.0000 -0.1951
vn 0.4999 0.0000 -0.8661
vn -0.9322 0.0000 -0.3618
vn -0.8972 0.0000 0.4416
vn -0.9978 0.0000 0.0656
vn -0.9714 0.0000 -0.2375
vn -0.8770 0.0000 0.4804
vn -0.9602 0.0000 0.2795
vn -0.8770 0.0000 -0.4804
vn -0.9322 0.0000 0.3618
vn -0.9978 0.0000 -0.0656
vn -0.9998 0.0000 -0.0219
vn -0.9602 0.0000 -0.2795
vn -0.9156 0.0000 0.4021
vn -0.9471 0.0000 0.3209
vn -0.9808 0.0000 0.1951
usemtl SVGMat.002
s off
f 3//1 2//1 1//1
f 4//1 3//1 1//1
f 5//1 4//1 1//1
f 6//1 5//1 1//1
f 7//1 6//1 1//1
f 8//1 7//1 1//1
f 9//1 8//1 1//1
f 10//1 9//1 1//1
f 11//1 10//1 1//1
f 12//1 11//1 1//1
f 13//1 12//1 1//1
f 14//1 13//1 1//1
f 15//1 14//1 1//1
f 15//1 1//1 37//1
f 16//1 15//1 37//1
f 16//1 37//1 36//1
f 17//1 16//1 36//1
f 17//1 36//1 35//1
f 18//1 17//1 35//1
f 18//1 35//1 34//1
f 19//1 18//1 34//1
f 19//1 34//1 33//1
f 20//1 19//1 33//1
f 21//1 20//1 33//1
f 21//1 33//1 32//1
f 22//1 21//1 32//1
f 22//1 32//1 31//1
f 23//1 22//1 31//1
f 23//1 31//1 30//1
f 24//1 23//1 30//1
f 24//1 30//1 29//1
f 25//1 24//1 29//1
f 25//1 29//1 28//1
f 26//1 25//1 28//1
f 26//1 28//1 27//1
f 44//2 42//2 71//2
f 45//2 42//2 44//2
f 58//2 42//2 45//2
f 64//2 42//2 58//2
f 43//2 42//2 64//2
f 72//2 42//2 43//2
f 74//2 42//2 72//2
f 62//2 42//2 74//2
f 63//2 42//2 62//2
f 66//2 42//2 63//2
f 46//2 42//2 66//2
f 57//2 42//2 46//2
f 52//2 42//2 57//2
f 52//2 53//2 42//2
f 70//2 53//2 52//2
f 70//2 61//2 53//2
f 65//2 61//2 70//2
f 65//2 56//2 61//2
f 55//2 56//2 65//2
f 55//2 54//2 56//2
f 69//2 54//2 55//2
f 69//2 51//2 54//2
f 73//2 51//2 69//2
f 50//2 51//2 73//2
f 50//2 67//2 51//2
f 59//2 67//2 50//2
f 59//2 60//2 67//2
f 38//2 60//2 59//2
f 38//2 47//2 60//2
f 39//2 47//2 38//2
f 39//2 68//2 47//2
f 48//2 68//2 39//2
f 48//2 49//2 68//2
f 40//2 49//2 48//2
f 40//3 41//3 49//3
f 4//4 5//4 58//4 45//4
f 29//5 30//5 47//5 68//5
f 17//6 18//6 55//6 65//6
f 14//7 15//7 52//7 57//7
f 3//8 4//8 45//8 44//8
f 28//5 29//5 68//5 49//5
f 36//5 37//5 53//5 61//5
f 19//9 20//9 73//9 69//9
f 32//5 33//5 51//5 67//5
f 10//10 11//10 63//10 62//10
f 16//11 17//11 65//11 70//11
f 11//12 12//12 66//12 63//12
f 30//5 31//5 60//5 47//5
f 6//13 7//13 43//13 64//13
f 9//14 10//14 62//14 74//14
f 1//15 2//15 71//15 42//15
f 5//16 6//16 64//16 58//16
f 27//5 28//5 49//5 41//5
f 24//17 25//17 48//17 39//17
f 15//18 16//18 70//18 52//18
f 31//5 32//5 67//5 60//5
f 8//19 9//19 74//19 72//19
f 33//5 34//5 54//5 51//5
f 25//20 26//20 40//20 48//20
f 20//21 21//21 50//21 73//21
f 2//22 3//22 44//22 71//22
f 22//23 23//23 38//23 59//23
f 34//5 35//5 56//5 54//5
f 12//24 13//24 46//24 66//24
f 35//5 36//5 61//5 56//5
f 13//25 14//25 57//25 46//25
f 7//26 8//26 72//26 43//26
f 23//27 24//27 39//27 38//27
f 21//28 22//28 59//28 50//28
f 37//5 1//5 42//5 53//5
f 18//29 19//29 69//29 55//29
f 26//5 27//5 41//5 40//5
