# Blender v2.79 (sub 0) OBJ File: 'zoom.blend'
# www.blender.org
mtllib zoom-bottom-plain.mtl
o _bottom-plain_CUCurve.007
v 0.001411 0.000000 0.283579
v 0.002027 0.000000 0.302215
v 0.003859 0.000000 0.320669
v 0.006884 0.000000 0.338885
v 0.011080 0.000000 0.356808
v 0.016425 0.000000 0.374385
v 0.022895 0.000000 0.391560
v 0.030467 0.000000 0.408279
v 0.039119 0.000000 0.424486
v 0.048829 0.000000 0.440126
v 0.059573 0.000000 0.455146
v 0.071329 0.000000 0.469490
v 0.084074 0.000000 0.483102
v 0.097690 0.000000 0.495845
v 0.112036 0.000000 0.507598
v 0.127059 0.000000 0.518340
v 0.142703 0.000000 0.528047
v 0.158913 0.000000 0.536698
v 0.175635 0.000000 0.544269
v 0.192814 0.000000 0.550737
v 0.210394 0.000000 0.556080
v 0.228322 0.000000 0.560276
v 0.246542 0.000000 0.563301
v 0.264999 0.000000 0.565132
v 0.283639 0.000000 0.565748
v 0.302279 0.000000 0.565132
v 0.320736 0.000000 0.563300
v 0.338956 0.000000 0.560276
v 0.356884 0.000000 0.556080
v 0.374464 0.000000 0.550737
v 0.391643 0.000000 0.544269
v 0.408365 0.000000 0.536698
v 0.424575 0.000000 0.528047
v 0.440219 0.000000 0.518340
v 0.455242 0.000000 0.507598
v 0.469589 0.000000 0.495845
v 0.483204 0.000000 0.483102
v 0.495949 0.000000 0.469490
v 0.507705 0.000000 0.455146
v 0.518449 0.000000 0.440126
v 0.528159 0.000000 0.424486
v 0.536811 0.000000 0.408279
v 0.544384 0.000000 0.391560
v 0.550853 0.000000 0.374385
v 0.556198 0.000000 0.356808
v 0.560394 0.000000 0.338885
v 0.563420 0.000000 0.320668
v 0.565251 0.000000 0.302215
v 0.565867 0.000000 0.283579
v 0.554761 0.000000 0.283579
v 0.524056 0.000000 0.283579
v 0.477671 0.000000 0.283579
v 0.419527 0.000000 0.283579
v 0.353543 0.000000 0.283579
v 0.283639 0.000000 0.283579
v 0.213735 0.000000 0.283579
v 0.147752 0.000000 0.283579
v 0.089607 0.000000 0.283579
v 0.043223 0.000000 0.283579
v 0.012517 0.000000 0.283579
v 0.302279 0.050000 0.565132
v 0.320736 0.050000 0.563300
v 0.175635 0.050000 0.544269
v 0.374464 0.050000 0.550737
v 0.097690 0.050000 0.495845
v 0.483204 0.050000 0.483102
v 0.084074 0.050000 0.483102
v 0.011080 0.050000 0.356808
v 0.550853 0.050000 0.374385
v 0.264999 0.050000 0.565132
v 0.039119 0.050000 0.424486
v 0.528159 0.050000 0.424486
v 0.112036 0.050000 0.507598
v 0.127059 0.050000 0.518340
v 0.477671 0.050000 0.283579
v 0.419527 0.050000 0.283579
v 0.048829 0.050000 0.440126
v 0.507705 0.050000 0.455146
v 0.246542 0.050000 0.563301
v 0.391643 0.050000 0.544269
v 0.495949 0.050000 0.469490
v 0.554761 0.050000 0.283579
v 0.524056 0.050000 0.283579
v 0.002027 0.050000 0.302215
v 0.210394 0.050000 0.556080
v 0.228322 0.050000 0.560276
v 0.338956 0.050000 0.560276
v 0.518449 0.050000 0.440126
v 0.059573 0.050000 0.455146
v 0.556198 0.050000 0.356808
v 0.071329 0.050000 0.469490
v 0.016425 0.050000 0.374385
v 0.536811 0.050000 0.408279
v 0.544384 0.050000 0.391560
v 0.408365 0.050000 0.536698
v 0.424575 0.050000 0.528047
v 0.455242 0.050000 0.507598
v 0.469589 0.050000 0.495845
v 0.022895 0.050000 0.391560
v 0.030467 0.050000 0.408279
v 0.012517 0.050000 0.283579
v 0.192814 0.050000 0.550737
v 0.563420 0.050000 0.320668
v 0.565867 0.050000 0.283579
v 0.089607 0.050000 0.283579
v 0.043223 0.050000 0.283579
v 0.560394 0.050000 0.338885
v 0.001411 0.050000 0.283579
v 0.142703 0.050000 0.528047
v 0.003859 0.050000 0.320669
v 0.006884 0.050000 0.338885
v 0.440219 0.050000 0.518340
v 0.158913 0.050000 0.536698
v 0.213735 0.050000 0.283579
v 0.565251 0.050000 0.302215
v 0.353543 0.050000 0.283579
v 0.356884 0.050000 0.556080
v 0.283639 0.050000 0.283579
v 0.283639 0.050000 0.565748
v 0.147752 0.050000 0.283579
vn 0.0000 -1.0000 0.0000
vn 0.0000 1.0000 0.0000
vn 0.0000 0.0000 -1.0000
vn -0.2908 0.0000 0.9568
vn 0.5273 0.0000 0.8497
vn -0.7734 0.0000 0.6339
vn 0.0330 0.0000 0.9995
vn -0.8133 0.0000 0.5818
vn -0.2279 0.0000 0.9737
vn -0.4124 0.0000 0.9110
vn -0.5273 0.0000 0.8497
vn -0.4708 0.0000 0.8822
vn 0.8133 0.0000 0.5818
vn 0.8822 0.0000 0.4710
vn -0.0987 0.0000 0.9951
vn 0.8496 0.0000 0.5274
vn -0.9737 0.0000 0.2280
vn -0.9358 0.0000 0.3525
vn 0.1638 0.0000 0.9865
vn 0.9568 0.0000 0.2909
vn 0.2908 0.0000 0.9568
vn 0.9995 0.0000 0.0330
vn -0.9568 0.0000 0.2909
vn -0.0330 0.0000 0.9995
vn -0.6337 0.0000 0.7736
vn 0.9109 0.0000 0.4126
vn -0.9951 0.0000 0.0988
vn 0.4708 0.0000 0.8822
vn 0.0987 0.0000 0.9951
vn 0.9358 0.0000 0.3525
vn 0.6337 0.0000 0.7736
vn 0.9737 0.0000 0.2280
vn -0.9995 0.0000 0.0330
vn -0.9109 0.0000 0.4126
vn -0.8496 0.0000 0.5274
vn 0.4124 0.0000 0.9110
vn -0.6833 0.0000 0.7301
vn 0.7734 0.0000 0.6339
vn -0.3524 0.0000 0.9359
vn 0.6833 0.0000 0.7301
vn 0.2279 0.0000 0.9737
vn -0.5816 0.0000 0.8134
vn 0.9951 0.0000 0.0988
vn 0.9865 0.0000 0.1638
vn -0.7300 0.0000 0.6835
vn 0.5816 0.0000 0.8134
vn 0.3524 0.0000 0.9359
vn -0.8822 0.0000 0.4710
vn -0.1638 0.0000 0.9865
vn -0.9865 0.0000 0.1638
vn 0.7300 0.0000 0.6835
usemtl SVGMat
s off
f 2//1 1//1 60//1
f 2//1 60//1 59//1
f 2//1 59//1 58//1
f 2//1 58//1 57//1
f 2//1 57//1 56//1
f 2//1 56//1 55//1
f 2//1 55//1 54//1
f 2//1 54//1 53//1
f 2//1 53//1 52//1
f 2//1 52//1 51//1
f 2//1 51//1 50//1
f 2//1 50//1 49//1
f 2//1 49//1 48//1
f 2//1 48//1 47//1
f 3//1 2//1 47//1
f 3//1 47//1 46//1
f 4//1 3//1 46//1
f 4//1 46//1 45//1
f 5//1 4//1 45//1
f 5//1 45//1 44//1
f 6//1 5//1 44//1
f 6//1 44//1 43//1
f 7//1 6//1 43//1
f 7//1 43//1 42//1
f 8//1 7//1 42//1
f 8//1 42//1 41//1
f 9//1 8//1 41//1
f 9//1 41//1 40//1
f 10//1 9//1 40//1
f 10//1 40//1 39//1
f 11//1 10//1 39//1
f 11//1 39//1 38//1
f 12//1 11//1 38//1
f 12//1 38//1 37//1
f 13//1 12//1 37//1
f 14//1 13//1 37//1
f 14//1 37//1 36//1
f 14//1 36//1 35//1
f 15//1 14//1 35//1
f 15//1 35//1 34//1
f 16//1 15//1 34//1
f 16//1 34//1 33//1
f 17//1 16//1 33//1
f 17//1 33//1 32//1
f 18//1 17//1 32//1
f 18//1 32//1 31//1
f 19//1 18//1 31//1
f 19//1 31//1 30//1
f 20//1 19//1 30//1
f 20//1 30//1 29//1
f 21//1 20//1 29//1
f 21//1 29//1 28//1
f 22//1 21//1 28//1
f 22//1 28//1 27//1
f 23//1 22//1 27//1
f 23//1 27//1 26//1
f 24//1 23//1 26//1
f 24//1 26//1 25//1
f 84//2 101//2 108//2
f 84//2 106//2 101//2
f 84//2 105//2 106//2
f 84//2 120//2 105//2
f 84//2 114//2 120//2
f 84//2 118//2 114//2
f 84//2 116//2 118//2
f 84//2 76//2 116//2
f 84//2 75//2 76//2
f 84//2 83//2 75//2
f 84//2 82//2 83//2
f 84//2 104//2 82//2
f 84//2 115//2 104//2
f 84//2 103//2 115//2
f 110//2 103//2 84//2
f 110//2 107//2 103//2
f 111//2 107//2 110//2
f 111//2 90//2 107//2
f 68//2 90//2 111//2
f 68//2 69//2 90//2
f 92//2 69//2 68//2
f 92//2 94//2 69//2
f 99//2 94//2 92//2
f 99//2 93//2 94//2
f 100//2 93//2 99//2
f 100//2 72//2 93//2
f 71//2 72//2 100//2
f 71//2 88//2 72//2
f 77//2 88//2 71//2
f 77//2 78//2 88//2
f 89//2 78//2 77//2
f 89//2 81//2 78//2
f 91//2 81//2 89//2
f 91//2 66//2 81//2
f 67//2 66//2 91//2
f 65//2 66//2 67//2
f 65//2 98//2 66//2
f 65//2 97//2 98//2
f 73//2 97//2 65//2
f 73//2 112//2 97//2
f 74//2 112//2 73//2
f 74//2 96//2 112//2
f 109//2 96//2 74//2
f 109//2 95//2 96//2
f 113//2 95//2 109//2
f 113//2 80//2 95//2
f 63//2 80//2 113//2
f 63//2 64//2 80//2
f 102//2 64//2 63//2
f 102//2 117//2 64//2
f 85//2 117//2 102//2
f 85//2 87//2 117//2
f 86//2 87//2 85//2
f 86//2 62//2 87//2
f 79//2 62//2 86//2
f 79//2 61//2 62//2
f 70//2 61//2 79//2
f 70//2 119//2 61//2
f 50//3 51//3 83//3 82//3
f 20//4 21//4 85//4 102//4
f 33//5 34//5 112//5 96//5
f 11//6 12//6 91//6 89//6
f 25//7 26//7 61//7 119//7
f 10//8 11//8 89//8 77//8
f 21//9 22//9 86//9 85//9
f 18//10 19//10 63//10 113//10
f 16//11 17//11 109//11 74//11
f 17//12 18//12 113//12 109//12
f 39//13 40//13 88//13 78//13
f 41//14 42//14 93//14 72//14
f 51//3 52//3 75//3 83//3
f 23//15 24//15 70//15 79//15
f 54//3 55//3 118//3 116//3
f 40//16 41//16 72//16 88//16
f 4//17 5//17 68//17 111//17
f 6//18 7//18 99//18 92//18
f 27//19 28//19 87//19 62//19
f 44//20 45//20 90//20 69//20
f 29//21 30//21 64//21 117//21
f 48//22 49//22 104//22 115//22
f 5//23 6//23 92//23 68//23
f 24//24 25//24 119//24 70//24
f 14//25 15//25 73//25 65//25
f 42//26 43//26 94//26 93//26
f 2//27 3//27 110//27 84//27
f 53//3 54//3 116//3 76//3
f 32//28 33//28 96//28 95//28
f 26//29 27//29 62//29 61//29
f 57//3 58//3 105//3 120//3
f 43//30 44//30 69//30 94//30
f 35//31 36//31 98//31 97//31
f 45//32 46//32 107//32 90//32
f 1//33 2//33 84//33 108//33
f 7//34 8//34 100//34 99//34
f 9//35 10//35 77//35 71//35
f 31//36 32//36 95//36 80//36
f 13//37 14//37 65//37 67//37
f 38//38 39//38 78//38 81//38
f 19//39 20//39 102//39 63//39
f 36//40 37//40 66//40 98//40
f 28//41 29//41 117//41 87//41
f 55//3 56//3 114//3 118//3
f 58//3 59//3 106//3 105//3
f 15//42 16//42 74//42 73//42
f 47//43 48//43 115//43 103//43
f 46//44 47//44 103//44 107//44
f 52//3 53//3 76//3 75//3
f 49//3 50//3 82//3 104//3
f 60//3 1//3 108//3 101//3
f 56//3 57//3 120//3 114//3
f 12//45 13//45 67//45 91//45
f 34//46 35//46 97//46 112//46
f 30//47 31//47 80//47 64//47
f 8//48 9//48 71//48 100//48
f 22//49 23//49 79//49 86//49
f 3//50 4//50 111//50 110//50
f 37//51 38//51 81//51 66//51
f 59//3 60//3 101//3 106//3
