# Blender v2.79 (sub 0) OBJ File: 'zoom.blend'
# www.blender.org
mtllib zoom-bottom-plain.mtl
o _top-plain_CUCurve.008
v 0.283639 0.000000 0.001411
v 0.264999 0.000000 0.002026
v 0.246542 0.000000 0.003858
v 0.228322 0.000000 0.006883
v 0.210394 0.000000 0.011078
v 0.192814 0.000000 0.016421
v 0.175635 0.000000 0.022890
v 0.158913 0.000000 0.030460
v 0.142703 0.000000 0.039111
v 0.127059 0.000000 0.048818
v 0.112036 0.000000 0.059560
v 0.097690 0.000000 0.071314
v 0.084074 0.000000 0.084056
v 0.071329 0.000000 0.097669
v 0.059573 0.000000 0.112012
v 0.048829 0.000000 0.127032
v 0.039119 0.000000 0.142673
v 0.030467 0.000000 0.158880
v 0.022895 0.000000 0.175598
v 0.016425 0.000000 0.192773
v 0.011080 0.000000 0.210350
v 0.006884 0.000000 0.228274
v 0.003859 0.000000 0.246490
v 0.002027 0.000000 0.264943
v 0.001411 0.000000 0.283579
v 0.008924 0.000000 0.283579
v 0.030157 0.000000 0.283579
v 0.063149 0.000000 0.283579
v 0.105940 0.000000 0.283579
v 0.156571 0.000000 0.283579
v 0.213082 0.000000 0.283579
v 0.273513 0.000000 0.283579
v 0.335904 0.000000 0.283579
v 0.398294 0.000000 0.283579
v 0.458725 0.000000 0.283579
v 0.515236 0.000000 0.283579
v 0.565867 0.000000 0.283579
v 0.565251 0.000000 0.264943
v 0.563420 0.000000 0.246490
v 0.560394 0.000000 0.228274
v 0.556198 0.000000 0.210350
v 0.550853 0.000000 0.192773
v 0.544384 0.000000 0.175598
v 0.536811 0.000000 0.158880
v 0.528159 0.000000 0.142673
v 0.518449 0.000000 0.127032
v 0.507705 0.000000 0.112012
v 0.495950 0.000000 0.097669
v 0.483204 0.000000 0.084056
v 0.469589 0.000000 0.071314
v 0.455242 0.000000 0.059560
v 0.440219 0.000000 0.048818
v 0.424575 0.000000 0.039111
v 0.408365 0.000000 0.030460
v 0.391643 0.000000 0.022890
v 0.374464 0.000000 0.016421
v 0.356884 0.000000 0.011078
v 0.338956 0.000000 0.006883
v 0.320736 0.000000 0.003858
v 0.302279 0.000000 0.002026
v 0.008924 0.050000 0.283579
v 0.030157 0.050000 0.283579
v 0.003859 0.050000 0.246490
v 0.563420 0.050000 0.246490
v 0.084074 0.050000 0.084056
v 0.071329 0.050000 0.097669
v 0.059573 0.050000 0.112012
v 0.048829 0.050000 0.127032
v 0.440219 0.050000 0.048818
v 0.424575 0.050000 0.039111
v 0.156571 0.050000 0.283579
v 0.213082 0.050000 0.283579
v 0.565867 0.050000 0.283579
v 0.565251 0.050000 0.264943
v 0.469589 0.050000 0.071314
v 0.455242 0.050000 0.059560
v 0.011080 0.050000 0.210350
v 0.006884 0.050000 0.228274
v 0.560394 0.050000 0.228274
v 0.210394 0.050000 0.011078
v 0.338956 0.050000 0.006883
v 0.002027 0.050000 0.264943
v 0.016425 0.050000 0.192773
v 0.556198 0.050000 0.210350
v 0.536811 0.050000 0.158880
v 0.528159 0.050000 0.142673
v 0.192814 0.050000 0.016421
v 0.550853 0.050000 0.192773
v 0.544384 0.050000 0.175598
v 0.483204 0.050000 0.084056
v 0.458725 0.050000 0.283579
v 0.515236 0.050000 0.283579
v 0.273513 0.050000 0.283579
v 0.335904 0.050000 0.283579
v 0.097690 0.050000 0.071314
v 0.175635 0.050000 0.022890
v 0.158913 0.050000 0.030460
v 0.246542 0.050000 0.003858
v 0.302279 0.050000 0.002026
v 0.264999 0.050000 0.002026
v 0.022895 0.050000 0.175598
v 0.507705 0.050000 0.112012
v 0.112036 0.050000 0.059560
v 0.374464 0.050000 0.016421
v 0.320736 0.050000 0.003858
v 0.518449 0.050000 0.127032
v 0.142703 0.050000 0.039111
v 0.283639 0.050000 0.001411
v 0.030467 0.050000 0.158880
v 0.408365 0.050000 0.030460
v 0.228322 0.050000 0.006883
v 0.398294 0.050000 0.283579
v 0.127059 0.050000 0.048818
v 0.039119 0.050000 0.142673
v 0.105940 0.050000 0.283579
v 0.063149 0.050000 0.283579
v 0.495950 0.050000 0.097669
v 0.391643 0.050000 0.022890
v 0.001411 0.050000 0.283579
v 0.356884 0.050000 0.011078
vn 0.0000 -1.0000 0.0000
vn 0.0000 0.0000 1.0000
vn 0.0000 1.0000 0.0000
vn 0.0000 0.0000 -1.0000
vn -0.6337 0.0000 -0.7736
vn -0.3524 0.0000 -0.9359
vn -0.5816 0.0000 -0.8134
vn 0.9568 0.0000 -0.2909
vn -0.9109 0.0000 -0.4126
vn -0.4124 0.0000 -0.9110
vn -0.8822 0.0000 -0.4710
vn 0.4124 0.0000 -0.9110
vn -0.9995 0.0000 -0.0330
vn 0.9109 0.0000 -0.4126
vn -0.9358 0.0000 -0.3525
vn -0.2279 0.0000 -0.9737
vn 0.7300 0.0000 -0.6835
vn -0.7734 0.0000 -0.6339
vn -0.7300 0.0000 -0.6835
vn 0.4708 0.0000 -0.8822
vn -0.8133 0.0000 -0.5818
vn 0.2279 0.0000 -0.9737
vn 0.1638 0.0000 -0.9865
vn 0.5273 0.0000 -0.8497
vn -0.0987 0.0000 -0.9951
vn 0.8133 0.0000 -0.5818
vn 0.6833 0.0000 -0.7301
vn -0.0330 0.0000 -0.9995
vn 0.9995 0.0000 -0.0330
vn 0.8496 0.0000 -0.5274
vn 0.0330 0.0000 -0.9995
vn 0.6337 0.0000 -0.7736
vn -0.5273 0.0000 -0.8497
vn 0.9951 0.0000 -0.0988
vn -0.9737 0.0000 -0.2280
vn 0.3524 0.0000 -0.9359
vn 0.9865 0.0000 -0.1638
vn -0.6833 0.0000 -0.7301
vn 0.7734 0.0000 -0.6339
vn -0.9951 0.0000 -0.0988
vn 0.2908 0.0000 -0.9568
vn -0.4708 0.0000 -0.8822
vn -0.9865 0.0000 -0.1638
vn -0.1638 0.0000 -0.9865
vn 0.0987 0.0000 -0.9951
vn 0.8822 0.0000 -0.4710
vn -0.9568 0.0000 -0.2909
vn -0.8496 0.0000 -0.5274
vn -0.2908 0.0000 -0.9568
vn 0.5816 0.0000 -0.8134
vn 0.9358 0.0000 -0.3525
vn 0.9737 0.0000 -0.2280
usemtl SVGMat
s off
f 2//1 1//1 60//1
f 3//1 2//1 60//1
f 3//1 60//1 59//1
f 4//1 3//1 59//1
f 4//1 59//1 58//1
f 5//1 4//1 58//1
f 5//1 58//1 57//1
f 6//1 5//1 57//1
f 6//1 57//1 56//1
f 7//1 6//1 56//1
f 7//1 56//1 55//1
f 8//1 7//1 55//1
f 8//1 55//1 54//1
f 9//1 8//1 54//1
f 9//1 54//1 53//1
f 10//1 9//1 53//1
f 10//1 53//1 52//1
f 11//1 10//1 52//1
f 11//1 52//1 51//1
f 12//1 11//1 51//1
f 12//1 51//1 50//1
f 13//1 12//1 50//1
f 13//1 50//1 49//1
f 14//1 13//1 49//1
f 14//1 49//1 48//1
f 14//1 48//1 47//1
f 15//1 14//1 47//1
f 15//1 47//1 46//1
f 16//1 15//1 46//1
f 16//1 46//1 45//1
f 17//1 16//1 45//1
f 17//1 45//1 44//1
f 18//1 17//1 44//1
f 18//1 44//1 43//1
f 19//1 18//1 43//1
f 19//1 43//1 42//1
f 20//1 19//1 42//1
f 20//1 42//1 41//1
f 21//1 20//1 41//1
f 21//1 41//1 40//1
f 22//1 21//1 40//1
f 22//1 40//1 39//1
f 23//1 22//1 39//1
f 23//1 39//1 38//1
f 24//1 23//1 38//1
f 24//1 38//1 37//1
f 25//1 24//1 37//1
f 26//2 25//2 37//2
f 27//2 26//2 37//2
f 28//2 27//2 37//2
f 29//2 28//2 37//2
f 30//2 29//2 37//2
f 31//2 30//2 37//2
f 32//2 31//2 37//2
f 33//2 32//2 37//2
f 34//2 33//2 37//2
f 35//2 34//2 37//2
f 36//2 35//2 37//2
f 100//3 99//3 108//3
f 98//3 99//3 100//3
f 98//3 105//3 99//3
f 111//3 105//3 98//3
f 111//3 81//3 105//3
f 80//3 81//3 111//3
f 80//3 120//3 81//3
f 87//3 120//3 80//3
f 87//3 104//3 120//3
f 96//3 104//3 87//3
f 96//3 118//3 104//3
f 97//3 118//3 96//3
f 97//3 110//3 118//3
f 107//3 110//3 97//3
f 107//3 70//3 110//3
f 113//3 70//3 107//3
f 113//3 69//3 70//3
f 103//3 69//3 113//3
f 103//3 76//3 69//3
f 95//3 76//3 103//3
f 95//3 75//3 76//3
f 65//3 75//3 95//3
f 65//3 90//3 75//3
f 66//3 90//3 65//3
f 66//3 117//3 90//3
f 66//3 102//3 117//3
f 67//3 102//3 66//3
f 67//3 106//3 102//3
f 68//3 106//3 67//3
f 68//3 86//3 106//3
f 114//3 86//3 68//3
f 114//3 85//3 86//3
f 109//3 85//3 114//3
f 109//3 89//3 85//3
f 101//3 89//3 109//3
f 101//3 88//3 89//3
f 83//3 88//3 101//3
f 83//3 84//3 88//3
f 77//3 84//3 83//3
f 77//3 79//3 84//3
f 78//3 79//3 77//3
f 78//3 64//3 79//3
f 63//3 64//3 78//3
f 63//3 74//3 64//3
f 82//3 74//3 63//3
f 82//3 73//3 74//3
f 119//3 73//3 82//3
f 61//4 73//4 119//4
f 62//2 73//2 61//2
f 116//2 73//2 62//2
f 115//2 73//2 116//2
f 71//2 73//2 115//2
f 72//2 73//2 71//2
f 93//2 73//2 72//2
f 94//2 73//2 93//2
f 112//2 73//2 94//2
f 91//2 73//2 112//2
f 92//2 73//2 91//2
f 35//2 36//2 92//2 91//2
f 11//5 12//5 95//5 103//5
f 6//6 7//6 96//6 87//6
f 10//7 11//7 103//7 113//7
f 32//2 33//2 94//2 93//2
f 41//8 42//8 88//8 84//8
f 29//2 30//2 71//2 115//2
f 18//9 19//9 101//9 109//9
f 7//10 8//10 97//10 96//10
f 17//11 18//11 109//11 114//11
f 54//12 55//12 118//12 110//12
f 24//13 25//13 119//13 82//13
f 43//14 44//14 85//14 89//14
f 19//15 20//15 83//15 101//15
f 4//16 5//16 80//16 111//16
f 27//2 28//2 116//2 62//2
f 26//2 27//2 62//2 61//2
f 36//2 37//2 73//2 92//2
f 48//17 49//17 90//17 117//17
f 14//18 15//18 67//18 66//18
f 13//19 14//19 66//19 65//19
f 31//2 32//2 93//2 72//2
f 53//20 54//20 110//20 70//20
f 15//21 16//21 68//21 67//21
f 57//22 58//22 81//22 120//22
f 58//23 59//23 105//23 81//23
f 52//24 53//24 70//24 69//24
f 2//25 3//25 98//25 100//25
f 46//26 47//26 102//26 106//26
f 30//2 31//2 72//2 71//2
f 49//27 50//27 75//27 90//27
f 1//28 2//28 100//28 108//28
f 37//29 38//29 74//29 73//29
f 45//30 46//30 106//30 86//30
f 60//31 1//31 108//31 99//31
f 50//32 51//32 76//32 75//32
f 9//33 10//33 113//33 107//33
f 38//34 39//34 64//34 74//34
f 21//35 22//35 78//35 77//35
f 34//2 35//2 91//2 112//2
f 55//36 56//36 104//36 118//36
f 39//37 40//37 79//37 64//37
f 28//2 29//2 115//2 116//2
f 12//38 13//38 65//38 95//38
f 47//39 48//39 117//39 102//39
f 23//40 24//40 82//40 63//40
f 56//41 57//41 120//41 104//41
f 8//42 9//42 107//42 97//42
f 22//43 23//43 63//43 78//43
f 3//44 4//44 111//44 98//44
f 59//45 60//45 99//45 105//45
f 25//2 26//2 61//2 119//2
f 44//46 45//46 86//46 85//46
f 20//47 21//47 77//47 83//47
f 16//48 17//48 114//48 68//48
f 5//49 6//49 87//49 80//49
f 51//50 52//50 69//50 76//50
f 33//2 34//2 112//2 94//2
f 42//51 43//51 89//51 88//51
f 40//52 41//52 84//52 79//52
