# Blender v2.79 (sub 0) OBJ File: 'labels.blend'
# www.blender.org
mtllib label-IN.mtl
o label-IN_CUCurve.051
v 0.143550 0.000000 0.032108
v 0.130003 0.000000 0.032108
v 0.122694 0.000000 0.016758
v 0.096672 0.000000 0.016758
v 0.089363 0.000000 0.032108
v 0.075816 0.000000 0.032108
v 0.109683 0.000000 -0.033807
v 0.101922 0.000000 0.005923
v 0.117444 0.000000 0.005923
v 0.109683 0.000000 -0.010330
v -0.116551 0.000000 -0.031098
v -0.116551 0.000000 0.032108
v -0.129195 0.000000 0.032108
v -0.129195 0.000000 -0.031098
v -0.039785 0.000000 -0.031098
v -0.039785 0.000000 0.033462
v -0.085393 0.000000 -0.004884
v -0.085393 0.000000 0.032221
v -0.098037 0.000000 0.032221
v -0.098037 0.000000 -0.032452
v -0.052429 0.000000 0.006007
v -0.052429 0.000000 -0.031098
v 0.002662 0.000000 -0.031098
v 0.004882 0.000000 -0.031136
v 0.007089 0.000000 -0.031031
v 0.009276 0.000000 -0.030786
v 0.011435 0.000000 -0.030403
v 0.013562 0.000000 -0.029884
v 0.015650 0.000000 -0.029232
v 0.017692 0.000000 -0.028448
v 0.019681 0.000000 -0.027534
v 0.021612 0.000000 -0.026494
v 0.023479 0.000000 -0.025329
v 0.025273 0.000000 -0.024041
v 0.026990 0.000000 -0.022633
v 0.028396 0.000000 -0.021017
v 0.029691 0.000000 -0.019325
v 0.030873 0.000000 -0.017563
v 0.031941 0.000000 -0.015735
v 0.032891 0.000000 -0.013848
v 0.033722 0.000000 -0.011908
v 0.034431 0.000000 -0.009920
v 0.035017 0.000000 -0.007890
v 0.035476 0.000000 -0.005824
v 0.035807 0.000000 -0.003728
v 0.036007 0.000000 -0.001607
v 0.036074 0.000000 0.000533
v 0.036007 0.000000 0.002674
v 0.035807 0.000000 0.004795
v 0.035476 0.000000 0.006891
v 0.035017 0.000000 0.008957
v 0.034431 0.000000 0.010987
v 0.033722 0.000000 0.012975
v 0.032891 0.000000 0.014915
v 0.031941 0.000000 0.016802
v 0.030873 0.000000 0.018629
v 0.029691 0.000000 0.020392
v 0.028396 0.000000 0.022084
v 0.026990 0.000000 0.023699
v 0.025273 0.000000 0.025108
v 0.023478 0.000000 0.026395
v 0.021612 0.000000 0.027561
v 0.019681 0.000000 0.028601
v 0.017692 0.000000 0.029514
v 0.015650 0.000000 0.030298
v 0.013562 0.000000 0.030951
v 0.011435 0.000000 0.031470
v 0.009276 0.000000 0.031853
v 0.007089 0.000000 0.032098
v 0.004882 0.000000 0.032203
v 0.002662 0.000000 0.032164
v 0.002342 0.000000 0.032164
v 0.001438 0.000000 0.032164
v 0.000032 0.000000 0.032164
v -0.001791 0.000000 0.032164
v -0.003948 0.000000 0.032164
v -0.006355 0.000000 0.032164
v -0.008929 0.000000 0.032164
v -0.011587 0.000000 0.032164
v -0.014245 0.000000 0.032164
v -0.016819 0.000000 0.032164
v -0.019227 0.000000 0.032164
v -0.021384 0.000000 0.032164
v -0.021384 0.000000 -0.031041
v -0.019227 0.000000 -0.031046
v -0.016819 0.000000 -0.031052
v -0.014245 0.000000 -0.031058
v -0.011587 0.000000 -0.031064
v -0.008929 0.000000 -0.031070
v -0.006355 0.000000 -0.031077
v -0.003948 0.000000 -0.031082
v -0.001791 0.000000 -0.031087
v 0.000032 0.000000 -0.031092
v 0.001438 0.000000 -0.031095
v 0.002342 0.000000 -0.031097
v -0.008627 0.000000 0.020821
v 0.002662 0.000000 0.020821
v 0.004044 0.000000 0.020856
v 0.005419 0.000000 0.020803
v 0.006782 0.000000 0.020663
v 0.008129 0.000000 0.020437
v 0.009457 0.000000 0.020128
v 0.010761 0.000000 0.019735
v 0.012038 0.000000 0.019261
v 0.013284 0.000000 0.018707
v 0.014494 0.000000 0.018074
v 0.015665 0.000000 0.017363
v 0.016793 0.000000 0.016576
v 0.017874 0.000000 0.015714
v 0.018738 0.000000 0.014627
v 0.019532 0.000000 0.013497
v 0.020257 0.000000 0.012325
v 0.020911 0.000000 0.011117
v 0.021492 0.000000 0.009874
v 0.022000 0.000000 0.008601
v 0.022433 0.000000 0.007301
v 0.022789 0.000000 0.005977
v 0.023069 0.000000 0.004632
v 0.023270 0.000000 0.003269
v 0.023392 0.000000 0.001893
v 0.023433 0.000000 0.000505
v 0.023392 0.000000 -0.000882
v 0.023270 0.000000 -0.002259
v 0.023069 0.000000 -0.003621
v 0.022789 0.000000 -0.004966
v 0.022433 0.000000 -0.006291
v 0.022000 0.000000 -0.007591
v 0.021492 0.000000 -0.008864
v 0.020911 0.000000 -0.010107
v 0.020257 0.000000 -0.011315
v 0.019532 0.000000 -0.012486
v 0.018738 0.000000 -0.013617
v 0.017874 0.000000 -0.014704
v 0.016793 0.000000 -0.015566
v 0.015665 0.000000 -0.016353
v 0.014494 0.000000 -0.017063
v 0.013284 0.000000 -0.017697
v 0.012038 0.000000 -0.018251
v 0.010761 0.000000 -0.018725
v 0.009457 0.000000 -0.019117
v 0.008129 0.000000 -0.019427
v 0.006782 0.000000 -0.019653
v 0.005419 0.000000 -0.019793
v 0.004044 0.000000 -0.019846
v 0.002662 0.000000 -0.019811
v 0.002512 0.000000 -0.019811
v 0.002087 0.000000 -0.019811
v 0.001427 0.000000 -0.019811
v 0.000572 0.000000 -0.019811
v -0.000441 0.000000 -0.019811
v -0.001571 0.000000 -0.019811
v -0.002780 0.000000 -0.019811
v -0.004028 0.000000 -0.019811
v -0.005276 0.000000 -0.019811
v -0.006484 0.000000 -0.019811
v -0.007614 0.000000 -0.019811
v -0.008627 0.000000 -0.019811
v 0.063623 0.000000 -0.031098
v 0.063623 0.000000 0.032108
v 0.050980 0.000000 0.032108
v 0.050980 0.000000 -0.031098
v 0.034431 0.050000 0.010987
v 0.033722 0.050000 0.012975
v 0.007089 0.050000 -0.031031
v 0.009276 0.050000 -0.030786
v -0.008627 0.050000 -0.019811
v 0.063623 0.050000 0.032108
v 0.050980 0.050000 0.032108
v 0.001438 0.050000 0.032164
v 0.000032 0.050000 0.032164
v 0.036007 0.050000 0.002674
v 0.023270 0.050000 0.003269
v -0.007614 0.050000 -0.019811
v 0.015650 0.050000 -0.029232
v 0.017692 0.050000 -0.028448
v -0.006355 0.050000 0.032164
v -0.008929 0.050000 0.032164
v 0.025273 0.050000 0.025108
v 0.023478 0.050000 0.026395
v 0.028396 0.050000 0.022084
v 0.005419 0.050000 0.020803
v 0.031941 0.050000 -0.015735
v 0.015665 0.050000 -0.016353
v 0.002662 0.050000 -0.019811
v 0.002087 0.050000 -0.019811
v 0.011435 0.050000 -0.030403
v 0.004044 0.050000 -0.019846
v -0.116551 0.050000 -0.031098
v -0.129195 0.050000 -0.031098
v 0.063623 0.050000 -0.031098
v 0.050980 0.050000 -0.031098
v 0.036074 0.050000 0.000533
v 0.023433 0.050000 0.000505
v 0.035476 0.050000 -0.005824
v 0.022000 0.050000 -0.007591
v 0.033722 0.050000 -0.011908
v 0.034431 0.050000 -0.009920
v -0.021384 0.050000 -0.031041
v -0.019227 0.050000 -0.031046
v 0.029691 0.050000 -0.019325
v 0.005419 0.050000 -0.019793
v 0.007089 0.050000 0.032098
v 0.023069 0.050000 0.004632
v 0.036007 0.050000 -0.001607
v 0.023270 0.050000 -0.002259
v 0.030873 0.050000 -0.017563
v 0.013284 0.050000 -0.017697
v 0.001427 0.050000 -0.019811
v 0.000572 0.050000 -0.019811
v 0.035807 0.050000 -0.003728
v 0.020911 0.050000 -0.010107
v 0.020257 0.050000 -0.011315
v -0.016819 0.050000 -0.031052
v 0.004882 0.050000 0.032203
v 0.117444 0.050000 0.005923
v 0.109683 0.050000 -0.010330
v 0.004044 0.050000 0.020856
v -0.002780 0.050000 -0.019811
v -0.004028 0.050000 -0.019811
v 0.001438 0.050000 -0.031095
v 0.109683 0.050000 -0.033807
v 0.017692 0.050000 0.029514
v 0.015650 0.050000 0.030298
v 0.035807 0.050000 0.004795
v 0.022789 0.050000 -0.004966
v 0.009457 0.050000 -0.019117
v 0.008129 0.050000 -0.019427
v -0.129195 0.050000 0.032108
v 0.143550 0.050000 0.032108
v -0.014245 0.050000 0.032164
v -0.016819 0.050000 0.032164
v 0.029691 0.050000 0.020392
v 0.013284 0.050000 0.018707
v -0.021384 0.050000 0.032164
v 0.075816 0.050000 0.032108
v 0.101922 0.050000 0.005923
v 0.035476 0.050000 0.006891
v 0.022433 0.050000 0.007301
v -0.006355 0.050000 -0.031077
v 0.013562 0.050000 0.030951
v 0.004882 0.050000 -0.031136
v 0.089363 0.050000 0.032108
v 0.032891 0.050000 -0.013848
v 0.018738 0.050000 -0.013617
v 0.035017 0.050000 0.008957
v 0.021492 0.050000 0.009874
v -0.011587 0.050000 -0.031064
v -0.008929 0.050000 -0.031070
v 0.008129 0.050000 0.020437
v -0.098037 0.050000 -0.032452
v -0.052429 0.050000 0.006007
v 0.011435 0.050000 0.031470
v 0.022000 0.050000 0.008601
v 0.014494 0.050000 -0.017063
v 0.096672 0.050000 0.016758
v 0.023479 0.050000 -0.025329
v 0.025273 0.050000 -0.024041
v -0.001791 0.050000 -0.031087
v 0.000032 0.050000 -0.031092
v -0.039785 0.050000 0.033462
v -0.085393 0.050000 -0.004884
v -0.098037 0.050000 0.032221
v 0.030873 0.050000 0.018629
v 0.015665 0.050000 0.017363
v 0.019532 0.050000 0.013497
v 0.020257 0.050000 0.012325
v -0.001791 0.050000 0.032164
v 0.022433 0.050000 -0.006291
v -0.008627 0.050000 0.020821
v 0.028396 0.050000 -0.021017
v 0.032891 0.050000 0.014915
v 0.002662 0.050000 -0.031098
v 0.002342 0.050000 -0.031097
v 0.016793 0.050000 0.016576
v 0.013562 0.050000 -0.029884
v 0.130003 0.050000 0.032108
v 0.031941 0.050000 0.016802
v 0.017874 0.050000 0.015714
v 0.023392 0.050000 -0.000882
v 0.010761 0.050000 0.019735
v 0.012038 0.050000 0.019261
v 0.020911 0.050000 0.011117
v 0.002342 0.050000 0.032164
v -0.006484 0.050000 -0.019811
v 0.035017 0.050000 -0.007890
v -0.003948 0.050000 0.032164
v 0.023392 0.050000 0.001893
v 0.016793 0.050000 -0.015566
v 0.021612 0.050000 -0.026494
v 0.023069 0.050000 -0.003621
v 0.021492 0.050000 -0.008864
v -0.014245 0.050000 -0.031058
v -0.011587 0.050000 0.032164
v 0.026990 0.050000 0.023699
v 0.006782 0.050000 -0.019653
v -0.116551 0.050000 0.032108
v 0.002662 0.050000 0.032164
v 0.009276 0.050000 0.031853
v 0.019681 0.050000 0.028601
v -0.001571 0.050000 -0.019811
v 0.026990 0.050000 -0.022633
v 0.017874 0.050000 -0.014704
v 0.021612 0.050000 0.027561
v 0.006782 0.050000 0.020663
v 0.022789 0.050000 0.005977
v 0.010761 0.050000 -0.018725
v -0.003948 0.050000 -0.031082
v -0.000441 0.050000 -0.019811
v 0.014494 0.050000 0.018074
v 0.002662 0.050000 0.020821
v 0.122694 0.050000 0.016758
v 0.018738 0.050000 0.014627
v 0.002512 0.050000 -0.019811
v 0.019681 0.050000 -0.027534
v -0.005276 0.050000 -0.019811
v 0.019532 0.050000 -0.012486
v -0.039785 0.050000 -0.031098
v -0.019227 0.050000 0.032164
v 0.012038 0.050000 -0.018251
v -0.085393 0.050000 0.032221
v 0.009457 0.050000 0.020128
v -0.052429 0.050000 -0.031098
vn 0.0000 -1.0000 0.0000
vn 0.0000 0.0000 1.0000
vn 0.0000 1.0000 0.0000
vn 0.0000 1.0000 -0.0004
vn 0.0000 1.0000 0.0004
vn 0.0000 1.0000 0.0006
vn 0.0000 1.0000 -0.0001
vn 0.0000 0.0000 -1.0000
vn 0.0000 1.0000 0.0001
vn 0.0000 1.0000 -0.0014
vn -0.9656 0.0000 0.2602
vn -0.8504 0.0000 0.5262
vn -0.6234 0.0000 -0.7819
vn -0.0023 0.0000 -1.0000
vn 0.2370 0.0000 -0.9715
vn -0.9289 0.0000 0.3704
vn -0.8796 0.0000 -0.4757
vn 0.0253 0.0000 -0.9997
vn 0.3585 0.0000 -0.9335
vn -0.9893 0.0000 0.1461
vn -0.3480 0.0000 0.9375
vn 0.6447 0.0000 -0.7645
vn 0.9762 0.0000 0.2170
vn 0.5830 0.0000 0.8125
vn -0.9289 0.0000 -0.3704
vn -0.1651 0.0000 -0.9863
vn 0.9956 0.0000 0.0940
vn -0.4635 0.0000 0.8861
vn -1.0000 0.0000 0.0000
vn -0.4635 0.0000 -0.8861
vn 0.1113 0.0000 0.9938
vn 0.0253 0.0000 0.9997
vn 0.9762 0.0000 -0.2170
vn 0.7941 0.0000 0.6078
vn 0.5830 0.0000 -0.8125
vn -0.9791 0.0000 -0.2036
vn -0.9961 0.0000 -0.0880
vn -0.5722 0.0000 0.8201
vn 0.9418 0.0000 -0.3361
vn -0.7830 0.0000 0.6221
vn -0.8504 0.0000 -0.5262
vn 0.8635 0.0000 -0.5044
vn 0.4172 0.0000 0.9088
vn 0.5296 0.0000 0.8482
vn -0.9488 0.0000 0.3158
vn 0.4743 0.0000 -0.8804
vn -0.9893 0.0000 -0.1461
vn -0.1022 0.0000 -0.9948
vn 0.9192 0.0000 -0.3937
vn -0.7830 0.0000 -0.6221
vn 0.7545 0.0000 0.6563
vn -0.2882 0.0000 0.9576
vn -0.9996 0.0000 -0.0294
vn 0.9192 0.0000 0.3937
vn 0.8635 0.0000 0.5044
vn 1.0000 0.0000 0.0000
vn -0.8895 0.0000 -0.4570
vn 0.9956 0.0000 -0.0939
vn -0.5722 0.0000 -0.8201
vn -0.8796 0.0000 0.4757
vn -0.6435 0.0000 0.7654
vn 0.1746 0.0000 -0.9846
vn 0.2984 0.0000 -0.9544
vn 0.7941 0.0000 -0.6078
vn -0.9791 0.0000 0.2036
vn 0.2370 0.0000 0.9715
vn 0.0473 0.0000 0.9989
vn -0.0171 0.0000 -0.9999
vn -0.9024 0.0000 0.4309
vn -0.9961 0.0000 0.0880
vn 0.4743 0.0000 0.8804
vn -0.9058 0.0000 -0.4238
vn -0.0387 0.0000 -0.9993
vn 0.9608 0.0000 0.2771
vn -0.3480 0.0000 -0.9375
vn 0.9024 0.0000 0.4309
vn -0.1651 0.0000 0.9863
vn 0.8895 0.0000 -0.4570
vn -0.2271 0.0000 -0.9739
vn 0.6341 0.0000 -0.7732
vn 0.4172 0.0000 -0.9088
vn 0.9995 0.0000 0.0314
vn 0.3585 0.0000 0.9335
vn 0.9878 0.0000 -0.1559
vn 0.9608 0.0000 -0.2771
vn -0.8181 0.0000 0.5750
vn 0.1746 0.0000 0.9846
vn -0.8181 0.0000 -0.5750
vn -0.2271 0.0000 0.9739
vn -0.5188 0.0000 0.8549
vn -0.9656 0.0000 -0.2602
vn 0.9878 0.0000 0.1559
vn -0.4065 0.0000 0.9136
vn 0.8931 0.0000 0.4499
vn 0.8304 0.0000 -0.5571
vn -0.5188 0.0000 -0.8549
vn -0.0387 0.0000 0.9993
vn -0.4065 0.0000 -0.9136
vn -0.0171 0.0000 0.9999
vn 0.5296 0.0000 -0.8482
vn 0.8931 0.0000 -0.4499
vn -0.9029 0.0000 0.4299
vn 0.6341 0.0000 0.7732
vn 0.9995 0.0000 -0.0314
vn -0.9996 0.0000 0.0294
vn 0.9029 0.0000 0.4299
vn -0.6234 0.0000 0.7819
vn 0.2984 0.0000 0.9544
vn -0.9488 0.0000 -0.3159
vn -0.9058 0.0000 0.4238
vn 0.0473 0.0000 -0.9989
vn 0.9418 0.0000 0.3361
vn -0.1022 0.0000 0.9948
vn 0.8305 0.0000 0.5571
vn 0.1113 0.0000 -0.9938
vn 0.7545 0.0000 -0.6564
vn -0.2882 0.0000 -0.9576
usemtl SVGMat.011
s off
f 13//1 14//1 11//1
f 13//1 11//1 12//1
f 19//1 20//1 17//1
f 17//1 20//1 21//1
f 21//1 22//1 15//1
f 21//1 15//1 16//1
f 19//1 17//1 18//1
f 16//1 17//1 21//1
f 23//1 24//1 25//1
f 95//1 23//1 25//1
f 94//1 95//1 25//1
f 93//1 94//1 25//1
f 92//1 93//1 25//1
f 91//1 92//1 25//1
f 90//1 91//1 25//1
f 89//1 90//1 25//1
f 88//1 89//1 25//1
f 87//1 88//1 25//1
f 86//1 87//1 25//1
f 85//1 86//1 25//1
f 84//1 85//1 25//1
f 83//1 84//1 157//1
f 157//1 84//1 25//1
f 157//1 25//1 26//1
f 157//1 26//1 27//1
f 157//1 27//1 28//1
f 157//1 28//1 29//1
f 157//1 29//1 30//1
f 157//1 30//1 31//1
f 157//1 31//1 32//1
f 157//1 32//1 33//1
f 157//1 33//1 34//1
f 157//1 34//1 35//1
f 157//1 35//1 36//1
f 157//1 36//1 144//1
f 144//1 36//1 37//1
f 157//1 144//1 145//1
f 143//1 144//1 37//1
f 83//1 157//1 96//1
f 156//2 157//2 145//2
f 155//2 156//2 145//2
f 154//2 155//2 145//2
f 153//2 154//2 145//2
f 152//2 153//2 145//2
f 151//2 152//2 145//2
f 150//2 151//2 145//2
f 149//2 150//2 145//2
f 148//2 149//2 145//2
f 147//2 148//2 145//2
f 146//2 147//2 145//2
f 142//1 143//1 37//1
f 141//1 142//1 37//1
f 140//1 141//1 37//1
f 140//1 37//1 38//1
f 139//1 140//1 38//1
f 138//1 139//1 38//1
f 137//1 138//1 38//1
f 136//1 137//1 38//1
f 136//1 38//1 39//1
f 135//1 136//1 39//1
f 134//1 135//1 39//1
f 134//1 39//1 40//1
f 133//1 134//1 40//1
f 132//1 133//1 40//1
f 132//1 40//1 41//1
f 131//1 132//1 41//1
f 130//1 131//1 41//1
f 130//1 41//1 42//1
f 129//1 130//1 42//1
f 128//1 129//1 42//1
f 128//1 42//1 43//1
f 127//1 128//1 43//1
f 127//1 43//1 44//1
f 126//1 127//1 44//1
f 125//1 126//1 44//1
f 125//1 44//1 45//1
f 124//1 125//1 45//1
f 124//1 45//1 46//1
f 123//1 124//1 46//1
f 122//1 123//1 46//1
f 122//1 46//1 47//1
f 121//1 122//1 47//1
f 120//1 121//1 47//1
f 120//1 47//1 48//1
f 119//1 120//1 48//1
f 119//1 48//1 49//1
f 118//1 119//1 49//1
f 117//1 118//1 49//1
f 117//1 49//1 50//1
f 116//1 117//1 50//1
f 116//1 50//1 51//1
f 115//1 116//1 51//1
f 114//1 115//1 51//1
f 114//1 51//1 52//1
f 113//1 114//1 52//1
f 113//1 52//1 53//1
f 112//1 113//1 53//1
f 111//1 112//1 53//1
f 111//1 53//1 54//1
f 110//1 111//1 54//1
f 109//1 110//1 54//1
f 109//1 54//1 55//1
f 108//1 109//1 55//1
f 107//1 108//1 55//1
f 107//1 55//1 56//1
f 106//1 107//1 56//1
f 105//1 106//1 56//1
f 105//1 56//1 57//1
f 104//1 105//1 57//1
f 103//1 104//1 57//1
f 102//1 103//1 57//1
f 101//1 102//1 57//1
f 101//1 57//1 58//1
f 100//1 101//1 58//1
f 99//1 100//1 58//1
f 98//1 99//1 58//1
f 83//1 96//1 97//1
f 83//1 97//1 98//1
f 83//1 98//1 58//1
f 83//1 58//1 59//1
f 83//1 59//1 60//1
f 83//1 60//1 61//1
f 83//1 61//1 62//1
f 83//1 62//1 63//1
f 83//1 63//1 64//1
f 83//1 64//1 65//1
f 83//1 65//1 66//1
f 83//1 66//1 67//1
f 83//1 67//1 68//1
f 83//1 68//1 69//1
f 83//1 69//1 82//1
f 82//1 69//1 81//1
f 81//1 69//1 80//1
f 80//1 69//1 79//1
f 79//1 69//1 78//1
f 78//1 69//1 77//1
f 77//1 69//1 76//1
f 76//1 69//1 75//1
f 75//1 69//1 74//1
f 74//1 69//1 73//1
f 73//1 69//1 72//1
f 72//1 69//1 71//1
f 71//1 69//1 70//1
f 160//1 161//1 158//1
f 160//1 158//1 159//1
f 6//1 7//1 10//1
f 10//1 7//1 1//1
f 6//1 10//1 8//1
f 9//1 10//1 1//1
f 6//1 8//1 4//1
f 4//1 8//1 9//1
f 4//1 9//1 3//1
f 3//1 9//1 1//1
f 6//1 4//1 5//1
f 2//1 3//1 1//1
f 228//3 188//3 189//3
f 228//3 296//3 188//3
f 262//3 261//3 250//3
f 261//3 251//3 250//3
f 251//3 317//3 322//3
f 251//3 260//3 317//3
f 262//3 320//3 261//3
f 260//3 251//3 261//3
f 272//3 164//3 241//3
f 273//3 164//3 272//3
f 220//4 164//4 273//4
f 259//3 164//3 220//3
f 258//5 164//5 259//5
f 307//4 164//4 258//4
f 239//6 164//6 307//6
f 248//3 164//3 239//3
f 247//3 164//3 248//3
f 292//6 164//6 247//6
f 213//3 164//3 292//3
f 199//3 164//3 213//3
f 198//3 164//3 199//3
f 234//3 166//3 198//3
f 166//3 164//3 198//3
f 166//3 165//3 164//3
f 166//3 186//3 165//3
f 166//3 275//3 186//3
f 166//3 174//3 275//3
f 166//3 175//3 174//3
f 166//3 314//3 175//3
f 166//3 289//3 314//3
f 166//3 256//3 289//3
f 166//3 257//3 256//3
f 166//3 301//3 257//3
f 166//3 270//3 301//3
f 166//3 187//3 270//3
f 187//3 200//3 270//3
f 166//7 184//7 187//7
f 201//4 200//4 187//4
f 234//3 269//3 166//3
f 173//2 184//2 166//2
f 284//2 184//2 173//2
f 315//2 184//2 284//2
f 219//8 184//8 315//8
f 218//2 184//2 219//2
f 300//2 184//2 218//2
f 308//8 184//8 300//8
f 209//2 184//2 308//2
f 208//2 184//2 209//2
f 185//2 184//2 208//2
f 313//2 184//2 185//2
f 295//9 200//9 201//9
f 227//3 200//3 295//3
f 226//3 200//3 227//3
f 226//3 206//3 200//3
f 306//3 206//3 226//3
f 319//3 206//3 306//3
f 207//3 206//3 319//3
f 254//3 206//3 207//3
f 254//3 182//3 206//3
f 183//3 182//3 254//3
f 288//3 182//3 183//3
f 288//3 243//3 182//3
f 302//3 243//3 288//3
f 244//3 243//3 302//3
f 244//3 196//3 243//3
f 316//3 196//3 244//3
f 212//3 196//3 316//3
f 212//3 197//3 196//3
f 211//3 197//3 212//3
f 291//3 197//3 211//3
f 291//3 285//3 197//3
f 195//3 285//3 291//3
f 195//3 194//3 285//3
f 268//3 194//3 195//3
f 225//3 194//3 268//3
f 225//3 210//3 194//3
f 290//3 210//3 225//3
f 290//3 204//3 210//3
f 205//3 204//3 290//3
f 279//3 204//3 205//3
f 279//3 192//3 204//3
f 193//3 192//3 279//3
f 287//3 192//3 193//3
f 287//3 171//3 192//3
f 172//3 171//3 287//3
f 172//3 224//3 171//3
f 203//3 224//3 172//3
f 305//3 224//3 203//3
f 305//3 237//3 224//3
f 238//3 237//3 305//3
f 238//3 245//3 237//3
f 253//3 245//3 238//3
f 246//3 245//3 253//3
f 246//3 162//3 245//3
f 282//3 162//3 246//3
f 282//3 163//3 162//3
f 266//3 163//3 282//3
f 265//3 163//3 266//3
f 265//3 271//3 163//3
f 312//3 271//3 265//3
f 278//3 271//3 312//3
f 278//3 277//3 271//3
f 274//3 277//3 278//3
f 264//3 277//3 274//3
f 264//3 263//3 277//3
f 309//3 263//3 264//3
f 233//3 263//3 309//3
f 233//3 232//3 263//3
f 281//3 232//3 233//3
f 280//3 232//3 281//3
f 321//3 232//3 280//3
f 249//3 232//3 321//3
f 249//3 180//3 232//3
f 304//3 180//3 249//3
f 181//3 180//3 304//3
f 217//3 180//3 181//3
f 234//3 310//3 269//3
f 234//3 217//3 310//3
f 234//3 180//3 217//3
f 234//3 294//3 180//3
f 234//3 178//3 294//3
f 234//3 179//3 178//3
f 234//3 303//3 179//3
f 234//3 299//3 303//3
f 234//3 222//3 299//3
f 234//3 223//3 222//3
f 234//3 240//3 223//3
f 234//3 252//3 240//3
f 234//3 298//3 252//3
f 234//3 202//3 298//3
f 234//3 318//3 202//3
f 318//3 231//3 202//3
f 231//10 230//10 202//10
f 230//3 293//3 202//3
f 293//3 177//3 202//3
f 177//3 176//3 202//3
f 176//3 286//3 202//3
f 286//3 267//3 202//3
f 267//3 170//3 202//3
f 170//3 169//3 202//3
f 169//3 283//3 202//3
f 283//3 297//3 202//3
f 297//3 214//3 202//3
f 168//3 190//3 191//3
f 168//3 167//3 190//3
f 235//3 216//3 221//3
f 216//3 229//3 221//3
f 235//3 236//3 216//3
f 215//3 229//3 216//3
f 235//3 255//3 236//3
f 255//3 215//3 236//3
f 255//3 311//3 215//3
f 311//3 229//3 215//3
f 235//3 242//3 255//3
f 276//3 229//3 311//3
f 126//11 125//11 225//11 268//11
f 131//12 130//12 212//12 316//12
f 160//2 159//2 167//2 168//2
f 15//8 22//8 322//8 317//8
f 109//13 108//13 274//13 278//13
f 86//14 85//14 199//14 213//14
f 74//2 73//2 169//2 170//2
f 89//14 88//14 247//14 248//14
f 28//15 27//15 186//15 275//15
f 128//16 127//16 195//16 291//16
f 157//2 156//2 173//2 166//2
f 113//17 112//17 266//17 282//17
f 98//18 97//18 310//18 217//18
f 30//19 29//19 174//19 175//19
f 148//2 147//2 185//2 208//2
f 124//20 123//20 205//20 290//20
f 78//2 77//2 176//2 177//2
f 139//21 138//21 319//21 306//21
f 21//22 20//22 250//22 251//22
f 51//23 50//23 237//23 245//23
f 61//24 60//24 178//24 179//24
f 13//2 12//2 296//2 228//2
f 115//25 114//25 246//25 253//25
f 101//26 100//26 304//26 249//26
f 49//27 48//27 171//27 224//27
f 91//14 90//14 239//14 307//14
f 137//28 136//28 254//28 207//28
f 84//29 83//29 234//29 198//29
f 106//30 105//30 233//30 309//30
f 69//31 68//31 298//31 202//31
f 145//32 144//32 187//32 184//32
f 150//2 149//2 209//2 308//2
f 44//33 43//33 285//33 194//33
f 11//8 14//8 189//8 188//8
f 58//34 57//34 232//34 180//34
f 19//2 18//2 320//2 262//2
f 34//35 33//35 256//35 257//35
f 158//8 161//8 191//8 190//8
f 4//2 3//2 311//2 255//2
f 93//14 92//14 258//14 259//14
f 87//14 86//14 213//14 292//14
f 118//36 117//36 305//36 203//36
f 120//37 119//37 172//37 287//37
f 80//2 79//2 293//2 230//2
f 154//2 153//2 219//2 315//2
f 152//2 151//2 300//2 218//2
f 135//38 134//38 288//38 183//38
f 42//39 41//39 196//39 197//39
f 85//14 84//14 198//14 199//14
f 133//40 132//40 244//40 302//40
f 112//41 111//41 265//41 266//41
f 39//42 38//42 206//42 182//42
f 147//2 146//2 313//2 185//2
f 64//43 63//43 299//43 222//43
f 62//44 61//44 179//44 303//44
f 127//45 126//45 268//45 195//45
f 32//46 31//46 314//46 289//46
f 82//2 81//2 231//2 318//2
f 119//47 118//47 203//47 172//47
f 100//48 99//48 181//48 304//48
f 41//49 40//49 243//49 196//49
f 110//50 109//50 278//50 312//50
f 59//51 58//51 180//51 294//51
f 140//52 139//52 306//52 226//52
f 121//53 120//53 287//53 193//53
f 54//54 53//54 163//54 271//54
f 22//29 21//29 251//29 322//29
f 149//2 148//2 208//2 209//2
f 92//14 91//14 307//14 258//14
f 56//55 55//55 277//55 263//55
f 23//14 95//14 273//14 272//14
f 159//56 158//56 190//56 167//56
f 7//57 6//57 235//57 221//57
f 46//58 45//58 210//58 204//58
f 108//59 107//59 264//59 274//59
f 130//60 129//60 211//60 212//60
f 17//61 16//61 260//61 261//61
f 27//62 26//62 165//62 186//62
f 29//63 28//63 275//63 174//63
f 37//64 36//64 270//64 200//64
f 125//65 124//65 290//65 225//65
f 2//2 1//2 229//2 276//2
f 12//56 11//56 188//56 296//56
f 67//66 66//66 240//66 252//66
f 70//67 69//67 202//67 214//67
f 24//68 23//68 272//68 241//68
f 72//2 71//2 297//2 283//2
f 10//69 9//69 215//69 216//69
f 79//2 78//2 177//2 293//2
f 123//70 122//70 279//70 205//70
f 63//71 62//71 303//71 299//71
f 114//72 113//72 282//72 246//72
f 99//73 98//73 217//73 181//73
f 52//74 51//74 245//74 162//74
f 104//75 103//75 280//75 281//75
f 8//76 10//76 216//76 236//76
f 142//77 141//77 227//77 295//77
f 153//2 152//2 218//2 219//2
f 1//78 7//78 221//78 229//78
f 97//8 96//8 269//8 310//8
f 102//79 101//79 249//79 321//79
f 73//2 72//2 283//2 169//2
f 155//2 154//2 315//2 284//2
f 35//80 34//80 257//80 301//80
f 31//81 30//81 175//81 314//81
f 156//2 155//2 284//2 173//2
f 48//82 47//82 192//82 171//82
f 65//83 64//83 222//83 223//83
f 151//2 150//2 308//2 300//2
f 45//84 44//84 194//84 210//84
f 20//29 19//29 262//29 250//29
f 161//29 160//29 168//29 191//29
f 43//85 42//85 197//85 285//85
f 132//86 131//86 316//86 244//86
f 90//14 89//14 248//14 239//14
f 9//8 8//8 236//8 215//8
f 68//87 67//87 252//87 298//87
f 111//88 110//88 312//88 265//88
f 141//89 140//89 226//89 227//89
f 136//90 135//90 183//90 254//90
f 75//2 74//2 170//2 267//2
f 77//2 76//2 286//2 176//2
f 117//91 116//91 238//91 305//91
f 14//29 13//29 228//29 189//29
f 50//92 49//92 224//92 237//92
f 138//93 137//93 207//93 319//93
f 81//2 80//2 230//2 231//2
f 55//94 54//94 271//94 277//94
f 94//14 93//14 259//14 220//14
f 16//56 15//56 317//56 260//56
f 38//95 37//95 200//95 206//95
f 83//2 82//2 318//2 234//2
f 107//96 106//96 309//96 264//96
f 144//97 143//97 201//97 187//97
f 18//56 17//56 261//56 320//56
f 105//98 104//98 281//98 233//98
f 71//99 70//99 214//99 297//99
f 33//100 32//100 289//100 256//100
f 40//101 39//101 182//101 243//101
f 3//102 2//102 276//102 311//102
f 60//103 59//103 294//103 178//103
f 47//104 46//104 204//104 192//104
f 122//105 121//105 193//105 279//105
f 5//106 4//106 255//106 242//106
f 134//107 133//107 302//107 288//107
f 66//108 65//108 223//108 240//108
f 116//109 115//109 253//109 238//109
f 129//110 128//110 291//110 211//110
f 25//111 24//111 241//111 164//111
f 96//56 157//56 166//56 269//56
f 6//2 5//2 242//2 235//2
f 76//2 75//2 267//2 286//2
f 53//112 52//112 162//112 163//112
f 88//14 87//14 292//14 247//14
f 143//113 142//113 295//113 201//113
f 57//114 56//114 263//114 232//114
f 26//115 25//115 164//115 165//115
f 36//116 35//116 301//116 270//116
f 103//117 102//117 321//117 280//117
f 146//2 145//2 184//2 313//2
f 95//14 94//14 220//14 273//14
