# Blender v2.79 (sub 0) OBJ File: 'labels.blend'
# www.blender.org
mtllib label-ML.mtl
o label-ML_CUCurve.072
v 0.099530 0.000000 -0.031098
v 0.099530 0.000000 0.032108
v 0.086887 0.000000 0.032108
v 0.086887 0.000000 -0.031098
v -0.087417 0.000000 0.026154
v -0.105932 0.000000 -0.000652
v -0.110532 0.000000 0.032108
v -0.123627 0.000000 0.032108
v -0.113693 0.000000 -0.033355
v -0.087502 0.000000 0.006572
v -0.061311 0.000000 -0.033355
v -0.051377 0.000000 0.032108
v -0.064472 0.000000 0.032108
v -0.069073 0.000000 -0.000652
v 0.024571 0.000000 0.032108
v 0.011024 0.000000 0.032108
v 0.003714 0.000000 0.016758
v -0.022307 0.000000 0.016758
v -0.029730 0.000000 0.032108
v -0.043277 0.000000 0.032108
v -0.009410 0.000000 -0.033807
v -0.017058 0.000000 0.005923
v -0.001507 0.000000 0.005923
v -0.009268 0.000000 -0.010330
v 0.049294 0.000000 -0.031098
v 0.049294 0.000000 0.020821
v 0.074130 0.000000 0.020821
v 0.074130 0.000000 0.032108
v 0.036763 0.000000 0.032108
v 0.036763 0.000000 -0.031098
v -0.022307 0.050000 0.016758
v -0.043277 0.050000 0.032108
v -0.001507 0.050000 0.005923
v -0.009268 0.050000 -0.010330
v -0.087502 0.050000 0.006572
v -0.069073 0.050000 -0.000652
v -0.113693 0.050000 -0.033355
v -0.105932 0.050000 -0.000652
v -0.110532 0.050000 0.032108
v 0.086887 0.050000 0.032108
v 0.086887 0.050000 -0.031098
v 0.049294 0.050000 -0.031098
v 0.049294 0.050000 0.020821
v -0.087417 0.050000 0.026154
v 0.003714 0.050000 0.016758
v -0.017058 0.050000 0.005923
v 0.024571 0.050000 0.032108
v 0.074130 0.050000 0.020821
v 0.036763 0.050000 0.032108
v -0.123627 0.050000 0.032108
v -0.061311 0.050000 -0.033355
v -0.051377 0.050000 0.032108
v -0.009410 0.050000 -0.033807
v 0.074130 0.050000 0.032108
v 0.036763 0.050000 -0.031098
v -0.064472 0.050000 0.032108
v 0.099530 0.050000 0.032108
v 0.099530 0.050000 -0.031098
v -0.029730 0.050000 0.032108
v 0.011024 0.050000 0.032108
vn 0.0000 -1.0000 0.0000
vn 0.0000 1.0000 0.0000
vn 0.0000 0.0000 1.0000
vn -0.8228 0.0000 0.5683
vn -0.8362 0.0000 -0.5485
vn 0.0000 0.0000 -1.0000
vn -0.9024 0.0000 0.4309
vn -0.9903 0.0000 0.1391
vn -0.9887 0.0000 -0.1500
vn 0.8362 0.0000 -0.5485
vn 0.9887 0.0000 -0.1500
vn 1.0000 0.0000 0.0000
vn 0.9903 0.0000 0.1391
vn 0.8888 0.0000 -0.4582
vn -0.9029 0.0000 0.4299
vn -1.0000 0.0000 0.0000
vn 0.9003 0.0000 0.4353
vn 0.9018 0.0000 0.4322
vn -0.8895 0.0000 -0.4570
vn 0.8253 0.0000 0.5648
usemtl SVGMat.015
s off
f 8//1 9//1 6//1
f 6//1 9//1 10//1
f 10//1 11//1 14//1
f 14//1 11//1 12//1
f 8//1 6//1 7//1
f 5//1 6//1 10//1
f 10//1 14//1 5//1
f 13//1 14//1 12//1
f 20//1 21//1 24//1
f 24//1 21//1 15//1
f 20//1 24//1 22//1
f 23//1 24//1 15//1
f 20//1 22//1 18//1
f 18//1 22//1 23//1
f 18//1 23//1 17//1
f 17//1 23//1 15//1
f 20//1 18//1 19//1
f 16//1 17//1 15//1
f 29//1 30//1 25//1
f 29//1 25//1 26//1
f 29//1 26//1 27//1
f 29//1 27//1 28//1
f 3//1 4//1 1//1
f 3//1 1//1 2//1
f 50//2 38//2 37//2
f 38//2 35//2 37//2
f 35//2 36//2 51//2
f 36//2 52//2 51//2
f 50//2 39//2 38//2
f 44//2 35//2 38//2
f 35//2 44//2 36//2
f 56//2 52//2 36//2
f 32//2 34//2 53//2
f 34//2 47//2 53//2
f 32//2 46//2 34//2
f 33//2 47//2 34//2
f 32//2 31//2 46//2
f 31//2 33//2 46//2
f 31//2 45//2 33//2
f 45//2 47//2 33//2
f 32//2 59//2 31//2
f 60//2 47//2 45//2
f 49//2 42//2 55//2
f 49//2 43//2 42//2
f 49//2 48//2 43//2
f 49//2 54//2 48//2
f 40//2 58//2 41//2
f 40//2 57//2 58//2
f 13//3 12//3 52//3 56//3
f 8//3 7//3 39//3 50//3
f 6//4 5//4 44//4 38//4
f 3//3 2//3 57//3 40//3
f 11//5 10//5 35//5 51//5
f 1//6 4//6 41//6 58//6
f 16//3 15//3 47//3 60//3
f 24//7 23//7 33//7 34//7
f 20//3 19//3 59//3 32//3
f 27//6 26//6 43//6 48//6
f 14//8 13//8 56//8 36//8
f 9//9 8//9 50//9 37//9
f 10//10 9//10 37//10 35//10
f 29//3 28//3 54//3 49//3
f 12//11 11//11 51//11 52//11
f 2//12 1//12 58//12 57//12
f 7//13 6//13 38//13 39//13
f 15//14 21//14 53//14 47//14
f 17//15 16//15 60//15 45//15
f 4//16 3//16 40//16 41//16
f 19//17 18//17 31//17 59//17
f 26//12 25//12 42//12 43//12
f 28//12 27//12 48//12 54//12
f 30//16 29//16 49//16 55//16
f 25//6 30//6 55//6 42//6
f 22//18 24//18 34//18 46//18
f 23//6 22//6 46//6 33//6
f 18//3 17//3 45//3 31//3
f 21//19 20//19 32//19 53//19
f 5//20 14//20 36//20 44//20
